<svg width="86" height="86" viewBox="0 0 86 86" fill="none" xmlns="http://www.w3.org/2000/svg">
<g clip-path="url(#clip0_74_175)">
<path d="M43.959 11.0153C43.89 7.78396 47.5149 10.0497 48.2931 11.724C55.4597 21.9207 65.1871 29.8385 72.833 39.6447C73.2665 36.051 73.121 32.4411 73.2973 28.8633C74.2405 25.0779 80.5465 26.7095 79.763 30.4791C78.9215 36.2616 78.3864 42.0698 78.0589 47.9109C78.0914 50.8545 74.4455 52.0842 72.1504 50.8261C67.2984 48.8487 62.7844 46.0197 58.672 42.809C57.0438 41.8339 57.3637 38.6877 59.6079 38.8529C62.3508 38.7262 64.7372 40.3634 67.2066 41.3517C59.4893 31.2413 48.1427 23.4499 43.959 11.0153Z" fill="#363F4D"/>
<path d="M22.952 26.2663C24.7714 25.9735 26.7663 26.0521 27.5884 28.0304C32.8736 36.61 40.4749 43.3244 46.9453 50.9366C46.709 48.889 45.7847 44.469 49.0996 44.6921C52.1776 44.2633 52.2091 48.4696 52.6506 50.5471C52.9451 54.6991 54.9089 58.7188 54.6093 62.8812C52.4614 67.4098 47.1907 63.192 44.3259 61.6485C41.6807 59.3476 35.9642 58.044 36.8458 53.7237C38.8204 52.3809 41.0627 53.5476 43.0752 54.1345C35.949 47.4646 28.8567 40.4511 24.1473 31.8108C23.113 30.1372 22.9553 28.1562 22.952 26.2663Z" fill="#363F4D"/>
<path d="M4.87846 40.1136C2.81253 37.8033 6.44926 34.4726 8.08029 37.4856C15.0278 46.2633 21.4807 55.4559 27.2898 65.05C26.7062 61.9082 25.3518 54.707 30.8936 56.7121C33.0877 61.0353 32.4897 66.1961 33.1272 70.9128C33.5397 73.1857 33.2054 76.7742 30.1451 76.7472C26.1594 75.9957 22.8322 73.408 19.5599 71.1621C17.6781 69.5991 14.3676 67.5078 16.3213 64.732C18.6676 64.1876 20.6098 65.6728 22.5269 66.7572C16.7308 57.8228 10.1506 49.374 4.87846 40.1136Z" fill="#363F4D"/>
</g>
<defs>
<clipPath id="clip0_74_175">
<rect width="80" height="80" fill="white" transform="translate(0 5.4165) rotate(-3.8821)"/>
</clipPath>
</defs>
</svg>
