<svg width="89" height="89" viewBox="0 0 89 89" fill="none" xmlns="http://www.w3.org/2000/svg">
<path d="M52.3638 69.2744C52.5486 69.3479 52.7138 69.4636 52.8459 69.6123C52.9781 69.761 53.0737 69.9385 53.125 70.1308C53.232 70.5921 53.2615 71.0681 53.2124 71.5391C53.1865 71.9075 52.6539 72.6699 52.3706 72.6213C51.8278 72.5409 51.2926 72.4161 50.7702 72.2483C50.4382 72.1515 46.6552 69.5157 45.3672 68.6525C44.1312 67.8004 42.953 66.8674 41.8403 65.8597C39.559 63.8241 37.2663 61.8632 35.01 59.8315C34.5217 59.3627 34.0679 58.8593 33.6523 58.3252C32.1814 56.538 30.546 54.8929 28.7677 53.4114C28.4991 53.1287 28.1715 52.9087 27.8082 52.767C27.1443 52.5733 22.5728 48.261 22.0693 47.587C20.8852 45.9135 19.6031 44.3296 18.3968 42.668C18.2188 42.4316 17.9482 42.2676 17.9402 41.9374C17.8528 41.2751 17.5395 40.6631 17.0533 40.205C16.5064 39.5199 16.0142 38.793 15.5813 38.0309C15.3977 37.585 15.2765 37.1158 15.2213 36.6368C15.146 36.1968 15.8954 35.8502 16.0175 35.9021C16.4596 36.0286 16.5323 35.5552 16.7265 35.3197C16.8007 35.2351 16.8859 35.1607 16.9797 35.0985C17.8067 35.4265 18.6048 35.8228 19.366 36.2831C20.2704 36.7321 21.138 37.2515 21.961 37.8364C21.961 37.8364 22.3203 38.1874 22.8322 38.6739L24.7126 40.4466C26.1087 41.7522 27.5928 43.0994 27.9045 43.3614C28.218 43.6617 28.4822 44.0095 28.6875 44.3919C28.797 44.5592 33.1211 48.372 33.2726 48.5482C34.1773 49.339 34.9506 50.2685 35.5636 51.3019C35.6806 51.5169 35.8423 51.7043 36.0377 51.8515C37.5313 53.2537 38.8669 54.8204 40.2509 56.3384C40.958 57.115 41.7551 57.8034 42.4962 58.5419C42.6202 58.6908 42.736 58.8465 42.8429 59.0082C42.9752 59.2077 43.1237 59.396 43.287 59.5711C45.1054 61.2654 46.7373 63.1453 48.6562 64.7172C49.0981 65.0783 50.7759 67.2738 51.3031 67.6607C51.5897 67.8704 52.0527 69.1579 52.3638 69.2744Z" fill="#363F4D"/>
<path d="M44.7061 47.3109C44.9015 47.5327 45.0314 47.8045 45.0813 48.0958C45.1311 48.3872 45.099 48.6867 44.9885 48.9608C44.9292 49.1812 44.4862 49.4754 44.3168 49.3831C43.9884 49.2129 43.6522 49.044 43.3434 48.8462C43.1685 48.7225 40.7617 46.4253 39.87 45.7045C39.4438 45.3408 39.0412 44.973 38.6516 44.5868C38.262 44.2006 37.9456 43.7696 37.6306 43.3464L33.5209 38.2353C33.221 37.8532 32.9585 37.4432 32.7371 37.0108C31.9479 35.5453 31.002 34.1698 29.916 32.9084C29.774 32.6589 29.5623 32.4562 29.3067 32.3253C28.8289 32.1321 26.2221 28.4783 25.9746 27.9303C25.6873 27.2435 25.3725 26.5858 25.0564 25.9201C24.7403 25.2545 24.4751 24.5559 24.1812 23.8784C24.1004 23.69 23.9294 23.5414 23.9872 23.2646C24.0166 23.0243 23.9955 22.7805 23.9252 22.5488C23.8549 22.3171 23.737 22.1027 23.579 21.9193C23.2614 21.3769 22.9788 20.8148 22.7329 20.2364C22.641 19.8988 22.5949 19.5503 22.596 19.2004C22.5422 18.8862 23.123 18.6412 23.2345 18.6787C23.5535 18.7939 23.6384 18.4397 23.8198 18.2712C23.8831 18.2098 23.9522 18.1546 24.0262 18.1065C25.2654 18.8128 26.4546 19.6036 27.5852 20.4733L29.5493 22.4985C30.4608 23.5717 31.404 24.688 31.5793 24.9087C31.7768 25.1586 31.9269 25.4427 32.022 25.7467C32.0462 25.8882 34.8369 29.0577 34.9188 29.2054C35.5039 29.8707 35.9181 30.6687 36.1255 31.5301C36.167 31.7034 36.25 31.864 36.3673 31.9982C37.1952 33.2446 37.9559 34.5343 38.6461 35.8619C39.0186 36.5259 39.4786 37.1346 39.8876 37.7762C39.9484 37.9039 40.0007 38.0354 40.044 38.17C40.1007 38.3343 40.1739 38.4925 40.2623 38.6421C41.2557 40.1461 42.1536 41.7068 43.1183 43.2319C43.3321 43.5835 44.0403 45.5002 44.3237 45.8803C44.444 46.1104 44.5427 47.1124 44.7061 47.3109Z" fill="#363F4D"/>
<path d="M73.8246 56.317C74.3293 56.6673 74.1619 57.3429 73.6376 58.2009C73.4658 58.4729 72.7195 58.9323 72.5214 58.8611C72.1426 58.7433 71.7739 58.5954 71.4186 58.419C71.2359 58.2966 68.9377 55.9728 68.1976 55.1452C67.4923 54.3509 66.8633 53.492 66.319 52.5798C65.1984 50.7579 64.0751 48.9203 62.9546 47.0985C62.7123 46.6877 62.5132 46.2529 62.3605 45.8011C61.8057 44.2596 61.0629 42.7923 60.1489 41.4326C60.036 41.1765 59.8557 40.9558 59.6272 40.7941C59.1727 40.5484 57.0304 36.726 56.8707 36.1711C56.4793 34.7824 55.9402 33.4757 55.5201 32.1081C55.4852 31.9038 55.2971 31.75 55.4139 31.4874C55.4773 31.2604 55.4895 31.0221 55.4497 30.7898C55.41 30.5575 55.3192 30.3369 55.1839 30.1439C54.9323 29.5869 54.723 29.0118 54.5578 28.4234C54.5106 28.0771 54.5214 27.7254 54.59 27.3827C54.6239 27.0615 55.3071 26.8476 55.3807 26.8997C55.7023 27.0306 55.862 26.6879 56.1247 26.5216C56.203 26.4629 56.286 26.4109 56.373 26.3659C57.506 27.1613 58.5597 28.0642 59.5194 29.0621C59.5194 29.0621 59.7317 29.3573 60.0153 29.7859C60.2989 30.2145 60.6669 30.758 61.0403 31.333C61.7779 32.4764 62.5484 33.6708 62.7171 33.9007C62.8761 34.1646 62.9837 34.4563 63.0341 34.7602C63.0597 34.9095 65.3363 38.2884 65.3958 38.3995C65.872 39.1064 66.1959 39.9047 66.347 40.7436C66.3744 40.9109 66.4431 41.0687 66.5469 41.2027C67.2559 42.4521 67.8997 43.7375 68.4757 45.0535C68.7983 45.71 69.202 46.3202 69.6084 46.9461C69.6613 47.0725 69.7027 47.2035 69.732 47.3374C69.7712 47.5012 69.8309 47.6595 69.9096 47.8084C70.815 49.2708 71.5271 50.8795 72.5802 52.2601C72.8436 52.5708 73.3945 54.4659 73.6687 54.8395C73.7144 55.1066 73.6143 56.1751 73.8246 56.317Z" fill="#363F4D"/>
</svg>
