<svg width="80" height="80" viewBox="0 0 80 80" fill="none" xmlns="http://www.w3.org/2000/svg">
<path d="M65.3332 4.58413C65.9352 2.16397 69.5424 1.01015 71.1777 3.05486C72.4041 4.44547 72.0785 6.44048 71.1894 7.91482C73.5257 13.0586 71.9181 18.744 70.5813 23.9206C69.7856 27.0471 67.7635 30.1358 64.538 31.113C59.7146 32.5769 54.5993 31.8966 49.643 31.7593C42.7213 31.8809 35.4731 32.2511 29.2249 35.5766C24.9325 37.8306 20.7503 40.9794 18.8218 45.5816C16.7895 50.1001 16.8554 55.2112 17.7782 59.9953C20.6731 59.9508 23.5512 59.6356 26.4404 59.5361C22.7443 65.4531 19.9051 71.8397 16.6504 78C13.3917 72.5579 10.8335 66.7508 8 61.0942C10.1488 60.7358 12.2921 60.3708 14.4521 60.1392C13.2532 53.3772 14.1322 45.8354 18.6505 40.4051C22.4239 35.9913 27.65 32.9641 33.1194 31.1523C37.5831 29.7486 42.29 29.4607 46.9311 29.2122C52.4169 28.9362 58.0354 30.1135 63.4328 28.6928C66.1176 27.9746 67.5428 25.2732 68.2112 22.7759C69.4105 18.2953 71.0233 13.5453 69.5486 8.93256C66.996 9.673 64.538 7.06447 65.3332 4.58413Z" fill="#363F4D"/>
</svg>
