<svg width="62" height="62" viewBox="0 0 62 62" fill="none" xmlns="http://www.w3.org/2000/svg">
<path d="M40.6874 38.4465C39.8744 38.2478 39.1636 37.7556 38.6918 37.0644C38.5949 36.9352 38.4399 36.7544 38.3818 36.6704L38.1687 36.3863C38.0201 36.1925 37.9039 36.044 37.7618 35.8761C37.6197 35.7081 37.2903 35.4627 37.0772 35.2302L36.9739 35.1333L36.8964 35.0494C36.8652 35.0118 36.8306 34.9772 36.7931 34.9461C36.7098 34.8603 36.6011 34.8037 36.4831 34.7846C36.2118 34.7846 36.1537 35.0752 36.102 35.3465C36.102 35.3788 36.102 35.5596 36.102 35.6694C36.102 35.7792 36.102 35.9277 36.102 36.0569C36.103 36.3101 36.1246 36.5628 36.1666 36.8125C36.2595 37.3965 36.4357 37.9641 36.6897 38.4981C36.7801 38.6596 36.6897 38.8275 36.3733 38.8986C36.1389 38.9404 35.8979 38.9227 35.6722 38.8471C35.4465 38.7715 35.2434 38.6404 35.0816 38.4658C34.9222 38.2868 34.7755 38.0969 34.6424 37.8975C34.5371 37.6933 34.4589 37.4762 34.4099 37.2517C34.3118 36.8535 34.2513 36.447 34.2291 36.0375L34.1903 35.424C34.1812 35.0941 34.1941 34.764 34.2291 34.4358C34.2764 34.1468 34.3806 33.8701 34.5359 33.6217C34.6911 33.3733 34.8942 33.1583 35.1333 32.9892C35.4267 32.823 35.7556 32.7292 36.0926 32.7157C36.4296 32.7022 36.765 32.7694 37.0708 32.9117C37.3982 33.0477 37.71 33.2188 38.0008 33.4219C38.2297 33.5666 38.4458 33.7309 38.6466 33.9127C39.0362 34.2712 39.3968 34.6599 39.7251 35.0752C40.1126 35.5402 40.1191 35.6113 40.2935 35.805C40.3808 35.9288 40.5088 36.0179 40.6551 36.0569C40.7293 36.0588 40.8024 36.0391 40.8655 36.0001C40.9286 35.9611 40.9789 35.9045 41.0103 35.8373C41.0755 35.7426 41.1297 35.6408 41.1718 35.5338C41.2011 35.475 41.227 35.4147 41.2493 35.3529L41.3526 35.0881L41.8564 33.7965C42.0974 33.0486 42.4156 32.3279 42.8058 31.6458C42.9016 31.485 43.0095 31.3317 43.1287 31.1873C43.2047 31.0826 43.3011 30.9943 43.4121 30.9277C43.5231 30.8612 43.6463 30.8176 43.7745 30.7998C44.0094 30.8501 44.2208 30.9774 44.3751 31.1615C44.4594 31.2366 44.5372 31.3187 44.6076 31.4069C44.7085 31.5588 44.7665 31.735 44.7756 31.9171C44.8368 32.106 44.8368 32.3094 44.7756 32.4983C44.3235 33.4515 43.9225 34.4281 43.5743 35.424L43.2708 36.1667C43.2014 36.3883 43.115 36.6042 43.0124 36.8125C42.9318 37.0229 42.8255 37.2224 42.696 37.4067C42.5835 37.5863 42.4489 37.7512 42.2955 37.8975L42.076 38.1042L41.8241 38.2592C41.473 38.4571 41.0689 38.5407 40.6681 38.4981L40.6874 38.4465Z" fill="#363F4D"/>
<path d="M32.072 46.2481C29.8419 43.5917 27.8229 40.7651 26.0334 37.7941C24.1422 34.7101 22.8903 31.2773 22.3522 27.6998C21.9454 24.9922 22.1912 22.2267 23.069 19.6333C23.9384 17.3195 25.4234 15.2873 27.3638 13.7562C29.2931 12.2731 31.5824 11.3302 33.9965 11.0243C36.3361 10.7172 38.714 10.9019 40.978 11.5668C43.2554 12.2446 45.3225 13.4915 46.9842 15.19C48.397 16.6874 49.5437 18.4151 50.3749 20.2985C51.1772 22.117 51.7918 24.0127 52.209 25.956C52.4768 27.2053 52.6538 28.4722 52.7386 29.7471C52.8406 30.9907 52.8751 32.239 52.842 33.4864C52.8085 35.9595 52.6317 38.4286 52.3124 40.8812C52.1057 42.3989 51.6665 42.1729 51.1886 40.8425C50.5483 38.7459 50.1836 36.5749 50.1036 34.3841C50.0584 33.1571 49.9615 31.9364 49.884 30.7416C49.8147 29.5745 49.6788 28.4123 49.4772 27.2606C49.0451 24.9912 48.3087 22.7906 47.2878 20.7183C46.7786 19.742 46.1682 18.822 45.4665 17.9735C44.7716 17.1666 43.9698 16.4583 43.0834 15.8681C42.1669 15.2989 41.1844 14.8435 40.1578 14.5118C39.0684 14.1858 37.9466 13.9801 36.8124 13.8983C34.1006 13.651 31.3976 14.4557 29.2626 16.1458C27.1624 17.9179 25.8104 20.4189 25.478 23.1466C25.2817 24.6836 25.3056 26.2406 25.549 27.7708C25.8136 29.3329 26.2466 30.8617 26.8407 32.3304C28.1655 35.3269 29.8577 38.1471 31.8782 40.7262C32.9374 42.1341 34.0418 43.5162 35.1784 44.8918L38.3688 48.7216C38.4722 48.8379 38.5561 48.9671 38.6659 49.0704C38.7757 49.1737 38.963 49.0316 39.0986 48.98C39.2343 48.9283 39.4538 48.7798 39.6282 48.67L40.584 48.0241C41.2299 47.585 41.9145 47.1393 42.6055 46.7325C42.9478 46.5193 43.303 46.3062 43.6582 46.0866L44.2265 45.7766C44.4461 45.6604 44.6334 45.557 44.9111 45.4279C45.8733 44.9489 46.8936 44.5972 47.9465 44.3816C48.8336 44.2075 49.7461 44.2075 50.6332 44.3816C51.4728 44.5326 52.251 44.9229 52.8743 45.5054C53.0298 45.6545 53.1455 45.8402 53.2109 46.0455C53.2764 46.2508 53.2894 46.4692 53.2488 46.6808C53.1551 47.0229 52.9876 47.3404 52.758 47.6108C52.2454 48.254 51.6404 48.8177 50.9626 49.2835C50.3168 49.7356 49.5611 50.1877 48.812 50.6398L47.7205 51.2856L47.3072 51.5568L46.952 51.8023C46.4927 52.1164 46.0606 52.4685 45.6603 52.855C45.3264 53.1551 45.06 53.5227 44.8788 53.9335L44.8401 54.0498L43.9101 53.7462C43.903 53.7428 43.8953 53.741 43.8875 53.741C43.8796 53.741 43.8719 53.7428 43.8649 53.7462C43.8649 53.7462 43.8649 53.7462 43.8649 53.701L43.9165 53.5977C43.9424 53.5296 43.9555 53.4574 43.9553 53.3846C43.9922 53.1713 44.0095 52.9551 44.007 52.7387H44.1426C44.3686 52.7 44.6463 52.6289 44.9176 52.5579L46.629 52.08C48.2501 51.6408 50.433 51.0337 51.8345 51.15C52.2201 51.1705 52.6017 51.2377 52.9711 51.3502C53.3186 51.4732 53.6357 51.6692 53.9011 51.925C54.0024 52.0893 54.0786 52.2677 54.1272 52.4546C54.1523 52.6042 54.1523 52.757 54.1272 52.9066C54.0716 53.3082 53.947 53.6971 53.759 54.0562C53.5334 54.486 53.251 54.8835 52.9195 55.2381C52.2125 55.9275 51.4523 56.5602 50.6461 57.1304L50.2134 57.4533C50.1101 57.5366 50.0023 57.6142 49.8905 57.6858C49.742 57.7698 49.6063 57.8408 49.4772 57.8989C49.2366 58.0041 48.9883 58.0905 48.7345 58.1573C48.5021 58.2445 48.2844 58.3664 48.0886 58.5189C47.9336 58.6223 47.7851 58.6158 47.6688 58.3833C47.5397 58.0221 47.5397 57.6272 47.6688 57.266C47.7463 57.0187 47.8457 56.7787 47.9659 56.5491C48.0273 56.4203 48.0963 56.2952 48.1726 56.1746L48.2307 56.0777C48.2307 56.0777 48.2307 56.0777 48.2307 56.0325V55.955C48.301 55.7773 48.3875 55.6065 48.489 55.4448C48.5524 55.3512 48.6064 55.2517 48.6505 55.1477C48.6572 55.1071 48.6572 55.0656 48.6505 55.025C48.6533 55.0104 48.6529 54.9954 48.6494 54.981C48.6459 54.9666 48.6393 54.9531 48.6301 54.9415C48.6209 54.9298 48.6093 54.9203 48.5961 54.9135C48.5829 54.9068 48.5684 54.9029 48.5536 54.9023C48.3065 54.898 48.0623 54.9557 47.8432 55.0702L47.6107 55.1735L47.5203 55.2252H47.4815L47.3847 55.2639L45.9897 55.6385C45.4356 55.7898 44.8726 55.9062 44.304 55.9873H43.9553H43.6711C43.5205 55.9795 43.3711 55.9557 43.2255 55.9162C43.102 55.8873 42.9811 55.8484 42.8638 55.8L42.6765 55.716C42.5214 55.6288 42.3763 55.5249 42.2438 55.406C41.972 55.1689 41.7644 54.867 41.6402 54.5283C41.516 54.1897 41.4793 53.8251 41.5334 53.4685C41.5334 53.3846 41.5334 53.2941 41.5722 53.2166C41.6109 53.1391 41.6303 53.0229 41.6238 53.0487V53.01V52.9325L41.6884 52.771C41.7593 52.5708 41.8502 52.3782 41.9597 52.1962C42.048 52.0215 42.1517 51.8551 42.2697 51.6989C42.6516 51.1577 43.1008 50.6672 43.6065 50.2393C44.0586 49.8518 44.5042 49.5095 44.9499 49.1931L45.5957 48.7798L45.783 48.6506L45.6151 48.741L45.3438 48.8895C45.1113 49.0187 44.8788 49.1608 44.6463 49.2964C43.7163 49.8648 42.7928 50.4977 41.7917 51.1629L41.4107 51.4148L41.0943 51.6214L40.7261 51.8475C40.2564 52.1466 39.7508 52.3853 39.2213 52.5579C38.7289 52.6934 38.209 52.6934 37.7165 52.5579C37.5966 52.5296 37.4857 52.4719 37.3936 52.39L37.0836 52.1768L36.4378 51.7506L31.8524 46.3256L32.072 46.2481Z" fill="#363F4D"/>
<path d="M38.0138 31.5232C38.5748 31.887 39.087 32.3211 39.538 32.8148L39.8157 33.1184V33.1765L39.8867 33.3057L40.0676 33.635C40.0998 33.6802 40.1451 33.8159 40.1967 33.7642C40.2279 33.7281 40.252 33.6865 40.2678 33.6415C40.3259 33.4929 40.3065 33.2669 40.384 33.1119C40.384 33.1119 40.384 33.1119 40.384 33.0409L40.4551 32.7825L40.623 32.2142L40.7263 31.8977L40.8942 31.4973C41.0144 31.2189 41.1615 30.9528 41.3334 30.703C41.6162 30.2458 42.0211 29.8768 42.5023 29.6373C42.9793 29.4108 43.5193 29.3538 44.033 29.4759C44.5533 29.5923 45.0382 29.8315 45.4473 30.1734C45.6525 30.3484 45.8487 30.5338 46.0351 30.7288C46.1901 30.929 46.3128 31.1421 46.4484 31.3746C46.8392 32.0976 47.0767 32.8935 47.1459 33.7125C47.1911 34.0548 47.1911 34.3584 47.2234 34.7071C47.2557 35.0559 47.2234 35.353 47.2234 35.6759C47.2305 36.299 47.2046 36.922 47.1459 37.5423C47.0684 38.3302 46.9715 39.1052 46.8488 39.8673C46.7842 40.2484 46.5905 40.61 46.5194 40.9846C46.4484 41.3592 46.358 41.7338 46.2934 42.1084C46.2288 42.4829 45.9963 42.5152 45.7509 42.1084C45.5938 41.8304 45.4682 41.5358 45.3763 41.23C45.3053 41.0427 45.2794 40.849 45.2084 40.6359C45.1182 40.4254 45.0406 40.2097 44.9759 39.99C44.8855 39.1827 44.9048 38.4142 44.8532 37.6521L44.7821 36.5348C44.7821 36.1732 44.7821 35.8115 44.7305 35.4627C44.6988 34.8266 44.5948 34.196 44.4205 33.5834C44.3912 33.4542 44.3479 33.3286 44.2913 33.2088C44.2461 33.1184 44.1944 32.9569 44.1686 32.9182C44.0911 32.7632 44.0782 32.6792 44.0265 32.5759C43.994 32.5087 43.9449 32.4509 43.8839 32.408C43.8229 32.365 43.7519 32.3384 43.6778 32.3305C43.6043 32.3434 43.5351 32.3744 43.4766 32.4206C43.418 32.4668 43.3717 32.5268 43.3419 32.5952C43.3051 32.6655 43.2748 32.739 43.2515 32.8148C43.2063 32.9375 43.1353 33.1442 43.0771 33.3509L42.9803 33.6867L42.8382 34.268L42.5863 35.4369C42.4769 36.1158 42.214 36.7608 41.8178 37.3227C41.7426 37.4149 41.6606 37.5013 41.5723 37.5811C41.4754 37.6736 41.3582 37.7422 41.2301 37.7813C41.1202 37.8007 41.007 37.7776 40.9136 37.7167C40.8232 37.665 40.7521 37.6457 40.6423 37.5746L40.3259 37.3809L39.9513 37.0902L39.8544 37.0192L39.7511 36.8836L39.5509 36.6123L39.1505 36.0763L38.7501 35.5209L38.3367 35.0429C38.2657 34.9654 38.2011 34.8815 38.1236 34.8105L37.988 34.6619C37.8976 34.5779 37.8201 34.4811 37.7296 34.4036C37.3956 34.07 37.0095 33.793 36.5865 33.5834C36.437 33.515 36.2693 33.4969 36.1086 33.5317C35.95 33.5848 35.8106 33.6836 35.7082 33.8159C35.5457 34.0395 35.4742 34.3165 35.508 34.5909C35.5396 35.0099 35.6354 35.4216 35.7921 35.8115C36.136 36.6836 36.5895 37.5083 37.1419 38.2657C38.0466 39.4359 39.0608 40.5172 40.1709 41.4948C40.4098 41.7209 40.6617 41.9211 40.8942 42.1407C41.7726 42.9867 41.9405 43.3419 41.7144 43.9813C41.6727 44.1281 41.6231 44.2725 41.5659 44.414C41.3398 44.8532 40.6746 44.795 39.8996 44.2332C37.5005 42.4583 35.4841 40.2178 33.9709 37.6457C33.6492 37.0833 33.3894 36.4879 33.1959 35.8696C33.0918 35.5061 33.0183 35.1345 32.9763 34.7588C32.9594 34.5115 32.9594 34.2634 32.9763 34.0161C32.9974 33.7547 33.0494 33.4967 33.1313 33.2475C33.1665 33.1222 33.2097 32.9993 33.2605 32.8794L33.4478 32.5371C33.5717 32.3058 33.7212 32.0892 33.8934 31.8913C34.0742 31.7234 34.268 31.5554 34.4682 31.4004C34.6744 31.2662 34.8902 31.1475 35.114 31.0452C35.6022 30.9008 36.1155 30.8618 36.6199 30.9308C37.1243 30.9998 37.6082 31.1753 38.0396 31.4457L38.0138 31.5232Z" fill="#363F4D"/>
<path d="M20.1499 15.9651C20.3502 15.9651 20.292 16.2428 20.0724 16.6755C19.9601 16.874 19.811 17.0493 19.6333 17.1922C19.5035 17.2442 19.3695 17.2852 19.2329 17.3149C19.1683 17.3149 18.3997 17.063 18.1156 17.0049C17.8605 16.9372 17.6184 16.8281 17.3987 16.682C16.9466 16.4107 16.4752 16.1588 16.0102 15.894C15.9046 15.8359 15.814 15.7541 15.7454 15.6551C15.488 15.3267 15.1497 15.0708 14.7637 14.9124C14.7323 14.8875 14.6951 14.8709 14.6556 14.8641C14.6161 14.8573 14.5756 14.8606 14.5377 14.8736C14.0807 14.7704 13.6594 14.5475 13.317 14.2278C13.1362 13.8468 12.9102 13.5303 12.7035 13.1815C12.6712 13.1363 12.6131 13.1299 12.6324 13.0136C12.6841 12.7553 12.5743 12.7165 12.4968 12.6261C12.379 12.4881 12.3008 12.3207 12.2708 12.1418C12.2538 12.0218 12.2538 11.9001 12.2708 11.7801C12.2708 11.6703 12.4581 11.4895 12.4968 11.4765C12.5356 11.4636 12.6389 11.3151 12.7035 11.2247C12.7235 11.1898 12.7473 11.1573 12.7745 11.1278C12.7745 11.1278 13.0845 11.089 13.4204 11.0309C13.6344 10.9988 13.8521 10.9988 14.0662 11.0309L14.2664 11.1149L14.6991 11.2828L15.4418 11.5476C15.5129 11.5476 15.5387 11.6638 15.5839 11.7413C15.6291 11.8188 16.5397 12.2063 16.572 12.2386C16.727 12.3872 16.9531 12.4388 17.0047 12.7424C17.0047 12.8005 17.0564 12.8134 17.0952 12.8393C17.3798 13.0506 17.6397 13.2932 17.8702 13.5626C18.0058 13.6918 18.1802 13.7822 18.3287 13.8984C18.3287 13.8984 18.3674 13.963 18.3868 13.9953C18.4062 14.0276 18.432 14.0857 18.4708 14.1051C18.8141 14.4019 19.1766 14.6759 19.5558 14.9253C19.6527 14.977 19.9174 15.4743 20.0272 15.5259C20.137 15.5776 20.0724 15.9715 20.1499 15.9651Z" fill="#363F4D"/>
<path d="M24.8323 11.2569C24.9808 11.3861 24.7354 11.5346 24.2704 11.6638C24.0583 11.7087 23.8409 11.724 23.6246 11.709C23.4889 11.6444 23.3598 11.5863 23.2629 11.5282C23.166 11.4701 22.8689 10.8823 22.7139 10.6563C22.5805 10.4602 22.4842 10.2413 22.4298 10.0105C22.3006 9.56484 22.1391 9.12568 21.9841 8.66714C21.9613 8.56071 21.9613 8.45064 21.9841 8.34422C22.0265 7.96653 21.9569 7.58472 21.7839 7.2463C21.7839 7.18818 21.7839 7.12359 21.6483 7.08484C21.3898 6.73139 21.2435 6.30835 21.2285 5.87068C21.3577 5.48964 21.4223 5.12151 21.5191 4.75339C21.5191 4.70172 21.5191 4.65651 21.5837 4.59193C21.6503 4.56466 21.705 4.51463 21.7382 4.45075C21.7713 4.38687 21.7806 4.31331 21.7646 4.24318C21.7786 4.07409 21.8364 3.91159 21.9325 3.77172C22.0069 3.68261 22.0915 3.60243 22.1843 3.53276C22.3019 3.48074 22.4324 3.465 22.5589 3.48755C22.6558 3.54568 22.7785 3.48755 22.8883 3.48755H23.0046C23.0046 3.48755 23.25 3.66193 23.5083 3.82339C23.6685 3.92862 23.8121 4.05703 23.9346 4.20443C23.9346 4.20443 23.9668 4.27547 24.0121 4.3788L24.1994 4.74693C24.335 5.01818 24.5094 5.28943 24.5352 5.35401C24.561 5.41859 24.5352 5.48964 24.5352 5.56068C24.5352 5.63172 24.8969 6.44547 24.9033 6.48422C24.9033 6.67797 25.0389 6.84589 24.871 7.08484C24.8614 7.10271 24.8564 7.12268 24.8564 7.14297C24.8564 7.16326 24.8614 7.18323 24.871 7.20109C24.9503 7.53527 24.9872 7.87811 24.9808 8.22151C25.0031 8.39332 25.0355 8.56368 25.0777 8.73172C25.0839 8.76589 25.0839 8.80088 25.0777 8.83505C25.0655 8.87724 25.0655 8.92203 25.0777 8.96422C25.125 9.38513 25.194 9.80332 25.2844 10.2171C25.3166 10.314 25.1487 10.8178 25.1939 10.9276C25.2391 11.0373 24.7806 11.2117 24.8323 11.2569Z" fill="#363F4D"/>
<path d="M18.9294 22.5138C19.1231 22.4105 19.2394 22.6882 19.2846 23.1597C19.2827 23.3806 19.2412 23.5993 19.1619 23.8055C19.0585 23.9218 18.9616 24.038 18.8712 24.122C18.492 24.2407 18.1191 24.3787 17.7539 24.5353C17.5076 24.6468 17.2466 24.7229 16.9789 24.7613C16.4494 24.8711 15.9198 25.0197 15.3708 25.1682C15.2451 25.194 15.1155 25.194 14.9898 25.1682C14.5571 25.089 14.1112 25.1269 13.6981 25.278C13.6206 25.278 13.5431 25.278 13.4914 25.4072C13.0374 25.6491 12.5332 25.7818 12.0189 25.7947C11.5798 25.659 11.1471 25.5945 10.7273 25.4976C10.6691 25.4976 10.611 25.4976 10.54 25.4201C10.385 25.1811 10.2623 25.2393 10.1331 25.2263C9.94058 25.1917 9.75371 25.1308 9.57769 25.0455C9.47291 24.9735 9.37933 24.8865 9.29998 24.7872C9.21602 24.7032 9.24185 24.4061 9.26123 24.3674C9.2806 24.3286 9.26123 24.122 9.26123 23.9993C9.26123 23.8765 9.26123 23.9024 9.26123 23.8636C9.39928 23.6948 9.54586 23.5331 9.7004 23.3793C9.83487 23.1961 10.0011 23.0386 10.1912 22.9143L10.4108 22.8368L10.8758 22.6559L11.625 22.3395C11.696 22.3007 11.7929 22.3395 11.8769 22.3395C11.9608 22.3395 12.9877 21.9326 13.0394 21.9326C13.2783 21.9326 13.4979 21.784 13.7756 21.9649C13.8273 22.0036 13.8725 21.9649 13.9241 21.9649C14.3479 21.871 14.7839 21.8448 15.2158 21.8874C15.4354 21.8874 15.6485 21.8551 15.8616 21.8486C15.9004 21.8486 15.9456 21.8486 15.9844 21.8874C16.0348 21.9048 16.0866 21.9178 16.1394 21.9261C16.6689 21.8809 17.1985 21.9843 17.7346 21.9261C17.8637 21.9261 18.4514 22.1845 18.5935 22.178C18.7356 22.1715 18.8583 22.5526 18.9294 22.5138Z" fill="#363F4D"/>
</svg>
