<svg width="172" height="127" viewBox="0 0 172 127" fill="none" xmlns="http://www.w3.org/2000/svg">
<path d="M12.4247 86.8126V12.5093C12.4247 6.07921 16.7114 1.79248 23.1415 1.79248H130.31C136.74 1.79248 141.027 6.07921 141.027 12.5093V86.8126H12.4247Z" fill="#D9DCE2" stroke="#444E5E" stroke-width="1.79671" stroke-linecap="round" stroke-linejoin="round"/>
<path d="M20.9982 80.3829V19.1979C20.9982 11.7952 22.4271 9.65186 30.2861 9.65186H123.165C130.31 9.65186 132.453 11.7952 132.453 19.1979V80.3829H20.9982Z" fill="white" stroke="#444E5E" stroke-width="1.07802" stroke-linecap="round" stroke-linejoin="round"/>
<path d="M2.42236 108.961V117.534C2.42236 120.392 5.28018 123.25 9.56692 123.25H143.884C149.6 123.25 152.458 120.392 152.458 117.534V108.961H2.42236Z" fill="#808C9E"/>
<path d="M36.0018 16.0815H43.1463C45.2897 16.0815 46.7186 18.2249 47.433 19.6538L57.4354 57.5199C58.1499 59.6633 59.5788 61.8067 61.7221 61.8067H91.0148M2.42236 117.534V108.961H152.458V117.534C152.458 120.392 149.6 123.25 143.884 123.25H9.56692C5.28018 123.25 2.42236 120.392 2.42236 117.534Z" stroke="#444E5E" stroke-width="1.79671" stroke-linecap="round" stroke-linejoin="round"/>
<path d="M141.027 86.8125H13.8536L2.42236 108.246H153.172L141.027 86.8125Z" fill="#D9DCE2" stroke="#444E5E" stroke-width="1.79671" stroke-linecap="round" stroke-linejoin="round"/>
<path d="M136.025 93.957H19.9579L16.7115 101.102H139.598L136.025 93.957Z" fill="#808C9E" stroke="#444E5E" stroke-width="2.02429" stroke-linecap="round" stroke-linejoin="round"/>
<path d="M132.315 83.0493V63.1704C132.315 59.7144 134.81 56.7632 138.218 56.1879C138.915 56.0701 139.627 56.0576 140.328 56.1506L141.882 56.3567C145.453 56.8305 148.122 59.8762 148.122 63.479V83.1126C148.122 84.3518 148.442 85.57 149.052 86.6488L164.989 114.836C167.72 119.666 164.178 125.636 158.631 125.556L121.264 125.014C115.757 124.934 112.384 118.941 115.173 114.191L131.326 86.6878C131.974 85.5847 132.315 84.3286 132.315 83.0493Z" fill="#F7F7F8" stroke="#444E5E" stroke-width="1.875"/>
<path d="M115.314 114.107L120.108 106.082C120.991 104.603 122.367 103.484 124.016 102.988C134.851 99.7284 153.57 96.0378 158.237 102.706L164.993 114.789C167.691 119.616 164.154 125.554 158.624 125.479L121.385 124.976C115.85 124.901 112.475 118.859 115.314 114.107Z" fill="#2DD1AC"/>
<path d="M146.422 60.25V85.3947L153.172 97" stroke="#E8E9EA" stroke-width="1.5" stroke-linecap="round"/>
<path d="M156.552 99.56C156.552 102.089 149.827 103.18 140.185 103.18C127.102 103.18 121.648 105.709 121.648 103.18C121.648 100.651 126.676 95.5939 140.185 94.022C146.564 92.7535 156.552 97.031 156.552 99.56Z" fill="#41C9A9"/>
<path d="M155.047 100.75L163.692 116.447C165.008 118.836 164.31 121.832 162.075 123.394V123.394C161.163 124.032 160.074 124.368 158.961 124.356L118.376 123.92" stroke="#41C9A9" stroke-width="1.875" stroke-linecap="round"/>
<path d="M132.315 83.0493V63.1704C132.315 59.7144 134.81 56.7632 138.218 56.1879C138.915 56.0701 139.627 56.0576 140.328 56.1506L141.882 56.3567C145.453 56.8305 148.122 59.8762 148.122 63.479V83.1126C148.122 84.3518 148.442 85.57 149.052 86.6488L164.989 114.836C167.72 119.666 164.178 125.636 158.631 125.556L121.264 125.014C115.757 124.934 112.384 118.941 115.173 114.191L131.326 86.6878C131.974 85.5847 132.315 84.3286 132.315 83.0493Z" stroke="#444E5E" stroke-width="1.875"/>
<rect x="129.154" y="54.4751" width="21.8575" height="6.32243" rx="2.87388" fill="white"/>
<circle cx="128.193" cy="111.558" r="2.5451" fill="#68DEC4"/>
<circle cx="136.191" cy="118.829" r="3.27227" fill="#68DEC4"/>
<circle cx="124.557" cy="117.375" r="1.81793" fill="#68DEC4"/>
<rect x="145.672" y="55.75" width="4.5" height="3.75" fill="#E8E9EA"/>
<rect x="130.092" y="55.4126" width="19.9825" height="4.44743" rx="1.93638" stroke="#444E5E" stroke-width="1.875"/>
<circle cx="142.736" cy="92.6517" r="3.27227" fill="#2DD1AC"/>
<path d="M148.467 50.0223C148.467 51.8295 147.002 53.2945 145.195 53.2945C143.387 53.2945 141.922 51.8295 141.922 50.0223C141.922 48.215 143.387 46.75 145.195 46.75C147.002 46.75 148.467 48.215 148.467 50.0223Z" fill="#41C9A9"/>
<circle cx="138.736" cy="84.2889" r="2.18152" fill="#41C9A9"/>
<circle cx="143.099" cy="70.473" r="2.18152" fill="#41C9A9"/>
<circle cx="144.104" cy="41.4315" r="2.18152" fill="#41C9A9"/>
<path d="M159.647 116.007L148.288 93.8297C148.081 93.4262 147.47 93.6848 147.616 94.1141L154.639 117.429C154.955 118.477 155.919 119.193 157.013 119.193H157.698C159.335 119.193 160.393 117.463 159.647 116.007Z" fill="#F7F7F8" fill-opacity="0.65"/>
<circle cx="137.763" cy="47.0908" r="1.09076" fill="#41C9A9"/>
<rect x="33.1724" y="14.5" width="67.5" height="58.5" fill="white"/>
<path d="M38.1198 35.169L34.2727 27.7497L45.2643 23.353H59.8282L70.545 27.7497L66.698 35.4438V65.396H38.1198V35.169Z" fill="white" stroke="#444E5E" stroke-width="1.37395" stroke-linecap="round" stroke-linejoin="round"/>
<path d="M66.698 60.4497H38.1198V65.3959H66.698V60.4497Z" fill="#2FC79F" stroke="#444E5E" stroke-width="1.37395" stroke-linecap="round" stroke-linejoin="round"/>
<path d="M29.0517 41.2142L34.2727 27.7495L38.1198 35.1689V39.0159V44.2369L29.0517 41.2142Z" fill="#E8E9EA" stroke="#444E5E" stroke-width="1.37395" stroke-linecap="round" stroke-linejoin="round"/>
<path d="M75.7661 41.489L70.5451 27.7495L66.698 35.4436V39.2907V44.5117L75.7661 41.489Z" fill="#E8E9EA" stroke="#444E5E" stroke-width="1.37395" stroke-linecap="round" stroke-linejoin="round"/>
<path d="M38.1198 39.291L30.7004 36.8179L29.0517 41.2145L38.1198 44.2372V39.291Z" fill="#2FC79F" stroke="#444E5E" stroke-width="1.37395" stroke-linecap="round" stroke-linejoin="round"/>
<path d="M66.698 39.3826L74.1173 36.8179L75.7661 41.3774L66.698 44.512V39.3826Z" fill="#2FC79F" stroke="#444E5E" stroke-width="1.37395" stroke-linecap="round" stroke-linejoin="round"/>
<path d="M45.5391 23.353C45.5391 32.1463 59.5534 32.4211 59.5534 23.353H45.5391Z" fill="#808C9E" stroke="#444E5E" stroke-width="1.37395" stroke-linecap="round" stroke-linejoin="round"/>
<rect x="82.2342" y="25.5093" width="45.9957" height="5.03078" rx="2.51539" fill="#A9B1BE"/>
<rect x="82.2343" y="31.9771" width="21.5605" height="5.03078" rx="2.51539" fill="#A9B1BE"/>
<path d="M84.9514 49.7066V48.5387C83.3351 48.4266 82.6437 47.5391 82.569 46.3619H83.9517C84.0171 46.9037 84.2133 47.3429 84.9514 47.455V45.6518C83.4659 45.4182 82.7558 44.8763 82.7558 43.6431C82.7558 42.5686 83.6154 41.7745 84.9514 41.6811V40.8496H85.6148V41.6904C86.8854 41.8025 87.6515 42.4378 87.7636 43.6431H86.4276C86.3435 43.1572 86.1099 42.8583 85.6148 42.7648V44.4372C87.0162 44.6521 87.8757 45.1192 87.8757 46.4179C87.8757 47.5391 87.0909 48.436 85.6148 48.5387V49.7066H84.9514ZM86.493 46.5767C86.493 46.1283 86.3061 45.9041 85.6148 45.7546V47.455C86.1567 47.3615 86.493 47.0345 86.493 46.5767ZM84.1012 43.5216C84.1012 43.9514 84.2601 44.185 84.9514 44.3251V42.7462C84.4002 42.8209 84.1012 43.1292 84.1012 43.5216ZM90.9276 49.7066V48.5387C89.3113 48.4266 88.6199 47.5391 88.5451 46.3619H89.9279C89.9933 46.9037 90.1895 47.3429 90.9276 47.455V45.6518C89.4421 45.4182 88.732 44.8763 88.732 43.6431C88.732 42.5686 89.5915 41.7745 90.9276 41.6811V40.8496H91.5909V41.6904C92.8616 41.8025 93.6277 42.4378 93.7398 43.6431H92.4038C92.3197 43.1572 92.0861 42.8583 91.5909 42.7648V44.4372C92.9924 44.6521 93.8519 45.1192 93.8519 46.4179C93.8519 47.5391 93.0671 48.436 91.5909 48.5387V49.7066H90.9276ZM92.4692 46.5767C92.4692 46.1283 92.2823 45.9041 91.5909 45.7546V47.455C92.1328 47.3615 92.4692 47.0345 92.4692 46.5767ZM90.0774 43.5216C90.0774 43.9514 90.2362 44.185 90.9276 44.3251V42.7462C90.3764 42.8209 90.0774 43.1292 90.0774 43.5216ZM96.9037 49.7066V48.5387C95.2874 48.4266 94.596 47.5391 94.5213 46.3619H95.904C95.9694 46.9037 96.1656 47.3429 96.9037 47.455V45.6518C95.4182 45.4182 94.7082 44.8763 94.7082 43.6431C94.7082 42.5686 95.5677 41.7745 96.9037 41.6811V40.8496H97.5671V41.6904C98.8377 41.8025 99.6038 42.4378 99.7159 43.6431H98.3799C98.2958 43.1572 98.0623 42.8583 97.5671 42.7648V44.4372C98.9685 44.6521 99.8281 45.1192 99.8281 46.4179C99.8281 47.5391 99.0433 48.436 97.5671 48.5387V49.7066H96.9037ZM98.4453 46.5767C98.4453 46.1283 98.2585 45.9041 97.5671 45.7546V47.455C98.109 47.3615 98.4453 47.0345 98.4453 46.5767ZM96.0535 43.5216C96.0535 43.9514 96.2124 44.185 96.9037 44.3251V42.7462C96.3525 42.8209 96.0535 43.1292 96.0535 43.5216Z" fill="#363F4D"/>
<rect x="82.2343" y="54.2563" width="44.5583" height="8.62419" rx="2.87473" fill="#2DD1AC"/>
</svg>
