<svg width="153" height="110" viewBox="0 0 153 110" fill="none" xmlns="http://www.w3.org/2000/svg">
<path d="M136.092 72.6625C139.963 65.4385 142.64 63.9204 148.014 64.268C146.316 70.4601 143.575 72.1514 136.092 72.6625Z" fill="#A9B1BE" stroke="#444E5E" stroke-width="1.26134" stroke-linecap="round" stroke-linejoin="round"/>
<path d="M12.7727 46.9888L25.5473 6.55225C26.8968 15.3767 60.4537 25.3937 73.0648 21.1848L60.9072 61.6275C59.2012 66.4056 56.7613 67.8592 53.4637 67.8304C37.6664 66.5627 29.2899 64.0484 15.2541 56.169C11.6994 53.7905 10.8314 51.4251 12.7727 46.9888Z" fill="#2DD1AC" stroke="#444E5E" stroke-width="1.26134" stroke-linecap="round" stroke-linejoin="round"/>
<ellipse cx="49.2728" cy="13.5714" rx="24.8512" ry="6.54543" transform="rotate(15.6444 49.2728 13.5714)" fill="#363F4D" stroke="#444E5E" stroke-width="1.26134" stroke-linecap="round" stroke-linejoin="round"/>
<ellipse cx="44.4028" cy="92.3551" rx="32.8496" ry="9.85887" transform="rotate(2.00238 44.4028 92.3551)" fill="#D9DCE2"/>
<ellipse cx="100.65" cy="33.0976" rx="11.3525" ry="6.07366" transform="rotate(61.0743 100.65 33.0976)" fill="white" stroke="#444E5E" stroke-width="1.26134" stroke-linecap="round" stroke-linejoin="round"/>
<ellipse cx="100.4" cy="27.9616" rx="1.01243" ry="0.541658" transform="rotate(61.0743 100.4 27.9616)" fill="#444E5E"/>
<ellipse cx="97.8279" cy="27.6222" rx="1.01243" ry="0.541658" transform="rotate(61.0743 97.8279 27.6222)" fill="#444E5E"/>
<ellipse cx="96.3127" cy="30.1945" rx="1.01243" ry="0.541658" transform="rotate(61.0743 96.3127 30.1945)" fill="#444E5E"/>
<ellipse cx="99.802" cy="30.8923" rx="1.01243" ry="0.541658" transform="rotate(61.0743 99.802 30.8923)" fill="#444E5E"/>
<ellipse cx="102.733" cy="31.2912" rx="1.01243" ry="0.541658" transform="rotate(61.0743 102.733 31.2912)" fill="#444E5E"/>
<ellipse cx="102.094" cy="34.2223" rx="1.01243" ry="0.541658" transform="rotate(61.0743 102.094 34.2223)" fill="#444E5E"/>
<ellipse cx="98.2257" cy="33.2253" rx="1.01243" ry="0.541658" transform="rotate(61.0743 98.2257 33.2253)" fill="#444E5E"/>
<ellipse cx="100.458" cy="36.6349" rx="1.01243" ry="0.541658" transform="rotate(61.0743 100.458 36.6349)" fill="#444E5E"/>
<ellipse cx="104.167" cy="38.1696" rx="1.01243" ry="0.541658" transform="rotate(61.0743 104.167 38.1696)" fill="#444E5E"/>
<ellipse cx="104.745" cy="34.6608" rx="1.01243" ry="0.541658" transform="rotate(61.0743 104.745 34.6608)" fill="#444E5E"/>
<path d="M88.9514 39.0235C86.0582 33.0802 89.0162 27.6042 94.1063 24.0254C91.0841 29.3539 95.3507 42.6334 105.811 43.4538C99.1166 45.9758 91.9311 45.1444 88.9514 39.0235Z" fill="#25BF97" stroke="#444E5E" stroke-width="1.26134" stroke-linecap="round" stroke-linejoin="round"/>
<path fill-rule="evenodd" clip-rule="evenodd" d="M88.0154 36.3066C88.1968 37.1976 88.5042 38.1051 88.9514 39.0237C89.4828 40.1154 90.148 41.0388 90.9204 41.805L91.1558 42.2506L62.7009 56.5402L65.9316 44.7358L87.6765 35.665L88.0154 36.3066Z" fill="#25BF97"/>
<path d="M88.9514 39.0237L89.5184 38.7477L89.5184 38.7477L88.9514 39.0237ZM88.0154 36.3066L88.6334 36.1808C88.6214 36.1219 88.6011 36.0651 88.573 36.012L88.0154 36.3066ZM90.9204 41.805L91.478 41.5104C91.4482 41.4539 91.4099 41.4022 91.3645 41.3572L90.9204 41.805ZM91.1558 42.2506L91.4389 42.8142C91.5904 42.7382 91.7048 42.6043 91.7565 42.4428C91.8082 42.2814 91.7927 42.1059 91.7135 41.956L91.1558 42.2506ZM62.7009 56.5402L62.0926 56.3737C62.0269 56.6139 62.1087 56.8703 62.3013 57.0281C62.4939 57.1859 62.7614 57.2156 62.984 57.1038L62.7009 56.5402ZM65.9316 44.7358L65.6888 44.1538C65.5094 44.2286 65.3746 44.3819 65.3233 44.5693L65.9316 44.7358ZM87.6765 35.665L88.2341 35.3704C88.0817 35.0821 87.7347 34.9574 87.4337 35.083L87.6765 35.665ZM89.5184 38.7477C89.0931 37.874 88.8036 37.0169 88.6334 36.1808L87.3974 36.4324C87.5899 37.3783 87.9152 38.3361 88.3843 39.2998L89.5184 38.7477ZM91.3645 41.3572C90.6444 40.6429 90.02 39.7781 89.5184 38.7477L88.3843 39.2998C88.9456 40.4528 89.6517 41.4348 90.4762 42.2527L91.3645 41.3572ZM91.7135 41.956L91.478 41.5104L90.3628 42.0996L90.5982 42.5452L91.7135 41.956ZM62.984 57.1038L91.4389 42.8142L90.8728 41.687L62.4179 55.9766L62.984 57.1038ZM65.3233 44.5693L62.0926 56.3737L63.3092 56.7067L66.5399 44.9023L65.3233 44.5693ZM87.4337 35.083L65.6888 44.1538L66.1744 45.3179L87.9193 36.2471L87.4337 35.083ZM88.573 36.012L88.2341 35.3704L87.1188 35.9596L87.4578 36.6012L88.573 36.012Z" fill="#444E5E"/>
<path d="M57.2911 5.99707C48.9439 6.3022 45.8443 9.34088 42.036 17.9237C53.5927 22.3614 66.9061 23.6558 73.193 20.6048C73.0081 15.5198 63.4853 8.49334 57.2911 5.99707Z" fill="white" stroke="#444E5E" stroke-width="1.26134" stroke-linecap="round" stroke-linejoin="round"/>
<path d="M20.4898 23.2603L22.4183 16.9931C5.94514 6.06619 -10.0441 25.9924 12.3748 48.0876L14.4639 41.3384C-0.0810381 27.5994 8.51613 12.7352 20.4898 23.2603Z" fill="#2DD1AC" stroke="#444E5E" stroke-width="1.26134" stroke-linecap="round" stroke-linejoin="round"/>
<path d="M25.0409 82.7762L24.1615 60.7671C28.3018 62.8883 30.9683 63.8942 36.2204 65.4248C36.9556 73.7092 37.0043 78.7374 36.6862 88.133C46.0232 89.3755 51.3311 89.7254 49.4959 95.1201C48.2751 98.7089 44.5294 100.37 41.1114 100.011C33.7115 99.1725 25.1587 97.3764 23.2942 96.1682C21.1516 94.3301 20.9856 92.4069 22.2463 90.5785C23.7525 88.3942 25.2504 87.2426 25.0409 82.7762Z" fill="white" stroke="#444E5E" stroke-width="1.26134" stroke-linecap="round" stroke-linejoin="round"/>
<path d="M36.5907 88.1465C36.934 84.5444 42.5945 84.8017 40.7077 66.2764L53.401 67.9059C53.351 76.0664 53.2193 79.1113 52.8864 82.3145C61.6458 83.0252 67.7238 85.7451 65.4939 89.6046C63.9012 92.3613 61.5744 94.5391 49.9703 93.3783C49.9969 90.0235 46.2125 89.0919 36.5907 88.1465Z" fill="white" stroke="#444E5E" stroke-width="1.26134" stroke-linecap="round" stroke-linejoin="round"/>
<path d="M108.358 26.7884C127.592 17.5342 135.519 23.6443 143.418 43.3924C133.762 24.6109 127.774 20.6643 108.358 26.7884Z" fill="#444E5E"/>
<path d="M108.749 30.9076C125.46 25.1165 130.723 31.8701 134.539 40.2481C126.595 25.7976 115.48 30.4184 108.749 30.9076Z" fill="#444E5E"/>
<path d="M109.84 34.5429C116.155 34.4977 122.132 35.1782 124.931 45.3164C120.694 37.8263 114.944 34.9514 109.84 34.5429Z" fill="#444E5E"/>
<path d="M135.78 105.846C133.718 89.3194 136.195 79.8646 135.669 63.5234" stroke="#444E5E" stroke-width="1.26134" stroke-linecap="round" stroke-linejoin="round"/>
<path d="M135.316 85.2892C143.641 87.3551 147.131 85.6383 151.611 78.2349C145.615 80.4219 140.818 75.3428 135.316 85.2892Z" fill="#A9B1BE" stroke="#444E5E" stroke-width="1.26134" stroke-linecap="round" stroke-linejoin="round"/>
<path d="M128.12 66.9487C133.038 69.4499 134.927 71.7316 135.598 78.5179C128.546 75.9221 127.086 73.3042 128.12 66.9487Z" fill="white" stroke="#444E5E" stroke-width="1.26134" stroke-linecap="round" stroke-linejoin="round"/>
<path d="M135.104 91.7092C131.307 85.3313 128.373 83.778 122.054 83.7378C124.864 90.1852 127.774 91.8437 135.104 91.7092Z" fill="#A9B1BE" stroke="#444E5E" stroke-width="1.26134" stroke-linecap="round" stroke-linejoin="round"/>
<path d="M134.892 96.9299C138.491 91.0074 141.495 89.6739 148.296 90.1578C144.814 97.5502 141.618 98.3174 134.892 96.9299Z" fill="white" stroke="#444E5E" stroke-width="1.26134" stroke-linecap="round" stroke-linejoin="round"/>
<path d="M126.427 107.37C126.68 107.37 126.852 107.25 127.082 107.154C127.568 106.952 128.051 106.725 128.543 106.539C129.332 106.241 130.263 106.241 131.095 106.241C132.292 106.241 133.401 106.735 134.602 106.735C135.315 106.735 135.887 106.492 136.554 106.257C137.346 105.978 138.429 106.219 139.203 106.414C139.808 106.566 140.412 106.799 140.994 107.021C141.595 107.25 142.254 107.441 142.828 107.723C143.681 108.14 144.635 108.217 145.568 108.217C145.933 108.217 146.405 108.123 146.603 107.793" stroke="#444E5E" stroke-width="1.26134" stroke-linecap="round"/>
<path d="M92.9192 108.146C93.1702 107.921 93.4557 107.946 93.7735 107.895C94.2881 107.813 94.8027 107.732 95.3177 107.652C96.4152 107.482 97.4657 107.621 98.547 107.809C99.3758 107.952 100.022 108.183 100.781 107.793C101.372 107.489 101.791 107.017 102.486 107.017C103.404 107.017 104.256 107.013 105.139 107.307C106.043 107.609 107.004 107.979 107.953 108.111C108.763 108.223 109.777 108.237 110.586 108.134C110.902 108.094 111.472 107.942 111.472 107.581" stroke="#444E5E" stroke-width="1.26134" stroke-linecap="round"/>
<path d="M73.6609 108.498C74.9634 108.498 76.5653 108.623 77.6975 107.918C77.9708 107.748 78.244 107.577 78.5441 107.456C78.9639 107.286 79.4966 107.37 79.9392 107.37C81.0138 107.37 82.0779 107.972 83.0627 108.353C83.4407 108.499 83.9128 108.428 84.3129 108.428" stroke="#444E5E" stroke-width="1.26134" stroke-linecap="round"/>
<circle cx="136.366" cy="53.8206" r="9.90992" fill="#2DD1AC" stroke="#444E5E" stroke-width="1.26134" stroke-linecap="round" stroke-linejoin="round"/>
<circle cx="97.9363" cy="73.1904" r="6.44477" fill="#2DD1AC" stroke="#444E5E" stroke-width="1.26134" stroke-linecap="round" stroke-linejoin="round"/>
<circle cx="136.366" cy="53.8208" r="6.90337" fill="#DDF7F2" stroke="#444E5E" stroke-width="1.26134" stroke-linecap="round" stroke-linejoin="round"/>
<path d="M135.771 57.3988L135.771 56.8256C135.562 56.7693 135.359 56.7258 135.166 56.6599C134.785 56.5397 134.455 56.2937 134.232 55.962C134.048 55.6731 133.954 55.3356 133.963 54.993L135.08 54.9919C135.086 55.1868 135.157 55.374 135.281 55.5248C135.404 55.6756 135.574 55.7817 135.764 55.8267L135.769 54.3034C135.543 54.2392 135.321 54.1769 135.099 54.1092C134.859 54.0395 134.639 53.9138 134.457 53.7423C134.265 53.5546 134.138 53.3114 134.092 53.0471C134.025 52.7223 134.049 52.3855 134.16 52.073C134.242 51.8487 134.372 51.6453 134.542 51.4771C134.711 51.3088 134.915 51.1799 135.14 51.0994C135.325 51.039 135.514 50.9902 135.705 50.9531L135.773 50.9375L135.773 50.1799L136.817 50.1793L136.817 50.2517C136.819 50.4691 136.82 50.6864 136.819 50.9028C136.816 50.9579 136.833 50.9734 136.885 50.9851C137.243 51.053 137.578 51.2091 137.861 51.4393C138.158 51.6833 138.356 52.0279 138.417 52.408C138.435 52.5124 138.443 52.6175 138.456 52.7277L137.321 52.7286C137.317 52.5745 137.269 52.4248 137.182 52.2975C137.095 52.1702 136.974 52.0707 136.832 52.0112L136.832 53.4277L136.955 53.4544C137.262 53.5148 137.562 53.61 137.848 53.7383C138.062 53.8315 138.246 53.9808 138.383 54.1704C138.519 54.3601 138.601 54.583 138.621 54.8155C138.68 55.2097 138.598 55.6121 138.391 55.9523C138.183 56.2925 137.862 56.5488 137.485 56.6766C137.277 56.7487 137.057 56.7973 136.832 56.8593L136.822 57.4011L135.771 57.3988ZM136.818 54.5189L136.819 55.8365C136.988 55.8097 137.148 55.7391 137.281 55.6317C137.349 55.5757 137.403 55.5048 137.44 55.4246C137.476 55.3444 137.494 55.2569 137.492 55.1687C137.489 55.0806 137.466 54.9943 137.426 54.9162C137.385 54.8381 137.326 54.7705 137.255 54.7183C137.114 54.6429 136.968 54.5763 136.818 54.5189ZM135.763 53.1683L135.754 51.8928C135.618 51.9528 135.485 52.0208 135.357 52.0964C135.283 52.1495 135.223 52.2201 135.183 52.3019C135.142 52.3837 135.123 52.4742 135.127 52.5653C135.13 52.6563 135.156 52.7452 135.202 52.8238C135.248 52.9025 135.313 52.9685 135.391 53.016C135.503 53.0761 135.635 53.1177 135.763 53.1683Z" fill="#444E5E"/>
<circle cx="97.9368" cy="73.1902" r="3.50367" fill="#DDF7F2" stroke="#444E5E" stroke-width="1.26134" stroke-linecap="round" stroke-linejoin="round"/>
<path d="M101.414 106.84C99.7734 96.8352 103.244 90.7209 99.5273 80.106" stroke="#444E5E" stroke-width="1.26134" stroke-linecap="round" stroke-linejoin="round"/>
<path d="M78.9441 107.578C77.3482 105.7 77.6283 99.4569 79.4364 97.5732" stroke="#444E5E" stroke-width="1.26134" stroke-linecap="round" stroke-linejoin="round"/>
<path d="M79.1899 97.6554C80.426 94.1855 82.0006 93.3953 85.6682 93.145C84.8167 96.4604 83.706 97.735 79.1899 97.6554Z" fill="#A9B1BE" stroke="#444E5E" stroke-width="1.26134" stroke-linecap="round" stroke-linejoin="round"/>
<path d="M78.3696 100.116C76.6476 95.1131 72.3013 97.0812 70.005 96.0151C72.5129 100.054 74.4175 100.727 78.3696 100.116Z" fill="white" stroke="#444E5E" stroke-width="1.26134" stroke-linecap="round" stroke-linejoin="round"/>
<path d="M101.528 92.5917C108.593 83.1092 110.266 89.7096 116.495 85.9912C112.995 92.9544 109.791 94.4919 101.528 92.5917Z" fill="white" stroke="#444E5E" stroke-width="1.26134" stroke-linecap="round" stroke-linejoin="round"/>
<path d="M103.201 83.1085C104.991 78.3455 106.879 77.5051 111.01 77.6237C109.415 81.4892 107.602 82.5742 103.201 83.1085Z" fill="#A9B1BE" stroke="#444E5E" stroke-width="1.26134" stroke-linecap="round" stroke-linejoin="round"/>
<path d="M103.573 82.9233C102.126 84.1242 101.475 85.2788 101.063 89.6168" stroke="#444E5E" stroke-width="1.26134" stroke-linecap="round" stroke-linejoin="round"/>
<path d="M101.528 88.6865C97.8013 83.5158 95.3104 81.6948 90.0931 80.5986C92.3525 86.9876 94.7617 88.9068 101.528 88.6865Z" fill="white" stroke="#444E5E" stroke-width="1.26134" stroke-linecap="round" stroke-linejoin="round"/>
</svg>
