<svg width="141" height="140" viewBox="0 0 141 140" fill="none" xmlns="http://www.w3.org/2000/svg">
<path d="M96.1911 26.6197L47.5878 10.6162C47.5878 10.6162 32.9463 26.6197 31.5843 58.6269C30.2222 90.634 15.5807 106.637 15.5807 106.637L64.2468 123.049C64.2468 123.049 78.5907 103.919 79.5949 74.6304C80.8485 38.0679 96.1911 26.6197 96.1911 26.6197Z" fill="#2DD1AC" stroke="#444E5E" stroke-width="1.5" stroke-linejoin="round"/>
<path fill-rule="evenodd" clip-rule="evenodd" d="M16.1057 106.814L64.2469 123.049C64.2469 123.049 78.5908 103.919 79.595 74.6304C80.7219 41.7647 93.2328 29.1915 95.7512 26.9849L96.2492 26.6665C98.0276 30.0266 99.8533 31.0758 102.742 32.736C102.976 32.8703 103.217 33.0087 103.465 33.1525C103.465 33.1525 88.8592 48.8311 87.1278 81.2658C85.3965 113.701 70.7909 129.379 70.7909 129.379L21.2413 113.701C20.4194 111.01 19.2616 109.516 15.8555 106.878L16.1057 106.814Z" fill="#257D6B"/>
<path d="M16.1057 106.814L16.3454 106.104C16.2081 106.058 16.0605 106.052 15.9201 106.088L16.1057 106.814ZM64.2469 123.049L64.0073 123.76C64.3141 123.863 64.6527 123.758 64.847 123.499L64.2469 123.049ZM79.595 74.6304L78.8455 74.6047L79.595 74.6304ZM95.7512 26.9849L95.3471 26.3531C95.3154 26.3734 95.2853 26.396 95.2569 26.4208L95.7512 26.9849ZM96.2492 26.6665L96.9121 26.3157C96.814 26.1304 96.6429 25.9946 96.4402 25.9412C96.2375 25.8879 96.0217 25.9217 95.8451 26.0346L96.2492 26.6665ZM102.742 32.736L103.116 32.0857L103.116 32.0857L102.742 32.736ZM103.465 33.1525L104.014 33.6638C104.169 33.4967 104.24 33.2679 104.207 33.0421C104.173 32.8164 104.038 32.6182 103.841 32.5037L103.465 33.1525ZM87.1278 81.2658L87.8768 81.3058L87.1278 81.2658ZM70.7909 129.379L70.5646 130.094C70.8406 130.182 71.1423 130.102 71.3396 129.89L70.7909 129.379ZM21.2413 113.701L20.5241 113.92C20.5962 114.156 20.7798 114.341 21.0151 114.416L21.2413 113.701ZM15.8555 106.878L15.67 106.152C15.3923 106.223 15.1793 106.445 15.1212 106.726C15.063 107.007 15.1698 107.296 15.3963 107.471L15.8555 106.878ZM15.866 107.525L64.0073 123.76L64.4866 122.338L16.3454 106.104L15.866 107.525ZM64.2469 123.049C64.847 123.499 64.8472 123.499 64.8475 123.498C64.8476 123.498 64.8479 123.498 64.8483 123.497C64.8489 123.496 64.8498 123.495 64.8508 123.494C64.853 123.491 64.856 123.487 64.8599 123.482C64.8676 123.471 64.8787 123.456 64.8931 123.436C64.922 123.397 64.964 123.339 65.0183 123.263C65.127 123.111 65.2851 122.886 65.4856 122.591C65.8868 122.001 66.4582 121.128 67.1457 119.99C68.5206 117.715 70.3606 114.38 72.231 110.125C75.9713 101.616 79.8385 89.4168 80.3446 74.6561L78.8455 74.6047C78.3473 89.1327 74.5405 101.143 70.8578 109.521C69.0167 113.709 67.2079 116.987 65.862 119.214C65.1891 120.328 64.632 121.178 64.2448 121.748C64.0512 122.033 63.9001 122.248 63.7982 122.391C63.7472 122.462 63.7086 122.515 63.6831 122.55C63.6703 122.567 63.6609 122.58 63.6548 122.588C63.6518 122.592 63.6496 122.595 63.6483 122.597C63.6476 122.598 63.6471 122.599 63.6469 122.599C63.6468 122.599 63.6468 122.599 63.6467 122.599C63.6468 122.599 63.6469 122.599 64.2469 123.049ZM80.3446 74.6561C81.4643 41.9991 93.8816 29.6202 96.2454 27.549L95.2569 26.4208C92.584 28.7628 79.9795 41.5303 78.8455 74.6047L80.3446 74.6561ZM96.1552 27.6168L96.6532 27.2984L95.8451 26.0346L95.3471 26.3531L96.1552 27.6168ZM95.5863 27.0174C96.514 28.7701 97.4715 29.95 98.5916 30.9086C99.6944 31.8523 100.937 32.5638 102.368 33.3863L103.116 32.0857C101.658 31.248 100.544 30.6049 99.5669 29.7689C98.6074 28.9478 97.7628 27.9231 96.9121 26.3157L95.5863 27.0174ZM102.368 33.3863C102.602 33.5207 102.842 33.6583 103.089 33.8014L103.841 32.5037C103.591 32.359 103.349 32.22 103.116 32.0857L102.368 33.3863ZM103.465 33.1525C102.916 32.6413 102.916 32.6416 102.915 32.642C102.915 32.6422 102.915 32.6427 102.914 32.6431C102.914 32.6439 102.913 32.645 102.911 32.6463C102.909 32.6489 102.906 32.6525 102.902 32.657C102.893 32.6661 102.881 32.679 102.866 32.6958C102.836 32.7293 102.792 32.7783 102.736 32.8427C102.623 32.9715 102.46 33.162 102.253 33.4145C101.84 33.9196 101.252 34.6729 100.543 35.6764C99.1253 37.6834 97.2241 40.6919 95.2708 44.7189C91.3634 52.7745 87.2504 64.9 86.3789 81.2258L87.8768 81.3058C88.7366 65.197 92.7921 53.2659 96.6204 45.3735C98.5349 41.4265 100.393 38.4881 101.768 36.5418C102.456 35.5687 103.022 34.8436 103.414 34.3646C103.61 34.1251 103.763 33.9471 103.865 33.8304C103.916 33.772 103.954 33.729 103.979 33.7012C103.992 33.6873 104.001 33.6773 104.007 33.671C104.01 33.6679 104.012 33.6657 104.013 33.6645C104.013 33.6639 104.014 33.6636 104.014 33.6634C104.014 33.6634 104.014 33.6634 104.014 33.6634C104.014 33.6636 104.014 33.6638 103.465 33.1525ZM86.3789 81.2258C85.519 97.3346 81.4635 109.266 77.6353 117.158C75.7208 121.105 73.8624 124.044 72.4875 125.99C71.8 126.963 71.2335 127.688 70.8415 128.167C70.6454 128.407 70.493 128.585 70.3909 128.701C70.3398 128.76 70.3013 128.803 70.2762 128.83C70.2637 128.844 70.2545 128.854 70.2488 128.861C70.2459 128.864 70.2439 128.866 70.2428 128.867C70.2422 128.868 70.2419 128.868 70.2418 128.868C70.2417 128.868 70.2418 128.868 70.2418 128.868C70.2419 128.868 70.2421 128.868 70.7909 129.379C71.3396 129.89 71.3399 129.89 71.3403 129.89C71.3405 129.889 71.3409 129.889 71.3413 129.889C71.342 129.888 71.343 129.887 71.3442 129.885C71.3467 129.883 71.35 129.879 71.3541 129.875C71.3625 129.866 71.3742 129.853 71.3894 129.836C71.4197 129.802 71.4634 129.753 71.5198 129.689C71.6324 129.56 71.7955 129.37 72.0022 129.117C72.4156 128.612 73.0037 127.859 73.7126 126.855C75.1304 124.848 77.0316 121.84 78.9849 117.813C82.8923 109.757 87.0053 97.6317 87.8768 81.3058L86.3789 81.2258ZM71.0171 128.664L21.4676 112.985L21.0151 114.416L70.5646 130.094L71.0171 128.664ZM21.9586 113.481C21.5273 112.069 20.995 110.934 20.1069 109.806C19.2313 108.693 18.0323 107.615 16.3147 106.285L15.3963 107.471C17.0849 108.779 18.1677 109.767 18.9281 110.733C19.6759 111.684 20.1334 112.641 20.5241 113.92L21.9586 113.481ZM16.0411 107.605L16.2912 107.541L15.9201 106.088L15.67 106.152L16.0411 107.605Z" fill="#444E5E"/>
<path d="M27.4147 105.468C28.6467 103.212 27.8322 100.965 25.7789 100.151C25.7789 100.151 35.8664 82.555 35.8664 60.0054C35.8664 35.1874 45.954 19.8596 45.954 19.8596C49.2607 20.7749 50.7962 20.2506 52.9063 17.2695L83.7142 27.3571C82.3996 30.1427 83.4444 32.6302 85.759 33.2188C85.759 33.2188 75.6715 49.1797 75.6715 73.2965C75.6715 93.1293 65.5839 113.374 65.5839 113.374C62.5491 112.506 60.0998 113.069 58.4953 115.964L27.4147 105.468Z" fill="#2DD1AC" stroke="#444E5E" stroke-width="1.5" stroke-linejoin="round"/>
<circle cx="60.487" cy="39.1654" r="5.9935" fill="#DDF7F2" stroke="#444E5E" stroke-width="1.5" stroke-linejoin="round"/>
<circle cx="49.7755" cy="97.2074" r="5.9935" fill="#DDF7F2" stroke="#444E5E" stroke-width="1.5" stroke-linejoin="round"/>
<path d="M16.4314 58.5717C8.02818 51.2748 8.09677 46.7478 13.5757 48.6115C8.07884 42.0185 8.308 34.4241 10.4289 33.578C11.9306 32.979 13.6022 37.1523 18.312 41.298C14.3201 33.7931 12.9669 30.0162 12.9669 24.1824C12.9669 18.8578 14.9204 19.0703 16.4314 23.0439C18.9957 29.7877 24.6928 35.2486 33.3567 41.9946L30.501 70.4125C16.4314 69.7262 10.9091 58.5717 16.4314 58.5717Z" fill="white" stroke="#444E5E" stroke-width="1.5" stroke-linejoin="round"/>
<path fill-rule="evenodd" clip-rule="evenodd" d="M15.0036 20.5181C17.0954 34.2984 21.8425 39.5303 32.8801 46.7375L33.3567 41.9945C24.6928 35.2484 18.9957 29.7876 16.4314 23.0438C15.9738 21.8406 15.4758 20.9823 15.0036 20.5181Z" fill="#A9B1BE"/>
<path d="M15.0036 20.5181L15.5294 19.9833C15.2992 19.7569 14.95 19.7033 14.6624 19.8502C14.3749 19.997 14.2137 20.3114 14.2621 20.6306L15.0036 20.5181ZM32.8801 46.7375L32.4701 47.3655C32.6893 47.5087 32.9674 47.5271 33.2037 47.4141C33.44 47.3011 33.6002 47.0731 33.6263 46.8125L32.8801 46.7375ZM33.3567 41.9945L34.103 42.0695C34.1288 41.813 34.0209 41.5612 33.8175 41.4028L33.3567 41.9945ZM16.4314 23.0438L17.1324 22.7772L16.4314 23.0438ZM14.2621 20.6306C15.3187 27.591 17.0577 32.4704 19.9783 36.5307C22.8902 40.5787 26.9332 43.7501 32.4701 47.3655L33.2902 46.1095C27.7894 42.5177 23.9401 39.4695 21.196 35.6547C18.4608 31.8522 16.7803 27.2254 15.7451 20.4055L14.2621 20.6306ZM32.6105 41.9195L32.1339 46.6625L33.6263 46.8125L34.103 42.0695L32.6105 41.9195ZM15.7303 23.3103C18.3763 30.2687 24.2325 35.8406 32.896 42.5863L33.8175 41.4028C25.153 34.6563 19.6151 29.3064 17.1324 22.7772L15.7303 23.3103ZM14.4778 21.0529C14.8345 21.4036 15.2858 22.1414 15.7303 23.3103L17.1324 22.7772C16.6619 21.5398 16.117 20.561 15.5294 19.9833L14.4778 21.0529Z" fill="#444E5E"/>
<path d="M80.8183 61.9237L31.7865 45.6938C31.7865 45.6938 30.4362 53.5515 30.197 61.4206C29.9578 69.2897 27.7418 76.8151 27.7418 76.8151L73.3137 91.5134L84.9994 96.1234C84.9994 96.1234 87.5188 87.2208 87.5188 80.5245C87.5188 74.3538 90.0382 64.9256 90.0382 64.9256L80.8183 61.9237Z" fill="#D9DCE2" stroke="#444E5E" stroke-width="1.5" stroke-linejoin="round"/>
<path fill-rule="evenodd" clip-rule="evenodd" d="M89.2988 64.6849C88.2397 69.6198 87.4544 75.1442 87.1277 81.2654C86.93 84.9687 86.5645 88.4535 86.072 91.7216C85.5103 94.3179 84.9994 96.1234 84.9994 96.1234L77.1437 93.0244C78.4377 87.4958 79.3652 81.3286 79.5949 74.63C79.7541 69.9849 80.1408 65.7452 80.6945 61.8828L80.8183 61.9237L89.2988 64.6849Z" fill="#808C9E"/>
<path d="M89.2988 64.6849L90.0321 64.8423C90.1128 64.4666 89.8964 64.0907 89.531 63.9717L89.2988 64.6849ZM87.1277 81.2654L87.8766 81.3054L87.1277 81.2654ZM86.072 91.7216L86.8051 91.8801C86.8084 91.8646 86.8113 91.849 86.8137 91.8333L86.072 91.7216ZM84.9994 96.1234L84.7242 96.8211C84.9213 96.8989 85.1422 96.8896 85.3321 96.7956C85.522 96.7016 85.6633 96.5316 85.7211 96.3276L84.9994 96.1234ZM77.1437 93.0244L76.4134 92.8534C76.3286 93.2158 76.5223 93.5855 76.8685 93.722L77.1437 93.0244ZM79.5949 74.63L78.8453 74.6043L79.5949 74.63ZM80.6945 61.8828L80.9302 61.1708C80.7194 61.101 80.4885 61.1282 80.2997 61.2451C80.1109 61.362 79.9836 61.5565 79.9521 61.7764L80.6945 61.8828ZM80.8183 61.9237L80.5826 62.6358L80.5861 62.6369L80.8183 61.9237ZM88.5655 64.5275C87.4982 69.5005 86.7076 75.0641 86.3787 81.2254L87.8766 81.3054C88.2012 75.2242 88.9812 69.7391 90.0321 64.8423L88.5655 64.5275ZM86.3787 81.2254C86.1824 84.9045 85.8193 88.3654 85.3304 91.6098L86.8137 91.8333C87.3097 88.5416 87.6776 85.0328 87.8766 81.3054L86.3787 81.2254ZM84.9994 96.1234C85.7211 96.3276 85.7211 96.3276 85.7211 96.3276C85.7211 96.3275 85.7211 96.3275 85.7211 96.3274C85.7211 96.3273 85.7212 96.3272 85.7212 96.3271C85.7213 96.3268 85.7214 96.3263 85.7216 96.3258C85.7219 96.3248 85.7223 96.3233 85.7228 96.3214C85.7239 96.3175 85.7255 96.312 85.7275 96.3047C85.7316 96.2901 85.7375 96.2688 85.7453 96.2408C85.7607 96.185 85.7833 96.1028 85.8121 95.9963C85.8696 95.7834 85.9519 95.4732 86.0518 95.0815C86.2516 94.2984 86.5219 93.1889 86.8051 91.8801L85.339 91.563C85.0604 92.8506 84.7945 93.942 84.5984 94.7107C84.5003 95.095 84.4198 95.3984 84.364 95.6052C84.336 95.7085 84.3143 95.7877 84.2996 95.8407C84.2923 95.8672 84.2867 95.8871 84.283 95.9003C84.2812 95.9069 84.2798 95.9118 84.2789 95.9149C84.2785 95.9165 84.2782 95.9177 84.278 95.9184C84.2779 95.9187 84.2778 95.919 84.2778 95.9191C84.2777 95.9192 84.2777 95.9192 84.2777 95.9192C84.2777 95.9192 84.2777 95.9192 84.2777 95.9192C84.2777 95.9192 84.2777 95.9192 84.9994 96.1234ZM76.8685 93.722L84.7242 96.8211L85.2746 95.4257L77.4189 92.3267L76.8685 93.722ZM77.874 93.1953C79.1781 87.6237 80.1129 81.4077 80.3444 74.6557L78.8453 74.6043C78.6175 81.2495 77.6974 87.368 76.4134 92.8534L77.874 93.1953ZM80.3444 74.6557C80.5028 70.0365 80.8872 65.8238 81.4369 61.9892L79.9521 61.7764C79.3944 65.6665 79.0055 69.9332 78.8453 74.6043L80.3444 74.6557ZM81.0539 61.2117L80.9302 61.1708L80.4588 62.5948L80.5826 62.6358L81.0539 61.2117ZM89.531 63.9717L81.0505 61.2106L80.5861 62.6369L89.0666 65.398L89.531 63.9717Z" fill="#444E5E"/>
<path d="M113.536 80.0686C121.264 82.3166 114.801 86.8129 104.544 86.8129C105.784 91.8434 102.96 92.3817 96.9564 92.7142C81.8604 92.7142 79.7601 77.7091 88.6665 68.2658C93.8525 62.7671 103.007 61.6104 113.536 60.3975C117.423 59.9497 121.347 58.8688 124.558 57.543L124.747 57.465C130.129 55.2429 133.584 53.8164 131.127 58.2538C125.982 67.5436 113.536 71.6381 113.536 71.6381C120.398 72.0434 125.205 68.2664 125.982 69.4761C127.131 72.1034 123.519 78.0149 113.536 80.0686Z" fill="#A9B1BE" stroke="#444E5E" stroke-width="1.5" stroke-linejoin="round"/>
<path fill-rule="evenodd" clip-rule="evenodd" d="M84.0298 84.768C85.5512 89.3314 89.789 92.7135 96.9561 92.7135C102.96 92.3811 105.783 91.8427 104.543 86.8123C114.801 86.8123 121.264 82.316 113.536 80.068C123.518 78.0142 127.131 72.1028 125.981 69.4754C125.656 68.9684 124.622 69.3375 123.026 69.9075C120.814 70.6973 117.521 71.8729 113.536 71.6375C113.536 71.6375 125.981 67.543 131.126 58.2532C132.049 56.5874 132.138 55.748 131.605 55.4668C130.272 56.7693 120.018 66.1509 100.042 67.4456C84.7492 68.4368 83.5946 79.2204 84.0298 84.768Z" fill="white"/>
<path d="M96.9561 92.7135V93.4635C96.9699 93.4635 96.9837 93.4632 96.9975 93.4624L96.9561 92.7135ZM84.0298 84.768L83.2821 84.8266C83.2869 84.8874 83.299 84.9473 83.3183 85.0052L84.0298 84.768ZM104.543 86.8123V86.0623C104.313 86.0623 104.095 86.1683 103.953 86.3498C103.811 86.5312 103.76 86.768 103.815 86.9918L104.543 86.8123ZM113.536 80.068L113.385 79.3334C113.047 79.4028 112.8 79.6935 112.787 80.0379C112.773 80.3824 112.996 80.6919 113.327 80.7881L113.536 80.068ZM125.981 69.4754L126.668 69.1748C126.653 69.1386 126.634 69.1036 126.612 69.0703L125.981 69.4754ZM123.026 69.9075L122.774 69.2011L123.026 69.9075ZM113.536 71.6375L113.302 70.9251C112.96 71.0376 112.746 71.3773 112.792 71.7343C112.839 72.0913 113.132 72.365 113.492 72.3862L113.536 71.6375ZM131.126 58.2532L130.47 57.8898V57.8898L131.126 58.2532ZM131.605 55.4668L131.955 54.8035C131.667 54.6515 131.314 54.7028 131.081 54.9303L131.605 55.4668ZM100.042 67.4456L100.09 68.194L100.042 67.4456ZM96.9561 91.9635C90.0597 91.9635 86.145 88.7412 84.7413 84.5307L83.3183 85.0052C84.9574 89.9215 89.5184 93.4635 96.9561 93.4635V91.9635ZM103.815 86.9918C104.112 88.1967 104.14 89.0383 103.996 89.6339C103.862 90.192 103.566 90.581 103.072 90.8868C102.546 91.212 101.784 91.448 100.729 91.6182C99.6823 91.7872 98.4148 91.8816 96.9146 91.9647L96.9975 93.4624C98.4994 93.3792 99.8363 93.2817 100.968 93.099C102.093 92.9176 103.085 92.6423 103.861 92.1625C104.668 91.6634 105.221 90.9538 105.454 89.9858C105.679 89.0553 105.595 87.9431 105.272 86.6328L103.815 86.9918ZM113.327 80.7881C114.253 81.0575 114.927 81.3499 115.393 81.6398C115.864 81.9332 116.068 82.191 116.146 82.369C116.21 82.5166 116.213 82.6645 116.117 82.8616C116.009 83.0842 115.77 83.3658 115.343 83.6766C114.49 84.2972 113.069 84.8996 111.19 85.3448C109.324 85.7868 107.055 86.0623 104.543 86.0623V87.5623C107.16 87.5623 109.546 87.2757 111.535 86.8044C113.511 86.3363 115.147 85.6741 116.225 84.8897C116.764 84.498 117.211 84.0419 117.466 83.5181C117.733 82.9686 117.778 82.3614 117.521 81.7712C117.278 81.2117 116.8 80.7494 116.186 80.3666C115.565 79.9803 114.751 79.6404 113.745 79.3478L113.327 80.7881ZM125.294 69.7761C125.482 70.2065 125.51 70.8626 125.217 71.7034C124.927 72.5358 124.339 73.4942 123.395 74.4638C121.512 76.3996 118.258 78.3307 113.385 79.3334L113.687 80.8026C118.796 79.7515 122.34 77.7 124.471 75.5098C125.534 74.4164 126.258 73.2759 126.634 72.1969C127.007 71.1262 127.055 70.0581 126.668 69.1748L125.294 69.7761ZM123.278 70.6138C124.099 70.3207 124.695 70.1097 125.128 70.0229C125.343 69.9796 125.448 69.9829 125.484 69.9888C125.492 69.9902 125.408 69.9709 125.35 69.8806L126.612 69.0703C126.392 68.7265 126.056 68.5632 125.729 68.509C125.43 68.4593 125.116 68.4954 124.832 68.5522C124.268 68.6657 123.549 68.9242 122.774 69.2011L123.278 70.6138ZM113.492 72.3862C117.644 72.6314 121.065 71.404 123.278 70.6138L122.774 69.2011C120.563 69.9906 117.399 71.1143 113.58 70.8888L113.492 72.3862ZM130.47 57.8898C127.993 62.3634 123.729 65.6252 120.025 67.7808C118.18 68.8541 116.493 69.6425 115.268 70.1621C114.656 70.4218 114.16 70.6138 113.82 70.7403C113.649 70.8036 113.518 70.8504 113.43 70.8812C113.386 70.8965 113.353 70.9078 113.331 70.9151C113.32 70.9188 113.312 70.9214 113.308 70.9231C113.305 70.9239 113.303 70.9245 113.302 70.9248C113.302 70.925 113.302 70.9251 113.301 70.9251C113.301 70.9252 113.301 70.9251 113.301 70.9251C113.301 70.9251 113.302 70.9251 113.536 71.6375C113.77 72.3499 113.771 72.3499 113.771 72.3498C113.771 72.3497 113.771 72.3496 113.772 72.3495C113.772 72.3493 113.773 72.349 113.774 72.3487C113.776 72.348 113.779 72.3471 113.783 72.3459C113.79 72.3436 113.8 72.3402 113.812 72.3358C113.838 72.3271 113.876 72.3143 113.924 72.2974C114.021 72.2635 114.162 72.2134 114.342 72.1465C114.702 72.0128 115.219 71.8124 115.854 71.543C117.123 71.0046 118.869 70.1888 120.779 69.0772C124.584 66.8631 129.115 63.4328 131.783 58.6166L130.47 57.8898ZM131.255 56.1301C131.229 56.1162 131.193 56.0786 131.18 56.0416C131.174 56.0263 131.195 56.0715 131.171 56.2246C131.121 56.5428 130.922 57.0743 130.47 57.8898L131.783 58.6166C132.253 57.7663 132.561 57.0453 132.653 56.4569C132.7 56.1569 132.7 55.8354 132.59 55.5316C132.473 55.206 132.248 54.958 131.955 54.8035L131.255 56.1301ZM131.081 54.9303C129.833 56.1499 119.738 65.4174 99.9934 66.6971L100.09 68.194C120.297 66.8843 130.711 57.3886 132.13 56.0033L131.081 54.9303ZM99.9934 66.6971C92.1517 67.2054 87.7942 70.2475 85.4978 74.0072C83.2321 77.7167 83.0593 81.9869 83.2821 84.8266L84.7775 84.7093C84.5651 82.0015 84.752 78.106 86.7779 74.7891C88.7732 71.5223 92.6394 68.6769 100.09 68.194L99.9934 66.6971Z" fill="#444E5E"/>
</svg>
