<svg width="141" height="140" viewBox="0 0 141 140" fill="none" xmlns="http://www.w3.org/2000/svg">
<rect x="27.5849" y="8.92627" width="91.9004" height="119.154" rx="15" fill="#535D6E" stroke="#444E5E" stroke-width="1.5" stroke-linejoin="round"/>
<rect x="32.9835" y="13.7388" width="81.1032" height="109.529" rx="10" fill="white" stroke="#444E5E" stroke-width="1.5" stroke-linejoin="round"/>
<path d="M36.1133 31.0303H110.988" stroke="#E8E9EA" stroke-width="1.5" stroke-linecap="round" stroke-linejoin="round"/>
<path d="M36.1133 35.8604H110.988" stroke="#E8E9EA" stroke-width="1.5" stroke-linecap="round" stroke-linejoin="round"/>
<path d="M36.1133 40.6909H110.988" stroke="#E8E9EA" stroke-width="1.5" stroke-linecap="round" stroke-linejoin="round"/>
<path d="M36.1133 45.5205H110.988" stroke="#E8E9EA" stroke-width="1.5" stroke-linecap="round" stroke-linejoin="round"/>
<path d="M36.1133 50.3501H110.988" stroke="#E8E9EA" stroke-width="1.5" stroke-linecap="round" stroke-linejoin="round"/>
<path d="M36.1133 55.1812H110.988" stroke="#E8E9EA" stroke-width="1.5" stroke-linecap="round" stroke-linejoin="round"/>
<path d="M36.1133 60.0103H110.988" stroke="#E8E9EA" stroke-width="1.5" stroke-linecap="round" stroke-linejoin="round"/>
<path d="M36.1133 64.8398H110.988" stroke="#E8E9EA" stroke-width="1.5" stroke-linecap="round" stroke-linejoin="round"/>
<path d="M36.1133 69.6704H110.988" stroke="#E8E9EA" stroke-width="1.5" stroke-linecap="round" stroke-linejoin="round"/>
<path d="M36.1133 74.5005H110.988" stroke="#E8E9EA" stroke-width="1.5" stroke-linecap="round" stroke-linejoin="round"/>
<path d="M36.1133 79.3301H110.988" stroke="#E8E9EA" stroke-width="1.5" stroke-linecap="round" stroke-linejoin="round"/>
<path d="M36.1133 84.1606H110.988" stroke="#E8E9EA" stroke-width="1.5" stroke-linecap="round" stroke-linejoin="round"/>
<path d="M36.1133 88.9902H110.988" stroke="#E8E9EA" stroke-width="1.5" stroke-linecap="round" stroke-linejoin="round"/>
<path d="M36.1133 93.8198H110.988" stroke="#E8E9EA" stroke-width="1.5" stroke-linecap="round" stroke-linejoin="round"/>
<path d="M36.1133 98.6504H110.988" stroke="#E8E9EA" stroke-width="1.5" stroke-linecap="round" stroke-linejoin="round"/>
<path d="M36.1133 103.48H110.988" stroke="#E8E9EA" stroke-width="1.5" stroke-linecap="round" stroke-linejoin="round"/>
<path d="M36.1133 108.31H110.988" stroke="#E8E9EA" stroke-width="1.5" stroke-linecap="round" stroke-linejoin="round"/>
<path d="M36.1133 113.14H96.8773" stroke="#E8E9EA" stroke-width="1.5" stroke-linecap="round" stroke-linejoin="round"/>
<path d="M36.1133 117.97H96.8773" stroke="#E8E9EA" stroke-width="1.5" stroke-linecap="round" stroke-linejoin="round"/>
<path d="M102.756 117.53C102.756 114.631 105.107 112.28 108.006 112.28H112.618L102.756 122.142V117.53Z" fill="#D9D9D9" stroke="#444E5E" stroke-width="1.5" stroke-linejoin="round"/>
<path d="M84.9744 123.268H91.0758V131.264L84.9744 134.679V123.268Z" fill="#25BF97" stroke="#444E5E" stroke-width="1.5" stroke-linejoin="round"/>
<path d="M97.1744 123.268H91.0759V131.264L97.1744 134.679V123.268Z" fill="#5BD7BB" stroke="#444E5E" stroke-width="1.5" stroke-linejoin="round"/>
<rect x="114.087" y="28.5791" width="3.6612" height="9.68642" fill="#2FAE94" stroke="#444E5E" stroke-width="1.5" stroke-linejoin="round"/>
<rect x="114.087" y="42.9126" width="3.6612" height="9.68642" fill="#A9B1BE" stroke="#444E5E" stroke-width="1.5" stroke-linejoin="round"/>
<rect x="114.087" y="57.2466" width="3.6612" height="9.68642" fill="#A9B1BE" stroke="#444E5E" stroke-width="1.5" stroke-linejoin="round"/>
<rect x="114.087" y="71.5806" width="3.6612" height="9.68642" fill="#2FAE94" stroke="#444E5E" stroke-width="1.5" stroke-linejoin="round"/>
<rect x="114.087" y="85.9146" width="3.6612" height="9.68642" fill="#A9B1BE" stroke="#444E5E" stroke-width="1.5" stroke-linejoin="round"/>
<rect x="114.087" y="100.248" width="3.6612" height="9.68642" fill="#2FAE94" stroke="#444E5E" stroke-width="1.5" stroke-linejoin="round"/>
<rect width="12.99" height="9.68642" transform="matrix(-1 0 0 1 130.738 28.5791)" fill="#2DD1AC" stroke="#444E5E" stroke-width="1.5" stroke-linejoin="round"/>
<rect width="10.04" height="9.68642" transform="matrix(-1 0 0 1 127.788 42.9126)" fill="#D9DCE2" stroke="#444E5E" stroke-width="1.5" stroke-linejoin="round"/>
<rect width="7.43827" height="9.68642" transform="matrix(-1 0 0 1 125.186 57.2466)" fill="#D9DCE2" stroke="#444E5E" stroke-width="1.5" stroke-linejoin="round"/>
<rect width="10.04" height="9.68642" transform="matrix(-1 0 0 1 127.788 71.5806)" fill="#2DD1AC" stroke="#444E5E" stroke-width="1.5" stroke-linejoin="round"/>
<rect width="12.99" height="9.68642" transform="matrix(-1 0 0 1 130.738 85.9146)" fill="#D9DCE2" stroke="#444E5E" stroke-width="1.5" stroke-linejoin="round"/>
<rect width="10.04" height="9.68642" transform="matrix(-1 0 0 1 127.788 100.248)" fill="#2DD1AC" stroke="#444E5E" stroke-width="1.5" stroke-linejoin="round"/>
<rect x="38.688" y="17.2046" width="4.44266" height="4.44068" rx="2.22034" fill="#535D6E" stroke="#444E5E" stroke-width="1.5"/>
<rect x="45.9306" y="17.2046" width="4.44266" height="4.44068" rx="2.22034" fill="#535D6E" stroke="#444E5E" stroke-width="1.5"/>
<rect x="53.1731" y="17.2046" width="4.44266" height="4.44068" rx="2.22034" fill="#535D6E" stroke="#444E5E" stroke-width="1.5"/>
<rect x="60.4158" y="17.2046" width="4.44266" height="4.44068" rx="2.22034" fill="#535D6E" stroke="#444E5E" stroke-width="1.5"/>
<rect x="67.6584" y="17.2046" width="4.44266" height="4.44068" rx="2.22034" fill="#535D6E" stroke="#444E5E" stroke-width="1.5"/>
<rect x="74.9011" y="17.2046" width="4.44266" height="4.44068" rx="2.22034" fill="#535D6E" stroke="#444E5E" stroke-width="1.5"/>
<rect x="82.1436" y="17.2046" width="4.44266" height="4.44068" rx="2.22034" fill="#535D6E" stroke="#444E5E" stroke-width="1.5"/>
<rect x="89.3863" y="17.2046" width="4.44266" height="4.44068" rx="2.22034" fill="#535D6E" stroke="#444E5E" stroke-width="1.5"/>
<rect x="96.6289" y="17.2046" width="4.44266" height="4.44068" rx="2.22034" fill="#535D6E" stroke="#444E5E" stroke-width="1.5"/>
<rect x="103.872" y="17.2046" width="4.44266" height="4.44068" rx="2.22034" fill="#535D6E" stroke="#444E5E" stroke-width="1.5"/>
<rect x="39.9589" y="5.6001" width="2.04434" height="14.5148" rx="1.02217" fill="#D9DCE2" stroke="#444E5E" stroke-width="1.5" stroke-linejoin="round"/>
<rect x="47.1935" y="5.6001" width="2.04434" height="14.5148" rx="1.02217" fill="#D9DCE2" stroke="#444E5E" stroke-width="1.5" stroke-linejoin="round"/>
<rect x="54.4282" y="5.6001" width="2.04434" height="14.5148" rx="1.02217" fill="#D9DCE2" stroke="#444E5E" stroke-width="1.5" stroke-linejoin="round"/>
<rect x="61.6628" y="5.6001" width="2.04434" height="14.5148" rx="1.02217" fill="#D9DCE2" stroke="#444E5E" stroke-width="1.5" stroke-linejoin="round"/>
<rect x="68.8974" y="5.6001" width="2.04434" height="14.5148" rx="1.02217" fill="#D9DCE2" stroke="#444E5E" stroke-width="1.5" stroke-linejoin="round"/>
<rect x="76.1321" y="5.6001" width="2.04434" height="14.5148" rx="1.02217" fill="#D9DCE2" stroke="#444E5E" stroke-width="1.5" stroke-linejoin="round"/>
<rect x="83.3668" y="5.6001" width="2.04434" height="14.5148" rx="1.02217" fill="#D9DCE2" stroke="#444E5E" stroke-width="1.5" stroke-linejoin="round"/>
<rect x="90.6014" y="5.6001" width="2.04434" height="14.5148" rx="1.02217" fill="#D9DCE2" stroke="#444E5E" stroke-width="1.5" stroke-linejoin="round"/>
<rect x="97.836" y="5.6001" width="2.04434" height="14.5148" rx="1.02217" fill="#D9DCE2" stroke="#444E5E" stroke-width="1.5" stroke-linejoin="round"/>
<rect x="105.071" y="5.6001" width="2.04434" height="14.5148" rx="1.02217" fill="#D9DCE2" stroke="#444E5E" stroke-width="1.5" stroke-linejoin="round"/>
<rect width="2.58571" height="65.5912" transform="matrix(-0.707107 0.707107 0.707107 0.707107 22.8331 40.0728)" fill="#8CD7C6" stroke="#444E5E" stroke-width="1.5" stroke-linejoin="round"/>
<rect x="22.8331" y="40.0728" width="2.58571" height="3.75466" transform="rotate(135 22.8331 40.0728)" fill="#808C9E" stroke="#444E5E" stroke-width="1.5" stroke-linejoin="round"/>
<rect width="2.58571" height="65.5912" transform="matrix(-0.707107 0.707107 0.707107 0.707107 21.0048 41.9009)" fill="#2DD1AC" stroke="#444E5E" stroke-width="1.5" stroke-linejoin="round"/>
<path d="M76.5305 99.0317L63.7278 91.9375L69.2129 86.4524L76.5305 99.0317Z" fill="#A9B1BE" stroke="#444E5E" stroke-width="1.5" stroke-linejoin="round"/>
<path d="M76.5304 99.0317L72.6513 96.8374C73.648 96.5623 73.9943 96.1857 74.3076 95.1811L76.5304 99.0317Z" fill="#444E5E" stroke="#444E5E" stroke-width="1.5" stroke-linejoin="round"/>
<rect x="21.0048" y="41.9009" width="2.58571" height="3.75466" transform="rotate(135 21.0048 41.9009)" fill="#535D6E" stroke="#444E5E" stroke-width="1.5" stroke-linejoin="round"/>
<path d="M18.3047 35.5442C17.1331 34.3726 15.2336 34.3726 14.062 35.5442L12.8196 36.7866C11.648 37.9582 11.648 39.8576 12.8196 41.0292L14.6932 42.9028L20.1782 37.4177L18.3047 35.5442Z" fill="#2FAE94" stroke="#444E5E" stroke-width="1.5" stroke-linejoin="round"/>
<rect width="2.58571" height="65.5912" transform="matrix(-0.707107 0.707107 0.707107 0.707107 19.1764 43.7295)" fill="#2FAE94" stroke="#444E5E" stroke-width="1.5" stroke-linejoin="round"/>
<rect x="19.1764" y="43.7295" width="2.58571" height="3.75466" transform="rotate(135 19.1764 43.7295)" fill="#444E5E" stroke="#444E5E" stroke-width="1.5" stroke-linejoin="round"/>
<path fill-rule="evenodd" clip-rule="evenodd" d="M75.7316 49.0501C73.0485 48.1093 74.3759 44.1202 76.7133 44.5664L82.7277 45.3717C84.145 41.9139 89.4554 41.5991 89.4227 46.6498L94.7709 47.6707C96.7463 48.2258 95.5502 52.4049 93.8072 52.0721C93.1445 55.9329 92.5038 58.8452 91.8844 61.6607C91.202 64.7625 90.5455 67.7469 89.9138 71.7528C89.451 74.6884 88.7573 75.8309 85.2011 75.1814C83.0218 74.6097 81.2761 74.525 79.4147 74.4347C77.795 74.3561 76.0877 74.2733 73.931 73.8616C72.3067 73.5515 71.7971 72.6252 72.1142 70.4721C72.4594 66.2685 73.1387 63.0626 73.8694 59.6141C74.515 56.5672 75.2008 53.331 75.7316 49.0501ZM88.7122 46.7548C87.7108 46.5656 86.952 46.3691 86.244 46.1857C85.2706 45.9336 84.3935 45.7065 83.1147 45.5576C83.803 44.2457 85.1939 43.1431 86.6814 43.5338C88.0986 43.9061 88.8652 45.0626 88.7122 46.7548ZM76.2495 44.9059C75.1197 44.6874 73.6452 48.1283 75.4809 48.4834C79.2165 49.0014 82.0057 49.5409 84.7719 50.0758C87.538 50.6108 90.2811 51.1414 93.9245 51.6416C95.279 51.6226 95.7883 48.2553 94.2044 48.3785C90.7242 47.8626 88.0612 47.284 85.2374 46.6705C82.6338 46.1048 79.8934 45.5093 76.2495 44.9059ZM75.0019 57.9262C74.2483 61.4755 73.4653 65.1633 72.7878 70.186C72.4367 73.0896 73.1226 73.357 74.6192 73.4118L86.6671 74.6889C87.9844 74.7878 89.3134 73.5095 89.2731 72.2118C89.8297 67.9515 90.5455 64.7318 91.2326 61.6411L91.2326 61.6411L91.2326 61.6411L91.2327 61.641C91.9198 58.5503 92.5782 55.5886 93.0201 51.8443C90.2685 51.4639 87.6834 50.9481 85.3399 50.4805C81.8074 49.7756 78.8235 49.1803 76.6449 49.3232C76.1575 52.4833 75.5886 55.1628 75.0019 57.9262Z" fill="#363F4D"/>
<path fill-rule="evenodd" clip-rule="evenodd" d="M79.529 54.716C79.6727 54.7535 79.7569 54.9056 79.717 55.0558C79.6804 55.1937 79.6426 55.3322 79.6047 55.4709C79.3908 56.2546 79.1745 57.047 79.1491 57.8008C79.1351 58.2134 79.1987 58.6237 79.274 59.0608C79.2803 59.0969 79.2866 59.1333 79.2929 59.1699C79.3619 59.5666 79.4351 59.9878 79.4449 60.4167C79.4653 61.3126 79.3035 62.2815 79.0338 63.1309C78.9553 63.3782 78.8555 63.6136 78.7607 63.8352C78.7562 63.8455 78.7518 63.8558 78.7474 63.8661C78.6558 64.0801 78.5697 64.281 78.5002 64.4871C78.4528 64.6278 78.413 64.7686 78.3709 64.9177C78.3506 64.9896 78.3297 65.0633 78.3072 65.14C78.2404 65.3671 78.1622 65.6069 78.05 65.8343C77.7718 66.398 77.5279 66.9344 77.3036 67.5172C77.2767 67.5872 77.1817 67.8946 77.1244 68.1888C77.0954 68.3373 77.0802 68.4625 77.082 68.5451C77.0821 68.5474 77.0821 68.5497 77.0822 68.5519C77.1518 68.6152 77.1867 68.7152 77.1653 68.8176C77.1335 68.9696 76.9895 69.0694 76.8438 69.0403C76.6979 69.0112 76.6201 68.9014 76.585 68.8141C76.5522 68.7325 76.5436 68.6443 76.5419 68.5728C76.5386 68.4261 76.5639 68.2512 76.595 68.0914C76.6578 67.7692 76.7615 67.4281 76.8026 67.3211C77.0351 66.717 77.2869 66.1638 77.5705 65.5892C77.6597 65.4084 77.7265 65.208 77.7908 64.9894C77.8095 64.9255 77.8285 64.8586 77.8478 64.7902C77.8921 64.6337 77.9387 64.4691 77.9908 64.3144C78.068 64.0854 78.1626 63.8645 78.252 63.6558C78.2573 63.6435 78.2626 63.6312 78.2679 63.6189C78.3636 63.3954 78.4524 63.1845 78.5212 62.9681C78.7741 62.1714 78.9236 61.2672 78.9048 60.4446C78.896 60.0611 78.8302 59.6815 78.76 59.2768C78.7541 59.2425 78.7481 59.208 78.7422 59.1734C78.6672 58.7383 78.593 58.2747 78.6092 57.7958C78.6371 56.9671 78.8752 56.0973 79.0888 55.3173C79.1258 55.1819 79.1621 55.0493 79.1965 54.92C79.2364 54.7698 79.3852 54.6785 79.529 54.716Z" fill="#444E5E"/>
<path fill-rule="evenodd" clip-rule="evenodd" d="M84.5003 54.811C84.6461 54.8376 84.7405 54.9827 84.7112 55.1351C84.6035 55.6948 84.5036 56.246 84.4556 56.7971C84.4433 56.9389 84.4456 57.0822 84.4481 57.2435C84.4482 57.2489 84.4483 57.2543 84.4484 57.2597C84.451 57.4222 84.4533 57.603 84.4335 57.7872C84.361 58.4616 84.219 59.1257 84.0676 59.7711C84.0406 59.8865 84.0135 60.0018 83.9864 60.1172C83.6621 61.497 83.3388 62.8729 83.0902 64.2581C83.0381 64.5484 83.0158 64.836 82.9923 65.1401C82.9881 65.1938 82.9839 65.248 82.9795 65.3029C82.9507 65.6615 82.913 66.0402 82.8112 66.4255C82.7724 66.5725 82.7333 66.7175 82.6945 66.8613C82.5681 67.3294 82.4453 67.7846 82.347 68.2558C82.3188 68.3909 82.3177 68.5135 82.3282 68.6504C82.3331 68.7142 82.3403 68.7784 82.3483 68.8504C82.3492 68.8579 82.35 68.8654 82.3509 68.8731C82.3597 68.9527 82.3691 69.0403 82.3754 69.1344C82.3768 69.1559 82.3775 69.1814 82.3778 69.2072C82.4047 69.2168 82.4305 69.231 82.454 69.2501C82.5698 69.3441 82.588 69.5199 82.4946 69.6429C82.4607 69.6876 82.4205 69.7339 82.3735 69.7706C82.3308 69.8038 82.2438 69.8592 82.1299 69.8456C82.0033 69.8305 81.9329 69.7427 81.9019 69.6863C81.8723 69.6325 81.86 69.5771 81.8539 69.5418C81.8412 69.4686 81.8399 69.3855 81.8395 69.3277C81.8394 69.3047 81.8394 69.2851 81.8394 69.2681C81.8394 69.2319 81.8394 69.2074 81.8381 69.1875C81.8328 69.1073 81.8246 69.0308 81.8159 68.9518C81.815 68.944 81.8141 68.9363 81.8133 68.9284C81.8054 68.858 81.7971 68.7838 81.7914 68.7095C81.7784 68.5405 81.7775 68.3585 81.8209 68.1506C81.923 67.6611 82.0519 67.1835 82.1791 66.7121C82.2172 66.5709 82.2552 66.4303 82.2922 66.2901C82.3796 65.9592 82.4143 65.6253 82.4429 65.2707C82.447 65.2194 82.451 65.1675 82.455 65.115C82.4784 64.8118 82.5031 64.491 82.5609 64.1692C82.8124 62.7678 83.1393 61.377 83.4628 60.0001C83.4901 59.8838 83.5174 59.7677 83.5446 59.6517C83.6948 59.0114 83.8298 58.3762 83.8983 57.7392C83.9138 57.5959 83.9126 57.4492 83.9099 57.2836C83.9098 57.2751 83.9097 57.2665 83.9095 57.2579C83.907 57.1044 83.9042 56.9337 83.9193 56.761C83.9701 56.1768 84.0755 55.5993 84.1832 55.039C84.2125 54.8866 84.3545 54.7845 84.5003 54.811ZM82.3847 69.4319C82.3847 69.4319 82.3845 69.4313 82.3842 69.4298C82.3845 69.4311 82.3847 69.4318 82.3847 69.4319Z" fill="#444E5E"/>
<path fill-rule="evenodd" clip-rule="evenodd" d="M88.778 56.1727C88.925 56.1935 89.0248 56.3346 89.001 56.488C88.9066 57.0948 88.8449 57.6891 88.7826 58.2895C88.7416 58.684 88.7004 59.0811 88.6494 59.4861C88.5231 60.4902 88.3402 61.5017 87.9546 62.497C87.8998 62.6384 87.8449 62.779 87.7904 62.9189C87.3373 64.0803 86.9022 65.1958 86.6513 66.3968C86.6062 66.6122 86.5974 66.8345 86.5989 67.076C86.5993 67.1448 86.6006 67.217 86.602 67.2912C86.6052 67.4669 86.6087 67.6544 86.6007 67.8362C86.5839 68.2168 86.5772 68.5665 86.5956 68.9374C86.6037 69.0999 86.5921 69.2587 86.5821 69.3969C86.5807 69.4165 86.5793 69.4357 86.578 69.4544C86.5687 69.5885 86.5631 69.7062 86.5722 69.8212C86.5791 69.8225 86.5863 69.8238 86.5938 69.8253C86.7393 69.8544 86.8315 70.0012 86.7998 70.1532C86.768 70.3052 86.6243 70.4049 86.4788 70.3759C86.4548 70.3711 86.445 70.3695 86.4335 70.3678C86.4231 70.3661 86.4114 70.3643 86.3867 70.3597C86.3566 70.3541 86.3 70.3428 86.2438 70.3116C86.0929 70.2279 86.0569 70.0744 86.0436 69.9694C86.0188 69.774 86.0288 69.5896 86.04 69.4285C86.0415 69.4078 86.0429 69.3875 86.0443 69.3676C86.0544 69.2264 86.0631 69.1054 86.0569 68.9808C86.0373 68.5843 86.0447 68.2145 86.0619 67.8252C86.069 67.662 86.0661 67.505 86.063 67.3383C86.0615 67.2596 86.06 67.1788 86.0595 67.0942C86.0579 66.8403 86.0664 66.5687 86.1243 66.2916C86.3859 65.0394 86.8397 63.8767 87.2908 62.721C87.3456 62.5804 87.4005 62.44 87.4549 62.2995C87.8151 61.3698 87.9906 60.4133 88.1146 59.4277C88.162 59.0511 88.2024 58.6637 88.2432 58.2717C88.3075 57.6554 88.3729 57.0277 88.4686 56.4127C88.4924 56.2593 88.6309 56.1519 88.778 56.1727Z" fill="#444E5E"/>
<path d="M43.9616 37.0898C44.0031 38.4739 43.9233 40.0302 44.3331 41.3621" stroke="#444E5E" stroke-width="0.5" stroke-linecap="round"/>
<path d="M45.943 41.1138V41.0522" stroke="#444E5E" stroke-width="0.5" stroke-linecap="round"/>
<path d="M47.4289 38.2038C47.911 37.5734 49.7164 36.2163 50.0363 37.6878C50.145 38.188 49.9316 38.6928 49.6786 39.1119C49.3535 39.6502 48.9823 40.1679 48.6191 40.6804C48.37 41.0321 48.1077 41.4591 47.7798 41.7537C47.6233 41.8943 47.9636 41.7099 48.0275 41.6883C48.6497 41.4778 49.2744 41.3118 49.9159 41.1723C50.3773 41.072 50.8291 40.9386 51.2884 40.8318C51.4406 40.7964 51.5546 40.8073 51.6392 40.6804" stroke="#444E5E" stroke-width="0.5" stroke-linecap="round"/>
<path d="M53.8681 36.5941C53.7828 36.3666 52.4328 36.5756 52.2101 36.5941C51.8656 36.6228 51.9624 36.7153 51.9968 37.0138C52.0374 37.3656 52.0725 37.7121 52.0725 38.0664C52.0725 38.4566 52.3117 38.3214 52.6229 38.2349C52.9534 38.1431 53.3067 38.0801 53.6548 38.0801C54.9564 38.0801 55.5086 39.6493 54.501 40.4329C54.1734 40.6877 53.5695 40.7258 53.1561 40.6772C52.8219 40.6379 52.6765 40.2182 52.6298 39.9376" stroke="#444E5E" stroke-width="0.5" stroke-linecap="round"/>
<path d="M56.4067 36.8416C56.1142 37.4694 55.9771 38.1259 55.8769 38.8092C55.7544 39.645 56.2406 40.9405 57.2322 40.9109C58.0228 40.8873 58.8566 39.9351 59.0691 39.2219C59.208 38.7556 59.2898 38.1625 59.0691 37.7084C58.7189 36.988 58.0875 36.6374 57.3079 36.5974C57.076 36.5855 56.4686 36.4916 56.4686 36.8416" stroke="#444E5E" stroke-width="0.5" stroke-linecap="round"/>
<path d="M43.2805 45.7579C43.5713 45.7579 44.2533 45.8926 44.5326 45.7304C44.6939 45.6367 44.8346 45.5615 45.0142 45.5103" stroke="#444E5E" stroke-width="0.5" stroke-linecap="round"/>
<path d="M44.0854 44.334C44.0854 45.3063 44.0854 46.2786 44.0854 47.2509C44.0854 47.3539 44.0669 47.3896 44.1473 47.4298" stroke="#444E5E" stroke-width="0.5" stroke-linecap="round"/>
<path d="M48.4815 43.7143C48.9304 43.6223 49.5331 43.4905 49.9985 43.594C50.3446 43.6709 50.0592 44.4641 49.9881 44.6087C49.811 44.969 49.4789 45.6909 49.0044 45.7541C48.9619 45.7598 48.7438 45.7794 48.9218 45.7438C49.3205 45.6641 49.674 45.4569 50.0776 45.3861C50.4476 45.3212 50.9455 45.1935 51.0476 45.675C51.1701 46.2525 51.0514 46.8839 50.4835 47.1679C49.7798 47.5198 48.9902 47.9866 48.1823 47.9866C47.8941 47.9866 47.8451 47.6524 47.8004 47.4293" stroke="#444E5E" stroke-width="0.5" stroke-linecap="round"/>
<path d="M52.6299 43.6525C52.8107 43.4416 53.2976 43.2092 53.5793 43.2191C53.9093 43.2306 53.9921 43.9006 53.9921 44.1272C53.9921 45.044 53.5717 46.2529 52.7228 46.738C52.5183 46.8549 52.2696 46.8726 52.0658 46.9891C52.0001 47.0266 52.2175 46.9893 52.2928 46.9822C52.7261 46.9411 53.1511 46.85 53.5793 46.7758C54.1376 46.6791 54.6967 46.5625 55.2648 46.5625C55.5666 46.5625 55.876 46.595 56.1592 46.5006" stroke="#444E5E" stroke-width="0.5" stroke-linecap="round"/>
<path d="M56.4069 42.9095C56.0168 43.7904 55.1348 46.0786 56.7096 46.3493C57.3395 46.4576 57.7659 46.3629 57.9548 45.7439C58.0977 45.2753 58.1444 44.7876 58.1405 44.2992C58.136 43.7333 57.8306 42.8929 57.2462 42.6756C56.8968 42.5457 55.9735 42.4991 55.9735 43.0333" stroke="#444E5E" stroke-width="0.5" stroke-linecap="round"/>
<path d="M45.262 50.463C48.5286 49.4862 51.836 48.6481 55.1066 47.6837C56.516 47.2681 57.4851 46.9797 58.7735 46.5004C59.1336 46.3664 59.1363 46.3214 59.4614 46.2321C59.7273 46.159 60.0333 46.1681 60.3076 46.1289" stroke="#444E5E" stroke-width="0.5" stroke-linecap="round"/>
<path d="M57.379 48.0614C57.0424 48.3284 56.6686 48.842 56.8346 49.2835C57.1544 50.1346 57.9507 50.4373 58.8242 50.3957C59.3947 50.3685 60.0106 49.931 60.0783 49.3357C60.1072 49.081 60.1756 48.563 60.0551 48.322C59.7974 47.8065 58.8182 47.54 58.2942 47.54C57.4613 47.54 56.9559 47.751 56.8577 48.6348" stroke="#444E5E" stroke-width="0.5" stroke-linecap="round"/>
<path d="M54.0949 48.8952C54.6049 48.8695 55.1267 48.8655 55.6299 48.7649C55.8718 48.7165 55.85 48.7561 55.7863 48.9821C55.5974 49.6516 55.4598 50.2978 55.346 50.9804" stroke="#444E5E" stroke-width="0.5" stroke-linecap="round"/>
<path d="M54.5119 50.2506C54.7541 50.0891 55.2712 50.1329 55.5545 50.0942" stroke="#444E5E" stroke-width="0.5" stroke-linecap="round"/>
<path d="M51.019 50.3032C50.8228 50.3912 50.5822 50.4852 50.4253 50.6421C50.3004 50.7669 50.6266 51.0829 50.7294 51.1257C50.9568 51.2205 51.3107 51.0938 51.5056 51.2271C51.6822 51.3479 51.8118 51.7714 51.8415 51.9714C51.9396 52.6313 51.69 52.8577 51.0595 52.8577C50.7124 52.8577 50.5498 52.6921 50.5498 52.3363" stroke="#444E5E" stroke-width="0.5" stroke-linecap="round"/>
<path d="M46.3793 52.7011C46.7005 51.9518 47.4287 51.3227 47.9375 50.6969C48.0355 50.5764 48.0997 50.327 48.0997 50.5637C48.0997 51.4615 47.952 52.3454 47.8969 53.2398C47.8748 53.6001 47.7869 54.6782 47.7869 54.3172" stroke="#444E5E" stroke-width="0.5" stroke-linecap="round"/>
<path d="M50.7584 50.3027C51.3965 50.2015 51.9039 50.0799 52.4787 49.8335" stroke="#444E5E" stroke-width="0.5" stroke-linecap="round"/>
<path d="M49.1422 54.056C49.1422 54.0118 49.1422 53.8793 49.1422 53.9234C49.1422 53.9503 49.1422 54.0041 49.1422 54.0041" stroke="#444E5E" stroke-width="0.5" stroke-linecap="round"/>
<path d="M74.9904 90.5651C75.3508 90.0137 78.0157 84.9969 78.9545 85.563C79.5768 85.9384 79.8001 87.7588 79.9753 88.5203C80.1344 89.2123 80.4458 88.8694 80.8685 88.5753C81.806 87.9229 82.739 87.1216 83.7352 86.6294C85.1646 85.9231 85.7469 86.414 86.9847 87.333C89.3723 89.1055 92.4654 89.6471 95.2022 89.7076C96.4582 89.7354 97.8172 88.7758 99.0301 89.1139C101.867 89.9047 104.718 89.7736 107.605 89.7736" stroke="#444E5E" stroke-width="0.5" stroke-linecap="round"/>
<path d="M46.615 60.7305C49.4041 56.1782 48.6372 57.1581 53.3028 51.6159C62.4244 40.7806 65.0592 38.4478 74.9904 27.0239" stroke="#444E5E" stroke-width="0.5" stroke-linecap="round"/>
<path d="M43.8634 31.4951C50.5599 45.1133 58.833 57.9392 66.7357 70.8767" stroke="#444E5E" stroke-width="0.5" stroke-linecap="round"/>
</svg>
