<svg width="20" height="20" viewBox="0 0 20 20" fill="none" xmlns="http://www.w3.org/2000/svg">
<path d="M11.125 6.625C11.125 7.24632 10.6213 7.75 10 7.75C9.37868 7.75 8.875 7.24632 8.875 6.625C8.875 6.00368 9.37868 5.5 10 5.5C10.6213 5.5 11.125 6.00368 11.125 6.625Z" fill="#363F4D"/>
<path fill-rule="evenodd" clip-rule="evenodd" d="M10 8.875C10.6213 8.875 11.125 9.37868 11.125 10L11.125 14.5C11.125 15.1213 10.6213 15.625 10 15.625C9.37868 15.625 8.875 15.1213 8.875 14.5L8.875 10C8.875 9.37868 9.37868 8.875 10 8.875Z" fill="#363F4D"/>
<path fill-rule="evenodd" clip-rule="evenodd" d="M10 17.5375C14.1628 17.5375 17.5375 14.1628 17.5375 10C17.5375 5.83715 14.1628 2.4625 10 2.4625C5.83715 2.4625 2.4625 5.83715 2.4625 10C2.4625 14.1628 5.83715 17.5375 10 17.5375ZM10 19C14.9706 19 19 14.9706 19 10C19 5.02944 14.9706 1 10 1C5.02944 1 1 5.02944 1 10C1 14.9706 5.02944 19 10 19Z" fill="#363F4D"/>
</svg>
