<svg width="145" height="119" viewBox="0 0 145 119" fill="none" xmlns="http://www.w3.org/2000/svg">
<path d="M2 23.0063C2 19.6374 4.73111 16.9062 8.1001 16.9062H19.6423C20.7468 16.9062 21.6423 17.8017 21.6423 18.9062V27.1064C21.6423 28.211 20.7468 29.1064 19.6423 29.1064H8.1001C4.73111 29.1064 2 26.3753 2 23.0063Z" fill="#A9B1BE" stroke="#444E5E" stroke-width="2.5" stroke-linecap="round" stroke-linejoin="round"/>
<circle cx="54.9316" cy="107.39" r="8.8797" fill="#A9B1BE" stroke="#444E5E" stroke-width="2.5" stroke-linecap="round" stroke-linejoin="round"/>
<circle cx="95.1268" cy="107.39" r="8.8797" fill="#A9B1BE" stroke="#444E5E" stroke-width="2.5" stroke-linecap="round" stroke-linejoin="round"/>
<circle cx="55" cy="107.2" r="3" fill="white" stroke="#444E5E" stroke-width="2.5" stroke-linecap="round" stroke-linejoin="round"/>
<circle cx="95" cy="107.2" r="3" fill="white" stroke="#444E5E" stroke-width="2.5" stroke-linecap="round" stroke-linejoin="round"/>
<path d="M21.7643 26.422V19.9557L29.8727 19.9155C31.75 19.9498 33.8663 21.1786 34.4525 23.9819L46.9912 89.4484C47.1379 90.1102 47.3976 90.2573 48.0574 90.2646L107.41 90.2288C112.931 90.2524 113.002 97.1462 107.41 97.1997H46.5C43.6176 97.0114 41.3746 95.0563 40.6746 91.9369L28.1084 26.422H21.7643Z" fill="#A9B1BE" stroke="#444E5E" stroke-width="2.5" stroke-linecap="round" stroke-linejoin="round"/>
<path d="M120.072 33.0258H36.2446L45.0019 78.7617H113.256C116.088 78.8016 117.764 77.7217 118.805 75.0625L125.357 39.9282C126.315 34.6029 123.787 32.9179 120.072 33.0258Z" fill="white" stroke="#444E5E" stroke-width="2.5" stroke-linecap="round" stroke-linejoin="round"/>
<path d="M120.072 33.0258H36.2446L45.0019 78.7617H113.256C116.088 78.8016 117.764 77.7217 118.805 75.0625L125.357 39.9282C126.315 34.6029 123.787 32.9179 120.072 33.0258Z" fill="white" stroke="#444E5E" stroke-width="2.5" stroke-linecap="round" stroke-linejoin="round"/>
<path d="M53.3654 33.0508C53.2653 32.3677 52.6304 31.8951 51.9474 31.9952C51.2643 32.0953 50.7917 32.7302 50.8918 33.4133L53.3654 33.0508ZM57.5574 78.8968C57.6575 79.5798 58.2924 80.0524 58.9755 79.9523C59.6585 79.8522 60.1311 79.2173 60.031 78.5343L57.5574 78.8968ZM73.1269 33.2935C73.1104 32.6034 72.5375 32.0572 71.8474 32.0737C71.1572 32.0902 70.6111 32.6631 70.6276 33.3532L73.1269 33.2935ZM71.7056 78.4755C71.7221 79.1657 72.2949 79.7118 72.9851 79.6953C73.6752 79.6788 74.2213 79.106 74.2049 78.4158L71.7056 78.4755ZM93.4896 33.0903C93.4896 32.4 92.9299 31.8403 92.2396 31.8403C91.5492 31.8403 90.9896 32.4 90.9896 33.0903L93.4896 33.0903ZM86.1961 77.9188L86.0475 79.16L88.5297 79.4572L88.6784 78.2161L86.1961 77.9188ZM112.127 33.3255C112.231 32.643 111.762 32.0056 111.08 31.9017C110.397 31.7978 109.76 32.2668 109.656 32.9493L112.127 33.3255ZM102.739 78.3925C102.635 79.075 103.104 79.7125 103.786 79.8163C104.469 79.9202 105.106 79.4512 105.21 78.7687L102.739 78.3925ZM120.698 65.6696C121.388 65.6696 121.948 65.1099 121.948 64.4196C121.948 63.7292 121.388 63.1696 120.698 63.1696V65.6696ZM42.6102 63.1696C41.9199 63.1696 41.3602 63.7292 41.3602 64.4196C41.3602 65.1099 41.9199 65.6696 42.6102 65.6696V63.1696ZM123.797 49.7553C124.487 49.757 125.048 49.1987 125.05 48.5084C125.052 47.818 124.493 47.257 123.803 47.2553L123.797 49.7553ZM39.2958 47.0476C38.6054 47.0459 38.0444 47.6041 38.0427 48.2945C38.041 48.9849 38.5993 49.5459 39.2897 49.5476L39.2958 47.0476ZM50.8918 33.4133L57.5574 78.8968L60.031 78.5343L53.3654 33.0508L50.8918 33.4133ZM70.6276 33.3532L71.7056 78.4755L74.2049 78.4158L73.1269 33.2935L70.6276 33.3532ZM90.9896 33.0903C90.9896 33.051 90.9867 33.116 90.9605 33.4071C90.9384 33.6519 90.9055 33.9998 90.8628 34.4416C90.7774 35.3246 90.6532 36.5749 90.4984 38.1086C90.1889 41.1755 89.7573 45.3715 89.2696 50.0201C88.2938 59.3193 87.0941 70.421 86.1961 77.9188L88.6784 78.2161C89.5787 70.6988 90.7801 59.5816 91.7559 50.281C92.244 45.6296 92.6759 41.4303 92.9858 38.3596C93.1407 36.8244 93.2653 35.5703 93.3512 34.6823C93.3941 34.2387 93.4276 33.8845 93.4504 33.6317C93.469 33.4252 93.4896 33.1971 93.4896 33.0903L90.9896 33.0903ZM109.656 32.9493L102.739 78.3925L105.21 78.7687L112.127 33.3255L109.656 32.9493ZM120.698 63.1696H42.6102V65.6696H120.698V63.1696ZM123.803 47.2553L39.2958 47.0476L39.2897 49.5476L123.797 49.7553L123.803 47.2553Z" fill="#444E5E"/>
<path d="M41.5355 33.271L36.7886 33.3765L45.8604 78.4188L58.5186 78.5243L57.5693 73.0391L52.4005 73.1446C50.4593 73.1382 49.5967 72.0487 49.0249 69.8745L41.5355 33.271Z" fill="#A9B1BE"/>
<path d="M57.7054 33.271L52.6375 33.3765L59.8438 78.0247L72.5021 78.1302L72.1903 72.6449L67.0215 72.7504C65.0803 72.744 63.9012 71.6546 63.3294 69.4804L57.7054 33.271Z" fill="#A9B1BE"/>
<path d="M77.6108 33.271L72.8639 33.3765L73.6343 77.95L86.2926 78.0555L87.1169 72.5703L81.2473 72.6758C79.3061 72.6694 77.8729 71.5999 77.8717 69.4057L77.6108 33.271Z" fill="#A9B1BE"/>
<path d="M97.5606 33.8062L92.8137 33.9116L88.4923 77.9383L117.675 78.0132L118.499 72.528L96.7706 72.5634C94.8294 72.557 93.4908 71.3056 93.6768 69.1113L97.5606 33.8062Z" fill="#A9B1BE"/>
<path d="M120.072 33.0258H36.2446L45.0019 78.7617H113.256C116.088 78.8016 117.764 77.7217 118.805 75.0625L125.357 39.9282C126.315 34.6029 123.787 32.9179 120.072 33.0258Z" stroke="#444E5E" stroke-width="2.5" stroke-linecap="round" stroke-linejoin="round"/>
<path d="M53.3654 33.0508C53.2653 32.3677 52.6304 31.8951 51.9474 31.9952C51.2643 32.0953 50.7917 32.7302 50.8918 33.4133L53.3654 33.0508ZM57.5574 78.8968C57.6575 79.5798 58.2924 80.0524 58.9755 79.9523C59.6585 79.8522 60.1311 79.2173 60.031 78.5343L57.5574 78.8968ZM73.1269 33.2935C73.1104 32.6034 72.5375 32.0572 71.8474 32.0737C71.1572 32.0902 70.6111 32.6631 70.6276 33.3532L73.1269 33.2935ZM71.7056 78.4755C71.7221 79.1657 72.2949 79.7118 72.9851 79.6953C73.6752 79.6788 74.2213 79.106 74.2049 78.4158L71.7056 78.4755ZM93.4896 33.0903C93.4896 32.4 92.9299 31.8403 92.2396 31.8403C91.5492 31.8403 90.9896 32.4 90.9896 33.0903L93.4896 33.0903ZM86.1961 77.9188L86.0475 79.16L88.5297 79.4572L88.6784 78.2161L86.1961 77.9188ZM112.127 33.3255C112.231 32.643 111.762 32.0056 111.08 31.9017C110.397 31.7978 109.76 32.2668 109.656 32.9493L112.127 33.3255ZM102.739 78.3925C102.635 79.075 103.104 79.7125 103.786 79.8163C104.469 79.9202 105.106 79.4512 105.21 78.7687L102.739 78.3925ZM120.698 65.6696C121.388 65.6696 121.948 65.1099 121.948 64.4196C121.948 63.7292 121.388 63.1696 120.698 63.1696V65.6696ZM42.6102 63.1696C41.9199 63.1696 41.3602 63.7292 41.3602 64.4196C41.3602 65.1099 41.9199 65.6696 42.6102 65.6696V63.1696ZM123.797 49.7553C124.487 49.757 125.048 49.1987 125.05 48.5084C125.052 47.818 124.493 47.257 123.803 47.2553L123.797 49.7553ZM39.2958 47.0476C38.6054 47.0459 38.0444 47.6041 38.0427 48.2945C38.041 48.9849 38.5993 49.5459 39.2897 49.5476L39.2958 47.0476ZM50.8918 33.4133L57.5574 78.8968L60.031 78.5343L53.3654 33.0508L50.8918 33.4133ZM70.6276 33.3532L71.7056 78.4755L74.2049 78.4158L73.1269 33.2935L70.6276 33.3532ZM90.9896 33.0903C90.9896 33.051 90.9867 33.116 90.9605 33.4071C90.9384 33.6519 90.9055 33.9998 90.8628 34.4416C90.7774 35.3246 90.6532 36.5749 90.4984 38.1086C90.1889 41.1755 89.7573 45.3715 89.2696 50.0201C88.2938 59.3193 87.0941 70.421 86.1961 77.9188L88.6784 78.2161C89.5787 70.6988 90.7801 59.5816 91.7559 50.281C92.244 45.6296 92.6759 41.4303 92.9858 38.3596C93.1407 36.8244 93.2653 35.5703 93.3512 34.6823C93.3941 34.2387 93.4276 33.8845 93.4504 33.6317C93.469 33.4252 93.4896 33.1971 93.4896 33.0903L90.9896 33.0903ZM109.656 32.9493L102.739 78.3925L105.21 78.7687L112.127 33.3255L109.656 32.9493ZM120.698 63.1696H42.6102V65.6696H120.698V63.1696ZM123.803 47.2553L39.2958 47.0476L39.2897 49.5476L123.797 49.7553L123.803 47.2553Z" fill="#444E5E"/>
<circle cx="85.6213" cy="22.6621" r="20.4624" fill="#2DD1AC" stroke="#444E5E" stroke-width="2.5" stroke-linecap="round" stroke-linejoin="round"/>
<path d="M102.811 22.7007C102.811 13.207 95.1147 5.51074 85.6213 5.51074" stroke="white" stroke-width="2.5" stroke-linecap="round" stroke-linejoin="round"/>
<path fill-rule="evenodd" clip-rule="evenodd" d="M88.8451 16.9833L83.4315 22.3968L82.0977 21.063C80.7978 19.7631 78.6902 19.7631 77.3902 21.063C76.0903 22.363 76.0903 24.4706 77.3902 25.7705L81.0778 29.458C81.3336 29.7138 81.6207 29.9193 81.9267 30.0744C83.1759 30.7077 84.7411 30.5022 85.7853 29.4581L93.5526 21.6907C94.8525 20.3908 94.8525 18.2832 93.5526 16.9833C92.2527 15.6833 90.145 15.6833 88.8451 16.9833Z" fill="white"/>
<path d="M83.4315 22.3968L82.5476 23.2807C83.0358 23.7689 83.8273 23.7689 84.3154 23.2807L83.4315 22.3968ZM88.8451 16.9833L89.729 17.8671V17.8671L88.8451 16.9833ZM82.0977 21.063L82.9816 20.1791V20.1791L82.0977 21.063ZM77.3902 21.063L78.2741 21.9469L78.2741 21.9469L77.3902 21.063ZM77.3902 25.7705L78.2741 24.8866H78.2741L77.3902 25.7705ZM81.0778 29.458L80.1939 30.3419L80.1939 30.3419L81.0778 29.458ZM81.9267 30.0744L82.4918 28.9595H82.4918L81.9267 30.0744ZM93.5526 21.6907L92.6687 20.8068V20.8068L93.5526 21.6907ZM93.5526 16.9833L94.4365 16.0994L94.4365 16.0994L93.5526 16.9833ZM84.3154 23.2807L89.729 17.8671L87.9612 16.0994L82.5476 21.513L84.3154 23.2807ZM81.2138 21.9469L82.5476 23.2807L84.3154 21.513L82.9816 20.1791L81.2138 21.9469ZM78.2741 21.9469C79.0859 21.1351 80.402 21.1351 81.2138 21.9469L82.9816 20.1791C81.1935 18.391 78.2944 18.391 76.5063 20.1791L78.2741 21.9469ZM78.2741 24.8866C77.4623 24.0748 77.4623 22.7587 78.2741 21.9469L76.5063 20.1791C74.7183 21.9672 74.7183 24.8663 76.5064 26.6544L78.2741 24.8866ZM81.9617 28.5742L78.2741 24.8866L76.5064 26.6544L80.1939 30.3419L81.9617 28.5742ZM82.4918 28.9595C82.3021 28.8633 82.1229 28.7354 81.9617 28.5742L80.1939 30.3419C80.5442 30.6922 80.9392 30.9753 81.3615 31.1894L82.4918 28.9595ZM84.9014 28.5742C84.2507 29.2249 83.2732 29.3555 82.4918 28.9595L81.3615 31.1894C83.0786 32.0598 85.2316 31.7795 86.6691 30.3419L84.9014 28.5742ZM92.6687 20.8068L84.9014 28.5742L86.6691 30.3419L94.4365 22.5746L92.6687 20.8068ZM92.6687 17.8671C93.4805 18.6789 93.4805 19.9951 92.6687 20.8068L94.4365 22.5746C96.2246 20.7865 96.2246 17.8875 94.4365 16.0994L92.6687 17.8671ZM89.729 17.8671C90.5408 17.0554 91.8569 17.0554 92.6687 17.8671L94.4365 16.0994C92.6484 14.3113 89.7493 14.3113 87.9612 16.0994L89.729 17.8671Z" fill="#444E5E"/>
<path d="M12.0276 117H143.528" stroke="#444E5E" stroke-width="2.5" stroke-linecap="round" stroke-linejoin="round"/>
</svg>
