<svg width="141" height="140" viewBox="0 0 141 140" fill="none" xmlns="http://www.w3.org/2000/svg">
<path d="M118.793 134.899C88.858 142.134 -16.7565 144.179 23.3709 105.621C41.1704 88.5182 22.4629 69.8175 22.4662 56.6088C22.4675 51.2977 23.9582 45.2459 22.2595 40.2138C17.2274 25.3069 19.1517 4.08303 71.8043 23.5163C75.8096 24.9946 80.3309 24.1217 83.645 21.4301C124.932 -12.1015 129.42 36.7223 124.544 57.8264C115.728 95.9806 133.038 113.144 124.218 130.708C123.135 132.864 121.137 134.333 118.793 134.899Z" fill="#F7F7F8" stroke="#F7F7F8" stroke-width="1.11221"/>
<path d="M82.855 129.936L98.3104 99.6694L116.664 117.379L85.4309 132.834C83.4989 133.8 81.9969 132.023 82.855 129.936Z" fill="#E8E9EA" stroke="#444E5E" stroke-width="1.66831" stroke-linecap="round" stroke-linejoin="round"/>
<path d="M106.682 88.3998C97.0224 87.4337 95.7345 97.0934 98.6324 100.313L116.342 117.379C119.884 119.955 128.577 117.057 127.289 109.007C141.457 96.4494 121.494 73.5882 106.682 88.3998Z" fill="#2DD1AC"/>
<path d="M109.58 97.4154C111.19 97.4154 112.156 98.0593 112.156 99.9913V107.719C112.156 110.939 117.63 111.261 117.63 107.719V98.3813C117.63 95.8054 121.172 95.8054 121.172 98.3813V106.109C121.172 108.363 125.035 108.363 125.035 106.109V99.9913C125.035 98.7033 126.001 97.7374 127.289 97.7374H128.899M98.6324 100.313C95.7345 97.0934 97.0224 87.4337 106.682 88.3998C121.494 73.5882 141.457 96.4494 127.289 109.007C128.577 117.057 119.884 119.955 116.342 117.379L98.6324 100.313Z" stroke="#444E5E" stroke-width="1.66831" stroke-linecap="round" stroke-linejoin="round"/>
<path d="M97.6664 110.617V101.279L92.8365 110.617H97.6664Z" fill="#808C9E" stroke="#444E5E" stroke-width="1.66831" stroke-linecap="round" stroke-linejoin="round"/>
<path d="M97.6664 117.378H89.2947L92.8366 110.617H97.6664V117.378Z" fill="#808C9E" stroke="#444E5E" stroke-width="1.66831" stroke-linecap="round" stroke-linejoin="round"/>
<path d="M105.394 110.617H97.6664V101.601L98.6323 99.9912L105.394 106.753V110.617Z" fill="#808C9E" stroke="#444E5E" stroke-width="1.66831" stroke-linecap="round" stroke-linejoin="round"/>
<path d="M105.394 117.379H97.6664V110.295H105.394V117.379Z" fill="#A9B1BE" stroke="#444E5E" stroke-width="1.66831" stroke-linecap="round" stroke-linejoin="round"/>
<path d="M90.2606 124.141H86.0748L89.2947 117.379H90.2606V124.141Z" fill="#808C9E" stroke="#444E5E" stroke-width="1.66831" stroke-linecap="round" stroke-linejoin="round"/>
<path d="M97.6664 124.141V117.379H90.2606V124.141H97.6664Z" fill="#A9B1BE" stroke="#444E5E" stroke-width="1.66831" stroke-linecap="round" stroke-linejoin="round"/>
<path d="M90.2606 130.258V124.141H85.7528L82.5329 130.258C81.8889 131.546 83.4989 133.8 85.4308 132.834L90.2606 130.258Z" fill="#A9B1BE" stroke="#444E5E" stroke-width="1.66831" stroke-linecap="round" stroke-linejoin="round"/>
<path d="M97.6664 124.141V126.717L103.14 124.141H97.6664Z" fill="#D9DCE2" stroke="#444E5E" stroke-width="1.66831" stroke-linecap="round" stroke-linejoin="round"/>
<path d="M105.394 122.853V117.379H116.342L105.394 122.853Z" fill="#D9DCE2" stroke="#444E5E" stroke-width="1.66831" stroke-linecap="round" stroke-linejoin="round"/>
<path d="M109.58 110.617H105.394V117.378H116.342L109.58 110.617Z" fill="#E8E9EA" stroke="#444E5E" stroke-width="1.66831" stroke-linecap="round" stroke-linejoin="round"/>
<path d="M105.394 110.617V106.753L109.58 110.617H105.394Z" fill="#E8E9EA" stroke="#444E5E" stroke-width="1.66831" stroke-linecap="round" stroke-linejoin="round"/>
<path d="M70.4036 50.485L56.1862 10.6314C41.9608 15.9376 32.097 26.8549 27.4869 41.4302L35.5855 44.0269L35.8113 50.4246C35.9016 52.9836 40.3912 53.1455 40.2896 50.2665L40.109 45.1484L55.3015 49.0963L55.4031 51.9752C55.5046 54.8541 59.9717 54.3762 59.8814 51.8172L59.8475 50.8575L68.5747 53.1118C69.8655 53.3866 71.1224 52.7016 70.4036 50.485Z" fill="white" stroke="#444E5E" stroke-width="1.66831" stroke-linecap="round" stroke-linejoin="round"/>
<circle cx="44.6137" cy="36.6621" r="4.16105" transform="rotate(-2.02092 44.6137 36.6621)" fill="#2DD1AC" stroke="#444E5E" stroke-width="1.44587" stroke-linecap="round" stroke-linejoin="round"/>
<circle cx="50.5598" cy="23.6411" r="4.16105" transform="rotate(-2.02092 50.5598 23.6411)" fill="#2DD1AC" stroke="#444E5E" stroke-width="1.44587" stroke-linecap="round" stroke-linejoin="round"/>
<ellipse cx="58.2294" cy="41.3062" rx="4.16105" ry="4.16105" transform="rotate(-2.02092 58.2294 41.3062)" fill="#2DD1AC" stroke="#444E5E" stroke-width="1.44587" stroke-linecap="round" stroke-linejoin="round"/>
<path d="M20.0505 39.4502C18.2856 43.8917 25.9229 46.6098 27.8067 41.4185C33.6769 25.2414 39.3404 18.0613 56.1861 10.6311C61.2321 8.40547 57.803 1.99427 54.0185 3.6617C34.3189 12.3412 27.65 20.3266 20.0505 39.4502Z" fill="#A9B1BE" stroke="#444E5E" stroke-width="0.823065" stroke-linecap="round" stroke-linejoin="round"/>
<path d="M33.9673 34.4754L34.1253 38.9538M39.5559 29.474L42.0246 26.8247M54.372 31.8338L58.8504 31.6757" stroke="#444E5E" stroke-width="1.44587" stroke-linecap="round" stroke-linejoin="round"/>
<path d="M22.6722 82.8807L18.2555 72.8063L33.0688 67.974L52.1971 69.2226L65.8958 75.9159L60.1834 85.6916L57.6156 125.031L20.0808 122.581L22.6722 82.8807Z" fill="white" stroke="#444E5E" stroke-width="1.66831" stroke-linecap="round" stroke-linejoin="round"/>
<path d="M58.0397 118.535L20.5049 116.085L20.0808 122.581L57.6156 125.031L58.0397 118.535Z" fill="#2FC79F" stroke="#444E5E" stroke-width="1.66831" stroke-linecap="round" stroke-linejoin="round"/>
<path d="M10.2439 90.0435L18.2555 72.8065L22.6722 82.8809L22.3424 87.9337L21.8948 94.791L10.2439 90.0435Z" fill="#E8E9EA" stroke="#444E5E" stroke-width="1.66831" stroke-linecap="round" stroke-linejoin="round"/>
<path d="M71.5752 94.4093L65.8958 75.9162L60.1834 85.6919L59.8536 90.7446L59.406 97.602L71.5752 94.4093Z" fill="#E8E9EA" stroke="#444E5E" stroke-width="1.66831" stroke-linecap="round" stroke-linejoin="round"/>
<path d="M22.3188 88.2946L12.7862 84.4104L10.2438 90.0436L21.8947 94.7911L22.3188 88.2946Z" fill="#2FC79F" stroke="#444E5E" stroke-width="1.66831" stroke-linecap="round" stroke-linejoin="round"/>
<path d="M59.8458 90.865L69.8102 88.1326L71.5848 94.2624L59.406 97.602L59.8458 90.865Z" fill="#2FC79F" stroke="#444E5E" stroke-width="1.66831" stroke-linecap="round" stroke-linejoin="round"/>
<path d="M33.4297 67.998C32.6759 79.5472 51.0588 81.1096 51.8362 69.1995L33.4297 67.998Z" fill="#808C9E" stroke="#444E5E" stroke-width="1.66831" stroke-linecap="round" stroke-linejoin="round"/>
<ellipse cx="108.262" cy="52.9278" rx="4.84163" ry="4.86238" fill="#808C9E" stroke="#444E5E" stroke-width="1.66831" stroke-linecap="round" stroke-linejoin="round"/>
<ellipse cx="2.42082" cy="2.43119" rx="2.42082" ry="2.43119" transform="matrix(1 0 0 -1 105.841 55.3589)" fill="white" stroke="#444E5E" stroke-width="1.66831" stroke-linecap="round" stroke-linejoin="round"/>
<path d="M87.0797 34.0772C87.0797 29.3827 90.8853 25.5771 95.5797 25.5771H108.262H120.944C125.638 25.5771 129.444 29.3827 129.444 34.0772V35.9189C129.444 40.6133 125.639 44.4189 120.944 44.4189C119.846 44.4189 118.726 44.4189 117.643 44.4189C112.196 44.4189 112.498 37.4292 108.262 37.4292C104.025 37.4292 105.236 44.4189 97.9734 44.4189C97.1253 44.4189 96.3267 44.4189 95.5777 44.4189C90.8832 44.4189 87.0797 40.6133 87.0797 35.9189V34.0772Z" fill="#2DD1AC" stroke="#444E5E" stroke-width="1.66831" stroke-linecap="round" stroke-linejoin="round"/>
<path d="M90.1058 35.0129C90.1058 31.1526 93.2352 28.0083 97.0954 28.0083H108.262H119.428C123.289 28.0083 126.418 31.1377 126.418 34.998C126.418 38.8583 123.29 41.9877 119.43 41.9877C119.241 41.9877 119.048 41.9877 118.853 41.9877C114.184 41.9877 114.314 34.3902 108.262 34.3902C102.21 34.3902 103.291 41.9877 97.0656 41.9877C93.2218 41.9877 90.1058 38.8567 90.1058 35.0129Z" fill="white" stroke="#444E5E" stroke-width="1.66831" stroke-linecap="round" stroke-linejoin="round"/>
<path d="M94.9474 36.8211L99.1838 30.7432M96.763 38.0367L101.907 30.7432" stroke="#444E5E" stroke-width="1.37097" stroke-linecap="round" stroke-linejoin="round"/>
<path d="M93.1318 14.0185C93.1318 12.6815 94.2156 11.5977 95.5526 11.5977C96.8896 11.5977 97.9734 12.6815 97.9734 14.0185V25.577H93.1318V14.0185Z" fill="#A9B1BE" stroke="#444E5E" stroke-width="1.66831" stroke-linecap="round" stroke-linejoin="round"/>
<path d="M103.723 55.0552C103.723 55.0552 103.22 53.1561 103.723 51.4086C98.2694 50.9389 97.655 49.0137 97.9734 44.4189C96.2816 44.5014 95.3512 44.4525 93.737 44.1148C93.1318 50.8005 96.4604 55.663 103.723 55.0552Z" fill="#A9B1BE" stroke="#444E5E" stroke-width="1.66831" stroke-linecap="round" stroke-linejoin="round"/>
</svg>
