<?xml version="1.0" encoding="UTF-8"?>
<svg id="Layer_1" xmlns="http://www.w3.org/2000/svg" xmlns:xlink="http://www.w3.org/1999/xlink" version="1.1" viewBox="0 0 1080 1080">
  <!-- Generator: Adobe Illustrator 29.2.1, SVG Export Plug-In . SVG Version: 2.1.0 Build 116)  -->
  <defs>
    <style>
      .st0 {
        fill: none;
      }

      .st1 {
        fill: #444e5e;
      }

      .st2 {
        clip-path: url(#clippath-1);
      }

      .st3 {
        clip-path: url(#clippath-3);
      }

      .st4 {
        clip-path: url(#clippath-4);
      }

      .st5 {
        clip-path: url(#clippath-2);
      }

      .st6 {
        fill: #fff;
      }

      .st7 {
        fill: #363f4d;
      }

      .st8 {
        fill: #2dd1ac;
      }

      .st9 {
        clip-path: url(#clippath);
      }
    </style>
    <clipPath id="clippath">
      <rect class="st0" x="149.2" y="313.7" width="45.2" height="45.2"/>
    </clipPath>
    <clipPath id="clippath-1">
      <rect class="st0" x="216.9" y="313.7" width="45.2" height="45.2"/>
    </clipPath>
    <clipPath id="clippath-2">
      <rect class="st0" x="284.7" y="313.7" width="45.2" height="45.2"/>
    </clipPath>
    <clipPath id="clippath-3">
      <rect class="st0" x="352.4" y="313.7" width="45.2" height="45.2"/>
    </clipPath>
    <clipPath id="clippath-4">
      <rect class="st0" x="420.1" y="313.7" width="45.2" height="45.2"/>
    </clipPath>
  </defs>
  <g>
    <rect class="st1" x="82.8" y="207.8" width="903.2" height="677.4" rx="16.9" ry="16.9"/>
    <path class="st6" d="M157.7,544c-6.2,0-9.8-4.3-9.8-10.2v-.2c0-5.9,4-10.3,9.8-10.3s7.6,1.9,8.2,6.4h-2.5c-.6-3.2-2.8-4.5-5.7-4.5-4.6,0-7.3,3.4-7.3,8.3v.2c0,5,2.5,8.3,7.2,8.3s6.3-2.9,6.4-6.4h-5.9v-2h8.3v1.5c0,5.8-3.6,8.9-8.8,8.9ZM176.5,542c3,0,4.8-2.2,4.8-5.6v-.2c0-3.4-1.9-5.6-4.8-5.6s-4.8,2.2-4.8,5.6v.2c0,3.4,1.8,5.6,4.8,5.6ZM176.5,544c-4.2,0-7.2-3.2-7.2-7.5v-.2c0-4.4,3.1-7.5,7.3-7.5s7.3,3.1,7.3,7.5v.2c0,4.5-3.1,7.5-7.3,7.5ZM192,544c-3.5,0-5.6-1.8-5.8-4.8h2.3c.2,1.8,1.1,2.9,3.5,2.9s3.2-.8,3.2-2.3-1.2-2.1-3.4-2.5c-3.8-.7-5.1-1.8-5.1-4.3s2.7-4.1,5-4.1,4.9,1.1,5.3,4.3h-2.3c-.3-1.6-1.2-2.3-3.1-2.3s-2.8.8-2.8,2.1.7,1.9,3.4,2.3c3,.6,5.2,1.2,5.2,4.4s-1.8,4.5-5.4,4.5ZM205.4,543.9c-2.7,0-4-1.6-4-3.9v-9.1h-2.1v-2h2.1v-3.4h2.3v3.4h3.4v2h-3.4v8.9c0,1.4.6,2.1,1.8,2.1s1.3-.1,1.8-.3v2c-.5.2-1,.3-2,.3ZM214.8,544c-2.7,0-4.9-1.3-4.9-4.3s3.6-4.6,7.4-4.6h2.1v-1.1c0-2.3-.9-3.3-3.2-3.3s-3.2.8-3.4,2.7h-2.3c.3-3.4,3-4.6,5.8-4.6s5.4,1.2,5.4,5.3v9.7h-2.3v-1.9c-1.1,1.4-2.4,2.1-4.6,2.1ZM215,542.1c2.5,0,4.4-1.3,4.4-3.6v-1.8h-2c-3,0-5.1.7-5.1,2.9s.7,2.5,2.8,2.5ZM226.4,543.7v-14.8h2.3v2.7c.9-1.7,2.2-2.8,4.9-2.9v2.2c-3,.1-4.9,1.1-4.9,4.7v8.1h-2.3ZM237,543.7v-14.8h2.3v14.8h-2.3ZM238.2,525.9c-.8,0-1.6-.7-1.6-1.6s.7-1.6,1.6-1.6,1.6.7,1.6,1.6-.7,1.6-1.6,1.6ZM247.9,544c-2.7,0-4.9-1.3-4.9-4.3s3.6-4.6,7.4-4.6h2.1v-1.1c0-2.3-.9-3.3-3.2-3.3s-3.2.8-3.4,2.7h-2.3c.3-3.4,3-4.6,5.8-4.6s5.4,1.2,5.4,5.3v9.7h-2.3v-1.9c-1.1,1.4-2.4,2.1-4.6,2.1ZM248.1,542.1c2.5,0,4.4-1.3,4.4-3.6v-1.8h-2c-3,0-5.1.7-5.1,2.9s.7,2.5,2.8,2.5ZM272.4,544c-3.9,0-6.7-2.7-6.7-7.3v-.2c0-4.5,2.8-7.7,6.9-7.7s4,1.2,4.8,2.6v-9.4h2.3v21.8h-2.3v-2.5c-.8,1.4-2.9,2.8-5.1,2.8ZM272.7,542c2.7,0,4.9-1.8,4.9-5.6v-.2c0-3.8-1.8-5.6-4.7-5.6s-4.7,2.1-4.7,5.6v.2c0,3.7,2,5.5,4.5,5.5ZM290.6,544c-4.2,0-7.1-2.9-7.1-7.5v-.2c0-4.5,2.9-7.6,6.9-7.6s6.6,2.1,6.6,7.3v.8h-11.1c.1,3.4,1.7,5.2,4.7,5.2s3.6-.8,3.9-2.6h2.3c-.5,3-3,4.5-6.3,4.5ZM286,534.9h8.6c-.2-3-1.8-4.3-4.2-4.3s-4,1.6-4.4,4.3ZM308.1,548.9v-19.9h2.3v2.5c.8-1.4,2.9-2.7,5-2.7,3.9,0,6.7,2.8,6.7,7.4v.2c0,4.5-2.7,7.6-6.7,7.6s-4.1-1.2-5-2.7v7.6h-2.3ZM315.2,542c2.9,0,4.5-2,4.5-5.6v-.2c0-3.7-2.1-5.6-4.5-5.6s-4.8,1.8-4.8,5.6v.2c0,3.8,2,5.6,4.9,5.6ZM329.5,544c-2.7,0-4.9-1.3-4.9-4.3s3.6-4.6,7.4-4.6h2.1v-1.1c0-2.3-.9-3.3-3.2-3.3s-3.2.8-3.4,2.7h-2.3c.3-3.4,3-4.6,5.8-4.6s5.4,1.2,5.4,5.3v9.7h-2.3v-1.9c-1.1,1.4-2.4,2.1-4.6,2.1ZM329.7,542.1c2.5,0,4.4-1.3,4.4-3.6v-1.8h-2c-3,0-5.1.7-5.1,2.9s.7,2.5,2.8,2.5ZM341,543.7v-14.8h2.3v2.7c.9-1.7,2.2-2.8,4.9-2.9v2.2c-3,.1-4.9,1.1-4.9,4.7v8.1h-2.3ZM355.2,544c-2.7,0-4.9-1.3-4.9-4.3s3.6-4.6,7.4-4.6h2.1v-1.1c0-2.3-.9-3.3-3.2-3.3s-3.2.8-3.4,2.7h-2.3c.3-3.4,3-4.6,5.8-4.6s5.4,1.2,5.4,5.3v9.7h-2.3v-1.9c-1.1,1.4-2.4,2.1-4.6,2.1ZM355.4,542.1c2.5,0,4.4-1.3,4.4-3.6v-1.8h-2c-3,0-5.1.7-5.1,2.9s.7,2.5,2.8,2.5ZM374.1,544c-2.4,0-4.1-1.2-5-2.7v2.4h-2.3v-21.8h2.3v9.5c.8-1.4,2.9-2.7,5-2.7,3.9,0,6.7,2.8,6.7,7.4v.2c0,4.5-2.7,7.6-6.7,7.6ZM373.9,542c2.9,0,4.5-2,4.5-5.6v-.2c0-3.7-2.1-5.6-4.5-5.6s-4.8,1.8-4.8,5.6v.2c0,3.8,2,5.6,4.9,5.6ZM390.5,544c-4.2,0-7.1-2.9-7.1-7.5v-.2c0-4.5,2.9-7.6,6.9-7.6s6.6,2.1,6.6,7.3v.8h-11.1c.1,3.4,1.7,5.2,4.7,5.2s3.6-.8,3.9-2.6h2.3c-.5,3-3,4.5-6.3,4.5ZM385.9,534.9h8.6c-.2-3-1.8-4.3-4.2-4.3s-4,1.6-4.4,4.3ZM400.5,543.7v-14.8h2.3v2.3c.7-1.4,2.3-2.6,4.7-2.6s5.2,1.7,5.2,6v9.1h-2.3v-9.2c0-2.6-1.1-3.8-3.5-3.8s-4.1,1.4-4.1,4v8.9h-2.3ZM417.4,543.7v-14.8h2.3v14.8h-2.3ZM418.5,525.9c-.8,0-1.6-.7-1.6-1.6s.7-1.6,1.6-1.6,1.6.7,1.6,1.6-.7,1.6-1.6,1.6ZM422.8,543.7v-.3l8.7-12.4h-7.9v-2h11.5v.4l-8.5,12.3h8.4v2.1h-12.2ZM442,544c-2.7,0-4.9-1.3-4.9-4.3s3.6-4.6,7.4-4.6h2.1v-1.1c0-2.3-.9-3.3-3.2-3.3s-3.2.8-3.4,2.7h-2.3c.3-3.4,3-4.6,5.8-4.6s5.4,1.2,5.4,5.3v9.7h-2.3v-1.9c-1.1,1.4-2.4,2.1-4.6,2.1ZM442.3,542.1c2.5,0,4.4-1.3,4.4-3.6v-1.8h-2c-3,0-5.1.7-5.1,2.9s.7,2.5,2.8,2.5ZM453.6,543.7v-14.8h2.3v2.7c.9-1.7,2.2-2.8,4.9-2.9v2.2c-3,.1-4.9,1.1-4.9,4.7v8.1h-2.3ZM475.4,544c-2.7,0-4.9-1.3-4.9-4.3s3.6-4.6,7.4-4.6h2.1v-1.1c0-2.3-.9-3.3-3.2-3.3s-3.2.8-3.4,2.7h-2.3c.3-3.4,3-4.6,5.8-4.6s5.4,1.2,5.4,5.3v9.7h-2.3v-1.9c-1.1,1.4-2.4,2.1-4.6,2.1ZM475.6,542.1c2.5,0,4.4-1.3,4.4-3.6v-1.8h-2c-3,0-5.1.7-5.1,2.9s.7,2.5,2.8,2.5ZM500.4,544c-4.2,0-7.1-2.9-7.1-7.5v-.2c0-4.5,2.9-7.6,6.9-7.6s6.6,2.1,6.6,7.3v.8h-11.1c.1,3.4,1.7,5.2,4.7,5.2s3.6-.8,3.9-2.6h2.3c-.5,3-3,4.5-6.3,4.5ZM495.8,534.9h8.6c-.2-3-1.8-4.3-4.2-4.3s-4,1.6-4.4,4.3ZM521,548.9v-7.7c-.8,1.4-2.9,2.8-5.1,2.8-3.9,0-6.7-2.7-6.7-7.3v-.2c0-4.5,2.8-7.7,6.9-7.7s4,1.2,4.8,2.6v-2.4h2.3v19.9h-2.3ZM516.2,542c2.7,0,4.9-1.8,4.9-5.6v-.2c0-3.8-1.8-5.6-4.7-5.6s-4.7,2.1-4.7,5.6v.2c0,3.7,2,5.5,4.5,5.5ZM533.1,544c-2.9,0-5.1-1.6-5.1-5.7v-9.3h2.3v9.2c0,2.6,1.1,3.8,3.4,3.8s4.1-1.4,4.1-4v-8.9h2.3v14.8h-2.3v-2.3c-.7,1.4-2.3,2.6-4.7,2.6ZM544.9,543.7v-14.8h2.3v14.8h-2.3ZM546.1,525.9c-.8,0-1.6-.7-1.6-1.6s.7-1.6,1.6-1.6,1.6.7,1.6,1.6-.7,1.6-1.6,1.6ZM552.1,548.9v-19.9h2.3v2.5c.8-1.4,2.9-2.7,5-2.7,3.9,0,6.7,2.8,6.7,7.4v.2c0,4.5-2.7,7.6-6.7,7.6s-4.1-1.2-5-2.7v7.6h-2.3ZM559.2,542c2.9,0,4.5-2,4.5-5.6v-.2c0-3.7-2.1-5.6-4.5-5.6s-4.8,1.8-4.8,5.6v.2c0,3.8,2,5.6,4.9,5.6ZM575.8,544c-4.2,0-7.1-2.9-7.1-7.5v-.2c0-4.5,2.9-7.6,6.9-7.6s6.6,2.1,6.6,7.3v.8h-11.1c.1,3.4,1.7,5.2,4.7,5.2s3.6-.8,3.9-2.6h2.3c-.5,3-3,4.5-6.3,4.5ZM571.2,534.9h8.6c-.2-3-1.8-4.3-4.2-4.3s-4,1.6-4.4,4.3ZM598.8,544c-3.9,0-6.7-2.7-6.7-7.3v-.2c0-4.5,2.8-7.7,6.9-7.7s4,1.2,4.8,2.6v-9.4h2.3v21.8h-2.3v-2.5c-.8,1.4-2.9,2.8-5.1,2.8ZM599.1,542c2.7,0,4.9-1.8,4.9-5.6v-.2c0-3.8-1.8-5.6-4.7-5.6s-4.7,2.1-4.7,5.6v.2c0,3.7,2,5.5,4.5,5.5ZM617,544c-4.2,0-7.1-2.9-7.1-7.5v-.2c0-4.5,2.9-7.6,6.9-7.6s6.6,2.1,6.6,7.3v.8h-11.1c.1,3.4,1.7,5.2,4.7,5.2s3.6-.8,3.9-2.6h2.3c-.5,3-3,4.5-6.3,4.5ZM612.4,534.9h8.6c-.2-3-1.8-4.3-4.2-4.3s-4,1.6-4.4,4.3ZM639.1,544c-3.5,0-5.6-1.8-5.8-4.8h2.3c.2,1.8,1.1,2.9,3.5,2.9s3.2-.8,3.2-2.3-1.2-2.1-3.4-2.5c-3.8-.7-5.1-1.8-5.1-4.3s2.7-4.1,5-4.1,4.9,1.1,5.3,4.3h-2.3c-.3-1.6-1.2-2.3-3.1-2.3s-2.8.8-2.8,2.1.7,1.9,3.4,2.3c3,.6,5.2,1.2,5.2,4.4s-1.8,4.5-5.4,4.5ZM653,544c-2.9,0-5.1-1.6-5.1-5.7v-9.3h2.3v9.2c0,2.6,1.1,3.8,3.4,3.8s4.1-1.4,4.1-4v-8.9h2.3v14.8h-2.3v-2.3c-.7,1.4-2.3,2.6-4.7,2.6ZM664.8,548.9v-19.9h2.3v2.5c.8-1.4,2.9-2.7,5-2.7,3.9,0,6.7,2.8,6.7,7.4v.2c0,4.5-2.7,7.6-6.7,7.6s-4.1-1.2-5-2.7v7.6h-2.3ZM671.9,542c2.9,0,4.5-2,4.5-5.6v-.2c0-3.7-2.1-5.6-4.5-5.6s-4.8,1.8-4.8,5.6v.2c0,3.8,2,5.6,4.9,5.6ZM688.7,542c3,0,4.8-2.2,4.8-5.6v-.2c0-3.4-1.9-5.6-4.8-5.6s-4.8,2.2-4.8,5.6v.2c0,3.4,1.8,5.6,4.8,5.6ZM688.6,544c-4.2,0-7.2-3.2-7.2-7.5v-.2c0-4.4,3.1-7.5,7.3-7.5s7.3,3.1,7.3,7.5v.2c0,4.5-3.1,7.5-7.3,7.5ZM699.5,543.7v-14.8h2.3v2.7c.9-1.7,2.2-2.8,4.9-2.9v2.2c-3,.1-4.9,1.1-4.9,4.7v8.1h-2.3ZM714.8,543.9c-2.7,0-4-1.6-4-3.9v-9.1h-2.1v-2h2.1v-3.4h2.3v3.4h3.4v2h-3.4v8.9c0,1.4.6,2.1,1.8,2.1s1.3-.1,1.8-.3v2c-.5.2-1,.3-2,.3ZM726.4,544c-4.2,0-7.1-2.9-7.1-7.5v-.2c0-4.5,2.9-7.6,6.9-7.6s6.6,2.1,6.6,7.3v.8h-11.1c.1,3.4,1.7,5.2,4.7,5.2s3.6-.8,3.9-2.6h2.3c-.5,3-3,4.5-6.3,4.5ZM721.7,534.9h8.6c-.2-3-1.8-4.3-4.2-4.3s-4,1.6-4.4,4.3ZM749.4,544c-3.9,0-6.7-2.7-6.7-7.3v-.2c0-4.5,2.8-7.7,6.9-7.7s4,1.2,4.8,2.6v-9.4h2.3v21.8h-2.3v-2.5c-.8,1.4-2.9,2.8-5.1,2.8ZM749.6,542c2.7,0,4.9-1.8,4.9-5.6v-.2c0-3.8-1.8-5.6-4.7-5.6s-4.7,2.1-4.7,5.6v.2c0,3.7,2,5.5,4.5,5.5ZM767.7,542c3,0,4.8-2.2,4.8-5.6v-.2c0-3.4-1.9-5.6-4.8-5.6s-4.8,2.2-4.8,5.6v.2c0,3.4,1.8,5.6,4.8,5.6ZM767.7,544c-4.2,0-7.2-3.2-7.2-7.5v-.2c0-4.4,3.1-7.5,7.3-7.5s7.3,3.1,7.3,7.5v.2c0,4.5-3.1,7.5-7.3,7.5ZM789.7,544c-2.7,0-4.9-1.3-4.9-4.3s3.6-4.6,7.4-4.6h2.1v-1.1c0-2.3-.9-3.3-3.2-3.3s-3.2.8-3.4,2.7h-2.3c.3-3.4,3-4.6,5.8-4.6s5.4,1.2,5.4,5.3v9.7h-2.3v-1.9c-1.1,1.4-2.4,2.1-4.6,2.1ZM790,542.1c2.5,0,4.4-1.3,4.4-3.6v-1.8h-2c-3,0-5.1.7-5.1,2.9s.7,2.5,2.8,2.5ZM801.3,548.9v-19.9h2.3v2.5c.8-1.4,2.9-2.7,5-2.7,3.9,0,6.7,2.8,6.7,7.4v.2c0,4.5-2.7,7.6-6.7,7.6s-4.1-1.2-5-2.7v7.6h-2.3ZM808.4,542c2.9,0,4.5-2,4.5-5.6v-.2c0-3.7-2.1-5.6-4.5-5.6s-4.8,1.8-4.8,5.6v.2c0,3.8,2,5.6,4.9,5.6ZM819,548.9v-19.9h2.3v2.5c.8-1.4,2.9-2.7,5-2.7,3.9,0,6.7,2.8,6.7,7.4v.2c0,4.5-2.7,7.6-6.7,7.6s-4.1-1.2-5-2.7v7.6h-2.3ZM826.1,542c2.9,0,4.5-2,4.5-5.6v-.2c0-3.7-2.1-5.6-4.5-5.6s-4.8,1.8-4.8,5.6v.2c0,3.8,2,5.6,4.9,5.6ZM836.3,547.2l-1.5-.8,2.7-6.2,2.3,1.1-3.5,5.9ZM148.7,586.1v-14.8h2.3v2.7c.9-1.7,2.2-2.8,4.9-2.9v2.2c-3,.1-4.9,1.1-4.9,4.7v8.1h-2.3ZM165,586.3c-4.2,0-7.1-2.9-7.1-7.5v-.2c0-4.5,2.9-7.6,6.9-7.6s6.6,2.1,6.6,7.3v.8h-11.1c.1,3.4,1.7,5.2,4.7,5.2s3.6-.8,3.9-2.6h2.3c-.5,3-3,4.5-6.3,4.5ZM160.3,577.3h8.6c-.2-3-1.8-4.3-4.2-4.3s-4,1.6-4.4,4.3ZM179.7,586.3c-3.5,0-5.6-1.8-5.8-4.8h2.3c.2,1.8,1.1,2.9,3.5,2.9s3.2-.8,3.2-2.3-1.2-2.1-3.4-2.5c-3.8-.7-5.1-1.8-5.1-4.3s2.7-4.1,5-4.1,4.9,1.1,5.3,4.3h-2.3c-.3-1.6-1.2-2.3-3.1-2.3s-2.8.8-2.8,2.1.7,1.9,3.4,2.3c3,.6,5.2,1.2,5.2,4.4s-1.8,4.5-5.4,4.5ZM194.8,584.4c3,0,4.8-2.2,4.8-5.6v-.2c0-3.4-1.9-5.6-4.8-5.6s-4.8,2.2-4.8,5.6v.2c0,3.4,1.8,5.6,4.8,5.6ZM194.8,586.3c-4.2,0-7.2-3.2-7.2-7.5v-.2c0-4.4,3.1-7.5,7.3-7.5s7.3,3.1,7.3,7.5v.2c0,4.5-3.1,7.5-7.3,7.5ZM205.7,586.1v-21.8h2.4v21.8h-2.4ZM216.6,586.1l-5.4-14.8h2.5l4.4,12.4,4.3-12.4h2.4l-5.3,14.8h-3ZM233.6,586.3c-4.2,0-7.1-2.9-7.1-7.5v-.2c0-4.5,2.9-7.6,6.9-7.6s6.6,2.1,6.6,7.3v.8h-11.1c.1,3.4,1.7,5.2,4.7,5.2s3.6-.8,3.9-2.6h2.3c-.5,3-3,4.5-6.3,4.5ZM229,577.3h8.6c-.2-3-1.8-4.3-4.2-4.3s-4,1.6-4.4,4.3ZM243.6,586.1v-14.8h2.3v2.7c.9-1.7,2.2-2.8,4.9-2.9v2.2c-3,.1-4.9,1.1-4.9,4.7v8.1h-2.3ZM257.8,586.3c-2.7,0-4.9-1.3-4.9-4.3s3.6-4.6,7.4-4.6h2.1v-1.1c0-2.3-.9-3.3-3.2-3.3s-3.2.8-3.4,2.7h-2.3c.3-3.4,3-4.6,5.8-4.6s5.4,1.2,5.4,5.3v9.7h-2.3v-1.9c-1.1,1.4-2.4,2.1-4.6,2.1ZM258,584.5c2.5,0,4.4-1.3,4.4-3.6v-1.8h-2c-3,0-5.1.7-5.1,2.9s.7,2.5,2.8,2.5ZM269.3,586.1v-14.8h2.3v2.3c.7-1.4,2.3-2.5,4.4-2.5s3.6.8,4.3,2.8c1-1.9,3.2-2.8,5.1-2.8,2.7,0,5,1.6,5,5.9v9.1h-2.3v-9.3c0-2.6-1.1-3.7-3.1-3.7s-3.9,1.3-3.9,4v9h-2.3v-9.3c0-2.6-1.1-3.7-3.1-3.7s-3.9,1.3-3.9,4v9h-2.3ZM302.5,586.1v-14.8h2.3v2.3c.7-1.4,2.3-2.5,4.4-2.5s3.6.8,4.3,2.8c1-1.9,3.2-2.8,5.1-2.8,2.7,0,5,1.6,5,5.9v9.1h-2.3v-9.3c0-2.6-1.1-3.7-3.1-3.7s-3.9,1.3-3.9,4v9h-2.3v-9.3c0-2.6-1.1-3.7-3.1-3.7s-3.9,1.3-3.9,4v9h-2.3ZM334.2,586.3c-4.2,0-7.1-2.9-7.1-7.5v-.2c0-4.5,2.9-7.6,6.9-7.6s6.6,2.1,6.6,7.3v.8h-11.1c.1,3.4,1.7,5.2,4.7,5.2s3.6-.8,3.9-2.6h2.3c-.5,3-3,4.5-6.3,4.5ZM329.6,577.3h8.6c-.2-3-1.8-4.3-4.2-4.3s-4,1.6-4.4,4.3ZM349.2,586.3c-2.9,0-5.1-1.6-5.1-5.7v-9.3h2.3v9.2c0,2.6,1.1,3.8,3.4,3.8s4.1-1.4,4.1-4v-8.9h2.3v14.8h-2.3v-2.3c-.7,1.4-2.3,2.6-4.7,2.6ZM368.5,591.2v-19.9h2.3v2.5c.8-1.4,2.9-2.7,5-2.7,3.9,0,6.7,2.8,6.7,7.4v.2c0,4.5-2.7,7.6-6.7,7.6s-4.1-1.2-5-2.7v7.6h-2.3ZM375.6,584.4c2.9,0,4.5-2,4.5-5.6v-.2c0-3.7-2.1-5.6-4.5-5.6s-4.8,1.8-4.8,5.6v.2c0,3.8,2,5.6,4.9,5.6ZM386.2,586.1v-14.8h2.3v2.7c.9-1.7,2.2-2.8,4.9-2.9v2.2c-3,.1-4.9,1.1-4.9,4.7v8.1h-2.3ZM402.5,584.4c3,0,4.8-2.2,4.8-5.6v-.2c0-3.4-1.9-5.6-4.8-5.6s-4.8,2.2-4.8,5.6v.2c0,3.4,1.8,5.6,4.8,5.6ZM402.5,586.3c-4.2,0-7.2-3.2-7.2-7.5v-.2c0-4.4,3.1-7.5,7.3-7.5s7.3,3.1,7.3,7.5v.2c0,4.5-3.1,7.5-7.3,7.5ZM420.7,586.3c-2.4,0-4.1-1.2-5-2.7v2.4h-2.3v-21.8h2.3v9.5c.8-1.4,2.9-2.7,5-2.7,3.9,0,6.7,2.8,6.7,7.4v.2c0,4.5-2.7,7.6-6.7,7.6ZM420.5,584.4c2.9,0,4.5-2,4.5-5.6v-.2c0-3.7-2.1-5.6-4.5-5.6s-4.8,1.8-4.8,5.6v.2c0,3.8,2,5.6,4.9,5.6ZM431.1,586.1v-21.8h2.4v21.8h-2.4ZM444.3,586.3c-4.2,0-7.1-2.9-7.1-7.5v-.2c0-4.5,2.9-7.6,6.9-7.6s6.6,2.1,6.6,7.3v.8h-11.1c.1,3.4,1.7,5.2,4.7,5.2s3.6-.8,3.9-2.6h2.3c-.5,3-3,4.5-6.3,4.5ZM439.7,577.3h8.6c-.2-3-1.8-4.3-4.2-4.3s-4,1.6-4.4,4.3ZM454.4,586.1v-14.8h2.3v2.3c.7-1.4,2.3-2.5,4.4-2.5s3.6.8,4.3,2.8c1-1.9,3.2-2.8,5.1-2.8,2.7,0,5,1.6,5,5.9v9.1h-2.3v-9.3c0-2.6-1.1-3.7-3.1-3.7s-3.9,1.3-3.9,4v9h-2.3v-9.3c0-2.6-1.1-3.7-3.1-3.7s-3.9,1.3-3.9,4v9h-2.3ZM483.7,586.3c-2.7,0-4.9-1.3-4.9-4.3s3.6-4.6,7.4-4.6h2.1v-1.1c0-2.3-.9-3.3-3.2-3.3s-3.2.8-3.4,2.7h-2.3c.3-3.4,3-4.6,5.8-4.6s5.4,1.2,5.4,5.3v9.7h-2.3v-1.9c-1.1,1.4-2.4,2.1-4.6,2.1ZM484,584.5c2.5,0,4.4-1.3,4.4-3.6v-1.8h-2c-3,0-5.1.7-5.1,2.9s.7,2.5,2.8,2.5ZM508.9,586.3c-4.1,0-7.2-2.9-7.2-7.5v-.2c0-4.5,3.2-7.6,7.2-7.6s6,1.4,6.4,5.2h-2.3c-.4-2.3-2.1-3.2-4.1-3.2s-4.7,2.1-4.7,5.6v.2c0,3.6,2,5.5,4.8,5.5s4-1.2,4.2-3.6h2.2c-.3,3.2-2.9,5.6-6.4,5.6ZM525,584.4c3,0,4.8-2.2,4.8-5.6v-.2c0-3.4-1.9-5.6-4.8-5.6s-4.8,2.2-4.8,5.6v.2c0,3.4,1.8,5.6,4.8,5.6ZM525,586.3c-4.2,0-7.2-3.2-7.2-7.5v-.2c0-4.4,3.1-7.5,7.3-7.5s7.3,3.1,7.3,7.5v.2c0,4.5-3.1,7.5-7.3,7.5ZM535.9,586.1v-14.8h2.3v2.3c.7-1.4,2.3-2.5,4.4-2.5s3.6.8,4.3,2.8c1-1.9,3.2-2.8,5.1-2.8,2.7,0,5,1.6,5,5.9v9.1h-2.3v-9.3c0-2.6-1.1-3.7-3.1-3.7s-3.9,1.3-3.9,4v9h-2.3v-9.3c0-2.6-1.1-3.7-3.1-3.7s-3.9,1.3-3.9,4v9h-2.3ZM569,586.1v-14.8h2.3v2.7c.9-1.7,2.2-2.8,4.9-2.9v2.2c-3,.1-4.9,1.1-4.9,4.7v8.1h-2.3ZM583.2,586.3c-2.7,0-4.9-1.3-4.9-4.3s3.6-4.6,7.4-4.6h2.1v-1.1c0-2.3-.9-3.3-3.2-3.3s-3.2.8-3.4,2.7h-2.3c.3-3.4,3-4.6,5.8-4.6s5.4,1.2,5.4,5.3v9.7h-2.3v-1.9c-1.1,1.4-2.4,2.1-4.6,2.1ZM583.4,584.5c2.5,0,4.4-1.3,4.4-3.6v-1.8h-2c-3,0-5.1.7-5.1,2.9s.7,2.5,2.8,2.5ZM594.8,591.2v-19.9h2.3v2.5c.8-1.4,2.9-2.7,5-2.7,3.9,0,6.7,2.8,6.7,7.4v.2c0,4.5-2.7,7.6-6.7,7.6s-4.1-1.2-5-2.7v7.6h-2.3ZM601.9,584.4c2.9,0,4.5-2,4.5-5.6v-.2c0-3.7-2.1-5.6-4.5-5.6s-4.8,1.8-4.8,5.6v.2c0,3.8,2,5.6,4.9,5.6ZM612.5,586.1v-14.8h2.3v14.8h-2.3ZM613.6,568.2c-.8,0-1.6-.7-1.6-1.6s.7-1.6,1.6-1.6,1.6.7,1.6,1.6-.7,1.6-1.6,1.6ZM625.2,586.3c-3.9,0-6.7-2.7-6.7-7.3v-.2c0-4.5,2.8-7.7,6.9-7.7s4,1.2,4.8,2.6v-9.4h2.3v21.8h-2.3v-2.5c-.8,1.4-2.9,2.8-5.1,2.8ZM625.5,584.4c2.7,0,4.9-1.8,4.9-5.6v-.2c0-3.8-1.8-5.6-4.7-5.6s-4.7,2.1-4.7,5.6v.2c0,3.7,2,5.5,4.5,5.5ZM643.4,586.3c-4.2,0-7.1-2.9-7.1-7.5v-.2c0-4.5,2.9-7.6,6.9-7.6s6.6,2.1,6.6,7.3v.8h-11.1c.1,3.4,1.7,5.2,4.7,5.2s3.6-.8,3.9-2.6h2.3c-.5,3-3,4.5-6.3,4.5ZM638.8,577.3h8.6c-.2-3-1.8-4.3-4.2-4.3s-4,1.6-4.4,4.3ZM651.5,586.1v-.3l8.7-12.4h-7.9v-2h11.5v.4l-8.5,12.3h8.4v2.1h-12.2ZM680.4,586.3c-4.2,0-7.1-2.9-7.1-7.5v-.2c0-4.5,2.9-7.6,6.9-7.6s6.6,2.1,6.6,7.3v.8h-11.1c.1,3.4,1.7,5.2,4.7,5.2s3.6-.8,3.9-2.6h2.3c-.5,3-3,4.5-6.3,4.5ZM675.8,577.3h8.6c-.2-3-1.8-4.3-4.2-4.3s-4,1.6-4.4,4.3ZM703.9,586.3c-4.2,0-7.1-2.9-7.1-7.5v-.2c0-4.5,2.9-7.6,6.9-7.6s6.6,2.1,6.6,7.3v.8h-11.1c.1,3.4,1.7,5.2,4.7,5.2s3.6-.8,3.9-2.6h2.3c-.5,3-3,4.5-6.3,4.5ZM699.3,577.3h8.6c-.2-3-1.8-4.3-4.2-4.3s-4,1.6-4.4,4.3ZM711.9,586.1l5.3-7.6-4.9-7.2h2.7l3.6,5.4,3.6-5.4h2.5l-4.9,7,5.4,7.8h-2.8l-4-6-4.1,6h-2.5ZM732.9,586.3c-2.7,0-4-1.6-4-3.9v-9.1h-2.1v-2h2.1v-3.4h2.3v3.4h3.4v2h-3.4v8.9c0,1.4.6,2.1,1.8,2.1s1.3-.1,1.8-.3v2c-.5.2-1,.3-2,.3ZM738.5,586.1v-14.8h2.3v2.7c.9-1.7,2.2-2.8,4.9-2.9v2.2c-3,.1-4.9,1.1-4.9,4.7v8.1h-2.3ZM754.7,586.3c-4.2,0-7.1-2.9-7.1-7.5v-.2c0-4.5,2.9-7.6,6.9-7.6s6.6,2.1,6.6,7.3v.8h-11.1c.1,3.4,1.7,5.2,4.7,5.2s3.6-.8,3.9-2.6h2.3c-.5,3-3,4.5-6.3,4.5ZM750.1,577.3h8.6c-.2-3-1.8-4.3-4.2-4.3s-4,1.6-4.4,4.3ZM764.7,586.1v-14.8h2.3v2.3c.7-1.4,2.3-2.5,4.4-2.5s3.6.8,4.3,2.8c1-1.9,3.2-2.8,5.1-2.8,2.7,0,5,1.6,5,5.9v9.1h-2.3v-9.3c0-2.6-1.1-3.7-3.1-3.7s-3.9,1.3-3.9,4v9h-2.3v-9.3c0-2.6-1.1-3.7-3.1-3.7s-3.9,1.3-3.9,4v9h-2.3ZM794.1,586.3c-2.7,0-4.9-1.3-4.9-4.3s3.6-4.6,7.4-4.6h2.1v-1.1c0-2.3-.9-3.3-3.2-3.3s-3.2.8-3.4,2.7h-2.3c.3-3.4,3-4.6,5.8-4.6s5.4,1.2,5.4,5.3v9.7h-2.3v-1.9c-1.1,1.4-2.4,2.1-4.6,2.1ZM794.3,584.5c2.5,0,4.4-1.3,4.4-3.6v-1.8h-2c-3,0-5.1.7-5.1,2.9s.7,2.5,2.8,2.5ZM152.4,628.7c-2.7,0-4.9-1.3-4.9-4.3s3.6-4.6,7.4-4.6h2.1v-1.1c0-2.3-.9-3.3-3.2-3.3s-3.2.8-3.4,2.7h-2.3c.3-3.4,3-4.6,5.8-4.6s5.4,1.2,5.4,5.3v9.7h-2.3v-1.9c-1.1,1.4-2.4,2.1-4.6,2.1ZM152.6,626.8c2.5,0,4.4-1.3,4.4-3.6v-1.8h-2c-3,0-5.1.7-5.1,2.9s.7,2.5,2.8,2.5ZM168.4,628.6c-2.7,0-4-1.6-4-3.9v-9.1h-2.1v-2h2.1v-3.4h2.3v3.4h3.4v2h-3.4v8.9c0,1.4.6,2.1,1.8,2.1s1.3-.1,1.8-.3v2c-.5.2-1,.3-2,.3ZM180,628.7c-4.2,0-7.1-2.9-7.1-7.5v-.2c0-4.5,2.9-7.6,6.9-7.6s6.6,2.1,6.6,7.3v.8h-11.1c.1,3.4,1.7,5.2,4.7,5.2s3.6-.8,3.9-2.6h2.3c-.5,3-3,4.5-6.3,4.5ZM175.4,619.6h8.6c-.2-3-1.8-4.3-4.2-4.3s-4,1.6-4.4,4.3ZM190,628.4v-14.8h2.3v2.3c.7-1.4,2.3-2.6,4.7-2.6s5.2,1.7,5.2,6v9.1h-2.3v-9.2c0-2.6-1.1-3.8-3.5-3.8s-4.1,1.4-4.1,4v8.9h-2.3ZM212.6,634.5c-1.6,0-2.7-1-2.8-2.4h1.5c.1.5.5,1,1.2,1s1.1-.4,1.1-1-.4-1-1-1-.6.1-.8.2l-.9-.8,1.1-1.9c-3.6-.4-6.2-3.2-6.2-7.4v-.2c0-4.5,3.2-7.6,7.2-7.6s6,1.4,6.4,5.2h-2.3c-.4-2.3-2.1-3.2-4.1-3.2s-4.7,2.1-4.7,5.6v.2c0,3.6,2,5.5,4.8,5.5s4-1.2,4.2-3.6h2.2c-.3,3-2.7,5.3-6,5.5l-.7,1.3c1.3-.2,2.7.6,2.7,2.3s-1.3,2.3-2.9,2.3ZM226.7,628.7c-2.7,0-4.9-1.3-4.9-4.3s3.6-4.6,7.4-4.6h2.1v-1.1c0-2.3-.9-3.3-3.2-3.3s-3.2.8-3.4,2.7h-2.3c.3-3.4,3-4.6,5.8-4.6s5.4,1.2,5.4,5.3v9.7h-2.3v-1.9c-1.1,1.4-2.4,2.1-4.6,2.1ZM226.9,626.8c2.5,0,4.4-1.3,4.4-3.6v-1.8h-2c-3,0-5.1.7-5.1,2.9s.7,2.5,2.8,2.5ZM229.8,610.9c-1.2,0-2.2-1.2-3-1.2s-1,.5-1.1,1.3h-1.7c.2-2,1.4-3.3,2.9-3.3s2.2,1.2,3,1.2,1-.5,1.1-1.3h1.7c-.2,2-1.4,3.3-2.8,3.3ZM244.4,626.7c3,0,4.8-2.2,4.8-5.6v-.2c0-3.4-1.9-5.6-4.8-5.6s-4.8,2.2-4.8,5.6v.2c0,3.4,1.8,5.6,4.8,5.6ZM244.4,628.7c-4.2,0-7.2-3.2-7.2-7.5v-.2c0-4.4,3.1-7.5,7.3-7.5s7.3,3.1,7.3,7.5v.2c0,4.5-3.1,7.5-7.3,7.5ZM254.7,631.9l-1.5-.8,2.7-6.2,2.3,1.1-3.5,5.9ZM270,628.4v-14.8h2.3v2.7c.9-1.7,2.2-2.8,4.9-2.9v2.2c-3,.1-4.9,1.1-4.9,4.7v8.1h-2.3ZM286.2,628.7c-4.2,0-7.1-2.9-7.1-7.5v-.2c0-4.5,2.9-7.6,6.9-7.6s6.6,2.1,6.6,7.3v.8h-11.1c.1,3.4,1.7,5.2,4.7,5.2s3.6-.8,3.9-2.6h2.3c-.5,3-3,4.5-6.3,4.5ZM281.6,619.6h8.6c-.2-3-1.8-4.3-4.2-4.3s-4,1.6-4.4,4.3ZM302.4,628.7c-4.1,0-7.2-2.9-7.2-7.5v-.2c0-4.5,3.2-7.6,7.2-7.6s6,1.4,6.4,5.2h-2.3c-.4-2.3-2.1-3.2-4.1-3.2s-4.7,2.1-4.7,5.6v.2c0,3.6,2,5.5,4.8,5.5s4-1.2,4.2-3.6h2.2c-.3,3.2-2.9,5.6-6.4,5.6ZM318.5,626.7c3,0,4.8-2.2,4.8-5.6v-.2c0-3.4-1.9-5.6-4.8-5.6s-4.8,2.2-4.8,5.6v.2c0,3.4,1.8,5.6,4.8,5.6ZM318.5,628.7c-4.2,0-7.2-3.2-7.2-7.5v-.2c0-4.4,3.1-7.5,7.3-7.5s7.3,3.1,7.3,7.5v.2c0,4.5-3.1,7.5-7.3,7.5ZM329.4,628.4v-14.8h2.3v2.3c.7-1.4,2.3-2.5,4.4-2.5s3.6.8,4.3,2.8c1-1.9,3.2-2.8,5.1-2.8,2.7,0,5,1.6,5,5.9v9.1h-2.3v-9.3c0-2.6-1.1-3.7-3.1-3.7s-3.9,1.3-3.9,4v9h-2.3v-9.3c0-2.6-1.1-3.7-3.1-3.7s-3.9,1.3-3.9,4v9h-2.3ZM361.1,628.7c-4.2,0-7.1-2.9-7.1-7.5v-.2c0-4.5,2.9-7.6,6.9-7.6s6.6,2.1,6.6,7.3v.8h-11.1c.1,3.4,1.7,5.2,4.7,5.2s3.6-.8,3.9-2.6h2.3c-.5,3-3,4.5-6.3,4.5ZM356.5,619.6h8.6c-.2-3-1.8-4.3-4.2-4.3s-4,1.6-4.4,4.3ZM371.1,628.4v-14.8h2.3v2.3c.7-1.4,2.3-2.6,4.7-2.6s5.2,1.7,5.2,6v9.1h-2.3v-9.2c0-2.6-1.1-3.8-3.5-3.8s-4.1,1.4-4.1,4v8.9h-2.3ZM393.5,628.7c-3.9,0-6.7-2.7-6.7-7.3v-.2c0-4.5,2.8-7.7,6.9-7.7s4,1.2,4.8,2.6v-9.4h2.3v21.8h-2.3v-2.5c-.8,1.4-2.9,2.8-5.1,2.8ZM393.8,626.7c2.7,0,4.9-1.8,4.9-5.6v-.2c0-3.8-1.8-5.6-4.7-5.6s-4.7,2.1-4.7,5.6v.2c0,3.7,2,5.5,4.5,5.5ZM411.8,626.7c3,0,4.8-2.2,4.8-5.6v-.2c0-3.4-1.9-5.6-4.8-5.6s-4.8,2.2-4.8,5.6v.2c0,3.4,1.8,5.6,4.8,5.6ZM411.8,628.7c-4.2,0-7.2-3.2-7.2-7.5v-.2c0-4.4,3.1-7.5,7.3-7.5s7.3,3.1,7.3,7.5v.2c0,4.5-3.1,7.5-7.3,7.5ZM436.3,626.7c3,0,4.8-2.2,4.8-5.6v-.2c0-3.4-1.9-5.6-4.8-5.6s-4.8,2.2-4.8,5.6v.2c0,3.4,1.8,5.6,4.8,5.6ZM436.3,628.7c-4.2,0-7.2-3.2-7.2-7.5v-.2c0-4.4,3.1-7.5,7.3-7.5s7.3,3.1,7.3,7.5v.2c0,4.5-3.1,7.5-7.3,7.5ZM458.4,628.7c-2.7,0-4.9-1.3-4.9-4.3s3.6-4.6,7.4-4.6h2.1v-1.1c0-2.3-.9-3.3-3.2-3.3s-3.2.8-3.4,2.7h-2.3c.3-3.4,3-4.6,5.8-4.6s5.4,1.2,5.4,5.3v9.7h-2.3v-1.9c-1.1,1.4-2.4,2.1-4.6,2.1ZM458.6,626.8c2.5,0,4.4-1.3,4.4-3.6v-1.8h-2c-3,0-5.1.7-5.1,2.9s.7,2.5,2.8,2.5ZM469.9,633.6v-19.9h2.3v2.5c.8-1.4,2.9-2.7,5-2.7,3.9,0,6.7,2.8,6.7,7.4v.2c0,4.5-2.7,7.6-6.7,7.6s-4.1-1.2-5-2.7v7.6h-2.3ZM477,626.7c2.9,0,4.5-2,4.5-5.6v-.2c0-3.7-2.1-5.6-4.5-5.6s-4.8,1.8-4.8,5.6v.2c0,3.8,2,5.6,4.9,5.6ZM487.6,633.6v-19.9h2.3v2.5c.8-1.4,2.9-2.7,5-2.7,3.9,0,6.7,2.8,6.7,7.4v.2c0,4.5-2.7,7.6-6.7,7.6s-4.1-1.2-5-2.7v7.6h-2.3ZM494.7,626.7c2.9,0,4.5-2,4.5-5.6v-.2c0-3.7-2.1-5.6-4.5-5.6s-4.8,1.8-4.8,5.6v.2c0,3.8,2,5.6,4.9,5.6ZM518.8,628.7c-4.2,0-7.1-2.9-7.1-7.5v-.2c0-4.5,2.9-7.6,6.9-7.6s6.6,2.1,6.6,7.3v.8h-11.1c.1,3.4,1.7,5.2,4.7,5.2s3.6-.8,3.9-2.6h2.3c-.5,3-3,4.5-6.3,4.5ZM514.2,619.6h8.6c-.2-3-1.8-4.3-4.2-4.3s-4,1.6-4.4,4.3ZM536.8,628.4v-12.8h-2.1v-2h2.1v-2.4c0-3,1.4-4.7,4.3-4.7s1.2,0,1.6.2v2c-.4-.2-.9-.3-1.5-.3-1.5,0-2.1,1-2.1,2.5v2.7h3.6v2h-3.6v12.8h-2.3ZM545.7,628.4v-14.8h2.3v14.8h-2.3ZM546.8,610.6c-.8,0-1.6-.7-1.6-1.6s.7-1.6,1.6-1.6,1.6.7,1.6,1.6-.7,1.6-1.6,1.6ZM563.5,633.6v-7.7c-.8,1.4-2.9,2.8-5.1,2.8-3.9,0-6.7-2.7-6.7-7.3v-.2c0-4.5,2.8-7.7,6.9-7.7s4,1.2,4.8,2.6v-2.4h2.3v19.9h-2.3ZM558.7,626.7c2.7,0,4.9-1.8,4.9-5.6v-.2c0-3.8-1.8-5.6-4.7-5.6s-4.7,2.1-4.7,5.6v.2c0,3.7,2,5.5,4.5,5.5ZM575.5,628.7c-2.9,0-5.1-1.6-5.1-5.7v-9.3h2.3v9.2c0,2.6,1.1,3.8,3.4,3.8s4.1-1.4,4.1-4v-8.9h2.3v14.8h-2.3v-2.3c-.7,1.4-2.3,2.6-4.7,2.6ZM593.3,628.7c-4.2,0-7.1-2.9-7.1-7.5v-.2c0-4.5,2.9-7.6,6.9-7.6s6.6,2.1,6.6,7.3v.8h-11.1c.1,3.4,1.7,5.2,4.7,5.2s3.6-.8,3.9-2.6h2.3c-.5,3-3,4.5-6.3,4.5ZM588.7,619.6h8.6c-.2-3-1.8-4.3-4.2-4.3s-4,1.6-4.4,4.3ZM603.4,628.4v-14.8h2.3v14.8h-2.3ZM604.5,610.6c-.8,0-1.6-.7-1.6-1.6s.7-1.6,1.6-1.6,1.6.7,1.6,1.6-.7,1.6-1.6,1.6ZM622.5,628.6c-2.7,0-4-1.6-4-3.9v-9.1h-2.1v-2h2.1v-3.4h2.3v3.4h3.4v2h-3.4v8.9c0,1.4.6,2.1,1.8,2.1s1.3-.1,1.8-.3v2c-.5.2-1,.3-2,.3ZM634.2,626.7c3,0,4.8-2.2,4.8-5.6v-.2c0-3.4-1.9-5.6-4.8-5.6s-4.8,2.2-4.8,5.6v.2c0,3.4,1.8,5.6,4.8,5.6ZM634.2,628.7c-4.2,0-7.2-3.2-7.2-7.5v-.2c0-4.4,3.1-7.5,7.3-7.5s7.3,3.1,7.3,7.5v.2c0,4.5-3.1,7.5-7.3,7.5ZM649.6,628.6c-2.7,0-4-1.6-4-3.9v-9.1h-2.1v-2h2.1v-3.4h2.3v3.4h3.4v2h-3.4v8.9c0,1.4.6,2.1,1.8,2.1s1.3-.1,1.8-.3v2c-.5.2-1,.3-2,.3ZM658.9,628.7c-2.7,0-4.9-1.3-4.9-4.3s3.6-4.6,7.4-4.6h2.1v-1.1c0-2.3-.9-3.3-3.2-3.3s-3.2.8-3.4,2.7h-2.3c.3-3.4,3-4.6,5.8-4.6s5.4,1.2,5.4,5.3v9.7h-2.3v-1.9c-1.1,1.4-2.4,2.1-4.6,2.1ZM659.2,626.8c2.5,0,4.4-1.3,4.4-3.6v-1.8h-2c-3,0-5.1.7-5.1,2.9s.7,2.5,2.8,2.5ZM670.5,628.4v-21.8h2.4v21.8h-2.4ZM689.7,628.7c-3.5,0-5.6-1.8-5.8-4.8h2.3c.2,1.8,1.1,2.9,3.5,2.9s3.2-.8,3.2-2.3-1.2-2.1-3.4-2.5c-3.8-.7-5.1-1.8-5.1-4.3s2.7-4.1,5-4.1,4.9,1.1,5.3,4.3h-2.3c-.3-1.6-1.2-2.3-3.1-2.3s-2.8.8-2.8,2.1.7,1.9,3.4,2.3c3,.6,5.2,1.2,5.2,4.4s-1.8,4.5-5.4,4.5ZM702.4,628.7c-2.7,0-4.9-1.3-4.9-4.3s3.6-4.6,7.4-4.6h2.1v-1.1c0-2.3-.9-3.3-3.2-3.3s-3.2.8-3.4,2.7h-2.3c.3-3.4,3-4.6,5.8-4.6s5.4,1.2,5.4,5.3v9.7h-2.3v-1.9c-1.1,1.4-2.4,2.1-4.6,2.1ZM702.7,626.8c2.5,0,4.4-1.3,4.4-3.6v-1.8h-2c-3,0-5.1.7-5.1,2.9s.7,2.5,2.8,2.5ZM718.5,628.6c-2.7,0-4-1.6-4-3.9v-9.1h-2.1v-2h2.1v-3.4h2.3v3.4h3.4v2h-3.4v8.9c0,1.4.6,2.1,1.8,2.1s1.3-.1,1.8-.3v2c-.5.2-1,.3-2,.3ZM724.1,628.4v-14.8h2.3v14.8h-2.3ZM725.2,610.6c-.8,0-1.6-.7-1.6-1.6s.7-1.6,1.6-1.6,1.6.7,1.6,1.6-.7,1.6-1.6,1.6ZM735.8,628.7c-3.5,0-5.6-1.8-5.8-4.8h2.3c.2,1.8,1.1,2.9,3.5,2.9s3.2-.8,3.2-2.3-1.2-2.1-3.4-2.5c-3.8-.7-5.1-1.8-5.1-4.3s2.7-4.1,5-4.1,4.9,1.1,5.3,4.3h-2.3c-.3-1.6-1.2-2.3-3.1-2.3s-2.8.8-2.8,2.1.7,1.9,3.4,2.3c3,.6,5.2,1.2,5.2,4.4s-1.8,4.5-5.4,4.5ZM745.3,628.4v-12.8h-2.1v-2h2.1v-2.4c0-3,1.5-4.7,4.4-4.7s1.2,0,1.8.3v2c-.4-.2-1-.3-1.7-.3-1.5,0-2.1,1-2.1,2.5v2.7h3.6v2h-3.6v12.8h-2.3ZM758,628.7c-2.7,0-4.9-1.3-4.9-4.3s3.6-4.6,7.4-4.6h2.1v-1.1c0-2.3-.9-3.3-3.2-3.3s-3.2.8-3.4,2.7h-2.3c.3-3.4,3-4.6,5.8-4.6s5.4,1.2,5.4,5.3v9.7h-2.3v-1.9c-1.1,1.4-2.4,2.1-4.6,2.1ZM758.2,626.8c2.5,0,4.4-1.3,4.4-3.6v-1.8h-2c-3,0-5.1.7-5.1,2.9s.7,2.5,2.8,2.5ZM775.2,634.5c-1.6,0-2.7-1-2.8-2.4h1.5c.1.5.5,1,1.2,1s1.1-.4,1.1-1-.4-1-1-1-.6.1-.8.2l-.9-.8,1.1-1.9c-3.6-.4-6.2-3.2-6.2-7.4v-.2c0-4.5,3.2-7.6,7.2-7.6s6,1.4,6.4,5.2h-2.3c-.4-2.3-2.1-3.2-4.1-3.2s-4.7,2.1-4.7,5.6v.2c0,3.6,2,5.5,4.8,5.5s4-1.2,4.2-3.6h2.2c-.3,3-2.7,5.3-6,5.5l-.7,1.3c1.3-.2,2.7.6,2.7,2.3s-1.3,2.3-2.9,2.3ZM789.3,628.7c-2.7,0-4.9-1.3-4.9-4.3s3.6-4.6,7.4-4.6h2.1v-1.1c0-2.3-.9-3.3-3.2-3.3s-3.2.8-3.4,2.7h-2.3c.3-3.4,3-4.6,5.8-4.6s5.4,1.2,5.4,5.3v9.7h-2.3v-1.9c-1.1,1.4-2.4,2.1-4.6,2.1ZM789.5,626.8c2.5,0,4.4-1.3,4.4-3.6v-1.8h-2c-3,0-5.1.7-5.1,2.9s.7,2.5,2.8,2.5ZM792.4,610.9c-1.2,0-2.2-1.2-3-1.2s-1,.5-1.1,1.3h-1.7c.2-2,1.4-3.3,2.9-3.3s2.2,1.2,3,1.2,1-.5,1.1-1.3h1.7c-.2,2-1.4,3.3-2.8,3.3ZM807,626.7c3,0,4.8-2.2,4.8-5.6v-.2c0-3.4-1.9-5.6-4.8-5.6s-4.8,2.2-4.8,5.6v.2c0,3.4,1.8,5.6,4.8,5.6ZM807,628.7c-4.2,0-7.2-3.2-7.2-7.5v-.2c0-4.4,3.1-7.5,7.3-7.5s7.3,3.1,7.3,7.5v.2c0,4.5-3.1,7.5-7.3,7.5ZM154.8,671c-4.1,0-7.2-2.9-7.2-7.5v-.2c0-4.5,3.2-7.6,7.2-7.6s6,1.4,6.4,5.2h-2.3c-.4-2.3-2.1-3.2-4.1-3.2s-4.7,2.1-4.7,5.6v.2c0,3.6,2,5.5,4.8,5.5s4-1.2,4.2-3.6h2.2c-.3,3.2-2.9,5.6-6.4,5.6ZM171,669.1c3,0,4.8-2.2,4.8-5.6v-.2c0-3.4-1.9-5.6-4.8-5.6s-4.8,2.2-4.8,5.6v.2c0,3.4,1.8,5.6,4.8,5.6ZM170.9,671c-4.2,0-7.2-3.2-7.2-7.5v-.2c0-4.4,3.1-7.5,7.3-7.5s7.3,3.1,7.3,7.5v.2c0,4.5-3.1,7.5-7.3,7.5ZM181.8,670.8v-14.8h2.3v2.3c.7-1.4,2.3-2.5,4.4-2.5s3.6.8,4.3,2.8c1-1.9,3.2-2.8,5.1-2.8,2.7,0,5,1.6,5,5.9v9.1h-2.3v-9.3c0-2.6-1.1-3.7-3.1-3.7s-3.9,1.3-3.9,4v9h-2.3v-9.3c0-2.6-1.1-3.7-3.1-3.7s-3.9,1.3-3.9,4v9h-2.3ZM221.2,669.1c3,0,4.8-2.2,4.8-5.6v-.2c0-3.4-1.9-5.6-4.8-5.6s-4.8,2.2-4.8,5.6v.2c0,3.4,1.8,5.6,4.8,5.6ZM221.1,671c-4.2,0-7.2-3.2-7.2-7.5v-.2c0-4.4,3.1-7.5,7.3-7.5s7.3,3.1,7.3,7.5v.2c0,4.5-3.1,7.5-7.3,7.5ZM243.2,671c-2.7,0-4.9-1.3-4.9-4.3s3.6-4.6,7.4-4.6h2.1v-1.1c0-2.3-.9-3.3-3.2-3.3s-3.2.8-3.4,2.7h-2.3c.3-3.4,3-4.6,5.8-4.6s5.4,1.2,5.4,5.3v9.7h-2.3v-1.9c-1.1,1.4-2.4,2.1-4.6,2.1ZM243.4,669.1c2.5,0,4.4-1.3,4.4-3.6v-1.8h-2c-3,0-5.1.7-5.1,2.9s.7,2.5,2.8,2.5ZM259.2,671c-2.7,0-4-1.6-4-3.9v-9.1h-2.1v-2h2.1v-3.4h2.3v3.4h3.4v2h-3.4v8.9c0,1.4.6,2.1,1.8,2.1s1.3-.1,1.8-.3v2c-.5.2-1,.3-2,.3ZM270.8,671c-4.2,0-7.1-2.9-7.1-7.5v-.2c0-4.5,2.9-7.6,6.9-7.6s6.6,2.1,6.6,7.3v.8h-11.1c.1,3.4,1.7,5.2,4.7,5.2s3.6-.8,3.9-2.6h2.3c-.5,3-3,4.5-6.3,4.5ZM266.2,661.9h8.6c-.2-3-1.8-4.3-4.2-4.3s-4,1.6-4.4,4.3ZM280.8,670.8v-14.8h2.3v2.3c.7-1.4,2.3-2.6,4.7-2.6s5.2,1.7,5.2,6v9.1h-2.3v-9.2c0-2.6-1.1-3.8-3.5-3.8s-4.1,1.4-4.1,4v8.9h-2.3ZM303.3,671c-3.9,0-6.7-2.7-6.7-7.3v-.2c0-4.5,2.8-7.7,6.9-7.7s4,1.2,4.8,2.6v-9.4h2.3v21.8h-2.3v-2.5c-.8,1.4-2.9,2.8-5.1,2.8ZM303.5,669.1c2.7,0,4.9-1.8,4.9-5.6v-.2c0-3.8-1.8-5.6-4.7-5.6s-4.7,2.1-4.7,5.6v.2c0,3.7,2,5.5,4.5,5.5ZM315.5,670.8v-14.8h2.3v14.8h-2.3ZM316.6,652.9c-.8,0-1.6-.7-1.6-1.6s.7-1.6,1.6-1.6,1.6.7,1.6,1.6-.7,1.6-1.6,1.6ZM322.6,670.8v-14.8h2.3v2.3c.7-1.4,2.3-2.5,4.4-2.5s3.6.8,4.3,2.8c1-1.9,3.2-2.8,5.1-2.8,2.7,0,5,1.6,5,5.9v9.1h-2.3v-9.3c0-2.6-1.1-3.7-3.1-3.7s-3.9,1.3-3.9,4v9h-2.3v-9.3c0-2.6-1.1-3.7-3.1-3.7s-3.9,1.3-3.9,4v9h-2.3ZM354.3,671c-4.2,0-7.1-2.9-7.1-7.5v-.2c0-4.5,2.9-7.6,6.9-7.6s6.6,2.1,6.6,7.3v.8h-11.1c.1,3.4,1.7,5.2,4.7,5.2s3.6-.8,3.9-2.6h2.3c-.5,3-3,4.5-6.3,4.5ZM349.7,661.9h8.6c-.2-3-1.8-4.3-4.2-4.3s-4,1.6-4.4,4.3ZM364.3,670.8v-14.8h2.3v2.3c.7-1.4,2.3-2.6,4.7-2.6s5.2,1.7,5.2,6v9.1h-2.3v-9.2c0-2.6-1.1-3.8-3.5-3.8s-4.1,1.4-4.1,4v8.9h-2.3ZM385.7,671c-2.7,0-4-1.6-4-3.9v-9.1h-2.1v-2h2.1v-3.4h2.3v3.4h3.4v2h-3.4v8.9c0,1.4.6,2.1,1.8,2.1s1.3-.1,1.8-.3v2c-.5.2-1,.3-2,.3ZM397.4,669.1c3,0,4.8-2.2,4.8-5.6v-.2c0-3.4-1.9-5.6-4.8-5.6s-4.8,2.2-4.8,5.6v.2c0,3.4,1.8,5.6,4.8,5.6ZM397.4,671c-4.2,0-7.2-3.2-7.2-7.5v-.2c0-4.4,3.1-7.5,7.3-7.5s7.3,3.1,7.3,7.5v.2c0,4.5-3.1,7.5-7.3,7.5ZM426.3,675.9v-7.7c-.8,1.4-2.9,2.8-5.1,2.8-3.9,0-6.7-2.7-6.7-7.3v-.2c0-4.5,2.8-7.7,6.9-7.7s4,1.2,4.8,2.6v-2.4h2.3v19.9h-2.3ZM421.5,669.1c2.7,0,4.9-1.8,4.9-5.6v-.2c0-3.8-1.8-5.6-4.7-5.6s-4.7,2.1-4.7,5.6v.2c0,3.7,2,5.5,4.5,5.5ZM438.4,671c-2.9,0-5.1-1.6-5.1-5.7v-9.3h2.3v9.2c0,2.6,1.1,3.8,3.4,3.8s4.1-1.4,4.1-4v-8.9h2.3v14.8h-2.3v-2.3c-.7,1.4-2.3,2.6-4.7,2.6ZM453.9,671c-2.7,0-4.9-1.3-4.9-4.3s3.6-4.6,7.4-4.6h2.1v-1.1c0-2.3-.9-3.3-3.2-3.3s-3.2.8-3.4,2.7h-2.3c.3-3.4,3-4.6,5.8-4.6s5.4,1.2,5.4,5.3v9.7h-2.3v-1.9c-1.1,1.4-2.4,2.1-4.6,2.1ZM454.1,669.1c2.5,0,4.4-1.3,4.4-3.6v-1.8h-2c-3,0-5.1.7-5.1,2.9s.7,2.5,2.8,2.5ZM465.4,670.8v-14.8h2.3v2.3c.7-1.4,2.3-2.6,4.7-2.6s5.2,1.7,5.2,6v9.1h-2.3v-9.2c0-2.6-1.1-3.8-3.5-3.8s-4.1,1.4-4.1,4v8.9h-2.3ZM487.9,671c-3.9,0-6.7-2.7-6.7-7.3v-.2c0-4.5,2.8-7.7,6.9-7.7s4,1.2,4.8,2.6v-9.4h2.3v21.8h-2.3v-2.5c-.8,1.4-2.9,2.8-5.1,2.8ZM488.1,669.1c2.7,0,4.9-1.8,4.9-5.6v-.2c0-3.8-1.8-5.6-4.7-5.6s-4.7,2.1-4.7,5.6v.2c0,3.7,2,5.5,4.5,5.5ZM506.2,669.1c3,0,4.8-2.2,4.8-5.6v-.2c0-3.4-1.9-5.6-4.8-5.6s-4.8,2.2-4.8,5.6v.2c0,3.4,1.8,5.6,4.8,5.6ZM506.1,671c-4.2,0-7.2-3.2-7.2-7.5v-.2c0-4.4,3.1-7.5,7.3-7.5s7.3,3.1,7.3,7.5v.2c0,4.5-3.1,7.5-7.3,7.5ZM524.5,675.9v-19.9h2.3v2.5c.8-1.4,2.9-2.7,5-2.7,3.9,0,6.7,2.8,6.7,7.4v.2c0,4.5-2.7,7.6-6.7,7.6s-4.1-1.2-5-2.7v7.6h-2.3ZM531.6,669.1c2.9,0,4.5-2,4.5-5.6v-.2c0-3.7-2.1-5.6-4.5-5.6s-4.8,1.8-4.8,5.6v.2c0,3.8,2,5.6,4.9,5.6ZM542.2,670.8v-14.8h2.3v2.7c.9-1.7,2.2-2.8,4.9-2.9v2.2c-3,.1-4.9,1.1-4.9,4.7v8.1h-2.3ZM558.4,671c-4.2,0-7.1-2.9-7.1-7.5v-.2c0-4.5,2.9-7.6,6.9-7.6s6.6,2.1,6.6,7.3v.8h-11.1c.1,3.4,1.7,5.2,4.7,5.2s3.6-.8,3.9-2.6h2.3c-.5,3-3,4.5-6.3,4.5ZM553.8,661.9h8.6c-.2-3-1.8-4.3-4.2-4.3s-4,1.6-4.4,4.3ZM574.6,671c-4.1,0-7.2-2.9-7.2-7.5v-.2c0-4.5,3.2-7.6,7.2-7.6s6,1.4,6.4,5.2h-2.3c-.4-2.3-2.1-3.2-4.1-3.2s-4.7,2.1-4.7,5.6v.2c0,3.6,2,5.5,4.8,5.5s4-1.2,4.2-3.6h2.2c-.3,3.2-2.9,5.6-6.4,5.6ZM584.6,670.8v-14.8h2.3v14.8h-2.3ZM585.7,652.9c-.8,0-1.6-.7-1.6-1.6s.7-1.6,1.6-1.6,1.6.7,1.6,1.6-.7,1.6-1.6,1.6ZM596.3,671c-3.5,0-5.6-1.8-5.8-4.8h2.3c.2,1.8,1.1,2.9,3.5,2.9s3.2-.8,3.2-2.3-1.2-2.1-3.4-2.5c-3.8-.7-5.1-1.8-5.1-4.3s2.7-4.1,5-4.1,4.9,1.1,5.3,4.3h-2.3c-.3-1.6-1.2-2.3-3.1-2.3s-2.8.8-2.8,2.1.7,1.9,3.4,2.3c3,.6,5.2,1.2,5.2,4.4s-1.8,4.5-5.4,4.5ZM611.3,671c-4.2,0-7.1-2.9-7.1-7.5v-.2c0-4.5,2.9-7.6,6.9-7.6s6.6,2.1,6.6,7.3v.8h-11.1c.1,3.4,1.7,5.2,4.7,5.2s3.6-.8,3.9-2.6h2.3c-.5,3-3,4.5-6.3,4.5ZM606.7,661.9h8.6c-.2-3-1.8-4.3-4.2-4.3s-4,1.6-4.4,4.3ZM621.4,670.8v-14.8h2.3v14.8h-2.3ZM622.5,652.9c-.8,0-1.6-.7-1.6-1.6s.7-1.6,1.6-1.6,1.6.7,1.6,1.6-.7,1.6-1.6,1.6ZM630.1,670.9c-1,0-1.8-.8-1.8-1.8s.8-1.8,1.8-1.8,1.8.8,1.8,1.8-.8,1.8-1.8,1.8Z"/>
    <path class="st6" d="M147.8,447.2v-26.2h7.9l6.1,16.3,6.1-16.3h7.7v26.2h-5.9v-18.4l-7.3,18.4h-1.9l-7.3-18.4v18.4h-5.3ZM186.9,447.6c-3.7,0-6.5-2.2-6.5-7.2v-12.4h5.3v11.6c0,2.6,1.1,3.9,3.3,3.9s4-1.4,4-4.2v-11.3h5.3v19.2h-5.3v-3c-1,1.9-2.9,3.4-6.1,3.4ZM203.1,447.2v-19.2h5.3v19.2h-5.3ZM205.8,425.4c-1.7,0-3-1.2-3-2.9s1.3-2.9,3-2.9,3,1.2,3,2.9-1.3,2.9-3,2.9ZM220.3,447.6c-4,0-6.2-2.1-6.2-6.1v-9.7h-2.5v-3.8h2.5v-4.1h5.3v4.1h4v3.8h-4v9.2c0,1.5.8,2.3,2.1,2.3s1.4-.1,2-.4v4.1c-.7.3-1.8.5-3.2.5ZM236.1,443.6c3,0,4.7-2.2,4.7-5.8v-.3c0-3.7-1.7-5.9-4.7-5.9s-4.7,2.1-4.7,5.8v.3c0,3.7,1.7,5.9,4.7,5.9ZM236.1,447.6c-5.7,0-10.1-3.8-10.1-9.8v-.3c0-6,4.4-9.9,10.1-9.9s10.1,3.9,10.1,9.8v.3c0,6.1-4.4,9.9-10.1,9.9ZM266.9,443.6c3,0,4.7-2.2,4.7-5.8v-.3c0-3.7-1.7-5.9-4.7-5.9s-4.7,2.1-4.7,5.8v.3c0,3.7,1.7,5.9,4.7,5.9ZM266.8,447.6c-5.7,0-10.1-3.8-10.1-9.8v-.3c0-6,4.4-9.9,10.1-9.9s10.1,3.9,10.1,9.8v.3c0,6.1-4.4,9.9-10.1,9.9ZM292,447.6c-3,0-5.1-1.5-6.1-3.4v3h-5.3v-27.9h5.3v11.7c1.1-1.8,3.3-3.4,6.1-3.4,4.7,0,8.4,3.5,8.4,9.8v.3c0,6.3-3.6,9.9-8.4,9.9ZM290.4,443.5c2.9,0,4.6-2,4.6-5.7v-.3c0-3.9-1.9-5.8-4.6-5.8s-4.7,1.9-4.7,5.8v.3c0,3.9,1.8,5.7,4.7,5.7ZM303.9,447.2v-19.2h5.3v3.7c1.2-2.6,3.1-3.9,6.2-4v5c-3.9,0-6.2,1.2-6.2,4.9v9.6h-5.3ZM319,447.2v-19.2h5.3v19.2h-5.3ZM321.6,425.4c-1.7,0-3-1.2-3-2.9s1.3-2.9,3-2.9,3,1.2,3,2.9-1.3,2.9-3,2.9ZM337.7,454.3c-6.2,0-9-2.7-9.5-6.7h5.3c.3,1.7,1.5,2.8,4.3,2.8s4.8-1.7,4.8-4.7v-2.9c-1.1,1.9-3.3,3.6-6.2,3.6-4.7,0-8.4-3.5-8.4-9.2v-.3c0-5.5,3.7-9.4,8.4-9.4s5,1.4,6.1,3.3v-2.9h5.3v17.7c0,5.7-3.8,8.6-10.1,8.6ZM338,442.4c2.8,0,4.7-2,4.7-5.2v-.3c0-3.3-1.7-5.2-4.6-5.2s-4.6,2.1-4.6,5.3v.3c0,3.2,1.9,5.2,4.5,5.2ZM357.7,447.6c-3.5,0-6.4-1.7-6.4-5.7s4.1-6.2,10-6.2h2.2v-.8c0-2.3-.7-3.5-3.1-3.5s-3,1.1-3.3,2.7h-5c.3-4.6,3.9-6.6,8.6-6.6s8,1.9,8,7.1v12.5h-5.2v-2.3c-1.1,1.5-2.8,2.7-5.8,2.7ZM359.3,443.9c2.3,0,4.1-1.3,4.1-3.4v-1.6h-2.1c-3.1,0-4.9.7-4.9,2.7s.8,2.3,2.8,2.3ZM380.4,447.6c-4.7,0-8.3-3.3-8.3-9.7v-.3c0-6.3,3.6-10,8.4-10s5,1.4,6.1,3.3v-11.6h5.3v27.9h-5.3v-3.2c-1,1.9-3.3,3.6-6.2,3.6ZM382,443.5c2.8,0,4.7-1.9,4.7-5.8v-.3c0-3.8-1.7-5.8-4.6-5.8s-4.6,2-4.6,5.8v.3c0,3.8,1.8,5.7,4.5,5.7ZM405.6,443.6c3,0,4.7-2.2,4.7-5.8v-.3c0-3.7-1.7-5.9-4.7-5.9s-4.7,2.1-4.7,5.8v.3c0,3.7,1.7,5.9,4.7,5.9ZM405.5,447.6c-5.7,0-10.1-3.8-10.1-9.8v-.3c0-6,4.4-9.9,10.1-9.9s10.1,3.9,10.1,9.8v.3c0,6.1-4.4,9.9-10.1,9.9ZM436.2,447.6c-5.8,0-10-3.6-10-9.8v-.3c0-6.1,4.3-10,9.9-10s9.4,2.9,9.4,9.8v1.5h-13.8c.1,3.2,1.9,5,4.8,5s3.7-1.1,4-2.7h5c-.6,4.1-3.9,6.5-9.2,6.5ZM431.7,435.5h8.6c-.2-2.9-1.7-4.3-4.2-4.3s-4,1.6-4.4,4.3ZM457,453.7v-25.7h5.3v3c1.1-1.8,3.3-3.4,6.1-3.4,4.7,0,8.4,3.5,8.4,9.8v.3c0,6.3-3.6,9.9-8.4,9.9s-5.1-1.5-6.1-3.3v9.5h-5.3ZM466.9,443.5c2.9,0,4.6-2,4.6-5.7v-.3c0-3.9-1.9-5.8-4.6-5.8s-4.7,1.9-4.7,5.8v.3c0,3.9,1.8,5.7,4.7,5.7ZM485.6,447.6c-3.5,0-6.4-1.7-6.4-5.7s4.1-6.2,10-6.2h2.2v-.8c0-2.3-.7-3.5-3.1-3.5s-3,1.1-3.3,2.7h-5c.3-4.6,3.9-6.6,8.6-6.6s8,1.9,8,7.1v12.5h-5.2v-2.3c-1.1,1.5-2.8,2.7-5.8,2.7ZM487.1,443.9c2.3,0,4.1-1.3,4.1-3.4v-1.6h-2.1c-3.1,0-4.9.7-4.9,2.7s.8,2.3,2.8,2.3ZM501.1,447.2v-19.2h5.3v3.7c1.2-2.6,3.1-3.9,6.2-4v5c-3.9,0-6.2,1.2-6.2,4.9v9.6h-5.3ZM520.9,447.6c-3.5,0-6.4-1.7-6.4-5.7s4.1-6.2,10-6.2h2.2v-.8c0-2.3-.7-3.5-3.1-3.5s-3,1.1-3.3,2.7h-5c.3-4.6,3.9-6.6,8.6-6.6s8,1.9,8,7.1v12.5h-5.2v-2.3c-1.1,1.5-2.8,2.7-5.8,2.7ZM522.5,443.9c2.3,0,4.1-1.3,4.1-3.4v-1.6h-2.1c-3.1,0-4.9.7-4.9,2.7s.8,2.3,2.8,2.3ZM547.9,447.6c-3,0-5.1-1.5-6.1-3.4v3h-5.3v-27.9h5.3v11.7c1.1-1.8,3.3-3.4,6.1-3.4,4.7,0,8.4,3.5,8.4,9.8v.3c0,6.3-3.6,9.9-8.4,9.9ZM546.3,443.5c2.9,0,4.6-2,4.6-5.7v-.3c0-3.9-1.9-5.8-4.6-5.8s-4.7,1.9-4.7,5.8v.3c0,3.9,1.8,5.7,4.7,5.7ZM566.3,425.4l2.1-5.8h5.6l-3.8,5.8h-3.9ZM568.7,447.6c-5.8,0-10-3.6-10-9.8v-.3c0-6.1,4.3-10,9.9-10s9.4,2.9,9.4,9.8v1.5h-13.8c.1,3.2,1.9,5,4.8,5s3.7-1.1,4-2.7h5c-.6,4.1-3.9,6.5-9.2,6.5ZM564.1,435.5h8.6c-.2-2.9-1.7-4.3-4.2-4.3s-4,1.6-4.4,4.3ZM581.4,447.2v-19.2h5.3v3c1-1.9,3-3.5,6.2-3.5s6.5,2.3,6.5,7.4v12.2h-5.3v-11.4c0-2.6-1-3.9-3.4-3.9s-4,1.4-4,4.2v11.1h-5.3ZM610.9,447.6c-5.2,0-8.2-2.3-8.4-6.4h5c.2,1.7,1.1,2.7,3.4,2.7s3-.8,3-2.1-1.1-1.9-3.9-2.3c-5.1-.8-7.1-2.2-7.1-6s3.7-6,7.6-6,7.4,1.5,7.9,5.9h-4.9c-.3-1.6-1.2-2.3-3-2.3s-2.7.8-2.7,2,.9,1.7,3.7,2.1c4.8.7,7.4,1.9,7.4,6s-3,6.3-8.1,6.3Z"/>
    <path class="st6" d="M148.9,785v-20.2h5.7c3.9,0,7.1,1.7,7.1,5.9h0c0,4.4-3.2,6.1-7.1,6.1h-3.3v8.2h-2.5ZM151.3,774.9h3.4c2.9,0,4.4-1.4,4.4-4h0c0-3-1.7-4-4.4-4h-3.4v8ZM170.9,783.3c3,0,4.8-2.2,4.8-5.6v-.2c0-3.4-1.9-5.6-4.8-5.6s-4.8,2.2-4.8,5.6v.2c0,3.4,1.8,5.6,4.8,5.6ZM170.8,785.3c-4.2,0-7.2-3.2-7.2-7.5v-.2c0-4.4,3.1-7.5,7.3-7.5s7.3,3.1,7.3,7.5v.2c0,4.5-3.1,7.5-7.3,7.5ZM181.7,785v-14.8h2.3v2.7c.9-1.7,2.2-2.8,4.9-2.9v2.2c-3,.1-4.9,1.1-4.9,4.7v8.1h-2.3ZM204.1,785v-18.2h-5.9v-2h14.2v2h-5.9v18.2h-2.5ZM215.4,785v-14.8h2.3v14.8h-2.3ZM216.6,767.2c-.8,0-1.6-.7-1.6-1.6s.7-1.6,1.6-1.6,1.6.7,1.6,1.6-.7,1.6-1.6,1.6ZM226.3,785.3c-2.7,0-4.9-1.3-4.9-4.3s3.6-4.6,7.4-4.6h2.1v-1.1c0-2.3-.9-3.3-3.2-3.3s-3.2.8-3.4,2.7h-2.3c.3-3.4,3-4.6,5.8-4.6s5.4,1.2,5.4,5.3v9.7h-2.3v-1.9c-1.1,1.4-2.4,2.1-4.6,2.1ZM226.5,783.4c2.5,0,4.4-1.3,4.4-3.6v-1.8h-2c-3,0-5.1.7-5.1,2.9s.7,2.5,2.8,2.5ZM243.7,790.4c-4.4,0-6.3-2.1-6.7-4.5h2.4c.3,1.7,1.8,2.6,4.3,2.6s4.7-1.4,4.7-4.5v-2.1c-.8,1.4-2.9,2.8-5,2.8-3.9,0-6.7-2.9-6.7-7v-.2c0-4,2.8-7.3,6.9-7.3s4,1.2,4.8,2.6v-2.4h2.3v13.8c0,4.3-2.9,6.4-7.1,6.4ZM243.7,782.6c2.7,0,4.8-1.9,4.8-5.2v-.2c0-3.3-1.8-5.2-4.7-5.2s-4.7,2.2-4.7,5.3v.2c0,3.2,2.1,5.1,4.5,5.1ZM261.7,783.3c3,0,4.8-2.2,4.8-5.6v-.2c0-3.4-1.9-5.6-4.8-5.6s-4.8,2.2-4.8,5.6v.2c0,3.4,1.8,5.6,4.8,5.6ZM261.6,785.3c-4.2,0-7.2-3.2-7.2-7.5v-.2c0-4.4,3.1-7.5,7.3-7.5s7.3,3.1,7.3,7.5v.2c0,4.5-3.1,7.5-7.3,7.5ZM280.2,785v-20.2h6.1c3.9,0,7.1,1.6,7.1,5.6h0c0,3.4-2.2,5.1-5,5.6l6.2,8.9h-2.7l-6-8.8h-3.1v8.8h-2.5ZM282.6,774.3h3.8c2.9,0,4.4-1.2,4.4-3.7h0c0-2.9-1.7-3.8-4.4-3.8h-3.8v7.5ZM303.4,785.3c-4.2,0-7.1-2.9-7.1-7.5v-.2c0-4.5,2.9-7.6,6.9-7.6s6.6,2.1,6.6,7.3v.8h-11.1c.1,3.4,1.7,5.2,4.7,5.2s3.6-.8,3.9-2.6h2.3c-.5,3-3,4.5-6.3,4.5ZM298.7,776.2h8.6c-.2-3-1.8-4.3-4.2-4.3s-4,1.6-4.4,4.3ZM313.4,785v-14.8h2.3v14.8h-2.3ZM314.5,767.2c-.8,0-1.6-.7-1.6-1.6s.7-1.6,1.6-1.6,1.6.7,1.6,1.6-.7,1.6-1.6,1.6ZM325.1,785.3c-3.5,0-5.6-1.8-5.8-4.8h2.3c.2,1.8,1.1,2.9,3.5,2.9s3.2-.8,3.2-2.3-1.2-2.1-3.4-2.5c-3.8-.7-5.1-1.8-5.1-4.3s2.7-4.1,5-4.1,4.9,1.1,5.3,4.3h-2.3c-.3-1.6-1.2-2.3-3.1-2.3s-2.8.8-2.8,2.1.7,1.9,3.4,2.3c3,.6,5.2,1.2,5.2,4.4s-1.8,4.5-5.4,4.5Z"/>
    <g class="st9">
      <path class="st8" d="M171.7,313.7l6,14.4,15.5,1.2-11.8,10.1,3.6,15.1-13.3-8.1-13.3,8.1,3.6-15.1-11.8-10.1,15.5-1.2,6-14.4Z"/>
    </g>
    <g class="st2">
      <path class="st8" d="M239.5,313.7l6,14.4,15.5,1.2-11.8,10.1,3.6,15.1-13.3-8.1-13.3,8.1,3.6-15.1-11.8-10.1,15.5-1.2,6-14.4Z"/>
    </g>
    <g class="st5">
      <path class="st8" d="M307.2,313.7l6,14.4,15.5,1.2-11.8,10.1,3.6,15.1-13.3-8.1-13.3,8.1,3.6-15.1-11.8-10.1,15.5-1.2,6-14.4Z"/>
    </g>
    <g class="st3">
      <path class="st8" d="M375,313.7l6,14.4,15.5,1.2-11.8,10.1,3.6,15.1-13.3-8.1-13.3,8.1,3.6-15.1-11.8-10.1,15.5-1.2,6-14.4Z"/>
    </g>
    <g class="st4">
      <path class="st8" d="M442.7,313.7l6,14.4,15.5,1.2-11.8,10.1,3.6,15.1-13.3-8.1-13.3,8.1,3.6-15.1-11.8-10.1,15.5-1.2,6-14.4Z"/>
    </g>
  </g>
  <path class="st7" d="M72.4,214c.3.1.5.3.7.5.2.2.3.5.4.7.2.7.2,1.3.1,2,0,.5-.8,1.6-1.2,1.5-.8-.1-1.5-.3-2.3-.5-.5-.1-5.8-3.9-7.6-5.1-1.7-1.2-3.4-2.5-5-3.9-3.2-2.9-6.5-5.6-9.6-8.5-.7-.7-1.3-1.4-1.9-2.1-2.1-2.5-4.4-4.8-6.9-6.9-.4-.4-.8-.7-1.4-.9-.9-.3-7.4-6.4-8.1-7.3-1.7-2.4-3.5-4.6-5.2-6.9-.3-.3-.6-.6-.6-1-.1-.9-.6-1.8-1.3-2.4-.8-1-1.5-2-2.1-3.1-.3-.6-.4-1.3-.5-2-.1-.6,1-1.1,1.1-1,.6.2.7-.5,1-.8.1-.1.2-.2.4-.3,1.2.5,2.3,1,3.4,1.7,1.3.6,2.5,1.4,3.7,2.2,0,0,.5.5,1.2,1.2l2.7,2.5c2,1.8,4.1,3.7,4.5,4.1.4.4.8.9,1.1,1.5.2.2,6.3,5.6,6.5,5.9,1.3,1.1,2.4,2.4,3.2,3.9.2.3.4.6.7.8,2.1,2,4,4.2,5.9,6.3,1,1.1,2.1,2.1,3.2,3.1.2.2.3.4.5.7.2.3.4.5.6.8,2.6,2.4,4.9,5,7.6,7.3.6.5,3,3.6,3.7,4.2.4.3,1.1,2.1,1.5,2.3Z"/>
  <path class="st7" d="M61.6,183c.3.3.5.7.5,1.1,0,.4,0,.8-.1,1.2,0,.3-.7.7-.9.6-.5-.2-.9-.5-1.4-.8-.2-.2-3.6-3.4-4.9-4.4-.6-.5-1.2-1-1.7-1.6s-1-1.2-1.4-1.8l-5.8-7.2c-.4-.5-.8-1.1-1.1-1.7-1.1-2.1-2.4-4-4-5.8-.2-.4-.5-.6-.9-.8-.7-.3-4.4-5.4-4.7-6.2-.4-1-.8-1.9-1.3-2.8-.4-.9-.8-1.9-1.2-2.9-.1-.3-.4-.5-.3-.9,0-.3,0-.7,0-1,0-.3-.3-.6-.5-.9-.4-.8-.8-1.6-1.2-2.4-.1-.5-.2-1-.2-1.5,0-.4.7-.8.9-.7.5.2.6-.3.8-.6,0,0,.2-.2.3-.2,1.7,1,3.4,2.1,5,3.3l2.8,2.9c1.3,1.5,2.6,3.1,2.9,3.4.3.4.5.8.6,1.2,0,.2,4,4.7,4.1,4.9.8.9,1.4,2.1,1.7,3.3,0,.2.2.5.3.7,1.2,1.8,2.2,3.6,3.2,5.5.5.9,1.2,1.8,1.8,2.7,0,.2.2.4.2.6,0,.2.2.5.3.7,1.4,2.1,2.7,4.3,4,6.5.3.5,1.3,3.2,1.7,3.7.2.3.3,1.7.5,2Z"/>
  <path class="st7" d="M102.7,195.7c.7.5.5,1.4-.3,2.7-.2.4-1.3,1-1.6.9-.5-.2-1.1-.4-1.6-.6-.3-.2-3.5-3.5-4.5-4.6-1-1.1-1.9-2.3-2.7-3.6-1.6-2.6-3.2-5.2-4.7-7.7-.3-.6-.6-1.2-.8-1.8-.8-2.2-1.8-4.2-3.1-6.2-.2-.4-.4-.7-.7-.9-.6-.3-3.7-5.7-3.9-6.5-.6-2-1.3-3.8-1.9-5.7,0-.3-.3-.5-.1-.9,0-.3.1-.7,0-1,0-.3-.2-.6-.4-.9-.4-.8-.7-1.6-.9-2.4,0-.5,0-1,0-1.5,0-.5,1-.8,1.1-.7.5.2.7-.3,1.1-.5.1,0,.2-.2.4-.2,1.6,1.1,3.1,2.4,4.4,3.8,0,0,.3.4.7,1s.9,1.4,1.4,2.2c1,1.6,2.1,3.3,2.4,3.6.2.4.4.8.4,1.2,0,.2,3.2,5,3.3,5.1.7,1,1.1,2.1,1.3,3.3,0,.2.1.5.3.6,1,1.8,1.9,3.6,2.7,5.4.5.9,1,1.8,1.6,2.7,0,.2.1.4.2.6,0,.2.1.5.3.7,1.3,2.1,2.3,4.3,3.8,6.3.4.4,1.1,3.1,1.5,3.6,0,.4,0,1.9.2,2.1Z"/>
  <path class="st7" d="M998.8,876.4c-.3,0-.5-.2-.8-.3-.2-.2-.4-.4-.5-.6-.3-.6-.5-1.2-.6-1.9,0-.5.4-1.7.8-1.7.8,0,1.5,0,2.3,0,.5,0,6.5,2.5,8.5,3.3,2,.8,3.9,1.7,5.7,2.8,3.8,2.1,7.5,4.1,11.3,6.2.8.5,1.6,1.1,2.3,1.7,2.6,2,5.3,3.8,8.2,5.3.5.3,1,.5,1.5.6,1,0,8.6,4.6,9.5,5.4,2.1,1.9,4.4,3.7,6.6,5.7.3.3.7.4.9.9.3.9.9,1.6,1.8,2.1,1,.8,1.9,1.6,2.7,2.5.4.6.7,1.2.9,1.8.2.6-.7,1.3-.9,1.3-.6,0-.6.6-.8,1,0,.1-.2.3-.3.4-1.2-.2-2.5-.5-3.7-.9-1.4-.3-2.7-.8-4.1-1.3,0,0-.6-.4-1.5-.9l-3.1-1.9c-2.3-1.4-4.8-2.8-5.3-3-.5-.3-1-.7-1.4-1.2-.2-.2-7.3-4.1-7.6-4.3-1.5-.8-2.8-1.9-4-3.1-.2-.3-.5-.5-.8-.6-2.5-1.5-4.8-3.2-7.2-4.9-1.2-.9-2.5-1.6-3.8-2.3-.2-.2-.4-.3-.6-.5-.2-.2-.5-.4-.8-.6-3-1.8-5.8-3.9-9-5.4-.7-.4-3.7-2.9-4.5-3.2-.5-.2-1.5-1.8-2-1.9Z"/>
  <path class="st7" d="M1016.1,904.3c-.3-.2-.6-.6-.8-1-.2-.4-.2-.8-.1-1.2,0-.3.5-.9.8-.8.5.1,1,.3,1.5.4.3.1,4.3,2.5,5.7,3.3.7.4,1.4.8,2,1.2s1.2.9,1.8,1.4l7.2,5.8c.5.4,1,.9,1.5,1.4,1.5,1.8,3.3,3.4,5.1,4.8.3.3.6.5,1,.6.7.1,5.4,4.4,5.9,5,.6.9,1.2,1.7,1.9,2.5.6.8,1.2,1.7,1.8,2.5.2.2.5.4.5.8,0,.3.1.7.3,1,.2.3.4.6.7.8.6.6,1.2,1.3,1.7,2.1.2.4.4.9.5,1.4.2.4-.6.9-.7.9-.5,0-.5.5-.7.7,0,.1-.1.2-.2.3-1.9-.6-3.8-1.3-5.6-2.2l-3.3-2.2c-1.6-1.2-3.2-2.4-3.5-2.7-.3-.3-.6-.6-.9-1,0-.2-4.9-3.7-5.1-3.9-1-.7-1.8-1.7-2.4-2.8-.1-.2-.3-.4-.5-.6-1.5-1.5-3-3-4.3-4.6-.7-.8-1.5-1.5-2.3-2.3-.1-.2-.2-.3-.3-.5-.1-.2-.3-.4-.4-.6-1.8-1.8-3.5-3.6-5.3-5.4-.4-.4-2-2.8-2.5-3.3-.2-.3-.7-1.6-1-1.9Z"/>
  <path class="st7" d="M973.2,900.8c-.8-.3-.8-1.3-.3-2.7.2-.4,1-1.3,1.3-1.3.6,0,1.1.1,1.7.3.3.1,4.2,2.6,5.4,3.5,1.2.9,2.3,1.9,3.4,3,2.1,2.2,4.2,4.4,6.3,6.5.5.5.9,1,1.2,1.6,1.2,2,2.7,3.7,4.4,5.3.2.3.6.6.9.7.7.2,4.8,4.8,5.2,5.5,1,1.8,2.1,3.4,3.1,5.2.1.3.4.4.3.8,0,.3,0,.7.2,1,.1.3.3.6.6.8.5.7,1,1.4,1.4,2.2.2.5.3,1,.3,1.4,0,.5-.8,1-.9.9-.5,0-.6.4-.9.7,0,.1-.2.2-.3.3-1.8-.7-3.5-1.7-5.2-2.8,0,0-.4-.3-.9-.8s-1.2-1.1-1.9-1.8c-1.4-1.3-2.8-2.8-3.1-3-.3-.3-.5-.7-.7-1.1,0-.2-4.3-4.2-4.4-4.3-.9-.8-1.6-1.8-2-2.9,0-.2-.2-.4-.4-.6-1.4-1.5-2.6-3.1-3.8-4.7-.6-.8-1.4-1.5-2.1-2.3-.1-.2-.2-.3-.3-.5-.1-.2-.2-.4-.4-.6-1.7-1.7-3.2-3.7-5-5.3-.5-.3-1.8-2.8-2.3-3.2-.1-.4-.3-1.9-.7-2Z"/>
</svg>