<svg width="668" height="508" viewBox="0 0 668 508" fill="none" xmlns="http://www.w3.org/2000/svg">
<g filter="url(#filter0_d_602_404)">
<rect x="14" y="9" width="640" height="480" rx="12" fill="#444E5E"/>
</g>
<path d="M67.02 247.209C62.62 247.209 60.1 244.149 60.1 239.969V239.809C60.1 235.629 62.92 232.509 67.02 232.509C69.86 232.509 72.4 233.829 72.84 237.049H71.1C70.7 234.769 69.14 233.889 67.06 233.889C63.78 233.889 61.9 236.289 61.9 239.789V239.949C61.9 243.489 63.66 245.809 67.02 245.809C70.12 245.809 71.46 243.789 71.52 241.249H67.34V239.809H73.22V240.869C73.22 245.009 70.68 247.209 67.02 247.209ZM80.372 245.829C82.472 245.829 83.792 244.249 83.792 241.889V241.749C83.792 239.329 82.452 237.769 80.372 237.769C78.272 237.769 76.952 239.329 76.952 241.729V241.889C76.952 244.269 78.252 245.829 80.372 245.829ZM80.352 247.209C77.372 247.209 75.232 244.949 75.232 241.889V241.729C75.232 238.589 77.412 236.389 80.372 236.389C83.332 236.389 85.512 238.569 85.512 241.709V241.869C85.512 245.029 83.332 247.209 80.352 247.209ZM91.3223 247.209C88.8223 247.209 87.3223 245.949 87.2223 243.809H88.8423C88.9623 245.049 89.6223 245.829 91.3023 245.829C92.8823 245.829 93.5823 245.289 93.5823 244.169C93.5823 243.069 92.7623 242.709 91.1423 242.409C88.4223 241.909 87.5023 241.149 87.5023 239.329C87.5023 237.389 89.4023 236.389 91.0423 236.389C92.9223 236.389 94.5423 237.149 94.8223 239.409H93.2223C92.9823 238.269 92.3423 237.769 91.0223 237.769C89.8223 237.769 89.0423 238.369 89.0423 239.269C89.0423 240.209 89.5623 240.589 91.4823 240.929C93.6423 241.329 95.1623 241.809 95.1623 244.029C95.1623 245.929 93.8623 247.209 91.3223 247.209ZM100.872 247.169C98.9717 247.169 98.0517 246.049 98.0517 244.409V237.969H96.5517V236.569H98.0517V234.189H99.7117V236.569H102.152V237.969H99.7117V244.249C99.7117 245.269 100.172 245.769 101.012 245.769C101.532 245.769 101.932 245.689 102.292 245.549V246.949C101.952 247.069 101.552 247.169 100.872 247.169ZM107.519 247.209C105.579 247.209 104.039 246.269 104.039 244.129C104.039 241.709 106.599 240.889 109.279 240.889H110.779V240.129C110.779 238.469 110.139 237.769 108.539 237.769C107.099 237.769 106.299 238.369 106.139 239.649H104.479C104.699 237.269 106.599 236.389 108.619 236.389C110.619 236.389 112.439 237.209 112.439 240.129V247.029H110.779V245.709C109.999 246.689 109.059 247.209 107.519 247.209ZM107.679 245.889C109.439 245.889 110.779 244.989 110.779 243.369V242.069H109.339C107.239 242.069 105.699 242.589 105.699 244.129C105.699 245.209 106.219 245.889 107.679 245.889ZM115.7 247.029V236.569H117.36V238.449C118.02 237.269 118.92 236.449 120.8 236.389V237.949C118.7 238.049 117.36 238.709 117.36 241.289V247.029H115.7ZM123.259 247.029V236.569H124.919V247.029H123.259ZM124.059 234.389C123.459 234.389 122.959 233.889 122.959 233.289C122.959 232.689 123.459 232.189 124.059 232.189C124.659 232.189 125.159 232.689 125.159 233.289C125.159 233.889 124.659 234.389 124.059 234.389ZM130.937 247.209C128.997 247.209 127.457 246.269 127.457 244.129C127.457 241.709 130.017 240.889 132.697 240.889H134.197V240.129C134.197 238.469 133.557 237.769 131.957 237.769C130.517 237.769 129.717 238.369 129.557 239.649H127.897C128.117 237.269 130.017 236.389 132.037 236.389C134.037 236.389 135.857 237.209 135.857 240.129V247.029H134.197V245.709C133.417 246.689 132.477 247.209 130.937 247.209ZM131.097 245.889C132.857 245.889 134.197 244.989 134.197 243.369V242.069H132.757C130.657 242.069 129.117 242.589 129.117 244.129C129.117 245.209 129.637 245.889 131.097 245.889ZM148.35 247.209C145.61 247.209 143.63 245.269 143.63 242.009V241.849C143.63 238.649 145.63 236.389 148.51 236.389C150.25 236.389 151.33 237.229 151.93 238.249V231.569H153.59V247.029H151.93V245.229C151.33 246.249 149.87 247.209 148.35 247.209ZM148.53 245.829C150.47 245.829 151.99 244.549 151.99 241.869V241.709C151.99 239.029 150.71 237.769 148.67 237.769C146.59 237.769 145.35 239.229 145.35 241.769V241.929C145.35 244.569 146.77 245.829 148.53 245.829ZM161.23 247.209C158.27 247.209 156.17 245.129 156.17 241.909V241.749C156.17 238.589 158.19 236.389 161.07 236.389C163.49 236.389 165.77 237.849 165.77 241.589V242.129H157.89C157.97 244.509 159.11 245.829 161.25 245.829C162.87 245.829 163.81 245.229 164.03 244.009H165.69C165.33 246.109 163.59 247.209 161.23 247.209ZM157.95 240.789H164.07C163.91 238.629 162.79 237.769 161.07 237.769C159.37 237.769 158.23 238.929 157.95 240.789ZM173.61 250.669V236.569H175.27V238.329C175.87 237.309 177.29 236.389 178.81 236.389C181.55 236.389 183.57 238.389 183.57 241.649V241.809C183.57 245.009 181.69 247.209 178.81 247.209C177.09 247.209 175.87 246.349 175.27 245.309V250.669H173.61ZM178.65 245.829C180.73 245.829 181.85 244.429 181.85 241.889V241.729C181.85 239.089 180.39 237.769 178.63 237.769C176.69 237.769 175.21 239.049 175.21 241.729V241.889C175.21 244.569 176.61 245.829 178.65 245.829ZM188.769 247.209C186.829 247.209 185.289 246.269 185.289 244.129C185.289 241.709 187.849 240.889 190.529 240.889H192.029V240.129C192.029 238.469 191.389 237.769 189.789 237.769C188.349 237.769 187.549 238.369 187.389 239.649H185.729C185.949 237.269 187.849 236.389 189.869 236.389C191.869 236.389 193.689 237.209 193.689 240.129V247.029H192.029V245.709C191.249 246.689 190.309 247.209 188.769 247.209ZM188.929 245.889C190.689 245.889 192.029 244.989 192.029 243.369V242.069H190.589C188.489 242.069 186.949 242.589 186.949 244.129C186.949 245.209 187.469 245.889 188.929 245.889ZM196.95 247.029V236.569H198.61V238.449C199.27 237.269 200.17 236.449 202.05 236.389V237.949C199.95 238.049 198.61 238.709 198.61 241.289V247.029H196.95ZM206.991 247.209C205.051 247.209 203.511 246.269 203.511 244.129C203.511 241.709 206.071 240.889 208.751 240.889H210.251V240.129C210.251 238.469 209.611 237.769 208.011 237.769C206.571 237.769 205.771 238.369 205.611 239.649H203.951C204.171 237.269 206.071 236.389 208.091 236.389C210.091 236.389 211.911 237.209 211.911 240.129V247.029H210.251V245.709C209.471 246.689 208.531 247.209 206.991 247.209ZM207.151 245.889C208.911 245.889 210.251 244.989 210.251 243.369V242.069H208.811C206.711 242.069 205.171 242.589 205.171 244.129C205.171 245.209 205.691 245.889 207.151 245.889ZM220.372 247.209C218.672 247.209 217.432 246.349 216.832 245.309V247.029H215.172V231.569H216.832V238.329C217.432 237.309 218.852 236.389 220.372 236.389C223.112 236.389 225.132 238.389 225.132 241.649V241.809C225.132 245.009 223.252 247.209 220.372 247.209ZM220.212 245.829C222.292 245.829 223.412 244.429 223.412 241.889V241.729C223.412 239.089 221.952 237.769 220.192 237.769C218.252 237.769 216.772 239.049 216.772 241.729V241.889C216.772 244.569 218.172 245.829 220.212 245.829ZM231.991 247.209C229.031 247.209 226.931 245.129 226.931 241.909V241.749C226.931 238.589 228.951 236.389 231.831 236.389C234.251 236.389 236.531 237.849 236.531 241.589V242.129H228.651C228.731 244.509 229.871 245.829 232.011 245.829C233.631 245.829 234.571 245.229 234.791 244.009H236.451C236.091 246.109 234.351 247.209 231.991 247.209ZM228.711 240.789H234.831C234.671 238.629 233.551 237.769 231.831 237.769C230.131 237.769 228.991 238.929 228.711 240.789ZM239.078 247.029V236.569H240.738V238.229C241.218 237.249 242.378 236.389 244.098 236.389C246.258 236.389 247.778 237.569 247.778 240.609V247.029H246.118V240.489C246.118 238.649 245.338 237.829 243.658 237.829C242.118 237.829 240.738 238.809 240.738 240.689V247.029H239.078ZM251.072 247.029V236.569H252.732V247.029H251.072ZM251.872 234.389C251.272 234.389 250.772 233.889 250.772 233.289C250.772 232.689 251.272 232.189 251.872 232.189C252.472 232.189 252.972 232.689 252.972 233.289C252.972 233.889 252.472 234.389 251.872 234.389ZM254.869 247.029V246.789L261.049 237.969H255.469V236.569H263.609V236.869L257.569 245.569H263.529V247.029H254.869ZM268.515 247.209C266.575 247.209 265.035 246.269 265.035 244.129C265.035 241.709 267.595 240.889 270.275 240.889H271.775V240.129C271.775 238.469 271.135 237.769 269.535 237.769C268.095 237.769 267.295 238.369 267.135 239.649H265.475C265.695 237.269 267.595 236.389 269.615 236.389C271.615 236.389 273.435 237.209 273.435 240.129V247.029H271.775V245.709C270.995 246.689 270.055 247.209 268.515 247.209ZM268.675 245.889C270.435 245.889 271.775 244.989 271.775 243.369V242.069H270.335C268.235 242.069 266.695 242.589 266.695 244.129C266.695 245.209 267.215 245.889 268.675 245.889ZM276.696 247.029V236.569H278.356V238.449C279.016 237.269 279.916 236.449 281.796 236.389V237.949C279.696 238.049 278.356 238.709 278.356 241.289V247.029H276.696ZM292.128 247.209C290.188 247.209 288.648 246.269 288.648 244.129C288.648 241.709 291.208 240.889 293.888 240.889H295.388V240.129C295.388 238.469 294.748 237.769 293.148 237.769C291.708 237.769 290.908 238.369 290.748 239.649H289.088C289.308 237.269 291.208 236.389 293.228 236.389C295.228 236.389 297.048 237.209 297.048 240.129V247.029H295.388V245.709C294.608 246.689 293.668 247.209 292.128 247.209ZM292.288 245.889C294.048 245.889 295.388 244.989 295.388 243.369V242.069H293.948C291.848 242.069 290.308 242.589 290.308 244.129C290.308 245.209 290.828 245.889 292.288 245.889ZM309.882 247.209C306.922 247.209 304.822 245.129 304.822 241.909V241.749C304.822 238.589 306.842 236.389 309.722 236.389C312.142 236.389 314.422 237.849 314.422 241.589V242.129H306.542C306.622 244.509 307.762 245.829 309.902 245.829C311.522 245.829 312.462 245.229 312.682 244.009H314.342C313.982 246.109 312.242 247.209 309.882 247.209ZM306.602 240.789H312.722C312.562 238.629 311.442 237.769 309.722 237.769C308.022 237.769 306.882 238.929 306.602 240.789ZM324.489 250.669V245.229C323.889 246.249 322.429 247.209 320.909 247.209C318.169 247.209 316.189 245.269 316.189 242.009V241.849C316.189 238.649 318.189 236.389 321.069 236.389C322.809 236.389 323.889 237.229 324.489 238.249V236.569H326.149V250.669H324.489ZM321.089 245.829C323.029 245.829 324.549 244.549 324.549 241.869V241.709C324.549 239.029 323.269 237.769 321.229 237.769C319.149 237.769 317.909 239.229 317.909 241.769V241.929C317.909 244.569 319.329 245.829 321.089 245.829ZM333.048 247.209C330.968 247.209 329.408 246.069 329.408 243.189V236.569H331.068V243.109C331.068 244.949 331.848 245.769 333.488 245.769C334.968 245.769 336.368 244.789 336.368 242.909V236.569H338.028V247.029H336.368V245.369C335.888 246.349 334.728 247.209 333.048 247.209ZM341.423 247.029V236.569H343.083V247.029H341.423ZM342.223 234.389C341.623 234.389 341.123 233.889 341.123 233.289C341.123 232.689 341.623 232.189 342.223 232.189C342.823 232.189 343.323 232.689 343.323 233.289C343.323 233.889 342.823 234.389 342.223 234.389ZM346.481 250.669V236.569H348.141V238.329C348.741 237.309 350.161 236.389 351.681 236.389C354.421 236.389 356.441 238.389 356.441 241.649V241.809C356.441 245.009 354.561 247.209 351.681 247.209C349.961 247.209 348.741 246.349 348.141 245.309V250.669H346.481ZM351.521 245.829C353.601 245.829 354.721 244.429 354.721 241.889V241.729C354.721 239.089 353.261 237.769 351.501 237.769C349.561 237.769 348.081 239.049 348.081 241.729V241.889C348.081 244.569 349.481 245.829 351.521 245.829ZM363.3 247.209C360.34 247.209 358.24 245.129 358.24 241.909V241.749C358.24 238.589 360.26 236.389 363.14 236.389C365.56 236.389 367.84 237.849 367.84 241.589V242.129H359.96C360.04 244.509 361.18 245.829 363.32 245.829C364.94 245.829 365.88 245.229 366.1 244.009H367.76C367.4 246.109 365.66 247.209 363.3 247.209ZM360.02 240.789H366.14C365.98 238.629 364.86 237.769 363.14 237.769C361.44 237.769 360.3 238.929 360.02 240.789ZM379.62 247.209C376.88 247.209 374.9 245.269 374.9 242.009V241.849C374.9 238.649 376.9 236.389 379.78 236.389C381.52 236.389 382.6 237.229 383.2 238.249V231.569H384.86V247.029H383.2V245.229C382.6 246.249 381.14 247.209 379.62 247.209ZM379.8 245.829C381.74 245.829 383.26 244.549 383.26 241.869V241.709C383.26 239.029 381.98 237.769 379.94 237.769C377.86 237.769 376.62 239.229 376.62 241.769V241.929C376.62 244.569 378.04 245.829 379.8 245.829ZM392.499 247.209C389.539 247.209 387.439 245.129 387.439 241.909V241.749C387.439 238.589 389.459 236.389 392.339 236.389C394.759 236.389 397.039 237.849 397.039 241.589V242.129H389.159C389.239 244.509 390.379 245.829 392.519 245.829C394.139 245.829 395.079 245.229 395.299 244.009H396.959C396.599 246.109 394.859 247.209 392.499 247.209ZM389.219 240.789H395.339C395.179 238.629 394.059 237.769 392.339 237.769C390.639 237.769 389.499 238.929 389.219 240.789ZM408.119 247.209C405.619 247.209 404.119 245.949 404.019 243.809H405.639C405.759 245.049 406.419 245.829 408.099 245.829C409.679 245.829 410.379 245.289 410.379 244.169C410.379 243.069 409.559 242.709 407.939 242.409C405.219 241.909 404.299 241.149 404.299 239.329C404.299 237.389 406.199 236.389 407.839 236.389C409.719 236.389 411.339 237.149 411.619 239.409H410.019C409.779 238.269 409.139 237.769 407.819 237.769C406.619 237.769 405.839 238.369 405.839 239.269C405.839 240.209 406.359 240.589 408.279 240.929C410.439 241.329 411.959 241.809 411.959 244.029C411.959 245.929 410.659 247.209 408.119 247.209ZM418.029 247.209C415.949 247.209 414.389 246.069 414.389 243.189V236.569H416.049V243.109C416.049 244.949 416.829 245.769 418.469 245.769C419.949 245.769 421.349 244.789 421.349 242.909V236.569H423.009V247.029H421.349V245.369C420.869 246.349 419.709 247.209 418.029 247.209ZM426.364 250.669V236.569H428.024V238.329C428.624 237.309 430.044 236.389 431.564 236.389C434.304 236.389 436.324 238.389 436.324 241.649V241.809C436.324 245.009 434.444 247.209 431.564 247.209C429.844 247.209 428.624 246.349 428.024 245.309V250.669H426.364ZM431.404 245.829C433.484 245.829 434.604 244.429 434.604 241.889V241.729C434.604 239.089 433.144 237.769 431.384 237.769C429.444 237.769 427.964 239.049 427.964 241.729V241.889C427.964 244.569 429.364 245.829 431.404 245.829ZM443.263 245.829C445.363 245.829 446.683 244.249 446.683 241.889V241.749C446.683 239.329 445.343 237.769 443.263 237.769C441.163 237.769 439.843 239.329 439.843 241.729V241.889C439.843 244.269 441.143 245.829 443.263 245.829ZM443.243 247.209C440.263 247.209 438.123 244.949 438.123 241.889V241.729C438.123 238.589 440.303 236.389 443.263 236.389C446.223 236.389 448.403 238.569 448.403 241.709V241.869C448.403 245.029 446.223 247.209 443.243 247.209ZM450.973 247.029V236.569H452.633V238.449C453.293 237.269 454.193 236.449 456.073 236.389V237.949C453.973 238.049 452.633 238.709 452.633 241.289V247.029H450.973ZM461.77 247.169C459.87 247.169 458.95 246.049 458.95 244.409V237.969H457.45V236.569H458.95V234.189H460.61V236.569H463.05V237.969H460.61V244.249C460.61 245.269 461.07 245.769 461.91 245.769C462.43 245.769 462.83 245.689 463.19 245.549V246.949C462.85 247.069 462.45 247.169 461.77 247.169ZM469.98 247.209C467.02 247.209 464.92 245.129 464.92 241.909V241.749C464.92 238.589 466.94 236.389 469.82 236.389C472.24 236.389 474.52 237.849 474.52 241.589V242.129H466.64C466.72 244.509 467.86 245.829 470 245.829C471.62 245.829 472.56 245.229 472.78 244.009H474.44C474.08 246.109 472.34 247.209 469.98 247.209ZM466.7 240.789H472.82C472.66 238.629 471.54 237.769 469.82 237.769C468.12 237.769 466.98 238.929 466.7 240.789ZM486.3 247.209C483.56 247.209 481.58 245.269 481.58 242.009V241.849C481.58 238.649 483.58 236.389 486.46 236.389C488.2 236.389 489.28 237.229 489.88 238.249V231.569H491.54V247.029H489.88V245.229C489.28 246.249 487.82 247.209 486.3 247.209ZM486.48 245.829C488.42 245.829 489.94 244.549 489.94 241.869V241.709C489.94 239.029 488.66 237.769 486.62 237.769C484.54 237.769 483.3 239.229 483.3 241.769V241.929C483.3 244.569 484.72 245.829 486.48 245.829ZM499.259 245.829C501.359 245.829 502.679 244.249 502.679 241.889V241.749C502.679 239.329 501.339 237.769 499.259 237.769C497.159 237.769 495.839 239.329 495.839 241.729V241.889C495.839 244.269 497.139 245.829 499.259 245.829ZM499.239 247.209C496.259 247.209 494.119 244.949 494.119 241.889V241.729C494.119 238.589 496.299 236.389 499.259 236.389C502.219 236.389 504.399 238.569 504.399 241.709V241.869C504.399 245.029 502.219 247.209 499.239 247.209ZM514.882 247.209C512.942 247.209 511.402 246.269 511.402 244.129C511.402 241.709 513.962 240.889 516.642 240.889H518.142V240.129C518.142 238.469 517.502 237.769 515.902 237.769C514.462 237.769 513.662 238.369 513.502 239.649H511.842C512.062 237.269 513.962 236.389 515.982 236.389C517.982 236.389 519.802 237.209 519.802 240.129V247.029H518.142V245.709C517.362 246.689 516.422 247.209 514.882 247.209ZM515.042 245.889C516.802 245.889 518.142 244.989 518.142 243.369V242.069H516.702C514.602 242.069 513.062 242.589 513.062 244.129C513.062 245.209 513.582 245.889 515.042 245.889ZM523.063 250.669V236.569H524.723V238.329C525.323 237.309 526.743 236.389 528.263 236.389C531.003 236.389 533.023 238.389 533.023 241.649V241.809C533.023 245.009 531.143 247.209 528.263 247.209C526.543 247.209 525.323 246.349 524.723 245.309V250.669H523.063ZM528.103 245.829C530.183 245.829 531.303 244.429 531.303 241.889V241.729C531.303 239.089 529.843 237.769 528.083 237.769C526.143 237.769 524.663 239.049 524.663 241.729V241.889C524.663 244.569 526.063 245.829 528.103 245.829ZM535.602 250.669V236.569H537.262V238.329C537.862 237.309 539.282 236.389 540.802 236.389C543.542 236.389 545.562 238.389 545.562 241.649V241.809C545.562 245.009 543.682 247.209 540.802 247.209C539.082 247.209 537.862 246.349 537.262 245.309V250.669H535.602ZM540.642 245.829C542.722 245.829 543.842 244.429 543.842 241.889V241.729C543.842 239.089 542.382 237.769 540.622 237.769C538.682 237.769 537.202 239.049 537.202 241.729V241.889C537.202 244.569 538.602 245.829 540.642 245.829ZM547.87 249.489L546.79 248.929L548.71 244.549L550.33 245.309L547.87 249.489ZM60.68 277.029V266.569H62.34V268.449C63 267.269 63.9 266.449 65.78 266.389V267.949C63.68 268.049 62.34 268.709 62.34 271.289V277.029H60.68ZM72.1866 277.209C69.2266 277.209 67.1266 275.129 67.1266 271.909V271.749C67.1266 268.589 69.1466 266.389 72.0266 266.389C74.4466 266.389 76.7266 267.849 76.7266 271.589V272.129H68.8466C68.9266 274.509 70.0666 275.829 72.2066 275.829C73.8266 275.829 74.7666 275.229 74.9866 274.009H76.6466C76.2866 276.109 74.5466 277.209 72.1866 277.209ZM68.9066 270.789H75.0266C74.8666 268.629 73.7466 267.769 72.0266 267.769C70.3266 267.769 69.1866 268.929 68.9066 270.789ZM82.6114 277.209C80.1114 277.209 78.6114 275.949 78.5114 273.809H80.1314C80.2514 275.049 80.9114 275.829 82.5914 275.829C84.1714 275.829 84.8714 275.289 84.8714 274.169C84.8714 273.069 84.0514 272.709 82.4314 272.409C79.7114 271.909 78.7914 271.149 78.7914 269.329C78.7914 267.389 80.6914 266.389 82.3314 266.389C84.2114 266.389 85.8314 267.149 86.1114 269.409H84.5114C84.2714 268.269 83.6314 267.769 82.3114 267.769C81.1114 267.769 80.3314 268.369 80.3314 269.269C80.3314 270.209 80.8514 270.589 82.7714 270.929C84.9314 271.329 86.4514 271.809 86.4514 274.029C86.4514 275.929 85.1514 277.209 82.6114 277.209ZM93.3408 275.829C95.4408 275.829 96.7608 274.249 96.7608 271.889V271.749C96.7608 269.329 95.4208 267.769 93.3408 267.769C91.2408 267.769 89.9208 269.329 89.9208 271.729V271.889C89.9208 274.269 91.2208 275.829 93.3408 275.829ZM93.3208 277.209C90.3408 277.209 88.2008 274.949 88.2008 271.889V271.729C88.2008 268.589 90.3808 266.389 93.3408 266.389C96.3008 266.389 98.4808 268.569 98.4808 271.709V271.869C98.4808 275.029 96.3008 277.209 93.3208 277.209ZM101.091 277.029V261.569H102.771V277.029H101.091ZM108.788 277.029L104.988 266.569H106.788L109.888 275.349L112.948 266.569H114.668L110.908 277.029H108.788ZM120.839 277.209C117.879 277.209 115.779 275.129 115.779 271.909V271.749C115.779 268.589 117.799 266.389 120.679 266.389C123.099 266.389 125.379 267.849 125.379 271.589V272.129H117.499C117.579 274.509 118.719 275.829 120.859 275.829C122.479 275.829 123.419 275.229 123.639 274.009H125.299C124.939 276.109 123.199 277.209 120.839 277.209ZM117.559 270.789H123.679C123.519 268.629 122.399 267.769 120.679 267.769C118.979 267.769 117.839 268.929 117.559 270.789ZM127.926 277.029V266.569H129.586V268.449C130.246 267.269 131.146 266.449 133.026 266.389V267.949C130.926 268.049 129.586 268.709 129.586 271.289V277.029H127.926ZM137.968 277.209C136.028 277.209 134.488 276.269 134.488 274.129C134.488 271.709 137.048 270.889 139.728 270.889H141.228V270.129C141.228 268.469 140.588 267.769 138.988 267.769C137.548 267.769 136.748 268.369 136.588 269.649H134.928C135.148 267.269 137.048 266.389 139.068 266.389C141.068 266.389 142.888 267.209 142.888 270.129V277.029H141.228V275.709C140.448 276.689 139.508 277.209 137.968 277.209ZM138.128 275.889C139.888 275.889 141.228 274.989 141.228 273.369V272.069H139.788C137.688 272.069 136.148 272.589 136.148 274.129C136.148 275.209 136.668 275.889 138.128 275.889ZM146.149 277.029V266.569H147.809V268.169C148.289 267.189 149.429 266.389 150.929 266.389C152.269 266.389 153.449 266.949 153.989 268.349C154.709 266.989 156.269 266.389 157.569 266.389C159.449 266.389 161.089 267.509 161.089 270.549V277.029H159.429V270.429C159.429 268.589 158.649 267.829 157.209 267.829C155.849 267.829 154.449 268.749 154.449 270.629V277.029H152.789V270.429C152.789 268.589 152.009 267.829 150.569 267.829C149.209 267.829 147.809 268.749 147.809 270.629V277.029H146.149ZM169.645 277.029V266.569H171.305V268.169C171.785 267.189 172.925 266.389 174.425 266.389C175.765 266.389 176.945 266.949 177.485 268.349C178.205 266.989 179.765 266.389 181.065 266.389C182.945 266.389 184.585 267.509 184.585 270.549V277.029H182.925V270.429C182.925 268.589 182.145 267.829 180.705 267.829C179.345 267.829 177.945 268.749 177.945 270.629V277.029H176.285V270.429C176.285 268.589 175.505 267.829 174.065 267.829C172.705 267.829 171.305 268.749 171.305 270.629V277.029H169.645ZM192.128 277.209C189.168 277.209 187.068 275.129 187.068 271.909V271.749C187.068 268.589 189.088 266.389 191.968 266.389C194.388 266.389 196.668 267.849 196.668 271.589V272.129H188.788C188.868 274.509 190.008 275.829 192.148 275.829C193.768 275.829 194.708 275.229 194.928 274.009H196.588C196.228 276.109 194.488 277.209 192.128 277.209ZM188.848 270.789H194.968C194.808 268.629 193.688 267.769 191.968 267.769C190.268 267.769 189.128 268.929 188.848 270.789ZM202.755 277.209C200.675 277.209 199.115 276.069 199.115 273.189V266.569H200.775V273.109C200.775 274.949 201.555 275.769 203.195 275.769C204.675 275.769 206.075 274.789 206.075 272.909V266.569H207.735V277.029H206.075V275.369C205.595 276.349 204.435 277.209 202.755 277.209ZM216.383 280.669V266.569H218.043V268.329C218.643 267.309 220.063 266.389 221.583 266.389C224.323 266.389 226.343 268.389 226.343 271.649V271.809C226.343 275.009 224.463 277.209 221.583 277.209C219.863 277.209 218.643 276.349 218.043 275.309V280.669H216.383ZM221.423 275.829C223.503 275.829 224.623 274.429 224.623 271.889V271.729C224.623 269.089 223.163 267.769 221.403 267.769C219.463 267.769 217.983 269.049 217.983 271.729V271.889C217.983 274.569 219.383 275.829 221.423 275.829ZM228.922 277.029V266.569H230.582V268.449C231.242 267.269 232.142 266.449 234.022 266.389V267.949C231.922 268.049 230.582 268.709 230.582 271.289V277.029H228.922ZM240.509 275.829C242.609 275.829 243.929 274.249 243.929 271.889V271.749C243.929 269.329 242.589 267.769 240.509 267.769C238.409 267.769 237.089 269.329 237.089 271.729V271.889C237.089 274.269 238.389 275.829 240.509 275.829ZM240.489 277.209C237.509 277.209 235.369 274.949 235.369 271.889V271.729C235.369 268.589 237.549 266.389 240.509 266.389C243.469 266.389 245.649 268.569 245.649 271.709V271.869C245.649 275.029 243.469 277.209 240.489 277.209ZM253.419 277.209C251.719 277.209 250.479 276.349 249.879 275.309V277.029H248.219V261.569H249.879V268.329C250.479 267.309 251.899 266.389 253.419 266.389C256.159 266.389 258.179 268.389 258.179 271.649V271.809C258.179 275.009 256.299 277.209 253.419 277.209ZM253.259 275.829C255.339 275.829 256.459 274.429 256.459 271.889V271.729C256.459 269.089 254.999 267.769 253.239 267.769C251.299 267.769 249.819 269.049 249.819 271.729V271.889C249.819 274.569 251.219 275.829 253.259 275.829ZM260.798 277.029V261.569H262.478V277.029H260.798ZM270.155 277.209C267.195 277.209 265.095 275.129 265.095 271.909V271.749C265.095 268.589 267.115 266.389 269.995 266.389C272.415 266.389 274.695 267.849 274.695 271.589V272.129H266.815C266.895 274.509 268.035 275.829 270.175 275.829C271.795 275.829 272.735 275.229 272.955 274.009H274.615C274.255 276.109 272.515 277.209 270.155 277.209ZM266.875 270.789H272.995C272.835 268.629 271.715 267.769 269.995 267.769C268.295 267.769 267.155 268.929 266.875 270.789ZM277.243 277.029V266.569H278.903V268.169C279.383 267.189 280.523 266.389 282.023 266.389C283.363 266.389 284.543 266.949 285.083 268.349C285.803 266.989 287.363 266.389 288.663 266.389C290.543 266.389 292.183 267.509 292.183 270.549V277.029H290.523V270.429C290.523 268.589 289.743 267.829 288.303 267.829C286.943 267.829 285.543 268.749 285.543 270.629V277.029H283.883V270.429C283.883 268.589 283.103 267.829 281.663 267.829C280.303 267.829 278.903 268.749 278.903 270.629V277.029H277.243ZM298.066 277.209C296.126 277.209 294.586 276.269 294.586 274.129C294.586 271.709 297.146 270.889 299.826 270.889H301.326V270.129C301.326 268.469 300.686 267.769 299.086 267.769C297.646 267.769 296.846 268.369 296.686 269.649H295.026C295.246 267.269 297.146 266.389 299.166 266.389C301.166 266.389 302.986 267.209 302.986 270.129V277.029H301.326V275.709C300.546 276.689 299.606 277.209 298.066 277.209ZM298.226 275.889C299.986 275.889 301.326 274.989 301.326 273.369V272.069H299.886C297.786 272.069 296.246 272.589 296.246 274.129C296.246 275.209 296.766 275.889 298.226 275.889ZM315.879 277.209C312.959 277.209 310.759 275.149 310.759 271.909V271.749C310.759 268.549 313.039 266.389 315.839 266.389C318.019 266.389 320.059 267.389 320.379 270.049H318.739C318.479 268.389 317.279 267.769 315.839 267.769C313.939 267.769 312.479 269.289 312.479 271.749V271.909C312.479 274.469 313.879 275.829 315.899 275.829C317.379 275.829 318.719 274.969 318.899 273.269H320.439C320.219 275.529 318.399 277.209 315.879 277.209ZM327.306 275.829C329.406 275.829 330.726 274.249 330.726 271.889V271.749C330.726 269.329 329.386 267.769 327.306 267.769C325.206 267.769 323.886 269.329 323.886 271.729V271.889C323.886 274.269 325.186 275.829 327.306 275.829ZM327.286 277.209C324.306 277.209 322.166 274.949 322.166 271.889V271.729C322.166 268.589 324.346 266.389 327.306 266.389C330.266 266.389 332.446 268.569 332.446 271.709V271.869C332.446 275.029 330.266 277.209 327.286 277.209ZM335.016 277.029V266.569H336.676V268.169C337.156 267.189 338.296 266.389 339.796 266.389C341.136 266.389 342.316 266.949 342.856 268.349C343.576 266.989 345.136 266.389 346.436 266.389C348.316 266.389 349.956 267.509 349.956 270.549V277.029H348.296V270.429C348.296 268.589 347.516 267.829 346.076 267.829C344.716 267.829 343.316 268.749 343.316 270.629V277.029H341.656V270.429C341.656 268.589 340.876 267.829 339.436 267.829C338.076 267.829 336.676 268.749 336.676 270.629V277.029H335.016ZM358.512 277.029V266.569H360.172V268.449C360.832 267.269 361.732 266.449 363.612 266.389V267.949C361.512 268.049 360.172 268.709 360.172 271.289V277.029H358.512ZM368.554 277.209C366.614 277.209 365.074 276.269 365.074 274.129C365.074 271.709 367.634 270.889 370.314 270.889H371.814V270.129C371.814 268.469 371.174 267.769 369.574 267.769C368.134 267.769 367.334 268.369 367.174 269.649H365.514C365.734 267.269 367.634 266.389 369.654 266.389C371.654 266.389 373.474 267.209 373.474 270.129V277.029H371.814V275.709C371.034 276.689 370.094 277.209 368.554 277.209ZM368.714 275.889C370.474 275.889 371.814 274.989 371.814 273.369V272.069H370.374C368.274 272.069 366.734 272.589 366.734 274.129C366.734 275.209 367.254 275.889 368.714 275.889ZM376.735 280.669V266.569H378.395V268.329C378.995 267.309 380.415 266.389 381.935 266.389C384.675 266.389 386.695 268.389 386.695 271.649V271.809C386.695 275.009 384.815 277.209 381.935 277.209C380.215 277.209 378.995 276.349 378.395 275.309V280.669H376.735ZM381.775 275.829C383.855 275.829 384.975 274.429 384.975 271.889V271.729C384.975 269.089 383.515 267.769 381.755 267.769C379.815 267.769 378.335 269.049 378.335 271.729V271.889C378.335 274.569 379.735 275.829 381.775 275.829ZM389.314 277.029V266.569H390.974V277.029H389.314ZM390.114 264.389C389.514 264.389 389.014 263.889 389.014 263.289C389.014 262.689 389.514 262.189 390.114 262.189C390.714 262.189 391.214 262.689 391.214 263.289C391.214 263.889 390.714 264.389 390.114 264.389ZM398.311 277.209C395.571 277.209 393.591 275.269 393.591 272.009V271.849C393.591 268.649 395.591 266.389 398.471 266.389C400.211 266.389 401.291 267.229 401.891 268.249V261.569H403.551V277.029H401.891V275.229C401.291 276.249 399.831 277.209 398.311 277.209ZM398.491 275.829C400.431 275.829 401.951 274.549 401.951 271.869V271.709C401.951 269.029 400.671 267.769 398.631 267.769C396.551 267.769 395.311 269.229 395.311 271.769V271.929C395.311 274.569 396.731 275.829 398.491 275.829ZM411.19 277.209C408.23 277.209 406.13 275.129 406.13 271.909V271.749C406.13 268.589 408.15 266.389 411.03 266.389C413.45 266.389 415.73 267.849 415.73 271.589V272.129H407.85C407.93 274.509 409.07 275.829 411.21 275.829C412.83 275.829 413.77 275.229 413.99 274.009H415.65C415.29 276.109 413.55 277.209 411.19 277.209ZM407.91 270.789H414.03C413.87 268.629 412.75 267.769 411.03 267.769C409.33 267.769 408.19 268.929 407.91 270.789ZM416.92 277.029V276.789L423.1 267.969H417.52V266.569H425.66V266.869L419.62 275.569H425.58V277.029H416.92ZM437.421 277.209C434.461 277.209 432.361 275.129 432.361 271.909V271.749C432.361 268.589 434.381 266.389 437.261 266.389C439.681 266.389 441.961 267.849 441.961 271.589V272.129H434.081C434.161 274.509 435.301 275.829 437.441 275.829C439.061 275.829 440.001 275.229 440.221 274.009H441.881C441.521 276.109 439.781 277.209 437.421 277.209ZM434.141 270.789H440.261C440.101 268.629 438.981 267.769 437.261 267.769C435.561 267.769 434.421 268.929 434.141 270.789ZM454.081 277.209C451.121 277.209 449.021 275.129 449.021 271.909V271.749C449.021 268.589 451.041 266.389 453.921 266.389C456.341 266.389 458.621 267.849 458.621 271.589V272.129H450.741C450.821 274.509 451.961 275.829 454.101 275.829C455.721 275.829 456.661 275.229 456.881 274.009H458.541C458.181 276.109 456.441 277.209 454.081 277.209ZM450.801 270.789H456.921C456.761 268.629 455.641 267.769 453.921 267.769C452.221 267.769 451.081 268.929 450.801 270.789ZM459.755 277.029L463.495 271.649L459.995 266.569H461.935L464.495 270.369L467.035 266.569H468.835L465.375 271.529L469.195 277.029H467.235L464.415 272.809L461.535 277.029H459.755ZM474.622 277.169C472.722 277.169 471.802 276.049 471.802 274.409V267.969H470.302V266.569H471.802V264.189H473.462V266.569H475.902V267.969H473.462V274.249C473.462 275.269 473.922 275.769 474.762 275.769C475.282 275.769 475.682 275.689 476.042 275.549V276.949C475.702 277.069 475.302 277.169 474.622 277.169ZM478.551 277.029V266.569H480.211V268.449C480.871 267.269 481.771 266.449 483.651 266.389V267.949C481.551 268.049 480.211 268.709 480.211 271.289V277.029H478.551ZM490.058 277.209C487.098 277.209 484.998 275.129 484.998 271.909V271.749C484.998 268.589 487.018 266.389 489.898 266.389C492.318 266.389 494.598 267.849 494.598 271.589V272.129H486.718C486.798 274.509 487.938 275.829 490.078 275.829C491.698 275.829 492.638 275.229 492.858 274.009H494.518C494.158 276.109 492.418 277.209 490.058 277.209ZM486.778 270.789H492.898C492.738 268.629 491.618 267.769 489.898 267.769C488.198 267.769 487.058 268.929 486.778 270.789ZM497.145 277.029V266.569H498.805V268.169C499.285 267.189 500.425 266.389 501.925 266.389C503.265 266.389 504.445 266.949 504.985 268.349C505.705 266.989 507.265 266.389 508.565 266.389C510.445 266.389 512.085 267.509 512.085 270.549V277.029H510.425V270.429C510.425 268.589 509.645 267.829 508.205 267.829C506.845 267.829 505.445 268.749 505.445 270.629V277.029H503.785V270.429C503.785 268.589 503.005 267.829 501.565 267.829C500.205 267.829 498.805 268.749 498.805 270.629V277.029H497.145ZM517.968 277.209C516.028 277.209 514.488 276.269 514.488 274.129C514.488 271.709 517.048 270.889 519.728 270.889H521.228V270.129C521.228 268.469 520.588 267.769 518.988 267.769C517.548 267.769 516.748 268.369 516.588 269.649H514.928C515.148 267.269 517.048 266.389 519.068 266.389C521.068 266.389 522.888 267.209 522.888 270.129V277.029H521.228V275.709C520.448 276.689 519.508 277.209 517.968 277.209ZM518.128 275.889C519.888 275.889 521.228 274.989 521.228 273.369V272.069H519.788C517.688 272.069 516.148 272.589 516.148 274.129C516.148 275.209 516.668 275.889 518.128 275.889ZM63.3 307.209C61.36 307.209 59.82 306.269 59.82 304.129C59.82 301.709 62.38 300.889 65.06 300.889H66.56V300.129C66.56 298.469 65.92 297.769 64.32 297.769C62.88 297.769 62.08 298.369 61.92 299.649H60.26C60.48 297.269 62.38 296.389 64.4 296.389C66.4 296.389 68.22 297.209 68.22 300.129V307.029H66.56V305.709C65.78 306.689 64.84 307.209 63.3 307.209ZM63.46 305.889C65.22 305.889 66.56 304.989 66.56 303.369V302.069H65.12C63.02 302.069 61.48 302.589 61.48 304.129C61.48 305.209 62 305.889 63.46 305.889ZM74.6608 307.169C72.7608 307.169 71.8408 306.049 71.8408 304.409V297.969H70.3408V296.569H71.8408V294.189H73.5008V296.569H75.9408V297.969H73.5008V304.249C73.5008 305.269 73.9608 305.769 74.8008 305.769C75.3208 305.769 75.7208 305.689 76.0808 305.549V306.949C75.7408 307.069 75.3408 307.169 74.6608 307.169ZM82.8702 307.209C79.9102 307.209 77.8102 305.129 77.8102 301.909V301.749C77.8102 298.589 79.8302 296.389 82.7102 296.389C85.1302 296.389 87.4102 297.849 87.4102 301.589V302.129H79.5302C79.6102 304.509 80.7502 305.829 82.8902 305.829C84.5102 305.829 85.4502 305.229 85.6702 304.009H87.3302C86.9702 306.109 85.2302 307.209 82.8702 307.209ZM79.5902 300.789H85.7102C85.5502 298.629 84.4302 297.769 82.7102 297.769C81.0102 297.769 79.8702 298.929 79.5902 300.789ZM89.9573 307.029V296.569H91.6173V298.229C92.0973 297.249 93.2573 296.389 94.9773 296.389C97.1373 296.389 98.6573 297.569 98.6573 300.609V307.029H96.9973V300.489C96.9973 298.649 96.2173 297.829 94.5373 297.829C92.9973 297.829 91.6173 298.809 91.6173 300.689V307.029H89.9573ZM105.95 311.309C104.79 311.309 104.03 310.629 103.95 309.629H105.03C105.11 310.009 105.39 310.349 105.89 310.349C106.39 310.349 106.69 310.049 106.69 309.629C106.69 309.209 106.39 308.949 105.97 308.949C105.71 308.949 105.51 309.049 105.41 309.109L104.77 308.549L105.53 307.169C102.97 306.869 101.13 304.889 101.13 301.909V301.749C101.13 298.549 103.41 296.389 106.21 296.389C108.39 296.389 110.43 297.389 110.75 300.049H109.11C108.85 298.389 107.65 297.769 106.21 297.769C104.31 297.769 102.85 299.289 102.85 301.749V301.909C102.85 304.469 104.25 305.829 106.27 305.829C107.75 305.829 109.09 304.969 109.27 303.269H110.81C110.59 305.429 108.93 307.049 106.57 307.189L106.09 308.089C107.01 307.969 107.97 308.489 107.97 309.709C107.97 310.789 107.03 311.309 105.95 311.309ZM115.937 307.209C113.997 307.209 112.457 306.269 112.457 304.129C112.457 301.709 115.017 300.889 117.697 300.889H119.197V300.129C119.197 298.469 118.557 297.769 116.957 297.769C115.517 297.769 114.717 298.369 114.557 299.649H112.897C113.117 297.269 115.017 296.389 117.037 296.389C119.037 296.389 120.857 297.209 120.857 300.129V307.029H119.197V305.709C118.417 306.689 117.477 307.209 115.937 307.209ZM116.097 305.889C117.857 305.889 119.197 304.989 119.197 303.369V302.069H117.757C115.657 302.069 114.117 302.589 114.117 304.129C114.117 305.209 114.637 305.889 116.097 305.889ZM118.137 294.649C117.277 294.649 116.557 293.789 115.977 293.789C115.597 293.789 115.277 294.169 115.177 294.689H113.977C114.137 293.269 114.957 292.369 115.997 292.369C116.837 292.369 117.557 293.229 118.137 293.229C118.517 293.229 118.837 292.849 118.937 292.329H120.137C119.977 293.749 119.157 294.649 118.137 294.649ZM128.478 305.829C130.578 305.829 131.898 304.249 131.898 301.889V301.749C131.898 299.329 130.558 297.769 128.478 297.769C126.378 297.769 125.058 299.329 125.058 301.729V301.889C125.058 304.269 126.358 305.829 128.478 305.829ZM128.458 307.209C125.478 307.209 123.338 304.949 123.338 301.889V301.729C123.338 298.589 125.518 296.389 128.478 296.389C131.438 296.389 133.618 298.569 133.618 301.709V301.869C133.618 305.029 131.438 307.209 128.458 307.209ZM135.8 309.489L134.72 308.929L136.64 304.549L138.26 305.309L135.8 309.489ZM146.618 307.029V296.569H148.278V298.449C148.938 297.269 149.838 296.449 151.718 296.389V297.949C149.618 298.049 148.278 298.709 148.278 301.289V307.029H146.618ZM158.124 307.209C155.164 307.209 153.064 305.129 153.064 301.909V301.749C153.064 298.589 155.084 296.389 157.964 296.389C160.384 296.389 162.664 297.849 162.664 301.589V302.129H154.784C154.864 304.509 156.004 305.829 158.144 305.829C159.764 305.829 160.704 305.229 160.924 304.009H162.584C162.224 306.109 160.484 307.209 158.124 307.209ZM154.844 300.789H160.964C160.804 298.629 159.684 297.769 157.964 297.769C156.264 297.769 155.124 298.929 154.844 300.789ZM169.551 307.209C166.631 307.209 164.431 305.149 164.431 301.909V301.749C164.431 298.549 166.711 296.389 169.511 296.389C171.691 296.389 173.731 297.389 174.051 300.049H172.411C172.151 298.389 170.951 297.769 169.511 297.769C167.611 297.769 166.151 299.289 166.151 301.749V301.909C166.151 304.469 167.551 305.829 169.571 305.829C171.051 305.829 172.391 304.969 172.571 303.269H174.111C173.891 305.529 172.071 307.209 169.551 307.209ZM180.978 305.829C183.078 305.829 184.398 304.249 184.398 301.889V301.749C184.398 299.329 183.058 297.769 180.978 297.769C178.878 297.769 177.558 299.329 177.558 301.729V301.889C177.558 304.269 178.858 305.829 180.978 305.829ZM180.958 307.209C177.978 307.209 175.838 304.949 175.838 301.889V301.729C175.838 298.589 178.018 296.389 180.978 296.389C183.938 296.389 186.118 298.569 186.118 301.709V301.869C186.118 305.029 183.938 307.209 180.958 307.209ZM188.688 307.029V296.569H190.348V298.169C190.828 297.189 191.968 296.389 193.468 296.389C194.808 296.389 195.988 296.949 196.528 298.349C197.248 296.989 198.808 296.389 200.108 296.389C201.988 296.389 203.628 297.509 203.628 300.549V307.029H201.968V300.429C201.968 298.589 201.188 297.829 199.748 297.829C198.388 297.829 196.988 298.749 196.988 300.629V307.029H195.328V300.429C195.328 298.589 194.548 297.829 193.108 297.829C191.748 297.829 190.348 298.749 190.348 300.629V307.029H188.688ZM211.171 307.209C208.211 307.209 206.111 305.129 206.111 301.909V301.749C206.111 298.589 208.131 296.389 211.011 296.389C213.431 296.389 215.711 297.849 215.711 301.589V302.129H207.831C207.911 304.509 209.051 305.829 211.191 305.829C212.811 305.829 213.751 305.229 213.971 304.009H215.631C215.271 306.109 213.531 307.209 211.171 307.209ZM207.891 300.789H214.011C213.851 298.629 212.731 297.769 211.011 297.769C209.311 297.769 208.171 298.929 207.891 300.789ZM218.258 307.029V296.569H219.918V298.229C220.398 297.249 221.558 296.389 223.278 296.389C225.438 296.389 226.958 297.569 226.958 300.609V307.029H225.298V300.489C225.298 298.649 224.518 297.829 222.838 297.829C221.298 297.829 219.918 298.809 219.918 300.689V307.029H218.258ZM234.151 307.209C231.411 307.209 229.431 305.269 229.431 302.009V301.849C229.431 298.649 231.431 296.389 234.311 296.389C236.051 296.389 237.131 297.229 237.731 298.249V291.569H239.391V307.029H237.731V305.229C237.131 306.249 235.671 307.209 234.151 307.209ZM234.331 305.829C236.271 305.829 237.791 304.549 237.791 301.869V301.709C237.791 299.029 236.511 297.769 234.471 297.769C232.391 297.769 231.151 299.229 231.151 301.769V301.929C231.151 304.569 232.571 305.829 234.331 305.829ZM247.11 305.829C249.21 305.829 250.53 304.249 250.53 301.889V301.749C250.53 299.329 249.19 297.769 247.11 297.769C245.01 297.769 243.69 299.329 243.69 301.729V301.889C243.69 304.269 244.99 305.829 247.11 305.829ZM247.09 307.209C244.11 307.209 241.97 304.949 241.97 301.889V301.729C241.97 298.589 244.15 296.389 247.11 296.389C250.07 296.389 252.25 298.569 252.25 301.709V301.869C252.25 305.029 250.07 307.209 247.09 307.209ZM264.474 305.829C266.574 305.829 267.894 304.249 267.894 301.889V301.749C267.894 299.329 266.554 297.769 264.474 297.769C262.374 297.769 261.054 299.329 261.054 301.729V301.889C261.054 304.269 262.354 305.829 264.474 305.829ZM264.454 307.209C261.474 307.209 259.334 304.949 259.334 301.889V301.729C259.334 298.589 261.514 296.389 264.474 296.389C267.434 296.389 269.614 298.569 269.614 301.709V301.869C269.614 305.029 267.434 307.209 264.454 307.209ZM280.097 307.209C278.157 307.209 276.617 306.269 276.617 304.129C276.617 301.709 279.177 300.889 281.857 300.889H283.357V300.129C283.357 298.469 282.717 297.769 281.117 297.769C279.677 297.769 278.877 298.369 278.717 299.649H277.057C277.277 297.269 279.177 296.389 281.197 296.389C283.197 296.389 285.017 297.209 285.017 300.129V307.029H283.357V305.709C282.577 306.689 281.637 307.209 280.097 307.209ZM280.257 305.889C282.017 305.889 283.357 304.989 283.357 303.369V302.069H281.917C279.817 302.069 278.277 302.589 278.277 304.129C278.277 305.209 278.797 305.889 280.257 305.889ZM288.278 310.669V296.569H289.938V298.329C290.538 297.309 291.958 296.389 293.478 296.389C296.218 296.389 298.238 298.389 298.238 301.649V301.809C298.238 305.009 296.358 307.209 293.478 307.209C291.758 307.209 290.538 306.349 289.938 305.309V310.669H288.278ZM293.318 305.829C295.398 305.829 296.518 304.429 296.518 301.889V301.729C296.518 299.089 295.058 297.769 293.298 297.769C291.358 297.769 289.878 299.049 289.878 301.729V301.889C289.878 304.569 291.278 305.829 293.318 305.829ZM300.817 310.669V296.569H302.477V298.329C303.077 297.309 304.497 296.389 306.017 296.389C308.757 296.389 310.777 298.389 310.777 301.649V301.809C310.777 305.009 308.897 307.209 306.017 307.209C304.297 307.209 303.077 306.349 302.477 305.309V310.669H300.817ZM305.857 305.829C307.937 305.829 309.057 304.429 309.057 301.889V301.729C309.057 299.089 307.597 297.769 305.837 297.769C303.897 297.769 302.417 299.049 302.417 301.729V301.889C302.417 304.569 303.817 305.829 305.857 305.829ZM322.929 307.209C319.969 307.209 317.869 305.129 317.869 301.909V301.749C317.869 298.589 319.889 296.389 322.769 296.389C325.189 296.389 327.469 297.849 327.469 301.589V302.129H319.589C319.669 304.509 320.809 305.829 322.949 305.829C324.569 305.829 325.509 305.229 325.729 304.009H327.389C327.029 306.109 325.289 307.209 322.929 307.209ZM319.649 300.789H325.769C325.609 298.629 324.489 297.769 322.769 297.769C321.069 297.769 319.929 298.929 319.649 300.789ZM335.669 307.029V297.969H334.169V296.569H335.669V294.869C335.669 292.749 336.689 291.509 338.749 291.509C339.289 291.509 339.569 291.549 339.889 291.669V293.069C339.589 292.949 339.269 292.889 338.809 292.889C337.749 292.889 337.329 293.629 337.329 294.689V296.569H339.889V297.969H337.329V307.029H335.669ZM341.97 307.029V296.569H343.63V307.029H341.97ZM342.77 294.389C342.17 294.389 341.67 293.889 341.67 293.289C341.67 292.689 342.17 292.189 342.77 292.189C343.37 292.189 343.87 292.689 343.87 293.289C343.87 293.889 343.37 294.389 342.77 294.389ZM354.548 310.669V305.229C353.948 306.249 352.488 307.209 350.968 307.209C348.228 307.209 346.248 305.269 346.248 302.009V301.849C346.248 298.649 348.248 296.389 351.128 296.389C352.868 296.389 353.948 297.229 354.548 298.249V296.569H356.208V310.669H354.548ZM351.148 305.829C353.088 305.829 354.608 304.549 354.608 301.869V301.709C354.608 299.029 353.328 297.769 351.288 297.769C349.208 297.769 347.968 299.229 347.968 301.769V301.929C347.968 304.569 349.388 305.829 351.148 305.829ZM363.107 307.209C361.027 307.209 359.467 306.069 359.467 303.189V296.569H361.127V303.109C361.127 304.949 361.907 305.769 363.547 305.769C365.027 305.769 366.427 304.789 366.427 302.909V296.569H368.087V307.029H366.427V305.369C365.947 306.349 364.787 307.209 363.107 307.209ZM375.722 307.209C372.762 307.209 370.662 305.129 370.662 301.909V301.749C370.662 298.589 372.682 296.389 375.562 296.389C377.982 296.389 380.262 297.849 380.262 301.589V302.129H372.382C372.462 304.509 373.602 305.829 375.742 305.829C377.362 305.829 378.302 305.229 378.522 304.009H380.182C379.822 306.109 378.082 307.209 375.722 307.209ZM372.442 300.789H378.562C378.402 298.629 377.282 297.769 375.562 297.769C373.862 297.769 372.722 298.929 372.442 300.789ZM382.849 307.029V296.569H384.509V307.029H382.849ZM383.649 294.389C383.049 294.389 382.549 293.889 382.549 293.289C382.549 292.689 383.049 292.189 383.649 292.189C384.249 292.189 384.749 292.689 384.749 293.289C384.749 293.889 384.249 294.389 383.649 294.389ZM396.38 307.169C394.48 307.169 393.56 306.049 393.56 304.409V297.969H392.06V296.569H393.56V294.189H395.22V296.569H397.66V297.969H395.22V304.249C395.22 305.269 395.68 305.769 396.52 305.769C397.04 305.769 397.44 305.689 397.8 305.549V306.949C397.46 307.069 397.06 307.169 396.38 307.169ZM404.669 305.829C406.769 305.829 408.089 304.249 408.089 301.889V301.749C408.089 299.329 406.749 297.769 404.669 297.769C402.569 297.769 401.249 299.329 401.249 301.729V301.889C401.249 304.269 402.549 305.829 404.669 305.829ZM404.649 307.209C401.669 307.209 399.529 304.949 399.529 301.889V301.729C399.529 298.589 401.709 296.389 404.669 296.389C407.629 296.389 409.809 298.569 409.809 301.709V301.869C409.809 305.029 407.629 307.209 404.649 307.209ZM415.559 307.169C413.659 307.169 412.739 306.049 412.739 304.409V297.969H411.239V296.569H412.739V294.189H414.399V296.569H416.839V297.969H414.399V304.249C414.399 305.269 414.859 305.769 415.699 305.769C416.219 305.769 416.619 305.689 416.979 305.549V306.949C416.639 307.069 416.239 307.169 415.559 307.169ZM422.206 307.209C420.266 307.209 418.726 306.269 418.726 304.129C418.726 301.709 421.286 300.889 423.966 300.889H425.466V300.129C425.466 298.469 424.826 297.769 423.226 297.769C421.786 297.769 420.986 298.369 420.826 299.649H419.166C419.386 297.269 421.286 296.389 423.306 296.389C425.306 296.389 427.126 297.209 427.126 300.129V307.029H425.466V305.709C424.686 306.689 423.746 307.209 422.206 307.209ZM422.366 305.889C424.126 305.889 425.466 304.989 425.466 303.369V302.069H424.026C421.926 302.069 420.386 302.589 420.386 304.129C420.386 305.209 420.906 305.889 422.366 305.889ZM430.427 307.029V291.569H432.107V307.029H430.427ZM444.037 307.209C441.537 307.209 440.037 305.949 439.937 303.809H441.557C441.677 305.049 442.337 305.829 444.017 305.829C445.597 305.829 446.297 305.289 446.297 304.169C446.297 303.069 445.477 302.709 443.857 302.409C441.137 301.909 440.217 301.149 440.217 299.329C440.217 297.389 442.117 296.389 443.757 296.389C445.637 296.389 447.257 297.149 447.537 299.409H445.937C445.697 298.269 445.057 297.769 443.737 297.769C442.537 297.769 441.757 298.369 441.757 299.269C441.757 300.209 442.277 300.589 444.197 300.929C446.357 301.329 447.877 301.809 447.877 304.029C447.877 305.929 446.577 307.209 444.037 307.209ZM453.027 307.209C451.087 307.209 449.547 306.269 449.547 304.129C449.547 301.709 452.107 300.889 454.787 300.889H456.287V300.129C456.287 298.469 455.647 297.769 454.047 297.769C452.607 297.769 451.807 298.369 451.647 299.649H449.987C450.207 297.269 452.107 296.389 454.127 296.389C456.127 296.389 457.947 297.209 457.947 300.129V307.029H456.287V305.709C455.507 306.689 454.567 307.209 453.027 307.209ZM453.187 305.889C454.947 305.889 456.287 304.989 456.287 303.369V302.069H454.847C452.747 302.069 451.207 302.589 451.207 304.129C451.207 305.209 451.727 305.889 453.187 305.889ZM464.387 307.169C462.487 307.169 461.567 306.049 461.567 304.409V297.969H460.067V296.569H461.567V294.189H463.227V296.569H465.667V297.969H463.227V304.249C463.227 305.269 463.687 305.769 464.527 305.769C465.047 305.769 465.447 305.689 465.807 305.549V306.949C465.467 307.069 465.067 307.169 464.387 307.169ZM468.357 307.029V296.569H470.017V307.029H468.357ZM469.157 294.389C468.557 294.389 468.057 293.889 468.057 293.289C468.057 292.689 468.557 292.189 469.157 292.189C469.757 292.189 470.257 292.689 470.257 293.289C470.257 293.889 469.757 294.389 469.157 294.389ZM476.654 307.209C474.154 307.209 472.654 305.949 472.554 303.809H474.174C474.294 305.049 474.954 305.829 476.634 305.829C478.214 305.829 478.914 305.289 478.914 304.169C478.914 303.069 478.094 302.709 476.474 302.409C473.754 301.909 472.834 301.149 472.834 299.329C472.834 297.389 474.734 296.389 476.374 296.389C478.254 296.389 479.874 297.149 480.154 299.409H478.554C478.314 298.269 477.674 297.769 476.354 297.769C475.154 297.769 474.374 298.369 474.374 299.269C474.374 300.209 474.894 300.589 476.814 300.929C478.974 301.329 480.494 301.809 480.494 304.029C480.494 305.929 479.194 307.209 476.654 307.209ZM483.384 307.029V297.969H481.884V296.569H483.384V294.869C483.384 292.749 484.424 291.509 486.504 291.509C487.044 291.509 487.324 291.569 487.744 291.709V293.109C487.444 292.989 487.024 292.889 486.564 292.889C485.484 292.889 485.044 293.629 485.044 294.689V296.569H487.604V297.969H485.044V307.029H483.384ZM492.363 307.209C490.423 307.209 488.883 306.269 488.883 304.129C488.883 301.709 491.443 300.889 494.123 300.889H495.623V300.129C495.623 298.469 494.983 297.769 493.383 297.769C491.943 297.769 491.143 298.369 490.983 299.649H489.323C489.543 297.269 491.443 296.389 493.463 296.389C495.463 296.389 497.283 297.209 497.283 300.129V307.029H495.623V305.709C494.843 306.689 493.903 307.209 492.363 307.209ZM492.523 305.889C494.283 305.889 495.623 304.989 495.623 303.369V302.069H494.183C492.083 302.069 490.543 302.589 490.543 304.129C490.543 305.209 491.063 305.889 492.523 305.889ZM504.583 311.309C503.423 311.309 502.663 310.629 502.583 309.629H503.663C503.743 310.009 504.023 310.349 504.523 310.349C505.023 310.349 505.323 310.049 505.323 309.629C505.323 309.209 505.023 308.949 504.603 308.949C504.343 308.949 504.143 309.049 504.043 309.109L503.403 308.549L504.163 307.169C501.603 306.869 499.763 304.889 499.763 301.909V301.749C499.763 298.549 502.043 296.389 504.843 296.389C507.023 296.389 509.063 297.389 509.383 300.049H507.743C507.483 298.389 506.283 297.769 504.843 297.769C502.943 297.769 501.483 299.289 501.483 301.749V301.909C501.483 304.469 502.883 305.829 504.903 305.829C506.383 305.829 507.723 304.969 507.903 303.269H509.443C509.223 305.429 507.563 307.049 505.203 307.189L504.723 308.089C505.643 307.969 506.603 308.489 506.603 309.709C506.603 310.789 505.663 311.309 504.583 311.309ZM514.57 307.209C512.63 307.209 511.09 306.269 511.09 304.129C511.09 301.709 513.65 300.889 516.33 300.889H517.83V300.129C517.83 298.469 517.19 297.769 515.59 297.769C514.15 297.769 513.35 298.369 513.19 299.649H511.53C511.75 297.269 513.65 296.389 515.67 296.389C517.67 296.389 519.49 297.209 519.49 300.129V307.029H517.83V305.709C517.05 306.689 516.11 307.209 514.57 307.209ZM514.73 305.889C516.49 305.889 517.83 304.989 517.83 303.369V302.069H516.39C514.29 302.069 512.75 302.589 512.75 304.129C512.75 305.209 513.27 305.889 514.73 305.889ZM516.77 294.649C515.91 294.649 515.19 293.789 514.61 293.789C514.23 293.789 513.91 294.169 513.81 294.689H512.61C512.77 293.269 513.59 292.369 514.63 292.369C515.47 292.369 516.19 293.229 516.77 293.229C517.15 293.229 517.47 292.849 517.57 292.329H518.77C518.61 293.749 517.79 294.649 516.77 294.649ZM527.11 305.829C529.21 305.829 530.53 304.249 530.53 301.889V301.749C530.53 299.329 529.19 297.769 527.11 297.769C525.01 297.769 523.69 299.329 523.69 301.729V301.889C523.69 304.269 524.99 305.829 527.11 305.829ZM527.09 307.209C524.11 307.209 521.97 304.949 521.97 301.889V301.729C521.97 298.589 524.15 296.389 527.11 296.389C530.07 296.389 532.25 298.569 532.25 301.709V301.869C532.25 305.029 530.07 307.209 527.09 307.209ZM65.02 337.209C62.1 337.209 59.9 335.149 59.9 331.909V331.749C59.9 328.549 62.18 326.389 64.98 326.389C67.16 326.389 69.2 327.389 69.52 330.049H67.88C67.62 328.389 66.42 327.769 64.98 327.769C63.08 327.769 61.62 329.289 61.62 331.749V331.909C61.62 334.469 63.02 335.829 65.04 335.829C66.52 335.829 67.86 334.969 68.04 333.269H69.58C69.36 335.529 67.54 337.209 65.02 337.209ZM76.4463 335.829C78.5463 335.829 79.8663 334.249 79.8663 331.889V331.749C79.8663 329.329 78.5263 327.769 76.4463 327.769C74.3463 327.769 73.0263 329.329 73.0263 331.729V331.889C73.0263 334.269 74.3263 335.829 76.4463 335.829ZM76.4263 337.209C73.4463 337.209 71.3063 334.949 71.3063 331.889V331.729C71.3063 328.589 73.4863 326.389 76.4463 326.389C79.4063 326.389 81.5863 328.569 81.5863 331.709V331.869C81.5863 335.029 79.4063 337.209 76.4263 337.209ZM84.1566 337.029V326.569H85.8166V328.169C86.2966 327.189 87.4366 326.389 88.9366 326.389C90.2766 326.389 91.4566 326.949 91.9966 328.349C92.7166 326.989 94.2766 326.389 95.5766 326.389C97.4566 326.389 99.0966 327.509 99.0966 330.549V337.029H97.4366V330.429C97.4366 328.589 96.6566 327.829 95.2166 327.829C93.8566 327.829 92.4566 328.749 92.4566 330.629V337.029H90.7966V330.429C90.7966 328.589 90.0166 327.829 88.5766 327.829C87.2166 327.829 85.8166 328.749 85.8166 330.629V337.029H84.1566ZM112.013 335.829C114.113 335.829 115.433 334.249 115.433 331.889V331.749C115.433 329.329 114.093 327.769 112.013 327.769C109.913 327.769 108.593 329.329 108.593 331.729V331.889C108.593 334.269 109.893 335.829 112.013 335.829ZM111.993 337.209C109.013 337.209 106.873 334.949 106.873 331.889V331.729C106.873 328.589 109.053 326.389 112.013 326.389C114.973 326.389 117.153 328.569 117.153 331.709V331.869C117.153 335.029 114.973 337.209 111.993 337.209ZM127.636 337.209C125.696 337.209 124.156 336.269 124.156 334.129C124.156 331.709 126.716 330.889 129.396 330.889H130.896V330.129C130.896 328.469 130.256 327.769 128.656 327.769C127.216 327.769 126.416 328.369 126.256 329.649H124.596C124.816 327.269 126.716 326.389 128.736 326.389C130.736 326.389 132.556 327.209 132.556 330.129V337.029H130.896V335.709C130.116 336.689 129.176 337.209 127.636 337.209ZM127.796 335.889C129.556 335.889 130.896 334.989 130.896 333.369V332.069H129.456C127.356 332.069 125.816 332.589 125.816 334.129C125.816 335.209 126.336 335.889 127.796 335.889ZM138.997 337.169C137.097 337.169 136.177 336.049 136.177 334.409V327.969H134.677V326.569H136.177V324.189H137.837V326.569H140.277V327.969H137.837V334.249C137.837 335.269 138.297 335.769 139.137 335.769C139.657 335.769 140.057 335.689 140.417 335.549V336.949C140.077 337.069 139.677 337.169 138.997 337.169ZM147.206 337.209C144.246 337.209 142.146 335.129 142.146 331.909V331.749C142.146 328.589 144.166 326.389 147.046 326.389C149.466 326.389 151.746 327.849 151.746 331.589V332.129H143.866C143.946 334.509 145.086 335.829 147.226 335.829C148.846 335.829 149.786 335.229 150.006 334.009H151.666C151.306 336.109 149.566 337.209 147.206 337.209ZM143.926 330.789H150.046C149.886 328.629 148.766 327.769 147.046 327.769C145.346 327.769 144.206 328.929 143.926 330.789ZM154.293 337.029V326.569H155.953V328.229C156.433 327.249 157.593 326.389 159.313 326.389C161.473 326.389 162.993 327.569 162.993 330.609V337.029H161.333V330.489C161.333 328.649 160.553 327.829 158.873 327.829C157.333 327.829 155.953 328.809 155.953 330.689V337.029H154.293ZM170.186 337.209C167.446 337.209 165.466 335.269 165.466 332.009V331.849C165.466 328.649 167.466 326.389 170.346 326.389C172.086 326.389 173.166 327.229 173.766 328.249V321.569H175.426V337.029H173.766V335.229C173.166 336.249 171.706 337.209 170.186 337.209ZM170.366 335.829C172.306 335.829 173.826 334.549 173.826 331.869V331.709C173.826 329.029 172.546 327.769 170.506 327.769C168.426 327.769 167.186 329.229 167.186 331.769V331.929C167.186 334.569 168.606 335.829 170.366 335.829ZM178.825 337.029V326.569H180.485V337.029H178.825ZM179.625 324.389C179.025 324.389 178.525 323.889 178.525 323.289C178.525 322.689 179.025 322.189 179.625 322.189C180.225 322.189 180.725 322.689 180.725 323.289C180.725 323.889 180.225 324.389 179.625 324.389ZM183.883 337.029V326.569H185.543V328.169C186.023 327.189 187.163 326.389 188.663 326.389C190.003 326.389 191.183 326.949 191.723 328.349C192.443 326.989 194.003 326.389 195.303 326.389C197.183 326.389 198.823 327.509 198.823 330.549V337.029H197.163V330.429C197.163 328.589 196.383 327.829 194.943 327.829C193.583 327.829 192.183 328.749 192.183 330.629V337.029H190.523V330.429C190.523 328.589 189.743 327.829 188.303 327.829C186.943 327.829 185.543 328.749 185.543 330.629V337.029H183.883ZM206.366 337.209C203.406 337.209 201.306 335.129 201.306 331.909V331.749C201.306 328.589 203.326 326.389 206.206 326.389C208.626 326.389 210.906 327.849 210.906 331.589V332.129H203.026C203.106 334.509 204.246 335.829 206.386 335.829C208.006 335.829 208.946 335.229 209.166 334.009H210.826C210.466 336.109 208.726 337.209 206.366 337.209ZM203.086 330.789H209.206C209.046 328.629 207.926 327.769 206.206 327.769C204.506 327.769 203.366 328.929 203.086 330.789ZM213.453 337.029V326.569H215.113V328.229C215.593 327.249 216.753 326.389 218.473 326.389C220.633 326.389 222.153 327.569 222.153 330.609V337.029H220.493V330.489C220.493 328.649 219.713 327.829 218.033 327.829C216.493 327.829 215.113 328.809 215.113 330.689V337.029H213.453ZM228.587 337.169C226.687 337.169 225.767 336.049 225.767 334.409V327.969H224.267V326.569H225.767V324.189H227.427V326.569H229.867V327.969H227.427V334.249C227.427 335.269 227.887 335.769 228.727 335.769C229.247 335.769 229.647 335.689 230.007 335.549V336.949C229.667 337.069 229.267 337.169 228.587 337.169ZM236.876 335.829C238.976 335.829 240.296 334.249 240.296 331.889V331.749C240.296 329.329 238.956 327.769 236.876 327.769C234.776 327.769 233.456 329.329 233.456 331.729V331.889C233.456 334.269 234.756 335.829 236.876 335.829ZM236.856 337.209C233.876 337.209 231.736 334.949 231.736 331.889V331.729C231.736 328.589 233.916 326.389 236.876 326.389C239.836 326.389 242.016 328.569 242.016 331.709V331.869C242.016 335.029 239.836 337.209 236.856 337.209ZM257.399 340.669V335.229C256.799 336.249 255.339 337.209 253.819 337.209C251.079 337.209 249.099 335.269 249.099 332.009V331.849C249.099 328.649 251.099 326.389 253.979 326.389C255.719 326.389 256.799 327.229 257.399 328.249V326.569H259.059V340.669H257.399ZM253.999 335.829C255.939 335.829 257.459 334.549 257.459 331.869V331.709C257.459 329.029 256.179 327.769 254.139 327.769C252.059 327.769 250.819 329.229 250.819 331.769V331.929C250.819 334.569 252.239 335.829 253.999 335.829ZM265.958 337.209C263.878 337.209 262.318 336.069 262.318 333.189V326.569H263.978V333.109C263.978 334.949 264.758 335.769 266.398 335.769C267.878 335.769 269.278 334.789 269.278 332.909V326.569H270.938V337.029H269.278V335.369C268.798 336.349 267.638 337.209 265.958 337.209ZM276.913 337.209C274.973 337.209 273.433 336.269 273.433 334.129C273.433 331.709 275.993 330.889 278.673 330.889H280.173V330.129C280.173 328.469 279.533 327.769 277.933 327.769C276.493 327.769 275.693 328.369 275.533 329.649H273.873C274.093 327.269 275.993 326.389 278.013 326.389C280.013 326.389 281.833 327.209 281.833 330.129V337.029H280.173V335.709C279.393 336.689 278.453 337.209 276.913 337.209ZM277.073 335.889C278.833 335.889 280.173 334.989 280.173 333.369V332.069H278.733C276.633 332.069 275.093 332.589 275.093 334.129C275.093 335.209 275.613 335.889 277.073 335.889ZM285.094 337.029V326.569H286.754V328.229C287.234 327.249 288.394 326.389 290.114 326.389C292.274 326.389 293.794 327.569 293.794 330.609V337.029H292.134V330.489C292.134 328.649 291.354 327.829 289.674 327.829C288.134 327.829 286.754 328.809 286.754 330.689V337.029H285.094ZM300.987 337.209C298.247 337.209 296.267 335.269 296.267 332.009V331.849C296.267 328.649 298.267 326.389 301.147 326.389C302.887 326.389 303.967 327.229 304.567 328.249V321.569H306.227V337.029H304.567V335.229C303.967 336.249 302.507 337.209 300.987 337.209ZM301.167 335.829C303.107 335.829 304.627 334.549 304.627 331.869V331.709C304.627 329.029 303.347 327.769 301.307 327.769C299.227 327.769 297.987 329.229 297.987 331.769V331.929C297.987 334.569 299.407 335.829 301.167 335.829ZM313.946 335.829C316.046 335.829 317.366 334.249 317.366 331.889V331.749C317.366 329.329 316.026 327.769 313.946 327.769C311.846 327.769 310.526 329.329 310.526 331.729V331.889C310.526 334.269 311.826 335.829 313.946 335.829ZM313.926 337.209C310.946 337.209 308.806 334.949 308.806 331.889V331.729C308.806 328.589 310.986 326.389 313.946 326.389C316.906 326.389 319.086 328.569 319.086 331.709V331.869C319.086 335.029 316.906 337.209 313.926 337.209ZM326.95 340.669V326.569H328.61V328.329C329.21 327.309 330.63 326.389 332.15 326.389C334.89 326.389 336.91 328.389 336.91 331.649V331.809C336.91 335.009 335.03 337.209 332.15 337.209C330.43 337.209 329.21 336.349 328.61 335.309V340.669H326.95ZM331.99 335.829C334.07 335.829 335.19 334.429 335.19 331.889V331.729C335.19 329.089 333.73 327.769 331.97 327.769C330.03 327.769 328.55 329.049 328.55 331.729V331.889C328.55 334.569 329.95 335.829 331.99 335.829ZM339.489 337.029V326.569H341.149V328.449C341.809 327.269 342.709 326.449 344.589 326.389V327.949C342.489 328.049 341.149 328.709 341.149 331.289V337.029H339.489ZM350.995 337.209C348.035 337.209 345.935 335.129 345.935 331.909V331.749C345.935 328.589 347.955 326.389 350.835 326.389C353.255 326.389 355.535 327.849 355.535 331.589V332.129H347.655C347.735 334.509 348.875 335.829 351.015 335.829C352.635 335.829 353.575 335.229 353.795 334.009H355.455C355.095 336.109 353.355 337.209 350.995 337.209ZM347.715 330.789H353.835C353.675 328.629 352.555 327.769 350.835 327.769C349.135 327.769 347.995 328.929 347.715 330.789ZM362.422 337.209C359.502 337.209 357.302 335.149 357.302 331.909V331.749C357.302 328.549 359.582 326.389 362.382 326.389C364.562 326.389 366.602 327.389 366.922 330.049H365.282C365.022 328.389 363.822 327.769 362.382 327.769C360.482 327.769 359.022 329.289 359.022 331.749V331.909C359.022 334.469 360.422 335.829 362.442 335.829C363.922 335.829 365.262 334.969 365.442 333.269H366.982C366.762 335.529 364.942 337.209 362.422 337.209ZM369.529 337.029V326.569H371.189V337.029H369.529ZM370.329 324.389C369.729 324.389 369.229 323.889 369.229 323.289C369.229 322.689 369.729 322.189 370.329 322.189C370.929 322.189 371.429 322.689 371.429 323.289C371.429 323.889 370.929 324.389 370.329 324.389ZM377.826 337.209C375.326 337.209 373.826 335.949 373.726 333.809H375.346C375.466 335.049 376.126 335.829 377.806 335.829C379.386 335.829 380.086 335.289 380.086 334.169C380.086 333.069 379.266 332.709 377.646 332.409C374.926 331.909 374.006 331.149 374.006 329.329C374.006 327.389 375.906 326.389 377.546 326.389C379.426 326.389 381.046 327.149 381.326 329.409H379.726C379.486 328.269 378.846 327.769 377.526 327.769C376.326 327.769 375.546 328.369 375.546 329.269C375.546 330.209 376.066 330.589 377.986 330.929C380.146 331.329 381.666 331.809 381.666 334.029C381.666 335.929 380.366 337.209 377.826 337.209ZM388.476 337.209C385.516 337.209 383.416 335.129 383.416 331.909V331.749C383.416 328.589 385.436 326.389 388.316 326.389C390.736 326.389 393.016 327.849 393.016 331.589V332.129H385.136C385.216 334.509 386.356 335.829 388.496 335.829C390.116 335.829 391.056 335.229 391.276 334.009H392.936C392.576 336.109 390.836 337.209 388.476 337.209ZM385.196 330.789H391.316C391.156 328.629 390.036 327.769 388.316 327.769C386.616 327.769 385.476 328.929 385.196 330.789ZM395.603 337.029V326.569H397.263V337.029H395.603ZM396.403 324.389C395.803 324.389 395.303 323.889 395.303 323.289C395.303 322.689 395.803 322.189 396.403 322.189C397.003 322.189 397.503 322.689 397.503 323.289C397.503 323.889 397.003 324.389 396.403 324.389ZM401.8 337.129C401.1 337.129 400.52 336.569 400.52 335.849C400.52 335.129 401.1 334.569 401.8 334.569C402.5 334.569 403.08 335.129 403.08 335.849C403.08 336.569 402.5 337.129 401.8 337.129Z" fill="white"/>
<path d="M60.002 178.629V160.039H65.566L69.908 171.609L74.198 160.039H79.658V178.629H75.472V165.577L70.324 178.629H68.946L63.772 165.577V178.629H60.002ZM87.7505 178.915C85.0985 178.915 83.1225 177.355 83.1225 173.793V165.031H86.8665V173.273C86.8665 175.119 87.6205 176.003 89.2325 176.003C90.8185 176.003 92.0665 175.015 92.0665 173.013V165.031H95.8105V178.629H92.0665V176.497C91.3645 177.875 89.9865 178.915 87.7505 178.915ZM99.2504 178.629V165.031H102.994V178.629H99.2504ZM101.096 163.185C99.9004 163.185 98.9644 162.301 98.9644 161.131C98.9644 159.961 99.9004 159.077 101.096 159.077C102.318 159.077 103.254 159.961 103.254 161.131C103.254 162.301 102.318 163.185 101.096 163.185ZM111.425 178.889C108.565 178.889 107.031 177.433 107.031 174.599V167.709H105.289V165.031H107.031V162.093H110.775V165.031H113.635V167.709H110.775V174.261C110.775 175.353 111.321 175.873 112.283 175.873C112.855 175.873 113.271 175.795 113.713 175.613V178.525C113.193 178.707 112.439 178.889 111.425 178.889ZM122.604 176.055C124.71 176.055 125.932 174.495 125.932 171.921V171.739C125.932 169.139 124.71 167.579 122.604 167.579C120.524 167.579 119.276 169.087 119.276 171.687V171.895C119.276 174.495 120.472 176.055 122.604 176.055ZM122.578 178.915C118.522 178.915 115.428 176.211 115.428 171.973V171.765C115.428 167.501 118.522 164.719 122.604 164.719C126.686 164.719 129.754 167.449 129.754 171.687V171.895C129.754 176.185 126.66 178.915 122.578 178.915ZM144.389 176.055C146.495 176.055 147.717 174.495 147.717 171.921V171.739C147.717 169.139 146.495 167.579 144.389 167.579C142.309 167.579 141.061 169.087 141.061 171.687V171.895C141.061 174.495 142.257 176.055 144.389 176.055ZM144.363 178.915C140.307 178.915 137.213 176.211 137.213 171.973V171.765C137.213 167.501 140.307 164.719 144.389 164.719C148.471 164.719 151.539 167.449 151.539 171.687V171.895C151.539 176.185 148.445 178.915 144.363 178.915ZM162.178 178.915C160.072 178.915 158.538 177.875 157.836 176.471V178.629H154.066V158.869H157.836V167.163C158.59 165.863 160.176 164.719 162.178 164.719C165.506 164.719 168.106 167.189 168.106 171.687V171.895C168.106 176.393 165.558 178.915 162.178 178.915ZM161.06 175.977C163.14 175.977 164.284 174.573 164.284 171.921V171.713C164.284 168.957 162.932 167.605 161.034 167.605C159.058 167.605 157.706 168.983 157.706 171.713V171.921C157.706 174.651 159.006 175.977 161.06 175.977ZM170.621 178.629V165.031H174.391V167.631C175.249 165.811 176.575 164.849 178.785 164.823V168.333C176.003 168.307 174.391 169.217 174.391 171.817V178.629H170.621ZM181.364 178.629V165.031H185.108V178.629H181.364ZM183.21 163.185C182.014 163.185 181.078 162.301 181.078 161.131C181.078 159.961 182.014 159.077 183.21 159.077C184.432 159.077 185.368 159.961 185.368 161.131C185.368 162.301 184.432 163.185 183.21 163.185ZM194.604 183.647C190.21 183.647 188.208 181.723 187.844 178.915H191.588C191.822 180.111 192.68 180.891 194.604 180.891C196.892 180.891 198.036 179.695 198.036 177.563V175.509C197.282 176.835 195.67 178.031 193.668 178.031C190.366 178.031 187.74 175.561 187.74 171.531V171.349C187.74 167.449 190.34 164.719 193.72 164.719C195.93 164.719 197.256 165.681 198.036 167.059V165.031H201.78V177.563C201.754 181.593 199.076 183.647 194.604 183.647ZM194.786 175.197C196.762 175.197 198.14 173.793 198.14 171.479V171.297C198.14 168.983 196.918 167.579 194.864 167.579C192.758 167.579 191.588 169.087 191.588 171.323V171.531C191.588 173.793 192.914 175.197 194.786 175.197ZM208.768 178.915C206.298 178.915 204.218 177.719 204.218 174.859C204.218 171.687 207.13 170.491 211.29 170.491H212.824V169.945C212.824 168.333 212.33 167.449 210.614 167.449C209.132 167.449 208.456 168.203 208.3 169.373H204.738C204.972 166.149 207.52 164.719 210.848 164.719C214.176 164.719 216.542 166.071 216.542 169.763V178.629H212.876V176.991C212.096 178.083 210.9 178.915 208.768 178.915ZM209.886 176.289C211.55 176.289 212.824 175.379 212.824 173.871V172.727H211.368C209.184 172.727 207.91 173.195 207.91 174.651C207.91 175.639 208.508 176.289 209.886 176.289ZM224.873 178.915C221.571 178.915 218.971 176.549 218.971 172.025V171.817C218.971 167.345 221.545 164.719 224.951 164.719C227.135 164.719 228.487 165.681 229.241 167.059V158.869H232.985V178.629H229.241V176.367C228.539 177.745 226.875 178.915 224.873 178.915ZM225.991 175.977C227.967 175.977 229.345 174.651 229.345 171.895V171.687C229.345 168.983 228.149 167.605 226.095 167.605C223.989 167.605 222.819 169.035 222.819 171.739V171.947C222.819 174.651 224.119 175.977 225.991 175.977ZM242.676 176.055C244.782 176.055 246.004 174.495 246.004 171.921V171.739C246.004 169.139 244.782 167.579 242.676 167.579C240.596 167.579 239.348 169.087 239.348 171.687V171.895C239.348 174.495 240.544 176.055 242.676 176.055ZM242.65 178.915C238.594 178.915 235.5 176.211 235.5 171.973V171.765C235.5 167.501 238.594 164.719 242.676 164.719C246.758 164.719 249.826 167.449 249.826 171.687V171.895C249.826 176.185 246.732 178.915 242.65 178.915ZM264.383 178.915C260.275 178.915 257.285 176.341 257.285 171.999V171.791C257.285 167.501 260.327 164.719 264.279 164.719C267.789 164.719 270.909 166.773 270.909 171.635V172.675H261.107C261.211 174.937 262.433 176.237 264.487 176.237C266.229 176.237 267.087 175.483 267.321 174.339H270.883C270.441 177.277 268.101 178.915 264.383 178.915ZM261.159 170.361H267.243C267.113 168.307 266.073 167.319 264.279 167.319C262.589 167.319 261.445 168.437 261.159 170.361ZM279.141 183.257V165.031H282.911V167.163C283.665 165.863 285.251 164.719 287.253 164.719C290.581 164.719 293.181 167.189 293.181 171.687V171.895C293.181 176.393 290.633 178.915 287.253 178.915C285.147 178.915 283.613 177.875 282.911 176.549V183.257H279.141ZM286.135 175.977C288.215 175.977 289.359 174.573 289.359 171.921V171.713C289.359 168.957 288.007 167.605 286.109 167.605C284.133 167.605 282.781 168.983 282.781 171.713V171.921C282.781 174.651 284.081 175.977 286.135 175.977ZM299.361 178.915C296.891 178.915 294.811 177.719 294.811 174.859C294.811 171.687 297.723 170.491 301.883 170.491H303.417V169.945C303.417 168.333 302.923 167.449 301.207 167.449C299.725 167.449 299.049 168.203 298.893 169.373H295.331C295.565 166.149 298.113 164.719 301.441 164.719C304.769 164.719 307.135 166.071 307.135 169.763V178.629H303.469V176.991C302.689 178.083 301.493 178.915 299.361 178.915ZM300.479 176.289C302.143 176.289 303.417 175.379 303.417 173.871V172.727H301.961C299.777 172.727 298.503 173.195 298.503 174.651C298.503 175.639 299.101 176.289 300.479 176.289ZM310.371 178.629V165.031H314.141V167.631C314.999 165.811 316.325 164.849 318.535 164.823V168.333C315.753 168.307 314.141 169.217 314.141 171.817V178.629H310.371ZM324.422 178.915C321.952 178.915 319.872 177.719 319.872 174.859C319.872 171.687 322.784 170.491 326.944 170.491H328.478V169.945C328.478 168.333 327.984 167.449 326.268 167.449C324.786 167.449 324.11 168.203 323.954 169.373H320.392C320.626 166.149 323.174 164.719 326.502 164.719C329.83 164.719 332.196 166.071 332.196 169.763V178.629H328.53V176.991C327.75 178.083 326.554 178.915 324.422 178.915ZM325.54 176.289C327.204 176.289 328.478 175.379 328.478 173.871V172.727H327.022C324.838 172.727 323.564 173.195 323.564 174.651C323.564 175.639 324.162 176.289 325.54 176.289ZM343.544 178.915C341.438 178.915 339.904 177.875 339.202 176.471V178.629H335.432V158.869H339.202V167.163C339.956 165.863 341.542 164.719 343.544 164.719C346.872 164.719 349.472 167.189 349.472 171.687V171.895C349.472 176.393 346.924 178.915 343.544 178.915ZM342.426 175.977C344.506 175.977 345.65 174.573 345.65 171.921V171.713C345.65 168.957 344.298 167.605 342.4 167.605C340.424 167.605 339.072 168.983 339.072 171.713V171.921C339.072 174.651 340.372 175.977 342.426 175.977ZM356.562 163.185L358.044 159.051H361.996L359.292 163.185H356.562ZM358.252 178.915C354.144 178.915 351.154 176.341 351.154 171.999V171.791C351.154 167.501 354.196 164.719 358.148 164.719C361.658 164.719 364.778 166.773 364.778 171.635V172.675H354.976C355.08 174.937 356.302 176.237 358.356 176.237C360.098 176.237 360.956 175.483 361.19 174.339H364.752C364.31 177.277 361.97 178.915 358.252 178.915ZM355.028 170.361H361.112C360.982 168.307 359.942 167.319 358.148 167.319C356.458 167.319 355.314 168.437 355.028 170.361ZM367.246 178.629V165.031H371.016V167.189C371.692 165.837 373.174 164.719 375.436 164.719C378.114 164.719 380.012 166.331 380.012 169.971V178.629H376.242V170.517C376.242 168.671 375.514 167.787 373.85 167.787C372.238 167.787 371.016 168.775 371.016 170.777V178.629H367.246ZM388.182 178.915C384.516 178.915 382.384 177.303 382.254 174.365H385.764C385.92 175.587 386.518 176.289 388.156 176.289C389.612 176.289 390.288 175.743 390.288 174.807C390.288 173.871 389.482 173.481 387.532 173.195C383.918 172.649 382.514 171.609 382.514 168.957C382.514 166.123 385.114 164.719 387.896 164.719C390.912 164.719 393.174 165.811 393.512 168.931H390.054C389.846 167.813 389.222 167.293 387.922 167.293C386.7 167.293 385.998 167.865 385.998 168.697C385.998 169.555 386.648 169.893 388.624 170.179C392.03 170.673 393.902 171.531 393.902 174.443C393.902 177.381 391.77 178.915 388.182 178.915Z" fill="white"/>
<path d="M60.8 418V403.7H64.86C67.6 403.7 69.86 404.9 69.86 407.88V407.96C69.86 411 67.58 412.18 64.86 412.18H62.54V418H60.8ZM62.54 410.8H64.98C67.02 410.8 68.12 409.8 68.12 407.96V407.88C68.12 405.86 66.92 405.1 64.98 405.1H62.54V410.8ZM76.3681 416.8C78.4681 416.8 79.7881 415.22 79.7881 412.86V412.72C79.7881 410.3 78.4481 408.74 76.3681 408.74C74.2681 408.74 72.9481 410.3 72.9481 412.7V412.86C72.9481 415.24 74.2481 416.8 76.3681 416.8ZM76.3481 418.18C73.3681 418.18 71.2281 415.92 71.2281 412.86V412.7C71.2281 409.56 73.4081 407.36 76.3681 407.36C79.3281 407.36 81.5081 409.54 81.5081 412.68V412.84C81.5081 416 79.3281 418.18 76.3481 418.18ZM84.0784 418V407.54H85.7384V409.42C86.3984 408.24 87.2984 407.42 89.1784 407.36V408.92C87.0784 409.02 85.7384 409.68 85.7384 412.26V418H84.0784ZM99.9509 418V405.12H95.7909V403.7H105.851V405.12H101.691V418H99.9509ZM107.947 418V407.54H109.607V418H107.947ZM108.747 405.36C108.147 405.36 107.647 404.86 107.647 404.26C107.647 403.66 108.147 403.16 108.747 403.16C109.347 403.16 109.847 403.66 109.847 404.26C109.847 404.86 109.347 405.36 108.747 405.36ZM115.624 418.18C113.684 418.18 112.144 417.24 112.144 415.1C112.144 412.68 114.704 411.86 117.384 411.86H118.884V411.1C118.884 409.44 118.244 408.74 116.644 408.74C115.204 408.74 114.404 409.34 114.244 410.62H112.584C112.804 408.24 114.704 407.36 116.724 407.36C118.724 407.36 120.544 408.18 120.544 411.1V418H118.884V416.68C118.104 417.66 117.164 418.18 115.624 418.18ZM115.784 416.86C117.544 416.86 118.884 415.96 118.884 414.34V413.04H117.444C115.344 413.04 113.804 413.56 113.804 415.1C113.804 416.18 114.324 416.86 115.784 416.86ZM127.985 421.82C124.885 421.82 123.525 420.36 123.245 418.6H124.945C125.185 419.8 126.185 420.42 127.965 420.42C130.025 420.42 131.325 419.44 131.325 417.2V415.68C130.725 416.7 129.305 417.66 127.785 417.66C125.045 417.66 123.025 415.58 123.025 412.7V412.56C123.025 409.72 125.025 407.36 127.905 407.36C129.645 407.36 130.725 408.2 131.325 409.22V407.54H132.985V417.3C132.965 420.34 130.905 421.82 127.985 421.82ZM127.965 416.28C129.905 416.28 131.385 414.92 131.385 412.58V412.44C131.385 410.1 130.105 408.74 128.065 408.74C125.985 408.74 124.745 410.28 124.745 412.48V412.64C124.745 414.92 126.205 416.28 127.965 416.28ZM140.704 416.8C142.804 416.8 144.124 415.22 144.124 412.86V412.72C144.124 410.3 142.784 408.74 140.704 408.74C138.604 408.74 137.284 410.3 137.284 412.7V412.86C137.284 415.24 138.584 416.8 140.704 416.8ZM140.684 418.18C137.704 418.18 135.564 415.92 135.564 412.86V412.7C135.564 409.56 137.744 407.36 140.704 407.36C143.664 407.36 145.844 409.54 145.844 412.68V412.84C145.844 416 143.664 418.18 140.684 418.18ZM153.827 418V403.7H158.127C160.867 403.7 163.127 404.82 163.127 407.68V407.76C163.127 410.12 161.547 411.28 159.587 411.66L163.967 418H162.027L157.767 411.78H155.567V418H153.827ZM155.567 410.4H158.247C160.287 410.4 161.387 409.52 161.387 407.76V407.68C161.387 405.74 160.187 405.1 158.247 405.1H155.567V410.4ZM170.253 418.18C167.293 418.18 165.193 416.1 165.193 412.88V412.72C165.193 409.56 167.213 407.36 170.093 407.36C172.513 407.36 174.793 408.82 174.793 412.56V413.1H166.913C166.993 415.48 168.133 416.8 170.273 416.8C171.893 416.8 172.833 416.2 173.053 414.98H174.713C174.353 417.08 172.613 418.18 170.253 418.18ZM166.973 411.76H173.093C172.933 409.6 171.813 408.74 170.093 408.74C168.393 408.74 167.253 409.9 166.973 411.76ZM177.38 418V407.54H179.04V418H177.38ZM178.18 405.36C177.58 405.36 177.08 404.86 177.08 404.26C177.08 403.66 177.58 403.16 178.18 403.16C178.78 403.16 179.28 403.66 179.28 404.26C179.28 404.86 178.78 405.36 178.18 405.36ZM185.678 418.18C183.178 418.18 181.678 416.92 181.578 414.78H183.198C183.318 416.02 183.978 416.8 185.658 416.8C187.238 416.8 187.938 416.26 187.938 415.14C187.938 414.04 187.118 413.68 185.498 413.38C182.778 412.88 181.858 412.12 181.858 410.3C181.858 408.36 183.758 407.36 185.398 407.36C187.278 407.36 188.898 408.12 189.178 410.38H187.578C187.338 409.24 186.698 408.74 185.378 408.74C184.178 408.74 183.398 409.34 183.398 410.24C183.398 411.18 183.918 411.56 185.838 411.9C187.998 412.3 189.518 412.78 189.518 415C189.518 416.9 188.218 418.18 185.678 418.18Z" fill="white"/>
<g clip-path="url(#clip0_602_404)">
<path d="M77 84L81.2321 94.1751L92.2169 95.0557L83.8476 102.225L86.4046 112.944L77 107.2L67.5954 112.944L70.1524 102.225L61.7831 95.0557L72.7679 94.1751L77 84Z" fill="#2DD1AC"/>
</g>
<g clip-path="url(#clip1_602_404)">
<path d="M125 84L129.232 94.1751L140.217 95.0557L131.848 102.225L134.405 112.944L125 107.2L115.595 112.944L118.152 102.225L109.783 95.0557L120.768 94.1751L125 84Z" fill="#2DD1AC"/>
</g>
<g clip-path="url(#clip2_602_404)">
<path d="M173 84L177.232 94.1751L188.217 95.0557L179.848 102.225L182.405 112.944L173 107.2L163.595 112.944L166.152 102.225L157.783 95.0557L168.768 94.1751L173 84Z" fill="#2DD1AC"/>
</g>
<g clip-path="url(#clip3_602_404)">
<path d="M221 84L225.232 94.1751L236.217 95.0557L227.848 102.225L230.405 112.944L221 107.2L211.595 112.944L214.152 102.225L205.783 95.0557L216.768 94.1751L221 84Z" fill="#2DD1AC"/>
</g>
<g clip-path="url(#clip4_602_404)">
<path d="M269 84L273.232 94.1751L284.217 95.0557L275.848 102.225L278.405 112.944L269 107.2L259.595 112.944L262.152 102.225L253.783 95.0557L264.768 94.1751L269 84Z" fill="#2DD1AC"/>
</g>
<defs>
<filter id="filter0_d_602_404" x="0" y="0" width="668" height="508" filterUnits="userSpaceOnUse" color-interpolation-filters="sRGB">
<feFlood flood-opacity="0" result="BackgroundImageFix"/>
<feColorMatrix in="SourceAlpha" type="matrix" values="0 0 0 0 0 0 0 0 0 0 0 0 0 0 0 0 0 0 127 0" result="hardAlpha"/>
<feOffset dy="5"/>
<feGaussianBlur stdDeviation="7"/>
<feColorMatrix type="matrix" values="0 0 0 0 0.0323264 0 0 0 0 0.0598209 0 0 0 0 0.204167 0 0 0 0.04 0"/>
<feBlend mode="normal" in2="BackgroundImageFix" result="effect1_dropShadow_602_404"/>
<feBlend mode="normal" in="SourceGraphic" in2="effect1_dropShadow_602_404" result="shape"/>
</filter>
<clipPath id="clip0_602_404">
<rect width="32" height="32" fill="white" transform="translate(61 84)"/>
</clipPath>
<clipPath id="clip1_602_404">
<rect width="32" height="32" fill="white" transform="translate(109 84)"/>
</clipPath>
<clipPath id="clip2_602_404">
<rect width="32" height="32" fill="white" transform="translate(157 84)"/>
</clipPath>
<clipPath id="clip3_602_404">
<rect width="32" height="32" fill="white" transform="translate(205 84)"/>
</clipPath>
<clipPath id="clip4_602_404">
<rect width="32" height="32" fill="white" transform="translate(253 84)"/>
</clipPath>
</defs>
</svg>
