<svg width="668" height="508" viewBox="0 0 668 508" fill="none" xmlns="http://www.w3.org/2000/svg">
<g filter="url(#filter0_d_602_360)">
<rect x="14" y="9" width="640" height="480" rx="12" fill="#F7F7F8"/>
<rect x="14.5" y="9.5" width="639" height="479" rx="11.5" stroke="#DDF7F2"/>
</g>
<path d="M67.3887 249.055V236.175H63.2287V234.755H73.2887V236.175H69.1287V249.055H67.3887ZM78.3157 249.235C75.3557 249.235 73.2557 247.155 73.2557 243.935V243.775C73.2557 240.615 75.2757 238.415 78.1557 238.415C80.5757 238.415 82.8557 239.875 82.8557 243.615V244.155H74.9757C75.0557 246.535 76.1957 247.855 78.3357 247.855C79.9557 247.855 80.8957 247.255 81.1157 246.035H82.7757C82.4157 248.135 80.6757 249.235 78.3157 249.235ZM75.0357 242.815H81.1557C80.9957 240.655 79.8757 239.795 78.1557 239.795C76.4557 239.795 75.3157 240.955 75.0357 242.815ZM88.7405 249.235C86.2405 249.235 84.7405 247.975 84.6405 245.835H86.2605C86.3805 247.075 87.0405 247.855 88.7205 247.855C90.3005 247.855 91.0005 247.315 91.0005 246.195C91.0005 245.095 90.1805 244.735 88.5605 244.435C85.8405 243.935 84.9205 243.175 84.9205 241.355C84.9205 239.415 86.8205 238.415 88.4605 238.415C90.3405 238.415 91.9605 239.175 92.2405 241.435H90.6405C90.4005 240.295 89.7605 239.795 88.4405 239.795C87.2405 239.795 86.4605 240.395 86.4605 241.295C86.4605 242.235 86.9805 242.615 88.9005 242.955C91.0605 243.355 92.5805 243.835 92.5805 246.055C92.5805 247.955 91.2805 249.235 88.7405 249.235ZM98.2899 249.195C96.3899 249.195 95.4699 248.075 95.4699 246.435V239.995H93.9699V238.595H95.4699V236.215H97.1299V238.595H99.5699V239.995H97.1299V246.275C97.1299 247.295 97.5899 247.795 98.4299 247.795C98.9499 247.795 99.3499 247.715 99.7099 247.575V248.975C99.3699 249.095 98.9699 249.195 98.2899 249.195ZM106.499 249.235C103.539 249.235 101.439 247.155 101.439 243.935V243.775C101.439 240.615 103.459 238.415 106.339 238.415C108.759 238.415 111.039 239.875 111.039 243.615V244.155H103.159C103.239 246.535 104.379 247.855 106.519 247.855C108.139 247.855 109.079 247.255 109.299 246.035H110.959C110.599 248.135 108.859 249.235 106.499 249.235ZM103.219 242.815H109.339C109.179 240.655 108.059 239.795 106.339 239.795C104.639 239.795 103.499 240.955 103.219 242.815ZM113.626 249.055V238.595H115.286V249.055H113.626ZM114.426 236.415C113.826 236.415 113.326 235.915 113.326 235.315C113.326 234.715 113.826 234.215 114.426 234.215C115.026 234.215 115.526 234.715 115.526 235.315C115.526 235.915 115.026 236.415 114.426 236.415ZM123.977 252.695V238.595H125.637V240.355C126.237 239.335 127.657 238.415 129.177 238.415C131.917 238.415 133.937 240.415 133.937 243.675V243.835C133.937 247.035 132.057 249.235 129.177 249.235C127.457 249.235 126.237 248.375 125.637 247.335V252.695H123.977ZM129.017 247.855C131.097 247.855 132.217 246.455 132.217 243.915V243.755C132.217 241.115 130.757 239.795 128.997 239.795C127.057 239.795 125.577 241.075 125.577 243.755V243.915C125.577 246.595 126.977 247.855 129.017 247.855ZM136.516 249.055V238.595H138.176V240.475C138.836 239.295 139.736 238.475 141.616 238.415V239.975C139.516 240.075 138.176 240.735 138.176 243.315V249.055H136.516ZM146.558 249.235C144.618 249.235 143.078 248.295 143.078 246.155C143.078 243.735 145.638 242.915 148.318 242.915H149.818V242.155C149.818 240.495 149.178 239.795 147.578 239.795C146.138 239.795 145.338 240.395 145.178 241.675H143.518C143.738 239.295 145.638 238.415 147.658 238.415C149.658 238.415 151.478 239.235 151.478 242.155V249.055H149.818V247.735C149.038 248.715 148.098 249.235 146.558 249.235ZM146.718 247.915C148.478 247.915 149.818 247.015 149.818 245.395V244.095H148.378C146.278 244.095 144.738 244.615 144.738 246.155C144.738 247.235 145.258 247.915 146.718 247.915ZM157.919 249.195C156.019 249.195 155.099 248.075 155.099 246.435V239.995H153.599V238.595H155.099V236.215H156.759V238.595H159.199V239.995H156.759V246.275C156.759 247.295 157.219 247.795 158.059 247.795C158.579 247.795 158.979 247.715 159.339 247.575V248.975C158.999 249.095 158.599 249.195 157.919 249.195ZM161.888 249.055V238.595H163.548V249.055H161.888ZM162.688 236.415C162.088 236.415 161.588 235.915 161.588 235.315C161.588 234.715 162.088 234.215 162.688 234.215C163.288 234.215 163.788 234.715 163.788 235.315C163.788 235.915 163.288 236.415 162.688 236.415ZM171.286 249.235C168.366 249.235 166.166 247.175 166.166 243.935V243.775C166.166 240.575 168.446 238.415 171.246 238.415C173.426 238.415 175.466 239.415 175.786 242.075H174.146C173.886 240.415 172.686 239.795 171.246 239.795C169.346 239.795 167.886 241.315 167.886 243.775V243.935C167.886 246.495 169.286 247.855 171.306 247.855C172.786 247.855 174.126 246.995 174.306 245.295H175.846C175.626 247.555 173.806 249.235 171.286 249.235ZM180.972 249.235C179.032 249.235 177.492 248.295 177.492 246.155C177.492 243.735 180.052 242.915 182.732 242.915H184.232V242.155C184.232 240.495 183.592 239.795 181.992 239.795C180.552 239.795 179.752 240.395 179.592 241.675H177.932C178.152 239.295 180.052 238.415 182.072 238.415C184.072 238.415 185.892 239.235 185.892 242.155V249.055H184.232V247.735C183.452 248.715 182.512 249.235 180.972 249.235ZM181.132 247.915C182.892 247.915 184.232 247.015 184.232 245.395V244.095H182.792C180.692 244.095 179.152 244.615 179.152 246.155C179.152 247.235 179.672 247.915 181.132 247.915ZM189.153 249.055V238.595H190.813V240.195C191.293 239.215 192.433 238.415 193.933 238.415C195.273 238.415 196.453 238.975 196.993 240.375C197.713 239.015 199.273 238.415 200.573 238.415C202.453 238.415 204.093 239.535 204.093 242.575V249.055H202.433V242.455C202.433 240.615 201.653 239.855 200.213 239.855C198.853 239.855 197.453 240.775 197.453 242.655V249.055H195.793V242.455C195.793 240.615 195.013 239.855 193.573 239.855C192.213 239.855 190.813 240.775 190.813 242.655V249.055H189.153ZM211.636 249.235C208.676 249.235 206.576 247.155 206.576 243.935V243.775C206.576 240.615 208.596 238.415 211.476 238.415C213.896 238.415 216.176 239.875 216.176 243.615V244.155H208.296C208.376 246.535 209.516 247.855 211.656 247.855C213.276 247.855 214.216 247.255 214.436 246.035H216.096C215.736 248.135 213.996 249.235 211.636 249.235ZM208.356 242.815H214.476C214.316 240.655 213.196 239.795 211.476 239.795C209.776 239.795 208.636 240.955 208.356 242.815ZM218.723 249.055V238.595H220.383V240.255C220.863 239.275 222.023 238.415 223.743 238.415C225.903 238.415 227.423 239.595 227.423 242.635V249.055H225.763V242.515C225.763 240.675 224.983 239.855 223.303 239.855C221.763 239.855 220.383 240.835 220.383 242.715V249.055H218.723ZM233.856 249.195C231.956 249.195 231.036 248.075 231.036 246.435V239.995H229.536V238.595H231.036V236.215H232.696V238.595H235.136V239.995H232.696V246.275C232.696 247.295 233.156 247.795 233.996 247.795C234.516 247.795 234.916 247.715 235.276 247.575V248.975C234.936 249.095 234.536 249.195 233.856 249.195ZM242.066 249.235C239.106 249.235 237.006 247.155 237.006 243.935V243.775C237.006 240.615 239.026 238.415 241.906 238.415C244.326 238.415 246.606 239.875 246.606 243.615V244.155H238.726C238.806 246.535 239.946 247.855 242.086 247.855C243.706 247.855 244.646 247.255 244.866 246.035H246.526C246.166 248.135 244.426 249.235 242.066 249.235ZM238.786 242.815H244.906C244.746 240.655 243.626 239.795 241.906 239.795C240.206 239.795 239.066 240.955 238.786 242.815ZM257.626 249.195C255.726 249.195 254.806 248.075 254.806 246.435V239.995H253.306V238.595H254.806V236.215H256.466V238.595H258.906V239.995H256.466V246.275C256.466 247.295 256.926 247.795 257.766 247.795C258.286 247.795 258.686 247.715 259.046 247.575V248.975C258.706 249.095 258.306 249.195 257.626 249.195ZM265.915 247.855C268.015 247.855 269.335 246.275 269.335 243.915V243.775C269.335 241.355 267.995 239.795 265.915 239.795C263.815 239.795 262.495 241.355 262.495 243.755V243.915C262.495 246.295 263.795 247.855 265.915 247.855ZM265.895 249.235C262.915 249.235 260.775 246.975 260.775 243.915V243.755C260.775 240.615 262.955 238.415 265.915 238.415C268.875 238.415 271.055 240.595 271.055 243.735V243.895C271.055 247.055 268.875 249.235 265.895 249.235ZM277.566 249.235C274.826 249.235 272.846 247.295 272.846 244.035V243.875C272.846 240.675 274.846 238.415 277.726 238.415C279.466 238.415 280.546 239.255 281.146 240.275V233.595H282.806V249.055H281.146V247.255C280.546 248.275 279.086 249.235 277.566 249.235ZM277.746 247.855C279.686 247.855 281.206 246.575 281.206 243.895V243.735C281.206 241.055 279.926 239.795 277.886 239.795C275.806 239.795 274.566 241.255 274.566 243.795V243.955C274.566 246.595 275.986 247.855 277.746 247.855ZM290.525 247.855C292.625 247.855 293.945 246.275 293.945 243.915V243.775C293.945 241.355 292.605 239.795 290.525 239.795C288.425 239.795 287.105 241.355 287.105 243.755V243.915C287.105 246.295 288.405 247.855 290.525 247.855ZM290.505 249.235C287.525 249.235 285.385 246.975 285.385 243.915V243.755C285.385 240.615 287.565 238.415 290.525 238.415C293.485 238.415 295.665 240.595 295.665 243.735V243.895C295.665 247.055 293.485 249.235 290.505 249.235ZM301.475 249.235C298.975 249.235 297.475 247.975 297.375 245.835H298.995C299.115 247.075 299.775 247.855 301.455 247.855C303.035 247.855 303.735 247.315 303.735 246.195C303.735 245.095 302.915 244.735 301.295 244.435C298.575 243.935 297.655 243.175 297.655 241.355C297.655 239.415 299.555 238.415 301.195 238.415C303.075 238.415 304.695 239.175 304.975 241.435H303.375C303.135 240.295 302.495 239.795 301.175 239.795C299.975 239.795 299.195 240.395 299.195 241.295C299.195 242.235 299.715 242.615 301.635 242.955C303.795 243.355 305.315 243.835 305.315 246.055C305.315 247.955 304.015 249.235 301.475 249.235ZM317.497 247.855C319.597 247.855 320.917 246.275 320.917 243.915V243.775C320.917 241.355 319.577 239.795 317.497 239.795C315.397 239.795 314.077 241.355 314.077 243.755V243.915C314.077 246.295 315.377 247.855 317.497 247.855ZM317.477 249.235C314.497 249.235 312.357 246.975 312.357 243.915V243.755C312.357 240.615 314.537 238.415 317.497 238.415C320.457 238.415 322.637 240.595 322.637 243.735V243.895C322.637 247.055 320.457 249.235 317.477 249.235ZM328.448 249.235C325.948 249.235 324.448 247.975 324.348 245.835H325.968C326.088 247.075 326.748 247.855 328.428 247.855C330.008 247.855 330.708 247.315 330.708 246.195C330.708 245.095 329.888 244.735 328.268 244.435C325.548 243.935 324.628 243.175 324.628 241.355C324.628 239.415 326.528 238.415 328.168 238.415C330.048 238.415 331.668 239.175 331.948 241.435H330.348C330.108 240.295 329.468 239.795 328.148 239.795C326.948 239.795 326.168 240.395 326.168 241.295C326.168 242.235 326.688 242.615 328.608 242.955C330.768 243.355 332.288 243.835 332.288 246.055C332.288 247.955 330.988 249.235 328.448 249.235ZM342.73 249.235C340.79 249.235 339.25 248.295 339.25 246.155C339.25 243.735 341.81 242.915 344.49 242.915H345.99V242.155C345.99 240.495 345.35 239.795 343.75 239.795C342.31 239.795 341.51 240.395 341.35 241.675H339.69C339.91 239.295 341.81 238.415 343.83 238.415C345.83 238.415 347.65 239.235 347.65 242.155V249.055H345.99V247.735C345.21 248.715 344.27 249.235 342.73 249.235ZM342.89 247.915C344.65 247.915 345.99 247.015 345.99 245.395V244.095H344.55C342.45 244.095 340.91 244.615 340.91 246.155C340.91 247.235 341.43 247.915 342.89 247.915ZM350.911 252.695V238.595H352.571V240.355C353.171 239.335 354.591 238.415 356.111 238.415C358.851 238.415 360.871 240.415 360.871 243.675V243.835C360.871 247.035 358.991 249.235 356.111 249.235C354.391 249.235 353.171 248.375 352.571 247.335V252.695H350.911ZM355.951 247.855C358.031 247.855 359.151 246.455 359.151 243.915V243.755C359.151 241.115 357.691 239.795 355.931 239.795C353.991 239.795 352.511 241.075 352.511 243.755V243.915C352.511 246.595 353.911 247.855 355.951 247.855ZM363.45 252.695V238.595H365.11V240.355C365.71 239.335 367.13 238.415 368.65 238.415C371.39 238.415 373.41 240.415 373.41 243.675V243.835C373.41 247.035 371.53 249.235 368.65 249.235C366.93 249.235 365.71 248.375 365.11 247.335V252.695H363.45ZM368.49 247.855C370.57 247.855 371.69 246.455 371.69 243.915V243.755C371.69 241.115 370.23 239.795 368.47 239.795C366.53 239.795 365.05 241.075 365.05 243.755V243.915C365.05 246.595 366.45 247.855 368.49 247.855ZM385.222 249.235C382.482 249.235 380.502 247.295 380.502 244.035V243.875C380.502 240.675 382.502 238.415 385.382 238.415C387.122 238.415 388.202 239.255 388.802 240.275V233.595H390.462V249.055H388.802V247.255C388.202 248.275 386.742 249.235 385.222 249.235ZM385.402 247.855C387.342 247.855 388.862 246.575 388.862 243.895V243.735C388.862 241.055 387.582 239.795 385.542 239.795C383.462 239.795 382.222 241.255 382.222 243.795V243.955C382.222 246.595 383.642 247.855 385.402 247.855ZM398.101 249.235C395.141 249.235 393.041 247.155 393.041 243.935V243.775C393.041 240.615 395.061 238.415 397.941 238.415C400.361 238.415 402.641 239.875 402.641 243.615V244.155H394.761C394.841 246.535 395.981 247.855 398.121 247.855C399.741 247.855 400.681 247.255 400.901 246.035H402.561C402.201 248.135 400.461 249.235 398.101 249.235ZM394.821 242.815H400.941C400.781 240.655 399.661 239.795 397.941 239.795C396.241 239.795 395.101 240.955 394.821 242.815ZM410.601 249.055V234.755H414.661C417.401 234.755 419.661 235.955 419.661 238.935V239.015C419.661 242.055 417.381 243.235 414.661 243.235H412.341V249.055H410.601ZM412.341 241.855H414.781C416.821 241.855 417.921 240.855 417.921 239.015V238.935C417.921 236.915 416.721 236.155 414.781 236.155H412.341V241.855ZM428.602 247.795C431.782 247.795 433.742 245.395 433.742 241.935V241.775C433.742 238.575 431.862 235.975 428.562 235.975C425.242 235.975 423.322 238.415 423.322 241.815V241.975C423.322 245.435 425.622 247.795 428.602 247.795ZM428.602 249.235C424.382 249.235 421.522 245.995 421.522 241.995V241.835C421.522 237.775 424.362 234.575 428.562 234.575C432.762 234.575 435.542 237.775 435.542 241.795V241.955C435.542 245.995 432.762 249.235 428.602 249.235ZM442.858 249.235C439.038 249.235 437.658 247.135 437.398 244.695H439.078C439.298 246.395 439.978 247.835 442.858 247.835C444.698 247.835 446.118 246.755 446.118 245.135C446.118 243.515 445.378 242.835 442.658 242.395C439.658 241.935 437.878 240.995 437.878 238.455C437.878 236.255 439.778 234.575 442.478 234.575C445.338 234.575 447.118 235.975 447.398 238.515H445.838C445.498 236.715 444.458 235.975 442.478 235.975C440.518 235.975 439.498 236.955 439.498 238.295C439.498 239.695 440.018 240.415 442.938 240.855C446.118 241.355 447.798 242.315 447.798 245.015C447.798 247.415 445.698 249.235 442.858 249.235ZM455.99 249.055V238.595H457.65V249.055H455.99ZM456.79 236.415C456.19 236.415 455.69 235.915 455.69 235.315C455.69 234.715 456.19 234.215 456.79 234.215C457.39 234.215 457.89 234.715 457.89 235.315C457.89 235.915 457.39 236.415 456.79 236.415ZM461.047 249.055V238.595H462.707V240.195C463.187 239.215 464.327 238.415 465.827 238.415C467.167 238.415 468.347 238.975 468.887 240.375C469.607 239.015 471.167 238.415 472.467 238.415C474.347 238.415 475.987 239.535 475.987 242.575V249.055H474.327V242.455C474.327 240.615 473.547 239.855 472.107 239.855C470.747 239.855 469.347 240.775 469.347 242.655V249.055H467.687V242.455C467.687 240.615 466.907 239.855 465.467 239.855C464.107 239.855 462.707 240.775 462.707 242.655V249.055H461.047ZM481.871 249.235C479.931 249.235 478.391 248.295 478.391 246.155C478.391 243.735 480.951 242.915 483.631 242.915H485.131V242.155C485.131 240.495 484.491 239.795 482.891 239.795C481.451 239.795 480.651 240.395 480.491 241.675H478.831C479.051 239.295 480.951 238.415 482.971 238.415C484.971 238.415 486.791 239.235 486.791 242.155V249.055H485.131V247.735C484.351 248.715 483.411 249.235 481.871 249.235ZM482.031 247.915C483.791 247.915 485.131 247.015 485.131 245.395V244.095H483.691C481.591 244.095 480.051 244.615 480.051 246.155C480.051 247.235 480.571 247.915 482.031 247.915ZM494.231 252.875C491.131 252.875 489.771 251.415 489.491 249.655H491.191C491.431 250.855 492.431 251.475 494.211 251.475C496.271 251.475 497.571 250.495 497.571 248.255V246.735C496.971 247.755 495.551 248.715 494.031 248.715C491.291 248.715 489.271 246.635 489.271 243.755V243.615C489.271 240.775 491.271 238.415 494.151 238.415C495.891 238.415 496.971 239.255 497.571 240.275V238.595H499.231V248.355C499.211 251.395 497.151 252.875 494.231 252.875ZM494.211 247.335C496.151 247.335 497.631 245.975 497.631 243.635V243.495C497.631 241.155 496.351 239.795 494.311 239.795C492.231 239.795 490.991 241.335 490.991 243.535V243.695C490.991 245.975 492.451 247.335 494.211 247.335ZM502.63 249.055V238.595H504.29V249.055H502.63ZM503.43 236.415C502.83 236.415 502.33 235.915 502.33 235.315C502.33 234.715 502.83 234.215 503.43 234.215C504.03 234.215 504.53 234.715 504.53 235.315C504.53 235.915 504.03 236.415 503.43 236.415ZM507.688 249.055V238.595H509.348V240.255C509.828 239.275 510.988 238.415 512.708 238.415C514.868 238.415 516.388 239.595 516.388 242.635V249.055H514.728V242.515C514.728 240.675 513.948 239.855 512.268 239.855C510.728 239.855 509.348 240.835 509.348 242.715V249.055H507.688ZM522.261 249.235C520.321 249.235 518.781 248.295 518.781 246.155C518.781 243.735 521.341 242.915 524.021 242.915H525.521V242.155C525.521 240.495 524.881 239.795 523.281 239.795C521.841 239.795 521.041 240.395 520.881 241.675H519.221C519.441 239.295 521.341 238.415 523.361 238.415C525.361 238.415 527.181 239.235 527.181 242.155V249.055H525.521V247.735C524.741 248.715 523.801 249.235 522.261 249.235ZM522.421 247.915C524.181 247.915 525.521 247.015 525.521 245.395V244.095H524.081C521.981 244.095 520.441 244.615 520.441 246.155C520.441 247.235 520.961 247.915 522.421 247.915ZM522.641 236.795L523.881 233.855H525.961L523.881 236.795H522.641ZM532.769 249.055L528.969 238.595H530.769L533.869 247.375L536.929 238.595H538.649L534.889 249.055H532.769ZM544.82 249.235C541.86 249.235 539.76 247.155 539.76 243.935V243.775C539.76 240.615 541.78 238.415 544.66 238.415C547.08 238.415 549.36 239.875 549.36 243.615V244.155H541.48C541.56 246.535 542.7 247.855 544.84 247.855C546.46 247.855 547.4 247.255 547.62 246.035H549.28C548.92 248.135 547.18 249.235 544.82 249.235ZM541.54 242.815H547.66C547.5 240.655 546.38 239.795 544.66 239.795C542.96 239.795 541.82 240.955 541.54 242.815ZM551.947 249.055V238.595H553.607V249.055H551.947ZM552.747 236.415C552.147 236.415 551.647 235.915 551.647 235.315C551.647 234.715 552.147 234.215 552.747 234.215C553.347 234.215 553.847 234.715 553.847 235.315C553.847 235.915 553.347 236.415 552.747 236.415ZM560.244 249.235C557.744 249.235 556.244 247.975 556.144 245.835H557.764C557.884 247.075 558.544 247.855 560.224 247.855C561.804 247.855 562.504 247.315 562.504 246.195C562.504 245.095 561.684 244.735 560.064 244.435C557.344 243.935 556.424 243.175 556.424 241.355C556.424 239.415 558.324 238.415 559.964 238.415C561.844 238.415 563.464 239.175 563.744 241.435H562.144C561.904 240.295 561.264 239.795 559.944 239.795C558.744 239.795 557.964 240.395 557.964 241.295C557.964 242.235 558.484 242.615 560.404 242.955C562.564 243.355 564.084 243.835 564.084 246.055C564.084 247.955 562.784 249.235 560.244 249.235ZM576.187 249.235C573.227 249.235 571.127 247.155 571.127 243.935V243.775C571.127 240.615 573.147 238.415 576.027 238.415C578.447 238.415 580.727 239.875 580.727 243.615V244.155H572.847C572.927 246.535 574.067 247.855 576.207 247.855C577.827 247.855 578.767 247.255 578.987 246.035H580.647C580.287 248.135 578.547 249.235 576.187 249.235ZM572.907 242.815H579.027C578.867 240.655 577.747 239.795 576.027 239.795C574.327 239.795 573.187 240.955 572.907 242.815ZM64.3287 279.055V268.595H65.9887V270.255C66.4687 269.275 67.6287 268.415 69.3487 268.415C71.5087 268.415 73.0287 269.595 73.0287 272.635V279.055H71.3687V272.515C71.3687 270.675 70.5887 269.855 68.9087 269.855C67.3687 269.855 65.9887 270.835 65.9887 272.715V279.055H64.3287ZM80.5618 279.235C77.6018 279.235 75.5018 277.155 75.5018 273.935V273.775C75.5018 270.615 77.5218 268.415 80.4018 268.415C82.8218 268.415 85.1018 269.875 85.1018 273.615V274.155H77.2218C77.3018 276.535 78.4418 277.855 80.5818 277.855C82.2018 277.855 83.1418 277.255 83.3618 276.035H85.0218C84.6618 278.135 82.9218 279.235 80.5618 279.235ZM77.2818 272.815H83.4018C83.2418 270.655 82.1218 269.795 80.4018 269.795C78.7018 269.795 77.5618 270.955 77.2818 272.815ZM87.649 279.055V268.595H89.309V270.255C89.789 269.275 90.949 268.415 92.669 268.415C94.829 268.415 96.349 269.595 96.349 272.635V279.055H94.689V272.515C94.689 270.675 93.909 269.855 92.229 269.855C90.689 269.855 89.309 270.835 89.309 272.715V279.055H87.649ZM99.6021 279.055V263.595H101.262V270.255C101.742 269.275 102.902 268.415 104.622 268.415C106.782 268.415 108.302 269.595 108.302 272.635V279.055H106.642V272.515C106.642 270.675 105.862 269.855 104.182 269.855C102.642 269.855 101.262 270.835 101.262 272.715V279.055H99.6021ZM115.095 279.235C113.015 279.235 111.455 278.095 111.455 275.215V268.595H113.115V275.135C113.115 276.975 113.895 277.795 115.535 277.795C117.015 277.795 118.415 276.815 118.415 274.935V268.595H120.075V279.055H118.415V277.395C117.935 278.375 116.775 279.235 115.095 279.235ZM123.43 279.055V268.595H125.09V270.195C125.57 269.215 126.71 268.415 128.21 268.415C129.55 268.415 130.73 268.975 131.27 270.375C131.99 269.015 133.55 268.415 134.85 268.415C136.73 268.415 138.37 269.535 138.37 272.575V279.055H136.71V272.455C136.71 270.615 135.93 269.855 134.49 269.855C133.13 269.855 131.73 270.775 131.73 272.655V279.055H130.07V272.455C130.07 270.615 129.29 269.855 127.85 269.855C126.49 269.855 125.09 270.775 125.09 272.655V279.055H123.43ZM151.266 279.235C148.346 279.235 146.146 277.175 146.146 273.935V273.775C146.146 270.575 148.426 268.415 151.226 268.415C153.406 268.415 155.446 269.415 155.766 272.075H154.126C153.866 270.415 152.666 269.795 151.226 269.795C149.326 269.795 147.866 271.315 147.866 273.775V273.935C147.866 276.495 149.266 277.855 151.286 277.855C152.766 277.855 154.106 276.995 154.286 275.295H155.826C155.606 277.555 153.786 279.235 151.266 279.235ZM158.333 279.055V263.595H159.993V270.255C160.473 269.275 161.633 268.415 163.353 268.415C165.513 268.415 167.033 269.595 167.033 272.635V279.055H165.373V272.515C165.373 270.675 164.593 269.855 162.913 269.855C161.373 269.855 159.993 270.835 159.993 272.715V279.055H158.333ZM174.566 279.235C171.606 279.235 169.506 277.155 169.506 273.935V273.775C169.506 270.615 171.526 268.415 174.406 268.415C176.826 268.415 179.106 269.875 179.106 273.615V274.155H171.226C171.306 276.535 172.446 277.855 174.586 277.855C176.206 277.855 177.146 277.255 177.366 276.035H179.026C178.666 278.135 176.926 279.235 174.566 279.235ZM171.286 272.815H177.406C177.246 270.655 176.126 269.795 174.406 269.795C172.706 269.795 171.566 270.955 171.286 272.815ZM185.833 282.875C182.733 282.875 181.373 281.415 181.093 279.655H182.793C183.033 280.855 184.033 281.475 185.813 281.475C187.873 281.475 189.173 280.495 189.173 278.255V276.735C188.573 277.755 187.153 278.715 185.633 278.715C182.893 278.715 180.873 276.635 180.873 273.755V273.615C180.873 270.775 182.873 268.415 185.753 268.415C187.493 268.415 188.573 269.255 189.173 270.275V268.595H190.833V278.355C190.813 281.395 188.753 282.875 185.833 282.875ZM185.813 277.335C187.753 277.335 189.233 275.975 189.233 273.635V273.495C189.233 271.155 187.953 269.795 185.913 269.795C183.833 269.795 182.593 271.335 182.593 273.535V273.695C182.593 275.975 184.053 277.335 185.813 277.335ZM196.812 279.235C194.872 279.235 193.332 278.295 193.332 276.155C193.332 273.735 195.892 272.915 198.572 272.915H200.072V272.155C200.072 270.495 199.432 269.795 197.832 269.795C196.392 269.795 195.592 270.395 195.432 271.675H193.772C193.992 269.295 195.892 268.415 197.912 268.415C199.912 268.415 201.732 269.235 201.732 272.155V279.055H200.072V277.735C199.292 278.715 198.352 279.235 196.812 279.235ZM196.972 277.915C198.732 277.915 200.072 277.015 200.072 275.395V274.095H198.632C196.532 274.095 194.992 274.615 194.992 276.155C194.992 277.235 195.512 277.915 196.972 277.915ZM210.286 279.055V268.595H211.946V270.255C212.426 269.275 213.586 268.415 215.306 268.415C217.466 268.415 218.986 269.595 218.986 272.635V279.055H217.326V272.515C217.326 270.675 216.546 269.855 214.866 269.855C213.326 269.855 211.946 270.835 211.946 272.715V279.055H210.286ZM226.519 279.235C223.559 279.235 221.459 277.155 221.459 273.935V273.775C221.459 270.615 223.479 268.415 226.359 268.415C228.779 268.415 231.059 269.875 231.059 273.615V274.155H223.179C223.259 276.535 224.399 277.855 226.539 277.855C228.159 277.855 229.099 277.255 229.319 276.035H230.979C230.619 278.135 228.879 279.235 226.519 279.235ZM223.239 272.815H229.359C229.199 270.655 228.079 269.795 226.359 269.795C224.659 269.795 223.519 270.955 223.239 272.815ZM233.606 279.055V268.595H235.266V270.195C235.746 269.215 236.886 268.415 238.386 268.415C239.726 268.415 240.906 268.975 241.446 270.375C242.166 269.015 243.726 268.415 245.026 268.415C246.906 268.415 248.546 269.535 248.546 272.575V279.055H246.886V272.455C246.886 270.615 246.106 269.855 244.666 269.855C243.306 269.855 241.906 270.775 241.906 272.655V279.055H240.246V272.455C240.246 270.615 239.466 269.855 238.026 269.855C236.666 269.855 235.266 270.775 235.266 272.655V279.055H233.606ZM257.102 282.695V268.595H258.762V270.355C259.362 269.335 260.782 268.415 262.302 268.415C265.042 268.415 267.062 270.415 267.062 273.675V273.835C267.062 277.035 265.182 279.235 262.302 279.235C260.582 279.235 259.362 278.375 258.762 277.335V282.695H257.102ZM262.142 277.855C264.222 277.855 265.342 276.455 265.342 273.915V273.755C265.342 271.115 263.882 269.795 262.122 269.795C260.182 269.795 258.702 271.075 258.702 273.755V273.915C258.702 276.595 260.102 277.855 262.142 277.855ZM273.921 279.235C270.961 279.235 268.861 277.155 268.861 273.935V273.775C268.861 270.615 270.881 268.415 273.761 268.415C276.181 268.415 278.461 269.875 278.461 273.615V274.155H270.581C270.661 276.535 271.801 277.855 273.941 277.855C275.561 277.855 276.501 277.255 276.721 276.035H278.381C278.021 278.135 276.281 279.235 273.921 279.235ZM270.641 272.815H276.761C276.601 270.655 275.481 269.795 273.761 269.795C272.061 269.795 270.921 270.955 270.641 272.815ZM281.008 279.055V268.595H282.668V270.475C283.328 269.295 284.228 268.475 286.108 268.415V269.975C284.008 270.075 282.668 270.735 282.668 273.315V279.055H281.008ZM291.806 279.195C289.906 279.195 288.986 278.075 288.986 276.435V269.995H287.486V268.595H288.986V266.215H290.646V268.595H293.086V269.995H290.646V276.275C290.646 277.295 291.106 277.795 291.946 277.795C292.466 277.795 292.866 277.715 293.226 277.575V278.975C292.886 279.095 292.486 279.195 291.806 279.195ZM300.095 277.855C302.195 277.855 303.515 276.275 303.515 273.915V273.775C303.515 271.355 302.175 269.795 300.095 269.795C297.995 269.795 296.675 271.355 296.675 273.755V273.915C296.675 276.295 297.975 277.855 300.095 277.855ZM300.075 279.235C297.095 279.235 294.955 276.975 294.955 273.915V273.755C294.955 270.615 297.135 268.415 300.095 268.415C303.055 268.415 305.235 270.595 305.235 273.735V273.895C305.235 277.055 303.055 279.235 300.075 279.235ZM317.038 279.235C314.298 279.235 312.318 277.295 312.318 274.035V273.875C312.318 270.675 314.318 268.415 317.198 268.415C318.938 268.415 320.018 269.255 320.618 270.275V263.595H322.278V279.055H320.618V277.255C320.018 278.275 318.558 279.235 317.038 279.235ZM317.218 277.855C319.158 277.855 320.678 276.575 320.678 273.895V273.735C320.678 271.055 319.398 269.795 317.358 269.795C315.278 269.795 314.038 271.255 314.038 273.795V273.955C314.038 276.595 315.458 277.855 317.218 277.855ZM329.997 277.855C332.097 277.855 333.417 276.275 333.417 273.915V273.775C333.417 271.355 332.077 269.795 329.997 269.795C327.897 269.795 326.577 271.355 326.577 273.755V273.915C326.577 276.295 327.877 277.855 329.997 277.855ZM329.977 279.235C326.997 279.235 324.857 276.975 324.857 273.915V273.755C324.857 270.615 327.037 268.415 329.997 268.415C332.957 268.415 335.137 270.595 335.137 273.735V273.895C335.137 277.055 332.957 279.235 329.977 279.235ZM343.121 279.055V264.755H344.861V271.635L351.081 264.735H353.021L346.661 271.695L353.341 279.055H351.241L344.861 272.075V279.055H343.121ZM355.562 282.695L357.542 277.975L353.442 268.595H355.222L358.422 276.095L361.322 268.595H363.022L357.242 282.695H355.562ZM368.583 279.195C366.683 279.195 365.763 278.075 365.763 276.435V269.995H364.263V268.595H365.763V266.215H367.423V268.595H369.863V269.995H367.423V276.275C367.423 277.295 367.883 277.795 368.723 277.795C369.243 277.795 369.643 277.715 370.003 277.575V278.975C369.663 279.095 369.263 279.195 368.583 279.195ZM376.792 279.235C373.832 279.235 371.732 277.155 371.732 273.935V273.775C371.732 270.615 373.752 268.415 376.632 268.415C379.052 268.415 381.332 269.875 381.332 273.615V274.155H373.452C373.532 276.535 374.672 277.855 376.812 277.855C378.432 277.855 379.372 277.255 379.592 276.035H381.252C380.892 278.135 379.152 279.235 376.792 279.235ZM373.512 272.815H379.632C379.472 270.655 378.352 269.795 376.632 269.795C374.932 269.795 373.792 270.955 373.512 272.815ZM384.922 279.155C384.222 279.155 383.642 278.595 383.642 277.875C383.642 277.155 384.222 276.595 384.922 276.595C385.622 276.595 386.202 277.155 386.202 277.875C386.202 278.595 385.622 279.155 384.922 279.155ZM394.839 279.055V264.755H398.899C401.639 264.755 403.899 265.955 403.899 268.935V269.015C403.899 272.055 401.619 273.235 398.899 273.235H396.579V279.055H394.839ZM396.579 271.855H399.019C401.059 271.855 402.159 270.855 402.159 269.015V268.935C402.159 266.915 400.959 266.155 399.019 266.155H396.579V271.855ZM406.34 279.055V268.595H408V270.475C408.66 269.295 409.56 268.475 411.44 268.415V269.975C409.34 270.075 408 270.735 408 273.315V279.055H406.34ZM413.9 279.055V268.595H415.56V279.055H413.9ZM414.7 266.415C414.1 266.415 413.6 265.915 413.6 265.315C413.6 264.715 414.1 264.215 414.7 264.215C415.3 264.215 415.8 264.715 415.8 265.315C415.8 265.915 415.3 266.415 414.7 266.415ZM418.958 279.055V268.595H420.618V270.195C421.098 269.215 422.238 268.415 423.738 268.415C425.078 268.415 426.258 268.975 426.798 270.375C427.518 269.015 429.078 268.415 430.378 268.415C432.258 268.415 433.898 269.535 433.898 272.575V279.055H432.238V272.455C432.238 270.615 431.458 269.855 430.018 269.855C428.658 269.855 427.258 270.775 427.258 272.655V279.055H425.598V272.455C425.598 270.615 424.818 269.855 423.378 269.855C422.018 269.855 420.618 270.775 420.618 272.655V279.055H418.958ZM441.441 279.235C438.481 279.235 436.381 277.155 436.381 273.935V273.775C436.381 270.615 438.401 268.415 441.281 268.415C443.701 268.415 445.981 269.875 445.981 273.615V274.155H438.101C438.181 276.535 439.321 277.855 441.461 277.855C443.081 277.855 444.021 277.255 444.241 276.035H445.901C445.541 278.135 443.801 279.235 441.441 279.235ZM438.161 272.815H444.281C444.121 270.655 443.001 269.795 441.281 269.795C439.581 269.795 438.441 270.955 438.161 272.815ZM448.568 279.055V268.595H450.228V279.055H448.568ZM449.368 266.415C448.768 266.415 448.268 265.915 448.268 265.315C448.268 264.715 448.768 264.215 449.368 264.215C449.968 264.215 450.468 264.715 450.468 265.315C450.468 265.915 449.968 266.415 449.368 266.415ZM453.626 279.055V268.595H455.286V270.475C455.946 269.295 456.846 268.475 458.726 268.415V269.975C456.626 270.075 455.286 270.735 455.286 273.315V279.055H453.626ZM465.212 277.855C467.312 277.855 468.632 276.275 468.632 273.915V273.775C468.632 271.355 467.292 269.795 465.212 269.795C463.112 269.795 461.792 271.355 461.792 273.755V273.915C461.792 276.295 463.092 277.855 465.212 277.855ZM465.192 279.235C462.212 279.235 460.072 276.975 460.072 273.915V273.755C460.072 270.615 462.252 268.415 465.212 268.415C468.172 268.415 470.352 270.595 470.352 273.735V273.895C470.352 277.055 468.172 279.235 465.192 279.235ZM485.735 282.695V277.255C485.135 278.275 483.675 279.235 482.155 279.235C479.415 279.235 477.435 277.295 477.435 274.035V273.875C477.435 270.675 479.435 268.415 482.315 268.415C484.055 268.415 485.135 269.255 485.735 270.275V268.595H487.395V282.695H485.735ZM482.335 277.855C484.275 277.855 485.795 276.575 485.795 273.895V273.735C485.795 271.055 484.515 269.795 482.475 269.795C480.395 269.795 479.155 271.255 479.155 273.795V273.955C479.155 276.595 480.575 277.855 482.335 277.855ZM494.294 279.235C492.214 279.235 490.654 278.095 490.654 275.215V268.595H492.314V275.135C492.314 276.975 493.094 277.795 494.734 277.795C496.214 277.795 497.614 276.815 497.614 274.935V268.595H499.274V279.055H497.614V277.395C497.134 278.375 495.974 279.235 494.294 279.235ZM506.909 279.235C503.949 279.235 501.849 277.155 501.849 273.935V273.775C501.849 270.615 503.869 268.415 506.749 268.415C509.169 268.415 511.449 269.875 511.449 273.615V274.155H503.569C503.649 276.535 504.789 277.855 506.929 277.855C508.549 277.855 509.489 277.255 509.709 276.035H511.369C511.009 278.135 509.269 279.235 506.909 279.235ZM503.629 272.815H509.749C509.589 270.655 508.469 269.795 506.749 269.795C505.049 269.795 503.909 270.955 503.629 272.815ZM523.57 279.235C520.61 279.235 518.51 277.155 518.51 273.935V273.775C518.51 270.615 520.53 268.415 523.41 268.415C525.83 268.415 528.11 269.875 528.11 273.615V274.155H520.23C520.31 276.535 521.45 277.855 523.59 277.855C525.21 277.855 526.15 277.255 526.37 276.035H528.03C527.67 278.135 525.93 279.235 523.57 279.235ZM520.29 272.815H526.41C526.25 270.655 525.13 269.795 523.41 269.795C521.71 269.795 520.57 270.955 520.29 272.815ZM530.697 279.055V263.595H532.377V279.055H530.697ZM540.054 279.235C537.094 279.235 534.994 277.155 534.994 273.935V273.775C534.994 270.615 537.014 268.415 539.894 268.415C542.314 268.415 544.594 269.875 544.594 273.615V274.155H536.714C536.794 276.535 537.934 277.855 540.074 277.855C541.694 277.855 542.634 277.255 542.854 276.035H544.514C544.154 278.135 542.414 279.235 540.054 279.235ZM536.774 272.815H542.894C542.734 270.655 541.614 269.795 539.894 269.795C538.194 269.795 537.054 270.955 536.774 272.815ZM555.614 279.195C553.714 279.195 552.794 278.075 552.794 276.435V269.995H551.294V268.595H552.794V266.215H554.454V268.595H556.894V269.995H554.454V276.275C554.454 277.295 554.914 277.795 555.754 277.795C556.274 277.795 556.674 277.715 557.034 277.575V278.975C556.694 279.095 556.294 279.195 555.614 279.195ZM563.823 279.235C560.863 279.235 558.763 277.155 558.763 273.935V273.775C558.763 270.615 560.783 268.415 563.663 268.415C566.083 268.415 568.363 269.875 568.363 273.615V274.155H560.483C560.563 276.535 561.703 277.855 563.843 277.855C565.463 277.855 566.403 277.255 566.623 276.035H568.283C567.923 278.135 566.183 279.235 563.823 279.235ZM560.543 272.815H566.663C566.503 270.655 565.383 269.795 563.663 269.795C561.963 269.795 560.823 270.955 560.543 272.815ZM570.911 279.055V268.595H572.571V270.195C573.051 269.215 574.191 268.415 575.691 268.415C577.031 268.415 578.211 268.975 578.751 270.375C579.471 269.015 581.031 268.415 582.331 268.415C584.211 268.415 585.851 269.535 585.851 272.575V279.055H584.191V272.455C584.191 270.615 583.411 269.855 581.971 269.855C580.611 269.855 579.211 270.775 579.211 272.655V279.055H577.551V272.455C577.551 270.615 576.771 269.855 575.331 269.855C573.971 269.855 572.571 270.775 572.571 272.655V279.055H570.911ZM597.027 279.235C595.087 279.235 593.547 278.295 593.547 276.155C593.547 273.735 596.107 272.915 598.787 272.915H600.287V272.155C600.287 270.495 599.647 269.795 598.047 269.795C596.607 269.795 595.807 270.395 595.647 271.675H593.987C594.207 269.295 596.107 268.415 598.127 268.415C600.127 268.415 601.947 269.235 601.947 272.155V279.055H600.287V277.735C599.507 278.715 598.567 279.235 597.027 279.235ZM597.187 277.915C598.947 277.915 600.287 277.015 600.287 275.395V274.095H598.847C596.747 274.095 595.207 274.615 595.207 276.155C595.207 277.235 595.727 277.915 597.187 277.915ZM66.9487 309.055L63.1487 298.595H64.9487L68.0487 307.375L71.1087 298.595H72.8287L69.0687 309.055H66.9487ZM78.9993 309.235C76.0393 309.235 73.9393 307.155 73.9393 303.935V303.775C73.9393 300.615 75.9593 298.415 78.8393 298.415C81.2593 298.415 83.5393 299.875 83.5393 303.615V304.155H75.6593C75.7393 306.535 76.8793 307.855 79.0193 307.855C80.6393 307.855 81.5793 307.255 81.7993 306.035H83.4593C83.0993 308.135 81.3593 309.235 78.9993 309.235ZM75.7193 302.815H81.8393C81.6793 300.655 80.5593 299.795 78.8393 299.795C77.1393 299.795 75.9993 300.955 75.7193 302.815ZM86.0865 309.055V298.595H87.7465V300.475C88.4065 299.295 89.3065 298.475 91.1865 298.415V299.975C89.0865 300.075 87.7465 300.735 87.7465 303.315V309.055H86.0865ZM96.7483 309.235C94.2483 309.235 92.7483 307.975 92.6483 305.835H94.2683C94.3883 307.075 95.0483 307.855 96.7283 307.855C98.3083 307.855 99.0083 307.315 99.0083 306.195C99.0083 305.095 98.1883 304.735 96.5683 304.435C93.8483 303.935 92.9283 303.175 92.9283 301.355C92.9283 299.415 94.8283 298.415 96.4683 298.415C98.3483 298.415 99.9683 299.175 100.248 301.435H98.6483C98.4083 300.295 97.7683 299.795 96.4483 299.795C95.2483 299.795 94.4683 300.395 94.4683 301.295C94.4683 302.235 94.9883 302.615 96.9083 302.955C99.0683 303.355 100.588 303.835 100.588 306.055C100.588 307.955 99.2883 309.235 96.7483 309.235ZM105.738 309.235C103.798 309.235 102.258 308.295 102.258 306.155C102.258 303.735 104.818 302.915 107.498 302.915H108.998V302.155C108.998 300.495 108.358 299.795 106.758 299.795C105.318 299.795 104.518 300.395 104.358 301.675H102.698C102.918 299.295 104.818 298.415 106.838 298.415C108.838 298.415 110.658 299.235 110.658 302.155V309.055H108.998V307.735C108.218 308.715 107.278 309.235 105.738 309.235ZM105.898 307.915C107.658 307.915 108.998 307.015 108.998 305.395V304.095H107.558C105.458 304.095 103.918 304.615 103.918 306.155C103.918 307.235 104.438 307.915 105.898 307.915ZM107.938 296.675C107.078 296.675 106.358 295.815 105.778 295.815C105.398 295.815 105.078 296.195 104.978 296.715H103.778C103.938 295.295 104.758 294.395 105.798 294.395C106.638 294.395 107.358 295.255 107.938 295.255C108.318 295.255 108.638 294.875 108.738 294.355H109.938C109.778 295.775 108.958 296.675 107.938 296.675ZM118.278 307.855C120.378 307.855 121.698 306.275 121.698 303.915V303.775C121.698 301.355 120.358 299.795 118.278 299.795C116.178 299.795 114.858 301.355 114.858 303.755V303.915C114.858 306.295 116.158 307.855 118.278 307.855ZM118.258 309.235C115.278 309.235 113.138 306.975 113.138 303.915V303.755C113.138 300.615 115.318 298.415 118.278 298.415C121.238 298.415 123.418 300.595 123.418 303.735V303.895C123.418 307.055 121.238 309.235 118.258 309.235ZM133.382 309.055L130.162 298.595H131.962L134.402 307.015L136.942 298.595H138.382L140.762 307.015L143.222 298.595H144.922L141.662 309.055H139.822L137.642 301.215L135.202 309.055H133.382ZM151.245 309.235C148.285 309.235 146.185 307.155 146.185 303.935V303.775C146.185 300.615 148.205 298.415 151.085 298.415C153.505 298.415 155.785 299.875 155.785 303.615V304.155H147.905C147.985 306.535 149.125 307.855 151.265 307.855C152.885 307.855 153.825 307.255 154.045 306.035H155.705C155.345 308.135 153.605 309.235 151.245 309.235ZM147.965 302.815H154.085C153.925 300.655 152.805 299.795 151.085 299.795C149.385 299.795 148.245 300.955 147.965 302.815ZM163.533 309.235C161.833 309.235 160.593 308.375 159.993 307.335V309.055H158.333V293.595H159.993V300.355C160.593 299.335 162.013 298.415 163.533 298.415C166.273 298.415 168.293 300.415 168.293 303.675V303.835C168.293 307.035 166.413 309.235 163.533 309.235ZM163.373 307.855C165.453 307.855 166.573 306.455 166.573 303.915V303.755C166.573 301.115 165.113 299.795 163.353 299.795C161.413 299.795 159.933 301.075 159.933 303.755V303.915C159.933 306.595 161.333 307.855 163.373 307.855ZM180.525 307.855C182.625 307.855 183.945 306.275 183.945 303.915V303.775C183.945 301.355 182.605 299.795 180.525 299.795C178.425 299.795 177.105 301.355 177.105 303.755V303.915C177.105 306.295 178.405 307.855 180.525 307.855ZM180.505 309.235C177.525 309.235 175.385 306.975 175.385 303.915V303.755C175.385 300.615 177.565 298.415 180.525 298.415C183.485 298.415 185.665 300.595 185.665 303.735V303.895C185.665 307.055 183.485 309.235 180.505 309.235ZM201.048 312.695V307.255C200.448 308.275 198.988 309.235 197.468 309.235C194.728 309.235 192.748 307.295 192.748 304.035V303.875C192.748 300.675 194.748 298.415 197.628 298.415C199.368 298.415 200.448 299.255 201.048 300.275V298.595H202.708V312.695H201.048ZM197.648 307.855C199.588 307.855 201.108 306.575 201.108 303.895V303.735C201.108 301.055 199.828 299.795 197.788 299.795C195.708 299.795 194.468 301.255 194.468 303.795V303.955C194.468 306.595 195.888 307.855 197.648 307.855ZM209.607 309.235C207.527 309.235 205.967 308.095 205.967 305.215V298.595H207.627V305.135C207.627 306.975 208.407 307.795 210.047 307.795C211.527 307.795 212.927 306.815 212.927 304.935V298.595H214.587V309.055H212.927V307.395C212.447 308.375 211.287 309.235 209.607 309.235ZM222.222 309.235C219.262 309.235 217.162 307.155 217.162 303.935V303.775C217.162 300.615 219.182 298.415 222.062 298.415C224.482 298.415 226.762 299.875 226.762 303.615V304.155H218.882C218.962 306.535 220.102 307.855 222.242 307.855C223.862 307.855 224.802 307.255 225.022 306.035H226.682C226.322 308.135 224.582 309.235 222.222 309.235ZM218.942 302.815H225.062C224.902 300.655 223.782 299.795 222.062 299.795C220.362 299.795 219.222 300.955 218.942 302.815ZM237.222 309.235C235.282 309.235 233.742 308.295 233.742 306.155C233.742 303.735 236.302 302.915 238.982 302.915H240.482V302.155C240.482 300.495 239.842 299.795 238.242 299.795C236.802 299.795 236.002 300.395 235.842 301.675H234.182C234.402 299.295 236.302 298.415 238.322 298.415C240.322 298.415 242.142 299.235 242.142 302.155V309.055H240.482V307.735C239.702 308.715 238.762 309.235 237.222 309.235ZM237.382 307.915C239.142 307.915 240.482 307.015 240.482 305.395V304.095H239.042C236.942 304.095 235.402 304.615 235.402 306.155C235.402 307.235 235.922 307.915 237.382 307.915ZM243.903 312.875V311.475C245.083 311.375 245.443 310.775 245.443 309.855V298.595H247.103V309.715C247.103 311.715 246.223 312.795 243.903 312.875ZM246.243 296.415C245.643 296.415 245.143 295.915 245.143 295.315C245.143 294.715 245.643 294.215 246.243 294.215C246.843 294.215 247.343 294.715 247.343 295.315C247.343 295.915 246.843 296.415 246.243 296.415ZM254.041 309.235C251.961 309.235 250.401 308.095 250.401 305.215V298.595H252.061V305.135C252.061 306.975 252.841 307.795 254.481 307.795C255.961 307.795 257.361 306.815 257.361 304.935V298.595H259.021V309.055H257.361V307.395C256.881 308.375 255.721 309.235 254.041 309.235ZM266.316 309.235C263.576 309.235 261.596 307.295 261.596 304.035V303.875C261.596 300.675 263.596 298.415 266.476 298.415C268.216 298.415 269.296 299.255 269.896 300.275V293.595H271.556V309.055H269.896V307.255C269.296 308.275 267.836 309.235 266.316 309.235ZM266.496 307.855C268.436 307.855 269.956 306.575 269.956 303.895V303.735C269.956 301.055 268.676 299.795 266.636 299.795C264.556 299.795 263.316 301.255 263.316 303.795V303.955C263.316 306.595 264.736 307.855 266.496 307.855ZM277.535 309.235C275.595 309.235 274.055 308.295 274.055 306.155C274.055 303.735 276.615 302.915 279.295 302.915H280.795V302.155C280.795 300.495 280.155 299.795 278.555 299.795C277.115 299.795 276.315 300.395 276.155 301.675H274.495C274.715 299.295 276.615 298.415 278.635 298.415C280.635 298.415 282.455 299.235 282.455 302.155V309.055H280.795V307.735C280.015 308.715 279.075 309.235 277.535 309.235ZM277.695 307.915C279.455 307.915 280.795 307.015 280.795 305.395V304.095H279.355C277.255 304.095 275.715 304.615 275.715 306.155C275.715 307.235 276.235 307.915 277.695 307.915ZM291.008 309.055V298.595H292.668V300.195C293.148 299.215 294.288 298.415 295.788 298.415C297.128 298.415 298.308 298.975 298.848 300.375C299.568 299.015 301.128 298.415 302.428 298.415C304.308 298.415 305.948 299.535 305.948 302.575V309.055H304.288V302.455C304.288 300.615 303.508 299.855 302.068 299.855C300.708 299.855 299.308 300.775 299.308 302.655V309.055H297.648V302.455C297.648 300.615 296.868 299.855 295.428 299.855C294.068 299.855 292.668 300.775 292.668 302.655V309.055H291.008ZM312.751 309.235C310.671 309.235 309.111 308.095 309.111 305.215V298.595H310.771V305.135C310.771 306.975 311.551 307.795 313.191 307.795C314.671 307.795 316.071 306.815 316.071 304.935V298.595H317.731V309.055H316.071V307.395C315.591 308.375 314.431 309.235 312.751 309.235ZM321.126 309.055V298.595H322.786V309.055H321.126ZM321.926 296.415C321.326 296.415 320.826 295.915 320.826 295.315C320.826 294.715 321.326 294.215 321.926 294.215C322.526 294.215 323.026 294.715 323.026 295.315C323.026 295.915 322.526 296.415 321.926 296.415ZM329.364 309.195C327.464 309.195 326.544 308.075 326.544 306.435V299.995H325.044V298.595H326.544V296.215H328.204V298.595H330.644V299.995H328.204V306.275C328.204 307.295 328.664 307.795 329.504 307.795C330.024 307.795 330.424 307.715 330.784 307.575V308.975C330.444 309.095 330.044 309.195 329.364 309.195ZM337.653 307.855C339.753 307.855 341.073 306.275 341.073 303.915V303.775C341.073 301.355 339.733 299.795 337.653 299.795C335.553 299.795 334.233 301.355 334.233 303.755V303.915C334.233 306.295 335.533 307.855 337.653 307.855ZM337.633 309.235C334.653 309.235 332.513 306.975 332.513 303.915V303.755C332.513 300.615 334.693 298.415 337.653 298.415C340.613 298.415 342.793 300.595 342.793 303.735V303.895C342.793 307.055 340.613 309.235 337.633 309.235ZM345.996 309.155C345.296 309.155 344.716 308.595 344.716 307.875C344.716 307.155 345.296 306.595 345.996 306.595C346.696 306.595 347.276 307.155 347.276 307.875C347.276 308.595 346.696 309.155 345.996 309.155ZM355.913 309.055V294.755H364.253V296.175H357.653V301.035H362.973V302.455H357.653V307.635H364.613V309.055H355.913ZM366.099 309.055L369.839 303.675L366.339 298.595H368.279L370.839 302.395L373.379 298.595H375.179L371.719 303.555L375.539 309.055H373.579L370.759 304.835L367.879 309.055H366.099ZM381.618 309.235C378.698 309.235 376.498 307.175 376.498 303.935V303.775C376.498 300.575 378.778 298.415 381.578 298.415C383.758 298.415 385.798 299.415 386.118 302.075H384.478C384.218 300.415 383.018 299.795 381.578 299.795C379.678 299.795 378.218 301.315 378.218 303.775V303.935C378.218 306.495 379.618 307.855 381.638 307.855C383.118 307.855 384.458 306.995 384.638 305.295H386.178C385.958 307.555 384.138 309.235 381.618 309.235ZM392.964 309.235C390.004 309.235 387.904 307.155 387.904 303.935V303.775C387.904 300.615 389.924 298.415 392.804 298.415C395.224 298.415 397.504 299.875 397.504 303.615V304.155H389.624C389.704 306.535 390.844 307.855 392.984 307.855C394.604 307.855 395.544 307.255 395.764 306.035H397.424C397.064 308.135 395.324 309.235 392.964 309.235ZM389.684 302.815H395.804C395.644 300.655 394.524 299.795 392.804 299.795C391.104 299.795 389.964 300.955 389.684 302.815ZM400.091 309.055V293.595H401.771V309.055H400.091ZM409.448 309.235C406.488 309.235 404.388 307.155 404.388 303.935V303.775C404.388 300.615 406.408 298.415 409.288 298.415C411.708 298.415 413.988 299.875 413.988 303.615V304.155H406.108C406.188 306.535 407.328 307.855 409.468 307.855C411.088 307.855 412.028 307.255 412.248 306.035H413.908C413.548 308.135 411.808 309.235 409.448 309.235ZM406.168 302.815H412.288C412.128 300.655 411.008 299.795 409.288 299.795C407.588 299.795 406.448 300.955 406.168 302.815ZM416.536 309.055V298.595H418.196V300.255C418.676 299.275 419.836 298.415 421.556 298.415C423.716 298.415 425.236 299.595 425.236 302.635V309.055H423.576V302.515C423.576 300.675 422.796 299.855 421.116 299.855C419.576 299.855 418.196 300.835 418.196 302.715V309.055H416.536ZM431.669 309.195C429.769 309.195 428.849 308.075 428.849 306.435V299.995H427.349V298.595H428.849V296.215H430.509V298.595H432.949V299.995H430.509V306.275C430.509 307.295 430.969 307.795 431.809 307.795C432.329 307.795 432.729 307.715 433.089 307.575V308.975C432.749 309.095 432.349 309.195 431.669 309.195ZM439.878 309.235C436.918 309.235 434.818 307.155 434.818 303.935V303.775C434.818 300.615 436.838 298.415 439.718 298.415C442.138 298.415 444.418 299.875 444.418 303.615V304.155H436.538C436.618 306.535 437.758 307.855 439.898 307.855C441.518 307.855 442.458 307.255 442.678 306.035H444.338C443.978 308.135 442.238 309.235 439.878 309.235ZM436.598 302.815H442.718C442.558 300.655 441.438 299.795 439.718 299.795C438.018 299.795 436.878 300.955 436.598 302.815ZM452.258 309.055V298.595H453.918V300.255C454.398 299.275 455.558 298.415 457.278 298.415C459.438 298.415 460.958 299.595 460.958 302.635V309.055H459.298V302.515C459.298 300.675 458.518 299.855 456.838 299.855C455.298 299.855 453.918 300.835 453.918 302.715V309.055H452.258ZM466.831 309.235C464.891 309.235 463.351 308.295 463.351 306.155C463.351 303.735 465.911 302.915 468.591 302.915H470.091V302.155C470.091 300.495 469.451 299.795 467.851 299.795C466.411 299.795 465.611 300.395 465.451 301.675H463.791C464.011 299.295 465.911 298.415 467.931 298.415C469.931 298.415 471.751 299.235 471.751 302.155V309.055H470.091V307.735C469.311 308.715 468.371 309.235 466.831 309.235ZM466.991 307.915C468.751 307.915 470.091 307.015 470.091 305.395V304.095H468.651C466.551 304.095 465.011 304.615 465.011 306.155C465.011 307.235 465.531 307.915 466.991 307.915ZM480.305 309.055V293.595H481.965V300.255C482.445 299.275 483.605 298.415 485.325 298.415C487.485 298.415 489.005 299.595 489.005 302.635V309.055H487.345V302.515C487.345 300.675 486.565 299.855 484.885 299.855C483.345 299.855 481.965 300.835 481.965 302.715V309.055H480.305ZM496.618 307.855C498.718 307.855 500.038 306.275 500.038 303.915V303.775C500.038 301.355 498.698 299.795 496.618 299.795C494.518 299.795 493.198 301.355 493.198 303.755V303.915C493.198 306.295 494.498 307.855 496.618 307.855ZM496.598 309.235C493.618 309.235 491.478 306.975 491.478 303.915V303.755C491.478 300.615 493.658 298.415 496.618 298.415C499.578 298.415 501.758 300.595 501.758 303.735V303.895C501.758 307.055 499.578 309.235 496.598 309.235ZM504.329 309.055V298.595H505.989V300.475C506.649 299.295 507.549 298.475 509.429 298.415V299.975C507.329 300.075 505.989 300.735 505.989 303.315V309.055H504.329ZM514.371 309.235C512.431 309.235 510.891 308.295 510.891 306.155C510.891 303.735 513.451 302.915 516.131 302.915H517.631V302.155C517.631 300.495 516.991 299.795 515.391 299.795C513.951 299.795 513.151 300.395 512.991 301.675H511.331C511.551 299.295 513.451 298.415 515.471 298.415C517.471 298.415 519.291 299.235 519.291 302.155V309.055H517.631V307.735C516.851 308.715 515.911 309.235 514.371 309.235ZM514.531 307.915C516.291 307.915 517.631 307.015 517.631 305.395V304.095H516.191C514.091 304.095 512.551 304.615 512.551 306.155C512.551 307.235 513.071 307.915 514.531 307.915ZM531.784 309.235C529.044 309.235 527.064 307.295 527.064 304.035V303.875C527.064 300.675 529.064 298.415 531.944 298.415C533.684 298.415 534.764 299.255 535.364 300.275V293.595H537.024V309.055H535.364V307.255C534.764 308.275 533.304 309.235 531.784 309.235ZM531.964 307.855C533.904 307.855 535.424 306.575 535.424 303.895V303.735C535.424 301.055 534.144 299.795 532.104 299.795C530.024 299.795 528.784 301.255 528.784 303.795V303.955C528.784 306.595 530.204 307.855 531.964 307.855ZM544.663 309.235C541.703 309.235 539.603 307.155 539.603 303.935V303.775C539.603 300.615 541.623 298.415 544.503 298.415C546.923 298.415 549.203 299.875 549.203 303.615V304.155H541.323C541.403 306.535 542.543 307.855 544.683 307.855C546.303 307.855 547.243 307.255 547.463 306.035H549.123C548.763 308.135 547.023 309.235 544.663 309.235ZM541.383 302.815H547.503C547.343 300.655 546.223 299.795 544.503 299.795C542.803 299.795 541.663 300.955 541.383 302.815ZM64.6887 339.055V329.995H63.1887V328.595H64.6887V326.895C64.6887 324.775 65.7287 323.535 67.8087 323.535C68.3487 323.535 68.6287 323.595 69.0487 323.735V325.135C68.7487 325.015 68.3287 324.915 67.8687 324.915C66.7887 324.915 66.3487 325.655 66.3487 326.715V328.595H68.9087V329.995H66.3487V339.055H64.6887ZM75.0149 339.235C72.0549 339.235 69.9549 337.155 69.9549 333.935V333.775C69.9549 330.615 71.9749 328.415 74.8549 328.415C77.2749 328.415 79.5549 329.875 79.5549 333.615V334.155H71.6749C71.7549 336.535 72.8949 337.855 75.0349 337.855C76.6549 337.855 77.5949 337.255 77.8149 336.035H79.4749C79.1149 338.135 77.3749 339.235 75.0149 339.235ZM71.7349 332.815H77.8549C77.6949 330.655 76.5749 329.795 74.8549 329.795C73.1549 329.795 72.0149 330.955 71.7349 332.815ZM86.4421 339.235C83.5221 339.235 81.3221 337.175 81.3221 333.935V333.775C81.3221 330.575 83.6021 328.415 86.4021 328.415C88.5821 328.415 90.6221 329.415 90.9421 332.075H89.3021C89.0421 330.415 87.8421 329.795 86.4021 329.795C84.5021 329.795 83.0421 331.315 83.0421 333.775V333.935C83.0421 336.495 84.4421 337.855 86.4621 337.855C87.9421 337.855 89.2821 336.995 89.4621 335.295H91.0021C90.7821 337.555 88.9621 339.235 86.4421 339.235ZM93.5083 339.055V323.595H95.1683V330.255C95.6483 329.275 96.8083 328.415 98.5283 328.415C100.688 328.415 102.208 329.595 102.208 332.635V339.055H100.548V332.515C100.548 330.675 99.7683 329.855 98.0883 329.855C96.5483 329.855 95.1683 330.835 95.1683 332.715V339.055H93.5083ZM108.081 339.235C106.141 339.235 104.601 338.295 104.601 336.155C104.601 333.735 107.161 332.915 109.841 332.915H111.341V332.155C111.341 330.495 110.701 329.795 109.101 329.795C107.661 329.795 106.861 330.395 106.701 331.675H105.041C105.261 329.295 107.161 328.415 109.181 328.415C111.181 328.415 113.001 329.235 113.001 332.155V339.055H111.341V337.735C110.561 338.715 109.621 339.235 108.081 339.235ZM108.241 337.915C110.001 337.915 111.341 337.015 111.341 335.395V334.095H109.901C107.801 334.095 106.261 334.615 106.261 336.155C106.261 337.235 106.781 337.915 108.241 337.915ZM116.262 339.055V328.595H117.922V330.475C118.582 329.295 119.482 328.475 121.362 328.415V329.975C119.262 330.075 117.922 330.735 117.922 333.315V339.055H116.262ZM131.695 339.235C129.755 339.235 128.215 338.295 128.215 336.155C128.215 333.735 130.775 332.915 133.455 332.915H134.955V332.155C134.955 330.495 134.315 329.795 132.715 329.795C131.275 329.795 130.475 330.395 130.315 331.675H128.655C128.875 329.295 130.775 328.415 132.795 328.415C134.795 328.415 136.615 329.235 136.615 332.155V339.055H134.955V337.735C134.175 338.715 133.235 339.235 131.695 339.235ZM131.855 337.915C133.615 337.915 134.955 337.015 134.955 335.395V334.095H133.515C131.415 334.095 129.875 334.615 129.875 336.155C129.875 337.235 130.395 337.915 131.855 337.915ZM143.116 339.235C140.616 339.235 139.116 337.975 139.016 335.835H140.636C140.756 337.075 141.416 337.855 143.096 337.855C144.676 337.855 145.376 337.315 145.376 336.195C145.376 335.095 144.556 334.735 142.936 334.435C140.216 333.935 139.296 333.175 139.296 331.355C139.296 329.415 141.196 328.415 142.836 328.415C144.716 328.415 146.336 329.175 146.616 331.435H145.016C144.776 330.295 144.136 329.795 142.816 329.795C141.616 329.795 140.836 330.395 140.836 331.295C140.836 332.235 141.356 332.615 143.276 332.955C145.436 333.355 146.956 333.835 146.956 336.055C146.956 337.955 145.656 339.235 143.116 339.235ZM157.398 339.055L153.598 328.595H155.398L158.498 337.375L161.558 328.595H163.278L159.518 339.055H157.398ZM169.448 339.235C166.488 339.235 164.388 337.155 164.388 333.935V333.775C164.388 330.615 166.408 328.415 169.288 328.415C171.708 328.415 173.988 329.875 173.988 333.615V334.155H166.108C166.188 336.535 167.328 337.855 169.468 337.855C171.088 337.855 172.028 337.255 172.248 336.035H173.908C173.548 338.135 171.808 339.235 169.448 339.235ZM166.168 332.815H172.288C172.128 330.655 171.008 329.795 169.288 329.795C167.588 329.795 166.448 330.955 166.168 332.815ZM176.536 339.055V328.595H178.196V330.255C178.676 329.275 179.836 328.415 181.556 328.415C183.716 328.415 185.236 329.595 185.236 332.635V339.055H183.576V332.515C183.576 330.675 182.796 329.855 181.116 329.855C179.576 329.855 178.196 330.835 178.196 332.715V339.055H176.536ZM192.429 339.235C189.689 339.235 187.709 337.295 187.709 334.035V333.875C187.709 330.675 189.709 328.415 192.589 328.415C194.329 328.415 195.409 329.255 196.009 330.275V323.595H197.669V339.055H196.009V337.255C195.409 338.275 193.949 339.235 192.429 339.235ZM192.609 337.855C194.549 337.855 196.069 336.575 196.069 333.895V333.735C196.069 331.055 194.789 329.795 192.749 329.795C190.669 329.795 189.429 331.255 189.429 333.795V333.955C189.429 336.595 190.849 337.855 192.609 337.855ZM203.648 339.235C201.708 339.235 200.168 338.295 200.168 336.155C200.168 333.735 202.728 332.915 205.408 332.915H206.908V332.155C206.908 330.495 206.268 329.795 204.668 329.795C203.228 329.795 202.428 330.395 202.268 331.675H200.608C200.828 329.295 202.728 328.415 204.748 328.415C206.748 328.415 208.568 329.235 208.568 332.155V339.055H206.908V337.735C206.128 338.715 205.188 339.235 203.648 339.235ZM203.808 337.915C205.568 337.915 206.908 337.015 206.908 335.395V334.095H205.468C203.368 334.095 201.828 334.615 201.828 336.155C201.828 337.235 202.348 337.915 203.808 337.915ZM215.069 339.235C212.569 339.235 211.069 337.975 210.969 335.835H212.589C212.709 337.075 213.369 337.855 215.049 337.855C216.629 337.855 217.329 337.315 217.329 336.195C217.329 335.095 216.509 334.735 214.889 334.435C212.169 333.935 211.249 333.175 211.249 331.355C211.249 329.415 213.149 328.415 214.789 328.415C216.669 328.415 218.289 329.175 218.569 331.435H216.969C216.729 330.295 216.089 329.795 214.769 329.795C213.569 329.795 212.789 330.395 212.789 331.295C212.789 332.235 213.309 332.615 215.229 332.955C217.389 333.355 218.909 333.835 218.909 336.055C218.909 337.955 217.609 339.235 215.069 339.235ZM231.011 339.235C228.051 339.235 225.951 337.155 225.951 333.935V333.775C225.951 330.615 227.971 328.415 230.851 328.415C233.271 328.415 235.551 329.875 235.551 333.615V334.155H227.671C227.751 336.535 228.891 337.855 231.031 337.855C232.651 337.855 233.591 337.255 233.811 336.035H235.471C235.111 338.135 233.371 339.235 231.011 339.235ZM227.731 332.815H233.851C233.691 330.655 232.571 329.795 230.851 329.795C229.151 329.795 228.011 330.955 227.731 332.815ZM243.431 339.055V323.595H245.111V339.055H243.431ZM251.128 339.235C249.188 339.235 247.648 338.295 247.648 336.155C247.648 333.735 250.208 332.915 252.888 332.915H254.388V332.155C254.388 330.495 253.748 329.795 252.148 329.795C250.708 329.795 249.908 330.395 249.748 331.675H248.088C248.308 329.295 250.208 328.415 252.228 328.415C254.228 328.415 256.048 329.235 256.048 332.155V339.055H254.388V337.735C253.608 338.715 252.668 339.235 251.128 339.235ZM251.288 337.915C253.048 337.915 254.388 337.015 254.388 335.395V334.095H252.948C250.848 334.095 249.308 334.615 249.308 336.155C249.308 337.235 249.828 337.915 251.288 337.915ZM259.309 339.055V328.595H260.969V330.255C261.449 329.275 262.609 328.415 264.329 328.415C266.489 328.415 268.009 329.595 268.009 332.635V339.055H266.349V332.515C266.349 330.675 265.569 329.855 263.889 329.855C262.349 329.855 260.969 330.835 260.969 332.715V339.055H259.309ZM275.302 343.335C274.142 343.335 273.382 342.655 273.302 341.655H274.382C274.462 342.035 274.742 342.375 275.242 342.375C275.742 342.375 276.042 342.075 276.042 341.655C276.042 341.235 275.742 340.975 275.322 340.975C275.062 340.975 274.862 341.075 274.762 341.135L274.122 340.575L274.882 339.195C272.322 338.895 270.482 336.915 270.482 333.935V333.775C270.482 330.575 272.762 328.415 275.562 328.415C277.742 328.415 279.782 329.415 280.102 332.075H278.462C278.202 330.415 277.002 329.795 275.562 329.795C273.662 329.795 272.202 331.315 272.202 333.775V333.935C272.202 336.495 273.602 337.855 275.622 337.855C277.102 337.855 278.442 336.995 278.622 335.295H280.162C279.942 337.455 278.282 339.075 275.922 339.215L275.442 340.115C276.362 339.995 277.322 340.515 277.322 341.735C277.322 342.815 276.382 343.335 275.302 343.335ZM285.288 339.235C283.348 339.235 281.808 338.295 281.808 336.155C281.808 333.735 284.368 332.915 287.048 332.915H288.548V332.155C288.548 330.495 287.908 329.795 286.308 329.795C284.868 329.795 284.068 330.395 283.908 331.675H282.248C282.468 329.295 284.368 328.415 286.388 328.415C288.388 328.415 290.208 329.235 290.208 332.155V339.055H288.548V337.735C287.768 338.715 286.828 339.235 285.288 339.235ZM285.448 337.915C287.208 337.915 288.548 337.015 288.548 335.395V334.095H287.108C285.008 334.095 283.468 334.615 283.468 336.155C283.468 337.235 283.988 337.915 285.448 337.915ZM293.469 339.055V328.595H295.129V330.475C295.789 329.295 296.689 328.475 298.569 328.415V329.975C296.469 330.075 295.129 330.735 295.129 333.315V339.055H293.469ZM310.642 337.855C312.742 337.855 314.062 336.275 314.062 333.915V333.775C314.062 331.355 312.722 329.795 310.642 329.795C308.542 329.795 307.222 331.355 307.222 333.755V333.915C307.222 336.295 308.522 337.855 310.642 337.855ZM310.622 339.235C307.642 339.235 305.502 336.975 305.502 333.915V333.755C305.502 330.615 307.682 328.415 310.642 328.415C313.602 328.415 315.782 330.595 315.782 333.735V333.895C315.782 337.055 313.602 339.235 310.622 339.235ZM321.592 339.235C319.092 339.235 317.592 337.975 317.492 335.835H319.112C319.232 337.075 319.892 337.855 321.572 337.855C323.152 337.855 323.852 337.315 323.852 336.195C323.852 335.095 323.032 334.735 321.412 334.435C318.692 333.935 317.772 333.175 317.772 331.355C317.772 329.415 319.672 328.415 321.312 328.415C323.192 328.415 324.812 329.175 325.092 331.435H323.492C323.252 330.295 322.612 329.795 321.292 329.795C320.092 329.795 319.312 330.395 319.312 331.295C319.312 332.235 319.832 332.615 321.752 332.955C323.912 333.355 325.432 333.835 325.432 336.055C325.432 337.955 324.132 339.235 321.592 339.235ZM337.194 339.235C334.454 339.235 332.474 337.295 332.474 334.035V333.875C332.474 330.675 334.474 328.415 337.354 328.415C339.094 328.415 340.174 329.255 340.774 330.275V323.595H342.434V339.055H340.774V337.255C340.174 338.275 338.714 339.235 337.194 339.235ZM337.374 337.855C339.314 337.855 340.834 336.575 340.834 333.895V333.735C340.834 331.055 339.554 329.795 337.514 329.795C335.434 329.795 334.194 331.255 334.194 333.795V333.955C334.194 336.595 335.614 337.855 337.374 337.855ZM348.413 339.235C346.473 339.235 344.933 338.295 344.933 336.155C344.933 333.735 347.493 332.915 350.173 332.915H351.673V332.155C351.673 330.495 351.033 329.795 349.433 329.795C347.993 329.795 347.193 330.395 347.033 331.675H345.373C345.593 329.295 347.493 328.415 349.513 328.415C351.513 328.415 353.333 329.235 353.333 332.155V339.055H351.673V337.735C350.893 338.715 349.953 339.235 348.413 339.235ZM348.573 337.915C350.333 337.915 351.673 337.015 351.673 335.395V334.095H350.233C348.133 334.095 346.593 334.615 346.593 336.155C346.593 337.235 347.113 337.915 348.573 337.915ZM360.534 339.235C357.794 339.235 355.814 337.295 355.814 334.035V333.875C355.814 330.675 357.814 328.415 360.694 328.415C362.434 328.415 363.514 329.255 364.114 330.275V323.595H365.774V339.055H364.114V337.255C363.514 338.275 362.054 339.235 360.534 339.235ZM360.714 337.855C362.654 337.855 364.174 336.575 364.174 333.895V333.735C364.174 331.055 362.894 329.795 360.854 329.795C358.774 329.795 357.534 331.255 357.534 333.795V333.955C357.534 336.595 358.954 337.855 360.714 337.855ZM373.493 337.855C375.593 337.855 376.913 336.275 376.913 333.915V333.775C376.913 331.355 375.573 329.795 373.493 329.795C371.393 329.795 370.073 331.355 370.073 333.755V333.915C370.073 336.295 371.373 337.855 373.493 337.855ZM373.473 339.235C370.493 339.235 368.353 336.975 368.353 333.915V333.755C368.353 330.615 370.533 328.415 373.493 328.415C376.453 328.415 378.633 330.595 378.633 333.735V333.895C378.633 337.055 376.453 339.235 373.473 339.235ZM384.444 339.235C381.944 339.235 380.444 337.975 380.344 335.835H381.964C382.084 337.075 382.744 337.855 384.424 337.855C386.004 337.855 386.704 337.315 386.704 336.195C386.704 335.095 385.884 334.735 384.264 334.435C381.544 333.935 380.624 333.175 380.624 331.355C380.624 329.415 382.524 328.415 384.164 328.415C386.044 328.415 387.664 329.175 387.944 331.435H386.344C386.104 330.295 385.464 329.795 384.144 329.795C382.944 329.795 382.164 330.395 382.164 331.295C382.164 332.235 382.684 332.615 384.604 332.955C386.764 333.355 388.284 333.835 388.284 336.055C388.284 337.955 386.984 339.235 384.444 339.235ZM391.953 339.155C391.253 339.155 390.673 338.595 390.673 337.875C390.673 337.155 391.253 336.595 391.953 336.595C392.653 336.595 393.233 337.155 393.233 337.875C393.233 338.595 392.653 339.155 391.953 339.155ZM401.871 339.055V324.755H410.211V326.175H403.611V331.035H408.931V332.455H403.611V337.635H410.571V339.055H401.871ZM420.992 339.235C419.052 339.235 417.512 338.295 417.512 336.155C417.512 333.735 420.072 332.915 422.752 332.915H424.252V332.155C424.252 330.495 423.612 329.795 422.012 329.795C420.572 329.795 419.772 330.395 419.612 331.675H417.952C418.172 329.295 420.072 328.415 422.092 328.415C424.092 328.415 425.912 329.235 425.912 332.155V339.055H424.252V337.735C423.472 338.715 422.532 339.235 420.992 339.235ZM421.152 337.915C422.912 337.915 424.252 337.015 424.252 335.395V334.095H422.812C420.712 334.095 419.172 334.615 419.172 336.155C419.172 337.235 419.692 337.915 421.152 337.915ZM429.212 339.055V328.595H430.872V339.055H429.212ZM430.012 326.415C429.412 326.415 428.912 325.915 428.912 325.315C428.912 324.715 429.412 324.215 430.012 324.215C430.612 324.215 431.112 324.715 431.112 325.315C431.112 325.915 430.612 326.415 430.012 326.415ZM434.27 339.055V328.595H435.93V330.255C436.41 329.275 437.57 328.415 439.29 328.415C441.45 328.415 442.97 329.595 442.97 332.635V339.055H441.31V332.515C441.31 330.675 440.53 329.855 438.85 329.855C437.31 329.855 435.93 330.835 435.93 332.715V339.055H434.27ZM450.163 339.235C447.423 339.235 445.443 337.295 445.443 334.035V333.875C445.443 330.675 447.443 328.415 450.323 328.415C452.063 328.415 453.143 329.255 453.743 330.275V323.595H455.403V339.055H453.743V337.255C453.143 338.275 451.683 339.235 450.163 339.235ZM450.343 337.855C452.283 337.855 453.803 336.575 453.803 333.895V333.735C453.803 331.055 452.523 329.795 450.483 329.795C448.403 329.795 447.163 331.255 447.163 333.795V333.955C447.163 336.595 448.583 337.855 450.343 337.855ZM461.382 339.235C459.442 339.235 457.902 338.295 457.902 336.155C457.902 333.735 460.462 332.915 463.142 332.915H464.642V332.155C464.642 330.495 464.002 329.795 462.402 329.795C460.962 329.795 460.162 330.395 460.002 331.675H458.342C458.562 329.295 460.462 328.415 462.482 328.415C464.482 328.415 466.302 329.235 466.302 332.155V339.055H464.642V337.735C463.862 338.715 462.922 339.235 461.382 339.235ZM461.542 337.915C463.302 337.915 464.642 337.015 464.642 335.395V334.095H463.202C461.102 334.095 459.562 334.615 459.562 336.155C459.562 337.235 460.082 337.915 461.542 337.915ZM478.036 339.195C476.136 339.195 475.216 338.075 475.216 336.435V329.995H473.716V328.595H475.216V326.215H476.876V328.595H479.316V329.995H476.876V336.275C476.876 337.295 477.336 337.795 478.176 337.795C478.696 337.795 479.096 337.715 479.456 337.575V338.975C479.116 339.095 478.716 339.195 478.036 339.195ZM486.245 339.235C483.285 339.235 481.185 337.155 481.185 333.935V333.775C481.185 330.615 483.205 328.415 486.085 328.415C488.505 328.415 490.785 329.875 490.785 333.615V334.155H482.905C482.985 336.535 484.125 337.855 486.265 337.855C487.885 337.855 488.825 337.255 489.045 336.035H490.705C490.345 338.135 488.605 339.235 486.245 339.235ZM482.965 332.815H489.085C488.925 330.655 487.805 329.795 486.085 329.795C484.385 329.795 483.245 330.955 482.965 332.815ZM493.333 339.055V328.595H494.993V330.195C495.473 329.215 496.613 328.415 498.113 328.415C499.453 328.415 500.633 328.975 501.173 330.375C501.893 329.015 503.453 328.415 504.753 328.415C506.633 328.415 508.273 329.535 508.273 332.575V339.055H506.613V332.455C506.613 330.615 505.833 329.855 504.393 329.855C503.033 329.855 501.633 330.775 501.633 332.655V339.055H499.973V332.455C499.973 330.615 499.193 329.855 497.753 329.855C496.393 329.855 494.993 330.775 494.993 332.655V339.055H493.333ZM521.169 339.235C518.249 339.235 516.049 337.175 516.049 333.935V333.775C516.049 330.575 518.329 328.415 521.129 328.415C523.309 328.415 525.349 329.415 525.669 332.075H524.029C523.769 330.415 522.569 329.795 521.129 329.795C519.229 329.795 517.769 331.315 517.769 333.775V333.935C517.769 336.495 519.169 337.855 521.189 337.855C522.669 337.855 524.009 336.995 524.189 335.295H525.729C525.509 337.555 523.689 339.235 521.169 339.235ZM532.595 337.855C534.695 337.855 536.015 336.275 536.015 333.915V333.775C536.015 331.355 534.675 329.795 532.595 329.795C530.495 329.795 529.175 331.355 529.175 333.755V333.915C529.175 336.295 530.475 337.855 532.595 337.855ZM532.575 339.235C529.595 339.235 527.455 336.975 527.455 333.915V333.755C527.455 330.615 529.635 328.415 532.595 328.415C535.555 328.415 537.735 330.595 537.735 333.735V333.895C537.735 337.055 535.555 339.235 532.575 339.235ZM540.305 339.055V328.595H541.965V330.195C542.445 329.215 543.585 328.415 545.085 328.415C546.425 328.415 547.605 328.975 548.145 330.375C548.865 329.015 550.425 328.415 551.725 328.415C553.605 328.415 555.245 329.535 555.245 332.575V339.055H553.585V332.455C553.585 330.615 552.805 329.855 551.365 329.855C550.005 329.855 548.605 330.775 548.605 332.655V339.055H546.945V332.455C546.945 330.615 546.165 329.855 544.725 329.855C543.365 329.855 541.965 330.775 541.965 332.655V339.055H540.305ZM562.868 337.855C564.968 337.855 566.288 336.275 566.288 333.915V333.775C566.288 331.355 564.948 329.795 562.868 329.795C560.768 329.795 559.448 331.355 559.448 333.755V333.915C559.448 336.295 560.748 337.855 562.868 337.855ZM562.848 339.235C559.868 339.235 557.728 336.975 557.728 333.915V333.755C557.728 330.615 559.908 328.415 562.868 328.415C565.828 328.415 568.008 330.595 568.008 333.735V333.895C568.008 337.055 565.828 339.235 562.848 339.235ZM68.6087 369.235C65.6487 369.235 63.5487 367.155 63.5487 363.935V363.775C63.5487 360.615 65.5687 358.415 68.4487 358.415C70.8687 358.415 73.1487 359.875 73.1487 363.615V364.155H65.2687C65.3487 366.535 66.4887 367.855 68.6287 367.855C70.2487 367.855 71.1887 367.255 71.4087 366.035H73.0687C72.7087 368.135 70.9687 369.235 68.6087 369.235ZM65.3287 362.815H71.4487C71.2887 360.655 70.1687 359.795 68.4487 359.795C66.7487 359.795 65.6087 360.955 65.3287 362.815ZM74.2829 369.055L78.0229 363.675L74.5229 358.595H76.4629L79.0229 362.395L81.5629 358.595H83.3629L79.9029 363.555L83.7229 369.055H81.7629L78.9429 364.835L76.0629 369.055H74.2829ZM85.9693 372.695V358.595H87.6293V360.355C88.2293 359.335 89.6493 358.415 91.1693 358.415C93.9093 358.415 95.9293 360.415 95.9293 363.675V363.835C95.9293 367.035 94.0493 369.235 91.1693 369.235C89.4493 369.235 88.2293 368.375 87.6293 367.335V372.695H85.9693ZM91.0093 367.855C93.0893 367.855 94.2093 366.455 94.2093 363.915V363.755C94.2093 361.115 92.7493 359.795 90.9893 359.795C89.0493 359.795 87.5693 361.075 87.5693 363.755V363.915C87.5693 366.595 88.9693 367.855 91.0093 367.855ZM102.868 367.855C104.968 367.855 106.288 366.275 106.288 363.915V363.775C106.288 361.355 104.948 359.795 102.868 359.795C100.768 359.795 99.4483 361.355 99.4483 363.755V363.915C99.4483 366.295 100.748 367.855 102.868 367.855ZM102.848 369.235C99.8683 369.235 97.7283 366.975 97.7283 363.915V363.755C97.7283 360.615 99.9083 358.415 102.868 358.415C105.828 358.415 108.008 360.595 108.008 363.735V363.895C108.008 367.055 105.828 369.235 102.848 369.235ZM110.579 369.055V358.595H112.239V360.475C112.899 359.295 113.799 358.475 115.679 358.415V359.975C113.579 360.075 112.239 360.735 112.239 363.315V369.055H110.579ZM121.376 369.195C119.476 369.195 118.556 368.075 118.556 366.435V359.995H117.056V358.595H118.556V356.215H120.216V358.595H122.656V359.995H120.216V366.275C120.216 367.295 120.676 367.795 121.516 367.795C122.036 367.795 122.436 367.715 122.796 367.575V368.975C122.456 369.095 122.056 369.195 121.376 369.195ZM128.023 369.235C126.083 369.235 124.543 368.295 124.543 366.155C124.543 363.735 127.103 362.915 129.783 362.915H131.283V362.155C131.283 360.495 130.643 359.795 129.043 359.795C127.603 359.795 126.803 360.395 126.643 361.675H124.983C125.203 359.295 127.103 358.415 129.123 358.415C131.123 358.415 132.943 359.235 132.943 362.155V369.055H131.283V367.735C130.503 368.715 129.563 369.235 128.023 369.235ZM128.183 367.915C129.943 367.915 131.283 367.015 131.283 365.395V364.095H129.843C127.743 364.095 126.203 364.615 126.203 366.155C126.203 367.235 126.723 367.915 128.183 367.915ZM136.204 369.055V358.595H137.864V360.475C138.524 359.295 139.424 358.475 141.304 358.415V359.975C139.204 360.075 137.864 360.735 137.864 363.315V369.055H136.204ZM153.376 367.855C155.476 367.855 156.796 366.275 156.796 363.915V363.775C156.796 361.355 155.456 359.795 153.376 359.795C151.276 359.795 149.956 361.355 149.956 363.755V363.915C149.956 366.295 151.256 367.855 153.376 367.855ZM153.356 369.235C150.376 369.235 148.236 366.975 148.236 363.915V363.755C148.236 360.615 150.416 358.415 153.376 358.415C156.336 358.415 158.516 360.595 158.516 363.735V363.895C158.516 367.055 156.336 369.235 153.356 369.235ZM164.326 369.235C161.826 369.235 160.326 367.975 160.226 365.835H161.846C161.966 367.075 162.626 367.855 164.306 367.855C165.886 367.855 166.586 367.315 166.586 366.195C166.586 365.095 165.766 364.735 164.146 364.435C161.426 363.935 160.506 363.175 160.506 361.355C160.506 359.415 162.406 358.415 164.046 358.415C165.926 358.415 167.546 359.175 167.826 361.435H166.226C165.986 360.295 165.346 359.795 164.026 359.795C162.826 359.795 162.046 360.395 162.046 361.295C162.046 362.235 162.566 362.615 164.486 362.955C166.646 363.355 168.166 363.835 168.166 366.055C168.166 367.955 166.866 369.235 164.326 369.235ZM179.929 369.235C177.189 369.235 175.209 367.295 175.209 364.035V363.875C175.209 360.675 177.209 358.415 180.089 358.415C181.829 358.415 182.909 359.255 183.509 360.275V353.595H185.169V369.055H183.509V367.255C182.909 368.275 181.449 369.235 179.929 369.235ZM180.109 367.855C182.049 367.855 183.569 366.575 183.569 363.895V363.735C183.569 361.055 182.289 359.795 180.249 359.795C178.169 359.795 176.929 361.255 176.929 363.795V363.955C176.929 366.595 178.349 367.855 180.109 367.855ZM191.148 369.235C189.208 369.235 187.668 368.295 187.668 366.155C187.668 363.735 190.228 362.915 192.908 362.915H194.408V362.155C194.408 360.495 193.768 359.795 192.168 359.795C190.728 359.795 189.928 360.395 189.768 361.675H188.108C188.328 359.295 190.228 358.415 192.248 358.415C194.248 358.415 196.068 359.235 196.068 362.155V369.055H194.408V367.735C193.628 368.715 192.688 369.235 191.148 369.235ZM191.308 367.915C193.068 367.915 194.408 367.015 194.408 365.395V364.095H192.968C190.868 364.095 189.328 364.615 189.328 366.155C189.328 367.235 189.848 367.915 191.308 367.915ZM203.269 369.235C200.529 369.235 198.549 367.295 198.549 364.035V363.875C198.549 360.675 200.549 358.415 203.429 358.415C205.169 358.415 206.249 359.255 206.849 360.275V353.595H208.509V369.055H206.849V367.255C206.249 368.275 204.789 369.235 203.269 369.235ZM203.449 367.855C205.389 367.855 206.909 366.575 206.909 363.895V363.735C206.909 361.055 205.629 359.795 203.589 359.795C201.509 359.795 200.269 361.255 200.269 363.795V363.955C200.269 366.595 201.689 367.855 203.449 367.855ZM216.228 367.855C218.328 367.855 219.648 366.275 219.648 363.915V363.775C219.648 361.355 218.308 359.795 216.228 359.795C214.128 359.795 212.808 361.355 212.808 363.755V363.915C212.808 366.295 214.108 367.855 216.228 367.855ZM216.208 369.235C213.228 369.235 211.088 366.975 211.088 363.915V363.755C211.088 360.615 213.268 358.415 216.228 358.415C219.188 358.415 221.368 360.595 221.368 363.735V363.895C221.368 367.055 219.188 369.235 216.208 369.235ZM227.178 369.235C224.678 369.235 223.178 367.975 223.078 365.835H224.698C224.818 367.075 225.478 367.855 227.158 367.855C228.738 367.855 229.438 367.315 229.438 366.195C229.438 365.095 228.618 364.735 226.998 364.435C224.278 363.935 223.358 363.175 223.358 361.355C223.358 359.415 225.258 358.415 226.898 358.415C228.778 358.415 230.398 359.175 230.678 361.435H229.078C228.838 360.295 228.198 359.795 226.878 359.795C225.678 359.795 224.898 360.395 224.898 361.295C224.898 362.235 225.418 362.615 227.338 362.955C229.498 363.355 231.018 363.835 231.018 366.055C231.018 367.955 229.718 369.235 227.178 369.235ZM238.84 372.695V358.595H240.5V360.355C241.1 359.335 242.52 358.415 244.04 358.415C246.78 358.415 248.8 360.415 248.8 363.675V363.835C248.8 367.035 246.92 369.235 244.04 369.235C242.32 369.235 241.1 368.375 240.5 367.335V372.695H238.84ZM243.88 367.855C245.96 367.855 247.08 366.455 247.08 363.915V363.755C247.08 361.115 245.62 359.795 243.86 359.795C241.92 359.795 240.44 361.075 240.44 363.755V363.915C240.44 366.595 241.84 367.855 243.88 367.855ZM253.999 369.235C252.059 369.235 250.519 368.295 250.519 366.155C250.519 363.735 253.079 362.915 255.759 362.915H257.259V362.155C257.259 360.495 256.619 359.795 255.019 359.795C253.579 359.795 252.779 360.395 252.619 361.675H250.959C251.179 359.295 253.079 358.415 255.099 358.415C257.099 358.415 258.919 359.235 258.919 362.155V369.055H257.259V367.735C256.479 368.715 255.539 369.235 253.999 369.235ZM254.159 367.915C255.919 367.915 257.259 367.015 257.259 365.395V364.095H255.819C253.719 364.095 252.179 364.615 252.179 366.155C252.179 367.235 252.699 367.915 254.159 367.915ZM262.18 369.055V358.595H263.84V360.475C264.5 359.295 265.4 358.475 267.28 358.415V359.975C265.18 360.075 263.84 360.735 263.84 363.315V369.055H262.18ZM272.222 369.235C270.282 369.235 268.742 368.295 268.742 366.155C268.742 363.735 271.302 362.915 273.982 362.915H275.482V362.155C275.482 360.495 274.842 359.795 273.242 359.795C271.802 359.795 271.002 360.395 270.842 361.675H269.182C269.402 359.295 271.302 358.415 273.322 358.415C275.322 358.415 277.142 359.235 277.142 362.155V369.055H275.482V367.735C274.702 368.715 273.762 369.235 272.222 369.235ZM272.382 367.915C274.142 367.915 275.482 367.015 275.482 365.395V364.095H274.042C271.942 364.095 270.402 364.615 270.402 366.155C270.402 367.235 270.922 367.915 272.382 367.915ZM285.816 369.055V354.755H294.156V356.175H287.556V361.035H292.876V362.455H287.556V367.635H294.516V369.055H285.816ZM296.002 369.055L299.742 363.675L296.242 358.595H298.182L300.742 362.395L303.282 358.595H305.082L301.622 363.555L305.442 369.055H303.482L300.662 364.835L297.782 369.055H296.002ZM311.52 369.235C308.6 369.235 306.4 367.175 306.4 363.935V363.775C306.4 360.575 308.68 358.415 311.48 358.415C313.66 358.415 315.7 359.415 316.02 362.075H314.38C314.12 360.415 312.92 359.795 311.48 359.795C309.58 359.795 308.12 361.315 308.12 363.775V363.935C308.12 366.495 309.52 367.855 311.54 367.855C313.02 367.855 314.36 366.995 314.54 365.295H316.08C315.86 367.555 314.04 369.235 311.52 369.235ZM322.866 369.235C319.906 369.235 317.806 367.155 317.806 363.935V363.775C317.806 360.615 319.826 358.415 322.706 358.415C325.126 358.415 327.406 359.875 327.406 363.615V364.155H319.526C319.606 366.535 320.746 367.855 322.886 367.855C324.506 367.855 325.446 367.255 325.666 366.035H327.326C326.966 368.135 325.226 369.235 322.866 369.235ZM319.586 362.815H325.706C325.546 360.655 324.426 359.795 322.706 359.795C321.006 359.795 319.866 360.955 319.586 362.815ZM329.994 369.055V353.595H331.674V369.055H329.994ZM340.364 372.695V358.595H342.024V360.355C342.624 359.335 344.044 358.415 345.564 358.415C348.304 358.415 350.324 360.415 350.324 363.675V363.835C350.324 367.035 348.444 369.235 345.564 369.235C343.844 369.235 342.624 368.375 342.024 367.335V372.695H340.364ZM345.404 367.855C347.484 367.855 348.604 366.455 348.604 363.915V363.755C348.604 361.115 347.144 359.795 345.384 359.795C343.444 359.795 341.964 361.075 341.964 363.755V363.915C341.964 366.595 343.364 367.855 345.404 367.855ZM355.523 369.235C353.583 369.235 352.043 368.295 352.043 366.155C352.043 363.735 354.603 362.915 357.283 362.915H358.783V362.155C358.783 360.495 358.143 359.795 356.543 359.795C355.103 359.795 354.303 360.395 354.143 361.675H352.483C352.703 359.295 354.603 358.415 356.623 358.415C358.623 358.415 360.443 359.235 360.443 362.155V369.055H358.783V367.735C358.003 368.715 357.063 369.235 355.523 369.235ZM355.683 367.915C357.443 367.915 358.783 367.015 358.783 365.395V364.095H357.343C355.243 364.095 353.703 364.615 353.703 366.155C353.703 367.235 354.223 367.915 355.683 367.915ZM363.704 369.055V358.595H365.364V360.475C366.024 359.295 366.924 358.475 368.804 358.415V359.975C366.704 360.075 365.364 360.735 365.364 363.315V369.055H363.704ZM373.746 369.235C371.806 369.235 370.266 368.295 370.266 366.155C370.266 363.735 372.826 362.915 375.506 362.915H377.006V362.155C377.006 360.495 376.366 359.795 374.766 359.795C373.326 359.795 372.526 360.395 372.366 361.675H370.706C370.926 359.295 372.826 358.415 374.846 358.415C376.846 358.415 378.666 359.235 378.666 362.155V369.055H377.006V367.735C376.226 368.715 375.286 369.235 373.746 369.235ZM373.906 367.915C375.666 367.915 377.006 367.015 377.006 365.395V364.095H375.566C373.466 364.095 371.926 364.615 371.926 366.155C371.926 367.235 372.446 367.915 373.906 367.915ZM390.759 369.235C388.679 369.235 387.119 368.095 387.119 365.215V358.595H388.779V365.135C388.779 366.975 389.559 367.795 391.199 367.795C392.679 367.795 394.079 366.815 394.079 364.935V358.595H395.739V369.055H394.079V367.395C393.599 368.375 392.439 369.235 390.759 369.235ZM399.094 369.055V358.595H400.754V360.195C401.234 359.215 402.374 358.415 403.874 358.415C405.214 358.415 406.394 358.975 406.934 360.375C407.654 359.015 409.214 358.415 410.514 358.415C412.394 358.415 414.034 359.535 414.034 362.575V369.055H412.374V362.455C412.374 360.615 411.594 359.855 410.154 359.855C408.794 359.855 407.394 360.775 407.394 362.655V369.055H405.734V362.455C405.734 360.615 404.954 359.855 403.514 359.855C402.154 359.855 400.754 360.775 400.754 362.655V369.055H399.094ZM419.917 369.235C417.977 369.235 416.437 368.295 416.437 366.155C416.437 363.735 418.997 362.915 421.677 362.915H423.177V362.155C423.177 360.495 422.537 359.795 420.937 359.795C419.497 359.795 418.697 360.395 418.537 361.675H416.877C417.097 359.295 418.997 358.415 421.017 358.415C423.017 358.415 424.837 359.235 424.837 362.155V369.055H423.177V367.735C422.397 368.715 421.457 369.235 419.917 369.235ZM420.077 367.915C421.837 367.915 423.177 367.015 423.177 365.395V364.095H421.737C419.637 364.095 418.097 364.615 418.097 366.155C418.097 367.235 418.617 367.915 420.077 367.915ZM436.011 369.235C434.071 369.235 432.531 368.295 432.531 366.155C432.531 363.735 435.091 362.915 437.771 362.915H439.271V362.155C439.271 360.495 438.631 359.795 437.031 359.795C435.591 359.795 434.791 360.395 434.631 361.675H432.971C433.191 359.295 435.091 358.415 437.111 358.415C439.111 358.415 440.931 359.235 440.931 362.155V369.055H439.271V367.735C438.491 368.715 437.551 369.235 436.011 369.235ZM436.171 367.915C437.931 367.915 439.271 367.015 439.271 365.395V364.095H437.831C435.731 364.095 434.191 364.615 434.191 366.155C434.191 367.235 434.711 367.915 436.171 367.915ZM444.192 369.055V358.595H445.852V360.255C446.332 359.275 447.492 358.415 449.212 358.415C451.372 358.415 452.892 359.595 452.892 362.635V369.055H451.232V362.515C451.232 360.675 450.452 359.855 448.772 359.855C447.232 359.855 445.852 360.835 445.852 362.715V369.055H444.192ZM458.765 369.235C456.825 369.235 455.285 368.295 455.285 366.155C455.285 363.735 457.845 362.915 460.525 362.915H462.025V362.155C462.025 360.495 461.385 359.795 459.785 359.795C458.345 359.795 457.545 360.395 457.385 361.675H455.725C455.945 359.295 457.845 358.415 459.865 358.415C461.865 358.415 463.685 359.235 463.685 362.155V369.055H462.025V367.735C461.245 368.715 460.305 369.235 458.765 369.235ZM458.925 367.915C460.685 367.915 462.025 367.015 462.025 365.395V364.095H460.585C458.485 364.095 456.945 364.615 456.945 366.155C456.945 367.235 457.465 367.915 458.925 367.915ZM459.145 356.795L460.385 353.855H462.465L460.385 356.795H459.145ZM466.986 369.055V353.595H468.666V369.055H466.986ZM472.103 369.055V358.595H473.763V369.055H472.103ZM472.903 356.415C472.303 356.415 471.803 355.915 471.803 355.315C471.803 354.715 472.303 354.215 472.903 354.215C473.503 354.215 474.003 354.715 474.003 355.315C474.003 355.915 473.503 356.415 472.903 356.415ZM480.401 369.235C477.901 369.235 476.401 367.975 476.301 365.835H477.921C478.041 367.075 478.701 367.855 480.381 367.855C481.961 367.855 482.661 367.315 482.661 366.195C482.661 365.095 481.841 364.735 480.221 364.435C477.501 363.935 476.581 363.175 476.581 361.355C476.581 359.415 478.481 358.415 480.121 358.415C482.001 358.415 483.621 359.175 483.901 361.435H482.301C482.061 360.295 481.421 359.795 480.101 359.795C478.901 359.795 478.121 360.395 478.121 361.295C478.121 362.235 478.641 362.615 480.561 362.955C482.721 363.355 484.241 363.835 484.241 366.055C484.241 367.955 482.941 369.235 480.401 369.235ZM491.05 369.235C488.09 369.235 485.99 367.155 485.99 363.935V363.775C485.99 360.615 488.01 358.415 490.89 358.415C493.31 358.415 495.59 359.875 495.59 363.615V364.155H487.71C487.79 366.535 488.93 367.855 491.07 367.855C492.69 367.855 493.63 367.255 493.85 366.035H495.51C495.15 368.135 493.41 369.235 491.05 369.235ZM487.77 362.815H493.89C493.73 360.655 492.61 359.795 490.89 359.795C489.19 359.795 488.05 360.955 487.77 362.815ZM503.43 369.055V358.595H505.09V360.195C505.57 359.215 506.71 358.415 508.21 358.415C509.55 358.415 510.73 358.975 511.27 360.375C511.99 359.015 513.55 358.415 514.85 358.415C516.73 358.415 518.37 359.535 518.37 362.575V369.055H516.71V362.455C516.71 360.615 515.93 359.855 514.49 359.855C513.13 359.855 511.73 360.775 511.73 362.655V369.055H510.07V362.455C510.07 360.615 509.29 359.855 507.85 359.855C506.49 359.855 505.09 360.775 505.09 362.655V369.055H503.43ZM525.913 369.235C522.953 369.235 520.853 367.155 520.853 363.935V363.775C520.853 360.615 522.873 358.415 525.753 358.415C528.173 358.415 530.453 359.875 530.453 363.615V364.155H522.573C522.653 366.535 523.793 367.855 525.933 367.855C527.553 367.855 528.493 367.255 528.713 366.035H530.373C530.013 368.135 528.273 369.235 525.913 369.235ZM522.633 362.815H528.753C528.593 360.655 527.473 359.795 525.753 359.795C524.053 359.795 522.913 360.955 522.633 362.815ZM533.041 369.055V353.595H534.721V369.055H533.041ZM538.118 369.055V353.595H539.778V360.255C540.258 359.275 541.418 358.415 543.138 358.415C545.298 358.415 546.818 359.595 546.818 362.635V369.055H545.158V362.515C545.158 360.675 544.378 359.855 542.698 359.855C541.158 359.855 539.778 360.835 539.778 362.715V369.055H538.118ZM554.431 367.855C556.531 367.855 557.851 366.275 557.851 363.915V363.775C557.851 361.355 556.511 359.795 554.431 359.795C552.331 359.795 551.011 361.355 551.011 363.755V363.915C551.011 366.295 552.311 367.855 554.431 367.855ZM554.411 369.235C551.431 369.235 549.291 366.975 549.291 363.915V363.755C549.291 360.615 551.471 358.415 554.431 358.415C557.391 358.415 559.571 360.595 559.571 363.735V363.895C559.571 367.055 557.391 369.235 554.411 369.235ZM562.141 369.055V358.595H563.801V360.475C564.461 359.295 565.361 358.475 567.241 358.415V359.975C565.141 360.075 563.801 360.735 563.801 363.315V369.055H562.141ZM569.609 369.155C568.909 369.155 568.329 368.595 568.329 367.875C568.329 367.155 568.909 366.595 569.609 366.595C570.309 366.595 570.889 367.155 570.889 367.875C570.889 368.595 570.309 369.155 569.609 369.155Z" fill="#363F4D"/>
<path d="M64.6507 190.448V171.858H70.2147L74.5567 183.428L78.8467 171.858H84.3067V190.448H80.1207V177.396L74.9727 190.448H73.5947L68.4207 177.396V190.448H64.6507ZM94.1412 190.734C90.0332 190.734 87.0432 188.16 87.0432 183.818V183.61C87.0432 179.32 90.0852 176.538 94.0372 176.538C97.5472 176.538 100.667 178.592 100.667 183.454V184.494H90.8652C90.9692 186.756 92.1912 188.056 94.2452 188.056C95.9872 188.056 96.8452 187.302 97.0792 186.158H100.641C100.199 189.096 97.8592 190.734 94.1412 190.734ZM90.9172 182.18H97.0012C96.8712 180.126 95.8312 179.138 94.0372 179.138C92.3472 179.138 91.2032 180.256 90.9172 182.18ZM103.239 190.448V170.688H106.983V190.448H103.239ZM110.422 190.448V170.688H114.192V179.008C114.868 177.656 116.35 176.538 118.612 176.538C121.29 176.538 123.188 178.15 123.188 181.79V190.448H119.418V182.336C119.418 180.49 118.69 179.606 117.026 179.606C115.414 179.606 114.192 180.594 114.192 182.596V190.448H110.422ZM132.762 187.874C134.868 187.874 136.09 186.314 136.09 183.74V183.558C136.09 180.958 134.868 179.398 132.762 179.398C130.682 179.398 129.434 180.906 129.434 183.506V183.714C129.434 186.314 130.63 187.874 132.762 187.874ZM132.736 190.734C128.68 190.734 125.586 188.03 125.586 183.792V183.584C125.586 179.32 128.68 176.538 132.762 176.538C136.844 176.538 139.912 179.268 139.912 183.506V183.714C139.912 188.004 136.818 190.734 132.736 190.734ZM142.44 190.448V176.85H146.21V179.45C147.068 177.63 148.394 176.668 150.604 176.642V180.152C147.822 180.126 146.21 181.036 146.21 183.636V190.448H142.44ZM162.508 190.734C160.038 190.734 157.958 189.538 157.958 186.678C157.958 183.506 160.87 182.31 165.03 182.31H166.564V181.764C166.564 180.152 166.07 179.268 164.354 179.268C162.872 179.268 162.196 180.022 162.04 181.192H158.478C158.712 177.968 161.26 176.538 164.588 176.538C167.916 176.538 170.282 177.89 170.282 181.582V190.448H166.616V188.81C165.836 189.902 164.64 190.734 162.508 190.734ZM163.626 188.108C165.29 188.108 166.564 187.198 166.564 185.69V184.546H165.108C162.924 184.546 161.65 185.014 161.65 186.47C161.65 187.458 162.248 188.108 163.626 188.108ZM173.518 195.076V176.85H177.288V178.982C178.042 177.682 179.628 176.538 181.63 176.538C184.958 176.538 187.558 179.008 187.558 183.506V183.714C187.558 188.212 185.01 190.734 181.63 190.734C179.524 190.734 177.99 189.694 177.288 188.368V195.076H173.518ZM180.512 187.796C182.592 187.796 183.736 186.392 183.736 183.74V183.532C183.736 180.776 182.384 179.424 180.486 179.424C178.51 179.424 177.158 180.802 177.158 183.532V183.74C177.158 186.47 178.458 187.796 180.512 187.796ZM190.072 195.076V176.85H193.842V178.982C194.596 177.682 196.182 176.538 198.184 176.538C201.512 176.538 204.112 179.008 204.112 183.506V183.714C204.112 188.212 201.564 190.734 198.184 190.734C196.078 190.734 194.544 189.694 193.842 188.368V195.076H190.072ZM197.066 187.796C199.146 187.796 200.29 186.392 200.29 183.74V183.532C200.29 180.776 198.938 179.424 197.04 179.424C195.064 179.424 193.712 180.802 193.712 183.532V183.74C193.712 186.47 195.012 187.796 197.066 187.796ZM217.487 190.734C214.185 190.734 211.585 188.368 211.585 183.844V183.636C211.585 179.164 214.159 176.538 217.565 176.538C219.749 176.538 221.101 177.5 221.855 178.878V170.688H225.599V190.448H221.855V188.186C221.153 189.564 219.489 190.734 217.487 190.734ZM218.605 187.796C220.581 187.796 221.959 186.47 221.959 183.714V183.506C221.959 180.802 220.763 179.424 218.709 179.424C216.603 179.424 215.433 180.854 215.433 183.558V183.766C215.433 186.47 216.733 187.796 218.605 187.796ZM235.211 190.734C231.103 190.734 228.113 188.16 228.113 183.818V183.61C228.113 179.32 231.155 176.538 235.107 176.538C238.617 176.538 241.737 178.592 241.737 183.454V184.494H231.935C232.039 186.756 233.261 188.056 235.315 188.056C237.057 188.056 237.915 187.302 238.149 186.158H241.711C241.269 189.096 238.929 190.734 235.211 190.734ZM231.987 182.18H238.071C237.941 180.126 236.901 179.138 235.107 179.138C233.417 179.138 232.273 180.256 231.987 182.18ZM250.307 190.448V171.858H256.729C261.253 171.858 263.827 173.86 263.827 177.786V177.89C263.827 181.816 261.097 183.688 256.859 183.688H254.493V190.448H250.307ZM254.493 180.75H256.625C258.679 180.75 259.771 179.762 259.771 177.916V177.812C259.771 175.836 258.627 175.056 256.625 175.056H254.493V180.75ZM275.367 187.38C278.513 187.38 280.489 184.962 280.489 181.218V181.01C280.489 177.396 278.565 174.926 275.315 174.926C272.091 174.926 270.141 177.292 270.141 181.036V181.244C270.141 185.04 272.325 187.38 275.367 187.38ZM275.289 190.734C269.465 190.734 265.747 186.704 265.747 181.27V181.062C265.747 175.524 269.803 171.598 275.315 171.598C280.905 171.598 284.883 175.368 284.883 180.958V181.166C284.883 186.704 281.087 190.734 275.289 190.734ZM294.182 190.734C289.086 190.734 286.746 188.342 286.512 184.624H290.542C290.724 186.288 291.426 187.666 294.182 187.666C296.028 187.666 297.25 186.652 297.25 185.196C297.25 183.714 296.47 183.194 293.74 182.778C288.982 182.154 287.032 180.724 287.032 177.136C287.032 173.964 289.684 171.598 293.792 171.598C297.978 171.598 300.422 173.47 300.76 177.162H296.886C296.626 175.472 295.638 174.692 293.792 174.692C291.946 174.692 291.01 175.55 291.01 176.798C291.01 178.124 291.608 178.748 294.468 179.164C298.966 179.736 301.28 180.958 301.28 184.806C301.28 188.108 298.576 190.734 294.182 190.734Z" fill="#363F4D"/>
<path d="M65.8 424V409.7H69.86C72.6 409.7 74.86 410.9 74.86 413.88V413.96C74.86 417 72.58 418.18 69.86 418.18H67.54V424H65.8ZM67.54 416.8H69.98C72.02 416.8 73.12 415.8 73.12 413.96V413.88C73.12 411.86 71.92 411.1 69.98 411.1H67.54V416.8ZM81.3681 422.8C83.4681 422.8 84.7881 421.22 84.7881 418.86V418.72C84.7881 416.3 83.4481 414.74 81.3681 414.74C79.2681 414.74 77.9481 416.3 77.9481 418.7V418.86C77.9481 421.24 79.2481 422.8 81.3681 422.8ZM81.3481 424.18C78.3681 424.18 76.2281 421.92 76.2281 418.86V418.7C76.2281 415.56 78.4081 413.36 81.3681 413.36C84.3281 413.36 86.5081 415.54 86.5081 418.68V418.84C86.5081 422 84.3281 424.18 81.3481 424.18ZM89.0784 424V413.54H90.7384V415.42C91.3984 414.24 92.2984 413.42 94.1784 413.36V414.92C92.0784 415.02 90.7384 415.68 90.7384 418.26V424H89.0784ZM103.751 422.58H105.711C109.391 422.58 111.231 420.38 111.231 416.88V416.72C111.231 413.42 109.631 411.1 105.691 411.1H103.751V422.58ZM102.011 424V409.7H105.791C110.711 409.7 113.031 412.74 113.031 416.72V416.9C113.031 420.86 110.751 424 105.751 424H102.011ZM115.857 424V413.54H117.517V424H115.857ZM116.657 411.36C116.057 411.36 115.557 410.86 115.557 410.26C115.557 409.66 116.057 409.16 116.657 409.16C117.257 409.16 117.757 409.66 117.757 410.26C117.757 410.86 117.257 411.36 116.657 411.36ZM125.194 424.18C122.234 424.18 120.134 422.1 120.134 418.88V418.72C120.134 415.56 122.154 413.36 125.034 413.36C127.454 413.36 129.734 414.82 129.734 418.56V419.1H121.854C121.934 421.48 123.074 422.8 125.214 422.8C126.834 422.8 127.774 422.2 127.994 420.98H129.654C129.294 423.08 127.554 424.18 125.194 424.18ZM121.914 417.76H128.034C127.874 415.6 126.754 414.74 125.034 414.74C123.334 414.74 122.194 415.9 121.914 417.76ZM136.462 427.82C133.362 427.82 132.002 426.36 131.722 424.6H133.422C133.662 425.8 134.662 426.42 136.442 426.42C138.502 426.42 139.802 425.44 139.802 423.2V421.68C139.202 422.7 137.782 423.66 136.262 423.66C133.522 423.66 131.502 421.58 131.502 418.7V418.56C131.502 415.72 133.502 413.36 136.382 413.36C138.122 413.36 139.202 414.2 139.802 415.22V413.54H141.462V423.3C141.442 426.34 139.382 427.82 136.462 427.82ZM136.442 422.28C138.382 422.28 139.862 420.92 139.862 418.58V418.44C139.862 416.1 138.582 414.74 136.542 414.74C134.462 414.74 133.222 416.28 133.222 418.48V418.64C133.222 420.92 134.682 422.28 136.442 422.28ZM149.181 422.8C151.281 422.8 152.601 421.22 152.601 418.86V418.72C152.601 416.3 151.261 414.74 149.181 414.74C147.081 414.74 145.761 416.3 145.761 418.7V418.86C145.761 421.24 147.061 422.8 149.181 422.8ZM149.161 424.18C146.181 424.18 144.041 421.92 144.041 418.86V418.7C144.041 415.56 146.221 413.36 149.181 413.36C152.141 413.36 154.321 415.54 154.321 418.68V418.84C154.321 422 152.141 424.18 149.161 424.18ZM162.304 424V409.7H164.724L169.144 420.84L173.424 409.7H175.824V424H174.084V411.96L169.344 424H168.804L163.904 411.96V424H162.304ZM181.933 424.18C179.993 424.18 178.453 423.24 178.453 421.1C178.453 418.68 181.013 417.86 183.693 417.86H185.193V417.1C185.193 415.44 184.553 414.74 182.953 414.74C181.513 414.74 180.713 415.34 180.553 416.62H178.893C179.113 414.24 181.013 413.36 183.033 413.36C185.033 413.36 186.853 414.18 186.853 417.1V424H185.193V422.68C184.413 423.66 183.473 424.18 181.933 424.18ZM182.093 422.86C183.853 422.86 185.193 421.96 185.193 420.34V419.04H183.753C181.653 419.04 180.113 419.56 180.113 421.1C180.113 422.18 180.633 422.86 182.093 422.86ZM190.154 424V413.54H191.814V424H190.154ZM190.954 411.36C190.354 411.36 189.854 410.86 189.854 410.26C189.854 409.66 190.354 409.16 190.954 409.16C191.554 409.16 192.054 409.66 192.054 410.26C192.054 410.86 191.554 411.36 190.954 411.36ZM199.571 422.8C201.671 422.8 202.991 421.22 202.991 418.86V418.72C202.991 416.3 201.651 414.74 199.571 414.74C197.471 414.74 196.151 416.3 196.151 418.7V418.86C196.151 421.24 197.451 422.8 199.571 422.8ZM199.551 424.18C196.571 424.18 194.431 421.92 194.431 418.86V418.7C194.431 415.56 196.611 413.36 199.571 413.36C202.531 413.36 204.711 415.54 204.711 418.68V418.84C204.711 422 202.531 424.18 199.551 424.18ZM207.322 424V408.54H209.002V424H207.322ZM212.439 424V413.54H214.099V424H212.439ZM213.239 411.36C212.639 411.36 212.139 410.86 212.139 410.26C212.139 409.66 212.639 409.16 213.239 409.16C213.839 409.16 214.339 409.66 214.339 410.26C214.339 410.86 213.839 411.36 213.239 411.36Z" fill="#444E5E"/>
<g clip-path="url(#clip0_602_360)">
<path d="M78.4324 86.6393L82.6645 96.8144L93.6493 97.6951L85.28 104.864L87.837 115.584L78.4324 109.839L69.0279 115.584L71.5848 104.864L63.2155 97.6951L74.2004 96.8144L78.4324 86.6393Z" fill="#2DD1AC"/>
</g>
<g clip-path="url(#clip1_602_360)">
<path d="M126.432 86.6393L130.664 96.8144L141.649 97.6951L133.28 104.864L135.837 115.584L126.432 109.839L117.028 115.584L119.585 104.864L111.216 97.6951L122.2 96.8144L126.432 86.6393Z" fill="#2DD1AC"/>
</g>
<g clip-path="url(#clip2_602_360)">
<path d="M174.432 86.6393L178.664 96.8144L189.649 97.6951L181.28 104.864L183.837 115.584L174.432 109.839L165.028 115.584L167.585 104.864L159.216 97.6951L170.2 96.8144L174.432 86.6393Z" fill="#2DD1AC"/>
</g>
<g clip-path="url(#clip3_602_360)">
<path d="M222.432 86.6393L226.664 96.8144L237.649 97.6951L229.28 104.864L231.837 115.584L222.432 109.839L213.028 115.584L215.585 104.864L207.216 97.6951L218.2 96.8144L222.432 86.6393Z" fill="#2DD1AC"/>
</g>
<g clip-path="url(#clip4_602_360)">
<path d="M270.432 86.6393L274.664 96.8144L285.649 97.6951L277.28 104.864L279.837 115.584L270.432 109.839L261.028 115.584L263.585 104.864L255.216 97.6951L266.2 96.8144L270.432 86.6393Z" fill="#2DD1AC"/>
</g>
<defs>
<filter id="filter0_d_602_360" x="0" y="0" width="668" height="508" filterUnits="userSpaceOnUse" color-interpolation-filters="sRGB">
<feFlood flood-opacity="0" result="BackgroundImageFix"/>
<feColorMatrix in="SourceAlpha" type="matrix" values="0 0 0 0 0 0 0 0 0 0 0 0 0 0 0 0 0 0 127 0" result="hardAlpha"/>
<feOffset dy="5"/>
<feGaussianBlur stdDeviation="7"/>
<feColorMatrix type="matrix" values="0 0 0 0 0.0323264 0 0 0 0 0.0598209 0 0 0 0 0.204167 0 0 0 0.04 0"/>
<feBlend mode="normal" in2="BackgroundImageFix" result="effect1_dropShadow_602_360"/>
<feBlend mode="normal" in="SourceGraphic" in2="effect1_dropShadow_602_360" result="shape"/>
</filter>
<clipPath id="clip0_602_360">
<rect width="32" height="32" fill="white" transform="translate(62.4324 86.6393)"/>
</clipPath>
<clipPath id="clip1_602_360">
<rect width="32" height="32" fill="white" transform="translate(110.432 86.6393)"/>
</clipPath>
<clipPath id="clip2_602_360">
<rect width="32" height="32" fill="white" transform="translate(158.432 86.6393)"/>
</clipPath>
<clipPath id="clip3_602_360">
<rect width="32" height="32" fill="white" transform="translate(206.432 86.6393)"/>
</clipPath>
<clipPath id="clip4_602_360">
<rect width="32" height="32" fill="white" transform="translate(254.432 86.6393)"/>
</clipPath>
</defs>
</svg>
