<?xml version="1.0" encoding="UTF-8"?>
<svg id="Layer_1" xmlns="http://www.w3.org/2000/svg" xmlns:xlink="http://www.w3.org/1999/xlink" version="1.1" viewBox="0 0 1080 1080">
  <!-- Generator: Adobe Illustrator 29.2.1, SVG Export Plug-In . SVG Version: 2.1.0 Build 116)  -->
  <defs>
    <style>
      .st0, .st1 {
        fill: none;
      }

      .st2 {
        fill: #444e5e;
      }

      .st3 {
        fill: #f7f7f8;
      }

      .st4 {
        clip-path: url(#clippath-1);
      }

      .st5 {
        clip-path: url(#clippath-3);
      }

      .st6 {
        clip-path: url(#clippath-4);
      }

      .st7 {
        clip-path: url(#clippath-2);
      }

      .st8 {
        clip-path: url(#clippath-5);
      }

      .st1 {
        stroke: #ddf7f2;
        stroke-width: 1.3px;
      }

      .st9 {
        fill: #363f4d;
      }

      .st10 {
        fill: #2dd1ac;
      }

      .st11 {
        clip-path: url(#clippath);
      }
    </style>
    <clipPath id="clippath">
      <rect class="st0" x="213.3" y="359.6" width="42.3" height="42.3"/>
    </clipPath>
    <clipPath id="clippath-1">
      <rect class="st0" x="276.8" y="359.6" width="42.3" height="42.3"/>
    </clipPath>
    <clipPath id="clippath-2">
      <rect class="st0" x="340.2" y="359.6" width="42.3" height="42.3"/>
    </clipPath>
    <clipPath id="clippath-3">
      <rect class="st0" x="403.7" y="359.6" width="42.3" height="42.3"/>
    </clipPath>
    <clipPath id="clippath-4">
      <rect class="st0" x="467.2" y="359.6" width="42.3" height="42.3"/>
    </clipPath>
    <clipPath id="clippath-5">
      <rect class="st0" x="46.2" y="157.1" width="126.9" height="126.9" transform="translate(-119.3 129.6) rotate(-41.9)"/>
    </clipPath>
  </defs>
  <rect class="st3" x="149.3" y="256.9" width="846.1" height="634.6" rx="15.9" ry="15.9"/>
  <rect class="st1" x="149.9" y="257.6" width="844.8" height="633.3" rx="15.2" ry="15.2"/>
  <path class="st9" d="M219.9,574.3v-17h-5.5v-1.9h13.3v1.9h-5.5v17h-2.3ZM234.3,574.5c-3.9,0-6.7-2.7-6.7-7v-.2c0-4.2,2.7-7.1,6.5-7.1s6.2,1.9,6.2,6.9v.7h-10.4c.1,3.1,1.6,4.9,4.4,4.9s3.4-.8,3.7-2.4h2.2c-.5,2.8-2.8,4.2-5.9,4.2ZM230,566h8.1c-.2-2.9-1.7-4-4-4s-3.8,1.5-4.1,4ZM248.1,574.5c-3.3,0-5.3-1.7-5.4-4.5h2.1c.2,1.6,1,2.7,3.3,2.7s3-.7,3-2.2-1.1-1.9-3.2-2.3c-3.6-.7-4.8-1.7-4.8-4.1s2.5-3.9,4.7-3.9,4.6,1,5,4h-2.1c-.3-1.5-1.2-2.2-2.9-2.2s-2.6.8-2.6,2,.7,1.7,3.2,2.2c2.9.5,4.9,1.2,4.9,4.1s-1.7,4.2-5.1,4.2ZM260.7,574.5c-2.5,0-3.7-1.5-3.7-3.6v-8.5h-2v-1.9h2v-3.1h2.2v3.1h3.2v1.9h-3.2v8.3c0,1.3.6,2,1.7,2s1.2-.1,1.7-.3v1.9c-.4.2-1,.3-1.9.3ZM271.6,574.5c-3.9,0-6.7-2.7-6.7-7v-.2c0-4.2,2.7-7.1,6.5-7.1s6.2,1.9,6.2,6.9v.7h-10.4c.1,3.1,1.6,4.9,4.4,4.9s3.4-.8,3.7-2.4h2.2c-.5,2.8-2.8,4.2-5.9,4.2ZM267.2,566h8.1c-.2-2.9-1.7-4-4-4s-3.8,1.5-4.1,4ZM281,574.3v-13.8h2.2v13.8h-2.2ZM282.1,557.6c-.8,0-1.5-.7-1.5-1.5s.7-1.5,1.5-1.5,1.5.7,1.5,1.5-.7,1.5-1.5,1.5ZM294.7,579.1v-18.6h2.2v2.3c.8-1.3,2.7-2.6,4.7-2.6,3.6,0,6.3,2.6,6.3,7v.2c0,4.2-2.5,7.1-6.3,7.1s-3.9-1.1-4.7-2.5v7.1h-2.2ZM301.3,572.7c2.7,0,4.2-1.9,4.2-5.2v-.2c0-3.5-1.9-5.2-4.3-5.2s-4.5,1.7-4.5,5.2v.2c0,3.5,1.9,5.2,4.5,5.2ZM311.3,574.3v-13.8h2.2v2.5c.9-1.6,2.1-2.6,4.5-2.7v2.1c-2.8.1-4.5,1-4.5,4.4v7.6h-2.2ZM324.5,574.5c-2.6,0-4.6-1.2-4.6-4.1s3.4-4.3,6.9-4.3h2v-1c0-2.2-.8-3.1-3-3.1s-3,.8-3.2,2.5h-2.2c.3-3.1,2.8-4.3,5.5-4.3s5.1,1.1,5.1,4.9v9.1h-2.2v-1.7c-1,1.3-2.3,2-4.3,2ZM324.7,572.8c2.3,0,4.1-1.2,4.1-3.3v-1.7h-1.9c-2.8,0-4.8.7-4.8,2.7s.7,2.3,2.6,2.3ZM339.6,574.5c-2.5,0-3.7-1.5-3.7-3.6v-8.5h-2v-1.9h2v-3.1h2.2v3.1h3.2v1.9h-3.2v8.3c0,1.3.6,2,1.7,2s1.2-.1,1.7-.3v1.9c-.4.2-1,.3-1.9.3ZM344.8,574.3v-13.8h2.2v13.8h-2.2ZM345.9,557.6c-.8,0-1.5-.7-1.5-1.5s.7-1.5,1.5-1.5,1.5.7,1.5,1.5-.7,1.5-1.5,1.5ZM357.2,574.5c-3.9,0-6.8-2.7-6.8-7v-.2c0-4.2,3-7.1,6.7-7.1s5.6,1.3,6,4.8h-2.2c-.3-2.2-1.9-3-3.8-3s-4.4,2-4.4,5.3v.2c0,3.4,1.9,5.2,4.5,5.2s3.7-1.1,4-3.4h2c-.3,3-2.7,5.2-6,5.2ZM370,574.5c-2.6,0-4.6-1.2-4.6-4.1s3.4-4.3,6.9-4.3h2v-1c0-2.2-.8-3.1-3-3.1s-3,.8-3.2,2.5h-2.2c.3-3.1,2.8-4.3,5.5-4.3s5.1,1.1,5.1,4.9v9.1h-2.2v-1.7c-1,1.3-2.3,2-4.3,2ZM370.2,572.8c2.3,0,4.1-1.2,4.1-3.3v-1.7h-1.9c-2.8,0-4.8.7-4.8,2.7s.7,2.3,2.6,2.3ZM380.8,574.3v-13.8h2.2v2.1c.6-1.3,2.1-2.4,4.1-2.4s3.3.7,4,2.6c1-1.8,3-2.6,4.7-2.6,2.5,0,4.7,1.5,4.7,5.5v8.6h-2.2v-8.7c0-2.4-1-3.4-2.9-3.4s-3.6,1.2-3.6,3.7v8.5h-2.2v-8.7c0-2.4-1-3.4-2.9-3.4s-3.6,1.2-3.6,3.7v8.5h-2.2ZM410.6,574.5c-3.9,0-6.7-2.7-6.7-7v-.2c0-4.2,2.7-7.1,6.5-7.1s6.2,1.9,6.2,6.9v.7h-10.4c.1,3.1,1.6,4.9,4.4,4.9s3.4-.8,3.7-2.4h2.2c-.5,2.8-2.8,4.2-5.9,4.2ZM406.2,566h8.1c-.2-2.9-1.7-4-4-4s-3.8,1.5-4.1,4ZM419.9,574.3v-13.8h2.2v2.2c.6-1.3,2.2-2.4,4.4-2.4s4.9,1.6,4.9,5.6v8.5h-2.2v-8.6c0-2.4-1-3.5-3.3-3.5s-3.9,1.3-3.9,3.8v8.4h-2.2ZM439.9,574.5c-2.5,0-3.7-1.5-3.7-3.6v-8.5h-2v-1.9h2v-3.1h2.2v3.1h3.2v1.9h-3.2v8.3c0,1.3.6,2,1.7,2s1.2-.1,1.7-.3v1.9c-.4.2-1,.3-1.9.3ZM450.8,574.5c-3.9,0-6.7-2.7-6.7-7v-.2c0-4.2,2.7-7.1,6.5-7.1s6.2,1.9,6.2,6.9v.7h-10.4c.1,3.1,1.6,4.9,4.4,4.9s3.4-.8,3.7-2.4h2.2c-.5,2.8-2.8,4.2-5.9,4.2ZM446.5,566h8.1c-.2-2.9-1.7-4-4-4s-3.8,1.5-4.1,4ZM471.4,574.5c-2.5,0-3.7-1.5-3.7-3.6v-8.5h-2v-1.9h2v-3.1h2.2v3.1h3.2v1.9h-3.2v8.3c0,1.3.6,2,1.7,2s1.2-.1,1.7-.3v1.9c-.4.2-1,.3-1.9.3ZM482.3,572.7c2.8,0,4.5-2.1,4.5-5.2v-.2c0-3.2-1.8-5.3-4.5-5.3s-4.5,2.1-4.5,5.2v.2c0,3.1,1.7,5.2,4.5,5.2ZM482.3,574.5c-3.9,0-6.8-3-6.8-7v-.2c0-4.2,2.9-7.1,6.8-7.1s6.8,2.9,6.8,7v.2c0,4.2-2.9,7.1-6.8,7.1ZM497.7,574.5c-3.6,0-6.2-2.6-6.2-6.9v-.2c0-4.2,2.6-7.2,6.5-7.2s3.7,1.1,4.5,2.5v-8.8h2.2v20.4h-2.2v-2.4c-.8,1.3-2.7,2.6-4.7,2.6ZM498,572.7c2.6,0,4.6-1.7,4.6-5.2v-.2c0-3.5-1.7-5.2-4.4-5.2s-4.4,1.9-4.4,5.3v.2c0,3.5,1.9,5.2,4.2,5.2ZM514.9,572.7c2.8,0,4.5-2.1,4.5-5.2v-.2c0-3.2-1.8-5.3-4.5-5.3s-4.5,2.1-4.5,5.2v.2c0,3.1,1.7,5.2,4.5,5.2ZM514.8,574.5c-3.9,0-6.8-3-6.8-7v-.2c0-4.2,2.9-7.1,6.8-7.1s6.8,2.9,6.8,7v.2c0,4.2-2.9,7.1-6.8,7.1ZM529.3,574.5c-3.3,0-5.3-1.7-5.4-4.5h2.1c.2,1.6,1,2.7,3.3,2.7s3-.7,3-2.2-1.1-1.9-3.2-2.3c-3.6-.7-4.8-1.7-4.8-4.1s2.5-3.9,4.7-3.9,4.6,1,5,4h-2.1c-.3-1.5-1.2-2.2-2.9-2.2s-2.6.8-2.6,2,.7,1.7,3.2,2.2c2.9.5,4.9,1.2,4.9,4.1s-1.7,4.2-5.1,4.2ZM550.5,572.7c2.8,0,4.5-2.1,4.5-5.2v-.2c0-3.2-1.8-5.3-4.5-5.3s-4.5,2.1-4.5,5.2v.2c0,3.1,1.7,5.2,4.5,5.2ZM550.5,574.5c-3.9,0-6.8-3-6.8-7v-.2c0-4.2,2.9-7.1,6.8-7.1s6.8,2.9,6.8,7v.2c0,4.2-2.9,7.1-6.8,7.1ZM565,574.5c-3.3,0-5.3-1.7-5.4-4.5h2.1c.2,1.6,1,2.7,3.3,2.7s3-.7,3-2.2-1.1-1.9-3.2-2.3c-3.6-.7-4.8-1.7-4.8-4.1s2.5-3.9,4.7-3.9,4.6,1,5,4h-2.1c-.3-1.5-1.2-2.2-2.9-2.2s-2.6.8-2.6,2,.7,1.7,3.2,2.2c2.9.5,4.9,1.2,4.9,4.1s-1.7,4.2-5.1,4.2ZM583.9,574.5c-2.6,0-4.6-1.2-4.6-4.1s3.4-4.3,6.9-4.3h2v-1c0-2.2-.8-3.1-3-3.1s-3,.8-3.2,2.5h-2.2c.3-3.1,2.8-4.3,5.5-4.3s5.1,1.1,5.1,4.9v9.1h-2.2v-1.7c-1,1.3-2.3,2-4.3,2ZM584.1,572.8c2.3,0,4.1-1.2,4.1-3.3v-1.7h-1.9c-2.8,0-4.8.7-4.8,2.7s.7,2.3,2.6,2.3ZM594.7,579.1v-18.6h2.2v2.3c.8-1.3,2.7-2.6,4.7-2.6,3.6,0,6.3,2.6,6.3,7v.2c0,4.2-2.5,7.1-6.3,7.1s-3.9-1.1-4.7-2.5v7.1h-2.2ZM601.4,572.7c2.7,0,4.2-1.9,4.2-5.2v-.2c0-3.5-1.9-5.2-4.3-5.2s-4.5,1.7-4.5,5.2v.2c0,3.5,1.9,5.2,4.5,5.2ZM611.3,579.1v-18.6h2.2v2.3c.8-1.3,2.7-2.6,4.7-2.6,3.6,0,6.3,2.6,6.3,7v.2c0,4.2-2.5,7.1-6.3,7.1s-3.9-1.1-4.7-2.5v7.1h-2.2ZM617.9,572.7c2.7,0,4.2-1.9,4.2-5.2v-.2c0-3.5-1.9-5.2-4.3-5.2s-4.5,1.7-4.5,5.2v.2c0,3.5,1.9,5.2,4.5,5.2ZM640.1,574.5c-3.6,0-6.2-2.6-6.2-6.9v-.2c0-4.2,2.6-7.2,6.5-7.2s3.7,1.1,4.5,2.5v-8.8h2.2v20.4h-2.2v-2.4c-.8,1.3-2.7,2.6-4.7,2.6ZM640.3,572.7c2.6,0,4.6-1.7,4.6-5.2v-.2c0-3.5-1.7-5.2-4.4-5.2s-4.4,1.9-4.4,5.3v.2c0,3.5,1.9,5.2,4.2,5.2ZM657.1,574.5c-3.9,0-6.7-2.7-6.7-7v-.2c0-4.2,2.7-7.1,6.5-7.1s6.2,1.9,6.2,6.9v.7h-10.4c.1,3.1,1.6,4.9,4.4,4.9s3.4-.8,3.7-2.4h2.2c-.5,2.8-2.8,4.2-5.9,4.2ZM652.8,566h8.1c-.2-2.9-1.7-4-4-4s-3.8,1.5-4.1,4ZM673.6,574.3v-18.9h5.4c3.6,0,6.6,1.6,6.6,5.5h0c0,4.1-3,5.7-6.6,5.7h-3.1v7.7h-2.3ZM675.9,564.8h3.2c2.7,0,4.2-1.3,4.2-3.8h0c0-2.8-1.6-3.8-4.2-3.8h-3.2v7.5ZM697.4,572.6c4.2,0,6.8-3.2,6.8-7.7v-.2c0-4.2-2.5-7.7-6.8-7.7s-6.9,3.2-6.9,7.7v.2c0,4.6,3,7.7,7,7.7ZM697.4,574.5c-5.6,0-9.4-4.3-9.4-9.6v-.2c0-5.4,3.8-9.6,9.3-9.6s9.2,4.2,9.2,9.5v.2c0,5.3-3.7,9.6-9.2,9.6ZM716.3,574.5c-5.1,0-6.9-2.8-7.2-6h2.2c.3,2.2,1.2,4.2,5,4.2s4.3-1.4,4.3-3.6-1-3-4.6-3.6c-4-.6-6.3-1.9-6.3-5.2s2.5-5.1,6.1-5.1,6.1,1.9,6.5,5.2h-2.1c-.4-2.4-1.8-3.4-4.4-3.4s-3.9,1.3-3.9,3.1.7,2.8,4.5,3.4c4.2.7,6.4,1.9,6.4,5.5s-2.8,5.6-6.5,5.6ZM733.6,574.3v-13.8h2.2v13.8h-2.2ZM734.7,557.6c-.8,0-1.5-.7-1.5-1.5s.7-1.5,1.5-1.5,1.5.7,1.5,1.5-.7,1.5-1.5,1.5ZM740.3,574.3v-13.8h2.2v2.1c.6-1.3,2.1-2.4,4.1-2.4s3.3.7,4,2.6c1-1.8,3-2.6,4.7-2.6,2.5,0,4.7,1.5,4.7,5.5v8.6h-2.2v-8.7c0-2.4-1-3.4-2.9-3.4s-3.6,1.2-3.6,3.7v8.5h-2.2v-8.7c0-2.4-1-3.4-2.9-3.4s-3.6,1.2-3.6,3.7v8.5h-2.2ZM767.8,574.5c-2.6,0-4.6-1.2-4.6-4.1s3.4-4.3,6.9-4.3h2v-1c0-2.2-.8-3.1-3-3.1s-3,.8-3.2,2.5h-2.2c.3-3.1,2.8-4.3,5.5-4.3s5.1,1.1,5.1,4.9v9.1h-2.2v-1.7c-1,1.3-2.3,2-4.3,2ZM768.1,572.8c2.3,0,4.1-1.2,4.1-3.3v-1.7h-1.9c-2.8,0-4.8.7-4.8,2.7s.7,2.3,2.6,2.3ZM784.2,579.3c-4.1,0-5.9-1.9-6.3-4.3h2.2c.3,1.6,1.6,2.4,4,2.4s4.4-1.3,4.4-4.3v-2c-.8,1.3-2.7,2.6-4.7,2.6-3.6,0-6.3-2.7-6.3-6.6v-.2c0-3.8,2.6-6.9,6.5-6.9s3.7,1.1,4.5,2.5v-2.2h2.2v12.9c0,4-2.7,6-6.6,6ZM784.2,572c2.6,0,4.5-1.8,4.5-4.9v-.2c0-3.1-1.7-4.9-4.4-4.9s-4.4,2-4.4,4.9v.2c0,3,1.9,4.8,4.3,4.8ZM795.3,574.3v-13.8h2.2v13.8h-2.2ZM796.4,557.6c-.8,0-1.5-.7-1.5-1.5s.7-1.5,1.5-1.5,1.5.7,1.5,1.5-.7,1.5-1.5,1.5ZM802,574.3v-13.8h2.2v2.2c.6-1.3,2.2-2.4,4.4-2.4s4.9,1.6,4.9,5.6v8.5h-2.2v-8.6c0-2.4-1-3.5-3.3-3.5s-3.9,1.3-3.9,3.8v8.4h-2.2ZM821.2,574.5c-2.6,0-4.6-1.2-4.6-4.1s3.4-4.3,6.9-4.3h2v-1c0-2.2-.8-3.1-3-3.1s-3,.8-3.2,2.5h-2.2c.3-3.1,2.8-4.3,5.5-4.3s5.1,1.1,5.1,4.9v9.1h-2.2v-1.7c-1,1.3-2.3,2-4.3,2ZM821.5,572.8c2.3,0,4.1-1.2,4.1-3.3v-1.7h-1.9c-2.8,0-4.8.7-4.8,2.7s.7,2.3,2.6,2.3ZM821.8,558.1l1.6-3.9h2.7l-2.7,3.9h-1.6ZM835.1,574.3l-5-13.8h2.4l4.1,11.6,4-11.6h2.3l-5,13.8h-2.8ZM851.1,574.5c-3.9,0-6.7-2.7-6.7-7v-.2c0-4.2,2.7-7.1,6.5-7.1s6.2,1.9,6.2,6.9v.7h-10.4c.1,3.1,1.6,4.9,4.4,4.9s3.4-.8,3.7-2.4h2.2c-.5,2.8-2.8,4.2-5.9,4.2ZM846.7,566h8.1c-.2-2.9-1.7-4-4-4s-3.8,1.5-4.1,4ZM860.5,574.3v-13.8h2.2v13.8h-2.2ZM861.6,557.6c-.8,0-1.5-.7-1.5-1.5s.7-1.5,1.5-1.5,1.5.7,1.5,1.5-.7,1.5-1.5,1.5ZM871.5,574.5c-3.3,0-5.3-1.7-5.4-4.5h2.1c.2,1.6,1,2.7,3.3,2.7s3-.7,3-2.2-1.1-1.9-3.2-2.3c-3.6-.7-4.8-1.7-4.8-4.1s2.5-3.9,4.7-3.9,4.6,1,5,4h-2.1c-.3-1.5-1.2-2.2-2.9-2.2s-2.6.8-2.6,2,.7,1.7,3.2,2.2c2.9.5,4.9,1.2,4.9,4.1s-1.7,4.2-5.1,4.2ZM892.5,574.5c-3.9,0-6.7-2.7-6.7-7v-.2c0-4.2,2.7-7.1,6.5-7.1s6.2,1.9,6.2,6.9v.7h-10.4c.1,3.1,1.6,4.9,4.4,4.9s3.4-.8,3.7-2.4h2.2c-.5,2.8-2.8,4.2-5.9,4.2ZM888.2,566h8.1c-.2-2.9-1.7-4-4-4s-3.8,1.5-4.1,4ZM215.8,614v-13.8h2.2v2.2c.6-1.3,2.2-2.4,4.4-2.4s4.9,1.6,4.9,5.6v8.5h-2.2v-8.6c0-2.4-1-3.5-3.3-3.5s-3.9,1.3-3.9,3.8v8.4h-2.2ZM237.3,614.2c-3.9,0-6.7-2.7-6.7-7v-.2c0-4.2,2.7-7.1,6.5-7.1s6.2,1.9,6.2,6.9v.7h-10.4c.1,3.1,1.6,4.9,4.4,4.9s3.4-.8,3.7-2.4h2.2c-.5,2.8-2.8,4.2-5.9,4.2ZM232.9,605.7h8.1c-.2-2.9-1.7-4-4-4s-3.8,1.5-4.1,4ZM246.6,614v-13.8h2.2v2.2c.6-1.3,2.2-2.4,4.4-2.4s4.9,1.6,4.9,5.6v8.5h-2.2v-8.6c0-2.4-1-3.5-3.3-3.5s-3.9,1.3-3.9,3.8v8.4h-2.2ZM262.5,614v-20.4h2.2v8.8c.6-1.3,2.2-2.4,4.4-2.4s4.9,1.6,4.9,5.6v8.5h-2.2v-8.6c0-2.4-1-3.5-3.3-3.5s-3.9,1.3-3.9,3.8v8.4h-2.2ZM282.9,614.2c-2.7,0-4.8-1.5-4.8-5.3v-8.8h2.2v8.6c0,2.4,1,3.5,3.2,3.5s3.8-1.3,3.8-3.8v-8.4h2.2v13.8h-2.2v-2.2c-.6,1.3-2.2,2.4-4.4,2.4ZM294,614v-13.8h2.2v2.1c.6-1.3,2.1-2.4,4.1-2.4s3.3.7,4,2.6c1-1.8,3-2.6,4.7-2.6,2.5,0,4.7,1.5,4.7,5.5v8.6h-2.2v-8.7c0-2.4-1-3.4-2.9-3.4s-3.6,1.2-3.6,3.7v8.5h-2.2v-8.7c0-2.4-1-3.4-2.9-3.4s-3.6,1.2-3.6,3.7v8.5h-2.2ZM330.8,614.2c-3.9,0-6.8-2.7-6.8-7v-.2c0-4.2,3-7.1,6.7-7.1s5.6,1.3,6,4.8h-2.2c-.3-2.2-1.9-3-3.8-3s-4.4,2-4.4,5.3v.2c0,3.4,1.9,5.2,4.5,5.2s3.7-1.1,4-3.4h2c-.3,3-2.7,5.2-6,5.2ZM340.1,614v-20.4h2.2v8.8c.6-1.3,2.2-2.4,4.4-2.4s4.9,1.6,4.9,5.6v8.5h-2.2v-8.6c0-2.4-1-3.5-3.3-3.5s-3.9,1.3-3.9,3.8v8.4h-2.2ZM361.6,614.2c-3.9,0-6.7-2.7-6.7-7v-.2c0-4.2,2.7-7.1,6.5-7.1s6.2,1.9,6.2,6.9v.7h-10.4c.1,3.1,1.6,4.9,4.4,4.9s3.4-.8,3.7-2.4h2.2c-.5,2.8-2.8,4.2-5.9,4.2ZM357.2,605.7h8.1c-.2-2.9-1.7-4-4-4s-3.8,1.5-4.1,4ZM376.5,619c-4.1,0-5.9-1.9-6.3-4.3h2.2c.3,1.6,1.6,2.4,4,2.4s4.4-1.3,4.4-4.3v-2c-.8,1.3-2.7,2.6-4.7,2.6-3.6,0-6.3-2.7-6.3-6.6v-.2c0-3.8,2.6-6.9,6.5-6.9s3.7,1.1,4.5,2.5v-2.2h2.2v12.9c0,4-2.7,6-6.6,6ZM376.4,611.7c2.6,0,4.5-1.8,4.5-4.9v-.2c0-3.1-1.7-4.9-4.4-4.9s-4.4,2-4.4,4.9v.2c0,3,1.9,4.8,4.3,4.8ZM391,614.2c-2.6,0-4.6-1.2-4.6-4.1s3.4-4.3,6.9-4.3h2v-1c0-2.2-.8-3.1-3-3.1s-3,.8-3.2,2.5h-2.2c.3-3.1,2.8-4.3,5.5-4.3s5.1,1.1,5.1,4.9v9.1h-2.2v-1.7c-1,1.3-2.3,2-4.3,2ZM391.2,612.5c2.3,0,4.1-1.2,4.1-3.3v-1.7h-1.9c-2.8,0-4.8.7-4.8,2.7s.7,2.3,2.6,2.3ZM408.8,614v-13.8h2.2v2.2c.6-1.3,2.2-2.4,4.4-2.4s4.9,1.6,4.9,5.6v8.5h-2.2v-8.6c0-2.4-1-3.5-3.3-3.5s-3.9,1.3-3.9,3.8v8.4h-2.2ZM430.2,614.2c-3.9,0-6.7-2.7-6.7-7v-.2c0-4.2,2.7-7.1,6.5-7.1s6.2,1.9,6.2,6.9v.7h-10.4c.1,3.1,1.6,4.9,4.4,4.9s3.4-.8,3.7-2.4h2.2c-.5,2.8-2.8,4.2-5.9,4.2ZM425.9,605.7h8.1c-.2-2.9-1.7-4-4-4s-3.8,1.5-4.1,4ZM439.6,614v-13.8h2.2v2.1c.6-1.3,2.1-2.4,4.1-2.4s3.3.7,4,2.6c1-1.8,3-2.6,4.7-2.6,2.5,0,4.7,1.5,4.7,5.5v8.6h-2.2v-8.7c0-2.4-1-3.4-2.9-3.4s-3.6,1.2-3.6,3.7v8.5h-2.2v-8.7c0-2.4-1-3.4-2.9-3.4s-3.6,1.2-3.6,3.7v8.5h-2.2ZM470.7,618.8v-18.6h2.2v2.3c.8-1.3,2.7-2.6,4.7-2.6,3.6,0,6.3,2.6,6.3,7v.2c0,4.2-2.5,7.1-6.3,7.1s-3.9-1.1-4.7-2.5v7.1h-2.2ZM477.3,612.4c2.7,0,4.2-1.9,4.2-5.2v-.2c0-3.5-1.9-5.2-4.3-5.2s-4.5,1.7-4.5,5.2v.2c0,3.5,1.9,5.2,4.5,5.2ZM492.9,614.2c-3.9,0-6.7-2.7-6.7-7v-.2c0-4.2,2.7-7.1,6.5-7.1s6.2,1.9,6.2,6.9v.7h-10.4c.1,3.1,1.6,4.9,4.4,4.9s3.4-.8,3.7-2.4h2.2c-.5,2.8-2.8,4.2-5.9,4.2ZM488.6,605.7h8.1c-.2-2.9-1.7-4-4-4s-3.8,1.5-4.1,4ZM502.3,614v-13.8h2.2v2.5c.9-1.6,2.1-2.6,4.5-2.7v2.1c-2.8.1-4.5,1-4.5,4.4v7.6h-2.2ZM516.6,614.1c-2.5,0-3.7-1.5-3.7-3.6v-8.5h-2v-1.9h2v-3.1h2.2v3.1h3.2v1.9h-3.2v8.3c0,1.3.6,2,1.7,2s1.2-.1,1.7-.3v1.9c-.4.2-1,.3-1.9.3ZM527.5,612.4c2.8,0,4.5-2.1,4.5-5.2v-.2c0-3.2-1.8-5.3-4.5-5.3s-4.5,2.1-4.5,5.2v.2c0,3.1,1.7,5.2,4.5,5.2ZM527.5,614.2c-3.9,0-6.8-3-6.8-7v-.2c0-4.2,2.9-7.1,6.8-7.1s6.8,2.9,6.8,7v.2c0,4.2-2.9,7.1-6.8,7.1ZM549.9,614.2c-3.6,0-6.2-2.6-6.2-6.9v-.2c0-4.2,2.6-7.2,6.5-7.2s3.7,1.1,4.5,2.5v-8.8h2.2v20.4h-2.2v-2.4c-.8,1.3-2.7,2.6-4.7,2.6ZM550.2,612.4c2.6,0,4.6-1.7,4.6-5.2v-.2c0-3.5-1.7-5.2-4.4-5.2s-4.4,1.9-4.4,5.3v.2c0,3.5,1.9,5.2,4.2,5.2ZM567.1,612.4c2.8,0,4.5-2.1,4.5-5.2v-.2c0-3.2-1.8-5.3-4.5-5.3s-4.5,2.1-4.5,5.2v.2c0,3.1,1.7,5.2,4.5,5.2ZM567,614.2c-3.9,0-6.8-3-6.8-7v-.2c0-4.2,2.9-7.1,6.8-7.1s6.8,2.9,6.8,7v.2c0,4.2-2.9,7.1-6.8,7.1ZM584.4,614v-18.9h2.3v9.1l8.2-9.1h2.6l-8.4,9.2,8.8,9.7h-2.8l-8.4-9.2v9.2h-2.3ZM600.9,618.8l2.6-6.2-5.4-12.4h2.4l4.2,9.9,3.8-9.9h2.2l-7.6,18.6h-2.2ZM618.1,614.1c-2.5,0-3.7-1.5-3.7-3.6v-8.5h-2v-1.9h2v-3.1h2.2v3.1h3.2v1.9h-3.2v8.3c0,1.3.6,2,1.7,2s1.2-.1,1.7-.3v1.9c-.4.2-1,.3-1.9.3ZM628.9,614.2c-3.9,0-6.7-2.7-6.7-7v-.2c0-4.2,2.7-7.1,6.5-7.1s6.2,1.9,6.2,6.9v.7h-10.4c.1,3.1,1.6,4.9,4.4,4.9s3.4-.8,3.7-2.4h2.2c-.5,2.8-2.8,4.2-5.9,4.2ZM624.6,605.7h8.1c-.2-2.9-1.7-4-4-4s-3.8,1.5-4.1,4ZM639.7,614.1c-.9,0-1.7-.7-1.7-1.7s.8-1.7,1.7-1.7,1.7.7,1.7,1.7-.8,1.7-1.7,1.7ZM652.8,614v-18.9h5.4c3.6,0,6.6,1.6,6.6,5.5h0c0,4.1-3,5.7-6.6,5.7h-3.1v7.7h-2.3ZM655.1,604.4h3.2c2.7,0,4.2-1.3,4.2-3.8h0c0-2.8-1.6-3.8-4.2-3.8h-3.2v7.5ZM668,614v-13.8h2.2v2.5c.9-1.6,2.1-2.6,4.5-2.7v2.1c-2.8.1-4.5,1-4.5,4.4v7.6h-2.2ZM678,614v-13.8h2.2v13.8h-2.2ZM679,597.2c-.8,0-1.5-.7-1.5-1.5s.7-1.5,1.5-1.5,1.5.7,1.5,1.5-.7,1.5-1.5,1.5ZM684.7,614v-13.8h2.2v2.1c.6-1.3,2.1-2.4,4.1-2.4s3.3.7,4,2.6c1-1.8,3-2.6,4.7-2.6,2.5,0,4.7,1.5,4.7,5.5v8.6h-2.2v-8.7c0-2.4-1-3.4-2.9-3.4s-3.6,1.2-3.6,3.7v8.5h-2.2v-8.7c0-2.4-1-3.4-2.9-3.4s-3.6,1.2-3.6,3.7v8.5h-2.2ZM714.4,614.2c-3.9,0-6.7-2.7-6.7-7v-.2c0-4.2,2.7-7.1,6.5-7.1s6.2,1.9,6.2,6.9v.7h-10.4c.1,3.1,1.6,4.9,4.4,4.9s3.4-.8,3.7-2.4h2.2c-.5,2.8-2.8,4.2-5.9,4.2ZM710.1,605.7h8.1c-.2-2.9-1.7-4-4-4s-3.8,1.5-4.1,4ZM723.8,614v-13.8h2.2v13.8h-2.2ZM724.9,597.2c-.8,0-1.5-.7-1.5-1.5s.7-1.5,1.5-1.5,1.5.7,1.5,1.5-.7,1.5-1.5,1.5ZM730.5,614v-13.8h2.2v2.5c.9-1.6,2.1-2.6,4.5-2.7v2.1c-2.8.1-4.5,1-4.5,4.4v7.6h-2.2ZM745.8,612.4c2.8,0,4.5-2.1,4.5-5.2v-.2c0-3.2-1.8-5.3-4.5-5.3s-4.5,2.1-4.5,5.2v.2c0,3.1,1.7,5.2,4.5,5.2ZM745.8,614.2c-3.9,0-6.8-3-6.8-7v-.2c0-4.2,2.9-7.1,6.8-7.1s6.8,2.9,6.8,7v.2c0,4.2-2.9,7.1-6.8,7.1ZM773,618.8v-7.2c-.8,1.3-2.7,2.6-4.7,2.6-3.6,0-6.2-2.6-6.2-6.9v-.2c0-4.2,2.6-7.2,6.5-7.2s3.7,1.1,4.5,2.5v-2.2h2.2v18.6h-2.2ZM768.5,612.4c2.6,0,4.6-1.7,4.6-5.2v-.2c0-3.5-1.7-5.2-4.4-5.2s-4.4,1.9-4.4,5.3v.2c0,3.5,1.9,5.2,4.2,5.2ZM784.3,614.2c-2.7,0-4.8-1.5-4.8-5.3v-8.8h2.2v8.6c0,2.4,1,3.5,3.2,3.5s3.8-1.3,3.8-3.8v-8.4h2.2v13.8h-2.2v-2.2c-.6,1.3-2.2,2.4-4.4,2.4ZM801,614.2c-3.9,0-6.7-2.7-6.7-7v-.2c0-4.2,2.7-7.1,6.5-7.1s6.2,1.9,6.2,6.9v.7h-10.4c.1,3.1,1.6,4.9,4.4,4.9s3.4-.8,3.7-2.4h2.2c-.5,2.8-2.8,4.2-5.9,4.2ZM796.6,605.7h8.1c-.2-2.9-1.7-4-4-4s-3.8,1.5-4.1,4ZM823,614.2c-3.9,0-6.7-2.7-6.7-7v-.2c0-4.2,2.7-7.1,6.5-7.1s6.2,1.9,6.2,6.9v.7h-10.4c.1,3.1,1.6,4.9,4.4,4.9s3.4-.8,3.7-2.4h2.2c-.5,2.8-2.8,4.2-5.9,4.2ZM818.6,605.7h8.1c-.2-2.9-1.7-4-4-4s-3.8,1.5-4.1,4ZM832.4,614v-20.4h2.2v20.4h-2.2ZM844.8,614.2c-3.9,0-6.7-2.7-6.7-7v-.2c0-4.2,2.7-7.1,6.5-7.1s6.2,1.9,6.2,6.9v.7h-10.4c.1,3.1,1.6,4.9,4.4,4.9s3.4-.8,3.7-2.4h2.2c-.5,2.8-2.8,4.2-5.9,4.2ZM840.4,605.7h8.1c-.2-2.9-1.7-4-4-4s-3.8,1.5-4.1,4ZM865.3,614.1c-2.5,0-3.7-1.5-3.7-3.6v-8.5h-2v-1.9h2v-3.1h2.2v3.1h3.2v1.9h-3.2v8.3c0,1.3.6,2,1.7,2s1.2-.1,1.7-.3v1.9c-.4.2-1,.3-1.9.3ZM876.2,614.2c-3.9,0-6.7-2.7-6.7-7v-.2c0-4.2,2.7-7.1,6.5-7.1s6.2,1.9,6.2,6.9v.7h-10.4c.1,3.1,1.6,4.9,4.4,4.9s3.4-.8,3.7-2.4h2.2c-.5,2.8-2.8,4.2-5.9,4.2ZM871.9,605.7h8.1c-.2-2.9-1.7-4-4-4s-3.8,1.5-4.1,4ZM885.6,614v-13.8h2.2v2.1c.6-1.3,2.1-2.4,4.1-2.4s3.3.7,4,2.6c1-1.8,3-2.6,4.7-2.6,2.5,0,4.7,1.5,4.7,5.5v8.6h-2.2v-8.7c0-2.4-1-3.4-2.9-3.4s-3.6,1.2-3.6,3.7v8.5h-2.2v-8.7c0-2.4-1-3.4-2.9-3.4s-3.6,1.2-3.6,3.7v8.5h-2.2ZM920.1,614.2c-2.6,0-4.6-1.2-4.6-4.1s3.4-4.3,6.9-4.3h2v-1c0-2.2-.8-3.1-3-3.1s-3,.8-3.2,2.5h-2.2c.3-3.1,2.8-4.3,5.5-4.3s5.1,1.1,5.1,4.9v9.1h-2.2v-1.7c-1,1.3-2.3,2-4.3,2ZM920.3,612.5c2.3,0,4.1-1.2,4.1-3.3v-1.7h-1.9c-2.8,0-4.8.7-4.8,2.7s.7,2.3,2.6,2.3ZM219.3,653.6l-5-13.8h2.4l4.1,11.6,4-11.6h2.3l-5,13.8h-2.8ZM235.2,653.9c-3.9,0-6.7-2.7-6.7-7v-.2c0-4.2,2.7-7.1,6.5-7.1s6.2,1.9,6.2,6.9v.7h-10.4c.1,3.1,1.6,4.9,4.4,4.9s3.4-.8,3.7-2.4h2.2c-.5,2.8-2.8,4.2-5.9,4.2ZM230.9,645.4h8.1c-.2-2.9-1.7-4-4-4s-3.8,1.5-4.1,4ZM244.6,653.6v-13.8h2.2v2.5c.9-1.6,2.1-2.6,4.5-2.7v2.1c-2.8.1-4.5,1-4.5,4.4v7.6h-2.2ZM258.7,653.9c-3.3,0-5.3-1.7-5.4-4.5h2.1c.2,1.6,1,2.7,3.3,2.7s3-.7,3-2.2-1.1-1.9-3.2-2.3c-3.6-.7-4.8-1.7-4.8-4.1s2.5-3.9,4.7-3.9,4.6,1,5,4h-2.1c-.3-1.5-1.2-2.2-2.9-2.2s-2.6.8-2.6,2,.7,1.7,3.2,2.2c2.9.5,4.9,1.2,4.9,4.1s-1.7,4.2-5.1,4.2ZM270.6,653.9c-2.6,0-4.6-1.2-4.6-4.1s3.4-4.3,6.9-4.3h2v-1c0-2.2-.8-3.1-3-3.1s-3,.8-3.2,2.5h-2.2c.3-3.1,2.8-4.3,5.5-4.3s5.1,1.1,5.1,4.9v9.1h-2.2v-1.7c-1,1.3-2.3,2-4.3,2ZM270.8,652.1c2.3,0,4.1-1.2,4.1-3.3v-1.7h-1.9c-2.8,0-4.8.7-4.8,2.7s.7,2.3,2.6,2.3ZM273.5,637.3c-1.1,0-2.1-1.1-2.9-1.1s-.9.5-1.1,1.2h-1.6c.2-1.9,1.3-3.1,2.7-3.1s2.1,1.1,2.8,1.1.9-.5,1.1-1.2h1.6c-.2,1.9-1.3,3.1-2.6,3.1ZM287.1,652c2.8,0,4.5-2.1,4.5-5.2v-.2c0-3.2-1.8-5.3-4.5-5.3s-4.5,2.1-4.5,5.2v.2c0,3.1,1.7,5.2,4.5,5.2ZM287.1,653.9c-3.9,0-6.8-3-6.8-7v-.2c0-4.2,2.9-7.1,6.8-7.1s6.8,2.9,6.8,7v.2c0,4.2-2.9,7.1-6.8,7.1ZM307.1,653.6l-4.3-13.8h2.4l3.2,11.1,3.4-11.1h1.9l3.1,11.1,3.3-11.1h2.2l-4.3,13.8h-2.4l-2.9-10.4-3.2,10.4h-2.4ZM330.7,653.9c-3.9,0-6.7-2.7-6.7-7v-.2c0-4.2,2.7-7.1,6.5-7.1s6.2,1.9,6.2,6.9v.7h-10.4c.1,3.1,1.6,4.9,4.4,4.9s3.4-.8,3.7-2.4h2.2c-.5,2.8-2.8,4.2-5.9,4.2ZM326.4,645.4h8.1c-.2-2.9-1.7-4-4-4s-3.8,1.5-4.1,4ZM347,653.9c-2.2,0-3.9-1.1-4.7-2.5v2.3h-2.2v-20.4h2.2v8.9c.8-1.3,2.7-2.6,4.7-2.6,3.6,0,6.3,2.6,6.3,7v.2c0,4.2-2.5,7.1-6.3,7.1ZM346.8,652c2.7,0,4.2-1.9,4.2-5.2v-.2c0-3.5-1.9-5.2-4.3-5.2s-4.5,1.7-4.5,5.2v.2c0,3.5,1.9,5.2,4.5,5.2ZM369.4,652c2.8,0,4.5-2.1,4.5-5.2v-.2c0-3.2-1.8-5.3-4.5-5.3s-4.5,2.1-4.5,5.2v.2c0,3.1,1.7,5.2,4.5,5.2ZM369.4,653.9c-3.9,0-6.8-3-6.8-7v-.2c0-4.2,2.9-7.1,6.8-7.1s6.8,2.9,6.8,7v.2c0,4.2-2.9,7.1-6.8,7.1ZM396.6,658.4v-7.2c-.8,1.3-2.7,2.6-4.7,2.6-3.6,0-6.2-2.6-6.2-6.9v-.2c0-4.2,2.6-7.2,6.5-7.2s3.7,1.1,4.5,2.5v-2.2h2.2v18.6h-2.2ZM392.1,652c2.6,0,4.6-1.7,4.6-5.2v-.2c0-3.5-1.7-5.2-4.4-5.2s-4.4,1.9-4.4,5.3v.2c0,3.5,1.9,5.2,4.2,5.2ZM407.9,653.9c-2.7,0-4.8-1.5-4.8-5.3v-8.8h2.2v8.6c0,2.4,1,3.5,3.2,3.5s3.8-1.3,3.8-3.8v-8.4h2.2v13.8h-2.2v-2.2c-.6,1.3-2.2,2.4-4.4,2.4ZM424.6,653.9c-3.9,0-6.7-2.7-6.7-7v-.2c0-4.2,2.7-7.1,6.5-7.1s6.2,1.9,6.2,6.9v.7h-10.4c.1,3.1,1.6,4.9,4.4,4.9s3.4-.8,3.7-2.4h2.2c-.5,2.8-2.8,4.2-5.9,4.2ZM420.2,645.4h8.1c-.2-2.9-1.7-4-4-4s-3.8,1.5-4.1,4ZM444.4,653.9c-2.6,0-4.6-1.2-4.6-4.1s3.4-4.3,6.9-4.3h2v-1c0-2.2-.8-3.1-3-3.1s-3,.8-3.2,2.5h-2.2c.3-3.1,2.8-4.3,5.5-4.3s5.1,1.1,5.1,4.9v9.1h-2.2v-1.7c-1,1.3-2.3,2-4.3,2ZM444.6,652.1c2.3,0,4.1-1.2,4.1-3.3v-1.7h-1.9c-2.8,0-4.8.7-4.8,2.7s.7,2.3,2.6,2.3ZM453.2,658.7v-1.9c1.6-.1,2-.9,2-2.1v-14.9h2.2v14.7c0,2.6-1.2,4.1-4.2,4.2ZM456.3,636.9c-.8,0-1.5-.7-1.5-1.5s.7-1.5,1.5-1.5,1.5.7,1.5,1.5-.7,1.5-1.5,1.5ZM466.6,653.9c-2.7,0-4.8-1.5-4.8-5.3v-8.8h2.2v8.6c0,2.4,1,3.5,3.2,3.5s3.8-1.3,3.8-3.8v-8.4h2.2v13.8h-2.2v-2.2c-.6,1.3-2.2,2.4-4.4,2.4ZM482.9,653.9c-3.6,0-6.2-2.6-6.2-6.9v-.2c0-4.2,2.6-7.2,6.5-7.2s3.7,1.1,4.5,2.5v-8.8h2.2v20.4h-2.2v-2.4c-.8,1.3-2.7,2.6-4.7,2.6ZM483.1,652c2.6,0,4.6-1.7,4.6-5.2v-.2c0-3.5-1.7-5.2-4.4-5.2s-4.4,1.9-4.4,5.3v.2c0,3.5,1.9,5.2,4.2,5.2ZM497.7,653.9c-2.6,0-4.6-1.2-4.6-4.1s3.4-4.3,6.9-4.3h2v-1c0-2.2-.8-3.1-3-3.1s-3,.8-3.2,2.5h-2.2c.3-3.1,2.8-4.3,5.5-4.3s5.1,1.1,5.1,4.9v9.1h-2.2v-1.7c-1,1.3-2.3,2-4.3,2ZM497.9,652.1c2.3,0,4.1-1.2,4.1-3.3v-1.7h-1.9c-2.8,0-4.8.7-4.8,2.7s.7,2.3,2.6,2.3ZM515.5,653.6v-13.8h2.2v2.1c.6-1.3,2.1-2.4,4.1-2.4s3.3.7,4,2.6c1-1.8,3-2.6,4.7-2.6,2.5,0,4.7,1.5,4.7,5.5v8.6h-2.2v-8.7c0-2.4-1-3.4-2.9-3.4s-3.6,1.2-3.6,3.7v8.5h-2.2v-8.7c0-2.4-1-3.4-2.9-3.4s-3.6,1.2-3.6,3.7v8.5h-2.2ZM544.3,653.9c-2.7,0-4.8-1.5-4.8-5.3v-8.8h2.2v8.6c0,2.4,1,3.5,3.2,3.5s3.8-1.3,3.8-3.8v-8.4h2.2v13.8h-2.2v-2.2c-.6,1.3-2.2,2.4-4.4,2.4ZM555.3,653.6v-13.8h2.2v13.8h-2.2ZM556.4,636.9c-.8,0-1.5-.7-1.5-1.5s.7-1.5,1.5-1.5,1.5.7,1.5,1.5-.7,1.5-1.5,1.5ZM566.2,653.8c-2.5,0-3.7-1.5-3.7-3.6v-8.5h-2v-1.9h2v-3.1h2.2v3.1h3.2v1.9h-3.2v8.3c0,1.3.6,2,1.7,2s1.2-.1,1.7-.3v1.9c-.4.2-1,.3-1.9.3ZM577.2,652c2.8,0,4.5-2.1,4.5-5.2v-.2c0-3.2-1.8-5.3-4.5-5.3s-4.5,2.1-4.5,5.2v.2c0,3.1,1.7,5.2,4.5,5.2ZM577.2,653.9c-3.9,0-6.8-3-6.8-7v-.2c0-4.2,2.9-7.1,6.8-7.1s6.8,2.9,6.8,7v.2c0,4.2-2.9,7.1-6.8,7.1ZM588.2,653.8c-.9,0-1.7-.7-1.7-1.7s.8-1.7,1.7-1.7,1.7.7,1.7,1.7-.8,1.7-1.7,1.7ZM601.3,653.6v-18.9h11v1.9h-8.7v6.4h7v1.9h-7v6.8h9.2v1.9h-11.5ZM614.8,653.6l4.9-7.1-4.6-6.7h2.6l3.4,5,3.4-5h2.4l-4.6,6.6,5.1,7.3h-2.6l-3.7-5.6-3.8,5.6h-2.4ZM635.3,653.9c-3.9,0-6.8-2.7-6.8-7v-.2c0-4.2,3-7.1,6.7-7.1s5.6,1.3,6,4.8h-2.2c-.3-2.2-1.9-3-3.8-3s-4.4,2-4.4,5.3v.2c0,3.4,1.9,5.2,4.5,5.2s3.7-1.1,4-3.4h2c-.3,3-2.7,5.2-6,5.2ZM650.3,653.9c-3.9,0-6.7-2.7-6.7-7v-.2c0-4.2,2.7-7.1,6.5-7.1s6.2,1.9,6.2,6.9v.7h-10.4c.1,3.1,1.6,4.9,4.4,4.9s3.4-.8,3.7-2.4h2.2c-.5,2.8-2.8,4.2-5.9,4.2ZM646,645.4h8.1c-.2-2.9-1.7-4-4-4s-3.8,1.5-4.1,4ZM659.7,653.6v-20.4h2.2v20.4h-2.2ZM672.1,653.9c-3.9,0-6.7-2.7-6.7-7v-.2c0-4.2,2.7-7.1,6.5-7.1s6.2,1.9,6.2,6.9v.7h-10.4c.1,3.1,1.6,4.9,4.4,4.9s3.4-.8,3.7-2.4h2.2c-.5,2.8-2.8,4.2-5.9,4.2ZM667.8,645.4h8.1c-.2-2.9-1.7-4-4-4s-3.8,1.5-4.1,4ZM681.5,653.6v-13.8h2.2v2.2c.6-1.3,2.2-2.4,4.4-2.4s4.9,1.6,4.9,5.6v8.5h-2.2v-8.6c0-2.4-1-3.5-3.3-3.5s-3.9,1.3-3.9,3.8v8.4h-2.2ZM701.5,653.8c-2.5,0-3.7-1.5-3.7-3.6v-8.5h-2v-1.9h2v-3.1h2.2v3.1h3.2v1.9h-3.2v8.3c0,1.3.6,2,1.7,2s1.2-.1,1.7-.3v1.9c-.4.2-1,.3-1.9.3ZM712.3,653.9c-3.9,0-6.7-2.7-6.7-7v-.2c0-4.2,2.7-7.1,6.5-7.1s6.2,1.9,6.2,6.9v.7h-10.4c.1,3.1,1.6,4.9,4.4,4.9s3.4-.8,3.7-2.4h2.2c-.5,2.8-2.8,4.2-5.9,4.2ZM708,645.4h8.1c-.2-2.9-1.7-4-4-4s-3.8,1.5-4.1,4ZM728.7,653.6v-13.8h2.2v2.2c.6-1.3,2.2-2.4,4.4-2.4s4.9,1.6,4.9,5.6v8.5h-2.2v-8.6c0-2.4-1-3.5-3.3-3.5s-3.9,1.3-3.9,3.8v8.4h-2.2ZM748,653.9c-2.6,0-4.6-1.2-4.6-4.1s3.4-4.3,6.9-4.3h2v-1c0-2.2-.8-3.1-3-3.1s-3,.8-3.2,2.5h-2.2c.3-3.1,2.8-4.3,5.5-4.3s5.1,1.1,5.1,4.9v9.1h-2.2v-1.7c-1,1.3-2.3,2-4.3,2ZM748.2,652.1c2.3,0,4.1-1.2,4.1-3.3v-1.7h-1.9c-2.8,0-4.8.7-4.8,2.7s.7,2.3,2.6,2.3ZM765.8,653.6v-20.4h2.2v8.8c.6-1.3,2.2-2.4,4.4-2.4s4.9,1.6,4.9,5.6v8.5h-2.2v-8.6c0-2.4-1-3.5-3.3-3.5s-3.9,1.3-3.9,3.8v8.4h-2.2ZM787.3,652c2.8,0,4.5-2.1,4.5-5.2v-.2c0-3.2-1.8-5.3-4.5-5.3s-4.5,2.1-4.5,5.2v.2c0,3.1,1.7,5.2,4.5,5.2ZM787.3,653.9c-3.9,0-6.8-3-6.8-7v-.2c0-4.2,2.9-7.1,6.8-7.1s6.8,2.9,6.8,7v.2c0,4.2-2.9,7.1-6.8,7.1ZM797.5,653.6v-13.8h2.2v2.5c.9-1.6,2.1-2.6,4.5-2.7v2.1c-2.8.1-4.5,1-4.5,4.4v7.6h-2.2ZM810.8,653.9c-2.6,0-4.6-1.2-4.6-4.1s3.4-4.3,6.9-4.3h2v-1c0-2.2-.8-3.1-3-3.1s-3,.8-3.2,2.5h-2.2c.3-3.1,2.8-4.3,5.5-4.3s5.1,1.1,5.1,4.9v9.1h-2.2v-1.7c-1,1.3-2.3,2-4.3,2ZM811,652.1c2.3,0,4.1-1.2,4.1-3.3v-1.7h-1.9c-2.8,0-4.8.7-4.8,2.7s.7,2.3,2.6,2.3ZM833.8,653.9c-3.6,0-6.2-2.6-6.2-6.9v-.2c0-4.2,2.6-7.2,6.5-7.2s3.7,1.1,4.5,2.5v-8.8h2.2v20.4h-2.2v-2.4c-.8,1.3-2.7,2.6-4.7,2.6ZM834.1,652c2.6,0,4.6-1.7,4.6-5.2v-.2c0-3.5-1.7-5.2-4.4-5.2s-4.4,1.9-4.4,5.3v.2c0,3.5,1.9,5.2,4.2,5.2ZM850.9,653.9c-3.9,0-6.7-2.7-6.7-7v-.2c0-4.2,2.7-7.1,6.5-7.1s6.2,1.9,6.2,6.9v.7h-10.4c.1,3.1,1.6,4.9,4.4,4.9s3.4-.8,3.7-2.4h2.2c-.5,2.8-2.8,4.2-5.9,4.2ZM846.5,645.4h8.1c-.2-2.9-1.7-4-4-4s-3.8,1.5-4.1,4ZM216.3,693.3v-12h-2v-1.9h2v-2.2c0-2.8,1.4-4.4,4.1-4.4s1.1,0,1.6.3v1.9c-.4-.2-1-.3-1.6-.3-1.4,0-2,1-2,2.4v2.5h3.4v1.9h-3.4v12h-2.2ZM229.9,693.5c-3.9,0-6.7-2.7-6.7-7v-.2c0-4.2,2.7-7.1,6.5-7.1s6.2,1.9,6.2,6.9v.7h-10.4c.1,3.1,1.6,4.9,4.4,4.9s3.4-.8,3.7-2.4h2.2c-.5,2.8-2.8,4.2-5.9,4.2ZM225.6,685h8.1c-.2-2.9-1.7-4-4-4s-3.8,1.5-4.1,4ZM245.1,693.5c-3.9,0-6.8-2.7-6.8-7v-.2c0-4.2,3-7.1,6.7-7.1s5.6,1.3,6,4.8h-2.2c-.3-2.2-1.9-3-3.8-3s-4.4,2-4.4,5.3v.2c0,3.4,1.9,5.2,4.5,5.2s3.7-1.1,4-3.4h2c-.3,3-2.7,5.2-6,5.2ZM254.4,693.3v-20.4h2.2v8.8c.6-1.3,2.2-2.4,4.4-2.4s4.9,1.6,4.9,5.6v8.5h-2.2v-8.6c0-2.4-1-3.5-3.3-3.5s-3.9,1.3-3.9,3.8v8.4h-2.2ZM273.7,693.5c-2.6,0-4.6-1.2-4.6-4.1s3.4-4.3,6.9-4.3h2v-1c0-2.2-.8-3.1-3-3.1s-3,.8-3.2,2.5h-2.2c.3-3.1,2.8-4.3,5.5-4.3s5.1,1.1,5.1,4.9v9.1h-2.2v-1.7c-1,1.3-2.3,2-4.3,2ZM273.9,691.8c2.3,0,4.1-1.2,4.1-3.3v-1.7h-1.9c-2.8,0-4.8.7-4.8,2.7s.7,2.3,2.6,2.3ZM284.5,693.3v-13.8h2.2v2.5c.9-1.6,2.1-2.6,4.5-2.7v2.1c-2.8.1-4.5,1-4.5,4.4v7.6h-2.2ZM304.9,693.5c-2.6,0-4.6-1.2-4.6-4.1s3.4-4.3,6.9-4.3h2v-1c0-2.2-.8-3.1-3-3.1s-3,.8-3.2,2.5h-2.2c.3-3.1,2.8-4.3,5.5-4.3s5.1,1.1,5.1,4.9v9.1h-2.2v-1.7c-1,1.3-2.3,2-4.3,2ZM305.1,691.8c2.3,0,4.1-1.2,4.1-3.3v-1.7h-1.9c-2.8,0-4.8.7-4.8,2.7s.7,2.3,2.6,2.3ZM320,693.5c-3.3,0-5.3-1.7-5.4-4.5h2.1c.2,1.6,1,2.7,3.3,2.7s3-.7,3-2.2-1.1-1.9-3.2-2.3c-3.6-.7-4.8-1.7-4.8-4.1s2.5-3.9,4.7-3.9,4.6,1,5,4h-2.1c-.3-1.5-1.2-2.2-2.9-2.2s-2.6.8-2.6,2,.7,1.7,3.2,2.2c2.9.5,4.9,1.2,4.9,4.1s-1.7,4.2-5.1,4.2ZM338.9,693.3l-5-13.8h2.4l4.1,11.6,4-11.6h2.3l-5,13.8h-2.8ZM354.8,693.5c-3.9,0-6.7-2.7-6.7-7v-.2c0-4.2,2.7-7.1,6.5-7.1s6.2,1.9,6.2,6.9v.7h-10.4c.1,3.1,1.6,4.9,4.4,4.9s3.4-.8,3.7-2.4h2.2c-.5,2.8-2.8,4.2-5.9,4.2ZM350.5,685h8.1c-.2-2.9-1.7-4-4-4s-3.8,1.5-4.1,4ZM364.2,693.3v-13.8h2.2v2.2c.6-1.3,2.2-2.4,4.4-2.4s4.9,1.6,4.9,5.6v8.5h-2.2v-8.6c0-2.4-1-3.5-3.3-3.5s-3.9,1.3-3.9,3.8v8.4h-2.2ZM385.2,693.5c-3.6,0-6.2-2.6-6.2-6.9v-.2c0-4.2,2.6-7.2,6.5-7.2s3.7,1.1,4.5,2.5v-8.8h2.2v20.4h-2.2v-2.4c-.8,1.3-2.7,2.6-4.7,2.6ZM385.4,691.7c2.6,0,4.6-1.7,4.6-5.2v-.2c0-3.5-1.7-5.2-4.4-5.2s-4.4,1.9-4.4,5.3v.2c0,3.5,1.9,5.2,4.2,5.2ZM400,693.5c-2.6,0-4.6-1.2-4.6-4.1s3.4-4.3,6.9-4.3h2v-1c0-2.2-.8-3.1-3-3.1s-3,.8-3.2,2.5h-2.2c.3-3.1,2.8-4.3,5.5-4.3s5.1,1.1,5.1,4.9v9.1h-2.2v-1.7c-1,1.3-2.3,2-4.3,2ZM400.2,691.8c2.3,0,4.1-1.2,4.1-3.3v-1.7h-1.9c-2.8,0-4.8.7-4.8,2.7s.7,2.3,2.6,2.3ZM415.1,693.5c-3.3,0-5.3-1.7-5.4-4.5h2.1c.2,1.6,1,2.7,3.3,2.7s3-.7,3-2.2-1.1-1.9-3.2-2.3c-3.6-.7-4.8-1.7-4.8-4.1s2.5-3.9,4.7-3.9,4.6,1,5,4h-2.1c-.3-1.5-1.2-2.2-2.9-2.2s-2.6.8-2.6,2,.7,1.7,3.2,2.2c2.9.5,4.9,1.2,4.9,4.1s-1.7,4.2-5.1,4.2ZM436.2,693.5c-3.9,0-6.7-2.7-6.7-7v-.2c0-4.2,2.7-7.1,6.5-7.1s6.2,1.9,6.2,6.9v.7h-10.4c.1,3.1,1.6,4.9,4.4,4.9s3.4-.8,3.7-2.4h2.2c-.5,2.8-2.8,4.2-5.9,4.2ZM431.9,685h8.1c-.2-2.9-1.7-4-4-4s-3.8,1.5-4.1,4ZM452.6,693.3v-20.4h2.2v20.4h-2.2ZM462.8,693.5c-2.6,0-4.6-1.2-4.6-4.1s3.4-4.3,6.9-4.3h2v-1c0-2.2-.8-3.1-3-3.1s-3,.8-3.2,2.5h-2.2c.3-3.1,2.8-4.3,5.5-4.3s5.1,1.1,5.1,4.9v9.1h-2.2v-1.7c-1,1.3-2.3,2-4.3,2ZM463,691.8c2.3,0,4.1-1.2,4.1-3.3v-1.7h-1.9c-2.8,0-4.8.7-4.8,2.7s.7,2.3,2.6,2.3ZM473.6,693.3v-13.8h2.2v2.2c.6-1.3,2.2-2.4,4.4-2.4s4.9,1.6,4.9,5.6v8.5h-2.2v-8.6c0-2.4-1-3.5-3.3-3.5s-3.9,1.3-3.9,3.8v8.4h-2.2ZM494.7,698.9c-1.5,0-2.5-.9-2.6-2.2h1.4c.1.5.5,1,1.1,1s1.1-.4,1.1-1-.4-.9-1-.9-.6.1-.7.2l-.8-.7,1-1.8c-3.4-.4-5.8-3-5.8-7v-.2c0-4.2,3-7.1,6.7-7.1s5.6,1.3,6,4.8h-2.2c-.3-2.2-1.9-3-3.8-3s-4.4,2-4.4,5.3v.2c0,3.4,1.9,5.2,4.5,5.2s3.7-1.1,4-3.4h2c-.3,2.9-2.5,5-5.6,5.2l-.6,1.2c1.2-.2,2.5.5,2.5,2.1s-1.2,2.1-2.7,2.1ZM507.9,693.5c-2.6,0-4.6-1.2-4.6-4.1s3.4-4.3,6.9-4.3h2v-1c0-2.2-.8-3.1-3-3.1s-3,.8-3.2,2.5h-2.2c.3-3.1,2.8-4.3,5.5-4.3s5.1,1.1,5.1,4.9v9.1h-2.2v-1.7c-1,1.3-2.3,2-4.3,2ZM508.2,691.8c2.3,0,4.1-1.2,4.1-3.3v-1.7h-1.9c-2.8,0-4.8.7-4.8,2.7s.7,2.3,2.6,2.3ZM518.8,693.3v-13.8h2.2v2.5c.9-1.6,2.1-2.6,4.5-2.7v2.1c-2.8.1-4.5,1-4.5,4.4v7.6h-2.2ZM541.5,691.7c2.8,0,4.5-2.1,4.5-5.2v-.2c0-3.2-1.8-5.3-4.5-5.3s-4.5,2.1-4.5,5.2v.2c0,3.1,1.7,5.2,4.5,5.2ZM541.4,693.5c-3.9,0-6.8-3-6.8-7v-.2c0-4.2,2.9-7.1,6.8-7.1s6.8,2.9,6.8,7v.2c0,4.2-2.9,7.1-6.8,7.1ZM555.9,693.5c-3.3,0-5.3-1.7-5.4-4.5h2.1c.2,1.6,1,2.7,3.3,2.7s3-.7,3-2.2-1.1-1.9-3.2-2.3c-3.6-.7-4.8-1.7-4.8-4.1s2.5-3.9,4.7-3.9,4.6,1,5,4h-2.1c-.3-1.5-1.2-2.2-2.9-2.2s-2.6.8-2.6,2,.7,1.7,3.2,2.2c2.9.5,4.9,1.2,4.9,4.1s-1.7,4.2-5.1,4.2ZM576.6,693.5c-3.6,0-6.2-2.6-6.2-6.9v-.2c0-4.2,2.6-7.2,6.5-7.2s3.7,1.1,4.5,2.5v-8.8h2.2v20.4h-2.2v-2.4c-.8,1.3-2.7,2.6-4.7,2.6ZM576.8,691.7c2.6,0,4.6-1.7,4.6-5.2v-.2c0-3.5-1.7-5.2-4.4-5.2s-4.4,1.9-4.4,5.3v.2c0,3.5,1.9,5.2,4.2,5.2ZM591.4,693.5c-2.6,0-4.6-1.2-4.6-4.1s3.4-4.3,6.9-4.3h2v-1c0-2.2-.8-3.1-3-3.1s-3,.8-3.2,2.5h-2.2c.3-3.1,2.8-4.3,5.5-4.3s5.1,1.1,5.1,4.9v9.1h-2.2v-1.7c-1,1.3-2.3,2-4.3,2ZM591.6,691.8c2.3,0,4.1-1.2,4.1-3.3v-1.7h-1.9c-2.8,0-4.8.7-4.8,2.7s.7,2.3,2.6,2.3ZM607.4,693.5c-3.6,0-6.2-2.6-6.2-6.9v-.2c0-4.2,2.6-7.2,6.5-7.2s3.7,1.1,4.5,2.5v-8.8h2.2v20.4h-2.2v-2.4c-.8,1.3-2.7,2.6-4.7,2.6ZM607.7,691.7c2.6,0,4.6-1.7,4.6-5.2v-.2c0-3.5-1.7-5.2-4.4-5.2s-4.4,1.9-4.4,5.3v.2c0,3.5,1.9,5.2,4.2,5.2ZM624.6,691.7c2.8,0,4.5-2.1,4.5-5.2v-.2c0-3.2-1.8-5.3-4.5-5.3s-4.5,2.1-4.5,5.2v.2c0,3.1,1.7,5.2,4.5,5.2ZM624.5,693.5c-3.9,0-6.8-3-6.8-7v-.2c0-4.2,2.9-7.1,6.8-7.1s6.8,2.9,6.8,7v.2c0,4.2-2.9,7.1-6.8,7.1ZM639,693.5c-3.3,0-5.3-1.7-5.4-4.5h2.1c.2,1.6,1,2.7,3.3,2.7s3-.7,3-2.2-1.1-1.9-3.2-2.3c-3.6-.7-4.8-1.7-4.8-4.1s2.5-3.9,4.7-3.9,4.6,1,5,4h-2.1c-.3-1.5-1.2-2.2-2.9-2.2s-2.6.8-2.6,2,.7,1.7,3.2,2.2c2.9.5,4.9,1.2,4.9,4.1s-1.7,4.2-5.1,4.2ZM649,693.4c-.9,0-1.7-.7-1.7-1.7s.8-1.7,1.7-1.7,1.7.7,1.7,1.7-.8,1.7-1.7,1.7ZM662.1,693.3v-18.9h11v1.9h-8.7v6.4h7v1.9h-7v6.8h9.2v1.9h-11.5ZM687.4,693.5c-2.6,0-4.6-1.2-4.6-4.1s3.4-4.3,6.9-4.3h2v-1c0-2.2-.8-3.1-3-3.1s-3,.8-3.2,2.5h-2.2c.3-3.1,2.8-4.3,5.5-4.3s5.1,1.1,5.1,4.9v9.1h-2.2v-1.7c-1,1.3-2.3,2-4.3,2ZM687.6,691.8c2.3,0,4.1-1.2,4.1-3.3v-1.7h-1.9c-2.8,0-4.8.7-4.8,2.7s.7,2.3,2.6,2.3ZM698.2,693.3v-13.8h2.2v13.8h-2.2ZM699.3,676.6c-.8,0-1.5-.7-1.5-1.5s.7-1.5,1.5-1.5,1.5.7,1.5,1.5-.7,1.5-1.5,1.5ZM704.9,693.3v-13.8h2.2v2.2c.6-1.3,2.2-2.4,4.4-2.4s4.9,1.6,4.9,5.6v8.5h-2.2v-8.6c0-2.4-1-3.5-3.3-3.5s-3.9,1.3-3.9,3.8v8.4h-2.2ZM725.9,693.5c-3.6,0-6.2-2.6-6.2-6.9v-.2c0-4.2,2.6-7.2,6.5-7.2s3.7,1.1,4.5,2.5v-8.8h2.2v20.4h-2.2v-2.4c-.8,1.3-2.7,2.6-4.7,2.6ZM726.2,691.7c2.6,0,4.6-1.7,4.6-5.2v-.2c0-3.5-1.7-5.2-4.4-5.2s-4.4,1.9-4.4,5.3v.2c0,3.5,1.9,5.2,4.2,5.2ZM740.8,693.5c-2.6,0-4.6-1.2-4.6-4.1s3.4-4.3,6.9-4.3h2v-1c0-2.2-.8-3.1-3-3.1s-3,.8-3.2,2.5h-2.2c.3-3.1,2.8-4.3,5.5-4.3s5.1,1.1,5.1,4.9v9.1h-2.2v-1.7c-1,1.3-2.3,2-4.3,2ZM741,691.8c2.3,0,4.1-1.2,4.1-3.3v-1.7h-1.9c-2.8,0-4.8.7-4.8,2.7s.7,2.3,2.6,2.3ZM762.8,693.5c-2.5,0-3.7-1.5-3.7-3.6v-8.5h-2v-1.9h2v-3.1h2.2v3.1h3.2v1.9h-3.2v8.3c0,1.3.6,2,1.7,2s1.2-.1,1.7-.3v1.9c-.4.2-1,.3-1.9.3ZM773.6,693.5c-3.9,0-6.7-2.7-6.7-7v-.2c0-4.2,2.7-7.1,6.5-7.1s6.2,1.9,6.2,6.9v.7h-10.4c.1,3.1,1.6,4.9,4.4,4.9s3.4-.8,3.7-2.4h2.2c-.5,2.8-2.8,4.2-5.9,4.2ZM769.3,685h8.1c-.2-2.9-1.7-4-4-4s-3.8,1.5-4.1,4ZM783,693.3v-13.8h2.2v2.1c.6-1.3,2.1-2.4,4.1-2.4s3.3.7,4,2.6c1-1.8,3-2.6,4.7-2.6,2.5,0,4.7,1.5,4.7,5.5v8.6h-2.2v-8.7c0-2.4-1-3.4-2.9-3.4s-3.6,1.2-3.6,3.7v8.5h-2.2v-8.7c0-2.4-1-3.4-2.9-3.4s-3.6,1.2-3.6,3.7v8.5h-2.2ZM819.8,693.5c-3.9,0-6.8-2.7-6.8-7v-.2c0-4.2,3-7.1,6.7-7.1s5.6,1.3,6,4.8h-2.2c-.3-2.2-1.9-3-3.8-3s-4.4,2-4.4,5.3v.2c0,3.4,1.9,5.2,4.5,5.2s3.7-1.1,4-3.4h2c-.3,3-2.7,5.2-6,5.2ZM834.9,691.7c2.8,0,4.5-2.1,4.5-5.2v-.2c0-3.2-1.8-5.3-4.5-5.3s-4.5,2.1-4.5,5.2v.2c0,3.1,1.7,5.2,4.5,5.2ZM834.9,693.5c-3.9,0-6.8-3-6.8-7v-.2c0-4.2,2.9-7.1,6.8-7.1s6.8,2.9,6.8,7v.2c0,4.2-2.9,7.1-6.8,7.1ZM845.1,693.3v-13.8h2.2v2.1c.6-1.3,2.1-2.4,4.1-2.4s3.3.7,4,2.6c1-1.8,3-2.6,4.7-2.6,2.5,0,4.7,1.5,4.7,5.5v8.6h-2.2v-8.7c0-2.4-1-3.4-2.9-3.4s-3.6,1.2-3.6,3.7v8.5h-2.2v-8.7c0-2.4-1-3.4-2.9-3.4s-3.6,1.2-3.6,3.7v8.5h-2.2ZM874.9,691.7c2.8,0,4.5-2.1,4.5-5.2v-.2c0-3.2-1.8-5.3-4.5-5.3s-4.5,2.1-4.5,5.2v.2c0,3.1,1.7,5.2,4.5,5.2ZM874.9,693.5c-3.9,0-6.8-3-6.8-7v-.2c0-4.2,2.9-7.1,6.8-7.1s6.8,2.9,6.8,7v.2c0,4.2-2.9,7.1-6.8,7.1ZM221.5,733.2c-3.9,0-6.7-2.7-6.7-7v-.2c0-4.2,2.7-7.1,6.5-7.1s6.2,1.9,6.2,6.9v.7h-10.4c.1,3.1,1.6,4.9,4.4,4.9s3.4-.8,3.7-2.4h2.2c-.5,2.8-2.8,4.2-5.9,4.2ZM217.1,724.7h8.1c-.2-2.9-1.7-4-4-4s-3.8,1.5-4.1,4ZM229,732.9l4.9-7.1-4.6-6.7h2.6l3.4,5,3.4-5h2.4l-4.6,6.6,5.1,7.3h-2.6l-3.7-5.6-3.8,5.6h-2.4ZM244.4,737.8v-18.6h2.2v2.3c.8-1.3,2.7-2.6,4.7-2.6,3.6,0,6.3,2.6,6.3,7v.2c0,4.2-2.5,7.1-6.3,7.1s-3.9-1.1-4.7-2.5v7.1h-2.2ZM251.1,731.4c2.7,0,4.2-1.9,4.2-5.2v-.2c0-3.5-1.9-5.2-4.3-5.2s-4.5,1.7-4.5,5.2v.2c0,3.5,1.9,5.2,4.5,5.2ZM266.8,731.4c2.8,0,4.5-2.1,4.5-5.2v-.2c0-3.2-1.8-5.3-4.5-5.3s-4.5,2.1-4.5,5.2v.2c0,3.1,1.7,5.2,4.5,5.2ZM266.7,733.2c-3.9,0-6.8-3-6.8-7v-.2c0-4.2,2.9-7.1,6.8-7.1s6.8,2.9,6.8,7v.2c0,4.2-2.9,7.1-6.8,7.1ZM277,732.9v-13.8h2.2v2.5c.9-1.6,2.1-2.6,4.5-2.7v2.1c-2.8.1-4.5,1-4.5,4.4v7.6h-2.2ZM291.2,733.1c-2.5,0-3.7-1.5-3.7-3.6v-8.5h-2v-1.9h2v-3.1h2.2v3.1h3.2v1.9h-3.2v8.3c0,1.3.6,2,1.7,2s1.2-.1,1.7-.3v1.9c-.4.2-1,.3-1.9.3ZM300,733.2c-2.6,0-4.6-1.2-4.6-4.1s3.4-4.3,6.9-4.3h2v-1c0-2.2-.8-3.1-3-3.1s-3,.8-3.2,2.5h-2.2c.3-3.1,2.8-4.3,5.5-4.3s5.1,1.1,5.1,4.9v9.1h-2.2v-1.7c-1,1.3-2.3,2-4.3,2ZM300.2,731.4c2.3,0,4.1-1.2,4.1-3.3v-1.7h-1.9c-2.8,0-4.8.7-4.8,2.7s.7,2.3,2.6,2.3ZM310.8,732.9v-13.8h2.2v2.5c.9-1.6,2.1-2.6,4.5-2.7v2.1c-2.8.1-4.5,1-4.5,4.4v7.6h-2.2ZM333.5,731.4c2.8,0,4.5-2.1,4.5-5.2v-.2c0-3.2-1.8-5.3-4.5-5.3s-4.5,2.1-4.5,5.2v.2c0,3.1,1.7,5.2,4.5,5.2ZM333.5,733.2c-3.9,0-6.8-3-6.8-7v-.2c0-4.2,2.9-7.1,6.8-7.1s6.8,2.9,6.8,7v.2c0,4.2-2.9,7.1-6.8,7.1ZM348,733.2c-3.3,0-5.3-1.7-5.4-4.5h2.1c.2,1.6,1,2.7,3.3,2.7s3-.7,3-2.2-1.1-1.9-3.2-2.3c-3.6-.7-4.8-1.7-4.8-4.1s2.5-3.9,4.7-3.9,4.6,1,5,4h-2.1c-.3-1.5-1.2-2.2-2.9-2.2s-2.6.8-2.6,2,.7,1.7,3.2,2.2c2.9.5,4.9,1.2,4.9,4.1s-1.7,4.2-5.1,4.2ZM368.7,733.2c-3.6,0-6.2-2.6-6.2-6.9v-.2c0-4.2,2.6-7.2,6.5-7.2s3.7,1.1,4.5,2.5v-8.8h2.2v20.4h-2.2v-2.4c-.8,1.3-2.7,2.6-4.7,2.6ZM368.9,731.4c2.6,0,4.6-1.7,4.6-5.2v-.2c0-3.5-1.7-5.2-4.4-5.2s-4.4,1.9-4.4,5.3v.2c0,3.5,1.9,5.2,4.2,5.2ZM383.5,733.2c-2.6,0-4.6-1.2-4.6-4.1s3.4-4.3,6.9-4.3h2v-1c0-2.2-.8-3.1-3-3.1s-3,.8-3.2,2.5h-2.2c.3-3.1,2.8-4.3,5.5-4.3s5.1,1.1,5.1,4.9v9.1h-2.2v-1.7c-1,1.3-2.3,2-4.3,2ZM383.7,731.4c2.3,0,4.1-1.2,4.1-3.3v-1.7h-1.9c-2.8,0-4.8.7-4.8,2.7s.7,2.3,2.6,2.3ZM399.5,733.2c-3.6,0-6.2-2.6-6.2-6.9v-.2c0-4.2,2.6-7.2,6.5-7.2s3.7,1.1,4.5,2.5v-8.8h2.2v20.4h-2.2v-2.4c-.8,1.3-2.7,2.6-4.7,2.6ZM399.7,731.4c2.6,0,4.6-1.7,4.6-5.2v-.2c0-3.5-1.7-5.2-4.4-5.2s-4.4,1.9-4.4,5.3v.2c0,3.5,1.9,5.2,4.2,5.2ZM416.6,731.4c2.8,0,4.5-2.1,4.5-5.2v-.2c0-3.2-1.8-5.3-4.5-5.3s-4.5,2.1-4.5,5.2v.2c0,3.1,1.7,5.2,4.5,5.2ZM416.6,733.2c-3.9,0-6.8-3-6.8-7v-.2c0-4.2,2.9-7.1,6.8-7.1s6.8,2.9,6.8,7v.2c0,4.2-2.9,7.1-6.8,7.1ZM431.1,733.2c-3.3,0-5.3-1.7-5.4-4.5h2.1c.2,1.6,1,2.7,3.3,2.7s3-.7,3-2.2-1.1-1.9-3.2-2.3c-3.6-.7-4.8-1.7-4.8-4.1s2.5-3.9,4.7-3.9,4.6,1,5,4h-2.1c-.3-1.5-1.2-2.2-2.9-2.2s-2.6.8-2.6,2,.7,1.7,3.2,2.2c2.9.5,4.9,1.2,4.9,4.1s-1.7,4.2-5.1,4.2ZM446.5,737.8v-18.6h2.2v2.3c.8-1.3,2.7-2.6,4.7-2.6,3.6,0,6.3,2.6,6.3,7v.2c0,4.2-2.5,7.1-6.3,7.1s-3.9-1.1-4.7-2.5v7.1h-2.2ZM453.2,731.4c2.7,0,4.2-1.9,4.2-5.2v-.2c0-3.5-1.9-5.2-4.3-5.2s-4.5,1.7-4.5,5.2v.2c0,3.5,1.9,5.2,4.5,5.2ZM466.6,733.2c-2.6,0-4.6-1.2-4.6-4.1s3.4-4.3,6.9-4.3h2v-1c0-2.2-.8-3.1-3-3.1s-3,.8-3.2,2.5h-2.2c.3-3.1,2.8-4.3,5.5-4.3s5.1,1.1,5.1,4.9v9.1h-2.2v-1.7c-1,1.3-2.3,2-4.3,2ZM466.8,731.4c2.3,0,4.1-1.2,4.1-3.3v-1.7h-1.9c-2.8,0-4.8.7-4.8,2.7s.7,2.3,2.6,2.3ZM477.4,732.9v-13.8h2.2v2.5c.9-1.6,2.1-2.6,4.5-2.7v2.1c-2.8.1-4.5,1-4.5,4.4v7.6h-2.2ZM490.7,733.2c-2.6,0-4.6-1.2-4.6-4.1s3.4-4.3,6.9-4.3h2v-1c0-2.2-.8-3.1-3-3.1s-3,.8-3.2,2.5h-2.2c.3-3.1,2.8-4.3,5.5-4.3s5.1,1.1,5.1,4.9v9.1h-2.2v-1.7c-1,1.3-2.3,2-4.3,2ZM490.9,731.4c2.3,0,4.1-1.2,4.1-3.3v-1.7h-1.9c-2.8,0-4.8.7-4.8,2.7s.7,2.3,2.6,2.3ZM508.6,732.9v-18.9h11v1.9h-8.7v6.4h7v1.9h-7v6.8h9.2v1.9h-11.5ZM522.1,732.9l4.9-7.1-4.6-6.7h2.6l3.4,5,3.4-5h2.4l-4.6,6.6,5.1,7.3h-2.6l-3.7-5.6-3.8,5.6h-2.4ZM542.6,733.2c-3.9,0-6.8-2.7-6.8-7v-.2c0-4.2,3-7.1,6.7-7.1s5.6,1.3,6,4.8h-2.2c-.3-2.2-1.9-3-3.8-3s-4.4,2-4.4,5.3v.2c0,3.4,1.9,5.2,4.5,5.2s3.7-1.1,4-3.4h2c-.3,3-2.7,5.2-6,5.2ZM557.6,733.2c-3.9,0-6.7-2.7-6.7-7v-.2c0-4.2,2.7-7.1,6.5-7.1s6.2,1.9,6.2,6.9v.7h-10.4c.1,3.1,1.6,4.9,4.4,4.9s3.4-.8,3.7-2.4h2.2c-.5,2.8-2.8,4.2-5.9,4.2ZM553.3,724.7h8.1c-.2-2.9-1.7-4-4-4s-3.8,1.5-4.1,4ZM567.1,732.9v-20.4h2.2v20.4h-2.2ZM580.8,737.8v-18.6h2.2v2.3c.8-1.3,2.7-2.6,4.7-2.6,3.6,0,6.3,2.6,6.3,7v.2c0,4.2-2.5,7.1-6.3,7.1s-3.9-1.1-4.7-2.5v7.1h-2.2ZM587.4,731.4c2.7,0,4.2-1.9,4.2-5.2v-.2c0-3.5-1.9-5.2-4.3-5.2s-4.5,1.7-4.5,5.2v.2c0,3.5,1.9,5.2,4.5,5.2ZM600.8,733.2c-2.6,0-4.6-1.2-4.6-4.1s3.4-4.3,6.9-4.3h2v-1c0-2.2-.8-3.1-3-3.1s-3,.8-3.2,2.5h-2.2c.3-3.1,2.8-4.3,5.5-4.3s5.1,1.1,5.1,4.9v9.1h-2.2v-1.7c-1,1.3-2.3,2-4.3,2ZM601,731.4c2.3,0,4.1-1.2,4.1-3.3v-1.7h-1.9c-2.8,0-4.8.7-4.8,2.7s.7,2.3,2.6,2.3ZM611.6,732.9v-13.8h2.2v2.5c.9-1.6,2.1-2.6,4.5-2.7v2.1c-2.8.1-4.5,1-4.5,4.4v7.6h-2.2ZM624.9,733.2c-2.6,0-4.6-1.2-4.6-4.1s3.4-4.3,6.9-4.3h2v-1c0-2.2-.8-3.1-3-3.1s-3,.8-3.2,2.5h-2.2c.3-3.1,2.8-4.3,5.5-4.3s5.1,1.1,5.1,4.9v9.1h-2.2v-1.7c-1,1.3-2.3,2-4.3,2ZM625.1,731.4c2.3,0,4.1-1.2,4.1-3.3v-1.7h-1.9c-2.8,0-4.8.7-4.8,2.7s.7,2.3,2.6,2.3ZM647.4,733.2c-2.7,0-4.8-1.5-4.8-5.3v-8.8h2.2v8.6c0,2.4,1,3.5,3.2,3.5s3.8-1.3,3.8-3.8v-8.4h2.2v13.8h-2.2v-2.2c-.6,1.3-2.2,2.4-4.4,2.4ZM658.4,732.9v-13.8h2.2v2.1c.6-1.3,2.1-2.4,4.1-2.4s3.3.7,4,2.6c1-1.8,3-2.6,4.7-2.6,2.5,0,4.7,1.5,4.7,5.5v8.6h-2.2v-8.7c0-2.4-1-3.4-2.9-3.4s-3.6,1.2-3.6,3.7v8.5h-2.2v-8.7c0-2.4-1-3.4-2.9-3.4s-3.6,1.2-3.6,3.7v8.5h-2.2ZM685.9,733.2c-2.6,0-4.6-1.2-4.6-4.1s3.4-4.3,6.9-4.3h2v-1c0-2.2-.8-3.1-3-3.1s-3,.8-3.2,2.5h-2.2c.3-3.1,2.8-4.3,5.5-4.3s5.1,1.1,5.1,4.9v9.1h-2.2v-1.7c-1,1.3-2.3,2-4.3,2ZM686.2,731.4c2.3,0,4.1-1.2,4.1-3.3v-1.7h-1.9c-2.8,0-4.8.7-4.8,2.7s.7,2.3,2.6,2.3ZM707.2,733.2c-2.6,0-4.6-1.2-4.6-4.1s3.4-4.3,6.9-4.3h2v-1c0-2.2-.8-3.1-3-3.1s-3,.8-3.2,2.5h-2.2c.3-3.1,2.8-4.3,5.5-4.3s5.1,1.1,5.1,4.9v9.1h-2.2v-1.7c-1,1.3-2.3,2-4.3,2ZM707.4,731.4c2.3,0,4.1-1.2,4.1-3.3v-1.7h-1.9c-2.8,0-4.8.7-4.8,2.7s.7,2.3,2.6,2.3ZM718,732.9v-13.8h2.2v2.2c.6-1.3,2.2-2.4,4.4-2.4s4.9,1.6,4.9,5.6v8.5h-2.2v-8.6c0-2.4-1-3.5-3.3-3.5s-3.9,1.3-3.9,3.8v8.4h-2.2ZM737.3,733.2c-2.6,0-4.6-1.2-4.6-4.1s3.4-4.3,6.9-4.3h2v-1c0-2.2-.8-3.1-3-3.1s-3,.8-3.2,2.5h-2.2c.3-3.1,2.8-4.3,5.5-4.3s5.1,1.1,5.1,4.9v9.1h-2.2v-1.7c-1,1.3-2.3,2-4.3,2ZM737.5,731.4c2.3,0,4.1-1.2,4.1-3.3v-1.7h-1.9c-2.8,0-4.8.7-4.8,2.7s.7,2.3,2.6,2.3ZM737.8,716.7l1.6-3.9h2.7l-2.7,3.9h-1.6ZM748.2,732.9v-20.4h2.2v20.4h-2.2ZM754.9,732.9v-13.8h2.2v13.8h-2.2ZM756,716.2c-.8,0-1.5-.7-1.5-1.5s.7-1.5,1.5-1.5,1.5.7,1.5,1.5-.7,1.5-1.5,1.5ZM765.9,733.2c-3.3,0-5.3-1.7-5.4-4.5h2.1c.2,1.6,1,2.7,3.3,2.7s3-.7,3-2.2-1.1-1.9-3.2-2.3c-3.6-.7-4.8-1.7-4.8-4.1s2.5-3.9,4.7-3.9,4.6,1,5,4h-2.1c-.3-1.5-1.2-2.2-2.9-2.2s-2.6.8-2.6,2,.7,1.7,3.2,2.2c2.9.5,4.9,1.2,4.9,4.1s-1.7,4.2-5.1,4.2ZM780,733.2c-3.9,0-6.7-2.7-6.7-7v-.2c0-4.2,2.7-7.1,6.5-7.1s6.2,1.9,6.2,6.9v.7h-10.4c.1,3.1,1.6,4.9,4.4,4.9s3.4-.8,3.7-2.4h2.2c-.5,2.8-2.8,4.2-5.9,4.2ZM775.6,724.7h8.1c-.2-2.9-1.7-4-4-4s-3.8,1.5-4.1,4ZM796.4,732.9v-13.8h2.2v2.1c.6-1.3,2.1-2.4,4.1-2.4s3.3.7,4,2.6c1-1.8,3-2.6,4.7-2.6,2.5,0,4.7,1.5,4.7,5.5v8.6h-2.2v-8.7c0-2.4-1-3.4-2.9-3.4s-3.6,1.2-3.6,3.7v8.5h-2.2v-8.7c0-2.4-1-3.4-2.9-3.4s-3.6,1.2-3.6,3.7v8.5h-2.2ZM826.1,733.2c-3.9,0-6.7-2.7-6.7-7v-.2c0-4.2,2.7-7.1,6.5-7.1s6.2,1.9,6.2,6.9v.7h-10.4c.1,3.1,1.6,4.9,4.4,4.9s3.4-.8,3.7-2.4h2.2c-.5,2.8-2.8,4.2-5.9,4.2ZM821.7,724.7h8.1c-.2-2.9-1.7-4-4-4s-3.8,1.5-4.1,4ZM835.5,732.9v-20.4h2.2v20.4h-2.2ZM842.2,732.9v-20.4h2.2v8.8c.6-1.3,2.2-2.4,4.4-2.4s4.9,1.6,4.9,5.6v8.5h-2.2v-8.6c0-2.4-1-3.5-3.3-3.5s-3.9,1.3-3.9,3.8v8.4h-2.2ZM863.8,731.4c2.8,0,4.5-2.1,4.5-5.2v-.2c0-3.2-1.8-5.3-4.5-5.3s-4.5,2.1-4.5,5.2v.2c0,3.1,1.7,5.2,4.5,5.2ZM863.8,733.2c-3.9,0-6.8-3-6.8-7v-.2c0-4.2,2.9-7.1,6.8-7.1s6.8,2.9,6.8,7v.2c0,4.2-2.9,7.1-6.8,7.1ZM874,732.9v-13.8h2.2v2.5c.9-1.6,2.1-2.6,4.5-2.7v2.1c-2.8.1-4.5,1-4.5,4.4v7.6h-2.2ZM883.8,733.1c-.9,0-1.7-.7-1.7-1.7s.8-1.7,1.7-1.7,1.7.7,1.7,1.7-.8,1.7-1.7,1.7Z"/>
  <path class="st9" d="M216.2,496.8v-24.6h7.4l5.7,15.3,5.7-15.3h7.2v24.6h-5.5v-17.3l-6.8,17.3h-1.8l-6.8-17.3v17.3h-5ZM255.2,497.2c-5.4,0-9.4-3.4-9.4-9.1v-.3c0-5.7,4-9.3,9.2-9.3s8.8,2.7,8.8,9.1v1.4h-13c.1,3,1.8,4.7,4.5,4.7s3.4-1,3.7-2.5h4.7c-.6,3.9-3.7,6-8.6,6ZM251,485.9h8c-.2-2.7-1.5-4-3.9-4s-3.7,1.5-4.1,4ZM267.3,496.8v-26.1h4.9v26.1h-4.9ZM276.8,496.8v-26.1h5v11c.9-1.8,2.9-3.3,5.8-3.3s6,2.1,6,6.9v11.4h-5v-10.7c0-2.4-1-3.6-3.2-3.6s-3.7,1.3-3.7,4v10.4h-5ZM306.3,493.4c2.8,0,4.4-2.1,4.4-5.5v-.2c0-3.4-1.6-5.5-4.4-5.5s-4.4,2-4.4,5.4v.3c0,3.4,1.6,5.5,4.4,5.5ZM306.3,497.2c-5.4,0-9.5-3.6-9.5-9.2v-.3c0-5.6,4.1-9.3,9.5-9.3s9.5,3.6,9.5,9.2v.3c0,5.7-4.1,9.3-9.5,9.3ZM319.1,496.8v-18h5v3.4c1.1-2.4,2.9-3.7,5.8-3.7v4.6c-3.7,0-5.8,1.2-5.8,4.6v9h-5ZM345.6,497.2c-3.3,0-6-1.6-6-5.4s3.8-5.8,9.3-5.8h2v-.7c0-2.1-.7-3.3-2.9-3.3s-2.9,1-3.1,2.5h-4.7c.3-4.3,3.7-6.2,8.1-6.2s7.5,1.8,7.5,6.7v11.7h-4.8v-2.2c-1,1.4-2.6,2.5-5.4,2.5ZM347.1,493.7c2.2,0,3.9-1.2,3.9-3.2v-1.5h-1.9c-2.9,0-4.6.6-4.6,2.5s.8,2.2,2.6,2.2ZM360.2,502.9v-24.1h5v2.8c1-1.7,3.1-3.2,5.7-3.2,4.4,0,7.8,3.3,7.8,9.2v.3c0,5.9-3.4,9.3-7.8,9.3s-4.8-1.4-5.7-3.1v8.9h-5ZM369.4,493.3c2.7,0,4.3-1.9,4.3-5.4v-.3c0-3.6-1.8-5.4-4.3-5.4s-4.4,1.8-4.4,5.4v.3c0,3.6,1.7,5.4,4.4,5.4ZM382.1,502.9v-24.1h5v2.8c1-1.7,3.1-3.2,5.7-3.2,4.4,0,7.8,3.3,7.8,9.2v.3c0,5.9-3.4,9.3-7.8,9.3s-4.8-1.4-5.7-3.1v8.9h-5ZM391.3,493.3c2.7,0,4.3-1.9,4.3-5.4v-.3c0-3.6-1.8-5.4-4.3-5.4s-4.4,1.8-4.4,5.4v.3c0,3.6,1.7,5.4,4.4,5.4ZM418.3,497.2c-4.4,0-7.8-3.1-7.8-9.1v-.3c0-5.9,3.4-9.4,7.9-9.4s4.7,1.3,5.7,3.1v-10.8h4.9v26.1h-4.9v-3c-.9,1.8-3.1,3.4-5.8,3.4ZM419.8,493.3c2.6,0,4.4-1.8,4.4-5.4v-.3c0-3.6-1.6-5.4-4.3-5.4s-4.3,1.9-4.3,5.5v.3c0,3.6,1.7,5.3,4.2,5.3ZM441.7,497.2c-5.4,0-9.4-3.4-9.4-9.1v-.3c0-5.7,4-9.3,9.2-9.3s8.8,2.7,8.8,9.1v1.4h-13c.1,3,1.8,4.7,4.5,4.7s3.4-1,3.7-2.5h4.7c-.6,3.9-3.7,6-8.6,6ZM437.5,485.9h8c-.2-2.7-1.5-4-3.9-4s-3.7,1.5-4.1,4ZM461.7,496.8v-24.6h8.5c6,0,9.4,2.6,9.4,7.8h0c0,5.3-3.6,7.8-9.2,7.8h-3.1v8.9h-5.5ZM467.2,484h2.8c2.7,0,4.2-1.3,4.2-3.7h0c0-2.7-1.5-3.8-4.2-3.8h-2.8v7.5ZM494.8,492.8c4.2,0,6.8-3.2,6.8-8.1v-.3c0-4.8-2.5-8-6.8-8s-6.8,3.1-6.8,8.1v.3c0,5,2.9,8.1,6.9,8.1ZM494.7,497.2c-7.7,0-12.6-5.3-12.6-12.5v-.3c0-7.3,5.4-12.5,12.6-12.5s12.6,5,12.6,12.4v.3c0,7.3-5,12.6-12.7,12.6ZM519.7,497.2c-6.7,0-9.8-3.2-10.1-8.1h5.3c.2,2.2,1.2,4,4.8,4s4.1-1.3,4.1-3.3-1-2.6-4.6-3.2c-6.3-.8-8.9-2.7-8.9-7.5s3.5-7.3,8.9-7.3,8.8,2.5,9.2,7.4h-5.1c-.3-2.2-1.6-3.3-4.1-3.3s-3.7,1.1-3.7,2.8.8,2.6,4.6,3.1c5.9.8,9,2.4,9,7.5s-3.6,7.8-9.4,7.8Z"/>
  <path class="st2" d="M217.8,805.6v-18.9h5.4c3.6,0,6.6,1.6,6.6,5.5h0c0,4.1-3,5.7-6.6,5.7h-3.1v7.7h-2.3ZM220.1,796.1h3.2c2.7,0,4.2-1.3,4.2-3.8h0c0-2.8-1.6-3.8-4.2-3.8h-3.2v7.5ZM238.3,804c2.8,0,4.5-2.1,4.5-5.2v-.2c0-3.2-1.8-5.3-4.5-5.3s-4.5,2.1-4.5,5.2v.2c0,3.1,1.7,5.2,4.5,5.2ZM238.3,805.8c-3.9,0-6.8-3-6.8-7v-.2c0-4.2,2.9-7.1,6.8-7.1s6.8,2.9,6.8,7v.2c0,4.2-2.9,7.1-6.8,7.1ZM248.5,805.6v-13.8h2.2v2.5c.9-1.6,2.1-2.6,4.5-2.7v2.1c-2.8.1-4.5,1-4.5,4.4v7.6h-2.2ZM267.9,803.7h2.6c4.9,0,7.3-2.9,7.3-7.5v-.2c0-4.4-2.1-7.4-7.3-7.4h-2.6v15.2ZM265.6,805.6v-18.9h5c6.5,0,9.6,4,9.6,9.3v.2c0,5.2-3,9.4-9.6,9.4h-4.9ZM283.9,805.6v-13.8h2.2v13.8h-2.2ZM285,788.9c-.8,0-1.5-.7-1.5-1.5s.7-1.5,1.5-1.5,1.5.7,1.5,1.5-.7,1.5-1.5,1.5ZM296.3,805.8c-3.9,0-6.7-2.7-6.7-7v-.2c0-4.2,2.7-7.1,6.5-7.1s6.2,1.9,6.2,6.9v.7h-10.4c.1,3.1,1.6,4.9,4.4,4.9s3.4-.8,3.7-2.4h2.2c-.5,2.8-2.8,4.2-5.9,4.2ZM292,797.3h8.1c-.2-2.9-1.7-4-4-4s-3.8,1.5-4.1,4ZM311.2,810.6c-4.1,0-5.9-1.9-6.3-4.3h2.2c.3,1.6,1.6,2.4,4,2.4s4.4-1.3,4.4-4.3v-2c-.8,1.3-2.7,2.6-4.7,2.6-3.6,0-6.3-2.7-6.3-6.6v-.2c0-3.8,2.6-6.9,6.5-6.9s3.7,1.1,4.5,2.5v-2.2h2.2v12.9c0,4-2.7,6-6.6,6ZM311.2,803.3c2.6,0,4.5-1.8,4.5-4.9v-.2c0-3.1-1.7-4.9-4.4-4.9s-4.4,2-4.4,4.9v.2c0,3,1.9,4.8,4.3,4.8ZM328,804c2.8,0,4.5-2.1,4.5-5.2v-.2c0-3.2-1.8-5.3-4.5-5.3s-4.5,2.1-4.5,5.2v.2c0,3.1,1.7,5.2,4.5,5.2ZM328,805.8c-3.9,0-6.8-3-6.8-7v-.2c0-4.2,2.9-7.1,6.8-7.1s6.8,2.9,6.8,7v.2c0,4.2-2.9,7.1-6.8,7.1ZM345.4,805.6v-18.9h3.2l5.8,14.7,5.7-14.7h3.2v18.9h-2.3v-15.9l-6.3,15.9h-.7l-6.5-15.9v15.9h-2.1ZM371.3,805.8c-2.6,0-4.6-1.2-4.6-4.1s3.4-4.3,6.9-4.3h2v-1c0-2.2-.8-3.1-3-3.1s-3,.8-3.2,2.5h-2.2c.3-3.1,2.8-4.3,5.5-4.3s5.1,1.1,5.1,4.9v9.1h-2.2v-1.7c-1,1.3-2.3,2-4.3,2ZM371.5,804.1c2.3,0,4.1-1.2,4.1-3.3v-1.7h-1.9c-2.8,0-4.8.7-4.8,2.7s.7,2.3,2.6,2.3ZM382.2,805.6v-13.8h2.2v13.8h-2.2ZM383.2,788.9c-.8,0-1.5-.7-1.5-1.5s.7-1.5,1.5-1.5,1.5.7,1.5,1.5-.7,1.5-1.5,1.5ZM394.6,804c2.8,0,4.5-2.1,4.5-5.2v-.2c0-3.2-1.8-5.3-4.5-5.3s-4.5,2.1-4.5,5.2v.2c0,3.1,1.7,5.2,4.5,5.2ZM394.6,805.8c-3.9,0-6.8-3-6.8-7v-.2c0-4.2,2.9-7.1,6.8-7.1s6.8,2.9,6.8,7v.2c0,4.2-2.9,7.1-6.8,7.1ZM404.9,805.6v-20.4h2.2v20.4h-2.2ZM411.6,805.6v-13.8h2.2v13.8h-2.2ZM412.7,788.9c-.8,0-1.5-.7-1.5-1.5s.7-1.5,1.5-1.5,1.5.7,1.5,1.5-.7,1.5-1.5,1.5Z"/>
  <g class="st11">
    <path class="st10" d="M234.5,359.6l5.6,13.5,14.5,1.2-11.1,9.5,3.4,14.2-12.4-7.6-12.4,7.6,3.4-14.2-11.1-9.5,14.5-1.2,5.6-13.5Z"/>
  </g>
  <g class="st4">
    <path class="st10" d="M297.9,359.6l5.6,13.5,14.5,1.2-11.1,9.5,3.4,14.2-12.4-7.6-12.4,7.6,3.4-14.2-11.1-9.5,14.5-1.2,5.6-13.5Z"/>
  </g>
  <g class="st7">
    <path class="st10" d="M361.4,359.6l5.6,13.5,14.5,1.2-11.1,9.5,3.4,14.2-12.4-7.6-12.4,7.6,3.4-14.2-11.1-9.5,14.5-1.2,5.6-13.5Z"/>
  </g>
  <g class="st5">
    <path class="st10" d="M424.8,359.6l5.6,13.5,14.5,1.2-11.1,9.5,3.4,14.2-12.4-7.6-12.4,7.6,3.4-14.2-11.1-9.5,14.5-1.2,5.6-13.5Z"/>
  </g>
  <g class="st6">
    <path class="st10" d="M488.3,359.6l5.6,13.5,14.5,1.2-11.1,9.5,3.4,14.2-12.4-7.6-12.4,7.6,3.4-14.2-11.1-9.5,14.5-1.2,5.6-13.5Z"/>
  </g>
  <path class="st9" d="M1008,884.2c-.3,0-.5-.2-.7-.4-.2-.2-.3-.4-.4-.7-.2-.6-.3-1.2-.2-1.8,0-.5.6-1.5,1-1.5.7,0,1.4.2,2.1.3.4,0,5.7,3.2,7.5,4.2,1.7,1,3.3,2.1,4.9,3.4,3.2,2.5,6.4,4.8,9.6,7.3.7.6,1.3,1.2,1.9,1.9,2.1,2.2,4.4,4.2,6.9,6,.4.3.8.6,1.3.8.9.2,7.3,5.5,8,6.3,1.7,2.1,3.6,4.1,5.3,6.1.3.3.6.5.7.9.2.9.6,1.6,1.3,2.2.8.9,1.5,1.8,2.1,2.7.3.6.5,1.2.6,1.8.1.6-.8,1.1-1,1-.6-.1-.6.5-.9.8,0,.1-.2.2-.3.3-1.1-.4-2.2-.8-3.3-1.3-1.2-.5-2.4-1.1-3.6-1.8,0,0-.5-.4-1.2-1l-2.6-2.2c-2-1.6-4-3.2-4.5-3.6-.4-.4-.8-.8-1.1-1.3-.2-.2-6.2-4.8-6.4-5.1-1.3-1-2.4-2.1-3.3-3.4-.2-.3-.4-.5-.7-.7-2.1-1.7-4-3.7-6-5.5-1-1-2.1-1.8-3.2-2.7-.2-.2-.3-.4-.5-.6-.2-.3-.4-.5-.6-.7-2.6-2.1-4.9-4.4-7.6-6.3-.6-.4-3-3.2-3.8-3.6-.4-.3-1.1-1.9-1.5-2Z"/>
  <path class="st9" d="M1020.1,912.4c-.3-.3-.5-.6-.6-1,0-.4,0-.8,0-1.1,0-.3.6-.7.8-.6.4.2.9.4,1.3.6.2.1,3.6,3,4.9,3.8.6.4,1.2.9,1.7,1.4s1,1,1.5,1.5l5.9,6.4c.4.5.8,1,1.1,1.5,1.2,1.9,2.5,3.6,4.1,5.2.2.3.5.6.9.7.6.2,4.4,4.8,4.8,5.5.4.9.9,1.7,1.4,2.6.5.8.9,1.7,1.3,2.6.1.2.4.4.3.8,0,.3,0,.6.1.9.1.3.3.6.5.8.5.7.9,1.4,1.3,2.1.2.4.2.9.3,1.4,0,.4-.6.8-.8.7-.4-.1-.5.4-.7.6,0,0-.2.2-.3.2-1.7-.8-3.3-1.8-4.9-2.8l-2.8-2.5c-1.3-1.3-2.6-2.7-2.9-3-.3-.3-.5-.7-.7-1.1,0-.2-4-4.1-4.1-4.3-.8-.8-1.5-1.8-1.8-3,0-.2-.2-.4-.4-.6-1.2-1.6-2.3-3.2-3.4-4.9-.6-.8-1.2-1.6-1.8-2.4,0-.2-.2-.3-.2-.5,0-.2-.2-.4-.3-.6-1.4-1.9-2.8-3.9-4.2-5.8-.3-.4-1.4-2.9-1.8-3.4-.2-.3-.4-1.6-.6-1.9Z"/>
  <path class="st9" d="M980.9,903.2c-.7-.4-.5-1.3,0-2.5.2-.4,1.1-1,1.4-1,.5.1,1,.3,1.5.5.3.1,3.5,3,4.5,4,1,1,1.9,2.1,2.7,3.2,1.6,2.3,3.3,4.6,4.9,6.9.4.5.7,1.1.9,1.7.9,2,2,3.8,3.3,5.6.2.3.4.6.7.8.6.3,3.8,5.1,4.1,5.8.6,1.8,1.5,3.5,2.2,5.2,0,.3.3.5.2.8,0,.3,0,.6,0,.9,0,.3.2.6.4.8.4.7.7,1.5,1,2.2,0,.5.1.9,0,1.4,0,.4-.9.8-1,.7-.4-.1-.6.3-.9.6,0,0-.2.2-.3.2-1.6-.9-3-2-4.4-3.3,0,0-.3-.4-.7-.9s-.9-1.2-1.5-1.9c-1.1-1.4-2.2-2.9-2.4-3.2-.2-.3-.4-.7-.5-1.1,0-.2-3.4-4.4-3.4-4.6-.7-.9-1.2-1.9-1.5-3,0-.2-.2-.4-.3-.6-1.1-1.6-2-3.2-2.9-4.9-.5-.8-1.1-1.6-1.7-2.4,0-.2-.1-.3-.2-.5,0-.2-.2-.4-.3-.6-1.3-1.8-2.4-3.9-3.9-5.6-.4-.4-1.3-2.8-1.7-3.3,0-.3,0-1.8-.3-1.9Z"/>
  <g class="st8">
    <path class="st9" d="M125.5,269.9h-.2s0,0-.1.1h-.1c-.1,0-.2-.1-.3-.2l-.7-.4c-.2-.1-.5-.3-.8-.5-.3-.2-.3-.3-.4-.4l-.4-.6c-.5-.8-.9-1.6-1.3-2.4l-.5-.9-.4-.6c-.9-1.5-2-3-3.1-4.4-.8-1-1.8-1.9-2.7-2.9-3.3-3.5-7-6.5-11.1-9-1.8-1.1-3.7-2.1-5.7-3-2.6-1-5.1-2.1-7.5-3.4-.8-.4-.4-1.1.5-1.6,1.3-.7,2.8-.9,4.2-.5.7.2,1.4.4,2.1.6l1.1.3c.3.1.7.3,1,.4,1.3.6,2.6,1.2,4,2,2.6,1.4,5.1,3.1,7.3,5,2.9,2.2,5.6,4.6,8.2,7.1,1.4,1.5,2.7,3,3.9,4.6.6.8,1.2,1.6,1.7,2.5l.4.6.2.3.3.6.4.8c0,0,0,.1.1.2,0,0,0,0,.1-.1,0,0,.2-.2.3-.3l1.2-1.5c2.3-2.9,4.9-5.5,7.7-7.9,2.1-1.9,4.4-3.6,6.8-5.2.5-.3,1-.7,1.6-1,2.1-1.1,3-1,3.9,0,.2.2.4.4.6.7.5.8-.1,1.9-1.4,2.8-4,2.5-7.8,5.4-11.3,8.6-1.3,1.2-2.5,2.5-3.7,3.9l-.8,1c-.5.7-1.1,1.4-1.6,2.2-.2.4-.5.8-.8,1.1l-.4.5c-.1.1-.3.2-.4.4-.1.1-.3.2-.4.2h-.4c0,.1-.9.3-.9.3h0Z"/>
    <path class="st9" d="M98.6,239.7c6.5,3.5,12.4,8.1,17.4,13.5,1.8,1.9,3.7,3.8,5.3,5.7,1.4,1.7,2.8,3.5,4.2,5l.5.6c.1.1.2.3.4.4.1.1.3.3.5.3.2,0,.4,0,.6,0,.3-.2.6-.5.9-.8l2.2-2.5c1.5-1.7,3-3.4,4.6-5.1,2.8-3,5.7-5.9,8.8-8.6,2.1-1.8,4.4-3.3,6.9-4.4,1.3-.5,2.7-.9,4.1-1.1,1.5-.2,2.9,0,4.3.3,1.8.5,1.2,1.4,0,2.6-.8.8-1.5,1.6-2.2,2.4-.4.4-.8.8-1.3,1.1-.4.4-.9.7-1.4,1-.5.2-.9.5-1.3.8-.5.3-.9.5-1.4.8-.9.6-1.9,1.2-2.7,1.9-1.9,1.4-3.6,3-5.3,4.6-1.7,1.7-3.4,3.4-5.1,5.3l-5.5,6c-.8,1-1.8,1.9-2.9,2.6-.3.1-.5.3-.8.4h-.2c0,0,0,.1,0,.1h-.4c-.3.2-.6.3-.9.2-.3,0-.6,0-.9,0-1.2-.2-2.4-.7-3.4-1.5-.5-.4-1-.8-1.5-1.3-.3-.2-.5-.4-.7-.7l-.5-.5c-2.4-2.5-4.4-4.9-6.4-7.2-4.4-5.1-9.4-9.5-15-13.2-3.5-2.2-7.2-3.9-11.1-5.3-.6-.2-1.2-.4-1.8-.6l-.9-.3c-.5-.1-.9-.3-1.4-.4-2-.4-4-.8-5.9-1.1l-3.2-1.1-2-.9c-.1-.1-.4,0-.4-.4,0-.3,0-.5.1-.7.2-.5.4-.9.6-1.3.5-.9,1.2-1.7,1.9-2.4,1.1-1.1,2.4-2.1,3.7-2.9,1.5-.9,3-1.8,4.6-2.5l1.3-.6h.3c0-.1.2-.2.2-.2l.5-.2c.6-.3,1.3-.5,1.9-.7,1.3-.4,2.7-.7,4-.9,1.2-.2,2.5-.3,3.7-.3,1,0,2,.1,2.9.3.7.2,1.3.5,1.8.9.4.3.8.7,1,1.1.2.5.3.9.4,1.4,0,.4.2.8.2,1.2,0,1-2.1,2.2-4.7,2.2-1.9,0-3.8.1-5.6.5-.9.2-1.8.4-2.7.7-.5.1-.9.3-1.4.5h-.2c0,0-.1.2-.1.2,0,.3.2.2.2.2,0,0,0,0,.2,0l1.1.3c.7.2,1.4.4,2.1.7,2.8.9,5.5,2.1,8.1,3.4l-.2.3Z"/>
    <path class="st9" d="M118.1,212.2c-.6-.4-1.1-.8-1.7-1.2l-.8-.6-.7-.5-1.8-1.5c-1.2-1-2.3-2-3.4-3-1.1-1-2.2-2.1-3.2-3.1l-.8-.8q-.2-.2-.2-.2h0c0,0-.4-.5-.4-.5-.4-.5-.7-.6-1.1-1.1-.2-.3-.5-.6-.8-.9-.1-.2-.3-.3-.4-.5,0,0-.2-.1-.2,0,0,0,0,0,0,.1,0,.5,0,1,.1,1.5,0,.5.2,1,.3,1.7l.2,1,.6,2.3,2.6,9.9c.6,2.1,1.1,4.3,1.4,6.5.1,1.1.2,2.2.2,3.4,0,1.2-.2,2.4-.5,3.5-.4,1.5-1.8.8-3.2-.4-.3-.3-.6-.6-.9-1-.3-.4-.6-.8-.9-1.2-.6-.8-.9-1.8-1.1-2.8-.7-4.1-1.5-8.1-2.6-12-.5-2.1-1.1-4.2-1.6-6.3-.6-2-1.1-3.9-1.6-5.8-.5-1.9-1-3.7-1.2-5.3l-.2-1.2v-.6c0-.2,0-.3,0-.5v-.9c0,0,.2-.9.2-.9,0-.2.1-.4.2-.6,0-.4.2-.8.4-1.2l.2-.5c0-.1,0-.2.2-.3,0,0,.2-.2.3-.2.4-.1.9-.1,1.3,0,.4,0,.9.2,1.3.3,1.3.4,2.5,1.1,3.5,2,1.7,1.4,3.5,3.2,5.2,4.9l4.4,4.2c2.1,2,4.2,3.9,6.5,5.7l2.3,1.8c.5.4,1.1.8,1.7,1.3.4.2.8.5,1.2.7.4.2.7.4,1,.5,0,0,0,0,0,0,0,0,0,0,0,0,0,0,0,0,0,0,0,0,0,0,0,0v-.2c0-.2,0-.3,0-.5l-.4-2.1c-.2-.7-.3-1.5-.4-2.2l-.3-1.8-.3-2.1c-.8-4.4-.8-9-.1-13.4.2-1,.4-2,.7-3,.4-1.4,1.1-2.6,2.1-3.6.4-.3.8-.5,1.2-.6.4,0,.9,0,1.3,0,.4,0,.9.2,1.3.3,1.4.6,1.5,2.3,1,4.4-.8,3.2-1.1,6.5-1,9.8,0,1.7.2,3.5.4,5.2.1.9.3,1.8.4,2.6v.8c.1,0,.5,1.5.5,1.5.2,1,.4,2,.7,2.9.6,2.1,1,4.2,1.2,6.3,0,.7-.1,1.3-.4,2-.2.4-.4.8-.7,1.2-.3.3-.6.6-1,.9-.2.1-.4.3-.6.4-.2.1-.4.2-.6.2-1.2.4-2.6.3-3.7-.2-2.5-1.1-4.9-2.5-7.1-4l.2-.3Z"/>
    <path class="st9" d="M144.8,218.8c-.7-1.6-1.2-3.2-1.8-4.8-.6-1.6-1.1-3.2-1.8-4.8-.4-1.2-1-2.2-1.4-3.4-1.4-4.1-2.6-8.3-4-12.4-.6-1.8-1.3-3.6-2-5.3-1-2.2-1.7-4.6-2-7.1,0-.8.7-1,1.8-.7,1.3.3,2.5,1.1,3.3,2.2l1,1.6c.3.5.5,1.1.7,1.6.5,1.1.9,2.3,1.3,3.5.9,2.3,1.7,4.6,2.4,7,.5,1.4,1,2.8,1.7,4.2.7,1.4,1.4,2.7,1.9,4.1l2,4.6,2.1,4.5c.9,1.8,1.8,3.7,2.7,5.5,1.3,2.8,2.9,5.4,4.6,8,.7.9,1.5,1.8,2.3,2.6.8.8,1.7,1.6,2.5,2.4.3.4.7.7,1.1,1,1.3,1.2,1.2,2.1.4,3.6-.2.3-.4.7-.6,1-.7,1.1-2,1.3-3.6.6-.5-.3-1.1-.6-1.6-.9-.5-.3-1-.7-1.5-1.1-.5-.4-.9-.8-1.4-1.2-.5-.4-.9-.8-1.3-1.3-1.6-1.8-3-3.7-4.2-5.8-.9-1.5-1.8-3-2.6-4.6-.8-1.5-1.6-3.1-2.3-4.7h.1Z"/>
    <path class="st9" d="M61.8,219.4c.6.4,1.1.8,1.5,1.4.5.5.8,1.1,1,1.7.2.6.4,1.3.5,1.9,0,.7,0,1.3,0,2,0,.5,0,1-.1,1.4,0,.5-.2,1-.4,1.4-.7,1.7-2,3.2-3.5,4.1-1.6,1-3.4,1.5-5.3,1.4h-1.3c-.4-.2-.8-.3-1.2-.4-.8-.3-1.5-.7-2.1-1.3-.4-.4-.8-.8-1.1-1.2-.3-.5-.5-1-.6-1.5,0-.5-.1-1,0-1.5,0-.5.2-.9.4-1.3.3-.5,1.3-.2,2.3.4.5.3,1,.5,1.5.7.4.2.8.3.8.4,0,.1.2,0,.2.2,0,0,0,0,0,0,0,0,0,0,0,0,0,0,0,0,0,0,0,0,0,0,0,0,0,.1.2.4.9.6.2,0,.3,0,.5,0,.2,0,.3-.1.5-.2.2-.2.4-.5.5-.8.3-.4.5-.8.5-1.2,0-.4,0-.9-.1-1.3-.1-.2-.3-.5-.6-.6-.2-.2-.5-.2-.8-.3-.5,0-1,0-1.5.2-.5.2-.9.5-1.2.9-.2.3-.3.7-.4,1.1,0,.4,0,.8.2,1.2,0,.1.1.3.1.4,0,.1,0,.3,0,.4-.1.1-.3.3-.4.4-.4.3-.9.5-1.4.7-.3.1-.6.2-.9.3-.4.2-.9.2-1.4,0-.5-.2-1-.5-1.3-1l-.3-.6c0-.2-.1-.5-.2-.8-.1-.6-.2-1.2-.1-1.8,0-.6.2-1.2.3-1.8.2-.6.4-1.2.7-1.7.6-1.1,1.4-2,2.3-2.8.9-.7,1.9-1.3,3-1.7.7-.3,1.5-.5,2.3-.6.4,0,.7,0,1.1,0,.4,0,.7,0,1.1,0,1.4.1,2.8.6,4,1.3h-.1Z"/>
    <path class="st9" d="M89.6,175.3c.4.6.7,1.2.9,1.8.2.6.3,1.3.2,2,0,1.3-.2,2.6-.7,3.8-.3.9-.9,1.7-1.5,2.4-2.5,2.5-7.3,1.4-9-.5-.5-.4-.9-.9-1.3-1.4-.4-.5-.7-1.2-.9-1.8-.3-.9-.3-1.8,0-2.7.3-.8.8-1.4,1.5-1.9.4-.3.9.4,1.4,1.1.5.8,1.1,1.6,1.2,1.8,0,0,0,0,0,.1,0,0,0,0,0,0,0,0,0,0,.1,0s0,0,.1,0c.1,0,.2,0,.3,0,.2,0,.4.2.6.3,0,0,.2.2.3.3s0,.2.2.3c0,.1.2.2.3.3.1,0,.3,0,.4,0,.2,0,.5-.2.6-.3.3-.2.5-.5.6-.8.1-.3.2-.6.1-1,0-.2-.1-.5-.3-.7-.2-.2-.3-.3-.6-.4-.4-.2-.9-.3-1.3-.3-.4,0-.9.2-1.2.5-.3.2-.4.6-.3.8h0c0,0-.1,0-.2,0h.2c.2,0,.3,0,.4-.1h.2c0,.1-.2.4-.3.5-.3.4-.7.9-1.1,1.4l-.5.7c-.3.3-.7.6-1.1.7-.3.1-.6.2-.9.2-.4,0-.6,0-.9-.2-.5-.2-.9-.6-1.2-1-.4-.6-.7-1.2-.8-1.8-.1-.7-.1-1.5,0-2.3s.5-1.4.9-2.1c.7-.9,1.6-1.7,2.7-2.2.4-.2.9-.4,1.3-.5.5-.1.9-.2,1.4-.2,3.2-.4,6.4.6,7.9,2.9h0Z"/>
    <path class="st9" d="M126.9,161.2c-.2,1.3-.7,2.6-1.5,3.7l-.4.4c0,0-.2.2-.3.3-.2.2-.3.3-.6.5-.5.4-1,.7-1.6.9-.2,0-.5.2-.8.3-.3,0-.6.2-1,.2-.8,0-1.6,0-2.3-.5-.7-.4-1.3-1-1.7-1.7-.3-.5-.5-1.1-.6-1.7-.2-.9-.3-1.8-.3-2.7,0-.7-.1-1.4-.2-2.2-.1-.5-.2-1,0-1.5,0-.5.3-1,.5-1.4.3-.4,1.1.1,2,.5.9.4,1.9.7,2,1,.5,1.1.8,2.3.8,3.6,0,.3.1.6.2.6l-.3.3c-.2.2-.3.3-.4.5,0,.1-.2.3-.2.4,0-.3-.1-.6-.3-.8,0-.2-.2-.3-.3-.5h0c0,0,.1-.2.1-.2-.4-.3.5.4.4.4h0s0,0,0,0c0,0-.2,0-.3-.1.2-.3.2-.6.2-.9,0-.3,0-.6-.2-.9-.1-.3-.3-.5-.6-.7,0,0-.2,0-.2,0,0,0,0,0,0,0,0,0,0-.1,0-.2,0-.3,0-.3,0,0h.1c0,.2.1.3.2.4.7.8-.4-.3-1.6-1.1l-.8-.6c-.5-.3-.8-.7-1.1-1.1-.2-.3-.3-.5-.4-.8,0-.3,0-.5,0-.8.2-.4.4-.8.7-1.1.1-.2.3-.4.5-.5.2-.2.5-.3.7-.5.5-.3,1.1-.5,1.7-.5.6,0,1.2,0,1.8,0,1.8.4,3.4,1.5,4.4,3.1,1.1,1.8,1.7,3.8,1.5,5.9h-.2Z"/>
  </g>
</svg>