<svg width="405" height="305" viewBox="0 0 405 305" fill="none" xmlns="http://www.w3.org/2000/svg">
<path d="M33.5 5.04122C38.5878 13.174 38.551 26.041 34.5 36.5412C30.6511 46.5177 31.5957 52.9712 33.5 64.5412C35.0001 73.6548 29.5001 78.406 21.5 78.5412C11.1336 78.7165 7.00006 75.0408 7.00006 67.041C6.50569 60.0491 7.50012 55.5411 4.50006 46.0411C2.51787 39.7642 1.00006 33.0411 1 27.0411C0.999926 19.4747 3.34791 6.57508 18.5 2.04122C25.5001 -0.0534192 31.0001 1.04501 33.5 5.04122Z" fill="white" stroke="#444E5E" stroke-width="1.5" stroke-linecap="round" stroke-linejoin="round"/>
<path d="M21 25.041V17.041C11.8046 22.2832 7.73223 26.9954 3 39.541C4.05407 45.0484 4.74206 47.781 6 52.541C10.3678 36.2442 13.4104 29.9033 21 25.041Z" fill="#2FC79F" stroke="#444E5E" stroke-width="1.5" stroke-linecap="round" stroke-linejoin="round"/>
<path d="M34 36.541C30.1864 25.8676 28.1435 20.7307 21 17.041V25.041C26.5064 32.0482 28.5919 38.9031 32 52.041C32.0952 44.7426 31.8529 40.4841 34 36.541Z" fill="#2FC79F" stroke="#444E5E" stroke-width="1.5" stroke-linecap="round" stroke-linejoin="round"/>
<path d="M21 12.541V18.041" stroke="#444E5E" stroke-width="1.5" stroke-linecap="round" stroke-linejoin="round"/>
<path d="M47.9369 5.04122C42.8486 13.174 42.8854 26.041 46.9368 36.5412C50.7861 46.5177 49.8414 52.9712 47.9369 64.5412C46.4367 73.6548 51.9372 78.406 59.938 78.5412C70.3054 78.7165 74.4393 75.0408 74.4393 67.041C74.9337 60.0491 73.9392 55.5411 76.9396 46.0411C78.9219 39.7642 80.4399 33.0411 80.4399 27.0411C80.44 19.4747 78.0918 6.57508 62.9383 2.04122C55.9376 -0.0534192 50.4371 1.04501 47.9369 5.04122Z" fill="white" stroke="#444E5E" stroke-width="1.5" stroke-linecap="round" stroke-linejoin="round"/>
<path d="M60.438 25.041V17.041C69.6343 22.2832 73.707 26.9954 78.4397 39.541C77.3855 45.0484 76.6975 47.781 75.4394 52.541C71.0712 36.2442 68.0284 29.9033 60.438 25.041Z" fill="#2FC79F" stroke="#444E5E" stroke-width="1.5" stroke-linecap="round" stroke-linejoin="round"/>
<path d="M47.4368 36.541C51.2507 25.8676 53.2939 20.7307 60.438 17.041V25.041C54.9311 32.0482 52.8454 38.9031 49.437 52.041C49.3417 44.7426 49.5841 40.4841 47.4368 36.541Z" fill="#2FC79F" stroke="#444E5E" stroke-width="1.5" stroke-linecap="round" stroke-linejoin="round"/>
<path d="M60.438 12.541V18.041" stroke="#444E5E" stroke-width="1.5" stroke-linecap="round" stroke-linejoin="round"/>
<rect x="96.3135" y="23.0693" width="249.636" height="32.8511" rx="8" fill="#444E5E"/>
<path d="M358.807 46.6551V44.6551C356.039 44.4631 354.855 42.9431 354.727 40.9271H357.095C357.207 41.8551 357.543 42.6071 358.807 42.7991V39.7111C356.263 39.3111 355.047 38.3831 355.047 36.2711C355.047 34.4311 356.519 33.0711 358.807 32.9111V31.4871H359.943V32.9271C362.119 33.1191 363.431 34.2071 363.623 36.2711H361.335C361.191 35.4391 360.791 34.9271 359.943 34.7671V37.6311C362.343 37.9991 363.815 38.7991 363.815 41.0231C363.815 42.9431 362.471 44.4791 359.943 44.6551V46.6551H358.807ZM361.447 41.2951C361.447 40.5271 361.127 40.1431 359.943 39.8871V42.7991C360.871 42.6391 361.447 42.0791 361.447 41.2951ZM357.351 36.0631C357.351 36.7991 357.623 37.1991 358.807 37.4391V34.7351C357.863 34.8631 357.351 35.3911 357.351 36.0631ZM370.482 44.4951V42.2231H364.866V41.2791L369.81 33.0551H372.994V40.3671H374.498V42.2231H372.994V44.4951H370.482ZM367.458 40.3671H370.53V35.0071L367.458 40.3671ZM380.632 42.6391C382.248 42.6391 382.984 41.4071 382.984 39.0071V38.4951C382.984 36.1911 382.184 34.8951 380.6 34.8951C379 34.8951 378.184 36.1271 378.184 38.4951V39.0391C378.184 41.4391 379.032 42.6391 380.632 42.6391ZM380.568 44.6711C377.528 44.6711 375.592 42.5591 375.592 39.0551V38.5111C375.592 34.9911 377.64 32.8951 380.584 32.8951C383.528 32.8951 385.56 34.9111 385.56 38.4631V38.9911C385.56 42.4951 383.656 44.6711 380.568 44.6711ZM392.038 42.6391C393.654 42.6391 394.39 41.4071 394.39 39.0071V38.4951C394.39 36.1911 393.59 34.8951 392.006 34.8951C390.406 34.8951 389.59 36.1271 389.59 38.4951V39.0391C389.59 41.4391 390.438 42.6391 392.038 42.6391ZM391.974 44.6711C388.934 44.6711 386.998 42.5591 386.998 39.0551V38.5111C386.998 34.9911 389.046 32.8951 391.99 32.8951C394.934 32.8951 396.966 34.9111 396.966 38.4631V38.9911C396.966 42.4951 395.062 44.6711 391.974 44.6711Z" fill="#444E5E"/>
<path d="M2.81951 182.54L26.8195 135.54L55.3195 163.04L6.81951 187.04C3.81943 188.54 1.48704 185.78 2.81951 182.54Z" fill="#E8E9EA" stroke="#444E5E" stroke-width="1.5" stroke-linecap="round" stroke-linejoin="round"/>
<path d="M39.8195 118.04C24.8195 116.54 22.8195 131.54 27.3195 136.54L54.8195 163.04C60.3195 167.04 73.8195 162.54 71.8195 150.04C93.8195 130.54 62.8195 95.0398 39.8195 118.04Z" fill="#2DD1AC"/>
<path d="M44.3195 132.04C46.8195 132.04 48.3195 133.04 48.3195 136.04V148.04C48.3195 153.04 56.8195 153.54 56.8195 148.04V133.54C56.8195 129.54 62.3195 129.54 62.3195 133.54V145.54C62.3195 149.04 68.3195 149.04 68.3195 145.54V136.04C68.3195 134.04 69.8195 132.54 71.8195 132.54H74.3195M27.3195 136.54C22.8195 131.54 24.8195 116.54 39.8195 118.04C62.8195 95.0398 93.8195 130.54 71.8195 150.04C73.8195 162.54 60.3195 167.04 54.8195 163.04L27.3195 136.54Z" stroke="#444E5E" stroke-width="1.5" stroke-linecap="round" stroke-linejoin="round"/>
<path d="M25.8193 152.54V138.04L18.3193 152.54H25.8193Z" fill="#808C9E" stroke="#444E5E" stroke-width="1.5" stroke-linecap="round" stroke-linejoin="round"/>
<path d="M25.8193 163.04H12.8193L18.3193 152.54H25.8193V163.04Z" fill="#808C9E" stroke="#444E5E" stroke-width="1.5" stroke-linecap="round" stroke-linejoin="round"/>
<path d="M37.8193 152.54H25.8193V138.54L27.3193 136.04L37.8193 146.54V152.54Z" fill="#808C9E" stroke="#444E5E" stroke-width="1.5" stroke-linecap="round" stroke-linejoin="round"/>
<path d="M37.8193 163.04H25.8193V152.04H37.8193V163.04Z" fill="#A9B1BE" stroke="#444E5E" stroke-width="1.5" stroke-linecap="round" stroke-linejoin="round"/>
<path d="M14.3193 173.54H7.81934L12.8193 163.04H14.3193V173.54Z" fill="#808C9E" stroke="#444E5E" stroke-width="1.5" stroke-linecap="round" stroke-linejoin="round"/>
<path d="M25.8193 173.54V163.04H14.3193V173.54H25.8193Z" fill="#A9B1BE" stroke="#444E5E" stroke-width="1.5" stroke-linecap="round" stroke-linejoin="round"/>
<path d="M14.3194 183.04V173.54H7.31941L2.31941 183.04C1.31941 185.04 3.81941 188.54 6.81941 187.04L14.3194 183.04Z" fill="#A9B1BE" stroke="#444E5E" stroke-width="1.5" stroke-linecap="round" stroke-linejoin="round"/>
<path d="M25.8193 173.54V177.54L34.3193 173.54H25.8193Z" fill="#D9DCE2" stroke="#444E5E" stroke-width="1.5" stroke-linecap="round" stroke-linejoin="round"/>
<path d="M37.8193 171.54V163.04H54.8193L37.8193 171.54Z" fill="#D9DCE2" stroke="#444E5E" stroke-width="1.5" stroke-linecap="round" stroke-linejoin="round"/>
<path d="M44.3193 152.54H37.8193V163.04H54.8193L44.3193 152.54Z" fill="#E8E9EA" stroke="#444E5E" stroke-width="1.5" stroke-linecap="round" stroke-linejoin="round"/>
<path d="M37.8193 152.54V146.54L44.3193 152.54H37.8193Z" fill="#E8E9EA" stroke="#444E5E" stroke-width="1.5" stroke-linecap="round" stroke-linejoin="round"/>
<rect x="96.3132" y="132.578" width="172.325" height="32.8511" rx="8" fill="#444E5E"/>
<path d="M281.629 156.163V154.163C278.861 153.971 277.677 152.451 277.549 150.435H279.917C280.029 151.363 280.365 152.115 281.629 152.307V149.219C279.085 148.819 277.869 147.891 277.869 145.779C277.869 143.939 279.341 142.579 281.629 142.419V140.995H282.765V142.435C284.941 142.627 286.253 143.715 286.445 145.779H284.157C284.013 144.947 283.613 144.435 282.765 144.275V147.139C285.165 147.507 286.637 148.307 286.637 150.531C286.637 152.451 285.293 153.987 282.765 154.163V156.163H281.629ZM284.269 150.803C284.269 150.035 283.949 149.651 282.765 149.395V152.307C283.693 152.147 284.269 151.587 284.269 150.803ZM280.173 145.571C280.173 146.307 280.445 146.707 281.629 146.947V144.243C280.685 144.371 280.173 144.899 280.173 145.571ZM292.279 154.179C289.367 154.179 287.879 152.691 287.783 150.371H290.119C290.215 151.475 290.807 152.275 292.183 152.275C293.479 152.275 294.087 151.651 294.087 150.627C294.087 149.539 293.479 148.979 292.247 148.979H291.351V147.251H292.183C293.383 147.251 293.927 146.707 293.927 145.731C293.927 144.915 293.399 144.307 292.343 144.307C291.255 144.307 290.583 144.963 290.455 146.035H288.167C288.295 143.939 289.783 142.403 292.391 142.403C294.903 142.403 296.375 143.715 296.375 145.507C296.375 146.787 295.623 147.587 294.487 147.987C295.815 148.275 296.711 149.219 296.711 150.675C296.711 152.819 295.063 154.179 292.279 154.179ZM303.187 152.147C304.803 152.147 305.539 150.915 305.539 148.515V148.003C305.539 145.699 304.739 144.403 303.155 144.403C301.555 144.403 300.739 145.635 300.739 148.003V148.547C300.739 150.947 301.587 152.147 303.187 152.147ZM303.123 154.179C300.083 154.179 298.147 152.067 298.147 148.563V148.019C298.147 144.499 300.195 142.403 303.139 142.403C306.083 142.403 308.115 144.419 308.115 147.971V148.499C308.115 152.003 306.211 154.179 303.123 154.179ZM314.593 152.147C316.209 152.147 316.945 150.915 316.945 148.515V148.003C316.945 145.699 316.145 144.403 314.561 144.403C312.961 144.403 312.145 145.635 312.145 148.003V148.547C312.145 150.947 312.993 152.147 314.593 152.147ZM314.529 154.179C311.489 154.179 309.553 152.067 309.553 148.563V148.019C309.553 144.499 311.601 142.403 314.545 142.403C317.489 142.403 319.521 144.419 319.521 147.971V148.499C319.521 152.003 317.617 154.179 314.529 154.179Z" fill="#444E5E"/>
<path d="M45.7027 250.96C41.7549 249.144 39.4636 249.042 35.2027 250.96L33.9243 244.959C38.3349 246.559 42.1378 246.723 46.7027 244.959L45.7027 250.96Z" fill="#808C9E" stroke="#444E5E" stroke-width="1.5" stroke-linecap="round" stroke-linejoin="round"/>
<path d="M68.2026 266.459H13.7026L9.70264 272.959C26.4309 278.616 31.5125 283.898 35.2026 295.959C36.7323 300.959 44.2026 301.764 46.2026 295.959C50.7848 282.66 56.3223 277.601 71.7026 272.959L68.2026 266.459Z" fill="#2FC79F" stroke="#444E5E" stroke-width="1.5" stroke-linecap="round" stroke-linejoin="round"/>
<path d="M15.7026 227.959V219.459" stroke="#444E5E" stroke-width="1.5" stroke-linecap="round" stroke-linejoin="round"/>
<path d="M65.7026 226.959V219.459" stroke="#444E5E" stroke-width="1.5" stroke-linecap="round" stroke-linejoin="round"/>
<path d="M35.2026 250.959C32.9379 237.217 28.9784 231.808 15.7026 227.459C12.9536 229.379 12.3453 230.479 10.7026 232.459C22.2026 236.459 28.7026 242.959 28.2026 254.959C31.094 254.008 32.6672 253.289 35.2026 250.959Z" fill="#5BD7BB" stroke="#444E5E" stroke-width="1.5" stroke-linecap="round" stroke-linejoin="round"/>
<path d="M45.7026 250.887C48.058 236.894 52.1758 231.387 65.9826 226.959C68.8416 228.914 68.9943 229.943 70.7026 231.959C58.2026 235.959 52.4626 242.741 52.9826 254.959C49.9757 253.99 48.3395 253.258 45.7026 250.887Z" fill="#5BD7BB" stroke="#444E5E" stroke-width="1.5" stroke-linecap="round" stroke-linejoin="round"/>
<path d="M10.7027 232.459C2.20265 244.459 12.2026 260.459 28.2027 254.959C27.7026 242.459 23.1442 236.465 10.7027 232.459Z" fill="white" stroke="#444E5E" stroke-width="1.5" stroke-linecap="round" stroke-linejoin="round"/>
<path d="M70.7027 231.959C79.3672 244.155 69.0122 260.415 52.7028 254.826C53.2125 242.122 58.0207 236.03 70.7027 231.959Z" fill="white" stroke="#444E5E" stroke-width="1.5" stroke-linecap="round" stroke-linejoin="round"/>
<rect x="96.3132" y="243.312" width="122.184" height="32.8511" rx="8" fill="#444E5E"/>
<path d="M231.144 266.898V264.898C228.376 264.706 227.192 263.186 227.064 261.17H229.432C229.544 262.098 229.88 262.85 231.144 263.042V259.954C228.6 259.554 227.384 258.626 227.384 256.514C227.384 254.674 228.856 253.314 231.144 253.154V251.73H232.28V253.17C234.456 253.362 235.768 254.45 235.96 256.514H233.672C233.528 255.682 233.128 255.17 232.28 255.01V257.874C234.68 258.242 236.152 259.042 236.152 261.266C236.152 263.186 234.808 264.722 232.28 264.898V266.898H231.144ZM233.784 261.538C233.784 260.77 233.464 260.386 232.28 260.13V263.042C233.208 262.882 233.784 262.322 233.784 261.538ZM229.688 256.306C229.688 257.042 229.96 257.442 231.144 257.682V254.978C230.2 255.106 229.688 255.634 229.688 256.306ZM236.978 264.738V264.322L241.17 259.89C242.274 258.722 242.978 257.714 242.978 256.674C242.978 255.73 242.45 255.122 241.458 255.122C240.45 255.122 239.81 255.714 239.634 257.218H237.282C237.41 254.578 239.01 253.138 241.57 253.138C244.098 253.138 245.538 254.546 245.538 256.61C245.538 258.13 244.658 259.378 243.33 260.658L241.17 262.77H245.618V264.738H236.978ZM251.023 264.914C248.207 264.914 246.895 263.378 246.783 261.33H249.167C249.311 262.29 249.695 262.93 251.007 262.93C252.175 262.93 252.799 262.114 252.799 260.898C252.799 259.666 252.095 258.898 250.943 258.898C249.871 258.898 249.215 259.282 248.751 259.81H247.311L247.471 253.298H254.719V255.266H249.407L249.359 258.13C249.807 257.586 250.607 257.074 251.903 257.074C253.983 257.074 255.407 258.498 255.407 260.93C255.407 263.362 253.663 264.914 251.023 264.914ZM261.796 262.882C263.412 262.882 264.148 261.65 264.148 259.25V258.738C264.148 256.434 263.348 255.138 261.764 255.138C260.164 255.138 259.348 256.37 259.348 258.738V259.282C259.348 261.682 260.196 262.882 261.796 262.882ZM261.732 264.914C258.692 264.914 256.756 262.802 256.756 259.298V258.754C256.756 255.234 258.804 253.138 261.748 253.138C264.692 253.138 266.724 255.154 266.724 258.706V259.234C266.724 262.738 264.82 264.914 261.732 264.914Z" fill="#444E5E"/>
</svg>
