<?xml version="1.0" encoding="UTF-8"?><svg id="Layer_1" xmlns="http://www.w3.org/2000/svg" xmlns:xlink="http://www.w3.org/1999/xlink" viewBox="0 0 242 107.81"><defs><style>.cls-1{fill:url(#linear-gradient-5);}.cls-1,.cls-2,.cls-3,.cls-4,.cls-5,.cls-6,.cls-7,.cls-8{fill-rule:evenodd;}.cls-2{fill:url(#linear-gradient-2);}.cls-3{fill:url(#linear-gradient-3);}.cls-4{fill:url(#linear-gradient-4);}.cls-9{fill:url(#linear-gradient-6);}.cls-10{filter:url(#drop-shadow-1);stroke:#f7f7f8;stroke-miterlimit:10;stroke-width:.25px;}.cls-10,.cls-5,.cls-11{fill:#fff;}.cls-5{opacity:.25;}.cls-5,.cls-7,.cls-8{isolation:isolate;}.cls-12{fill:#363f4d;}.cls-6{fill:url(#linear-gradient);}.cls-7{opacity:.12;}.cls-8{opacity:.2;}</style><filter id="drop-shadow-1" x="0" y="0" width="242" height="107.81" filterUnits="userSpaceOnUse"><feOffset dx="3" dy="4"/><feGaussianBlur result="blur" stdDeviation="1"/><feFlood flood-color="#363f4d" flood-opacity=".3"/><feComposite in2="blur" operator="in"/><feComposite in="SourceGraphic"/></filter><linearGradient id="linear-gradient" x1="98.96" y1="104.13" x2="203.27" y2="104.13" gradientTransform="translate(0 -36)" gradientUnits="userSpaceOnUse"><stop offset=".94" stop-color="#ffc107"/><stop offset=".94" stop-color="#e9e7e4"/></linearGradient><linearGradient id="linear-gradient-2" x1="71.18" y1="66.54" x2="53.91" y2="71.15" gradientTransform="translate(0 -36)" gradientUnits="userSpaceOnUse"><stop offset="0" stop-color="#00a0ff"/><stop offset="0" stop-color="#00a1ff"/><stop offset=".26" stop-color="#00beff"/><stop offset=".51" stop-color="#00d2ff"/><stop offset=".76" stop-color="#00dfff"/><stop offset="1" stop-color="#00e3ff"/></linearGradient><linearGradient id="linear-gradient-3" x1="79.86" y1="69.64" x2="58.8" y2="69.64" gradientTransform="translate(0 -36)" gradientUnits="userSpaceOnUse"><stop offset="0" stop-color="#ffe000"/><stop offset=".41" stop-color="#ffbd00"/><stop offset=".78" stop-color="orange"/><stop offset="1" stop-color="#ff9c00"/></linearGradient><linearGradient id="linear-gradient-4" x1="70.44" y1="70.7" x2="56.58" y2="94.04" gradientTransform="translate(0 -36)" gradientUnits="userSpaceOnUse"><stop offset="0" stop-color="#ff3a44"/><stop offset="1" stop-color="#c31162"/></linearGradient><linearGradient id="linear-gradient-5" x1="59.77" y1="50.61" x2="65.95" y2="61.03" gradientTransform="translate(0 -36)" gradientUnits="userSpaceOnUse"><stop offset="0" stop-color="#32a071"/><stop offset=".07" stop-color="#2da771"/><stop offset=".48" stop-color="#15cf74"/><stop offset=".8" stop-color="#06e775"/><stop offset="1" stop-color="#00f076"/></linearGradient><linearGradient id="linear-gradient-6" x1="39.22" y1="58.37" x2="39.22" y2="80.92" gradientTransform="translate(0 -36)" gradientUnits="userSpaceOnUse"><stop offset="0" stop-color="#0ed4fc"/><stop offset="1" stop-color="#0c57ef"/></linearGradient></defs><rect class="cls-10" x=".81" y=".12" width="235" height="100" rx="9.38" ry="9.38"/><path class="cls-6" d="M107.53,59.83c.16-.51.88-.51,1.05,0l1.77,5.45c.07.23.28.38.52.38h5.73c.53,0,.75.68.32,1l-4.63,3.37c-.19.14-.27.39-.2.61l1.77,5.45c.16.51-.42.93-.85.61l-4.63-3.37c-.19-.14-.45-.14-.65,0l-4.63,3.37c-.43.31-1.01-.11-.85-.61l1.77-5.45c.07-.23,0-.48-.2-.61l-4.63-3.37c-.43-.31-.21-1,.32-1h5.73c.24,0,.45-.15.52-.38l1.77-5.45h0ZM129.06,59.83c.16-.51.88-.51,1.05,0l1.77,5.45c.07.23.28.38.52.38h5.73c.53,0,.75.68.32,1l-4.63,3.37c-.19.14-.27.39-.2.61l1.77,5.45c.16.51-.42.93-.85.61l-4.63-3.37c-.19-.14-.45-.14-.65,0l-4.63,3.37c-.43.31-1.01-.11-.85-.61l1.77-5.45c.07-.23,0-.48-.2-.61l-4.63-3.37c-.43-.31-.21-1,.32-1h5.73c.24,0,.45-.15.52-.38l1.77-5.45h0ZM153.93,65.66c-.24,0-.45-.15-.52-.38l-1.77-5.45c-.16-.51-.88-.51-1.05,0l-1.77,5.45c-.07.23-.28.38-.52.38h-5.73c-.53,0-.75.68-.32,1l4.63,3.37c.19.14.27.39.2.61l-1.77,5.45c-.16.51.41.93.85.61l4.63-3.37c.19-.14.45-.14.65,0l4.63,3.37c.43.31,1.01-.11.85-.61l-1.77-5.45c-.07-.23,0-.48.2-.61l4.63-3.37c.43-.31.21-1-.32-1h-5.73ZM172.12,59.83c.17-.51.88-.51,1.05,0l1.77,5.45c.07.23.28.38.52.38h5.73c.53,0,.75.68.32,1l-4.63,3.37c-.19.14-.27.39-.2.61l1.77,5.45c.16.51-.42.93-.85.61l-4.64-3.37c-.19-.14-.45-.14-.65,0l-4.63,3.37c-.43.31-1.01-.11-.85-.61l1.77-5.45c.07-.23,0-.48-.2-.61l-4.63-3.37c-.43-.31-.21-1,.32-1h5.73c.24,0,.45-.15.52-.38l1.77-5.45h0ZM196.99,65.66c-.24,0-.45-.15-.52-.38l-1.77-5.45c-.16-.51-.88-.51-1.05,0l-1.77,5.45c-.07.23-.28.38-.52.38h-5.73c-.53,0-.75.68-.32,1l4.63,3.37c.19.14.27.39.2.61l-1.77,5.45c-.16.51.41.93.85.61l4.63-3.37c.19-.14.45-.14.65,0l4.63,3.37c.43.31,1.01-.11.85-.61l-1.77-5.45c-.07-.23,0-.48.2-.61l4.63-3.37c.43-.31.21-1-.32-1h-5.73Z"/><path class="cls-12" d="M49.17,74h-7.45v-1.25l6.56-10.91h4.23v9.7h2v2.46h-2v3.02h-3.33v-3.02ZM49.23,71.54v-7.11l-4.08,7.11h4.08Z"/><path class="cls-12" d="M56.09,75.34c0-1.02.83-1.85,1.89-1.85s1.91.83,1.91,1.85-.83,1.87-1.91,1.87-1.89-.83-1.89-1.87Z"/><path class="cls-12" d="M61,70.01v-.38c0-5.14,2.78-8,6.5-8,3.01,0,4.92,1.42,5.26,4.2h-3.18c-.21-1-.72-1.61-2.04-1.61-1.89,0-3.06,1.66-3.14,4.78.7-1.13,1.85-1.89,3.67-1.89,2.87,0,5.01,1.87,5.01,4.92s-2.23,5.22-5.84,5.22c-4.59,0-6.24-3.1-6.24-7.24h0ZM69.7,72.07c0-1.59-.96-2.7-2.5-2.7s-2.59,1.08-2.59,2.59c0,1.74,1.06,2.8,2.59,2.8s2.5-1.1,2.5-2.7h0Z"/><path class="cls-2" d="M59.5,22.79c-.25.27-.4.69-.4,1.23v19.24c0,.54.15.96.41,1.22l.07.06,10.78-10.78v-.24l-10.79-10.78-.07.06h0Z"/><path class="cls-3" d="M73.94,37.37l-3.6-3.6v-.25l3.6-3.6.08.05,4.25,2.42c1.22.69,1.22,1.82,0,2.51l-4.25,2.42-.08.05h0Z"/><path class="cls-4" d="M74.02,37.32l-3.67-3.68-10.85,10.85c.4.43,1.06.47,1.81.06l12.72-7.23h0Z"/><path class="cls-1" d="M74.02,29.97l-12.72-7.22c-.74-.43-1.41-.37-1.81.06l10.85,10.84,3.68-3.67h0Z"/><path class="cls-8" d="M73.94,37.24l-12.63,7.18c-.71.41-1.34.38-1.74,0l-.07.07.07.06c.41.37,1.04.4,1.74,0l12.71-7.22-.09-.08h0Z"/><path class="cls-7" d="M78.28,34.77l-4.34,2.47.08.08,4.25-2.42c.61-.35.91-.8.91-1.26-.04.42-.35.81-.9,1.13h0Z"/><path class="cls-5" d="M61.31,22.87l16.97,9.64c.55.31.86.72.91,1.13,0-.45-.3-.91-.91-1.26l-16.97-9.64c-1.22-.7-2.21-.12-2.21,1.28v.13c0-1.39.99-1.96,2.21-1.28h0Z"/><path class="cls-9" d="M45.94,22.37h-13.44c-2.52,0-4.55,2.04-4.55,4.55v13.44c0,2.51,2.04,4.55,4.55,4.55h13.44c2.51,0,4.56-2.04,4.56-4.55v-13.44c0-2.52-2.04-4.55-4.56-4.55h0Z"/><path class="cls-11" d="M39.12,27.55l.46-.79c.28-.49.91-.66,1.4-.38.49.28.66.91.38,1.4l-4.4,7.62h3.18c1.03,0,1.61,1.21,1.16,2.05h-9.33c-.57,0-1.03-.46-1.03-1.03s.46-1.03,1.03-1.03h2.62l3.35-5.8-1.05-1.82c-.28-.49-.12-1.12.38-1.4.49-.28,1.12-.12,1.4.38l.45.79h0ZM35.16,38.51l-.99,1.71c-.28.49-.91.66-1.4.38-.49-.28-.66-.91-.38-1.4l.73-1.27c.83-.26,1.5-.06,2.03.58h0ZM43.66,35.41h2.67c.57,0,1.03.46,1.03,1.03s-.46,1.03-1.03,1.03h-1.48l1,1.74c.28.49.12,1.12-.38,1.4-.49.28-1.12.12-1.4-.38-1.69-2.92-2.95-5.11-3.79-6.57-.86-1.48-.25-2.97.36-3.47.67,1.16,1.68,2.9,3.02,5.23h0Z"/><path class="cls-12" d="M85.19,26.42h3.63l3.61,11.65,3.61-11.65h3.23l-5.05,15.18h-3.95l-5.07-15.18h0Z"/><path class="cls-12" d="M99.24,38.52c0-2.59,2.38-3.57,5.77-3.57h1.25v-.45c0-1.32-.4-2.04-1.8-2.04-1.21,0-1.76.62-1.89,1.57h-2.91c.19-2.63,2.27-3.8,4.99-3.8s4.65,1.1,4.65,4.12v7.24h-2.99v-1.34c-.64.89-1.61,1.57-3.35,1.57-2.02,0-3.71-.98-3.71-3.31h0ZM106.27,37.71v-.93h-1.19c-1.78,0-2.82.38-2.82,1.57,0,.81.49,1.34,1.61,1.34,1.36,0,2.4-.74,2.4-1.97Z"/><path class="cls-12" d="M112.02,25.46h3.06v16.13h-3.06v-16.13h0Z"/><path class="cls-12" d="M117.2,36.16v-.17c0-3.48,2.53-5.75,5.86-5.75s5.84,2.23,5.84,5.69v.17c0,3.5-2.53,5.73-5.86,5.73s-5.84-2.21-5.84-5.67ZM125.78,36.12v-.15c0-2.12-1-3.4-2.72-3.4s-2.72,1.23-2.72,3.35v.17c0,2.12.98,3.4,2.72,3.4s2.72-1.27,2.72-3.38h0Z"/><path class="cls-12" d="M130.96,30.49h3.08v2.12c.7-1.49,1.78-2.27,3.59-2.29v2.87c-2.27-.02-3.59.72-3.59,2.84v5.56h-3.08v-11.1h0Z"/><path class="cls-12" d="M138.71,38.52c0-2.59,2.38-3.57,5.77-3.57h1.25v-.45c0-1.32-.4-2.04-1.8-2.04-1.21,0-1.76.62-1.89,1.57h-2.91c.19-2.63,2.27-3.8,4.99-3.8s4.65,1.1,4.65,4.12v7.24h-2.99v-1.34c-.64.89-1.61,1.57-3.35,1.57-2.02,0-3.71-.98-3.71-3.31h0ZM145.73,37.71v-.93h-1.19c-1.78,0-2.82.38-2.82,1.57,0,.81.49,1.34,1.61,1.34,1.36,0,2.4-.74,2.4-1.97Z"/><path class="cls-12" d="M150.72,36.18v-.17c0-3.59,2.57-5.77,5.73-5.77,2.57,0,4.95,1.13,5.22,4.31h-2.91c-.21-1.29-1-1.89-2.25-1.89-1.59,0-2.65,1.19-2.65,3.31v.17c0,2.23,1,3.38,2.72,3.38,1.23,0,2.23-.72,2.38-2.14h2.78c-.17,2.63-2.08,4.46-5.31,4.46s-5.71-2.02-5.71-5.65h0Z"/><path class="cls-12" d="M163.52,27.31c0-.95.76-1.68,1.74-1.68s1.76.72,1.76,1.68-.76,1.68-1.76,1.68-1.74-.72-1.74-1.68ZM163.76,30.49h3.06v11.1h-3.06v-11.1Z"/><path class="cls-12" d="M168.96,36.16v-.17c0-3.48,2.53-5.75,5.86-5.75s5.84,2.23,5.84,5.69v.17c0,3.5-2.53,5.73-5.86,5.73s-5.84-2.21-5.84-5.67ZM177.53,36.12v-.15c0-2.12-1-3.4-2.72-3.4s-2.72,1.23-2.72,3.35v.17c0,2.12.98,3.4,2.72,3.4s2.72-1.27,2.72-3.38h0Z"/><path class="cls-12" d="M182.71,30.49h3.08v1.76c.55-1.1,1.76-2.02,3.61-2.02,2.19,0,3.74,1.32,3.74,4.29v7.07h-3.08v-6.62c0-1.51-.59-2.23-1.95-2.23s-2.31.81-2.31,2.44v6.41h-3.08v-11.1h0Z"/><path class="cls-12" d="M195.09,36.18v-.17c0-3.5,2.48-5.77,5.71-5.77,2.87,0,5.41,1.68,5.41,5.65v.85h-8c.08,1.85,1.08,2.91,2.76,2.91,1.42,0,2.12-.62,2.31-1.55h2.91c-.36,2.4-2.27,3.74-5.31,3.74-3.35,0-5.8-2.1-5.8-5.65h0ZM203.22,34.84c-.11-1.68-.95-2.48-2.42-2.48-1.38,0-2.31.91-2.55,2.48h4.97Z"/><path class="cls-12" d="M207.53,38.11h2.87c.13,1,.62,1.57,1.95,1.57,1.19,0,1.74-.45,1.74-1.21s-.66-1.08-2.25-1.32c-2.95-.45-4.1-1.29-4.1-3.46,0-2.31,2.12-3.46,4.39-3.46,2.46,0,4.31.89,4.59,3.44h-2.82c-.17-.91-.68-1.34-1.74-1.34-1,0-1.57.47-1.57,1.15s.53.98,2.14,1.21c2.78.4,4.31,1.1,4.31,3.48s-1.74,3.65-4.67,3.65-4.73-1.32-4.84-3.71h0Z"/></svg>