<svg width="132" height="132" viewBox="0 0 132 132" fill="none" xmlns="http://www.w3.org/2000/svg">
<g clip-path="url(#clip0_71_301)">
<path d="M33.8058 88.5115L33.725 88.372C33.725 88.372 33.7552 88.3201 33.6299 88.3167L33.6132 88.226C33.6204 88.1268 33.6386 88.0288 33.6675 87.9337L33.8222 87.3296C33.8709 87.1265 33.9446 86.8802 34.0134 86.6426C34.0822 86.4049 34.1592 86.3919 34.2396 86.2536L34.5551 85.8702C35.0266 85.3577 35.5154 84.8554 35.9495 84.3674L36.4511 83.8031L36.7802 83.4161C37.6725 82.3762 38.4907 81.2748 39.2288 80.1203C39.7747 79.2809 40.1823 78.3612 40.6677 77.4866C42.3887 74.3143 43.6968 70.9348 44.5602 67.4304C44.9591 65.8524 45.2358 64.2459 45.3878 62.6252C45.4997 60.5541 45.7228 58.4905 46.0558 56.4433C46.1859 55.8017 46.7633 55.883 47.3681 56.4544C48.1597 57.2149 48.6424 58.2413 48.7231 59.3361C48.7513 59.8846 48.7744 60.4417 48.7615 61.001L48.7713 61.8396C48.7493 62.116 48.7187 62.3874 48.6831 62.6675C48.5781 63.7632 48.4212 64.8287 48.1968 65.9707C47.7698 68.1731 47.1385 70.331 46.3112 72.4163C45.3662 74.9906 44.2855 77.5131 43.0739 79.9731C42.3482 81.3039 41.5398 82.5879 40.6534 83.8174C40.2159 84.4306 39.7388 85.0323 39.2631 85.6117L38.9038 86.0506L38.7312 86.2279L38.3726 86.5861L37.9039 87.054C37.8688 87.0948 37.8416 87.1416 37.8235 87.1923C37.8235 87.1923 37.9013 87.2375 37.9358 87.2576C37.9704 87.2777 38.1087 87.3582 38.1952 87.4084L39.552 87.9198C42.1626 88.9034 44.6663 90.1499 47.0246 91.6402C48.8822 92.7405 50.6613 93.9683 52.3491 95.3147C52.7152 95.6201 53.0964 95.8996 53.4423 96.2396C54.7203 97.5032 54.8594 98.1394 54.3654 99.0089C54.2629 99.215 54.147 99.4143 54.0185 99.6054C53.5479 100.176 52.6514 99.9672 51.7139 99.2717C48.9631 96.9612 46.0057 94.9085 42.8791 93.1396C41.6849 92.4906 40.4562 91.9074 39.1984 91.3927L38.2535 91.0283C37.6622 90.8117 36.9644 90.5795 36.3084 90.3947C35.975 90.3163 35.6475 90.2147 35.3283 90.0908L34.8745 89.8964C34.7448 89.821 34.6411 89.7607 34.5201 89.6903C34.4179 89.6226 34.3369 89.5274 34.2865 89.4157L34.1112 89.1402L33.7757 88.5634L33.8058 88.5115Z" fill="#363F4D"/>
<path d="M49.3173 62.134C48.2862 67.6313 46.3784 72.9273 43.6669 77.8194C42.7134 79.5785 41.8205 81.3728 40.8049 82.9801C39.8985 84.4196 38.9575 85.8389 38.1797 87.1565L37.8832 87.6666C37.8028 87.7855 37.7306 87.9097 37.667 88.0383C37.59 88.1653 37.556 88.3137 37.5701 88.4615C37.5842 88.6093 37.6456 88.7486 37.7452 88.8588C37.9945 89.0386 38.2609 89.1935 38.5405 89.3213L40.8324 90.3532C42.3989 91.0211 43.9727 91.7165 45.5299 92.46C48.3567 93.7378 51.0995 95.1936 53.7419 96.8187C55.5084 97.9101 57.1191 99.2358 58.5298 100.759C59.2261 101.587 59.8202 102.496 60.2993 103.466C60.7619 104.471 61.0222 105.558 61.0653 106.664C61.1032 108.051 60.3615 107.874 59.2176 107.256C58.4863 106.866 57.7292 106.526 56.9517 106.239C56.5631 106.053 56.1901 105.836 55.8365 105.59C55.4697 105.365 55.1246 105.106 54.8054 104.817C54.5358 104.545 54.2238 104.306 53.9268 104.04C53.6299 103.775 53.338 103.501 53.0461 103.227C52.4087 102.684 51.7439 102.174 51.0544 101.699C49.6013 100.697 48.0893 99.783 46.5265 98.9622C44.918 98.1078 43.257 97.304 41.5413 96.5145L35.9332 93.9245C35.021 93.5685 34.1695 93.0734 33.4089 92.4567C33.246 92.3047 33.0931 92.1424 32.9512 91.9707L32.8481 91.8298L32.7789 91.7896L32.5863 91.5041C32.4542 91.3082 32.3529 91.0933 32.286 90.8667C32.2058 90.6466 32.1525 90.4175 32.1274 90.1846C31.9769 89.2437 32.0748 88.2798 32.4114 87.3884C32.5545 86.9131 32.7381 86.4509 32.9602 86.007C33.0508 85.7762 33.1548 85.5509 33.2717 85.3321L33.5431 84.8653C34.7759 82.5861 36.0213 80.6035 37.2026 78.5719C39.8513 74.257 41.8611 69.5811 43.1693 64.6899C43.9263 61.688 44.3312 58.6083 44.3759 55.5127C44.3782 55.0513 44.3941 54.5863 44.3654 54.1185L44.3471 53.4138C44.33 53.0453 44.3166 52.6904 44.2808 52.3342C44.0742 50.7796 43.8958 49.2762 43.6908 47.8383L43.7513 45.2476L43.9758 43.6082C44.0461 43.4872 43.9307 43.3276 44.1314 43.2013C44.3109 43.1353 44.5016 43.1048 44.6927 43.1113C45.0551 43.1206 45.4156 43.1674 45.7683 43.2509C46.5278 43.4225 47.2623 43.6902 47.9541 44.0476C49.0167 44.5996 50.009 45.2776 50.9096 46.0669C51.9242 46.9124 52.8905 47.8142 53.8041 48.7679L54.5077 49.5472L54.6786 49.7507L54.804 49.8931L55.0449 50.1951C55.383 50.5883 55.7183 51.0262 55.9932 51.4289C56.5908 52.2891 57.1254 53.1915 57.5927 54.1289C58.0248 54.9621 58.3823 55.8319 58.6609 56.7281C58.883 57.438 59.0276 58.1698 59.0923 58.9107C59.1142 59.4258 59.0422 59.9405 58.8799 60.4298C58.7647 60.797 58.5689 61.1337 58.3068 61.4153C58.0162 61.6558 57.6962 61.8585 57.3546 62.0184C57.0873 62.1735 56.8121 62.3147 56.5303 62.4414C55.8425 62.6892 54.4889 61.4163 53.8364 59.6141C53.4252 58.2502 52.8731 56.9328 52.1891 55.6833C51.8553 55.056 51.4803 54.4515 51.0665 53.8738C50.8703 53.5746 50.6554 53.2877 50.4232 52.9908L50.336 52.8822L50.2322 52.8219C50.0213 52.8265 50.1267 53.0034 50.1317 52.9948C50.1317 52.9948 50.1619 52.9429 50.1283 53.12L50.1568 53.9463C50.1899 54.4861 50.1547 55.044 50.1518 55.5861C50.1136 57.7957 49.9146 59.9997 49.5563 62.1804L49.3173 62.134Z" fill="#363F4D"/>
<path d="M73.6296 69.7581C73.7736 69.2518 73.9162 68.7679 74.1012 68.2508L74.3499 67.5048L74.5715 66.9049L75.22 65.2923C75.6634 64.2314 76.1327 63.1856 76.6106 62.1448C77.0886 61.104 77.5961 60.0919 78.0986 59.0885L78.474 58.3236C78.5644 58.1679 78.5644 58.1679 78.5795 58.142L78.6298 58.0556L78.8309 57.7098C79.0621 57.3121 79.0963 57.0544 79.3699 56.6235C79.5057 56.3901 79.6565 56.1308 79.8223 55.8455C79.9143 55.7063 79.9982 55.562 80.0737 55.4133C80.1139 55.3441 80.1037 55.2225 80.054 55.2283C80.0043 55.2341 80.0021 55.1981 79.946 55.2349C79.5725 55.3331 79.2126 55.4774 78.8748 55.6647C78.5425 55.8185 78.1577 56.0227 77.7254 56.2688L77.0414 56.6692L75.5009 57.6474L69.001 61.8033C67.6086 62.7264 66.1625 63.5658 64.6704 64.3172C63.8986 64.6794 63.1036 64.9899 62.2906 65.2469C61.426 65.5144 60.5306 65.6702 59.6265 65.7105C58.4403 65.7611 58.5992 64.5926 59.1891 63.3393C59.3408 63.0422 59.5086 62.7536 59.6918 62.4749C59.8791 62.1463 60.0922 61.8331 60.329 61.5382C60.8071 60.9318 61.4191 60.4444 62.1172 60.1141C64.8842 58.7024 67.5758 57.1478 70.1813 55.4565C71.5962 54.5749 72.9842 53.6931 74.3454 52.8112C75.6456 51.9477 76.9012 51.0815 78.1202 50.2981C79.3392 49.5147 80.5532 48.7399 81.6588 48.1913L82.4809 47.7324L82.8816 47.5605C82.9916 47.5231 83.106 47.5002 83.222 47.4924L83.8667 47.3583L84.5216 47.207C84.6929 47.1909 84.844 47.2094 85.0067 47.1883C85.3127 47.1679 85.6196 47.1648 85.9259 47.1791L86.3413 47.2008C86.4388 47.1958 86.5363 47.2123 86.6269 47.249C86.7175 47.2856 86.7989 47.3417 86.8656 47.4132C87.0611 47.6965 87.1765 48.0273 87.1995 48.3708C87.2434 48.701 87.2703 49.0332 87.28 49.3662C87.292 50.3996 87.09 51.4243 86.6867 52.3758C86.0785 53.9192 85.1811 55.6416 84.4009 57.2817L82.4236 61.4183C81.4834 63.3934 80.6051 65.3813 79.8283 67.3935L79.0487 69.4504C78.8701 69.9365 78.7276 70.4204 78.552 71.0009C78.4639 71.3314 78.3795 71.6756 78.3173 72.0212C78.2552 72.3668 78.2138 72.5972 78.1681 72.8945C78.1608 72.9096 78.1578 72.9265 78.1596 72.9433C78.1614 72.96 78.1679 72.9759 78.1782 72.9891C78.1886 73.0024 78.2025 73.0125 78.2183 73.0182C78.2341 73.024 78.2512 73.0252 78.2676 73.0218L78.4417 72.9611C78.5575 72.9012 78.6683 72.8499 78.7755 72.785L80.1658 71.9855C80.6405 71.7063 81.1612 71.4075 81.6705 71.1484L82.9033 70.5003L84.3549 69.7943C87.3781 68.2153 90.632 67.1246 93.996 66.5626C94.7648 66.4383 95.5419 66.372 96.3207 66.3643C97.3914 66.3034 98.4592 66.5254 99.4168 67.0079C99.7007 67.1956 99.9351 67.4489 100.1 67.7464C100.266 68.0438 100.357 68.3767 100.366 68.7168C100.427 69.0533 100.461 69.3941 100.468 69.736C100.38 70.8417 99.1868 71.3624 97.5249 71.495C95.0326 71.6931 92.5757 72.2081 90.2137 73.0275C88.975 73.4551 87.7605 73.9499 86.5756 74.5096C85.9707 74.7941 85.3643 75.1008 84.7666 75.4126L84.2472 75.689L83.2518 76.267C82.5966 76.6379 81.9486 77.0361 81.2955 77.443C79.9584 78.3572 78.5375 79.1422 77.0519 79.7876C76.5687 79.9545 76.057 80.0228 75.547 79.9883C75.1936 79.9757 74.845 79.9022 74.5167 79.7709C74.2119 79.6337 73.9222 79.4653 73.6522 79.2683C73.5001 79.1547 73.3552 79.0318 73.2183 78.9003C73.0973 78.7791 72.9886 78.6462 72.8939 78.5034C72.3108 77.7186 72.0517 76.7396 72.1703 75.7691C72.4096 73.7156 72.8165 71.6851 73.387 69.6979L73.6296 69.7581Z" fill="#363F4D"/>
<path d="M75.057 90.5194C76.0557 89.6773 77.0789 88.8726 78.0884 88.0715C79.0979 87.2703 80.1593 86.4994 81.1429 85.6832C81.8741 85.102 82.5131 84.4209 83.2825 83.8735C85.9144 81.9335 88.6586 80.0589 91.3164 78.134C92.4986 77.2945 93.6195 76.3615 94.6929 75.4704C96.0597 74.1968 97.6237 73.153 99.3242 72.3795C99.8717 72.1542 100.18 72.6576 100.218 73.489C100.276 74.5132 99.9877 75.5273 99.3996 76.3679L98.4661 77.4561C98.1465 77.7721 97.8106 78.071 97.4596 78.3515C96.7579 78.9615 96.0353 79.5477 95.2781 80.1138C93.8242 81.2812 92.3372 82.4062 90.7565 83.4535C89.8283 84.1196 88.952 84.8553 88.1351 85.6541C87.3055 86.4441 86.4832 87.2615 85.6068 88.0128L82.7994 90.5332L80.0302 93.0873C78.9268 94.1693 77.7788 95.2485 76.7077 96.3146C75.0309 97.9247 73.4775 99.6586 72.0606 101.502C71.5678 102.24 71.1212 103.008 70.7235 103.801C70.333 104.592 69.9749 105.367 69.5771 106.131C69.3861 106.459 69.2606 106.814 69.1056 107.14C68.5171 108.371 67.8623 108.523 66.5828 108.276C66.2869 108.208 65.9795 108.18 65.6936 108.095C64.7603 107.829 64.2797 106.925 64.4356 105.663C64.5271 105.207 64.6186 104.751 64.7324 104.297C64.8462 103.842 65.0105 103.44 65.1589 103.006C65.3073 102.572 65.4816 102.153 65.661 101.725C65.8212 101.295 66.0229 100.881 66.2632 100.49C67.1988 98.9502 68.2577 97.4885 69.4294 96.1195C70.2726 95.0943 71.1676 94.1128 72.1109 93.1789C73.0187 92.2146 73.9633 91.3063 74.9547 90.4368L75.057 90.5194Z" fill="#363F4D"/>
<path d="M55.3478 30.9145C55.2171 31.414 55.0039 31.8882 54.717 32.3175C54.4599 32.7666 54.1168 33.1607 53.7073 33.4771C53.3148 33.7925 52.8937 34.0704 52.4495 34.3074C51.9873 34.5152 51.5058 34.6769 51.012 34.7902C50.6651 34.8893 50.2988 34.9424 49.9434 35.0364C49.5733 35.0828 49.2007 35.1057 48.8278 35.1049C47.4292 34.9754 46.1032 34.4233 45.0259 33.5221C43.9486 32.6209 43.1711 31.4132 42.7966 30.0595L42.6017 29.1017C42.5519 28.7824 42.5228 28.4602 42.5147 28.1372C42.5411 27.5041 42.6837 26.8812 42.9354 26.2997C43.0904 25.9142 43.3003 25.5531 43.5587 25.2277C43.8377 24.9168 44.1611 24.6488 44.5185 24.4324C44.856 24.2624 45.2098 24.1271 45.5747 24.0286C45.9223 23.9777 46.2752 23.9729 46.6241 24.0142C47.064 24.0733 47.0306 24.8867 46.9001 25.7478C46.8409 26.1877 46.7732 26.6226 46.706 26.9768C46.6388 27.3311 46.6824 27.634 46.594 27.6867C46.5055 27.7394 46.5805 27.8293 46.5085 27.8337C46.4365 27.8381 46.569 27.8689 46.5863 27.8789C46.6036 27.889 46.5863 27.8789 46.6295 27.9041C46.6287 27.9144 46.6255 27.9244 46.6203 27.9334C46.6151 27.9424 46.6079 27.9501 46.5994 27.9559C46.5023 28.0036 46.3283 28.2032 46.3528 28.738C46.3574 28.8712 46.3965 29.001 46.4664 29.1146C46.5362 29.2282 46.6343 29.3217 46.7511 29.386C46.9622 29.4718 47.1822 29.5338 47.4071 29.5708C47.7263 29.6859 48.0696 29.718 48.4046 29.6639C48.7396 29.6097 49.0553 29.4713 49.3221 29.2615C49.4699 29.108 49.577 28.9201 49.6338 28.7148C49.6906 28.5094 49.6952 28.2932 49.6472 28.0856C49.5873 27.7147 49.4322 27.3658 49.197 27.0729C48.9618 26.78 48.6545 26.5531 48.3054 26.4146C48.012 26.3398 47.705 26.3362 47.41 26.4041C47.115 26.472 46.8404 26.6094 46.6093 26.8049C46.5342 26.8762 46.4536 26.9415 46.3684 27.0003C46.2676 27.0438 46.1558 27.0555 46.0481 27.0339C45.9175 26.9815 45.7952 26.9104 45.6851 26.8228C45.3696 26.582 45.0916 26.2956 44.8604 25.9731C44.7068 25.7797 44.5468 25.6172 44.4105 25.4338C44.1863 25.1488 44.0691 24.7941 44.0794 24.4316C44.0864 24.0067 44.2285 23.595 44.4852 23.2563L44.8713 22.8908C45.0309 22.7754 45.2301 22.6715 45.4121 22.5575C45.7977 22.322 46.2224 22.1576 46.6661 22.072C47.1204 21.9669 47.5834 21.9032 48.0493 21.8815C48.5195 21.8851 48.9889 21.9222 49.4538 21.9926C50.3711 22.1604 51.2462 22.5081 52.0286 23.0155C52.7498 23.4932 53.3916 24.0811 53.9306 24.7577C54.308 25.2192 54.6224 25.7287 54.8656 26.273C54.9508 26.5395 55.0495 26.8014 55.1611 27.058C55.2896 27.3071 55.38 27.5741 55.4292 27.8501C55.6674 28.8852 55.6669 29.9609 55.4278 30.9957L55.3478 30.9145Z" fill="#363F4D"/>
<path d="M93.5484 40.7149C93.2342 41.1123 92.8715 41.4687 92.4687 41.776C92.0467 42.0449 91.592 42.2586 91.1156 42.412C90.1803 42.7102 89.1997 42.841 88.2189 42.7983C87.4954 42.7681 86.7871 42.5812 86.1429 42.2505C83.7571 41.002 83.4425 37.3256 84.3731 35.6457C84.5799 35.2004 84.8272 34.775 85.112 34.375C85.4025 33.9422 85.7868 33.5805 86.2363 33.3167C86.7909 32.9054 87.4633 32.6838 88.1538 32.6849C88.7662 32.6965 89.357 32.9137 89.8311 33.3016C90.1121 33.5345 89.7882 34.0517 89.3599 34.5893C88.9317 35.1269 88.4481 35.7596 88.3231 35.8951C88.297 35.9098 88.2743 35.9299 88.2566 35.9541C88.239 35.9783 88.2267 36.0059 88.2206 36.0353C88.2145 36.0646 88.2147 36.0949 88.2213 36.1241C88.2279 36.1533 88.2406 36.1808 88.2587 36.2047C88.3131 36.2766 88.3393 36.3659 88.3325 36.4558C88.3173 36.6167 88.2937 36.7768 88.2619 36.9353C88.2116 37.0217 88.1513 37.1255 88.096 37.2206C88.0407 37.3157 87.9637 37.3287 87.8998 37.4188C87.833 37.4919 87.7928 37.5854 87.7858 37.6842C87.7787 37.7829 87.8052 37.8812 87.8609 37.963C87.9702 38.1144 88.1063 38.2445 88.2624 38.3468C88.4748 38.4862 88.719 38.5697 88.9724 38.5896C89.2257 38.6095 89.4799 38.5652 89.7115 38.4607C89.8771 38.3791 90.0184 38.2557 90.1216 38.1026C90.2248 37.9496 90.2862 37.7723 90.2999 37.5882C90.3543 37.2508 90.3116 36.9049 90.1767 36.5908C90.0418 36.2768 89.8202 36.0077 89.538 35.8149C89.2959 35.6742 89.0022 35.6422 88.8908 35.7741C88.8908 35.7741 88.8908 35.7741 88.8607 35.8259C88.8584 35.7767 88.86 35.7274 88.8655 35.6784C88.8655 35.6784 88.8655 35.6784 88.9399 35.8489C89.0142 36.0194 89.0315 36.0294 89.1029 36.1056L89.1902 36.2142C89.0162 36.201 88.844 36.1706 88.6761 36.1235C88.285 36.0002 87.8818 35.8582 87.4093 35.6761L86.7993 35.4718C86.4817 35.342 86.2066 35.126 86.0052 34.8481C85.853 34.6579 85.7203 34.4529 85.6092 34.2361C85.4512 33.9707 85.5308 33.774 85.5513 33.5199C85.6199 33.1204 85.7738 32.7404 86.0026 32.4057C86.31 32.001 86.6904 31.6572 87.1241 31.3921C87.6276 31.1128 88.1842 30.9421 88.7578 30.8911C89.3314 30.8401 89.9093 30.9099 90.4543 31.096C91.2942 31.3719 92.0523 31.8525 92.6603 32.4944C92.9071 32.7544 93.1307 33.0354 93.3287 33.3342C93.5375 33.6379 93.7079 33.9662 93.8361 34.3117C94.8714 36.5101 94.8994 39.0481 93.5844 40.7127L93.5484 40.7149Z" fill="#363F4D"/>
<path d="M112.383 64.2057C111.382 64.4082 110.345 64.3225 109.391 63.9587L109.012 63.7958C108.921 63.7543 108.834 63.7038 108.753 63.645C108.597 63.5545 108.459 63.4741 108.268 63.3635C107.887 63.0885 107.542 62.7671 107.24 62.4068C107.12 62.2558 106.987 62.0861 106.852 61.8805C106.712 61.676 106.595 61.4567 106.503 61.2266C106.26 60.6629 106.193 60.039 106.31 59.4364C106.427 58.8338 106.724 58.2806 107.16 57.8491C107.468 57.5272 107.822 57.2534 108.211 57.0371C108.816 56.705 109.451 56.4316 110.108 56.2204C110.639 56.0433 111.111 55.8087 111.626 55.5992C111.949 55.389 112.311 55.2492 112.691 55.189C113.071 55.1288 113.459 55.1496 113.831 55.2499C114.151 55.3553 114.012 56.0724 113.929 56.8111C113.847 57.5497 113.873 58.34 113.702 58.495C113.009 59.1118 112.205 59.5904 111.332 59.9048C111.078 59.9649 110.936 60.1487 110.954 60.217L110.686 60.0612C110.532 59.9878 110.37 59.9325 110.204 59.8963C110.09 59.855 109.968 59.8397 109.848 59.8515C110.057 59.7664 110.242 59.632 110.388 59.4599C110.49 59.3517 110.584 59.2364 110.67 59.1147L110.739 59.1549L110.868 59.2303C111.011 58.8853 110.673 59.7064 110.709 59.6235L110.684 59.6668C110.684 59.6668 110.709 59.6235 110.724 59.5976C110.726 59.5275 110.732 59.4575 110.742 59.3881C110.973 59.447 111.218 59.4211 111.432 59.3152C111.649 59.2357 111.847 59.1121 112.014 58.9521C112.18 58.7922 112.312 58.5994 112.401 58.386C112.441 58.3168 112.377 58.268 112.343 58.2255C112.31 58.1831 112.3 58.2004 112.274 58.1853C112.32 58.1903 112.367 58.1902 112.413 58.1851C112.665 58.1697 112.633 58.1049 112.482 58.2253L112.417 58.3377C112.349 58.3957 112.288 58.461 112.234 58.5323C111.847 59.198 112.329 58.1709 112.646 57.1288L112.858 56.385C112.963 55.9931 113.154 55.6299 113.418 55.3225C113.565 55.1441 113.735 54.986 113.923 54.8524C114.087 54.7261 114.292 54.6642 114.499 54.6782C114.827 54.7004 115.148 54.7813 115.447 54.9173C115.617 54.9797 115.782 55.056 115.939 55.1455C116.117 55.2674 116.287 55.4008 116.447 55.545C116.789 55.8432 117.054 56.2197 117.22 56.6424C117.426 57.0575 117.557 57.5057 117.607 57.9663C117.735 59.3786 117.296 60.7838 116.388 61.873C115.389 63.109 114.011 63.9825 112.467 64.3589L112.383 64.2057Z" fill="#363F4D"/>
</g>
<defs>
<clipPath id="clip0_71_301">
<rect width="96" height="96" fill="white" transform="translate(48.2566) rotate(30.177)"/>
</clipPath>
</defs>
</svg>
