<svg width="32" height="32" viewBox="0 0 32 32" fill="none" xmlns="http://www.w3.org/2000/svg">
<path d="M16 28C22.6274 28 28 22.6274 28 16C28 9.37258 22.6274 4 16 4C9.37258 4 4 9.37258 4 16C4 22.6274 9.37258 28 16 28Z" fill="#0A66C2"/>
<path d="M20.2246 20.2269H18.4468V17.4433C18.4468 16.7789 18.4327 15.9251 17.5205 15.9251C16.5942 15.9251 16.4515 16.648 16.4515 17.3942V20.2269H14.6737V14.5006H16.3813V15.2819H16.4047C16.6433 14.8327 17.2234 14.3579 18.0889 14.3579C19.8901 14.3579 20.2222 15.5439 20.2222 17.0854L20.2246 20.2269ZM12.669 13.717C12.0959 13.717 11.6374 13.2538 11.6374 12.6854C11.6374 12.117 12.0982 11.6538 12.669 11.6538C13.2398 11.6538 13.7006 12.117 13.7006 12.6854C13.7006 13.2538 13.2374 13.717 12.669 13.717ZM13.5602 20.2269H11.7778V14.5006H13.5602V20.2269ZM21.1135 10H10.8865C10.3977 10 10 10.386 10 10.8655V21.1345C10 21.6117 10.3953 22 10.8865 22H21.1111C21.6 22 22 21.614 22 21.1345V10.8655C22 10.386 21.6 10 21.1135 10Z" fill="white"/>
</svg>
