<?xml version="1.0" encoding="UTF-8"?>
<svg id="Layer_1" xmlns="http://www.w3.org/2000/svg" xmlns:xlink="http://www.w3.org/1999/xlink" version="1.1" viewBox="0 0 1080 1080">
  <!-- Generator: Adobe Illustrator 29.2.1, SVG Export Plug-In . SVG Version: 2.1.0 Build 116)  -->
  <defs>
    <style>
      .st0, .st1 {
        fill: none;
      }

      .st2 {
        fill: #444e5e;
      }

      .st3 {
        fill: #ddf7f2;
      }

      .st4 {
        clip-path: url(#clippath-1);
      }

      .st5 {
        clip-path: url(#clippath-3);
      }

      .st6 {
        clip-path: url(#clippath-4);
      }

      .st7 {
        clip-path: url(#clippath-2);
      }

      .st1 {
        stroke: #ddf7f2;
        stroke-width: 1.4px;
      }

      .st8 {
        fill: #363f4d;
      }

      .st9 {
        fill: #2dd1ac;
      }

      .st10 {
        clip-path: url(#clippath);
      }
    </style>
    <clipPath id="clippath">
      <rect class="st0" x="161.2" y="317.1" width="45.2" height="45.2"/>
    </clipPath>
    <clipPath id="clippath-1">
      <rect class="st0" x="228.9" y="317.1" width="45.2" height="45.2"/>
    </clipPath>
    <clipPath id="clippath-2">
      <rect class="st0" x="296.7" y="317.1" width="45.2" height="45.2"/>
    </clipPath>
    <clipPath id="clippath-3">
      <rect class="st0" x="364.4" y="317.1" width="45.2" height="45.2"/>
    </clipPath>
    <clipPath id="clippath-4">
      <rect class="st0" x="432.1" y="317.1" width="45.2" height="45.2"/>
    </clipPath>
  </defs>
  <g>
    <rect class="st3" x="92.9" y="207.6" width="903.2" height="677.4" rx="16.9" ry="16.9"/>
    <rect class="st1" x="93.6" y="208.3" width="901.8" height="676" rx="16.2" ry="16.2"/>
  </g>
  <path class="st8" d="M164,546.3v-20.2h3.2l9.8,16.7v-16.7h2.3v20.2h-2.8l-10.2-17.3v17.3h-2.3ZM188,546.6c-2.7,0-4.9-1.3-4.9-4.3s3.6-4.6,7.4-4.6h2.1v-1.1c0-2.3-.9-3.3-3.2-3.3s-3.2.8-3.4,2.7h-2.3c.3-3.4,3-4.6,5.8-4.6s5.4,1.2,5.4,5.3v9.7h-2.3v-1.9c-1.1,1.4-2.4,2.1-4.6,2.1ZM188.2,544.7c2.5,0,4.4-1.3,4.4-3.6v-1.8h-2c-3,0-5.1.7-5.1,2.9s.7,2.5,2.8,2.5ZM191.1,528.9c-1.2,0-2.2-1.2-3-1.2s-1,.5-1.1,1.3h-1.7c.2-2,1.4-3.3,2.9-3.3s2.2,1.2,3,1.2,1-.5,1.1-1.3h1.7c-.2,2-1.4,3.3-2.8,3.3ZM205.7,544.6c3,0,4.8-2.2,4.8-5.6v-.2c0-3.4-1.9-5.6-4.8-5.6s-4.8,2.2-4.8,5.6v.2c0,3.4,1.8,5.6,4.8,5.6ZM205.7,546.6c-4.2,0-7.2-3.2-7.2-7.5v-.2c0-4.4,3.1-7.5,7.3-7.5s7.3,3.1,7.3,7.5v.2c0,4.5-3.1,7.5-7.3,7.5ZM224,551.5v-19.9h2.3v2.5c.8-1.4,2.9-2.7,5-2.7,3.9,0,6.7,2.8,6.7,7.4v.2c0,4.5-2.7,7.6-6.7,7.6s-4.1-1.2-5-2.7v7.6h-2.3ZM231.2,544.6c2.9,0,4.5-2,4.5-5.6v-.2c0-3.7-2.1-5.6-4.5-5.6s-4.8,1.8-4.8,5.6v.2c0,3.8,2,5.6,4.9,5.6ZM241.7,546.3v-14.8h2.3v2.7c.9-1.7,2.2-2.8,4.9-2.9v2.2c-3,.1-4.9,1.1-4.9,4.7v8.1h-2.3ZM258,546.6c-4.2,0-7.1-2.9-7.1-7.5v-.2c0-4.5,2.9-7.6,6.9-7.6s6.6,2.1,6.6,7.3v.8h-11.1c.1,3.4,1.7,5.2,4.7,5.2s3.6-.8,3.9-2.6h2.3c-.5,3-3,4.5-6.3,4.5ZM253.3,537.5h8.6c-.2-3-1.8-4.3-4.2-4.3s-4,1.6-4.4,4.3ZM274.1,546.6c-4.1,0-7.2-2.9-7.2-7.5v-.2c0-4.5,3.2-7.6,7.2-7.6s6,1.4,6.4,5.2h-2.3c-.4-2.3-2.1-3.2-4.1-3.2s-4.7,2.1-4.7,5.6v.2c0,3.6,2,5.5,4.8,5.5s4-1.2,4.2-3.6h2.2c-.3,3.2-2.9,5.6-6.4,5.6ZM284.1,546.3v-14.8h2.3v14.8h-2.3ZM285.3,528.5c-.8,0-1.6-.7-1.6-1.6s.7-1.6,1.6-1.6,1.6.7,1.6,1.6-.7,1.6-1.6,1.6ZM295.8,546.6c-3.5,0-5.6-1.8-5.8-4.8h2.3c.2,1.7,1.1,2.9,3.5,2.9s3.2-.8,3.2-2.3-1.2-2.1-3.4-2.5c-3.8-.7-5.1-1.8-5.1-4.3s2.7-4.1,5-4.1,4.9,1.1,5.3,4.3h-2.3c-.3-1.6-1.2-2.3-3.1-2.3s-2.8.8-2.8,2.1.7,1.9,3.4,2.3c3,.6,5.2,1.2,5.2,4.4s-1.8,4.5-5.4,4.5ZM311,544.6c3,0,4.8-2.2,4.8-5.6v-.2c0-3.4-1.9-5.6-4.8-5.6s-4.8,2.2-4.8,5.6v.2c0,3.4,1.8,5.6,4.8,5.6ZM311,546.6c-4.2,0-7.2-3.2-7.2-7.5v-.2c0-4.4,3.1-7.5,7.3-7.5s7.3,3.1,7.3,7.5v.2c0,4.5-3.1,7.5-7.3,7.5ZM329.3,546.3v-14.8h2.3v2.3c.7-1.4,2.3-2.5,4.4-2.5s3.6.8,4.3,2.8c1-1.9,3.2-2.8,5.1-2.8,2.7,0,5,1.6,5,5.9v9.1h-2.3v-9.3c0-2.6-1.1-3.7-3.1-3.7s-3.9,1.3-3.9,4v9h-2.3v-9.3c0-2.6-1.1-3.7-3.1-3.7s-3.9,1.3-3.9,4v9h-2.3ZM358.7,546.6c-2.7,0-4.9-1.3-4.9-4.3s3.6-4.6,7.4-4.6h2.1v-1.1c0-2.3-.9-3.3-3.2-3.3s-3.2.8-3.4,2.7h-2.3c.3-3.4,3-4.6,5.8-4.6s5.4,1.2,5.4,5.3v9.7h-2.3v-1.9c-1.1,1.4-2.4,2.1-4.6,2.1ZM358.9,544.7c2.5,0,4.4-1.3,4.4-3.6v-1.8h-2c-3,0-5.1.7-5.1,2.9s.7,2.5,2.8,2.5ZM370.3,546.3v-14.8h2.3v14.8h-2.3ZM371.4,528.5c-.8,0-1.6-.7-1.6-1.6s.7-1.6,1.6-1.6,1.6.7,1.6,1.6-.7,1.6-1.6,1.6ZM382,546.6c-3.5,0-5.6-1.8-5.8-4.8h2.3c.2,1.7,1.1,2.9,3.5,2.9s3.2-.8,3.2-2.3-1.2-2.1-3.4-2.5c-3.8-.7-5.1-1.8-5.1-4.3s2.7-4.1,5-4.1,4.9,1.1,5.3,4.3h-2.3c-.3-1.6-1.2-2.3-3.1-2.3s-2.8.8-2.8,2.1.7,1.9,3.4,2.3c3,.6,5.2,1.2,5.2,4.4s-1.8,4.5-5.4,4.5ZM399,546.3v-12.8h-2.1v-2h2.1v-2.4c0-3,1.5-4.7,4.4-4.7s1.2,0,1.7.3v2c-.4-.2-1-.3-1.7-.3-1.5,0-2.1,1-2.1,2.5v2.7h3.6v2h-3.6v12.8h-2.3ZM411.7,546.6c-2.7,0-4.9-1.3-4.9-4.3s3.6-4.6,7.4-4.6h2.1v-1.1c0-2.3-.9-3.3-3.2-3.3s-3.2.8-3.4,2.7h-2.3c.3-3.4,3-4.6,5.8-4.6s5.4,1.2,5.4,5.3v9.7h-2.3v-1.9c-1.1,1.4-2.4,2.1-4.6,2.1ZM411.9,544.7c2.5,0,4.4-1.3,4.4-3.6v-1.8h-2c-3,0-5.1.7-5.1,2.9s.7,2.5,2.8,2.5ZM421.4,546.3v-.3l8.7-12.4h-7.9v-2h11.5v.4l-8.5,12.3h8.4v2.1h-12.2ZM442.8,546.6c-4.2,0-7.1-2.9-7.1-7.5v-.2c0-4.5,2.9-7.6,6.9-7.6s6.6,2.1,6.6,7.3v.8h-11.1c.1,3.4,1.7,5.2,4.7,5.2s3.6-.8,3.9-2.6h2.3c-.5,3-3,4.5-6.3,4.5ZM438.1,537.5h8.6c-.2-3-1.8-4.3-4.2-4.3s-4,1.6-4.4,4.3ZM452.8,546.3v-14.8h2.3v2.7c.9-1.7,2.2-2.8,4.9-2.9v2.2c-3,.1-4.9,1.1-4.9,4.7v8.1h-2.3ZM475.3,546.5c-2.7,0-4-1.6-4-3.9v-9.1h-2.1v-2h2.1v-3.4h2.3v3.4h3.4v2h-3.4v8.9c0,1.4.6,2.1,1.8,2.1s1.3-.1,1.8-.3v2c-.5.2-1,.3-2,.3ZM485.9,546.6c-2.9,0-5.1-1.6-5.1-5.7v-9.3h2.3v9.2c0,2.6,1.1,3.8,3.4,3.8s4.1-1.4,4.1-4v-8.9h2.3v14.8h-2.3v-2.3c-.7,1.4-2.3,2.6-4.7,2.6ZM503.2,546.6c-3.9,0-6.7-2.7-6.7-7.3v-.2c0-4.5,2.8-7.7,6.9-7.7s4,1.2,4.8,2.6v-9.4h2.3v21.8h-2.3v-2.5c-.8,1.4-2.9,2.8-5.1,2.8ZM503.4,544.6c2.7,0,4.9-1.8,4.9-5.6v-.2c0-3.8-1.8-5.6-4.7-5.6s-4.7,2.1-4.7,5.6v.2c0,3.7,2,5.5,4.5,5.5ZM521.5,544.6c3,0,4.8-2.2,4.8-5.6v-.2c0-3.4-1.9-5.6-4.8-5.6s-4.8,2.2-4.8,5.6v.2c0,3.4,1.8,5.6,4.8,5.6ZM521.4,546.6c-4.2,0-7.2-3.2-7.2-7.5v-.2c0-4.4,3.1-7.5,7.3-7.5s7.3,3.1,7.3,7.5v.2c0,4.5-3.1,7.5-7.3,7.5ZM544.4,546.6c-3.5,0-5.6-1.8-5.8-4.8h2.3c.2,1.7,1.1,2.9,3.5,2.9s3.2-.8,3.2-2.3-1.2-2.1-3.4-2.5c-3.8-.7-5.1-1.8-5.1-4.3s2.7-4.1,5-4.1,4.9,1.1,5.3,4.3h-2.3c-.3-1.6-1.2-2.3-3.1-2.3s-2.8.8-2.8,2.1.7,1.9,3.4,2.3c3,.6,5.2,1.2,5.2,4.4s-1.8,4.5-5.4,4.5ZM559.5,544.6c3,0,4.8-2.2,4.8-5.6v-.2c0-3.4-1.9-5.6-4.8-5.6s-4.8,2.2-4.8,5.6v.2c0,3.4,1.8,5.6,4.8,5.6ZM559.5,546.6c-4.2,0-7.2-3.2-7.2-7.5v-.2c0-4.4,3.1-7.5,7.3-7.5s7.3,3.1,7.3,7.5v.2c0,4.5-3.1,7.5-7.3,7.5ZM568.2,546.3v-.3l8.7-12.4h-7.9v-2h11.5v.4l-8.5,12.3h8.4v2.1h-12.2ZM583.7,546.3v-14.8h2.3v14.8h-2.3ZM584.8,528.5c-.8,0-1.6-.7-1.6-1.6s.7-1.6,1.6-1.6,1.6.7,1.6,1.6-.7,1.6-1.6,1.6ZM590.8,546.3v-14.8h2.3v2.3c.7-1.4,2.3-2.6,4.7-2.6s5.2,1.7,5.2,6v9.1h-2.3v-9.2c0-2.6-1.1-3.8-3.5-3.8s-4.1,1.4-4.1,4v8.9h-2.3ZM607.7,546.3v-21.8h2.3v9.4c.7-1.4,2.3-2.6,4.7-2.6s5.2,1.7,5.2,6v9.1h-2.3v-9.2c0-2.6-1.1-3.8-3.5-3.8s-4.1,1.4-4.1,4v8.9h-2.3ZM628.3,546.6c-2.7,0-4.9-1.3-4.9-4.3s3.6-4.6,7.4-4.6h2.1v-1.1c0-2.3-.9-3.3-3.2-3.3s-3.2.8-3.4,2.7h-2.3c.3-3.4,3-4.6,5.8-4.6s5.4,1.2,5.4,5.3v9.7h-2.3v-1.9c-1.1,1.4-2.4,2.1-4.6,2.1ZM628.5,544.7c2.5,0,4.4-1.3,4.4-3.6v-1.8h-2c-3,0-5.1.7-5.1,2.9s.7,2.5,2.8,2.5ZM640,549.8l-1.5-.8,2.7-6.2,2.3,1.1-3.5,5.9ZM659,546.6c-2.7,0-4.9-1.3-4.9-4.3s3.6-4.6,7.4-4.6h2.1v-1.1c0-2.3-.9-3.3-3.2-3.3s-3.2.8-3.4,2.7h-2.3c.3-3.4,3-4.6,5.8-4.6s5.4,1.2,5.4,5.3v9.7h-2.3v-1.9c-1.1,1.4-2.4,2.1-4.6,2.1ZM659.2,544.7c2.5,0,4.4-1.3,4.4-3.6v-1.8h-2c-3,0-5.1.7-5.1,2.9s.7,2.5,2.8,2.5ZM676.4,551.7c-4.4,0-6.3-2.1-6.7-4.5h2.4c.3,1.7,1.7,2.6,4.3,2.6s4.7-1.4,4.7-4.5v-2.1c-.8,1.4-2.9,2.8-5,2.8-3.9,0-6.7-2.9-6.7-7v-.2c0-4,2.8-7.3,6.9-7.3s4,1.2,4.8,2.6v-2.4h2.3v13.8c0,4.3-2.9,6.4-7.1,6.4ZM676.4,543.9c2.7,0,4.8-1.9,4.8-5.2v-.2c0-3.3-1.8-5.2-4.7-5.2s-4.7,2.2-4.7,5.3v.2c0,3.2,2.1,5.1,4.5,5.1ZM694.3,544.6c3,0,4.8-2.2,4.8-5.6v-.2c0-3.4-1.9-5.6-4.8-5.6s-4.8,2.2-4.8,5.6v.2c0,3.4,1.8,5.6,4.8,5.6ZM694.3,546.6c-4.2,0-7.2-3.2-7.2-7.5v-.2c0-4.4,3.1-7.5,7.3-7.5s7.3,3.1,7.3,7.5v.2c0,4.5-3.1,7.5-7.3,7.5ZM705.2,546.3v-14.8h2.3v2.7c.9-1.7,2.2-2.8,4.9-2.9v2.2c-3,.1-4.9,1.1-4.9,4.7v8.1h-2.3ZM719.4,546.6c-2.7,0-4.9-1.3-4.9-4.3s3.6-4.6,7.4-4.6h2.1v-1.1c0-2.3-.9-3.3-3.2-3.3s-3.2.8-3.4,2.7h-2.3c.3-3.4,3-4.6,5.8-4.6s5.4,1.2,5.4,5.3v9.7h-2.3v-1.9c-1.1,1.4-2.4,2.1-4.6,2.1ZM719.6,544.7c2.5,0,4.4-1.3,4.4-3.6v-1.8h-2c-3,0-5.1.7-5.1,2.9s.7,2.5,2.8,2.5ZM744.5,546.6c-4.2,0-7.1-2.9-7.1-7.5v-.2c0-4.5,2.9-7.6,6.9-7.6s6.6,2.1,6.6,7.3v.8h-11.1c.1,3.4,1.7,5.2,4.7,5.2s3.6-.8,3.9-2.6h2.3c-.5,3-3,4.5-6.3,4.5ZM739.8,537.5h8.6c-.2-3-1.8-4.3-4.2-4.3s-4,1.6-4.4,4.3ZM759.5,546.6c-2.9,0-5.1-1.6-5.1-5.7v-9.3h2.3v9.2c0,2.6,1.1,3.8,3.4,3.8s4.1-1.4,4.1-4v-8.9h2.3v14.8h-2.3v-2.3c-.7,1.4-2.3,2.6-4.7,2.6ZM783.2,546.5c-2.7,0-4-1.6-4-3.9v-9.1h-2.1v-2h2.1v-3.4h2.3v3.4h3.4v2h-3.4v8.9c0,1.4.6,2.1,1.8,2.1s1.3-.1,1.8-.3v2c-.5.2-1,.3-2,.3ZM794.8,546.6c-4.2,0-7.1-2.9-7.1-7.5v-.2c0-4.5,2.9-7.6,6.9-7.6s6.6,2.1,6.6,7.3v.8h-11.1c.1,3.4,1.7,5.2,4.7,5.2s3.6-.8,3.9-2.6h2.3c-.5,3-3,4.5-6.3,4.5ZM790.1,537.5h8.6c-.2-3-1.8-4.3-4.2-4.3s-4,1.6-4.4,4.3ZM804.8,546.3v-14.8h2.3v2.3c.7-1.4,2.3-2.6,4.7-2.6s5.2,1.7,5.2,6v9.1h-2.3v-9.2c0-2.6-1.1-3.8-3.5-3.8s-4.1,1.4-4.1,4v8.9h-2.3ZM821.6,546.3v-21.8h2.3v9.4c.7-1.4,2.3-2.6,4.7-2.6s5.2,1.7,5.2,6v9.1h-2.3v-9.2c0-2.6-1.1-3.8-3.5-3.8s-4.1,1.4-4.1,4v8.9h-2.3ZM844.6,544.6c3,0,4.8-2.2,4.8-5.6v-.2c0-3.4-1.9-5.6-4.8-5.6s-4.8,2.2-4.8,5.6v.2c0,3.4,1.8,5.6,4.8,5.6ZM844.6,546.6c-4.2,0-7.2-3.2-7.2-7.5v-.2c0-4.4,3.1-7.5,7.3-7.5s7.3,3.1,7.3,7.5v.2c0,4.5-3.1,7.5-7.3,7.5ZM869.2,544.6c3,0,4.8-2.2,4.8-5.6v-.2c0-3.4-1.9-5.6-4.8-5.6s-4.8,2.2-4.8,5.6v.2c0,3.4,1.8,5.6,4.8,5.6ZM869.1,546.6c-4.2,0-7.2-3.2-7.2-7.5v-.2c0-4.4,3.1-7.5,7.3-7.5s7.3,3.1,7.3,7.5v.2c0,4.5-3.1,7.5-7.3,7.5ZM164,588.7v-20.2h2.5v9.7l8.8-9.7h2.7l-9,9.8,9.4,10.4h-3l-9-9.9v9.9h-2.5ZM181.6,593.8l2.8-6.7-5.8-13.2h2.5l4.5,10.6,4.1-10.6h2.4l-8.2,19.9h-2.4ZM200,588.9c-2.7,0-4-1.6-4-3.9v-9.1h-2.1v-2h2.1v-3.4h2.3v3.4h3.4v2h-3.4v8.9c0,1.4.6,2.1,1.8,2.1s1.3-.1,1.8-.3v2c-.5.2-1,.3-2,.3ZM211.6,588.9c-4.2,0-7.1-2.9-7.1-7.5v-.2c0-4.5,2.9-7.6,6.9-7.6s6.6,2.1,6.6,7.3v.8h-11.1c.1,3.4,1.7,5.2,4.7,5.2s3.6-.8,3.9-2.6h2.3c-.5,3-3,4.5-6.3,4.5ZM206.9,579.9h8.6c-.2-3-1.8-4.3-4.2-4.3s-4,1.6-4.4,4.3ZM229,593.8v-19.9h2.3v2.5c.8-1.4,2.9-2.7,5-2.7,3.9,0,6.7,2.8,6.7,7.4v.2c0,4.5-2.7,7.6-6.7,7.6s-4.1-1.2-5-2.7v7.6h-2.3ZM236.1,587c2.9,0,4.5-2,4.5-5.6v-.2c0-3.7-2.1-5.6-4.5-5.6s-4.8,1.8-4.8,5.6v.2c0,3.8,2,5.6,4.9,5.6ZM250.4,588.9c-2.7,0-4.9-1.3-4.9-4.3s3.6-4.6,7.4-4.6h2.1v-1.1c0-2.3-.9-3.3-3.2-3.3s-3.2.8-3.4,2.7h-2.3c.3-3.4,3-4.6,5.8-4.6s5.4,1.2,5.4,5.3v9.7h-2.3v-1.9c-1.1,1.4-2.4,2.1-4.6,2.1ZM250.7,587.1c2.5,0,4.4-1.3,4.4-3.6v-1.8h-2c-3,0-5.1.7-5.1,2.9s.7,2.5,2.8,2.5ZM262,588.7v-14.8h2.3v2.7c.9-1.7,2.2-2.8,4.9-2.9v2.2c-3,.1-4.9,1.1-4.9,4.7v8.1h-2.3ZM276.1,588.9c-2.7,0-4.9-1.3-4.9-4.3s3.6-4.6,7.4-4.6h2.1v-1.1c0-2.3-.9-3.3-3.2-3.3s-3.2.8-3.4,2.7h-2.3c.3-3.4,3-4.6,5.8-4.6s5.4,1.2,5.4,5.3v9.7h-2.3v-1.9c-1.1,1.4-2.4,2.1-4.6,2.1ZM276.4,587.1c2.5,0,4.4-1.3,4.4-3.6v-1.8h-2c-3,0-5.1.7-5.1,2.9s.7,2.5,2.8,2.5ZM295.2,588.7v-14.8h2.3v2.3c.7-1.4,2.3-2.5,4.4-2.5s3.6.8,4.3,2.8c1-1.9,3.2-2.8,5.1-2.8,2.7,0,5,1.6,5,5.9v9.1h-2.3v-9.3c0-2.6-1.1-3.7-3.1-3.7s-3.9,1.3-3.9,4v9h-2.3v-9.3c0-2.6-1.1-3.7-3.1-3.7s-3.9,1.3-3.9,4v9h-2.3ZM326.9,588.9c-4.2,0-7.1-2.9-7.1-7.5v-.2c0-4.5,2.9-7.6,6.9-7.6s6.6,2.1,6.6,7.3v.8h-11.1c.1,3.4,1.7,5.2,4.7,5.2s3.6-.8,3.9-2.6h2.3c-.5,3-3,4.5-6.3,4.5ZM322.3,579.9h8.6c-.2-3-1.8-4.3-4.2-4.3s-4,1.6-4.4,4.3ZM348.1,588.9c-2.7,0-4.9-1.3-4.9-4.3s3.6-4.6,7.4-4.6h2.1v-1.1c0-2.3-.9-3.3-3.2-3.3s-3.2.8-3.4,2.7h-2.3c.3-3.4,3-4.6,5.8-4.6s5.4,1.2,5.4,5.3v9.7h-2.3v-1.9c-1.1,1.4-2.4,2.1-4.6,2.1ZM348.3,587.1c2.5,0,4.4-1.3,4.4-3.6v-1.8h-2c-3,0-5.1.7-5.1,2.9s.7,2.5,2.8,2.5ZM357.5,594.1v-2c1.7-.1,2.2-1,2.2-2.3v-15.9h2.3v15.7c0,2.8-1.2,4.3-4.5,4.5ZM360.8,570.8c-.8,0-1.6-.7-1.6-1.6s.7-1.6,1.6-1.6,1.6.7,1.6,1.6-.7,1.6-1.6,1.6ZM371.8,588.9c-2.9,0-5.1-1.6-5.1-5.7v-9.3h2.3v9.2c0,2.6,1.1,3.8,3.4,3.8s4.1-1.4,4.1-4v-8.9h2.3v14.8h-2.3v-2.3c-.7,1.4-2.3,2.6-4.7,2.6ZM389.1,588.9c-3.9,0-6.7-2.7-6.7-7.3v-.2c0-4.5,2.8-7.7,6.9-7.7s4,1.2,4.8,2.6v-9.4h2.3v21.8h-2.3v-2.5c-.8,1.4-2.9,2.8-5.1,2.8ZM389.4,587c2.7,0,4.9-1.8,4.9-5.6v-.2c0-3.8-1.8-5.6-4.7-5.6s-4.7,2.1-4.7,5.6v.2c0,3.7,2,5.5,4.5,5.5ZM404.9,588.9c-2.7,0-4.9-1.3-4.9-4.3s3.6-4.6,7.4-4.6h2.1v-1.1c0-2.3-.9-3.3-3.2-3.3s-3.2.8-3.4,2.7h-2.3c.3-3.4,3-4.6,5.8-4.6s5.4,1.2,5.4,5.3v9.7h-2.3v-1.9c-1.1,1.4-2.4,2.1-4.6,2.1ZM405.2,587.1c2.5,0,4.4-1.3,4.4-3.6v-1.8h-2c-3,0-5.1.7-5.1,2.9s.7,2.5,2.8,2.5ZM416.5,588.7v-14.8h2.3v2.7c.9-1.7,2.2-2.8,4.9-2.9v2.2c-3,.1-4.9,1.1-4.9,4.7v8.1h-2.3ZM434.6,588.7v-14.8h2.3v2.3c.7-1.4,2.3-2.6,4.7-2.6s5.2,1.7,5.2,6v9.1h-2.3v-9.2c0-2.6-1.1-3.8-3.5-3.8s-4.1,1.4-4.1,4v8.9h-2.3ZM455.1,588.9c-2.7,0-4.9-1.3-4.9-4.3s3.6-4.6,7.4-4.6h2.1v-1.1c0-2.3-.9-3.3-3.2-3.3s-3.2.8-3.4,2.7h-2.3c.3-3.4,3-4.6,5.8-4.6s5.4,1.2,5.4,5.3v9.7h-2.3v-1.9c-1.1,1.4-2.4,2.1-4.6,2.1ZM455.4,587.1c2.5,0,4.4-1.3,4.4-3.6v-1.8h-2c-3,0-5.1.7-5.1,2.9s.7,2.5,2.8,2.5ZM480,594.1c-4.4,0-6.3-2.1-6.7-4.5h2.4c.3,1.7,1.7,2.6,4.3,2.6s4.7-1.4,4.7-4.5v-2.1c-.8,1.4-2.9,2.8-5,2.8-3.9,0-6.7-2.9-6.7-7v-.2c0-4,2.8-7.3,6.9-7.3s4,1.2,4.8,2.6v-2.4h2.3v13.8c0,4.3-2.9,6.4-7.1,6.4ZM480,586.2c2.7,0,4.8-1.9,4.8-5.2v-.2c0-3.3-1.8-5.2-4.7-5.2s-4.7,2.2-4.7,5.3v.2c0,3.2,2.1,5.1,4.5,5.1ZM497.9,588.9c-4.2,0-7.1-2.9-7.1-7.5v-.2c0-4.5,2.9-7.6,6.9-7.6s6.6,2.1,6.6,7.3v.8h-11.1c.1,3.4,1.7,5.2,4.7,5.2s3.6-.8,3.9-2.6h2.3c-.5,3-3,4.5-6.3,4.5ZM493.3,579.9h8.6c-.2-3-1.8-4.3-4.2-4.3s-4,1.6-4.4,4.3ZM512.6,588.9c-3.5,0-5.6-1.8-5.8-4.8h2.3c.2,1.7,1.1,2.9,3.5,2.9s3.2-.8,3.2-2.3-1.2-2.1-3.4-2.5c-3.8-.7-5.1-1.8-5.1-4.3s2.7-4.1,5-4.1,4.9,1.1,5.3,4.3h-2.3c-.3-1.6-1.2-2.3-3.1-2.3s-2.8.8-2.8,2.1.7,1.9,3.4,2.3c3,.6,5.2,1.2,5.2,4.4s-1.8,4.5-5.4,4.5ZM526.1,588.9c-2.7,0-4-1.6-4-3.9v-9.1h-2.1v-2h2.1v-3.4h2.3v3.4h3.4v2h-3.4v8.9c0,1.4.6,2.1,1.8,2.1s1.3-.1,1.8-.3v2c-.5.2-1,.3-2,.3ZM535.4,588.9c-2.7,0-4.9-1.3-4.9-4.3s3.6-4.6,7.4-4.6h2.1v-1.1c0-2.3-.9-3.3-3.2-3.3s-3.2.8-3.4,2.7h-2.3c.3-3.4,3-4.6,5.8-4.6s5.4,1.2,5.4,5.3v9.7h-2.3v-1.9c-1.1,1.4-2.4,2.1-4.6,2.1ZM535.7,587.1c2.5,0,4.4-1.3,4.4-3.6v-1.8h-2c-3,0-5.1.7-5.1,2.9s.7,2.5,2.8,2.5ZM538.6,571.2c-1.2,0-2.2-1.2-3-1.2s-1,.5-1.1,1.3h-1.7c.2-2,1.4-3.3,2.9-3.3s2.2,1.2,3,1.2,1-.5,1.1-1.3h1.7c-.2,2-1.4,3.3-2.8,3.3ZM553.1,587c3,0,4.8-2.2,4.8-5.6v-.2c0-3.4-1.9-5.6-4.8-5.6s-4.8,2.2-4.8,5.6v.2c0,3.4,1.8,5.6,4.8,5.6ZM553.1,588.9c-4.2,0-7.2-3.2-7.2-7.5v-.2c0-4.4,3.1-7.5,7.3-7.5s7.3,3.1,7.3,7.5v.2c0,4.5-3.1,7.5-7.3,7.5ZM577.1,588.9c-3.9,0-6.7-2.7-6.7-7.3v-.2c0-4.5,2.8-7.7,6.9-7.7s4,1.2,4.8,2.6v-9.4h2.3v21.8h-2.3v-2.5c-.8,1.4-2.9,2.8-5.1,2.8ZM577.3,587c2.7,0,4.9-1.8,4.9-5.6v-.2c0-3.8-1.8-5.6-4.7-5.6s-4.7,2.1-4.7,5.6v.2c0,3.7,2,5.5,4.5,5.5ZM595.3,587c3,0,4.8-2.2,4.8-5.6v-.2c0-3.4-1.9-5.6-4.8-5.6s-4.8,2.2-4.8,5.6v.2c0,3.4,1.8,5.6,4.8,5.6ZM595.3,588.9c-4.2,0-7.2-3.2-7.2-7.5v-.2c0-4.4,3.1-7.5,7.3-7.5s7.3,3.1,7.3,7.5v.2c0,4.5-3.1,7.5-7.3,7.5ZM613.7,588.7v-14.8h2.3v2.3c.7-1.4,2.3-2.6,4.7-2.6s5.2,1.7,5.2,6v9.1h-2.3v-9.2c0-2.6-1.1-3.8-3.5-3.8s-4.1,1.4-4.1,4v8.9h-2.3ZM636.6,588.9c-4.2,0-7.1-2.9-7.1-7.5v-.2c0-4.5,2.9-7.6,6.9-7.6s6.6,2.1,6.6,7.3v.8h-11.1c.1,3.4,1.7,5.2,4.7,5.2s3.6-.8,3.9-2.6h2.3c-.5,3-3,4.5-6.3,4.5ZM632,579.9h8.6c-.2-3-1.8-4.3-4.2-4.3s-4,1.6-4.4,4.3ZM652.5,594.1c-4.4,0-6.3-2.1-6.7-4.5h2.4c.3,1.7,1.7,2.6,4.3,2.6s4.7-1.4,4.7-4.5v-2.1c-.8,1.4-2.9,2.8-5,2.8-3.9,0-6.7-2.9-6.7-7v-.2c0-4,2.8-7.3,6.9-7.3s4,1.2,4.8,2.6v-2.4h2.3v13.8c0,4.3-2.9,6.4-7.1,6.4ZM652.5,586.2c2.7,0,4.8-1.9,4.8-5.2v-.2c0-3.3-1.8-5.2-4.7-5.2s-4.7,2.2-4.7,5.3v.2c0,3.2,2.1,5.1,4.5,5.1ZM670.5,587c3,0,4.8-2.2,4.8-5.6v-.2c0-3.4-1.9-5.6-4.8-5.6s-4.8,2.2-4.8,5.6v.2c0,3.4,1.8,5.6,4.8,5.6ZM670.4,588.9c-4.2,0-7.2-3.2-7.2-7.5v-.2c0-4.4,3.1-7.5,7.3-7.5s7.3,3.1,7.3,7.5v.2c0,4.5-3.1,7.5-7.3,7.5ZM669.4,571.4l1.7-4.1h2.9l-2.9,4.1h-1.7ZM687.5,588.9c-4.1,0-7.2-2.9-7.2-7.5v-.2c0-4.5,3.2-7.6,7.2-7.6s6,1.4,6.4,5.2h-2.3c-.4-2.3-2.1-3.2-4.1-3.2s-4.7,2.1-4.7,5.6v.2c0,3.6,2,5.5,4.8,5.5s4-1.2,4.2-3.6h2.2c-.3,3.2-2.9,5.6-6.4,5.6ZM697.5,588.7v-14.8h2.3v14.8h-2.3ZM698.6,570.8c-.8,0-1.6-.7-1.6-1.6s.7-1.6,1.6-1.6,1.6.7,1.6,1.6-.7,1.6-1.6,1.6ZM710.8,587c3,0,4.8-2.2,4.8-5.6v-.2c0-3.4-1.9-5.6-4.8-5.6s-4.8,2.2-4.8,5.6v.2c0,3.4,1.8,5.6,4.8,5.6ZM710.7,588.9c-4.2,0-7.2-3.2-7.2-7.5v-.2c0-4.4,3.1-7.5,7.3-7.5s7.3,3.1,7.3,7.5v.2c0,4.5-3.1,7.5-7.3,7.5ZM721.1,592.1l-1.5-.8,2.7-6.2,2.3,1.1-3.5,5.9ZM742.4,588.9c-4.2,0-7.1-2.9-7.1-7.5v-.2c0-4.5,2.9-7.6,6.9-7.6s6.6,2.1,6.6,7.3v.8h-11.1c.1,3.4,1.7,5.2,4.7,5.2s3.6-.8,3.9-2.6h2.3c-.5,3-3,4.5-6.3,4.5ZM737.8,579.9h8.6c-.2-3-1.8-4.3-4.2-4.3s-4,1.6-4.4,4.3ZM760.4,588.7v-12.8h-2.1v-2h2.1v-2.4c0-3,1.4-4.7,4.3-4.7s1.2,0,1.6.2v2c-.4-.2-.9-.3-1.5-.3-1.5,0-2.1,1-2.1,2.5v2.7h3.6v2h-3.6v12.8h-2.3ZM769.3,588.7v-14.8h2.3v14.8h-2.3ZM770.4,570.8c-.8,0-1.6-.7-1.6-1.6s.7-1.6,1.6-1.6,1.6.7,1.6,1.6-.7,1.6-1.6,1.6ZM782.5,588.9c-4.1,0-7.2-2.9-7.2-7.5v-.2c0-4.5,3.2-7.6,7.2-7.6s6,1.4,6.4,5.2h-2.3c-.4-2.3-2.1-3.2-4.1-3.2s-4.7,2.1-4.7,5.6v.2c0,3.6,2,5.5,4.8,5.5s4-1.2,4.2-3.6h2.2c-.3,3.2-2.9,5.6-6.4,5.6ZM798.7,587c3,0,4.8-2.2,4.8-5.6v-.2c0-3.4-1.9-5.6-4.8-5.6s-4.8,2.2-4.8,5.6v.2c0,3.4,1.8,5.6,4.8,5.6ZM798.6,588.9c-4.2,0-7.2-3.2-7.2-7.5v-.2c0-4.4,3.1-7.5,7.3-7.5s7.3,3.1,7.3,7.5v.2c0,4.5-3.1,7.5-7.3,7.5ZM817.1,588.7v-21.8h2.4v21.8h-2.4ZM824.3,588.7v-14.8h2.3v14.8h-2.3ZM825.4,570.8c-.8,0-1.6-.7-1.6-1.6s.7-1.6,1.6-1.6,1.6.7,1.6,1.6-.7,1.6-1.6,1.6ZM835.1,588.7l-5.4-14.8h2.5l4.4,12.4,4.3-12.4h2.4l-5.3,14.8h-3ZM846.5,588.7v-14.8h2.3v2.7c.9-1.7,2.2-2.8,4.9-2.9v2.2c-3,.1-4.9,1.1-4.9,4.7v8.1h-2.3ZM862.8,588.9c-4.2,0-7.1-2.9-7.1-7.5v-.2c0-4.5,2.9-7.6,6.9-7.6s6.6,2.1,6.6,7.3v.8h-11.1c.1,3.4,1.7,5.2,4.7,5.2s3.6-.8,3.9-2.6h2.3c-.5,3-3,4.5-6.3,4.5ZM858.1,579.9h8.6c-.2-3-1.8-4.3-4.2-4.3s-4,1.6-4.4,4.3ZM163.9,636.1v-19.9h2.3v2.5c.8-1.4,2.9-2.7,5-2.7,3.9,0,6.7,2.8,6.7,7.4v.2c0,4.5-2.7,7.6-6.7,7.6s-4.1-1.2-5-2.7v7.6h-2.3ZM171,629.3c2.9,0,4.5-2,4.5-5.6v-.2c0-3.7-2.1-5.6-4.5-5.6s-4.8,1.8-4.8,5.6v.2c0,3.8,2,5.6,4.9,5.6ZM185.3,631.3c-2.7,0-4.9-1.3-4.9-4.3s3.6-4.6,7.4-4.6h2.1v-1.1c0-2.3-.9-3.3-3.2-3.3s-3.2.8-3.4,2.7h-2.3c.3-3.4,3-4.6,5.8-4.6s5.4,1.2,5.4,5.3v9.7h-2.3v-1.9c-1.1,1.4-2.4,2.1-4.6,2.1ZM185.5,629.4c2.5,0,4.4-1.3,4.4-3.6v-1.8h-2c-3,0-5.1.7-5.1,2.9s.7,2.5,2.8,2.5ZM196.8,631v-14.8h2.3v2.7c.9-1.7,2.2-2.8,4.9-2.9v2.2c-3,.1-4.9,1.1-4.9,4.7v8.1h-2.3ZM211,631.3c-2.7,0-4.9-1.3-4.9-4.3s3.6-4.6,7.4-4.6h2.1v-1.1c0-2.3-.9-3.3-3.2-3.3s-3.2.8-3.4,2.7h-2.3c.3-3.4,3-4.6,5.8-4.6s5.4,1.2,5.4,5.3v9.7h-2.3v-1.9c-1.1,1.4-2.4,2.1-4.6,2.1ZM211.2,629.4c2.5,0,4.4-1.3,4.4-3.6v-1.8h-2c-3,0-5.1.7-5.1,2.9s.7,2.5,2.8,2.5ZM235.6,631.3c-3.9,0-6.7-2.7-6.7-7.3v-.2c0-4.5,2.8-7.7,6.9-7.7s4,1.2,4.8,2.6v-9.4h2.3v21.8h-2.3v-2.5c-.8,1.4-2.9,2.8-5.1,2.8ZM235.8,629.3c2.7,0,4.9-1.8,4.9-5.6v-.2c0-3.8-1.8-5.6-4.7-5.6s-4.7,2.1-4.7,5.6v.2c0,3.7,2,5.5,4.5,5.5ZM253.7,631.3c-4.2,0-7.1-2.9-7.1-7.5v-.2c0-4.5,2.9-7.6,6.9-7.6s6.6,2.1,6.6,7.3v.8h-11.1c.1,3.4,1.7,5.2,4.7,5.2s3.6-.8,3.9-2.6h2.3c-.5,3-3,4.5-6.3,4.5ZM249.1,622.2h8.6c-.2-3-1.8-4.3-4.2-4.3s-4,1.6-4.4,4.3ZM269.3,631.3c-3.9,0-6.7-2.7-6.7-7.3v-.2c0-4.5,2.8-7.7,6.9-7.7s4,1.2,4.8,2.6v-9.4h2.3v21.8h-2.3v-2.5c-.8,1.4-2.9,2.8-5.1,2.8ZM269.5,629.3c2.7,0,4.9-1.8,4.9-5.6v-.2c0-3.8-1.8-5.6-4.7-5.6s-4.7,2.1-4.7,5.6v.2c0,3.7,2,5.5,4.5,5.5ZM281.5,631v-14.8h2.3v14.8h-2.3ZM282.6,613.2c-.8,0-1.6-.7-1.6-1.6s.7-1.6,1.6-1.6,1.6.7,1.6,1.6-.7,1.6-1.6,1.6ZM294.7,631.3c-4.1,0-7.2-2.9-7.2-7.5v-.2c0-4.5,3.2-7.6,7.2-7.6s6,1.4,6.4,5.2h-2.3c-.4-2.3-2.1-3.2-4.1-3.2s-4.7,2.1-4.7,5.6v.2c0,3.6,2,5.5,4.8,5.5s4-1.2,4.2-3.6h2.2c-.3,3.2-2.9,5.6-6.4,5.6ZM308.4,631.3c-2.7,0-4.9-1.3-4.9-4.3s3.6-4.6,7.4-4.6h2.1v-1.1c0-2.3-.9-3.3-3.2-3.3s-3.2.8-3.4,2.7h-2.3c.3-3.4,3-4.6,5.8-4.6s5.4,1.2,5.4,5.3v9.7h-2.3v-1.9c-1.1,1.4-2.4,2.1-4.6,2.1ZM308.6,629.4c2.5,0,4.4-1.3,4.4-3.6v-1.8h-2c-3,0-5.1.7-5.1,2.9s.7,2.5,2.8,2.5ZM320,631v-14.8h2.3v2.7c.9-1.7,2.2-2.8,4.9-2.9v2.2c-3,.1-4.9,1.1-4.9,4.7v8.1h-2.3ZM338,631v-14.8h2.3v2.3c.7-1.4,2.3-2.5,4.4-2.5s3.6.8,4.3,2.8c1-1.9,3.2-2.8,5.1-2.8,2.7,0,5,1.6,5,5.9v9.1h-2.3v-9.3c0-2.6-1.1-3.7-3.1-3.7s-3.9,1.3-3.9,4v9h-2.3v-9.3c0-2.6-1.1-3.7-3.1-3.7s-3.9,1.3-3.9,4v9h-2.3ZM369.8,631.3c-4.2,0-7.1-2.9-7.1-7.5v-.2c0-4.5,2.9-7.6,6.9-7.6s6.6,2.1,6.6,7.3v.8h-11.1c.1,3.4,1.7,5.2,4.7,5.2s3.6-.8,3.9-2.6h2.3c-.5,3-3,4.5-6.3,4.5ZM365.1,622.2h8.6c-.2-3-1.8-4.3-4.2-4.3s-4,1.6-4.4,4.3ZM384.8,631.3c-2.9,0-5.1-1.6-5.1-5.7v-9.3h2.3v9.2c0,2.6,1.1,3.8,3.4,3.8s4.1-1.4,4.1-4v-8.9h2.3v14.8h-2.3v-2.3c-.7,1.4-2.3,2.6-4.7,2.6ZM408.5,631.2c-2.7,0-4-1.6-4-3.9v-9.1h-2.1v-2h2.1v-3.4h2.3v3.4h3.4v2h-3.4v8.9c0,1.4.6,2.1,1.8,2.1s1.3-.1,1.8-.3v2c-.5.2-1,.3-2,.3ZM420.1,631.3c-4.2,0-7.1-2.9-7.1-7.5v-.2c0-4.5,2.9-7.6,6.9-7.6s6.6,2.1,6.6,7.3v.8h-11.1c.1,3.4,1.7,5.2,4.7,5.2s3.6-.8,3.9-2.6h2.3c-.5,3-3,4.5-6.3,4.5ZM415.4,622.2h8.6c-.2-3-1.8-4.3-4.2-4.3s-4,1.6-4.4,4.3ZM430.1,631v-14.8h2.3v2.3c.7-1.4,2.3-2.5,4.4-2.5s3.6.8,4.3,2.8c1-1.9,3.2-2.8,5.1-2.8,2.7,0,5,1.6,5,5.9v9.1h-2.3v-9.3c0-2.6-1.1-3.7-3.1-3.7s-3.9,1.3-3.9,4v9h-2.3v-9.3c0-2.6-1.1-3.7-3.1-3.7s-3.9,1.3-3.9,4v9h-2.3ZM455.8,636.1v-19.9h2.3v2.5c.8-1.4,2.9-2.7,5-2.7,3.9,0,6.7,2.8,6.7,7.4v.2c0,4.5-2.7,7.6-6.7,7.6s-4.1-1.2-5-2.7v7.6h-2.3ZM462.9,629.3c2.9,0,4.5-2,4.5-5.6v-.2c0-3.7-2.1-5.6-4.5-5.6s-4.8,1.8-4.8,5.6v.2c0,3.8,2,5.6,4.9,5.6ZM479.6,629.3c3,0,4.8-2.2,4.8-5.6v-.2c0-3.4-1.9-5.6-4.8-5.6s-4.8,2.2-4.8,5.6v.2c0,3.4,1.8,5.6,4.8,5.6ZM479.6,631.3c-4.2,0-7.2-3.2-7.2-7.5v-.2c0-4.4,3.1-7.5,7.3-7.5s7.3,3.1,7.3,7.5v.2c0,4.5-3.1,7.5-7.3,7.5ZM504,631.3c-4.2,0-7.1-2.9-7.1-7.5v-.2c0-4.5,2.9-7.6,6.9-7.6s6.6,2.1,6.6,7.3v.8h-11.1c.1,3.4,1.7,5.2,4.7,5.2s3.6-.8,3.9-2.6h2.3c-.5,3-3,4.5-6.3,4.5ZM499.4,622.2h8.6c-.2-3-1.8-4.3-4.2-4.3s-4,1.6-4.4,4.3ZM514,631v-14.8h2.3v2.3c.7-1.4,2.3-2.5,4.4-2.5s3.6.8,4.3,2.8c1-1.9,3.2-2.8,5.1-2.8,2.7,0,5,1.6,5,5.9v9.1h-2.3v-9.3c0-2.6-1.1-3.7-3.1-3.7s-3.9,1.3-3.9,4v9h-2.3v-9.3c0-2.6-1.1-3.7-3.1-3.7s-3.9,1.3-3.9,4v9h-2.3ZM553.3,629.3c3,0,4.8-2.2,4.8-5.6v-.2c0-3.4-1.9-5.6-4.8-5.6s-4.8,2.2-4.8,5.6v.2c0,3.4,1.8,5.6,4.8,5.6ZM553.3,631.3c-4.2,0-7.2-3.2-7.2-7.5v-.2c0-4.4,3.1-7.5,7.3-7.5s7.3,3.1,7.3,7.5v.2c0,4.5-3.1,7.5-7.3,7.5ZM569.2,631.3c-2.9,0-5.1-1.6-5.1-5.7v-9.3h2.3v9.2c0,2.6,1.1,3.8,3.4,3.8s4.1-1.4,4.1-4v-8.9h2.3v14.8h-2.3v-2.3c-.7,1.4-2.3,2.6-4.7,2.6ZM585.4,631.2c-2.7,0-4-1.6-4-3.9v-9.1h-2.1v-2h2.1v-3.4h2.3v3.4h3.4v2h-3.4v8.9c0,1.4.6,2.1,1.8,2.1s1.3-.1,1.8-.3v2c-.5.2-1,.3-2,.3ZM591,631v-14.8h2.3v2.7c.9-1.7,2.2-2.8,4.9-2.9v2.2c-3,.1-4.9,1.1-4.9,4.7v8.1h-2.3ZM605.2,631.3c-2.7,0-4.9-1.3-4.9-4.3s3.6-4.6,7.4-4.6h2.1v-1.1c0-2.3-.9-3.3-3.2-3.3s-3.2.8-3.4,2.7h-2.3c.3-3.4,3-4.6,5.8-4.6s5.4,1.2,5.4,5.3v9.7h-2.3v-1.9c-1.1,1.4-2.4,2.1-4.6,2.1ZM605.4,629.4c2.5,0,4.4-1.3,4.4-3.6v-1.8h-2c-3,0-5.1.7-5.1,2.9s.7,2.5,2.8,2.5ZM621.3,631.3c-3.5,0-5.6-1.8-5.8-4.8h2.3c.2,1.7,1.1,2.9,3.5,2.9s3.2-.8,3.2-2.3-1.2-2.1-3.4-2.5c-3.8-.7-5.1-1.8-5.1-4.3s2.7-4.1,5-4.1,4.9,1.1,5.3,4.3h-2.3c-.3-1.6-1.2-2.3-3.1-2.3s-2.8.8-2.8,2.1.7,1.9,3.4,2.3c3,.6,5.2,1.2,5.2,4.4s-1.8,4.5-5.4,4.5ZM638.2,631v-12.8h-2.1v-2h2.1v-2.4c0-3,1.5-4.7,4.4-4.7s1.2,0,1.7.3v2c-.4-.2-1-.3-1.7-.3-1.5,0-2.1,1-2.1,2.5v2.7h3.6v2h-3.6v12.8h-2.3ZM652.5,631.3c-2.9,0-5.1-1.6-5.1-5.7v-9.3h2.3v9.2c0,2.6,1.1,3.8,3.4,3.8s4.1-1.4,4.1-4v-8.9h2.3v14.8h-2.3v-2.3c-.7,1.4-2.3,2.6-4.7,2.6ZM664.2,631v-14.8h2.3v2.3c.7-1.4,2.3-2.6,4.7-2.6s5.2,1.7,5.2,6v9.1h-2.3v-9.2c0-2.6-1.1-3.8-3.5-3.8s-4.1,1.4-4.1,4v8.9h-2.3ZM686.8,637c-1.6,0-2.7-1-2.8-2.4h1.5c.1.5.5,1,1.2,1s1.1-.4,1.1-1-.4-1-1-1-.6.1-.8.2l-.9-.8,1.1-1.9c-3.6-.4-6.2-3.2-6.2-7.4v-.2c0-4.5,3.2-7.6,7.2-7.6s6,1.4,6.4,5.2h-2.3c-.4-2.3-2.1-3.2-4.1-3.2s-4.7,2.1-4.7,5.6v.2c0,3.6,2,5.5,4.8,5.5s4-1.2,4.2-3.6h2.2c-.3,3-2.7,5.3-6,5.5l-.7,1.3c1.3-.2,2.7.6,2.7,2.3s-1.3,2.3-2.9,2.3ZM703.4,629.3c3,0,4.8-2.2,4.8-5.6v-.2c0-3.4-1.9-5.6-4.8-5.6s-4.8,2.2-4.8,5.6v.2c0,3.4,1.8,5.6,4.8,5.6ZM703.3,631.3c-4.2,0-7.2-3.2-7.2-7.5v-.2c0-4.4,3.1-7.5,7.3-7.5s7.3,3.1,7.3,7.5v.2c0,4.5-3.1,7.5-7.3,7.5ZM704.9,613.5c-1.2,0-2.2-1.2-3-1.2s-1,.5-1.1,1.3h-1.7c.2-2,1.4-3.3,2.9-3.3s2.2,1.2,3,1.2,1-.5,1.1-1.3h1.7c-.2,2-1.4,3.3-2.8,3.3ZM720.3,631.3c-4.2,0-7.1-2.9-7.1-7.5v-.2c0-4.5,2.9-7.6,6.9-7.6s6.6,2.1,6.6,7.3v.8h-11.1c.1,3.4,1.7,5.2,4.7,5.2s3.6-.8,3.9-2.6h2.3c-.5,3-3,4.5-6.3,4.5ZM715.7,622.2h8.6c-.2-3-1.8-4.3-4.2-4.3s-4,1.6-4.4,4.3ZM735,631.3c-3.5,0-5.6-1.8-5.8-4.8h2.3c.2,1.7,1.1,2.9,3.5,2.9s3.2-.8,3.2-2.3-1.2-2.1-3.4-2.5c-3.8-.7-5.1-1.8-5.1-4.3s2.7-4.1,5-4.1,4.9,1.1,5.3,4.3h-2.3c-.3-1.6-1.2-2.3-3.1-2.3s-2.8.8-2.8,2.1.7,1.9,3.4,2.3c3,.6,5.2,1.2,5.2,4.4s-1.8,4.5-5.4,4.5ZM744.2,634.5l-1.5-.8,2.7-6.2,2.3,1.1-3.5,5.9ZM759.4,631v-14.8h2.3v2.7c.9-1.7,2.2-2.8,4.9-2.9v2.2c-3,.1-4.9,1.1-4.9,4.7v8.1h-2.3ZM775.7,631.3c-4.2,0-7.1-2.9-7.1-7.5v-.2c0-4.5,2.9-7.6,6.9-7.6s6.6,2.1,6.6,7.3v.8h-11.1c.1,3.4,1.7,5.2,4.7,5.2s3.6-.8,3.9-2.6h2.3c-.5,3-3,4.5-6.3,4.5ZM771,622.2h8.6c-.2-3-1.8-4.3-4.2-4.3s-4,1.6-4.4,4.3ZM791.8,631.3c-4.1,0-7.2-2.9-7.2-7.5v-.2c0-4.5,3.2-7.6,7.2-7.6s6,1.4,6.4,5.2h-2.3c-.4-2.3-2.1-3.2-4.1-3.2s-4.7,2.1-4.7,5.6v.2c0,3.6,2,5.5,4.8,5.5s4-1.2,4.2-3.6h2.2c-.3,3.2-2.9,5.6-6.4,5.6ZM807.9,629.3c3,0,4.8-2.2,4.8-5.6v-.2c0-3.4-1.9-5.6-4.8-5.6s-4.8,2.2-4.8,5.6v.2c0,3.4,1.8,5.6,4.8,5.6ZM807.9,631.3c-4.2,0-7.2-3.2-7.2-7.5v-.2c0-4.4,3.1-7.5,7.3-7.5s7.3,3.1,7.3,7.5v.2c0,4.5-3.1,7.5-7.3,7.5ZM818.8,631v-14.8h2.3v2.3c.7-1.4,2.3-2.5,4.4-2.5s3.6.8,4.3,2.8c1-1.9,3.2-2.8,5.1-2.8,2.7,0,5,1.6,5,5.9v9.1h-2.3v-9.3c0-2.6-1.1-3.7-3.1-3.7s-3.9,1.3-3.9,4v9h-2.3v-9.3c0-2.6-1.1-3.7-3.1-3.7s-3.9,1.3-3.9,4v9h-2.3ZM850.5,631.3c-4.2,0-7.1-2.9-7.1-7.5v-.2c0-4.5,2.9-7.6,6.9-7.6s6.6,2.1,6.6,7.3v.8h-11.1c.1,3.4,1.7,5.2,4.7,5.2s3.6-.8,3.9-2.6h2.3c-.5,3-3,4.5-6.3,4.5ZM845.9,622.2h8.6c-.2-3-1.8-4.3-4.2-4.3s-4,1.6-4.4,4.3ZM860.5,631v-14.8h2.3v2.3c.7-1.4,2.3-2.6,4.7-2.6s5.2,1.7,5.2,6v9.1h-2.3v-9.2c0-2.6-1.1-3.8-3.5-3.8s-4.1,1.4-4.1,4v8.9h-2.3ZM882.9,631.3c-3.9,0-6.7-2.7-6.7-7.3v-.2c0-4.5,2.8-7.7,6.9-7.7s4,1.2,4.8,2.6v-9.4h2.3v21.8h-2.3v-2.5c-.8,1.4-2.9,2.8-5.1,2.8ZM883.2,629.3c2.7,0,4.9-1.8,4.9-5.6v-.2c0-3.8-1.8-5.6-4.7-5.6s-4.7,2.1-4.7,5.6v.2c0,3.7,2,5.5,4.5,5.5ZM901.2,629.3c3,0,4.8-2.2,4.8-5.6v-.2c0-3.4-1.9-5.6-4.8-5.6s-4.8,2.2-4.8,5.6v.2c0,3.4,1.8,5.6,4.8,5.6ZM901.2,631.3c-4.2,0-7.2-3.2-7.2-7.5v-.2c0-4.4,3.1-7.5,7.3-7.5s7.3,3.1,7.3,7.5v.2c0,4.5-3.1,7.5-7.3,7.5ZM913.8,631.1c-1,0-1.8-.8-1.8-1.8s.8-1.8,1.8-1.8,1.8.8,1.8,1.8-.8,1.8-1.8,1.8ZM912.9,625.3l-.4-14.5h2.6l-.4,14.5h-1.8Z"/>
  <path class="st8" d="M164.8,463v-26.2h9.1c6.4,0,10,2.8,10,8.4h0c0,5.7-3.9,8.3-9.8,8.3h-3.3v9.5h-5.9ZM170.7,449.3h3c2.9,0,4.4-1.4,4.4-4h0c0-2.9-1.6-4-4.4-4h-3v8ZM187.3,463v-19.2h5.3v3.7c1.2-2.6,3.1-3.9,6.2-4v5c-3.9,0-6.2,1.2-6.2,4.9v9.6h-5.3ZM207.1,463.4c-3.5,0-6.4-1.7-6.4-5.7s4.1-6.2,10-6.2h2.2v-.8c0-2.3-.7-3.5-3.1-3.5s-3,1.1-3.3,2.7h-5c.3-4.5,3.9-6.6,8.6-6.6s8,1.9,8,7.1v12.5h-5.2v-2.3c-1.1,1.5-2.8,2.7-5.8,2.7ZM208.7,459.7c2.3,0,4.1-1.3,4.1-3.4v-1.6h-2.1c-3.1,0-4.9.7-4.9,2.7s.8,2.3,2.8,2.3ZM207.9,441.2l2.1-5.8h5.6l-3.8,5.8h-3.9ZM229.7,463.4c-4,0-6.2-2.1-6.2-6.1v-9.7h-2.5v-3.8h2.5v-4.1h5.3v4.1h4v3.8h-4v9.2c0,1.5.8,2.3,2.1,2.3s1.4-.1,2-.4v4.1c-.7.3-1.8.5-3.2.5ZM236.7,463v-19.2h5.3v19.2h-5.3ZM239.3,441.2c-1.7,0-3-1.2-3-2.9s1.3-2.9,3-2.9,3,1.2,3,2.9-1.3,2.9-3,2.9ZM255.5,463.4c-5.6,0-9.9-3.5-9.9-9.8v-.3c0-6.2,4.4-10,9.9-10s8.5,1.9,9,7.4h-5c-.4-2.2-1.7-3.3-3.9-3.3s-4.6,2.1-4.6,5.7v.3c0,3.9,1.7,5.8,4.7,5.8s3.9-1.2,4.1-3.7h4.8c-.3,4.5-3.6,7.7-9.2,7.7ZM277,459.4c3,0,4.7-2.2,4.7-5.8v-.3c0-3.7-1.7-5.9-4.7-5.9s-4.7,2.1-4.7,5.8v.3c0,3.7,1.7,5.9,4.7,5.9ZM277,463.4c-5.7,0-10.1-3.8-10.1-9.8v-.3c0-6,4.4-9.9,10.1-9.9s10.1,3.9,10.1,9.8v.3c0,6.1-4.4,9.9-10.1,9.9ZM307.6,463.4c-5.8,0-10-3.6-10-9.8v-.3c0-6.1,4.3-10,9.9-10s9.4,2.9,9.4,9.8v1.5h-13.8c.1,3.2,1.9,5,4.8,5s3.7-1.1,4-2.7h5c-.6,4.1-3.9,6.5-9.2,6.5ZM303.1,451.3h8.6c-.2-2.9-1.7-4.3-4.2-4.3s-4,1.6-4.4,4.3ZM328.5,469.5v-25.7h5.3v3c1.1-1.8,3.3-3.4,6.1-3.4,4.7,0,8.4,3.5,8.4,9.8v.3c0,6.3-3.6,9.9-8.4,9.9s-5.1-1.5-6.1-3.3v9.5h-5.3ZM338.3,459.3c2.9,0,4.5-2,4.5-5.7v-.3c0-3.9-1.9-5.8-4.6-5.8s-4.7,1.9-4.7,5.8v.3c0,3.9,1.8,5.7,4.7,5.7ZM360.8,459.4c3,0,4.7-2.2,4.7-5.8v-.3c0-3.7-1.7-5.9-4.7-5.9s-4.7,2.1-4.7,5.8v.3c0,3.7,1.7,5.9,4.7,5.9ZM360.7,463.4c-5.7,0-10.1-3.8-10.1-9.8v-.3c0-6,4.4-9.9,10.1-9.9s10.1,3.9,10.1,9.8v.3c0,6.1-4.4,9.9-10.1,9.9ZM380.8,463.4c-3.7,0-6.5-2.2-6.5-7.2v-12.4h5.3v11.6c0,2.6,1.1,3.9,3.3,3.9s4-1.4,4-4.2v-11.3h5.3v19.2h-5.3v-3c-1,1.9-2.9,3.4-6.1,3.4ZM396.9,469.5v-25.7h5.3v3c1.1-1.8,3.3-3.4,6.1-3.4,4.7,0,8.4,3.5,8.4,9.8v.3c0,6.3-3.6,9.9-8.4,9.9s-5.1-1.5-6.1-3.3v9.5h-5.3ZM406.8,459.3c2.9,0,4.5-2,4.5-5.7v-.3c0-3.9-1.9-5.8-4.6-5.8s-4.7,1.9-4.7,5.8v.3c0,3.9,1.8,5.7,4.7,5.7ZM425.4,463.4c-3.5,0-6.4-1.7-6.4-5.7s4.1-6.2,10-6.2h2.2v-.8c0-2.3-.7-3.5-3.1-3.5s-3,1.1-3.3,2.7h-5c.3-4.5,3.9-6.6,8.6-6.6s8,1.9,8,7.1v12.5h-5.2v-2.3c-1.1,1.5-2.8,2.7-5.8,2.7ZM427,459.7c2.3,0,4.1-1.3,4.1-3.4v-1.6h-2.1c-3.1,0-4.9.7-4.9,2.7s.8,2.3,2.8,2.3ZM449.1,463v-19.2h5.3v2.9c1-1.8,3-3.4,5.9-3.4s4.4,1.1,5.4,3.3c1.5-2.3,4-3.3,6.5-3.3,3.6,0,6.3,2.2,6.3,7.3v12.3h-5.3v-11.7c0-2.5-1.1-3.6-3-3.6s-3.7,1.3-3.7,3.9v11.3h-5.3v-11.7c0-2.5-1.1-3.6-3-3.6s-3.7,1.3-3.7,3.9v11.3h-5.3ZM491.8,463.4c-5.8,0-10-3.6-10-9.8v-.3c0-6.1,4.3-10,9.9-10s9.4,2.9,9.4,9.8v1.5h-13.8c.1,3.2,1.9,5,4.8,5s3.7-1.1,4-2.7h5c-.6,4.1-3.9,6.5-9.2,6.5ZM487.3,451.3h8.6c-.2-2.9-1.7-4.3-4.2-4.3s-4,1.6-4.4,4.3ZM510.9,463.4c-3.7,0-6.5-2.2-6.5-7.2v-12.4h5.3v11.6c0,2.6,1.1,3.9,3.3,3.9s4-1.4,4-4.2v-11.3h5.3v19.2h-5.3v-3c-1,1.9-2.9,3.4-6.1,3.4ZM542.1,463.4c-4,0-6.2-2.1-6.2-6.1v-9.7h-2.5v-3.8h2.5v-4.1h5.3v4.1h4v3.8h-4v9.2c0,1.5.8,2.3,2.1,2.3s1.4-.1,2-.4v4.1c-.7.3-1.8.5-3.2.5ZM557.8,463.4c-5.8,0-10-3.6-10-9.8v-.3c0-6.1,4.3-10,9.9-10s9.4,2.9,9.4,9.8v1.5h-13.8c.1,3.2,1.9,5,4.8,5s3.7-1.1,4-2.7h5c-.6,4.1-3.9,6.5-9.2,6.5ZM553.2,451.3h8.6c-.2-2.9-1.7-4.3-4.2-4.3s-4,1.6-4.4,4.3ZM570.5,463v-19.2h5.3v2.9c1-1.8,3-3.4,5.9-3.4s4.4,1.1,5.4,3.3c1.5-2.3,4-3.3,6.5-3.3,3.6,0,6.3,2.2,6.3,7.3v12.3h-5.3v-11.7c0-2.5-1.1-3.6-3-3.6s-3.7,1.3-3.7,3.9v11.3h-5.3v-11.7c0-2.5-1.1-3.6-3-3.6s-3.7,1.3-3.7,3.9v11.3h-5.3ZM604.3,469.5v-25.7h5.3v3c1.1-1.8,3.3-3.4,6.1-3.4,4.7,0,8.4,3.5,8.4,9.8v.3c0,6.3-3.6,9.9-8.4,9.9s-5.1-1.5-6.1-3.3v9.5h-5.3ZM614.2,459.3c2.9,0,4.5-2,4.5-5.7v-.3c0-3.9-1.9-5.8-4.6-5.8s-4.7,1.9-4.7,5.8v.3c0,3.9,1.8,5.7,4.7,5.7ZM636.6,459.4c3,0,4.7-2.2,4.7-5.8v-.3c0-3.7-1.7-5.9-4.7-5.9s-4.7,2.1-4.7,5.8v.3c0,3.7,1.7,5.9,4.7,5.9ZM636.6,463.4c-5.7,0-10.1-3.8-10.1-9.8v-.3c0-6,4.4-9.9,10.1-9.9s10.1,3.9,10.1,9.8v.3c0,6.1-4.4,9.9-10.1,9.9Z"/>
  <path class="st2" d="M166.2,752.3v-22.2h6.3c4.3,0,7.8,1.9,7.8,6.5h0c0,4.8-3.5,6.7-7.8,6.7h-3.6v9h-2.7ZM168.9,741.1h3.8c3.2,0,4.9-1.6,4.9-4.4h0c0-3.3-1.9-4.4-4.9-4.4h-3.8v8.8ZM190.4,750.4c3.3,0,5.3-2.5,5.3-6.1v-.2c0-3.8-2.1-6.2-5.3-6.2s-5.3,2.4-5.3,6.1v.2c0,3.7,2,6.1,5.3,6.1ZM190.3,752.6c-4.6,0-7.9-3.5-7.9-8.3v-.2c0-4.9,3.4-8.3,8-8.3s8,3.4,8,8.3v.2c0,4.9-3.4,8.3-8,8.3ZM202.3,752.3v-16.2h2.6v2.9c1-1.8,2.4-3.1,5.3-3.2v2.4c-3.3.2-5.3,1.2-5.3,5.2v8.9h-2.6ZM228.3,752.6c-4.3,0-7.3-3-7.3-8.1v-.2c0-5,3.1-8.5,7.6-8.5s4.4,1.3,5.3,2.9v-10.4h2.6v24h-2.6v-2.8c-.9,1.6-3.2,3.1-5.6,3.1ZM228.6,750.4c3,0,5.4-2,5.4-6.1v-.2c0-4.2-2-6.1-5.2-6.1s-5.2,2.3-5.2,6.2v.2c0,4.1,2.2,6.1,4.9,6.1ZM245.8,752.6c-3,0-5.4-1.5-5.4-4.8s4-5,8.1-5h2.3v-1.2c0-2.6-1-3.7-3.5-3.7s-3.5.9-3.7,2.9h-2.6c.3-3.7,3.3-5.1,6.4-5.1s5.9,1.3,5.9,5.8v10.7h-2.6v-2c-1.2,1.5-2.7,2.3-5.1,2.3ZM246,750.5c2.7,0,4.8-1.4,4.8-3.9v-2h-2.2c-3.3,0-5.7.8-5.7,3.2s.8,2.7,3.1,2.7ZM258.5,752.3v-16.2h2.6v2.6c.7-1.5,2.5-2.9,5.2-2.9s5.7,1.8,5.7,6.6v10h-2.6v-10.2c0-2.9-1.2-4.1-3.8-4.1s-4.5,1.5-4.5,4.4v9.8h-2.6ZM275,752.3v-.6l8.8-9.3c2-2.1,3.2-4.2,3.2-6.4s-1.5-4-4-4-4.3,1.5-4.7,4.9h-2.5c.3-4.3,3-7.1,7.2-7.1s6.7,2.4,6.7,6.2-1.7,5.4-4.5,8.1l-6.1,6h10.7v2.2h-14.9ZM300.6,752.6c-4.7,0-7.6-2.9-7.8-6.8h2.5c.2,2.6,1.8,4.7,5.3,4.7s5.1-1.7,5.1-4.3-1.6-4.3-4.7-4.3h-1.7v-2.3h1.6c2.9,0,4.2-1.4,4.2-3.8s-1.3-3.7-4-3.7-4.6,1.7-4.9,4.2h-2.4c.2-3.5,3-6.4,7.3-6.4s6.7,2.8,6.7,5.9-1.5,4-3.5,4.8c2.6.7,4.3,2.5,4.3,5.6s-3.3,6.5-7.9,6.5ZM322.4,752.3v-4.7h-11.1v-.9l10.2-16.7h3.6v15.3h3.1v2.2h-3.1v4.7h-2.6ZM314.7,745.4h7.7v-13.3l-7.7,13.3ZM337.9,752.6c-4.8,0-7.1-2.6-7.4-6.3h2.6c.4,2.4,1.4,4.1,4.8,4.1s4.9-2,4.9-5.4-1.8-5.2-4.7-5.2-4.1.8-5.2,2.1h-1v-11.9h12.5v2.3h-10.2v6.8c.9-.8,2.4-1.5,4.5-1.5,4,0,6.9,2.8,6.9,7.4s-3.4,7.5-7.6,7.5ZM355.8,752.6c-4.8,0-7.1-2.6-7.4-6.3h2.6c.4,2.4,1.4,4.1,4.8,4.1s4.9-2,4.9-5.4-1.8-5.2-4.7-5.2-4.1.8-5.2,2.1h-1v-11.9h12.5v2.3h-10.2v6.8c.9-.8,2.4-1.5,4.5-1.5,4,0,6.9,2.8,6.9,7.4s-3.4,7.5-7.6,7.5ZM368.8,752.3l7.7-20h-11.3v-2.2h14.6v.4l-8.3,21.8h-2.8Z"/>
  <g class="st10">
    <path class="st9" d="M183.8,317.1l6,14.4,15.5,1.2-11.8,10.1,3.6,15.1-13.3-8.1-13.3,8.1,3.6-15.1-11.8-10.1,15.5-1.2,6-14.4Z"/>
  </g>
  <g class="st4">
    <path class="st9" d="M251.5,317.1l6,14.4,15.5,1.2-11.8,10.1,3.6,15.1-13.3-8.1-13.3,8.1,3.6-15.1-11.8-10.1,15.5-1.2,6-14.4Z"/>
  </g>
  <g class="st7">
    <path class="st9" d="M319.3,317.1l6,14.4,15.5,1.2-11.8,10.1,3.6,15.1-13.3-8.1-13.3,8.1,3.6-15.1-11.8-10.1,15.5-1.2,6-14.4Z"/>
  </g>
  <g class="st5">
    <path class="st9" d="M387,317.1l6,14.4,15.5,1.2-11.8,10.1,3.6,15.1-13.3-8.1-13.3,8.1,3.6-15.1-11.8-10.1,15.5-1.2,6-14.4Z"/>
  </g>
  <g class="st6">
    <path class="st9" d="M454.7,317.1l6,14.4,15.5,1.2-11.8,10.1,3.6,15.1-13.3-8.1-13.3,8.1,3.6-15.1-11.8-10.1,15.5-1.2,6-14.4Z"/>
  </g>
  <path class="st8" d="M987.8,186.2c-.1.3-.3.5-.5.7-.2.2-.5.3-.7.4-.7.2-1.3.2-2,.1-.5,0-1.6-.8-1.5-1.2.1-.8.3-1.5.5-2.3.1-.5,3.9-5.8,5.1-7.6,1.2-1.7,2.5-3.4,3.9-5,2.9-3.2,5.6-6.5,8.5-9.6.7-.7,1.4-1.3,2.1-1.9,2.5-2.1,4.8-4.4,6.9-6.9.4-.4.7-.8.9-1.4.3-.9,6.4-7.4,7.3-8.1,2.4-1.7,4.6-3.5,6.9-5.2.3-.3.6-.6,1-.6.9-.1,1.8-.6,2.4-1.3,1-.8,2-1.5,3.1-2.1.6-.3,1.3-.4,2-.5.6-.1,1.1,1,1,1.1-.2.6.5.7.8,1,.1.1.2.2.3.4-.5,1.2-1,2.3-1.7,3.4-.6,1.3-1.4,2.5-2.2,3.7,0,0-.5.5-1.2,1.2l-2.5,2.7c-1.8,2-3.7,4.1-4.1,4.5-.4.4-.9.8-1.5,1.1-.2.2-5.6,6.3-5.9,6.5-1.1,1.3-2.4,2.4-3.9,3.2-.3.2-.6.4-.8.7-2,2.1-4.2,4-6.3,5.9-1.1,1-2.1,2.1-3.1,3.2-.2.2-.4.3-.7.5-.3.2-.5.4-.8.6-2.4,2.6-5,4.9-7.3,7.6-.5.6-3.6,3-4.2,3.7-.3.4-2.1,1.1-2.3,1.5Z"/>
  <path class="st8" d="M1018.8,175.4c-.3.3-.7.5-1.1.5-.4,0-.8,0-1.2-.1-.3,0-.7-.7-.6-.9.2-.5.5-.9.8-1.4.2-.2,3.4-3.6,4.4-4.9.5-.6,1-1.2,1.6-1.7.5-.5,1.2-1,1.8-1.4l7.2-5.8c.5-.4,1.1-.8,1.7-1.1,2.1-1.1,4-2.4,5.8-4,.4-.2.6-.5.8-.9.3-.7,5.4-4.4,6.2-4.7,1-.4,1.9-.8,2.8-1.3.9-.4,1.9-.8,2.9-1.2.3-.1.5-.4.9-.3.3,0,.7,0,1,0,.3,0,.6-.3.9-.5.8-.4,1.6-.8,2.4-1.2.5-.1,1-.2,1.5-.2.4,0,.8.7.7.9-.2.5.3.6.6.8,0,0,.2.2.2.3-1,1.7-2.1,3.4-3.3,5l-2.9,2.8c-1.5,1.3-3.1,2.6-3.4,2.9-.4.3-.8.5-1.2.6-.2,0-4.7,4-4.9,4.1-.9.8-2.1,1.4-3.3,1.7-.2,0-.5.2-.7.3-1.8,1.2-3.6,2.2-5.5,3.2-.9.5-1.8,1.2-2.7,1.8-.2,0-.4.2-.6.2-.2,0-.5.2-.7.3-2.1,1.4-4.3,2.7-6.5,4-.5.3-3.2,1.3-3.7,1.7-.3.2-1.7.3-2,.5Z"/>
  <path class="st8" d="M1006.1,216.5c-.5.7-1.4.5-2.7-.3-.4-.2-1-1.3-.9-1.6.2-.5.4-1.1.6-1.6.2-.3,3.5-3.5,4.6-4.5,1.1-1,2.3-1.9,3.6-2.7,2.6-1.6,5.2-3.2,7.7-4.7.6-.3,1.2-.6,1.8-.8,2.2-.8,4.2-1.8,6.2-3.1.4-.2.7-.4.9-.7.3-.6,5.7-3.7,6.5-3.9,2-.6,3.8-1.3,5.7-1.9.3,0,.5-.3.9-.1.3,0,.7.1,1,0,.3,0,.6-.2.9-.4.8-.4,1.6-.7,2.4-.9.5,0,1,0,1.5,0,.5,0,.8,1,.7,1.1-.2.5.3.7.5,1,0,.1.2.2.2.4-1.1,1.6-2.4,3.1-3.8,4.4,0,0-.4.3-1,.7s-1.4.9-2.2,1.4c-1.6,1-3.3,2.1-3.6,2.4-.4.2-.8.4-1.2.4-.2,0-5,3.2-5.1,3.3-1,.7-2.1,1.1-3.3,1.3-.2,0-.5.1-.6.3-1.8,1-3.6,1.9-5.4,2.7-.9.5-1.8,1-2.7,1.6-.2,0-.4.1-.6.2-.2,0-.5.1-.7.3-2.1,1.3-4.3,2.3-6.3,3.8-.4.4-3.1,1.1-3.6,1.5-.4,0-1.9,0-2.1.2Z"/>
  <path class="st8" d="M92.2,893.8c.1-.3.3-.5.5-.7.2-.2.5-.3.7-.4.7-.2,1.3-.2,2-.1.5,0,1.6.8,1.5,1.2-.1.8-.3,1.5-.5,2.3-.1.5-3.9,5.8-5.1,7.6-1.2,1.7-2.5,3.4-3.9,5-2.9,3.2-5.6,6.5-8.5,9.6-.7.7-1.4,1.3-2.1,1.9-2.5,2.1-4.8,4.4-6.9,6.9-.4.4-.7.8-.9,1.4-.3.9-6.4,7.4-7.3,8.1-2.4,1.7-4.6,3.5-6.9,5.2-.3.3-.6.6-1,.6-.9.1-1.8.6-2.4,1.3-1,.8-2,1.5-3.1,2.1-.6.3-1.3.4-2,.5-.6.1-1.1-1-1-1.1.2-.6-.5-.7-.8-1-.1-.1-.2-.2-.3-.4.5-1.2,1-2.3,1.7-3.4.6-1.3,1.4-2.5,2.2-3.7,0,0,.5-.5,1.2-1.2l2.5-2.7c1.8-2,3.7-4.1,4.1-4.5.4-.4.9-.8,1.5-1.1.2-.2,5.6-6.3,5.9-6.5,1.1-1.3,2.4-2.4,3.9-3.2.3-.2.6-.4.8-.7,2-2.1,4.2-4,6.3-5.9,1.1-1,2.1-2.1,3.1-3.2.2-.2.4-.3.7-.5.3-.2.5-.4.8-.6,2.4-2.6,5-4.9,7.3-7.6.5-.6,3.6-3,4.2-3.7.3-.4,2.1-1.1,2.3-1.5Z"/>
  <path class="st8" d="M61.2,904.6c.3-.3.7-.5,1.1-.5.4,0,.8,0,1.2.1.3,0,.7.7.6.9-.2.5-.5.9-.8,1.4-.2.2-3.4,3.6-4.4,4.9-.5.6-1,1.2-1.6,1.7-.5.5-1.2,1-1.8,1.4l-7.2,5.8c-.5.4-1.1.8-1.7,1.1-2.1,1.1-4,2.4-5.8,4-.4.2-.6.5-.8.9-.3.7-5.4,4.4-6.2,4.7-1,.4-1.9.8-2.8,1.3-.9.4-1.9.8-2.9,1.2-.3.1-.5.4-.9.3-.3,0-.7,0-1,0-.3,0-.6.3-.9.5-.8.4-1.6.8-2.4,1.2-.5.1-1,.2-1.5.2-.4,0-.8-.7-.7-.9.2-.5-.3-.6-.6-.8,0,0-.2-.2-.2-.3,1-1.7,2.1-3.4,3.3-5l2.9-2.8c1.5-1.3,3.1-2.6,3.4-2.9.4-.3.8-.5,1.2-.6.2,0,4.7-4,4.9-4.1.9-.8,2.1-1.4,3.3-1.7.2,0,.5-.2.7-.3,1.8-1.2,3.6-2.2,5.5-3.2.9-.5,1.8-1.2,2.7-1.8.2,0,.4-.2.6-.2.2,0,.5-.2.7-.3,2.1-1.4,4.3-2.7,6.5-4,.5-.3,3.2-1.3,3.7-1.7.3-.2,1.7-.3,2-.5Z"/>
  <path class="st8" d="M73.9,863.5c.5-.7,1.4-.5,2.7.3.4.2,1,1.3.9,1.6-.2.5-.4,1.1-.6,1.6-.2.3-3.5,3.5-4.6,4.5-1.1,1-2.3,1.9-3.6,2.7-2.6,1.6-5.2,3.2-7.7,4.7-.6.3-1.2.6-1.8.8-2.2.8-4.2,1.8-6.2,3.1-.4.2-.7.4-.9.7-.3.6-5.7,3.7-6.5,3.9-2,.6-3.8,1.3-5.7,1.9-.3,0-.5.3-.9.1-.3,0-.7-.1-1,0-.3,0-.6.2-.9.4-.8.4-1.6.7-2.4.9-.5,0-1,0-1.5,0-.5,0-.8-1-.7-1.1.2-.5-.3-.7-.5-1,0-.1-.2-.2-.2-.4,1.1-1.6,2.4-3.1,3.8-4.4,0,0,.4-.3,1-.7.6-.4,1.4-.9,2.2-1.4,1.6-1,3.3-2.1,3.6-2.4.4-.2.8-.4,1.2-.4.2,0,5-3.2,5.1-3.3,1-.7,2.1-1.1,3.3-1.3.2,0,.5-.1.6-.3,1.8-1,3.6-1.9,5.4-2.7.9-.5,1.8-1,2.7-1.6.2,0,.4-.1.6-.2.2,0,.5-.1.7-.3,2.1-1.3,4.3-2.3,6.3-3.8.4-.4,3.1-1.1,3.6-1.5.4,0,1.9,0,2.1-.2Z"/>
</svg>