<svg width="668" height="508" viewBox="0 0 668 508" fill="none" xmlns="http://www.w3.org/2000/svg">
<g filter="url(#filter0_d_501_20)">
<rect x="14" y="9" width="640" height="480" rx="12" fill="#DDF7F2"/>
<rect x="14.5" y="9.5" width="639" height="479" rx="11.5" stroke="#DDF7F2"/>
</g>
<path d="M64.4487 249.055V234.755H66.7087L73.6687 246.575V234.755H75.3287V249.055H73.3287L66.1087 236.795V249.055H64.4487ZM81.4213 249.235C79.4813 249.235 77.9413 248.295 77.9413 246.155C77.9413 243.735 80.5013 242.915 83.1813 242.915H84.6813V242.155C84.6813 240.495 84.0413 239.795 82.4413 239.795C81.0013 239.795 80.2013 240.395 80.0413 241.675H78.3813C78.6013 239.295 80.5013 238.415 82.5213 238.415C84.5213 238.415 86.3413 239.235 86.3413 242.155V249.055H84.6813V247.735C83.9013 248.715 82.9613 249.235 81.4213 249.235ZM81.5813 247.915C83.3413 247.915 84.6813 247.015 84.6813 245.395V244.095H83.2413C81.1413 244.095 79.6013 244.615 79.6013 246.155C79.6013 247.235 80.1213 247.915 81.5813 247.915ZM83.6213 236.675C82.7613 236.675 82.0413 235.815 81.4613 235.815C81.0813 235.815 80.7613 236.195 80.6613 236.715H79.4613C79.6213 235.295 80.4413 234.395 81.4813 234.395C82.3213 234.395 83.0413 235.255 83.6213 235.255C84.0013 235.255 84.3213 234.875 84.4213 234.355H85.6213C85.4613 235.775 84.6413 236.675 83.6213 236.675ZM93.9621 247.855C96.0621 247.855 97.3821 246.275 97.3821 243.915V243.775C97.3821 241.355 96.0421 239.795 93.9621 239.795C91.8621 239.795 90.5421 241.355 90.5421 243.755V243.915C90.5421 246.295 91.8421 247.855 93.9621 247.855ZM93.9421 249.235C90.9621 249.235 88.8221 246.975 88.8221 243.915V243.755C88.8221 240.615 91.0021 238.415 93.9621 238.415C96.9221 238.415 99.1021 240.595 99.1021 243.735V243.895C99.1021 247.055 96.9221 249.235 93.9421 249.235ZM106.965 252.695V238.595H108.625V240.355C109.225 239.335 110.645 238.415 112.165 238.415C114.905 238.415 116.925 240.415 116.925 243.675V243.835C116.925 247.035 115.045 249.235 112.165 249.235C110.445 249.235 109.225 248.375 108.625 247.335V252.695H106.965ZM112.005 247.855C114.085 247.855 115.205 246.455 115.205 243.915V243.755C115.205 241.115 113.745 239.795 111.985 239.795C110.045 239.795 108.565 241.075 108.565 243.755V243.915C108.565 246.595 109.965 247.855 112.005 247.855ZM119.504 249.055V238.595H121.164V240.475C121.824 239.295 122.724 238.475 124.604 238.415V239.975C122.504 240.075 121.164 240.735 121.164 243.315V249.055H119.504ZM131.011 249.235C128.051 249.235 125.951 247.155 125.951 243.935V243.775C125.951 240.615 127.971 238.415 130.851 238.415C133.271 238.415 135.551 239.875 135.551 243.615V244.155H127.671C127.751 246.535 128.891 247.855 131.031 247.855C132.651 247.855 133.591 247.255 133.811 246.035H135.471C135.111 248.135 133.371 249.235 131.011 249.235ZM127.731 242.815H133.851C133.691 240.655 132.571 239.795 130.851 239.795C129.151 239.795 128.011 240.955 127.731 242.815ZM142.438 249.235C139.518 249.235 137.318 247.175 137.318 243.935V243.775C137.318 240.575 139.598 238.415 142.398 238.415C144.578 238.415 146.618 239.415 146.938 242.075H145.298C145.038 240.415 143.838 239.795 142.398 239.795C140.498 239.795 139.038 241.315 139.038 243.775V243.935C139.038 246.495 140.438 247.855 142.458 247.855C143.938 247.855 145.278 246.995 145.458 245.295H146.998C146.778 247.555 144.958 249.235 142.438 249.235ZM149.544 249.055V238.595H151.204V249.055H149.544ZM150.344 236.415C149.744 236.415 149.244 235.915 149.244 235.315C149.244 234.715 149.744 234.215 150.344 234.215C150.944 234.215 151.444 234.715 151.444 235.315C151.444 235.915 150.944 236.415 150.344 236.415ZM157.842 249.235C155.342 249.235 153.842 247.975 153.742 245.835H155.362C155.482 247.075 156.142 247.855 157.822 247.855C159.402 247.855 160.102 247.315 160.102 246.195C160.102 245.095 159.282 244.735 157.662 244.435C154.942 243.935 154.022 243.175 154.022 241.355C154.022 239.415 155.922 238.415 157.562 238.415C159.442 238.415 161.062 239.175 161.342 241.435H159.742C159.502 240.295 158.862 239.795 157.542 239.795C156.342 239.795 155.562 240.395 155.562 241.295C155.562 242.235 156.082 242.615 158.002 242.955C160.162 243.355 161.682 243.835 161.682 246.055C161.682 247.955 160.382 249.235 157.842 249.235ZM168.571 247.855C170.671 247.855 171.991 246.275 171.991 243.915V243.775C171.991 241.355 170.651 239.795 168.571 239.795C166.471 239.795 165.151 241.355 165.151 243.755V243.915C165.151 246.295 166.451 247.855 168.571 247.855ZM168.551 249.235C165.571 249.235 163.431 246.975 163.431 243.915V243.755C163.431 240.615 165.611 238.415 168.571 238.415C171.531 238.415 173.711 240.595 173.711 243.735V243.895C173.711 247.055 171.531 249.235 168.551 249.235ZM181.575 249.055V238.595H183.235V240.195C183.715 239.215 184.855 238.415 186.355 238.415C187.695 238.415 188.875 238.975 189.415 240.375C190.135 239.015 191.695 238.415 192.995 238.415C194.875 238.415 196.515 239.535 196.515 242.575V249.055H194.855V242.455C194.855 240.615 194.075 239.855 192.635 239.855C191.275 239.855 189.875 240.775 189.875 242.655V249.055H188.215V242.455C188.215 240.615 187.435 239.855 185.995 239.855C184.635 239.855 183.235 240.775 183.235 242.655V249.055H181.575ZM202.398 249.235C200.458 249.235 198.918 248.295 198.918 246.155C198.918 243.735 201.478 242.915 204.158 242.915H205.658V242.155C205.658 240.495 205.018 239.795 203.418 239.795C201.978 239.795 201.178 240.395 201.018 241.675H199.358C199.578 239.295 201.478 238.415 203.498 238.415C205.498 238.415 207.318 239.235 207.318 242.155V249.055H205.658V247.735C204.878 248.715 203.938 249.235 202.398 249.235ZM202.558 247.915C204.318 247.915 205.658 247.015 205.658 245.395V244.095H204.218C202.118 244.095 200.578 244.615 200.578 246.155C200.578 247.235 201.098 247.915 202.558 247.915ZM210.619 249.055V238.595H212.279V249.055H210.619ZM211.419 236.415C210.819 236.415 210.319 235.915 210.319 235.315C210.319 234.715 210.819 234.215 211.419 234.215C212.019 234.215 212.519 234.715 212.519 235.315C212.519 235.915 212.019 236.415 211.419 236.415ZM218.916 249.235C216.416 249.235 214.916 247.975 214.816 245.835H216.436C216.556 247.075 217.216 247.855 218.896 247.855C220.476 247.855 221.176 247.315 221.176 246.195C221.176 245.095 220.356 244.735 218.736 244.435C216.016 243.935 215.096 243.175 215.096 241.355C215.096 239.415 216.996 238.415 218.636 238.415C220.516 238.415 222.136 239.175 222.416 241.435H220.816C220.576 240.295 219.936 239.795 218.616 239.795C217.416 239.795 216.636 240.395 216.636 241.295C216.636 242.235 217.156 242.615 219.076 242.955C221.236 243.355 222.756 243.835 222.756 246.055C222.756 247.955 221.456 249.235 218.916 249.235ZM230.939 249.055V239.995H229.439V238.595H230.939V236.895C230.939 234.775 231.979 233.535 234.059 233.535C234.599 233.535 234.879 233.595 235.299 233.735V235.135C234.999 235.015 234.579 234.915 234.119 234.915C233.039 234.915 232.599 235.655 232.599 236.715V238.595H235.159V239.995H232.599V249.055H230.939ZM239.917 249.235C237.977 249.235 236.437 248.295 236.437 246.155C236.437 243.735 238.997 242.915 241.677 242.915H243.177V242.155C243.177 240.495 242.537 239.795 240.937 239.795C239.497 239.795 238.697 240.395 238.537 241.675H236.877C237.097 239.295 238.997 238.415 241.017 238.415C243.017 238.415 244.837 239.235 244.837 242.155V249.055H243.177V247.735C242.397 248.715 241.457 249.235 239.917 249.235ZM240.077 247.915C241.837 247.915 243.177 247.015 243.177 245.395V244.095H241.737C239.637 244.095 238.097 244.615 238.097 246.155C238.097 247.235 238.617 247.915 240.077 247.915ZM246.838 249.055V248.815L253.018 239.995H247.438V238.595H255.578V238.895L249.538 247.595H255.498V249.055H246.838ZM261.948 249.235C258.988 249.235 256.888 247.155 256.888 243.935V243.775C256.888 240.615 258.908 238.415 261.788 238.415C264.208 238.415 266.488 239.875 266.488 243.615V244.155H258.608C258.688 246.535 259.828 247.855 261.968 247.855C263.588 247.855 264.528 247.255 264.748 246.035H266.408C266.048 248.135 264.308 249.235 261.948 249.235ZM258.668 242.815H264.788C264.628 240.655 263.508 239.795 261.788 239.795C260.088 239.795 258.948 240.955 258.668 242.815ZM269.036 249.055V238.595H270.696V240.475C271.356 239.295 272.256 238.475 274.136 238.415V239.975C272.036 240.075 270.696 240.735 270.696 243.315V249.055H269.036ZM285.028 249.195C283.128 249.195 282.208 248.075 282.208 246.435V239.995H280.708V238.595H282.208V236.215H283.868V238.595H286.308V239.995H283.868V246.275C283.868 247.295 284.328 247.795 285.168 247.795C285.688 247.795 286.088 247.715 286.448 247.575V248.975C286.108 249.095 285.708 249.195 285.028 249.195ZM292.498 249.235C290.418 249.235 288.858 248.095 288.858 245.215V238.595H290.518V245.135C290.518 246.975 291.298 247.795 292.938 247.795C294.418 247.795 295.818 246.815 295.818 244.935V238.595H297.478V249.055H295.818V247.395C295.338 248.375 294.178 249.235 292.498 249.235ZM304.773 249.235C302.033 249.235 300.053 247.295 300.053 244.035V243.875C300.053 240.675 302.053 238.415 304.933 238.415C306.673 238.415 307.753 239.255 308.353 240.275V233.595H310.013V249.055H308.353V247.255C307.753 248.275 306.293 249.235 304.773 249.235ZM304.953 247.855C306.893 247.855 308.413 246.575 308.413 243.895V243.735C308.413 241.055 307.133 239.795 305.093 239.795C303.013 239.795 301.773 241.255 301.773 243.795V243.955C301.773 246.595 303.193 247.855 304.953 247.855ZM317.732 247.855C319.832 247.855 321.152 246.275 321.152 243.915V243.775C321.152 241.355 319.812 239.795 317.732 239.795C315.632 239.795 314.312 241.355 314.312 243.755V243.915C314.312 246.295 315.612 247.855 317.732 247.855ZM317.712 249.235C314.732 249.235 312.592 246.975 312.592 243.915V243.755C312.592 240.615 314.772 238.415 317.732 238.415C320.692 238.415 322.872 240.595 322.872 243.735V243.895C322.872 247.055 320.692 249.235 317.712 249.235ZM333.975 249.235C331.475 249.235 329.975 247.975 329.875 245.835H331.495C331.615 247.075 332.275 247.855 333.955 247.855C335.535 247.855 336.235 247.315 336.235 246.195C336.235 245.095 335.415 244.735 333.795 244.435C331.075 243.935 330.155 243.175 330.155 241.355C330.155 239.415 332.055 238.415 333.695 238.415C335.575 238.415 337.195 239.175 337.475 241.435H335.875C335.635 240.295 334.995 239.795 333.675 239.795C332.475 239.795 331.695 240.395 331.695 241.295C331.695 242.235 332.215 242.615 334.135 242.955C336.295 243.355 337.815 243.835 337.815 246.055C337.815 247.955 336.515 249.235 333.975 249.235ZM344.704 247.855C346.804 247.855 348.124 246.275 348.124 243.915V243.775C348.124 241.355 346.784 239.795 344.704 239.795C342.604 239.795 341.284 241.355 341.284 243.755V243.915C341.284 246.295 342.584 247.855 344.704 247.855ZM344.684 249.235C341.704 249.235 339.564 246.975 339.564 243.915V243.755C339.564 240.615 341.744 238.415 344.704 238.415C347.664 238.415 349.844 240.595 349.844 243.735V243.895C349.844 247.055 347.664 249.235 344.684 249.235ZM350.862 249.055V248.815L357.042 239.995H351.462V238.595H359.602V238.895L353.562 247.595H359.522V249.055H350.862ZM361.83 249.055V238.595H363.49V249.055H361.83ZM362.63 236.415C362.03 236.415 361.53 235.915 361.53 235.315C361.53 234.715 362.03 234.215 362.63 234.215C363.23 234.215 363.73 234.715 363.73 235.315C363.73 235.915 363.23 236.415 362.63 236.415ZM366.887 249.055V238.595H368.547V240.255C369.027 239.275 370.187 238.415 371.907 238.415C374.067 238.415 375.587 239.595 375.587 242.635V249.055H373.927V242.515C373.927 240.675 373.147 239.855 371.467 239.855C369.927 239.855 368.547 240.835 368.547 242.715V249.055H366.887ZM378.84 249.055V233.595H380.5V240.255C380.98 239.275 382.14 238.415 383.86 238.415C386.02 238.415 387.54 239.595 387.54 242.635V249.055H385.88V242.515C385.88 240.675 385.1 239.855 383.42 239.855C381.88 239.855 380.5 240.835 380.5 242.715V249.055H378.84ZM393.413 249.235C391.473 249.235 389.933 248.295 389.933 246.155C389.933 243.735 392.493 242.915 395.173 242.915H396.673V242.155C396.673 240.495 396.033 239.795 394.433 239.795C392.993 239.795 392.193 240.395 392.033 241.675H390.373C390.593 239.295 392.493 238.415 394.513 238.415C396.513 238.415 398.333 239.235 398.333 242.155V249.055H396.673V247.735C395.893 248.715 394.953 249.235 393.413 249.235ZM393.573 247.915C395.333 247.915 396.673 247.015 396.673 245.395V244.095H395.233C393.133 244.095 391.593 244.615 391.593 246.155C391.593 247.235 392.113 247.915 393.573 247.915ZM401.714 251.515L400.634 250.955L402.554 246.575L404.174 247.335L401.714 251.515ZM415.152 249.235C413.212 249.235 411.672 248.295 411.672 246.155C411.672 243.735 414.232 242.915 416.912 242.915H418.412V242.155C418.412 240.495 417.772 239.795 416.172 239.795C414.732 239.795 413.932 240.395 413.772 241.675H412.112C412.332 239.295 414.232 238.415 416.252 238.415C418.252 238.415 420.072 239.235 420.072 242.155V249.055H418.412V247.735C417.632 248.715 416.692 249.235 415.152 249.235ZM415.312 247.915C417.072 247.915 418.412 247.015 418.412 245.395V244.095H416.972C414.872 244.095 413.332 244.615 413.332 246.155C413.332 247.235 413.852 247.915 415.312 247.915ZM427.513 252.875C424.413 252.875 423.053 251.415 422.773 249.655H424.473C424.713 250.855 425.713 251.475 427.493 251.475C429.553 251.475 430.853 250.495 430.853 248.255V246.735C430.253 247.755 428.833 248.715 427.313 248.715C424.573 248.715 422.553 246.635 422.553 243.755V243.615C422.553 240.775 424.553 238.415 427.433 238.415C429.173 238.415 430.253 239.255 430.853 240.275V238.595H432.513V248.355C432.493 251.395 430.433 252.875 427.513 252.875ZM427.493 247.335C429.433 247.335 430.913 245.975 430.913 243.635V243.495C430.913 241.155 429.633 239.795 427.593 239.795C425.513 239.795 424.273 241.335 424.273 243.535V243.695C424.273 245.975 425.733 247.335 427.493 247.335ZM440.232 247.855C442.332 247.855 443.652 246.275 443.652 243.915V243.775C443.652 241.355 442.312 239.795 440.232 239.795C438.132 239.795 436.812 241.355 436.812 243.755V243.915C436.812 246.295 438.112 247.855 440.232 247.855ZM440.212 249.235C437.232 249.235 435.092 246.975 435.092 243.915V243.755C435.092 240.615 437.272 238.415 440.232 238.415C443.192 238.415 445.372 240.595 445.372 243.735V243.895C445.372 247.055 443.192 249.235 440.212 249.235ZM447.942 249.055V238.595H449.602V240.475C450.262 239.295 451.162 238.475 453.042 238.415V239.975C450.942 240.075 449.602 240.735 449.602 243.315V249.055H447.942ZM457.984 249.235C456.044 249.235 454.504 248.295 454.504 246.155C454.504 243.735 457.064 242.915 459.744 242.915H461.244V242.155C461.244 240.495 460.604 239.795 459.004 239.795C457.564 239.795 456.764 240.395 456.604 241.675H454.944C455.164 239.295 457.064 238.415 459.084 238.415C461.084 238.415 462.904 239.235 462.904 242.155V249.055H461.244V247.735C460.464 248.715 459.524 249.235 457.984 249.235ZM458.144 247.915C459.904 247.915 461.244 247.015 461.244 245.395V244.095H459.804C457.704 244.095 456.164 244.615 456.164 246.155C456.164 247.235 456.684 247.915 458.144 247.915ZM475.738 249.235C472.778 249.235 470.678 247.155 470.678 243.935V243.775C470.678 240.615 472.698 238.415 475.578 238.415C477.998 238.415 480.278 239.875 480.278 243.615V244.155H472.398C472.478 246.535 473.618 247.855 475.758 247.855C477.378 247.855 478.318 247.255 478.538 246.035H480.198C479.838 248.135 478.098 249.235 475.738 249.235ZM472.458 242.815H478.578C478.418 240.655 477.298 239.795 475.578 239.795C473.878 239.795 472.738 240.955 472.458 242.815ZM486.365 249.235C484.285 249.235 482.725 248.095 482.725 245.215V238.595H484.385V245.135C484.385 246.975 485.165 247.795 486.805 247.795C488.285 247.795 489.685 246.815 489.685 244.935V238.595H491.345V249.055H489.685V247.395C489.205 248.375 488.045 249.235 486.365 249.235ZM503.173 249.195C501.273 249.195 500.353 248.075 500.353 246.435V239.995H498.853V238.595H500.353V236.215H502.013V238.595H504.453V239.995H502.013V246.275C502.013 247.295 502.473 247.795 503.313 247.795C503.833 247.795 504.233 247.715 504.593 247.575V248.975C504.253 249.095 503.853 249.195 503.173 249.195ZM511.382 249.235C508.422 249.235 506.322 247.155 506.322 243.935V243.775C506.322 240.615 508.342 238.415 511.222 238.415C513.642 238.415 515.922 239.875 515.922 243.615V244.155H508.042C508.122 246.535 509.262 247.855 511.402 247.855C513.022 247.855 513.962 247.255 514.182 246.035H515.842C515.482 248.135 513.742 249.235 511.382 249.235ZM508.102 242.815H514.222C514.062 240.655 512.942 239.795 511.222 239.795C509.522 239.795 508.382 240.955 508.102 242.815ZM518.469 249.055V238.595H520.129V240.255C520.609 239.275 521.769 238.415 523.489 238.415C525.649 238.415 527.169 239.595 527.169 242.635V249.055H525.509V242.515C525.509 240.675 524.729 239.855 523.049 239.855C521.509 239.855 520.129 240.835 520.129 242.715V249.055H518.469ZM530.422 249.055V233.595H532.082V240.255C532.562 239.275 533.722 238.415 535.442 238.415C537.602 238.415 539.122 239.595 539.122 242.635V249.055H537.462V242.515C537.462 240.675 536.682 239.855 535.002 239.855C533.462 239.855 532.082 240.835 532.082 242.715V249.055H530.422ZM546.736 247.855C548.836 247.855 550.156 246.275 550.156 243.915V243.775C550.156 241.355 548.816 239.795 546.736 239.795C544.636 239.795 543.316 241.355 543.316 243.755V243.915C543.316 246.295 544.616 247.855 546.736 247.855ZM546.716 249.235C543.736 249.235 541.596 246.975 541.596 243.915V243.755C541.596 240.615 543.776 238.415 546.736 238.415C549.696 238.415 551.876 240.595 551.876 243.735V243.895C551.876 247.055 549.696 249.235 546.716 249.235ZM564.099 247.855C566.199 247.855 567.519 246.275 567.519 243.915V243.775C567.519 241.355 566.179 239.795 564.099 239.795C561.999 239.795 560.679 241.355 560.679 243.755V243.915C560.679 246.295 561.979 247.855 564.099 247.855ZM564.079 249.235C561.099 249.235 558.959 246.975 558.959 243.915V243.755C558.959 240.615 561.139 238.415 564.099 238.415C567.059 238.415 569.239 240.595 569.239 243.735V243.895C569.239 247.055 567.059 249.235 564.079 249.235ZM64.4487 279.055V264.755H66.1887V271.635L72.4087 264.735H74.3487L67.9887 271.695L74.6687 279.055H72.5687L66.1887 272.075V279.055H64.4487ZM76.8897 282.695L78.8697 277.975L74.7697 268.595H76.5497L79.7497 276.095L82.6497 268.595H84.3497L78.5697 282.695H76.8897ZM89.911 279.195C88.011 279.195 87.091 278.075 87.091 276.435V269.995H85.591V268.595H87.091V266.215H88.751V268.595H91.191V269.995H88.751V276.275C88.751 277.295 89.211 277.795 90.051 277.795C90.571 277.795 90.971 277.715 91.331 277.575V278.975C90.991 279.095 90.591 279.195 89.911 279.195ZM98.1204 279.235C95.1604 279.235 93.0604 277.155 93.0604 273.935V273.775C93.0604 270.615 95.0804 268.415 97.9604 268.415C100.38 268.415 102.66 269.875 102.66 273.615V274.155H94.7804C94.8604 276.535 96.0004 277.855 98.1404 277.855C99.7604 277.855 100.7 277.255 100.92 276.035H102.58C102.22 278.135 100.48 279.235 98.1204 279.235ZM94.8404 272.815H100.96C100.8 270.655 99.6804 269.795 97.9604 269.795C96.2604 269.795 95.1204 270.955 94.8404 272.815ZM110.501 282.695V268.595H112.161V270.355C112.761 269.335 114.181 268.415 115.701 268.415C118.441 268.415 120.461 270.415 120.461 273.675V273.835C120.461 277.035 118.581 279.235 115.701 279.235C113.981 279.235 112.761 278.375 112.161 277.335V282.695H110.501ZM115.541 277.855C117.621 277.855 118.741 276.455 118.741 273.915V273.755C118.741 271.115 117.281 269.795 115.521 269.795C113.581 269.795 112.101 271.075 112.101 273.755V273.915C112.101 276.595 113.501 277.855 115.541 277.855ZM125.66 279.235C123.72 279.235 122.18 278.295 122.18 276.155C122.18 273.735 124.74 272.915 127.42 272.915H128.92V272.155C128.92 270.495 128.28 269.795 126.68 269.795C125.24 269.795 124.44 270.395 124.28 271.675H122.62C122.84 269.295 124.74 268.415 126.76 268.415C128.76 268.415 130.58 269.235 130.58 272.155V279.055H128.92V277.735C128.14 278.715 127.2 279.235 125.66 279.235ZM125.82 277.915C127.58 277.915 128.92 277.015 128.92 275.395V274.095H127.48C125.38 274.095 123.84 274.615 123.84 276.155C123.84 277.235 124.36 277.915 125.82 277.915ZM133.84 279.055V268.595H135.5V270.475C136.16 269.295 137.06 268.475 138.94 268.415V269.975C136.84 270.075 135.5 270.735 135.5 273.315V279.055H133.84ZM143.882 279.235C141.942 279.235 140.402 278.295 140.402 276.155C140.402 273.735 142.962 272.915 145.642 272.915H147.142V272.155C147.142 270.495 146.502 269.795 144.902 269.795C143.462 269.795 142.662 270.395 142.502 271.675H140.842C141.062 269.295 142.962 268.415 144.982 268.415C146.982 268.415 148.802 269.235 148.802 272.155V279.055H147.142V277.735C146.362 278.715 145.422 279.235 143.882 279.235ZM144.042 277.915C145.802 277.915 147.142 277.015 147.142 275.395V274.095H145.702C143.602 274.095 142.062 274.615 142.062 276.155C142.062 277.235 142.582 277.915 144.042 277.915ZM157.356 279.055V268.595H159.016V270.195C159.496 269.215 160.636 268.415 162.136 268.415C163.476 268.415 164.656 268.975 165.196 270.375C165.916 269.015 167.476 268.415 168.776 268.415C170.656 268.415 172.296 269.535 172.296 272.575V279.055H170.636V272.455C170.636 270.615 169.856 269.855 168.416 269.855C167.056 269.855 165.656 270.775 165.656 272.655V279.055H163.996V272.455C163.996 270.615 163.216 269.855 161.776 269.855C160.416 269.855 159.016 270.775 159.016 272.655V279.055H157.356ZM179.839 279.235C176.879 279.235 174.779 277.155 174.779 273.935V273.775C174.779 270.615 176.799 268.415 179.679 268.415C182.099 268.415 184.379 269.875 184.379 273.615V274.155H176.499C176.579 276.535 177.719 277.855 179.859 277.855C181.479 277.855 182.419 277.255 182.639 276.035H184.299C183.939 278.135 182.199 279.235 179.839 279.235ZM176.559 272.815H182.679C182.519 270.655 181.399 269.795 179.679 269.795C177.979 269.795 176.839 270.955 176.559 272.815ZM194.839 279.235C192.899 279.235 191.359 278.295 191.359 276.155C191.359 273.735 193.919 272.915 196.599 272.915H198.099V272.155C198.099 270.495 197.459 269.795 195.859 269.795C194.419 269.795 193.619 270.395 193.459 271.675H191.799C192.019 269.295 193.919 268.415 195.939 268.415C197.939 268.415 199.759 269.235 199.759 272.155V279.055H198.099V277.735C197.319 278.715 196.379 279.235 194.839 279.235ZM194.999 277.915C196.759 277.915 198.099 277.015 198.099 275.395V274.095H196.659C194.559 274.095 193.019 274.615 193.019 276.155C193.019 277.235 193.539 277.915 194.999 277.915ZM201.52 282.875V281.475C202.7 281.375 203.06 280.775 203.06 279.855V268.595H204.72V279.715C204.72 281.715 203.84 282.795 201.52 282.875ZM203.86 266.415C203.26 266.415 202.76 265.915 202.76 265.315C202.76 264.715 203.26 264.215 203.86 264.215C204.46 264.215 204.96 264.715 204.96 265.315C204.96 265.915 204.46 266.415 203.86 266.415ZM211.658 279.235C209.578 279.235 208.018 278.095 208.018 275.215V268.595H209.678V275.135C209.678 276.975 210.458 277.795 212.098 277.795C213.578 277.795 214.978 276.815 214.978 274.935V268.595H216.638V279.055H214.978V277.395C214.498 278.375 213.338 279.235 211.658 279.235ZM223.933 279.235C221.193 279.235 219.213 277.295 219.213 274.035V273.875C219.213 270.675 221.213 268.415 224.093 268.415C225.833 268.415 226.913 269.255 227.513 270.275V263.595H229.173V279.055H227.513V277.255C226.913 278.275 225.453 279.235 223.933 279.235ZM224.113 277.855C226.053 277.855 227.573 276.575 227.573 273.895V273.735C227.573 271.055 226.293 269.795 224.253 269.795C222.173 269.795 220.933 271.255 220.933 273.795V273.955C220.933 276.595 222.353 277.855 224.113 277.855ZM235.152 279.235C233.212 279.235 231.672 278.295 231.672 276.155C231.672 273.735 234.232 272.915 236.912 272.915H238.412V272.155C238.412 270.495 237.772 269.795 236.172 269.795C234.732 269.795 233.932 270.395 233.772 271.675H232.112C232.332 269.295 234.232 268.415 236.252 268.415C238.252 268.415 240.072 269.235 240.072 272.155V279.055H238.412V277.735C237.632 278.715 236.692 279.235 235.152 279.235ZM235.312 277.915C237.072 277.915 238.412 277.015 238.412 275.395V274.095H236.972C234.872 274.095 233.332 274.615 233.332 276.155C233.332 277.235 233.852 277.915 235.312 277.915ZM243.333 279.055V268.595H244.993V270.475C245.653 269.295 246.553 268.475 248.433 268.415V269.975C246.333 270.075 244.993 270.735 244.993 273.315V279.055H243.333ZM256.145 279.055V268.595H257.805V270.255C258.285 269.275 259.445 268.415 261.165 268.415C263.325 268.415 264.845 269.595 264.845 272.635V279.055H263.185V272.515C263.185 270.675 262.405 269.855 260.725 269.855C259.185 269.855 257.805 270.835 257.805 272.715V279.055H256.145ZM270.718 279.235C268.778 279.235 267.238 278.295 267.238 276.155C267.238 273.735 269.798 272.915 272.478 272.915H273.978V272.155C273.978 270.495 273.338 269.795 271.738 269.795C270.298 269.795 269.498 270.395 269.338 271.675H267.678C267.898 269.295 269.798 268.415 271.818 268.415C273.818 268.415 275.638 269.235 275.638 272.155V279.055H273.978V277.735C273.198 278.715 272.258 279.235 270.718 279.235ZM270.878 277.915C272.638 277.915 273.978 277.015 273.978 275.395V274.095H272.538C270.438 274.095 268.898 274.615 268.898 276.155C268.898 277.235 269.418 277.915 270.878 277.915ZM288.372 282.875C285.272 282.875 283.912 281.415 283.632 279.655H285.332C285.572 280.855 286.572 281.475 288.352 281.475C290.412 281.475 291.712 280.495 291.712 278.255V276.735C291.112 277.755 289.692 278.715 288.172 278.715C285.432 278.715 283.412 276.635 283.412 273.755V273.615C283.412 270.775 285.412 268.415 288.292 268.415C290.032 268.415 291.112 269.255 291.712 270.275V268.595H293.372V278.355C293.352 281.395 291.292 282.875 288.372 282.875ZM288.352 277.335C290.292 277.335 291.772 275.975 291.772 273.635V273.495C291.772 271.155 290.492 269.795 288.452 269.795C286.372 269.795 285.132 271.335 285.132 273.535V273.695C285.132 275.975 286.592 277.335 288.352 277.335ZM301.011 279.235C298.051 279.235 295.951 277.155 295.951 273.935V273.775C295.951 270.615 297.971 268.415 300.851 268.415C303.271 268.415 305.551 269.875 305.551 273.615V274.155H297.671C297.751 276.535 298.891 277.855 301.031 277.855C302.651 277.855 303.591 277.255 303.811 276.035H305.471C305.111 278.135 303.371 279.235 301.011 279.235ZM297.731 272.815H303.851C303.691 270.655 302.571 269.795 300.851 269.795C299.151 269.795 298.011 270.955 297.731 272.815ZM311.436 279.235C308.936 279.235 307.436 277.975 307.336 275.835H308.956C309.076 277.075 309.736 277.855 311.416 277.855C312.996 277.855 313.696 277.315 313.696 276.195C313.696 275.095 312.876 274.735 311.256 274.435C308.536 273.935 307.616 273.175 307.616 271.355C307.616 269.415 309.516 268.415 311.156 268.415C313.036 268.415 314.656 269.175 314.936 271.435H313.336C313.096 270.295 312.456 269.795 311.136 269.795C309.936 269.795 309.156 270.395 309.156 271.295C309.156 272.235 309.676 272.615 311.596 272.955C313.756 273.355 315.276 273.835 315.276 276.055C315.276 277.955 313.976 279.235 311.436 279.235ZM320.985 279.195C319.085 279.195 318.165 278.075 318.165 276.435V269.995H316.665V268.595H318.165V266.215H319.825V268.595H322.265V269.995H319.825V276.275C319.825 277.295 320.285 277.795 321.125 277.795C321.645 277.795 322.045 277.715 322.405 277.575V278.975C322.065 279.095 321.665 279.195 320.985 279.195ZM327.632 279.235C325.692 279.235 324.152 278.295 324.152 276.155C324.152 273.735 326.712 272.915 329.392 272.915H330.892V272.155C330.892 270.495 330.252 269.795 328.652 269.795C327.212 269.795 326.412 270.395 326.252 271.675H324.592C324.812 269.295 326.712 268.415 328.732 268.415C330.732 268.415 332.552 269.235 332.552 272.155V279.055H330.892V277.735C330.112 278.715 329.172 279.235 327.632 279.235ZM327.792 277.915C329.552 277.915 330.892 277.015 330.892 275.395V274.095H329.452C327.352 274.095 325.812 274.615 325.812 276.155C325.812 277.235 326.332 277.915 327.792 277.915ZM329.832 266.675C328.972 266.675 328.252 265.815 327.672 265.815C327.292 265.815 326.972 266.195 326.872 266.715H325.672C325.832 265.295 326.652 264.395 327.692 264.395C328.532 264.395 329.252 265.255 329.832 265.255C330.212 265.255 330.532 264.875 330.632 264.355H331.832C331.672 265.775 330.852 266.675 329.832 266.675ZM340.173 277.855C342.273 277.855 343.593 276.275 343.593 273.915V273.775C343.593 271.355 342.253 269.795 340.173 269.795C338.073 269.795 336.753 271.355 336.753 273.755V273.915C336.753 276.295 338.053 277.855 340.173 277.855ZM340.153 279.235C337.173 279.235 335.033 276.975 335.033 273.915V273.755C335.033 270.615 337.213 268.415 340.173 268.415C343.133 268.415 345.313 270.595 345.313 273.735V273.895C345.313 277.055 343.133 279.235 340.153 279.235ZM357.116 279.235C354.376 279.235 352.396 277.295 352.396 274.035V273.875C352.396 270.675 354.396 268.415 357.276 268.415C359.016 268.415 360.096 269.255 360.696 270.275V263.595H362.356V279.055H360.696V277.255C360.096 278.275 358.636 279.235 357.116 279.235ZM357.296 277.855C359.236 277.855 360.756 276.575 360.756 273.895V273.735C360.756 271.055 359.476 269.795 357.436 269.795C355.356 269.795 354.116 271.255 354.116 273.795V273.955C354.116 276.595 355.536 277.855 357.296 277.855ZM370.075 277.855C372.175 277.855 373.495 276.275 373.495 273.915V273.775C373.495 271.355 372.155 269.795 370.075 269.795C367.975 269.795 366.655 271.355 366.655 273.755V273.915C366.655 276.295 367.955 277.855 370.075 277.855ZM370.055 279.235C367.075 279.235 364.935 276.975 364.935 273.915V273.755C364.935 270.615 367.115 268.415 370.075 268.415C373.035 268.415 375.215 270.595 375.215 273.735V273.895C375.215 277.055 373.035 279.235 370.055 279.235ZM383.079 279.055V268.595H384.739V270.255C385.219 269.275 386.379 268.415 388.099 268.415C390.259 268.415 391.779 269.595 391.779 272.635V279.055H390.119V272.515C390.119 270.675 389.339 269.855 387.659 269.855C386.119 269.855 384.739 270.835 384.739 272.715V279.055H383.079ZM399.312 279.235C396.352 279.235 394.252 277.155 394.252 273.935V273.775C394.252 270.615 396.272 268.415 399.152 268.415C401.572 268.415 403.852 269.875 403.852 273.615V274.155H395.972C396.052 276.535 397.192 277.855 399.332 277.855C400.952 277.855 401.892 277.255 402.112 276.035H403.772C403.412 278.135 401.672 279.235 399.312 279.235ZM396.032 272.815H402.152C401.992 270.655 400.872 269.795 399.152 269.795C397.452 269.795 396.312 270.955 396.032 272.815ZM410.579 282.875C407.479 282.875 406.119 281.415 405.839 279.655H407.539C407.779 280.855 408.779 281.475 410.559 281.475C412.619 281.475 413.919 280.495 413.919 278.255V276.735C413.319 277.755 411.899 278.715 410.379 278.715C407.639 278.715 405.619 276.635 405.619 273.755V273.615C405.619 270.775 407.619 268.415 410.499 268.415C412.239 268.415 413.319 269.255 413.919 270.275V268.595H415.579V278.355C415.559 281.395 413.499 282.875 410.579 282.875ZM410.559 277.335C412.499 277.335 413.979 275.975 413.979 273.635V273.495C413.979 271.155 412.699 269.795 410.659 269.795C408.579 269.795 407.339 271.335 407.339 273.535V273.695C407.339 275.975 408.799 277.335 410.559 277.335ZM423.298 277.855C425.398 277.855 426.718 276.275 426.718 273.915V273.775C426.718 271.355 425.378 269.795 423.298 269.795C421.198 269.795 419.878 271.355 419.878 273.755V273.915C419.878 276.295 421.178 277.855 423.298 277.855ZM423.278 279.235C420.298 279.235 418.158 276.975 418.158 273.915V273.755C418.158 270.615 420.338 268.415 423.298 268.415C426.258 268.415 428.438 270.595 428.438 273.735V273.895C428.438 277.055 426.258 279.235 423.278 279.235ZM422.558 266.795L423.798 263.855H425.878L423.798 266.795H422.558ZM435.348 279.235C432.428 279.235 430.228 277.175 430.228 273.935V273.775C430.228 270.575 432.508 268.415 435.308 268.415C437.488 268.415 439.528 269.415 439.848 272.075H438.208C437.948 270.415 436.748 269.795 435.308 269.795C433.408 269.795 431.948 271.315 431.948 273.775V273.935C431.948 276.495 433.348 277.855 435.368 277.855C436.848 277.855 438.188 276.995 438.368 275.295H439.908C439.688 277.555 437.868 279.235 435.348 279.235ZM442.455 279.055V268.595H444.115V279.055H442.455ZM443.255 266.415C442.655 266.415 442.155 265.915 442.155 265.315C442.155 264.715 442.655 264.215 443.255 264.215C443.855 264.215 444.355 264.715 444.355 265.315C444.355 265.915 443.855 266.415 443.255 266.415ZM451.872 277.855C453.972 277.855 455.292 276.275 455.292 273.915V273.775C455.292 271.355 453.952 269.795 451.872 269.795C449.772 269.795 448.452 271.355 448.452 273.755V273.915C448.452 276.295 449.752 277.855 451.872 277.855ZM451.852 279.235C448.872 279.235 446.732 276.975 446.732 273.915V273.755C446.732 270.615 448.912 268.415 451.872 268.415C454.832 268.415 457.012 270.595 457.012 273.735V273.895C457.012 277.055 454.832 279.235 451.852 279.235ZM459.195 281.515L458.115 280.955L460.035 276.575L461.655 277.335L459.195 281.515ZM474.292 279.235C471.332 279.235 469.232 277.155 469.232 273.935V273.775C469.232 270.615 471.252 268.415 474.132 268.415C476.552 268.415 478.832 269.875 478.832 273.615V274.155H470.952C471.032 276.535 472.172 277.855 474.312 277.855C475.932 277.855 476.872 277.255 477.092 276.035H478.752C478.392 278.135 476.652 279.235 474.292 279.235ZM471.012 272.815H477.132C476.972 270.655 475.852 269.795 474.132 269.795C472.432 269.795 471.292 270.955 471.012 272.815ZM487.032 279.055V269.995H485.532V268.595H487.032V266.895C487.032 264.775 488.052 263.535 490.112 263.535C490.652 263.535 490.932 263.575 491.252 263.695V265.095C490.952 264.975 490.632 264.915 490.172 264.915C489.112 264.915 488.692 265.655 488.692 266.715V268.595H491.252V269.995H488.692V279.055H487.032ZM493.333 279.055V268.595H494.993V279.055H493.333ZM494.133 266.415C493.533 266.415 493.033 265.915 493.033 265.315C493.033 264.715 493.533 264.215 494.133 264.215C494.733 264.215 495.233 264.715 495.233 265.315C495.233 265.915 494.733 266.415 494.133 266.415ZM502.731 279.235C499.811 279.235 497.611 277.175 497.611 273.935V273.775C497.611 270.575 499.891 268.415 502.691 268.415C504.871 268.415 506.911 269.415 507.231 272.075H505.591C505.331 270.415 504.131 269.795 502.691 269.795C500.791 269.795 499.331 271.315 499.331 273.775V273.935C499.331 276.495 500.731 277.855 502.751 277.855C504.231 277.855 505.571 276.995 505.751 275.295H507.291C507.071 277.555 505.251 279.235 502.731 279.235ZM514.157 277.855C516.257 277.855 517.577 276.275 517.577 273.915V273.775C517.577 271.355 516.237 269.795 514.157 269.795C512.057 269.795 510.737 271.355 510.737 273.755V273.915C510.737 276.295 512.037 277.855 514.157 277.855ZM514.137 279.235C511.157 279.235 509.017 276.975 509.017 273.915V273.755C509.017 270.615 511.197 268.415 514.157 268.415C517.117 268.415 519.297 270.595 519.297 273.735V273.895C519.297 277.055 517.117 279.235 514.137 279.235ZM527.201 279.055V263.595H528.881V279.055H527.201ZM532.318 279.055V268.595H533.978V279.055H532.318ZM533.118 266.415C532.518 266.415 532.018 265.915 532.018 265.315C532.018 264.715 532.518 264.215 533.118 264.215C533.718 264.215 534.218 264.715 534.218 265.315C534.218 265.915 533.718 266.415 533.118 266.415ZM539.996 279.055L536.196 268.595H537.996L541.096 277.375L544.156 268.595H545.876L542.116 279.055H539.996ZM548.059 279.055V268.595H549.719V270.475C550.379 269.295 551.279 268.475 553.159 268.415V269.975C551.059 270.075 549.719 270.735 549.719 273.315V279.055H548.059ZM559.566 279.235C556.606 279.235 554.506 277.155 554.506 273.935V273.775C554.506 270.615 556.526 268.415 559.406 268.415C561.826 268.415 564.106 269.875 564.106 273.615V274.155H556.226C556.306 276.535 557.446 277.855 559.586 277.855C561.206 277.855 562.146 277.255 562.366 276.035H564.026C563.666 278.135 561.926 279.235 559.566 279.235ZM556.286 272.815H562.406C562.246 270.655 561.126 269.795 559.406 269.795C557.706 269.795 556.566 270.955 556.286 272.815ZM64.3287 312.695V298.595H65.9887V300.355C66.5887 299.335 68.0087 298.415 69.5287 298.415C72.2687 298.415 74.2887 300.415 74.2887 303.675V303.835C74.2887 307.035 72.4087 309.235 69.5287 309.235C67.8087 309.235 66.5887 308.375 65.9887 307.335V312.695H64.3287ZM69.3687 307.855C71.4487 307.855 72.5687 306.455 72.5687 303.915V303.755C72.5687 301.115 71.1087 299.795 69.3487 299.795C67.4087 299.795 65.9287 301.075 65.9287 303.755V303.915C65.9287 306.595 67.3287 307.855 69.3687 307.855ZM79.4877 309.235C77.5477 309.235 76.0077 308.295 76.0077 306.155C76.0077 303.735 78.5677 302.915 81.2477 302.915H82.7477V302.155C82.7477 300.495 82.1077 299.795 80.5077 299.795C79.0677 299.795 78.2677 300.395 78.1077 301.675H76.4477C76.6677 299.295 78.5677 298.415 80.5877 298.415C82.5877 298.415 84.4077 299.235 84.4077 302.155V309.055H82.7477V307.735C81.9677 308.715 81.0277 309.235 79.4877 309.235ZM79.6477 307.915C81.4077 307.915 82.7477 307.015 82.7477 305.395V304.095H81.3077C79.2077 304.095 77.6677 304.615 77.6677 306.155C77.6677 307.235 78.1877 307.915 79.6477 307.915ZM87.6685 309.055V298.595H89.3285V300.475C89.9885 299.295 90.8885 298.475 92.7685 298.415V299.975C90.6685 300.075 89.3285 300.735 89.3285 303.315V309.055H87.6685ZM97.7104 309.235C95.7704 309.235 94.2304 308.295 94.2304 306.155C94.2304 303.735 96.7904 302.915 99.4704 302.915H100.97V302.155C100.97 300.495 100.33 299.795 98.7304 299.795C97.2904 299.795 96.4904 300.395 96.3304 301.675H94.6704C94.8904 299.295 96.7904 298.415 98.8104 298.415C100.81 298.415 102.63 299.235 102.63 302.155V309.055H100.97V307.735C100.19 308.715 99.2504 309.235 97.7104 309.235ZM97.8704 307.915C99.6304 307.915 100.97 307.015 100.97 305.395V304.095H99.5304C97.4304 304.095 95.8904 304.615 95.8904 306.155C95.8904 307.235 96.4104 307.915 97.8704 307.915ZM115.124 309.235C112.384 309.235 110.404 307.295 110.404 304.035V303.875C110.404 300.675 112.404 298.415 115.284 298.415C117.024 298.415 118.104 299.255 118.704 300.275V293.595H120.364V309.055H118.704V307.255C118.104 308.275 116.644 309.235 115.124 309.235ZM115.304 307.855C117.244 307.855 118.764 306.575 118.764 303.895V303.735C118.764 301.055 117.484 299.795 115.444 299.795C113.364 299.795 112.124 301.255 112.124 303.795V303.955C112.124 306.595 113.544 307.855 115.304 307.855ZM128.003 309.235C125.043 309.235 122.943 307.155 122.943 303.935V303.775C122.943 300.615 124.963 298.415 127.843 298.415C130.263 298.415 132.543 299.875 132.543 303.615V304.155H124.663C124.743 306.535 125.883 307.855 128.023 307.855C129.643 307.855 130.583 307.255 130.803 306.035H132.463C132.103 308.135 130.363 309.235 128.003 309.235ZM124.723 302.815H130.843C130.683 300.655 129.563 299.795 127.843 299.795C126.143 299.795 125.003 300.955 124.723 302.815ZM139.03 309.235C136.29 309.235 134.31 307.295 134.31 304.035V303.875C134.31 300.675 136.31 298.415 139.19 298.415C140.93 298.415 142.01 299.255 142.61 300.275V293.595H144.27V309.055H142.61V307.255C142.01 308.275 140.55 309.235 139.03 309.235ZM139.21 307.855C141.15 307.855 142.67 306.575 142.67 303.895V303.735C142.67 301.055 141.39 299.795 139.35 299.795C137.27 299.795 136.03 301.255 136.03 303.795V303.955C136.03 306.595 137.45 307.855 139.21 307.855ZM147.669 309.055V298.595H149.329V309.055H147.669ZM148.469 296.415C147.869 296.415 147.369 295.915 147.369 295.315C147.369 294.715 147.869 294.215 148.469 294.215C149.069 294.215 149.569 294.715 149.569 295.315C149.569 295.915 149.069 296.415 148.469 296.415ZM157.067 309.235C154.147 309.235 151.947 307.175 151.947 303.935V303.775C151.947 300.575 154.227 298.415 157.027 298.415C159.207 298.415 161.247 299.415 161.567 302.075H159.927C159.667 300.415 158.467 299.795 157.027 299.795C155.127 299.795 153.667 301.315 153.667 303.775V303.935C153.667 306.495 155.067 307.855 157.087 307.855C158.567 307.855 159.907 306.995 160.087 305.295H161.627C161.407 307.555 159.587 309.235 157.067 309.235ZM166.753 309.235C164.813 309.235 163.273 308.295 163.273 306.155C163.273 303.735 165.833 302.915 168.513 302.915H170.013V302.155C170.013 300.495 169.373 299.795 167.773 299.795C166.333 299.795 165.533 300.395 165.373 301.675H163.713C163.933 299.295 165.833 298.415 167.853 298.415C169.853 298.415 171.673 299.235 171.673 302.155V309.055H170.013V307.735C169.233 308.715 168.293 309.235 166.753 309.235ZM166.913 307.915C168.673 307.915 170.013 307.015 170.013 305.395V304.095H168.573C166.473 304.095 164.933 304.615 164.933 306.155C164.933 307.235 165.453 307.915 166.913 307.915ZM174.934 309.055V298.595H176.594V300.475C177.254 299.295 178.154 298.475 180.034 298.415V299.975C177.934 300.075 176.594 300.735 176.594 303.315V309.055H174.934ZM187.747 309.055V298.595H189.407V300.195C189.887 299.215 191.027 298.415 192.527 298.415C193.867 298.415 195.047 298.975 195.587 300.375C196.307 299.015 197.867 298.415 199.167 298.415C201.047 298.415 202.687 299.535 202.687 302.575V309.055H201.027V302.455C201.027 300.615 200.247 299.855 198.807 299.855C197.447 299.855 196.047 300.775 196.047 302.655V309.055H194.387V302.455C194.387 300.615 193.607 299.855 192.167 299.855C190.807 299.855 189.407 300.775 189.407 302.655V309.055H187.747ZM210.23 309.235C207.27 309.235 205.17 307.155 205.17 303.935V303.775C205.17 300.615 207.19 298.415 210.07 298.415C212.49 298.415 214.77 299.875 214.77 303.615V304.155H206.89C206.97 306.535 208.11 307.855 210.25 307.855C211.87 307.855 212.81 307.255 213.03 306.035H214.69C214.33 308.135 212.59 309.235 210.23 309.235ZM206.95 302.815H213.07C212.91 300.655 211.79 299.795 210.07 299.795C208.37 299.795 207.23 300.955 206.95 302.815ZM220.857 309.235C218.777 309.235 217.217 308.095 217.217 305.215V298.595H218.877V305.135C218.877 306.975 219.657 307.795 221.297 307.795C222.777 307.795 224.177 306.815 224.177 304.935V298.595H225.837V309.055H224.177V307.395C223.697 308.375 222.537 309.235 220.857 309.235ZM237.665 309.195C235.765 309.195 234.845 308.075 234.845 306.435V299.995H233.345V298.595H234.845V296.215H236.505V298.595H238.945V299.995H236.505V306.275C236.505 307.295 236.965 307.795 237.805 307.795C238.325 307.795 238.725 307.715 239.085 307.575V308.975C238.745 309.095 238.345 309.195 237.665 309.195ZM245.874 309.235C242.914 309.235 240.814 307.155 240.814 303.935V303.775C240.814 300.615 242.834 298.415 245.714 298.415C248.134 298.415 250.414 299.875 250.414 303.615V304.155H242.534C242.614 306.535 243.754 307.855 245.894 307.855C247.514 307.855 248.454 307.255 248.674 306.035H250.334C249.974 308.135 248.234 309.235 245.874 309.235ZM242.594 302.815H248.714C248.554 300.655 247.434 299.795 245.714 299.795C244.014 299.795 242.874 300.955 242.594 302.815ZM252.961 309.055V298.595H254.621V300.195C255.101 299.215 256.241 298.415 257.741 298.415C259.081 298.415 260.261 298.975 260.801 300.375C261.521 299.015 263.081 298.415 264.381 298.415C266.261 298.415 267.901 299.535 267.901 302.575V309.055H266.241V302.455C266.241 300.615 265.461 299.855 264.021 299.855C262.661 299.855 261.261 300.775 261.261 302.655V309.055H259.601V302.455C259.601 300.615 258.821 299.855 257.381 299.855C256.021 299.855 254.621 300.775 254.621 302.655V309.055H252.961ZM271.165 312.695V298.595H272.825V300.355C273.425 299.335 274.845 298.415 276.365 298.415C279.105 298.415 281.125 300.415 281.125 303.675V303.835C281.125 307.035 279.245 309.235 276.365 309.235C274.645 309.235 273.425 308.375 272.825 307.335V312.695H271.165ZM276.205 307.855C278.285 307.855 279.405 306.455 279.405 303.915V303.755C279.405 301.115 277.945 299.795 276.185 299.795C274.245 299.795 272.765 301.075 272.765 303.755V303.915C272.765 306.595 274.165 307.855 276.205 307.855ZM288.064 307.855C290.164 307.855 291.484 306.275 291.484 303.915V303.775C291.484 301.355 290.144 299.795 288.064 299.795C285.964 299.795 284.644 301.355 284.644 303.755V303.915C284.644 306.295 285.944 307.855 288.064 307.855ZM288.044 309.235C285.064 309.235 282.924 306.975 282.924 303.915V303.755C282.924 300.615 285.104 298.415 288.064 298.415C291.024 298.415 293.204 300.595 293.204 303.735V303.895C293.204 307.055 291.024 309.235 288.044 309.235ZM305.347 309.235C302.387 309.235 300.287 307.155 300.287 303.935V303.775C300.287 300.615 302.307 298.415 305.187 298.415C307.607 298.415 309.887 299.875 309.887 303.615V304.155H302.007C302.087 306.535 303.227 307.855 305.367 307.855C306.987 307.855 307.927 307.255 308.147 306.035H309.807C309.447 308.135 307.707 309.235 305.347 309.235ZM302.067 302.815H308.187C308.027 300.655 306.907 299.795 305.187 299.795C303.487 299.795 302.347 300.955 302.067 302.815ZM312.434 309.055V298.595H314.094V300.195C314.574 299.215 315.714 298.415 317.214 298.415C318.554 298.415 319.734 298.975 320.274 300.375C320.994 299.015 322.554 298.415 323.854 298.415C325.734 298.415 327.374 299.535 327.374 302.575V309.055H325.714V302.455C325.714 300.615 324.934 299.855 323.494 299.855C322.134 299.855 320.734 300.775 320.734 302.655V309.055H319.074V302.455C319.074 300.615 318.294 299.855 316.854 299.855C315.494 299.855 314.094 300.775 314.094 302.655V309.055H312.434ZM340.29 307.855C342.39 307.855 343.71 306.275 343.71 303.915V303.775C343.71 301.355 342.37 299.795 340.29 299.795C338.19 299.795 336.87 301.355 336.87 303.755V303.915C336.87 306.295 338.17 307.855 340.29 307.855ZM340.27 309.235C337.29 309.235 335.15 306.975 335.15 303.915V303.755C335.15 300.615 337.33 298.415 340.29 298.415C343.25 298.415 345.43 300.595 345.43 303.735V303.895C345.43 307.055 343.25 309.235 340.27 309.235ZM351.541 309.235C349.461 309.235 347.901 308.095 347.901 305.215V298.595H349.561V305.135C349.561 306.975 350.341 307.795 351.981 307.795C353.461 307.795 354.861 306.815 354.861 304.935V298.595H356.521V309.055H354.861V307.395C354.381 308.375 353.221 309.235 351.541 309.235ZM363.056 309.195C361.156 309.195 360.236 308.075 360.236 306.435V299.995H358.736V298.595H360.236V296.215H361.896V298.595H364.336V299.995H361.896V306.275C361.896 307.295 362.356 307.795 363.196 307.795C363.716 307.795 364.116 307.715 364.476 307.575V308.975C364.136 309.095 363.736 309.195 363.056 309.195ZM366.985 309.055V298.595H368.645V300.475C369.305 299.295 370.205 298.475 372.085 298.415V299.975C369.985 300.075 368.645 300.735 368.645 303.315V309.055H366.985ZM377.027 309.235C375.087 309.235 373.547 308.295 373.547 306.155C373.547 303.735 376.107 302.915 378.787 302.915H380.287V302.155C380.287 300.495 379.647 299.795 378.047 299.795C376.607 299.795 375.807 300.395 375.647 301.675H373.987C374.207 299.295 376.107 298.415 378.127 298.415C380.127 298.415 381.947 299.235 381.947 302.155V309.055H380.287V307.735C379.507 308.715 378.567 309.235 377.027 309.235ZM377.187 307.915C378.947 307.915 380.287 307.015 380.287 305.395V304.095H378.847C376.747 304.095 375.207 304.615 375.207 306.155C375.207 307.235 375.727 307.915 377.187 307.915ZM388.448 309.235C385.948 309.235 384.448 307.975 384.348 305.835H385.968C386.088 307.075 386.748 307.855 388.428 307.855C390.008 307.855 390.708 307.315 390.708 306.195C390.708 305.095 389.888 304.735 388.268 304.435C385.548 303.935 384.628 303.175 384.628 301.355C384.628 299.415 386.528 298.415 388.168 298.415C390.048 298.415 391.668 299.175 391.948 301.435H390.348C390.108 300.295 389.468 299.795 388.148 299.795C386.948 299.795 386.168 300.395 386.168 301.295C386.168 302.235 386.688 302.615 388.608 302.955C390.768 303.355 392.288 303.835 392.288 306.055C392.288 307.955 390.988 309.235 388.448 309.235ZM400.47 309.055V299.995H398.97V298.595H400.47V296.895C400.47 294.775 401.51 293.535 403.59 293.535C404.13 293.535 404.41 293.595 404.83 293.735V295.135C404.53 295.015 404.11 294.915 403.65 294.915C402.57 294.915 402.13 295.655 402.13 296.715V298.595H404.69V299.995H402.13V309.055H400.47ZM410.564 309.235C408.484 309.235 406.924 308.095 406.924 305.215V298.595H408.584V305.135C408.584 306.975 409.364 307.795 411.004 307.795C412.484 307.795 413.884 306.815 413.884 304.935V298.595H415.544V309.055H413.884V307.395C413.404 308.375 412.244 309.235 410.564 309.235ZM418.899 309.055V298.595H420.559V300.255C421.039 299.275 422.199 298.415 423.919 298.415C426.079 298.415 427.599 299.595 427.599 302.635V309.055H425.939V302.515C425.939 300.675 425.159 299.855 423.479 299.855C421.939 299.855 420.559 300.835 420.559 302.715V309.055H418.899ZM434.892 313.335C433.732 313.335 432.972 312.655 432.892 311.655H433.972C434.052 312.035 434.332 312.375 434.832 312.375C435.332 312.375 435.632 312.075 435.632 311.655C435.632 311.235 435.332 310.975 434.912 310.975C434.652 310.975 434.452 311.075 434.352 311.135L433.712 310.575L434.472 309.195C431.912 308.895 430.072 306.915 430.072 303.935V303.775C430.072 300.575 432.352 298.415 435.152 298.415C437.332 298.415 439.372 299.415 439.692 302.075H438.052C437.792 300.415 436.592 299.795 435.152 299.795C433.252 299.795 431.792 301.315 431.792 303.775V303.935C431.792 306.495 433.192 307.855 435.212 307.855C436.692 307.855 438.032 306.995 438.212 305.295H439.752C439.532 307.455 437.872 309.075 435.512 309.215L435.032 310.115C435.952 309.995 436.912 310.515 436.912 311.735C436.912 312.815 435.972 313.335 434.892 313.335ZM446.618 307.855C448.718 307.855 450.038 306.275 450.038 303.915V303.775C450.038 301.355 448.698 299.795 446.618 299.795C444.518 299.795 443.198 301.355 443.198 303.755V303.915C443.198 306.295 444.498 307.855 446.618 307.855ZM446.598 309.235C443.618 309.235 441.478 306.975 441.478 303.915V303.755C441.478 300.615 443.658 298.415 446.618 298.415C449.578 298.415 451.758 300.595 451.758 303.735V303.895C451.758 307.055 449.578 309.235 446.598 309.235ZM447.698 296.675C446.838 296.675 446.118 295.815 445.538 295.815C445.158 295.815 444.838 296.195 444.738 296.715H443.538C443.698 295.295 444.518 294.395 445.558 294.395C446.398 294.395 447.118 295.255 447.698 295.255C448.078 295.255 448.398 294.875 448.498 294.355H449.698C449.538 295.775 448.718 296.675 447.698 296.675ZM458.609 309.235C455.649 309.235 453.549 307.155 453.549 303.935V303.775C453.549 300.615 455.569 298.415 458.449 298.415C460.869 298.415 463.149 299.875 463.149 303.615V304.155H455.269C455.349 306.535 456.489 307.855 458.629 307.855C460.249 307.855 461.189 307.255 461.409 306.035H463.069C462.709 308.135 460.969 309.235 458.609 309.235ZM455.329 302.815H461.449C461.289 300.655 460.169 299.795 458.449 299.795C456.749 299.795 455.609 300.955 455.329 302.815ZM469.033 309.235C466.533 309.235 465.033 307.975 464.933 305.835H466.553C466.673 307.075 467.333 307.855 469.013 307.855C470.593 307.855 471.293 307.315 471.293 306.195C471.293 305.095 470.473 304.735 468.853 304.435C466.133 303.935 465.213 303.175 465.213 301.355C465.213 299.415 467.113 298.415 468.753 298.415C470.633 298.415 472.253 299.175 472.533 301.435H470.933C470.693 300.295 470.053 299.795 468.733 299.795C467.533 299.795 466.753 300.395 466.753 301.295C466.753 302.235 467.273 302.615 469.193 302.955C471.353 303.355 472.873 303.835 472.873 306.055C472.873 307.955 471.573 309.235 469.033 309.235ZM475.523 311.515L474.443 310.955L476.363 306.575L477.983 307.335L475.523 311.515ZM486.34 309.055V298.595H488V300.475C488.66 299.295 489.56 298.475 491.44 298.415V299.975C489.34 300.075 488 300.735 488 303.315V309.055H486.34ZM497.847 309.235C494.887 309.235 492.787 307.155 492.787 303.935V303.775C492.787 300.615 494.807 298.415 497.687 298.415C500.107 298.415 502.387 299.875 502.387 303.615V304.155H494.507C494.587 306.535 495.727 307.855 497.867 307.855C499.487 307.855 500.427 307.255 500.647 306.035H502.307C501.947 308.135 500.207 309.235 497.847 309.235ZM494.567 302.815H500.687C500.527 300.655 499.407 299.795 497.687 299.795C495.987 299.795 494.847 300.955 494.567 302.815ZM509.274 309.235C506.354 309.235 504.154 307.175 504.154 303.935V303.775C504.154 300.575 506.434 298.415 509.234 298.415C511.414 298.415 513.454 299.415 513.774 302.075H512.134C511.874 300.415 510.674 299.795 509.234 299.795C507.334 299.795 505.874 301.315 505.874 303.775V303.935C505.874 306.495 507.274 307.855 509.294 307.855C510.774 307.855 512.114 306.995 512.294 305.295H513.834C513.614 307.555 511.794 309.235 509.274 309.235ZM520.7 307.855C522.8 307.855 524.12 306.275 524.12 303.915V303.775C524.12 301.355 522.78 299.795 520.7 299.795C518.6 299.795 517.28 301.355 517.28 303.755V303.915C517.28 306.295 518.58 307.855 520.7 307.855ZM520.68 309.235C517.7 309.235 515.56 306.975 515.56 303.915V303.755C515.56 300.615 517.74 298.415 520.7 298.415C523.66 298.415 525.84 300.595 525.84 303.735V303.895C525.84 307.055 523.66 309.235 520.68 309.235ZM528.411 309.055V298.595H530.071V300.195C530.551 299.215 531.691 298.415 533.191 298.415C534.531 298.415 535.711 298.975 536.251 300.375C536.971 299.015 538.531 298.415 539.831 298.415C541.711 298.415 543.351 299.535 543.351 302.575V309.055H541.691V302.455C541.691 300.615 540.911 299.855 539.471 299.855C538.111 299.855 536.711 300.775 536.711 302.655V309.055H535.051V302.455C535.051 300.615 534.271 299.855 532.831 299.855C531.471 299.855 530.071 300.775 530.071 302.655V309.055H528.411ZM550.894 309.235C547.934 309.235 545.834 307.155 545.834 303.935V303.775C545.834 300.615 547.854 298.415 550.734 298.415C553.154 298.415 555.434 299.875 555.434 303.615V304.155H547.554C547.634 306.535 548.774 307.855 550.914 307.855C552.534 307.855 553.474 307.255 553.694 306.035H555.354C554.994 308.135 553.254 309.235 550.894 309.235ZM547.614 302.815H553.734C553.574 300.655 552.454 299.795 550.734 299.795C549.034 299.795 547.894 300.955 547.614 302.815ZM557.981 309.055V298.595H559.641V300.255C560.121 299.275 561.281 298.415 563.001 298.415C565.161 298.415 566.681 299.595 566.681 302.635V309.055H565.021V302.515C565.021 300.675 564.241 299.855 562.561 299.855C561.021 299.855 559.641 300.835 559.641 302.715V309.055H557.981ZM573.874 309.235C571.134 309.235 569.154 307.295 569.154 304.035V303.875C569.154 300.675 571.154 298.415 574.034 298.415C575.774 298.415 576.854 299.255 577.454 300.275V293.595H579.114V309.055H577.454V307.255C576.854 308.275 575.394 309.235 573.874 309.235ZM574.054 307.855C575.994 307.855 577.514 306.575 577.514 303.895V303.735C577.514 301.055 576.234 299.795 574.194 299.795C572.114 299.795 570.874 301.255 570.874 303.795V303.955C570.874 306.595 572.294 307.855 574.054 307.855ZM586.833 307.855C588.933 307.855 590.253 306.275 590.253 303.915V303.775C590.253 301.355 588.913 299.795 586.833 299.795C584.733 299.795 583.413 301.355 583.413 303.755V303.915C583.413 306.295 584.713 307.855 586.833 307.855ZM586.813 309.235C583.833 309.235 581.693 306.975 581.693 303.915V303.755C581.693 300.615 583.873 298.415 586.833 298.415C589.793 298.415 591.973 300.595 591.973 303.735V303.895C591.973 307.055 589.793 309.235 586.813 309.235ZM595.723 309.155C595.023 309.155 594.443 308.595 594.443 307.875C594.443 307.155 595.023 306.595 595.723 306.595C596.423 306.595 597.003 307.155 597.003 307.875C597.003 308.595 596.423 309.155 595.723 309.155ZM595.103 305.015L594.823 294.755H596.663L596.383 305.015H595.103Z" fill="#363F4D"/>
<path d="M65.002 190V171.41H71.424C75.948 171.41 78.522 173.412 78.522 177.338V177.442C78.522 181.368 75.792 183.24 71.554 183.24H69.188V190H65.002ZM69.188 180.302H71.32C73.374 180.302 74.466 179.314 74.466 177.468V177.364C74.466 175.388 73.322 174.608 71.32 174.608H69.188V180.302ZM80.9394 190V176.402H84.7094V179.002C85.5674 177.182 86.8934 176.22 89.1034 176.194V179.704C86.3214 179.678 84.7094 180.588 84.7094 183.188V190H80.9394ZM94.9902 190.286C92.5202 190.286 90.4402 189.09 90.4402 186.23C90.4402 183.058 93.3522 181.862 97.5122 181.862H99.0462V181.316C99.0462 179.704 98.5522 178.82 96.8362 178.82C95.3542 178.82 94.6782 179.574 94.5222 180.744H90.9602C91.1942 177.52 93.7422 176.09 97.0702 176.09C100.398 176.09 102.764 177.442 102.764 181.134V190H99.0982V188.362C98.3182 189.454 97.1222 190.286 94.9902 190.286ZM96.1082 187.66C97.7722 187.66 99.0462 186.75 99.0462 185.242V184.098H97.5902C95.4062 184.098 94.1322 184.566 94.1322 186.022C94.1322 187.01 94.7302 187.66 96.1082 187.66ZM95.5362 174.556L97.0182 170.422H100.97L98.2662 174.556H95.5362ZM110.966 190.26C108.106 190.26 106.572 188.804 106.572 185.97V179.08H104.83V176.402H106.572V173.464H110.316V176.402H113.176V179.08H110.316V185.632C110.316 186.724 110.862 187.244 111.824 187.244C112.396 187.244 112.812 187.166 113.254 186.984V189.896C112.734 190.078 111.98 190.26 110.966 190.26ZM115.905 190V176.402H119.649V190H115.905ZM117.751 174.556C116.555 174.556 115.619 173.672 115.619 172.502C115.619 171.332 116.555 170.448 117.751 170.448C118.973 170.448 119.909 171.332 119.909 172.502C119.909 173.672 118.973 174.556 117.751 174.556ZM129.275 190.286C125.297 190.286 122.281 187.816 122.281 183.37V183.162C122.281 178.768 125.427 176.09 129.301 176.09C132.447 176.09 135.359 177.468 135.697 181.368H132.135C131.875 179.782 130.913 179.054 129.379 179.054C127.429 179.054 126.129 180.51 126.129 183.11V183.318C126.129 186.048 127.351 187.452 129.457 187.452C130.965 187.452 132.187 186.568 132.369 184.826H135.775C135.567 188.05 133.227 190.286 129.275 190.286ZM144.488 187.426C146.594 187.426 147.816 185.866 147.816 183.292V183.11C147.816 180.51 146.594 178.95 144.488 178.95C142.408 178.95 141.16 180.458 141.16 183.058V183.266C141.16 185.866 142.356 187.426 144.488 187.426ZM144.462 190.286C140.406 190.286 137.312 187.582 137.312 183.344V183.136C137.312 178.872 140.406 176.09 144.488 176.09C148.57 176.09 151.638 178.82 151.638 183.058V183.266C151.638 187.556 148.544 190.286 144.462 190.286ZM166.196 190.286C162.088 190.286 159.098 187.712 159.098 183.37V183.162C159.098 178.872 162.14 176.09 166.092 176.09C169.602 176.09 172.722 178.144 172.722 183.006V184.046H162.92C163.024 186.308 164.246 187.608 166.3 187.608C168.042 187.608 168.9 186.854 169.134 185.71H172.696C172.254 188.648 169.914 190.286 166.196 190.286ZM162.972 181.732H169.056C168.926 179.678 167.886 178.69 166.092 178.69C164.402 178.69 163.258 179.808 162.972 181.732ZM180.953 194.628V176.402H184.723V178.534C185.477 177.234 187.063 176.09 189.065 176.09C192.393 176.09 194.993 178.56 194.993 183.058V183.266C194.993 187.764 192.445 190.286 189.065 190.286C186.959 190.286 185.425 189.246 184.723 187.92V194.628H180.953ZM187.947 187.348C190.027 187.348 191.171 185.944 191.171 183.292V183.084C191.171 180.328 189.819 178.976 187.921 178.976C185.945 178.976 184.593 180.354 184.593 183.084V183.292C184.593 186.022 185.893 187.348 187.947 187.348ZM203.852 187.426C205.958 187.426 207.18 185.866 207.18 183.292V183.11C207.18 180.51 205.958 178.95 203.852 178.95C201.772 178.95 200.524 180.458 200.524 183.058V183.266C200.524 185.866 201.72 187.426 203.852 187.426ZM203.826 190.286C199.77 190.286 196.676 187.582 196.676 183.344V183.136C196.676 178.872 199.77 176.09 203.852 176.09C207.934 176.09 211.002 178.82 211.002 183.058V183.266C211.002 187.556 207.908 190.286 203.826 190.286ZM218.053 190.286C215.401 190.286 213.425 188.726 213.425 185.164V176.402H217.169V184.644C217.169 186.49 217.923 187.374 219.535 187.374C221.121 187.374 222.369 186.386 222.369 184.384V176.402H226.113V190H222.369V187.868C221.667 189.246 220.289 190.286 218.053 190.286ZM229.449 194.628V176.402H233.219V178.534C233.973 177.234 235.559 176.09 237.561 176.09C240.889 176.09 243.489 178.56 243.489 183.058V183.266C243.489 187.764 240.941 190.286 237.561 190.286C235.455 190.286 233.921 189.246 233.219 187.92V194.628H229.449ZM236.443 187.348C238.523 187.348 239.667 185.944 239.667 183.292V183.084C239.667 180.328 238.315 178.976 236.417 178.976C234.441 178.976 233.089 180.354 233.089 183.084V183.292C233.089 186.022 234.389 187.348 236.443 187.348ZM249.67 190.286C247.2 190.286 245.12 189.09 245.12 186.23C245.12 183.058 248.032 181.862 252.192 181.862H253.726V181.316C253.726 179.704 253.232 178.82 251.516 178.82C250.034 178.82 249.358 179.574 249.202 180.744H245.64C245.874 177.52 248.422 176.09 251.75 176.09C255.078 176.09 257.444 177.442 257.444 181.134V190H253.778V188.362C252.998 189.454 251.802 190.286 249.67 190.286ZM250.788 187.66C252.452 187.66 253.726 186.75 253.726 185.242V184.098H252.27C250.086 184.098 248.812 184.566 248.812 186.022C248.812 187.01 249.41 187.66 250.788 187.66ZM266.443 190V176.402H270.213V178.482C270.889 177.208 272.345 176.09 274.373 176.09C276.167 176.09 277.519 176.844 278.169 178.456C279.261 176.818 281.029 176.09 282.745 176.09C285.267 176.09 287.217 177.676 287.217 181.29V190H283.473V181.706C283.473 179.964 282.693 179.184 281.341 179.184C279.885 179.184 278.715 180.12 278.715 181.966V190H274.971V181.706C274.971 179.964 274.165 179.184 272.839 179.184C271.383 179.184 270.213 180.12 270.213 181.966V190H266.443ZM296.703 190.286C292.595 190.286 289.605 187.712 289.605 183.37V183.162C289.605 178.872 292.647 176.09 296.599 176.09C300.109 176.09 303.229 178.144 303.229 183.006V184.046H293.427C293.531 186.308 294.753 187.608 296.807 187.608C298.549 187.608 299.407 186.854 299.641 185.71H303.203C302.761 188.648 300.421 190.286 296.703 190.286ZM293.479 181.732H299.563C299.433 179.678 298.393 178.69 296.599 178.69C294.909 178.69 293.765 179.808 293.479 181.732ZM310.221 190.286C307.569 190.286 305.593 188.726 305.593 185.164V176.402H309.337V184.644C309.337 186.49 310.091 187.374 311.703 187.374C313.289 187.374 314.537 186.386 314.537 184.384V176.402H318.281V190H314.537V187.868C313.835 189.246 312.457 190.286 310.221 190.286ZM332.347 190.26C329.487 190.26 327.953 188.804 327.953 185.97V179.08H326.211V176.402H327.953V173.464H331.697V176.402H334.557V179.08H331.697V185.632C331.697 186.724 332.243 187.244 333.205 187.244C333.777 187.244 334.193 187.166 334.635 186.984V189.896C334.115 190.078 333.361 190.26 332.347 190.26ZM343.448 190.286C339.34 190.286 336.35 187.712 336.35 183.37V183.162C336.35 178.872 339.392 176.09 343.344 176.09C346.854 176.09 349.974 178.144 349.974 183.006V184.046H340.172C340.276 186.308 341.498 187.608 343.552 187.608C345.294 187.608 346.152 186.854 346.386 185.71H349.948C349.506 188.648 347.166 190.286 343.448 190.286ZM340.224 181.732H346.308C346.178 179.678 345.138 178.69 343.344 178.69C341.654 178.69 340.51 179.808 340.224 181.732ZM352.441 190V176.402H356.211V178.482C356.887 177.208 358.343 176.09 360.371 176.09C362.165 176.09 363.517 176.844 364.167 178.456C365.259 176.818 367.027 176.09 368.743 176.09C371.265 176.09 373.215 177.676 373.215 181.29V190H369.471V181.706C369.471 179.964 368.691 179.184 367.339 179.184C365.883 179.184 364.713 180.12 364.713 181.966V190H360.969V181.706C360.969 179.964 360.163 179.184 358.837 179.184C357.381 179.184 356.211 180.12 356.211 181.966V190H352.441ZM376.435 194.628V176.402H380.205V178.534C380.959 177.234 382.545 176.09 384.547 176.09C387.875 176.09 390.475 178.56 390.475 183.058V183.266C390.475 187.764 387.927 190.286 384.547 190.286C382.441 190.286 380.907 189.246 380.205 187.92V194.628H376.435ZM383.429 187.348C385.509 187.348 386.653 185.944 386.653 183.292V183.084C386.653 180.328 385.301 178.976 383.403 178.976C381.427 178.976 380.075 180.354 380.075 183.084V183.292C380.075 186.022 381.375 187.348 383.429 187.348ZM399.334 187.426C401.44 187.426 402.662 185.866 402.662 183.292V183.11C402.662 180.51 401.44 178.95 399.334 178.95C397.254 178.95 396.006 180.458 396.006 183.058V183.266C396.006 185.866 397.202 187.426 399.334 187.426ZM399.308 190.286C395.252 190.286 392.158 187.582 392.158 183.344V183.136C392.158 178.872 395.252 176.09 399.334 176.09C403.416 176.09 406.484 178.82 406.484 183.058V183.266C406.484 187.556 403.39 190.286 399.308 190.286Z" fill="#363F4D"/>
<path d="M65.98 395V379.27H70.446C73.46 379.27 75.946 380.59 75.946 383.868V383.956C75.946 387.3 73.438 388.598 70.446 388.598H67.894V395H65.98ZM67.894 387.08H70.578C72.822 387.08 74.032 385.98 74.032 383.956V383.868C74.032 381.646 72.712 380.81 70.578 380.81H67.894V387.08ZM83.1049 393.68C85.4149 393.68 86.8669 391.942 86.8669 389.346V389.192C86.8669 386.53 85.3929 384.814 83.1049 384.814C80.7949 384.814 79.3429 386.53 79.3429 389.17V389.346C79.3429 391.964 80.7729 393.68 83.1049 393.68ZM83.0829 395.198C79.8049 395.198 77.4509 392.712 77.4509 389.346V389.17C77.4509 385.716 79.8489 383.296 83.1049 383.296C86.3609 383.296 88.7589 385.694 88.7589 389.148V389.324C88.7589 392.8 86.3609 395.198 83.0829 395.198ZM91.5863 395V383.494H93.4123V385.562C94.1383 384.264 95.1283 383.362 97.1963 383.296V385.012C94.8863 385.122 93.4123 385.848 93.4123 388.686V395H91.5863ZM110.014 395.198C107 395.198 104.822 393.064 104.822 389.478V389.302C104.822 385.782 107.022 383.296 110.19 383.296C112.104 383.296 113.292 384.22 113.952 385.342V377.994H115.778V395H113.952V393.02C113.292 394.142 111.686 395.198 110.014 395.198ZM110.212 393.68C112.346 393.68 114.018 392.272 114.018 389.324V389.148C114.018 386.2 112.61 384.814 110.366 384.814C108.078 384.814 106.714 386.42 106.714 389.214V389.39C106.714 392.294 108.276 393.68 110.212 393.68ZM122.355 395.198C120.221 395.198 118.527 394.164 118.527 391.81C118.527 389.148 121.343 388.246 124.291 388.246H125.941V387.41C125.941 385.584 125.237 384.814 123.477 384.814C121.893 384.814 121.013 385.474 120.837 386.882H119.011C119.253 384.264 121.343 383.296 123.565 383.296C125.765 383.296 127.767 384.198 127.767 387.41V395H125.941V393.548C125.083 394.626 124.049 395.198 122.355 395.198ZM122.531 393.746C124.467 393.746 125.941 392.756 125.941 390.974V389.544H124.357C122.047 389.544 120.353 390.116 120.353 391.81C120.353 392.998 120.925 393.746 122.531 393.746ZM131.354 395V383.494H133.18V385.32C133.708 384.242 134.984 383.296 136.876 383.296C139.252 383.296 140.924 384.594 140.924 387.938V395H139.098V387.806C139.098 385.782 138.24 384.88 136.392 384.88C134.698 384.88 133.18 385.958 133.18 388.026V395H131.354ZM143.072 395V394.56L149.32 387.982C150.75 386.464 151.586 385.034 151.586 383.428C151.586 381.668 150.552 380.612 148.77 380.612C146.944 380.612 145.756 381.646 145.448 384.11H143.666C143.908 381.03 145.778 379.072 148.77 379.072C151.674 379.072 153.522 380.788 153.522 383.494C153.522 385.43 152.29 387.322 150.354 389.214L146.02 393.438H153.61V395H143.072ZM161.216 395.198C157.872 395.198 155.826 393.108 155.716 390.358H157.476C157.652 392.228 158.774 393.658 161.26 393.658C163.724 393.658 164.846 392.47 164.846 390.622C164.846 388.598 163.746 387.564 161.524 387.564H160.336V385.958H161.436C163.482 385.958 164.384 384.99 164.384 383.274C164.384 381.778 163.438 380.634 161.524 380.634C159.566 380.634 158.246 381.822 158.048 383.604H156.376C156.486 381.118 158.532 379.072 161.524 379.072C164.516 379.072 166.254 381.052 166.254 383.23C166.254 385.012 165.198 386.068 163.768 386.662C165.616 387.146 166.804 388.444 166.804 390.622C166.804 393.482 164.472 395.198 161.216 395.198ZM176.632 395V391.7H168.756V391.084L175.95 379.27H178.502V390.138H180.68V391.7H178.502V395H176.632ZM171.176 390.138H176.632V380.722L171.176 390.138ZM187.659 395.198C184.271 395.198 182.643 393.328 182.423 390.754H184.249C184.557 392.47 185.239 393.658 187.637 393.658C189.771 393.658 191.091 392.228 191.091 389.852C191.091 387.63 189.793 386.178 187.791 386.178C185.965 386.178 184.909 386.75 184.073 387.696H183.369V379.27H192.213V380.92H184.953V385.716C185.591 385.122 186.669 384.638 188.165 384.638C190.981 384.638 193.049 386.64 193.049 389.852C193.049 393.174 190.651 395.198 187.659 395.198ZM200.356 395.198C196.968 395.198 195.34 393.328 195.12 390.754H196.946C197.254 392.47 197.936 393.658 200.334 393.658C202.468 393.658 203.788 392.228 203.788 389.852C203.788 387.63 202.49 386.178 200.488 386.178C198.662 386.178 197.606 386.75 196.77 387.696H196.066V379.27H204.91V380.92H197.65V385.716C198.288 385.122 199.366 384.638 200.862 384.638C203.678 384.638 205.746 386.64 205.746 389.852C205.746 393.174 203.348 395.198 200.356 395.198ZM209.525 395L215.003 380.81H207.017V379.27H217.379V379.534L211.483 395H209.525Z" fill="#444E5E"/>
<g clip-path="url(#clip0_501_20)">
<path d="M78.4324 86.6393L82.6645 96.8144L93.6493 97.6951L85.28 104.864L87.837 115.584L78.4324 109.839L69.0279 115.584L71.5848 104.864L63.2155 97.6951L74.2004 96.8144L78.4324 86.6393Z" fill="#2DD1AC"/>
</g>
<g clip-path="url(#clip1_501_20)">
<path d="M126.432 86.6393L130.664 96.8144L141.649 97.6951L133.28 104.864L135.837 115.584L126.432 109.839L117.028 115.584L119.585 104.864L111.216 97.6951L122.2 96.8144L126.432 86.6393Z" fill="#2DD1AC"/>
</g>
<g clip-path="url(#clip2_501_20)">
<path d="M174.432 86.6393L178.664 96.8144L189.649 97.6951L181.28 104.864L183.837 115.584L174.432 109.839L165.028 115.584L167.585 104.864L159.216 97.6951L170.2 96.8144L174.432 86.6393Z" fill="#2DD1AC"/>
</g>
<g clip-path="url(#clip3_501_20)">
<path d="M222.432 86.6393L226.664 96.8144L237.649 97.6951L229.28 104.864L231.837 115.584L222.432 109.839L213.028 115.584L215.585 104.864L207.216 97.6951L218.2 96.8144L222.432 86.6393Z" fill="#2DD1AC"/>
</g>
<g clip-path="url(#clip4_501_20)">
<path d="M270.432 86.6393L274.664 96.8144L285.649 97.6951L277.28 104.864L279.837 115.584L270.432 109.839L261.028 115.584L263.585 104.864L255.216 97.6951L266.2 96.8144L270.432 86.6393Z" fill="#2DD1AC"/>
</g>
<defs>
<filter id="filter0_d_501_20" x="0" y="0" width="668" height="508" filterUnits="userSpaceOnUse" color-interpolation-filters="sRGB">
<feFlood flood-opacity="0" result="BackgroundImageFix"/>
<feColorMatrix in="SourceAlpha" type="matrix" values="0 0 0 0 0 0 0 0 0 0 0 0 0 0 0 0 0 0 127 0" result="hardAlpha"/>
<feOffset dy="5"/>
<feGaussianBlur stdDeviation="7"/>
<feColorMatrix type="matrix" values="0 0 0 0 0.0323264 0 0 0 0 0.0598209 0 0 0 0 0.204167 0 0 0 0.04 0"/>
<feBlend mode="normal" in2="BackgroundImageFix" result="effect1_dropShadow_501_20"/>
<feBlend mode="normal" in="SourceGraphic" in2="effect1_dropShadow_501_20" result="shape"/>
</filter>
<clipPath id="clip0_501_20">
<rect width="32" height="32" fill="white" transform="translate(62.4324 86.6393)"/>
</clipPath>
<clipPath id="clip1_501_20">
<rect width="32" height="32" fill="white" transform="translate(110.432 86.6393)"/>
</clipPath>
<clipPath id="clip2_501_20">
<rect width="32" height="32" fill="white" transform="translate(158.432 86.6393)"/>
</clipPath>
<clipPath id="clip3_501_20">
<rect width="32" height="32" fill="white" transform="translate(206.432 86.6393)"/>
</clipPath>
<clipPath id="clip4_501_20">
<rect width="32" height="32" fill="white" transform="translate(254.432 86.6393)"/>
</clipPath>
</defs>
</svg>
