<?xml version="1.0" encoding="UTF-8"?>
<svg id="Layer_1" xmlns="http://www.w3.org/2000/svg" xmlns:xlink="http://www.w3.org/1999/xlink" version="1.1" viewBox="0 0 668 508">
  <!-- Generator: Adobe Illustrator 29.2.1, SVG Export Plug-In . SVG Version: 2.1.0 Build 116)  -->
  <defs>
    <style>
      .st0 {
        fill: none;
      }

      .st1 {
        fill: #444e5e;
      }

      .st2 {
        clip-path: url(#clippath-1);
      }

      .st3 {
        clip-path: url(#clippath-3);
      }

      .st4 {
        clip-path: url(#clippath-4);
      }

      .st5 {
        clip-path: url(#clippath-2);
      }

      .st6 {
        fill: #fff;
      }

      .st7 {
        fill: #363f4d;
      }

      .st8 {
        fill: #2dd1ac;
      }

      .st9 {
        clip-path: url(#clippath);
      }
    </style>
    <clipPath id="clippath">
      <rect class="st0" x="61" y="89" width="32" height="32"/>
    </clipPath>
    <clipPath id="clippath-1">
      <rect class="st0" x="109" y="89" width="32" height="32"/>
    </clipPath>
    <clipPath id="clippath-2">
      <rect class="st0" x="157" y="89" width="32" height="32"/>
    </clipPath>
    <clipPath id="clippath-3">
      <rect class="st0" x="205" y="89" width="32" height="32"/>
    </clipPath>
    <clipPath id="clippath-4">
      <rect class="st0" x="253" y="89" width="32" height="32"/>
    </clipPath>
  </defs>
  <g>
    <rect class="st1" x="14" y="14" width="640" height="480" rx="12" ry="12"/>
    <path class="st6" d="M67,252.2c-4.4,0-6.9-3.1-6.9-7.2v-.2c0-4.2,2.8-7.3,6.9-7.3s5.4,1.3,5.8,4.5h-1.7c-.4-2.3-2-3.2-4-3.2-3.3,0-5.2,2.4-5.2,5.9v.2c0,3.5,1.8,5.9,5.1,5.9s4.4-2,4.5-4.6h-4.2v-1.4h5.9v1.1c0,4.1-2.5,6.3-6.2,6.3ZM80.4,250.8c2.1,0,3.4-1.6,3.4-3.9h0c0-2.6-1.3-4.1-3.4-4.1s-3.4,1.6-3.4,4v.2c0,2.4,1.3,3.9,3.4,3.9ZM80.4,252.2c-3,0-5.1-2.3-5.1-5.3v-.2c0-3.1,2.2-5.3,5.1-5.3s5.1,2.2,5.1,5.3v.2c0,3.2-2.2,5.3-5.2,5.3ZM91.3,252.2c-2.5,0-4-1.3-4.1-3.4h1.6c.1,1.2.8,2,2.5,2s2.3-.5,2.3-1.7-.8-1.5-2.4-1.8c-2.7-.5-3.6-1.3-3.6-3.1s1.9-2.9,3.5-2.9,3.5.8,3.8,3h-1.6c-.2-1.1-.9-1.6-2.2-1.6s-2,.6-2,1.5.5,1.3,2.4,1.7c2.2.4,3.7.9,3.7,3.1s-1.3,3.2-3.8,3.2ZM100.9,252.2c-1.9,0-2.8-1.1-2.8-2.8v-6.4h-1.5v-1.4h1.5v-2.4h1.7v2.4h2.4v1.4h-2.4v6.3c0,1,.5,1.5,1.3,1.5s.9,0,1.3-.2v1.4c-.3.1-.7.2-1.4.2ZM107.5,252.2c-1.9,0-3.5-.9-3.5-3.1s2.6-3.2,5.2-3.2h1.5v-.8c0-1.7-.6-2.4-2.2-2.4s-2.2.6-2.4,1.9h-1.7c.2-2.4,2.1-3.3,4.1-3.3s3.8.8,3.8,3.7v6.9h-1.7v-1.3c-.8,1-1.7,1.5-3.3,1.5ZM107.7,250.9c1.8,0,3.1-.9,3.1-2.5v-1.3h-1.4c-2.1,0-3.6.5-3.6,2.1s.5,1.8,2,1.8ZM115.7,252v-10.5h1.7v1.9c.7-1.2,1.6-2,3.4-2.1v1.6c-2.1,0-3.4.8-3.4,3.3v5.7h-1.7ZM123.3,252v-10.5h1.7v10.5h-1.7ZM124.1,239.4c-.6,0-1.1-.5-1.1-1.1s.5-1.1,1.1-1.1,1.1.5,1.1,1.1-.5,1.1-1.1,1.1ZM130.9,252.2c-1.9,0-3.5-.9-3.5-3.1s2.6-3.2,5.2-3.2h1.5v-.8c0-1.7-.6-2.4-2.2-2.4s-2.2.6-2.4,1.9h-1.7c.2-2.4,2.1-3.3,4.1-3.3s3.8.8,3.8,3.7v6.9h-1.7v-1.3c-.8,1-1.7,1.5-3.3,1.5ZM131.1,250.9c1.8,0,3.1-.9,3.1-2.5v-1.3h-1.4c-2.1,0-3.6.5-3.6,2.1s.5,1.8,2,1.8ZM148.4,252.2c-2.7,0-4.7-1.9-4.7-5.2v-.2c0-3.2,2-5.5,4.9-5.5s2.8.8,3.4,1.9v-6.7h1.7v15.5h-1.7v-1.8c-.6,1-2.1,2-3.6,2ZM148.5,250.8c1.9,0,3.5-1.3,3.5-4v-.2c0-2.7-1.3-3.9-3.3-3.9s-3.3,1.5-3.3,4v.2c0,2.6,1.4,3.9,3.2,3.9ZM161.2,252.2c-3,0-5.1-2.1-5.1-5.3v-.2c0-3.2,2-5.4,4.9-5.4s4.7,1.5,4.7,5.2v.5h-7.9c0,2.4,1.2,3.7,3.4,3.7s2.6-.6,2.8-1.8h1.7c-.4,2.1-2.1,3.2-4.5,3.2ZM157.9,245.8h6.1c-.2-2.2-1.3-3-3-3s-2.8,1.2-3.1,3ZM173.6,255.7v-14.1h1.7v1.8c.6-1,2-1.9,3.5-1.9,2.7,0,4.8,2,4.8,5.3v.2c0,3.2-1.9,5.4-4.8,5.4s-2.9-.9-3.5-1.9v5.4h-1.7ZM178.6,250.8c2.1,0,3.2-1.4,3.2-3.9v-.2c0-2.6-1.5-4-3.2-4s-3.4,1.3-3.4,4v.2c0,2.7,1.4,3.9,3.4,3.9ZM188.8,252.2c-1.9,0-3.5-.9-3.5-3.1s2.6-3.2,5.2-3.2h1.5v-.8c0-1.7-.6-2.4-2.2-2.4s-2.2.6-2.4,1.9h-1.7c.2-2.4,2.1-3.3,4.1-3.3s3.8.8,3.8,3.7v6.9h-1.7v-1.3c-.8,1-1.7,1.5-3.3,1.5ZM188.9,250.9c1.8,0,3.1-.9,3.1-2.5v-1.3h-1.4c-2.1,0-3.6.5-3.6,2.1s.5,1.8,2,1.8ZM196.9,252v-10.5h1.7v1.9c.7-1.2,1.6-2,3.4-2.1v1.6c-2.1,0-3.4.8-3.4,3.3v5.7h-1.7ZM207,252.2c-1.9,0-3.5-.9-3.5-3.1s2.6-3.2,5.2-3.2h1.5v-.8c0-1.7-.6-2.4-2.2-2.4s-2.2.6-2.4,1.9h-1.7c.2-2.4,2.1-3.3,4.1-3.3s3.8.8,3.8,3.7v6.9h-1.7v-1.3c-.8,1-1.7,1.5-3.3,1.5ZM207.2,250.9c1.8,0,3.1-.9,3.1-2.5v-1.3h-1.4c-2.1,0-3.6.5-3.6,2.1s.5,1.8,2,1.8ZM220.4,252.2c-1.7,0-2.9-.9-3.5-1.9v1.7h-1.7v-15.5h1.7v6.8c.6-1,2-1.9,3.5-1.9,2.7,0,4.8,2,4.8,5.3v.2c0,3.2-1.9,5.4-4.8,5.4ZM220.2,250.8c2.1,0,3.2-1.4,3.2-3.9v-.2c0-2.6-1.5-4-3.2-4s-3.4,1.3-3.4,4v.2c0,2.7,1.4,3.9,3.4,3.9ZM232,252.2c-3,0-5.1-2.1-5.1-5.3v-.2c0-3.2,2-5.4,4.9-5.4s4.7,1.5,4.7,5.2v.5h-7.9c0,2.4,1.2,3.7,3.4,3.7s2.6-.6,2.8-1.8h1.7c-.4,2.1-2.1,3.2-4.5,3.2ZM228.7,245.8h6.1c-.2-2.2-1.3-3-3-3s-2.8,1.2-3.1,3ZM239.1,252v-10.5h1.7v1.7c.5-1,1.6-1.8,3.4-1.8s3.7,1.2,3.7,4.2v6.4h-1.7v-6.5c0-1.8-.8-2.7-2.5-2.7s-2.9,1-2.9,2.9v6.3h-1.7ZM251.1,252v-10.5h1.7v10.5h-1.7ZM251.9,239.4c-.6,0-1.1-.5-1.1-1.1s.5-1.1,1.1-1.1,1.1.5,1.1,1.1-.5,1.1-1.1,1.1ZM254.9,252v-.2l6.2-8.8h-5.6v-1.4h8.1v.3l-6,8.7h6v1.5h-8.7ZM268.5,252.2c-1.9,0-3.5-.9-3.5-3.1s2.6-3.2,5.2-3.2h1.5v-.8c0-1.7-.6-2.4-2.2-2.4s-2.2.6-2.4,1.9h-1.7c.2-2.4,2.1-3.3,4.1-3.3s3.8.8,3.8,3.7v6.9h-1.7v-1.3c-.8,1-1.7,1.5-3.3,1.5ZM268.7,250.9c1.8,0,3.1-.9,3.1-2.5v-1.3h-1.4c-2.1,0-3.6.5-3.6,2.1s.5,1.8,2,1.8ZM276.7,252v-10.5h1.7v1.9c.7-1.2,1.6-2,3.4-2.1v1.6c-2.1,0-3.4.8-3.4,3.3v5.7h-1.7ZM292.1,252.2c-1.9,0-3.5-.9-3.5-3.1s2.6-3.2,5.2-3.2h1.5v-.8c0-1.7-.6-2.4-2.2-2.4s-2.2.6-2.4,1.9h-1.7c.2-2.4,2.1-3.3,4.1-3.3s3.8.8,3.8,3.7v6.9h-1.7v-1.3c-.8,1-1.7,1.5-3.3,1.5ZM292.3,250.9c1.8,0,3.1-.9,3.1-2.5v-1.3h-1.4c-2.1,0-3.6.5-3.6,2.1s.5,1.8,2,1.8ZM309.9,252.2c-3,0-5.1-2.1-5.1-5.3v-.2c0-3.2,2-5.4,4.9-5.4s4.7,1.5,4.7,5.2v.5h-7.9c0,2.4,1.2,3.7,3.4,3.7s2.6-.6,2.8-1.8h1.7c-.4,2.1-2.1,3.2-4.5,3.2ZM306.6,245.8h6.1c-.2-2.2-1.3-3-3-3s-2.8,1.2-3.1,3ZM324.5,255.7v-5.4c-.6,1-2.1,2-3.6,2-2.7,0-4.7-1.9-4.7-5.2v-.2c0-3.2,2-5.5,4.9-5.5s2.8.8,3.4,1.9v-1.7h1.7v14.1h-1.7ZM321.1,250.8c1.9,0,3.5-1.3,3.5-4v-.2c0-2.7-1.3-3.9-3.3-3.9s-3.3,1.5-3.3,4v.2c0,2.6,1.4,3.9,3.2,3.9ZM333,252.2c-2.1,0-3.6-1.1-3.6-4v-6.6h1.7v6.5c0,1.8.8,2.7,2.4,2.7s2.9-1,2.9-2.9v-6.3h1.7v10.5h-1.7v-1.7c-.5,1-1.6,1.8-3.3,1.8ZM341.4,252v-10.5h1.7v10.5h-1.7ZM342.2,239.4c-.6,0-1.1-.5-1.1-1.1s.5-1.1,1.1-1.1,1.1.5,1.1,1.1-.5,1.1-1.1,1.1ZM346.5,255.7v-14.1h1.7v1.8c.6-1,2-1.9,3.5-1.9,2.7,0,4.8,2,4.8,5.3v.2c0,3.2-1.9,5.4-4.8,5.4s-2.9-.9-3.5-1.9v5.4h-1.7ZM351.5,250.8c2.1,0,3.2-1.4,3.2-3.9v-.2c0-2.6-1.5-4-3.2-4s-3.4,1.3-3.4,4v.2c0,2.7,1.4,3.9,3.4,3.9ZM363.3,252.2c-3,0-5.1-2.1-5.1-5.3v-.2c0-3.2,2-5.4,4.9-5.4s4.7,1.5,4.7,5.2v.5h-7.9c0,2.4,1.2,3.7,3.4,3.7s2.6-.6,2.8-1.8h1.7c-.4,2.1-2.1,3.2-4.5,3.2ZM360,245.8h6.1c-.2-2.2-1.3-3-3-3s-2.8,1.2-3.1,3ZM379.6,252.2c-2.7,0-4.7-1.9-4.7-5.2v-.2c0-3.2,2-5.5,4.9-5.5s2.8.8,3.4,1.9v-6.7h1.7v15.5h-1.7v-1.8c-.6,1-2.1,2-3.6,2ZM379.8,250.8c1.9,0,3.5-1.3,3.5-4v-.2c0-2.7-1.3-3.9-3.3-3.9s-3.3,1.5-3.3,4v.2c0,2.6,1.4,3.9,3.2,3.9ZM392.5,252.2c-3,0-5.1-2.1-5.1-5.3v-.2c0-3.2,2-5.4,4.9-5.4s4.7,1.5,4.7,5.2v.5h-7.9c0,2.4,1.2,3.7,3.4,3.7s2.6-.6,2.8-1.8h1.7c-.4,2.1-2.1,3.2-4.5,3.2ZM389.2,245.8h6.1c-.2-2.2-1.3-3-3-3s-2.8,1.2-3.1,3ZM408.1,252.2c-2.5,0-4-1.3-4.1-3.4h1.6c.1,1.2.8,2,2.5,2s2.3-.5,2.3-1.7-.8-1.5-2.4-1.8c-2.7-.5-3.6-1.3-3.6-3.1s1.9-2.9,3.5-2.9,3.5.8,3.8,3h-1.6c-.2-1.1-.9-1.6-2.2-1.6s-2,.6-2,1.5.5,1.3,2.4,1.7c2.2.4,3.7.9,3.7,3.1s-1.3,3.2-3.8,3.2ZM418,252.2c-2.1,0-3.6-1.1-3.6-4v-6.6h1.7v6.5c0,1.8.8,2.7,2.4,2.7s2.9-1,2.9-2.9v-6.3h1.7v10.5h-1.7v-1.7c-.5,1-1.6,1.8-3.3,1.8ZM426.4,255.7v-14.1h1.7v1.8c.6-1,2-1.9,3.5-1.9,2.7,0,4.8,2,4.8,5.3v.2c0,3.2-1.9,5.4-4.8,5.4s-2.9-.9-3.5-1.9v5.4h-1.7ZM431.4,250.8c2.1,0,3.2-1.4,3.2-3.9v-.2c0-2.6-1.5-4-3.2-4s-3.4,1.3-3.4,4v.2c0,2.7,1.4,3.9,3.4,3.9ZM443.3,250.8c2.1,0,3.4-1.6,3.4-3.9h0c0-2.6-1.3-4.1-3.4-4.1s-3.4,1.6-3.4,4v.2c0,2.4,1.3,3.9,3.4,3.9ZM443.2,252.2c-3,0-5.1-2.3-5.1-5.3v-.2c0-3.1,2.2-5.3,5.1-5.3s5.1,2.2,5.1,5.3v.2c0,3.2-2.2,5.3-5.2,5.3ZM451,252v-10.5h1.7v1.9c.7-1.2,1.6-2,3.4-2.1v1.6c-2.1,0-3.4.8-3.4,3.3v5.7h-1.7ZM461.8,252.2c-1.9,0-2.8-1.1-2.8-2.8v-6.4h-1.5v-1.4h1.5v-2.4h1.7v2.4h2.4v1.4h-2.4v6.3c0,1,.5,1.5,1.3,1.5s.9,0,1.3-.2v1.4c-.3.1-.7.2-1.4.2ZM470,252.2c-3,0-5.1-2.1-5.1-5.3v-.2c0-3.2,2-5.4,4.9-5.4s4.7,1.5,4.7,5.2v.5h-7.9c0,2.4,1.2,3.7,3.4,3.7s2.6-.6,2.8-1.8h1.7c-.4,2.1-2.1,3.2-4.5,3.2ZM466.7,245.8h6.1c-.2-2.2-1.3-3-3-3s-2.8,1.2-3.1,3ZM486.3,252.2c-2.7,0-4.7-1.9-4.7-5.2v-.2c0-3.2,2-5.5,4.9-5.5s2.8.8,3.4,1.9v-6.7h1.7v15.5h-1.7v-1.8c-.6,1-2.1,2-3.6,2ZM486.5,250.8c1.9,0,3.5-1.3,3.5-4v-.2c0-2.7-1.3-3.9-3.3-3.9s-3.3,1.5-3.3,4v.2c0,2.6,1.4,3.9,3.2,3.9ZM499.3,250.8c2.1,0,3.4-1.6,3.4-3.9h0c0-2.6-1.3-4.1-3.4-4.1s-3.4,1.6-3.4,4v.2c0,2.4,1.3,3.9,3.4,3.9ZM499.2,252.2c-3,0-5.1-2.3-5.1-5.3v-.2c0-3.1,2.2-5.3,5.1-5.3s5.1,2.2,5.1,5.3v.2c0,3.2-2.2,5.3-5.2,5.3ZM514.9,252.2c-1.9,0-3.5-.9-3.5-3.1s2.6-3.2,5.2-3.2h1.5v-.8c0-1.7-.6-2.4-2.2-2.4s-2.2.6-2.4,1.9h-1.7c.2-2.4,2.1-3.3,4.1-3.3s3.8.8,3.8,3.7v6.9h-1.7v-1.3c-.8,1-1.7,1.5-3.3,1.5ZM515,250.9c1.8,0,3.1-.9,3.1-2.5v-1.3h-1.4c-2.1,0-3.6.5-3.6,2.1s.5,1.8,2,1.8ZM523.1,255.7v-14.1h1.7v1.8c.6-1,2-1.9,3.5-1.9,2.7,0,4.8,2,4.8,5.3v.2c0,3.2-1.9,5.4-4.8,5.4s-2.9-.9-3.5-1.9v5.4h-1.7ZM528.1,250.8c2.1,0,3.2-1.4,3.2-3.9v-.2c0-2.6-1.5-4-3.2-4s-3.4,1.3-3.4,4v.2c0,2.7,1.4,3.9,3.4,3.9ZM535.6,255.7v-14.1h1.7v1.8c.6-1,2-1.9,3.5-1.9,2.7,0,4.8,2,4.8,5.3v.2c0,3.2-1.9,5.4-4.8,5.4s-2.9-.9-3.5-1.9v5.4h-1.7ZM540.6,250.8c2.1,0,3.2-1.4,3.2-3.9v-.2c0-2.6-1.5-4-3.2-4s-3.4,1.3-3.4,4v.2c0,2.7,1.4,3.9,3.4,3.9ZM547.9,254.5l-1.1-.6,1.9-4.4,1.6.8-2.5,4.2ZM60.7,282v-10.5h1.7v1.9c.7-1.2,1.6-2,3.4-2.1v1.6c-2.1.1-3.4.8-3.4,3.3v5.7h-1.7ZM72.2,282.2c-3,0-5.1-2.1-5.1-5.3v-.2c0-3.2,2-5.4,4.9-5.4s4.7,1.5,4.7,5.2v.5h-7.9c0,2.4,1.2,3.7,3.4,3.7s2.6-.6,2.8-1.8h1.7c-.4,2.1-2.1,3.2-4.5,3.2ZM68.9,275.8h6.1c-.2-2.2-1.3-3-3-3s-2.8,1.2-3.1,3ZM82.6,282.2c-2.5,0-4-1.3-4.1-3.4h1.6c.1,1.2.8,2,2.5,2s2.3-.5,2.3-1.7-.8-1.5-2.4-1.8c-2.7-.5-3.6-1.3-3.6-3.1s1.9-2.9,3.5-2.9,3.5.8,3.8,3h-1.6c-.2-1.1-.9-1.6-2.2-1.6s-2,.6-2,1.5.5,1.3,2.4,1.7c2.2.4,3.7.9,3.7,3.1s-1.3,3.2-3.8,3.2ZM93.3,280.8c2.1,0,3.4-1.6,3.4-3.9h0c0-2.6-1.3-4.1-3.4-4.1s-3.4,1.6-3.4,4v.2c0,2.4,1.3,3.9,3.4,3.9ZM93.3,282.2c-3,0-5.1-2.3-5.1-5.3v-.2c0-3.1,2.2-5.3,5.1-5.3s5.1,2.2,5.1,5.3v.2c0,3.2-2.2,5.3-5.2,5.3ZM101.1,282v-15.5h1.7v15.5h-1.7ZM108.8,282l-3.8-10.5h1.8l3.1,8.8,3.1-8.8h1.7l-3.8,10.5h-2.1ZM120.8,282.2c-3,0-5.1-2.1-5.1-5.3v-.2c0-3.2,2-5.4,4.9-5.4s4.7,1.5,4.7,5.2v.5h-7.9c0,2.4,1.2,3.7,3.4,3.7s2.6-.6,2.8-1.8h1.7c-.4,2.1-2.1,3.2-4.5,3.2ZM117.6,275.8h6.1c-.2-2.2-1.3-3-3-3s-2.8,1.2-3.1,3ZM127.9,282v-10.5h1.7v1.9c.7-1.2,1.6-2,3.4-2.1v1.6c-2.1.1-3.4.8-3.4,3.3v5.7h-1.7ZM138,282.2c-1.9,0-3.5-.9-3.5-3.1s2.6-3.2,5.2-3.2h1.5v-.8c0-1.7-.6-2.4-2.2-2.4s-2.2.6-2.4,1.9h-1.7c.2-2.4,2.1-3.3,4.1-3.3s3.8.8,3.8,3.7v6.9h-1.7v-1.3c-.8,1-1.7,1.5-3.3,1.5ZM138.1,280.9c1.8,0,3.1-.9,3.1-2.5v-1.3h-1.4c-2.1,0-3.6.5-3.6,2.1s.5,1.8,2,1.8ZM146.1,282v-10.5h1.7v1.6c.5-1,1.6-1.8,3.1-1.8s2.5.6,3.1,2c.7-1.4,2.3-2,3.6-2,1.9,0,3.5,1.1,3.5,4.2v6.5h-1.7v-6.6c0-1.8-.8-2.6-2.2-2.6s-2.8.9-2.8,2.8v6.4h-1.7v-6.6c0-1.8-.8-2.6-2.2-2.6s-2.8.9-2.8,2.8v6.4h-1.7ZM169.6,282v-10.5h1.7v1.6c.5-1,1.6-1.8,3.1-1.8s2.5.6,3.1,2c.7-1.4,2.3-2,3.6-2,1.9,0,3.5,1.1,3.5,4.2v6.5h-1.7v-6.6c0-1.8-.8-2.6-2.2-2.6s-2.8.9-2.8,2.8v6.4h-1.7v-6.6c0-1.8-.8-2.6-2.2-2.6s-2.8.9-2.8,2.8v6.4h-1.7ZM192.1,282.2c-3,0-5.1-2.1-5.1-5.3v-.2c0-3.2,2-5.4,4.9-5.4s4.7,1.5,4.7,5.2v.5h-7.9c0,2.4,1.2,3.7,3.4,3.7s2.6-.6,2.8-1.8h1.7c-.4,2.1-2.1,3.2-4.5,3.2ZM188.8,275.8h6.1c-.2-2.2-1.3-3-3-3s-2.8,1.2-3.1,3ZM202.8,282.2c-2.1,0-3.6-1.1-3.6-4v-6.6h1.7v6.5c0,1.8.8,2.7,2.4,2.7s2.9-1,2.9-2.9v-6.3h1.7v10.5h-1.7v-1.7c-.5,1-1.6,1.8-3.3,1.8ZM216.4,285.7v-14.1h1.7v1.8c.6-1,2-1.9,3.5-1.9,2.7,0,4.8,2,4.8,5.3v.2c0,3.2-1.9,5.4-4.8,5.4s-2.9-.9-3.5-1.9v5.4h-1.7ZM221.4,280.8c2.1,0,3.2-1.4,3.2-3.9v-.2c0-2.6-1.5-4-3.2-4s-3.4,1.3-3.4,4v.2c0,2.7,1.4,3.9,3.4,3.9ZM228.9,282v-10.5h1.7v1.9c.7-1.2,1.6-2,3.4-2.1v1.6c-2.1.1-3.4.8-3.4,3.3v5.7h-1.7ZM240.5,280.8c2.1,0,3.4-1.6,3.4-3.9h0c0-2.6-1.3-4.1-3.4-4.1s-3.4,1.6-3.4,4v.2c0,2.4,1.3,3.9,3.4,3.9ZM240.5,282.2c-3,0-5.1-2.3-5.1-5.3v-.2c0-3.1,2.2-5.3,5.1-5.3s5.1,2.2,5.1,5.3v.2c0,3.2-2.2,5.3-5.2,5.3ZM253.4,282.2c-1.7,0-2.9-.9-3.5-1.9v1.7h-1.7v-15.5h1.7v6.8c.6-1,2-1.9,3.5-1.9,2.7,0,4.8,2,4.8,5.3v.2c0,3.2-1.9,5.4-4.8,5.4ZM253.3,280.8c2.1,0,3.2-1.4,3.2-3.9v-.2c0-2.6-1.5-4-3.2-4s-3.4,1.3-3.4,4v.2c0,2.7,1.4,3.9,3.4,3.9ZM260.8,282v-15.5h1.7v15.5h-1.7ZM270.2,282.2c-3,0-5.1-2.1-5.1-5.3v-.2c0-3.2,2-5.4,4.9-5.4s4.7,1.5,4.7,5.2v.5h-7.9c0,2.4,1.2,3.7,3.4,3.7s2.6-.6,2.8-1.8h1.7c-.4,2.1-2.1,3.2-4.5,3.2ZM266.9,275.8h6.1c-.2-2.2-1.3-3-3-3s-2.8,1.2-3.1,3ZM277.2,282v-10.5h1.7v1.6c.5-1,1.6-1.8,3.1-1.8s2.5.6,3.1,2c.7-1.4,2.3-2,3.6-2,1.9,0,3.5,1.1,3.5,4.2v6.5h-1.7v-6.6c0-1.8-.8-2.6-2.2-2.6s-2.8.9-2.8,2.8v6.4h-1.7v-6.6c0-1.8-.8-2.6-2.2-2.6s-2.8.9-2.8,2.8v6.4h-1.7ZM298.1,282.2c-1.9,0-3.5-.9-3.5-3.1s2.6-3.2,5.2-3.2h1.5v-.8c0-1.7-.6-2.4-2.2-2.4s-2.2.6-2.4,1.9h-1.7c.2-2.4,2.1-3.3,4.1-3.3s3.8.8,3.8,3.7v6.9h-1.7v-1.3c-.8,1-1.7,1.5-3.3,1.5ZM298.2,280.9c1.8,0,3.1-.9,3.1-2.5v-1.3h-1.4c-2.1,0-3.6.5-3.6,2.1s.5,1.8,2,1.8ZM315.9,282.2c-2.9,0-5.1-2.1-5.1-5.3v-.2c0-3.2,2.3-5.4,5.1-5.4s4.2,1,4.5,3.7h-1.6c-.3-1.7-1.5-2.3-2.9-2.3s-3.4,1.5-3.4,4v.2c0,2.6,1.4,3.9,3.4,3.9s2.8-.9,3-2.6h1.5c-.2,2.3-2,3.9-4.6,3.9ZM327.3,280.8c2.1,0,3.4-1.6,3.4-3.9h0c0-2.6-1.3-4.1-3.4-4.1s-3.4,1.6-3.4,4v.2c0,2.4,1.3,3.9,3.4,3.9ZM327.3,282.2c-3,0-5.1-2.3-5.1-5.3v-.2c0-3.1,2.2-5.3,5.1-5.3s5.1,2.2,5.1,5.3v.2c0,3.2-2.2,5.3-5.2,5.3ZM335,282v-10.5h1.7v1.6c.5-1,1.6-1.8,3.1-1.8s2.5.6,3.1,2c.7-1.4,2.3-2,3.6-2,1.9,0,3.5,1.1,3.5,4.2v6.5h-1.7v-6.6c0-1.8-.8-2.6-2.2-2.6s-2.8.9-2.8,2.8v6.4h-1.7v-6.6c0-1.8-.8-2.6-2.2-2.6s-2.8.9-2.8,2.8v6.4h-1.7ZM358.5,282v-10.5h1.7v1.9c.7-1.2,1.6-2,3.4-2.1v1.6c-2.1.1-3.4.8-3.4,3.3v5.7h-1.7ZM368.6,282.2c-1.9,0-3.5-.9-3.5-3.1s2.6-3.2,5.2-3.2h1.5v-.8c0-1.7-.6-2.4-2.2-2.4s-2.2.6-2.4,1.9h-1.7c.2-2.4,2.1-3.3,4.1-3.3s3.8.8,3.8,3.7v6.9h-1.7v-1.3c-.8,1-1.7,1.5-3.3,1.5ZM368.7,280.9c1.8,0,3.1-.9,3.1-2.5v-1.3h-1.4c-2.1,0-3.6.5-3.6,2.1s.5,1.8,2,1.8ZM376.7,285.7v-14.1h1.7v1.8c.6-1,2-1.9,3.5-1.9,2.7,0,4.8,2,4.8,5.3v.2c0,3.2-1.9,5.4-4.8,5.4s-2.9-.9-3.5-1.9v5.4h-1.7ZM381.8,280.8c2.1,0,3.2-1.4,3.2-3.9v-.2c0-2.6-1.5-4-3.2-4s-3.4,1.3-3.4,4v.2c0,2.7,1.4,3.9,3.4,3.9ZM389.3,282v-10.5h1.7v10.5h-1.7ZM390.1,269.4c-.6,0-1.1-.5-1.1-1.1s.5-1.1,1.1-1.1,1.1.5,1.1,1.1-.5,1.1-1.1,1.1ZM398.3,282.2c-2.7,0-4.7-1.9-4.7-5.2v-.2c0-3.2,2-5.5,4.9-5.5s2.8.8,3.4,1.9v-6.7h1.7v15.5h-1.7v-1.8c-.6,1-2.1,2-3.6,2ZM398.5,280.8c1.9,0,3.5-1.3,3.5-4v-.2c0-2.7-1.3-3.9-3.3-3.9s-3.3,1.5-3.3,4v.2c0,2.6,1.4,3.9,3.2,3.9ZM411.2,282.2c-3,0-5.1-2.1-5.1-5.3v-.2c0-3.2,2-5.4,4.9-5.4s4.7,1.5,4.7,5.2v.5h-7.9c0,2.4,1.2,3.7,3.4,3.7s2.6-.6,2.8-1.8h1.7c-.4,2.1-2.1,3.2-4.5,3.2ZM407.9,275.8h6.1c-.2-2.2-1.3-3-3-3s-2.8,1.2-3.1,3ZM416.9,282v-.2l6.2-8.8h-5.6v-1.4h8.1v.3l-6,8.7h6v1.5h-8.7ZM437.4,282.2c-3,0-5.1-2.1-5.1-5.3v-.2c0-3.2,2-5.4,4.9-5.4s4.7,1.5,4.7,5.2v.5h-7.9c0,2.4,1.2,3.7,3.4,3.7s2.6-.6,2.8-1.8h1.7c-.4,2.1-2.1,3.2-4.5,3.2ZM434.1,275.8h6.1c-.2-2.2-1.3-3-3-3s-2.8,1.2-3.1,3ZM454.1,282.2c-3,0-5.1-2.1-5.1-5.3v-.2c0-3.2,2-5.4,4.9-5.4s4.7,1.5,4.7,5.2v.5h-7.9c0,2.4,1.2,3.7,3.4,3.7s2.6-.6,2.8-1.8h1.7c-.4,2.1-2.1,3.2-4.5,3.2ZM450.8,275.8h6.1c-.2-2.2-1.3-3-3-3s-2.8,1.2-3.1,3ZM459.8,282l3.7-5.4-3.5-5.1h1.9l2.6,3.8,2.5-3.8h1.8l-3.5,5,3.8,5.5h-2l-2.8-4.2-2.9,4.2h-1.8ZM474.6,282.2c-1.9,0-2.8-1.1-2.8-2.8v-6.4h-1.5v-1.4h1.5v-2.4h1.7v2.4h2.4v1.4h-2.4v6.3c0,1,.5,1.5,1.3,1.5s.9,0,1.3-.2v1.4c-.3.1-.7.2-1.4.2ZM478.6,282v-10.5h1.7v1.9c.7-1.2,1.6-2,3.4-2.1v1.6c-2.1.1-3.4.8-3.4,3.3v5.7h-1.7ZM490.1,282.2c-3,0-5.1-2.1-5.1-5.3v-.2c0-3.2,2-5.4,4.9-5.4s4.7,1.5,4.7,5.2v.5h-7.9c0,2.4,1.2,3.7,3.4,3.7s2.6-.6,2.8-1.8h1.7c-.4,2.1-2.1,3.2-4.5,3.2ZM486.8,275.8h6.1c-.2-2.2-1.3-3-3-3s-2.8,1.2-3.1,3ZM497.1,282v-10.5h1.7v1.6c.5-1,1.6-1.8,3.1-1.8s2.5.6,3.1,2c.7-1.4,2.3-2,3.6-2,1.9,0,3.5,1.1,3.5,4.2v6.5h-1.7v-6.6c0-1.8-.8-2.6-2.2-2.6s-2.8.9-2.8,2.8v6.4h-1.7v-6.6c0-1.8-.8-2.6-2.2-2.6s-2.8.9-2.8,2.8v6.4h-1.7ZM518,282.2c-1.9,0-3.5-.9-3.5-3.1s2.6-3.2,5.2-3.2h1.5v-.8c0-1.7-.6-2.4-2.2-2.4s-2.2.6-2.4,1.9h-1.7c.2-2.4,2.1-3.3,4.1-3.3s3.8.8,3.8,3.7v6.9h-1.7v-1.3c-.8,1-1.7,1.5-3.3,1.5ZM518.1,280.9c1.8,0,3.1-.9,3.1-2.5v-1.3h-1.4c-2.1,0-3.6.5-3.6,2.1s.5,1.8,2,1.8ZM63.3,312.2c-1.9,0-3.5-.9-3.5-3.1s2.6-3.2,5.2-3.2h1.5v-.8c0-1.7-.6-2.4-2.2-2.4s-2.2.6-2.4,1.9h-1.7c.2-2.4,2.1-3.3,4.1-3.3s3.8.8,3.8,3.7v6.9h-1.7v-1.3c-.8,1-1.7,1.5-3.3,1.5ZM63.5,310.9c1.8,0,3.1-.9,3.1-2.5v-1.3h-1.4c-2.1,0-3.6.5-3.6,2.1s.5,1.8,2,1.8ZM74.7,312.2c-1.9,0-2.8-1.1-2.8-2.8v-6.4h-1.5v-1.4h1.5v-2.4h1.7v2.4h2.4v1.4h-2.4v6.3c0,1,.5,1.5,1.3,1.5s.9,0,1.3-.2v1.4c-.3.1-.7.2-1.4.2ZM82.9,312.2c-3,0-5.1-2.1-5.1-5.3v-.2c0-3.2,2-5.4,4.9-5.4s4.7,1.5,4.7,5.2v.5h-7.9c0,2.4,1.2,3.7,3.4,3.7s2.6-.6,2.8-1.8h1.7c-.4,2.1-2.1,3.2-4.5,3.2ZM79.6,305.8h6.1c-.2-2.2-1.3-3-3-3s-2.8,1.2-3.1,3ZM90,312v-10.5h1.7v1.7c.5-1,1.6-1.8,3.4-1.8s3.7,1.2,3.7,4.2v6.4h-1.7v-6.5c0-1.8-.8-2.7-2.5-2.7s-2.9,1-2.9,2.9v6.3h-1.7ZM105.9,316.3c-1.2,0-1.9-.7-2-1.7h1.1c0,.4.4.7.9.7s.8-.3.8-.7-.3-.7-.7-.7-.5.1-.6.2l-.6-.6.8-1.4c-2.6-.3-4.4-2.3-4.4-5.3v-.2c0-3.2,2.3-5.4,5.1-5.4s4.2,1,4.5,3.7h-1.6c-.3-1.7-1.5-2.3-2.9-2.3s-3.4,1.5-3.4,4v.2c0,2.6,1.4,3.9,3.4,3.9s2.8-.9,3-2.6h1.5c-.2,2.2-1.9,3.8-4.2,3.9l-.5.9c.9-.1,1.9.4,1.9,1.6s-.9,1.6-2,1.6ZM115.9,312.2c-1.9,0-3.5-.9-3.5-3.1s2.6-3.2,5.2-3.2h1.5v-.8c0-1.7-.6-2.4-2.2-2.4s-2.2.6-2.4,1.9h-1.7c.2-2.4,2.1-3.3,4.1-3.3s3.8.8,3.8,3.7v6.9h-1.7v-1.3c-.8,1-1.7,1.5-3.3,1.5ZM116.1,310.9c1.8,0,3.1-.9,3.1-2.5v-1.3h-1.4c-2.1,0-3.6.5-3.6,2.1s.5,1.8,2,1.8ZM118.1,299.6c-.9,0-1.6-.9-2.2-.9s-.7.4-.8.9h-1.2c.2-1.4,1-2.3,2-2.3s1.6.9,2.1.9.7-.4.8-.9h1.2c-.2,1.4-1,2.3-2,2.3ZM128.5,310.8c2.1,0,3.4-1.6,3.4-3.9h0c0-2.6-1.3-4.1-3.4-4.1s-3.4,1.6-3.4,4v.2c0,2.4,1.3,3.9,3.4,3.9ZM128.5,312.2c-3,0-5.1-2.3-5.1-5.3v-.2c0-3.1,2.2-5.3,5.1-5.3s5.1,2.2,5.1,5.3v.2c0,3.2-2.2,5.3-5.2,5.3ZM135.8,314.5l-1.1-.6,1.9-4.4,1.6.8-2.5,4.2ZM146.6,312v-10.5h1.7v1.9c.7-1.2,1.6-2,3.4-2.1v1.6c-2.1.1-3.4.8-3.4,3.3v5.7h-1.7ZM158.1,312.2c-3,0-5.1-2.1-5.1-5.3v-.2c0-3.2,2-5.4,4.9-5.4s4.7,1.5,4.7,5.2v.5h-7.9c0,2.4,1.2,3.7,3.4,3.7s2.6-.6,2.8-1.8h1.7c-.4,2.1-2.1,3.2-4.5,3.2ZM154.8,305.8h6.1c-.2-2.2-1.3-3-3-3s-2.8,1.2-3.1,3ZM169.6,312.2c-2.9,0-5.1-2.1-5.1-5.3v-.2c0-3.2,2.3-5.4,5.1-5.4s4.2,1,4.5,3.7h-1.6c-.3-1.7-1.5-2.3-2.9-2.3s-3.4,1.5-3.4,4v.2c0,2.6,1.4,3.9,3.4,3.9s2.8-.9,3-2.6h1.5c-.2,2.3-2,3.9-4.6,3.9ZM181,310.8c2.1,0,3.4-1.6,3.4-3.9h0c0-2.6-1.3-4.1-3.4-4.1s-3.4,1.6-3.4,4v.2c0,2.4,1.3,3.9,3.4,3.9ZM181,312.2c-3,0-5.1-2.3-5.1-5.3v-.2c0-3.1,2.2-5.3,5.1-5.3s5.1,2.2,5.1,5.3v.2c0,3.2-2.2,5.3-5.2,5.3ZM188.7,312v-10.5h1.7v1.6c.5-1,1.6-1.8,3.1-1.8s2.5.6,3.1,2c.7-1.4,2.3-2,3.6-2,1.9,0,3.5,1.1,3.5,4.2v6.5h-1.7v-6.6c0-1.8-.8-2.6-2.2-2.6s-2.8.9-2.8,2.8v6.4h-1.7v-6.6c0-1.8-.8-2.6-2.2-2.6s-2.8.9-2.8,2.8v6.4h-1.7ZM211.2,312.2c-3,0-5.1-2.1-5.1-5.3v-.2c0-3.2,2-5.4,4.9-5.4s4.7,1.5,4.7,5.2v.5h-7.9c0,2.4,1.2,3.7,3.4,3.7s2.6-.6,2.8-1.8h1.7c-.4,2.1-2.1,3.2-4.5,3.2ZM207.9,305.8h6.1c-.2-2.2-1.3-3-3-3s-2.8,1.2-3.1,3ZM218.3,312v-10.5h1.7v1.7c.5-1,1.6-1.8,3.4-1.8s3.7,1.2,3.7,4.2v6.4h-1.7v-6.5c0-1.8-.8-2.7-2.5-2.7s-2.9,1-2.9,2.9v6.3h-1.7ZM234.2,312.2c-2.7,0-4.7-1.9-4.7-5.2v-.2c0-3.2,2-5.5,4.9-5.5s2.8.8,3.4,1.9v-6.7h1.7v15.5h-1.7v-1.8c-.6,1-2.1,2-3.6,2ZM234.3,310.8c1.9,0,3.5-1.3,3.5-4v-.2c0-2.7-1.3-3.9-3.3-3.9s-3.3,1.5-3.3,4v.2c0,2.6,1.4,3.9,3.2,3.9ZM247.1,310.8c2.1,0,3.4-1.6,3.4-3.9h0c0-2.6-1.3-4.1-3.4-4.1s-3.4,1.6-3.4,4v.2c0,2.4,1.3,3.9,3.4,3.9ZM247.1,312.2c-3,0-5.1-2.3-5.1-5.3v-.2c0-3.1,2.2-5.3,5.1-5.3s5.1,2.2,5.1,5.3v.2c0,3.2-2.2,5.3-5.2,5.3ZM264.5,310.8c2.1,0,3.4-1.6,3.4-3.9h0c0-2.6-1.3-4.1-3.4-4.1s-3.4,1.6-3.4,4v.2c0,2.4,1.3,3.9,3.4,3.9ZM264.5,312.2c-3,0-5.1-2.3-5.1-5.3v-.2c0-3.1,2.2-5.3,5.1-5.3s5.1,2.2,5.1,5.3v.2c0,3.2-2.2,5.3-5.2,5.3ZM280.1,312.2c-1.9,0-3.5-.9-3.5-3.1s2.6-3.2,5.2-3.2h1.5v-.8c0-1.7-.6-2.4-2.2-2.4s-2.2.6-2.4,1.9h-1.7c.2-2.4,2.1-3.3,4.1-3.3s3.8.8,3.8,3.7v6.9h-1.7v-1.3c-.8,1-1.7,1.5-3.3,1.5ZM280.3,310.9c1.8,0,3.1-.9,3.1-2.5v-1.3h-1.4c-2.1,0-3.6.5-3.6,2.1s.5,1.8,2,1.8ZM288.3,315.7v-14.1h1.7v1.8c.6-1,2-1.9,3.5-1.9,2.7,0,4.8,2,4.8,5.3v.2c0,3.2-1.9,5.4-4.8,5.4s-2.9-.9-3.5-1.9v5.4h-1.7ZM293.3,310.8c2.1,0,3.2-1.4,3.2-3.9v-.2c0-2.6-1.5-4-3.2-4s-3.4,1.3-3.4,4v.2c0,2.7,1.4,3.9,3.4,3.9ZM300.8,315.7v-14.1h1.7v1.8c.6-1,2-1.9,3.5-1.9,2.7,0,4.8,2,4.8,5.3v.2c0,3.2-1.9,5.4-4.8,5.4s-2.9-.9-3.5-1.9v5.4h-1.7ZM305.9,310.8c2.1,0,3.2-1.4,3.2-3.9v-.2c0-2.6-1.5-4-3.2-4s-3.4,1.3-3.4,4v.2c0,2.7,1.4,3.9,3.4,3.9ZM322.9,312.2c-3,0-5.1-2.1-5.1-5.3v-.2c0-3.2,2-5.4,4.9-5.4s4.7,1.5,4.7,5.2v.5h-7.9c0,2.4,1.2,3.7,3.4,3.7s2.6-.6,2.8-1.8h1.7c-.4,2.1-2.1,3.2-4.5,3.2ZM319.6,305.8h6.1c-.2-2.2-1.3-3-3-3s-2.8,1.2-3.1,3ZM335.7,312v-9.1h-1.5v-1.4h1.5v-1.7c0-2.1,1-3.4,3.1-3.4s.8,0,1.1.2v1.4c-.3-.1-.6-.2-1.1-.2-1.1,0-1.5.7-1.5,1.8v1.9h2.6v1.4h-2.6v9.1h-1.7ZM342,312v-10.5h1.7v10.5h-1.7ZM342.8,299.4c-.6,0-1.1-.5-1.1-1.1s.5-1.1,1.1-1.1,1.1.5,1.1,1.1-.5,1.1-1.1,1.1ZM354.5,315.7v-5.4c-.6,1-2.1,2-3.6,2-2.7,0-4.7-1.9-4.7-5.2v-.2c0-3.2,2-5.5,4.9-5.5s2.8.8,3.4,1.9v-1.7h1.7v14.1h-1.7ZM351.1,310.8c1.9,0,3.5-1.3,3.5-4v-.2c0-2.7-1.3-3.9-3.3-3.9s-3.3,1.5-3.3,4v.2c0,2.6,1.4,3.9,3.2,3.9ZM363.1,312.2c-2.1,0-3.6-1.1-3.6-4v-6.6h1.7v6.5c0,1.8.8,2.7,2.4,2.7s2.9-1,2.9-2.9v-6.3h1.7v10.5h-1.7v-1.7c-.5,1-1.6,1.8-3.3,1.8ZM375.7,312.2c-3,0-5.1-2.1-5.1-5.3v-.2c0-3.2,2-5.4,4.9-5.4s4.7,1.5,4.7,5.2v.5h-7.9c0,2.4,1.2,3.7,3.4,3.7s2.6-.6,2.8-1.8h1.7c-.4,2.1-2.1,3.2-4.5,3.2ZM372.4,305.8h6.1c-.2-2.2-1.3-3-3-3s-2.8,1.2-3.1,3ZM382.8,312v-10.5h1.7v10.5h-1.7ZM383.6,299.4c-.6,0-1.1-.5-1.1-1.1s.5-1.1,1.1-1.1,1.1.5,1.1,1.1-.5,1.1-1.1,1.1ZM396.4,312.2c-1.9,0-2.8-1.1-2.8-2.8v-6.4h-1.5v-1.4h1.5v-2.4h1.7v2.4h2.4v1.4h-2.4v6.3c0,1,.5,1.5,1.3,1.5s.9,0,1.3-.2v1.4c-.3.1-.7.2-1.4.2ZM404.7,310.8c2.1,0,3.4-1.6,3.4-3.9h0c0-2.6-1.3-4.1-3.4-4.1s-3.4,1.6-3.4,4v.2c0,2.4,1.3,3.9,3.4,3.9ZM404.6,312.2c-3,0-5.1-2.3-5.1-5.3v-.2c0-3.1,2.2-5.3,5.1-5.3s5.1,2.2,5.1,5.3v.2c0,3.2-2.2,5.3-5.2,5.3ZM415.6,312.2c-1.9,0-2.8-1.1-2.8-2.8v-6.4h-1.5v-1.4h1.5v-2.4h1.7v2.4h2.4v1.4h-2.4v6.3c0,1,.5,1.5,1.3,1.5s.9,0,1.3-.2v1.4c-.3.1-.7.2-1.4.2ZM422.2,312.2c-1.9,0-3.5-.9-3.5-3.1s2.6-3.2,5.2-3.2h1.5v-.8c0-1.7-.6-2.4-2.2-2.4s-2.2.6-2.4,1.9h-1.7c.2-2.4,2.1-3.3,4.1-3.3s3.8.8,3.8,3.7v6.9h-1.7v-1.3c-.8,1-1.7,1.5-3.3,1.5ZM422.4,310.9c1.8,0,3.1-.9,3.1-2.5v-1.3h-1.4c-2.1,0-3.6.5-3.6,2.1s.5,1.8,2,1.8ZM430.4,312v-15.5h1.7v15.5h-1.7ZM444,312.2c-2.5,0-4-1.3-4.1-3.4h1.6c.1,1.2.8,2,2.5,2s2.3-.5,2.3-1.7-.8-1.5-2.4-1.8c-2.7-.5-3.6-1.3-3.6-3.1s1.9-2.9,3.5-2.9,3.5.8,3.8,3h-1.6c-.2-1.1-.9-1.6-2.2-1.6s-2,.6-2,1.5.5,1.3,2.4,1.7c2.2.4,3.7.9,3.7,3.1s-1.3,3.2-3.8,3.2ZM453,312.2c-1.9,0-3.5-.9-3.5-3.1s2.6-3.2,5.2-3.2h1.5v-.8c0-1.7-.6-2.4-2.2-2.4s-2.2.6-2.4,1.9h-1.7c.2-2.4,2.1-3.3,4.1-3.3s3.8.8,3.8,3.7v6.9h-1.7v-1.3c-.8,1-1.7,1.5-3.3,1.5ZM453.2,310.9c1.8,0,3.1-.9,3.1-2.5v-1.3h-1.4c-2.1,0-3.6.5-3.6,2.1s.5,1.8,2,1.8ZM464.4,312.2c-1.9,0-2.8-1.1-2.8-2.8v-6.4h-1.5v-1.4h1.5v-2.4h1.7v2.4h2.4v1.4h-2.4v6.3c0,1,.5,1.5,1.3,1.5s.9,0,1.3-.2v1.4c-.3.1-.7.2-1.4.2ZM468.4,312v-10.5h1.7v10.5h-1.7ZM469.2,299.4c-.6,0-1.1-.5-1.1-1.1s.5-1.1,1.1-1.1,1.1.5,1.1,1.1-.5,1.1-1.1,1.1ZM476.7,312.2c-2.5,0-4-1.3-4.1-3.4h1.6c.1,1.2.8,2,2.5,2s2.3-.5,2.3-1.7-.8-1.5-2.4-1.8c-2.7-.5-3.6-1.3-3.6-3.1s1.9-2.9,3.5-2.9,3.5.8,3.8,3h-1.6c-.2-1.1-.9-1.6-2.2-1.6s-2,.6-2,1.5.5,1.3,2.4,1.7c2.2.4,3.7.9,3.7,3.1s-1.3,3.2-3.8,3.2ZM483.4,312v-9.1h-1.5v-1.4h1.5v-1.7c0-2.1,1-3.4,3.1-3.4s.8,0,1.2.2v1.4c-.3-.1-.7-.2-1.2-.2-1.1,0-1.5.7-1.5,1.8v1.9h2.6v1.4h-2.6v9.1h-1.7ZM492.4,312.2c-1.9,0-3.5-.9-3.5-3.1s2.6-3.2,5.2-3.2h1.5v-.8c0-1.7-.6-2.4-2.2-2.4s-2.2.6-2.4,1.9h-1.7c.2-2.4,2.1-3.3,4.1-3.3s3.8.8,3.8,3.7v6.9h-1.7v-1.3c-.8,1-1.7,1.5-3.3,1.5ZM492.5,310.9c1.8,0,3.1-.9,3.1-2.5v-1.3h-1.4c-2.1,0-3.6.5-3.6,2.1s.5,1.8,2,1.8ZM504.6,316.3c-1.2,0-1.9-.7-2-1.7h1.1c0,.4.4.7.9.7s.8-.3.8-.7-.3-.7-.7-.7-.5.1-.6.2l-.6-.6.8-1.4c-2.6-.3-4.4-2.3-4.4-5.3v-.2c0-3.2,2.3-5.4,5.1-5.4s4.2,1,4.5,3.7h-1.6c-.3-1.7-1.5-2.3-2.9-2.3s-3.4,1.5-3.4,4v.2c0,2.6,1.4,3.9,3.4,3.9s2.8-.9,3-2.6h1.5c-.2,2.2-1.9,3.8-4.2,3.9l-.5.9c.9-.1,1.9.4,1.9,1.6s-.9,1.6-2,1.6ZM514.6,312.2c-1.9,0-3.5-.9-3.5-3.1s2.6-3.2,5.2-3.2h1.5v-.8c0-1.7-.6-2.4-2.2-2.4s-2.2.6-2.4,1.9h-1.7c.2-2.4,2.1-3.3,4.1-3.3s3.8.8,3.8,3.7v6.9h-1.7v-1.3c-.8,1-1.7,1.5-3.3,1.5ZM514.7,310.9c1.8,0,3.1-.9,3.1-2.5v-1.3h-1.4c-2.1,0-3.6.5-3.6,2.1s.5,1.8,2,1.8ZM516.8,299.6c-.9,0-1.6-.9-2.2-.9s-.7.4-.8.9h-1.2c.2-1.4,1-2.3,2-2.3s1.6.9,2.1.9.7-.4.8-.9h1.2c-.2,1.4-1,2.3-2,2.3ZM527.1,310.8c2.1,0,3.4-1.6,3.4-3.9h0c0-2.6-1.3-4.1-3.4-4.1s-3.4,1.6-3.4,4v.2c0,2.4,1.3,3.9,3.4,3.9ZM527.1,312.2c-3,0-5.1-2.3-5.1-5.3v-.2c0-3.1,2.2-5.3,5.1-5.3s5.1,2.2,5.1,5.3v.2c0,3.2-2.2,5.3-5.2,5.3ZM65,342.2c-2.9,0-5.1-2.1-5.1-5.3v-.2c0-3.2,2.3-5.4,5.1-5.4s4.2,1,4.5,3.7h-1.6c-.3-1.7-1.5-2.3-2.9-2.3s-3.4,1.5-3.4,4v.2c0,2.6,1.4,3.9,3.4,3.9s2.8-.9,3-2.6h1.5c-.2,2.3-2,3.9-4.6,3.9ZM76.4,340.8c2.1,0,3.4-1.6,3.4-3.9h0c0-2.6-1.3-4.1-3.4-4.1s-3.4,1.6-3.4,4v.2c0,2.4,1.3,3.9,3.4,3.9ZM76.4,342.2c-3,0-5.1-2.3-5.1-5.3v-.2c0-3.1,2.2-5.3,5.1-5.3s5.1,2.2,5.1,5.3v.2c0,3.2-2.2,5.3-5.2,5.3ZM84.2,342v-10.5h1.7v1.6c.5-1,1.6-1.8,3.1-1.8s2.5.6,3.1,2c.7-1.4,2.3-2,3.6-2,1.9,0,3.5,1.1,3.5,4.2v6.5h-1.7v-6.6c0-1.8-.8-2.6-2.2-2.6s-2.8.9-2.8,2.8v6.4h-1.7v-6.6c0-1.8-.8-2.6-2.2-2.6s-2.8.9-2.8,2.8v6.4h-1.7ZM112,340.8c2.1,0,3.4-1.6,3.4-3.9h0c0-2.6-1.3-4.1-3.4-4.1s-3.4,1.6-3.4,4v.2c0,2.4,1.3,3.9,3.4,3.9ZM112,342.2c-3,0-5.1-2.3-5.1-5.3v-.2c0-3.1,2.2-5.3,5.1-5.3s5.1,2.2,5.1,5.3v.2c0,3.2-2.2,5.3-5.2,5.3ZM127.6,342.2c-1.9,0-3.5-.9-3.5-3.1s2.6-3.2,5.2-3.2h1.5v-.8c0-1.7-.6-2.4-2.2-2.4s-2.2.6-2.4,1.9h-1.7c.2-2.4,2.1-3.3,4.1-3.3s3.8.8,3.8,3.7v6.9h-1.7v-1.3c-.8,1-1.7,1.5-3.3,1.5ZM127.8,340.9c1.8,0,3.1-.9,3.1-2.5v-1.3h-1.4c-2.1,0-3.6.5-3.6,2.1s.5,1.8,2,1.8ZM139,342.2c-1.9,0-2.8-1.1-2.8-2.8v-6.4h-1.5v-1.4h1.5v-2.4h1.7v2.4h2.4v1.4h-2.4v6.3c0,1,.5,1.5,1.3,1.5s.9,0,1.3-.2v1.4c-.3.1-.7.2-1.4.2ZM147.2,342.2c-3,0-5.1-2.1-5.1-5.3v-.2c0-3.2,2-5.4,4.9-5.4s4.7,1.5,4.7,5.2v.5h-7.9c0,2.4,1.2,3.7,3.4,3.7s2.6-.6,2.8-1.8h1.7c-.4,2.1-2.1,3.2-4.5,3.2ZM143.9,335.8h6.1c-.2-2.2-1.3-3-3-3s-2.8,1.2-3.1,3ZM154.3,342v-10.5h1.7v1.7c.5-1,1.6-1.8,3.4-1.8s3.7,1.2,3.7,4.2v6.4h-1.7v-6.5c0-1.8-.8-2.7-2.5-2.7s-2.9,1-2.9,2.9v6.3h-1.7ZM170.2,342.2c-2.7,0-4.7-1.9-4.7-5.2v-.2c0-3.2,2-5.5,4.9-5.5s2.8.8,3.4,1.9v-6.7h1.7v15.5h-1.7v-1.8c-.6,1-2.1,2-3.6,2ZM170.4,340.8c1.9,0,3.5-1.3,3.5-4v-.2c0-2.7-1.3-3.9-3.3-3.9s-3.3,1.5-3.3,4v.2c0,2.6,1.4,3.9,3.2,3.9ZM178.8,342v-10.5h1.7v10.5h-1.7ZM179.6,329.4c-.6,0-1.1-.5-1.1-1.1s.5-1.1,1.1-1.1,1.1.5,1.1,1.1-.5,1.1-1.1,1.1ZM183.9,342v-10.5h1.7v1.6c.5-1,1.6-1.8,3.1-1.8s2.5.6,3.1,2c.7-1.4,2.3-2,3.6-2,1.9,0,3.5,1.1,3.5,4.2v6.5h-1.7v-6.6c0-1.8-.8-2.6-2.2-2.6s-2.8.9-2.8,2.8v6.4h-1.7v-6.6c0-1.8-.8-2.6-2.2-2.6s-2.8.9-2.8,2.8v6.4h-1.7ZM206.4,342.2c-3,0-5.1-2.1-5.1-5.3v-.2c0-3.2,2-5.4,4.9-5.4s4.7,1.5,4.7,5.2v.5h-7.9c0,2.4,1.2,3.7,3.4,3.7s2.6-.6,2.8-1.8h1.7c-.4,2.1-2.1,3.2-4.5,3.2ZM203.1,335.8h6.1c-.2-2.2-1.3-3-3-3s-2.8,1.2-3.1,3ZM213.5,342v-10.5h1.7v1.7c.5-1,1.6-1.8,3.4-1.8s3.7,1.2,3.7,4.2v6.4h-1.7v-6.5c0-1.8-.8-2.7-2.5-2.7s-2.9,1-2.9,2.9v6.3h-1.7ZM228.6,342.2c-1.9,0-2.8-1.1-2.8-2.8v-6.4h-1.5v-1.4h1.5v-2.4h1.7v2.4h2.4v1.4h-2.4v6.3c0,1,.5,1.5,1.3,1.5s.9,0,1.3-.2v1.4c-.3.1-.7.2-1.4.2ZM236.9,340.8c2.1,0,3.4-1.6,3.4-3.9h0c0-2.6-1.3-4.1-3.4-4.1s-3.4,1.6-3.4,4v.2c0,2.4,1.3,3.9,3.4,3.9ZM236.9,342.2c-3,0-5.1-2.3-5.1-5.3v-.2c0-3.1,2.2-5.3,5.1-5.3s5.1,2.2,5.1,5.3v.2c0,3.2-2.2,5.3-5.2,5.3ZM257.4,345.7v-5.4c-.6,1-2.1,2-3.6,2-2.7,0-4.7-1.9-4.7-5.2v-.2c0-3.2,2-5.5,4.9-5.5s2.8.8,3.4,1.9v-1.7h1.7v14.1h-1.7ZM254,340.8c1.9,0,3.5-1.3,3.5-4v-.2c0-2.7-1.3-3.9-3.3-3.9s-3.3,1.5-3.3,4v.2c0,2.6,1.4,3.9,3.2,3.9ZM266,342.2c-2.1,0-3.6-1.1-3.6-4v-6.6h1.7v6.5c0,1.8.8,2.7,2.4,2.7s2.9-1,2.9-2.9v-6.3h1.7v10.5h-1.7v-1.7c-.5,1-1.6,1.8-3.3,1.8ZM276.9,342.2c-1.9,0-3.5-.9-3.5-3.1s2.6-3.2,5.2-3.2h1.5v-.8c0-1.7-.6-2.4-2.2-2.4s-2.2.6-2.4,1.9h-1.7c.2-2.4,2.1-3.3,4.1-3.3s3.8.8,3.8,3.7v6.9h-1.7v-1.3c-.8,1-1.7,1.5-3.3,1.5ZM277.1,340.9c1.8,0,3.1-.9,3.1-2.5v-1.3h-1.4c-2.1,0-3.6.5-3.6,2.1s.5,1.8,2,1.8ZM285.1,342v-10.5h1.7v1.7c.5-1,1.6-1.8,3.4-1.8s3.7,1.2,3.7,4.2v6.4h-1.7v-6.5c0-1.8-.8-2.7-2.5-2.7s-2.9,1-2.9,2.9v6.3h-1.7ZM301,342.2c-2.7,0-4.7-1.9-4.7-5.2v-.2c0-3.2,2-5.5,4.9-5.5s2.8.8,3.4,1.9v-6.7h1.7v15.5h-1.7v-1.8c-.6,1-2.1,2-3.6,2ZM301.2,340.8c1.9,0,3.5-1.3,3.5-4v-.2c0-2.7-1.3-3.9-3.3-3.9s-3.3,1.5-3.3,4v.2c0,2.6,1.4,3.9,3.2,3.9ZM313.9,340.8c2.1,0,3.4-1.6,3.4-3.9h0c0-2.6-1.3-4.1-3.4-4.1s-3.4,1.6-3.4,4v.2c0,2.4,1.3,3.9,3.4,3.9ZM313.9,342.2c-3,0-5.1-2.3-5.1-5.3v-.2c0-3.1,2.2-5.3,5.1-5.3s5.1,2.2,5.1,5.3v.2c0,3.2-2.2,5.3-5.2,5.3ZM327,345.7v-14.1h1.7v1.8c.6-1,2-1.9,3.5-1.9,2.7,0,4.8,2,4.8,5.3v.2c0,3.2-1.9,5.4-4.8,5.4s-2.9-.9-3.5-1.9v5.4h-1.7ZM332,340.8c2.1,0,3.2-1.4,3.2-3.9v-.2c0-2.6-1.5-4-3.2-4s-3.4,1.3-3.4,4v.2c0,2.7,1.4,3.9,3.4,3.9ZM339.5,342v-10.5h1.7v1.9c.7-1.2,1.6-2,3.4-2.1v1.6c-2.1.1-3.4.8-3.4,3.3v5.7h-1.7ZM351,342.2c-3,0-5.1-2.1-5.1-5.3v-.2c0-3.2,2-5.4,4.9-5.4s4.7,1.5,4.7,5.2v.5h-7.9c0,2.4,1.2,3.7,3.4,3.7s2.6-.6,2.8-1.8h1.7c-.4,2.1-2.1,3.2-4.5,3.2ZM347.7,335.8h6.1c-.2-2.2-1.3-3-3-3s-2.8,1.2-3.1,3ZM362.4,342.2c-2.9,0-5.1-2.1-5.1-5.3v-.2c0-3.2,2.3-5.4,5.1-5.4s4.2,1,4.5,3.7h-1.6c-.3-1.7-1.5-2.3-2.9-2.3s-3.4,1.5-3.4,4v.2c0,2.6,1.4,3.9,3.4,3.9s2.8-.9,3-2.6h1.5c-.2,2.3-2,3.9-4.6,3.9ZM369.5,342v-10.5h1.7v10.5h-1.7ZM370.3,329.4c-.6,0-1.1-.5-1.1-1.1s.5-1.1,1.1-1.1,1.1.5,1.1,1.1-.5,1.1-1.1,1.1ZM377.8,342.2c-2.5,0-4-1.3-4.1-3.4h1.6c.1,1.2.8,2,2.5,2s2.3-.5,2.3-1.7-.8-1.5-2.4-1.8c-2.7-.5-3.6-1.3-3.6-3.1s1.9-2.9,3.5-2.9,3.5.8,3.8,3h-1.6c-.2-1.1-.9-1.6-2.2-1.6s-2,.6-2,1.5.5,1.3,2.4,1.7c2.2.4,3.7.9,3.7,3.1s-1.3,3.2-3.8,3.2ZM388.5,342.2c-3,0-5.1-2.1-5.1-5.3v-.2c0-3.2,2-5.4,4.9-5.4s4.7,1.5,4.7,5.2v.5h-7.9c0,2.4,1.2,3.7,3.4,3.7s2.6-.6,2.8-1.8h1.7c-.4,2.1-2.1,3.2-4.5,3.2ZM385.2,335.8h6.1c-.2-2.2-1.3-3-3-3s-2.8,1.2-3.1,3ZM395.6,342v-10.5h1.7v10.5h-1.7ZM396.4,329.4c-.6,0-1.1-.5-1.1-1.1s.5-1.1,1.1-1.1,1.1.5,1.1,1.1-.5,1.1-1.1,1.1ZM401.8,342.1c-.7,0-1.3-.6-1.3-1.3s.6-1.3,1.3-1.3,1.3.6,1.3,1.3-.6,1.3-1.3,1.3Z"/>
    <path class="st6" d="M60,183.6v-18.6h5.6l4.3,11.6,4.3-11.6h5.5v18.6h-4.2v-13.1l-5.1,13.1h-1.4l-5.2-13.1v13.1h-3.8ZM87.8,183.9c-2.7,0-4.6-1.6-4.6-5.1v-8.8h3.7v8.2c0,1.8.8,2.7,2.4,2.7s2.8-1,2.8-3v-8h3.7v13.6h-3.7v-2.1c-.7,1.4-2.1,2.4-4.3,2.4ZM99.3,183.6v-13.6h3.7v13.6h-3.7ZM101.1,168.2c-1.2,0-2.1-.9-2.1-2.1s.9-2.1,2.1-2.1,2.2.9,2.2,2.1-.9,2.1-2.2,2.1ZM111.4,183.9c-2.9,0-4.4-1.5-4.4-4.3v-6.9h-1.7v-2.7h1.7v-2.9h3.7v2.9h2.9v2.7h-2.9v6.6c0,1.1.5,1.6,1.5,1.6s1,0,1.4-.3v2.9c-.5.2-1.3.4-2.3.4ZM122.6,181.1c2.1,0,3.3-1.6,3.3-4.1v-.2c0-2.6-1.2-4.2-3.3-4.2s-3.3,1.5-3.3,4.1v.2c0,2.6,1.2,4.2,3.3,4.2ZM122.6,183.9c-4.1,0-7.2-2.7-7.2-6.9v-.2c0-4.3,3.1-7,7.2-7s7.2,2.7,7.2,7v.2c0,4.3-3.1,7-7.2,7ZM144.4,181.1c2.1,0,3.3-1.6,3.3-4.1v-.2c0-2.6-1.2-4.2-3.3-4.2s-3.3,1.5-3.3,4.1v.2c0,2.6,1.2,4.2,3.3,4.2ZM144.4,183.9c-4.1,0-7.2-2.7-7.2-6.9v-.2c0-4.3,3.1-7,7.2-7s7.1,2.7,7.1,7v.2c0,4.3-3.1,7-7.2,7ZM162.2,183.9c-2.1,0-3.6-1-4.3-2.4v2.2h-3.8v-19.8h3.8v8.3c.8-1.3,2.3-2.4,4.3-2.4,3.3,0,5.9,2.5,5.9,7v.2c0,4.5-2.5,7-5.9,7ZM161.1,181c2.1,0,3.2-1.4,3.2-4.1v-.2c0-2.8-1.4-4.1-3.2-4.1s-3.3,1.4-3.3,4.1v.2c0,2.7,1.3,4.1,3.4,4.1ZM170.6,183.6v-13.6h3.8v2.6c.9-1.8,2.2-2.8,4.4-2.8v3.5c-2.8,0-4.4.9-4.4,3.5v6.8h-3.8ZM181.4,183.6v-13.6h3.7v13.6h-3.7ZM183.2,168.2c-1.2,0-2.1-.9-2.1-2.1s.9-2.1,2.1-2.1,2.2.9,2.2,2.1-.9,2.1-2.2,2.1ZM194.6,188.6c-4.4,0-6.4-1.9-6.8-4.7h3.7c.2,1.2,1.1,2,3,2s3.4-1.2,3.4-3.3v-2.1c-.8,1.3-2.4,2.5-4.4,2.5-3.3,0-5.9-2.5-5.9-6.5v-.2c0-3.9,2.6-6.6,6-6.6s3.5,1,4.3,2.3v-2h3.7v12.5c0,4-2.7,6.1-7.2,6.1ZM194.8,180.2c2,0,3.4-1.4,3.4-3.7v-.2c0-2.3-1.2-3.7-3.3-3.7s-3.3,1.5-3.3,3.7v.2c0,2.3,1.3,3.7,3.2,3.7ZM208.8,183.9c-2.5,0-4.6-1.2-4.6-4.1s2.9-4.4,7.1-4.4h1.5v-.5c0-1.6-.5-2.5-2.2-2.5s-2.2.8-2.3,1.9h-3.6c.2-3.2,2.8-4.7,6.1-4.7s5.7,1.4,5.7,5v8.9h-3.7v-1.6c-.8,1.1-2,1.9-4.1,1.9ZM209.9,181.3c1.7,0,2.9-.9,2.9-2.4v-1.1h-1.5c-2.2,0-3.5.5-3.5,1.9s.6,1.6,2,1.6ZM224.9,183.9c-3.3,0-5.9-2.4-5.9-6.9v-.2c0-4.5,2.6-7.1,6-7.1s3.5,1,4.3,2.3v-8.2h3.7v19.8h-3.7v-2.3c-.7,1.4-2.4,2.5-4.4,2.5ZM226,181c2,0,3.4-1.3,3.4-4.1v-.2c0-2.7-1.2-4.1-3.2-4.1s-3.3,1.4-3.3,4.1v.2c0,2.7,1.3,4,3.2,4ZM242.7,181.1c2.1,0,3.3-1.6,3.3-4.1v-.2c0-2.6-1.2-4.2-3.3-4.2s-3.3,1.5-3.3,4.1v.2c0,2.6,1.2,4.2,3.3,4.2ZM242.6,183.9c-4.1,0-7.1-2.7-7.1-6.9v-.2c0-4.3,3.1-7,7.2-7s7.2,2.7,7.2,7v.2c0,4.3-3.1,7-7.2,7ZM264.4,183.9c-4.1,0-7.1-2.6-7.1-6.9v-.2c0-4.3,3-7.1,7-7.1s6.6,2.1,6.6,6.9v1h-9.8c.1,2.3,1.3,3.6,3.4,3.6s2.6-.8,2.8-1.9h3.6c-.4,2.9-2.8,4.6-6.5,4.6ZM261.2,175.4h6.1c-.1-2.1-1.2-3-3-3s-2.8,1.1-3.1,3ZM279.1,188.3v-18.2h3.8v2.1c.8-1.3,2.3-2.4,4.3-2.4,3.3,0,5.9,2.5,5.9,7v.2c0,4.5-2.5,7-5.9,7s-3.6-1-4.3-2.4v6.7h-3.8ZM286.1,181c2.1,0,3.2-1.4,3.2-4.1v-.2c0-2.8-1.4-4.1-3.2-4.1s-3.3,1.4-3.3,4.1v.2c0,2.7,1.3,4.1,3.4,4.1ZM299.4,183.9c-2.5,0-4.5-1.2-4.5-4.1s2.9-4.4,7.1-4.4h1.5v-.5c0-1.6-.5-2.5-2.2-2.5s-2.2.8-2.3,1.9h-3.6c.2-3.2,2.8-4.7,6.1-4.7s5.7,1.4,5.7,5v8.9h-3.7v-1.6c-.8,1.1-2,1.9-4.1,1.9ZM300.5,181.3c1.7,0,2.9-.9,2.9-2.4v-1.1h-1.5c-2.2,0-3.5.5-3.5,1.9s.6,1.6,2,1.6ZM310.4,183.6v-13.6h3.8v2.6c.9-1.8,2.2-2.8,4.4-2.8v3.5c-2.8,0-4.4.9-4.4,3.5v6.8h-3.8ZM324.4,183.9c-2.5,0-4.5-1.2-4.5-4.1s2.9-4.4,7.1-4.4h1.5v-.5c0-1.6-.5-2.5-2.2-2.5s-2.2.8-2.3,1.9h-3.6c.2-3.2,2.8-4.7,6.1-4.7s5.7,1.4,5.7,5v8.9h-3.7v-1.6c-.8,1.1-2,1.9-4.1,1.9ZM325.5,181.3c1.7,0,2.9-.9,2.9-2.4v-1.1h-1.5c-2.2,0-3.5.5-3.5,1.9s.6,1.6,2,1.6ZM343.5,183.9c-2.1,0-3.6-1-4.3-2.4v2.2h-3.8v-19.8h3.8v8.3c.8-1.3,2.3-2.4,4.3-2.4,3.3,0,5.9,2.5,5.9,7v.2c0,4.5-2.5,7-5.9,7ZM342.4,181c2.1,0,3.2-1.4,3.2-4.1v-.2c0-2.8-1.4-4.1-3.2-4.1s-3.3,1.4-3.3,4.1v.2c0,2.7,1.3,4.1,3.4,4.1ZM356.6,168.2l1.5-4.1h4l-2.7,4.1h-2.7ZM358.3,183.9c-4.1,0-7.1-2.6-7.1-6.9v-.2c0-4.3,3-7.1,7-7.1s6.6,2.1,6.6,6.9v1h-9.8c.1,2.3,1.3,3.6,3.4,3.6s2.6-.8,2.8-1.9h3.6c-.4,2.9-2.8,4.6-6.5,4.6ZM355,175.4h6.1c-.1-2.1-1.2-3-3-3s-2.8,1.1-3.1,3ZM367.2,183.6v-13.6h3.8v2.2c.7-1.4,2.2-2.5,4.4-2.5s4.6,1.6,4.6,5.3v8.7h-3.8v-8.1c0-1.8-.7-2.7-2.4-2.7s-2.8,1-2.8,3v7.9h-3.8ZM388.2,183.9c-3.7,0-5.8-1.6-5.9-4.5h3.5c.2,1.2.8,1.9,2.4,1.9s2.1-.5,2.1-1.5-.8-1.3-2.8-1.6c-3.6-.5-5-1.6-5-4.2s2.6-4.2,5.4-4.2,5.3,1.1,5.6,4.2h-3.5c-.2-1.1-.8-1.6-2.1-1.6s-1.9.6-1.9,1.4.7,1.2,2.6,1.5c3.4.5,5.3,1.4,5.3,4.3s-2.1,4.5-5.7,4.5Z"/>
    <path class="st6" d="M60.8,423v-14.3h4.1c2.7,0,5,1.2,5,4.2h0c0,3.1-2.3,4.3-5,4.3h-2.3v5.8h-1.7ZM62.5,415.8h2.4c2,0,3.1-1,3.1-2.8h0c0-2.1-1.2-2.9-3.1-2.9h-2.4v5.7ZM76.4,421.8c2.1,0,3.4-1.6,3.4-3.9h0c0-2.6-1.3-4.1-3.4-4.1s-3.4,1.6-3.4,4v.2c0,2.4,1.3,3.9,3.4,3.9ZM76.3,423.2c-3,0-5.1-2.3-5.1-5.3v-.2c0-3.1,2.2-5.3,5.1-5.3s5.1,2.2,5.1,5.3v.2c0,3.2-2.2,5.3-5.2,5.3ZM84.1,423v-10.5h1.7v1.9c.7-1.2,1.6-2,3.4-2.1v1.6c-2.1,0-3.4.8-3.4,3.3v5.7h-1.7ZM100,423v-12.9h-4.2v-1.4h10.1v1.4h-4.2v12.9h-1.7ZM107.9,423v-10.5h1.7v10.5h-1.7ZM108.7,410.4c-.6,0-1.1-.5-1.1-1.1s.5-1.1,1.1-1.1,1.1.5,1.1,1.1-.5,1.1-1.1,1.1ZM115.6,423.2c-1.9,0-3.5-.9-3.5-3.1s2.6-3.2,5.2-3.2h1.5v-.8c0-1.7-.6-2.4-2.2-2.4s-2.2.6-2.4,1.9h-1.7c.2-2.4,2.1-3.3,4.1-3.3s3.8.8,3.8,3.7v6.9h-1.7v-1.3c-.8,1-1.7,1.5-3.3,1.5ZM115.8,421.9c1.8,0,3.1-.9,3.1-2.5v-1.3h-1.4c-2.1,0-3.6.5-3.6,2.1s.5,1.8,2,1.8ZM128,426.8c-3.1,0-4.5-1.5-4.7-3.2h1.7c.2,1.2,1.2,1.8,3,1.8s3.4-1,3.4-3.2v-1.5c-.6,1-2,2-3.5,2-2.7,0-4.8-2.1-4.8-5h0c0-3,2-5.3,4.9-5.3s2.8.8,3.4,1.9v-1.7h1.7v9.8c0,3-2.1,4.5-5,4.5ZM128,421.3c1.9,0,3.4-1.4,3.4-3.7h0c0-2.5-1.3-3.8-3.3-3.8s-3.3,1.5-3.3,3.7v.2c0,2.3,1.5,3.6,3.2,3.6ZM140.7,421.8c2.1,0,3.4-1.6,3.4-3.9h0c0-2.6-1.3-4.1-3.4-4.1s-3.4,1.6-3.4,4v.2c0,2.4,1.3,3.9,3.4,3.9ZM140.7,423.2c-3,0-5.1-2.3-5.1-5.3v-.2c0-3.1,2.2-5.3,5.1-5.3s5.1,2.2,5.1,5.3v.2c0,3.2-2.2,5.3-5.2,5.3ZM153.8,423v-14.3h4.3c2.7,0,5,1.1,5,4h0c0,2.4-1.6,3.6-3.5,4l4.4,6.3h-1.9l-4.3-6.2h-2.2v6.2h-1.7ZM155.6,415.4h2.7c2,0,3.1-.9,3.1-2.6h0c0-2-1.2-2.7-3.1-2.7h-2.7v5.3ZM170.3,423.2c-3,0-5.1-2.1-5.1-5.3v-.2c0-3.2,2-5.4,4.9-5.4s4.7,1.5,4.7,5.2v.5h-7.9c0,2.4,1.2,3.7,3.4,3.7s2.6-.6,2.8-1.8h1.7c-.4,2.1-2.1,3.2-4.5,3.2ZM167,416.8h6.1c-.2-2.2-1.3-3-3-3s-2.8,1.2-3.1,3ZM177.4,423v-10.5h1.7v10.5h-1.7ZM178.2,410.4c-.6,0-1.1-.5-1.1-1.1s.5-1.1,1.1-1.1,1.1.5,1.1,1.1-.5,1.1-1.1,1.1ZM185.7,423.2c-2.5,0-4-1.3-4.1-3.4h1.6c.1,1.2.8,2,2.5,2s2.3-.5,2.3-1.7-.8-1.5-2.4-1.8c-2.7-.5-3.6-1.3-3.6-3.1s1.9-2.9,3.5-2.9,3.5.8,3.8,3h-1.6c-.2-1.1-.9-1.6-2.2-1.6s-2,.6-2,1.5.5,1.3,2.4,1.7c2.2.4,3.7.9,3.7,3.1s-1.3,3.2-3.8,3.2Z"/>
    <g class="st9">
      <path class="st8" d="M77,89l4.2,10.2,11,.9-8.4,7.2,2.6,10.7-9.4-5.7-9.4,5.7,2.6-10.7-8.4-7.2,11-.9,4.2-10.2Z"/>
    </g>
    <g class="st2">
      <path class="st8" d="M125,89l4.2,10.2,11,.9-8.4,7.2,2.6,10.7-9.4-5.7-9.4,5.7,2.6-10.7-8.4-7.2,11-.9,4.2-10.2Z"/>
    </g>
    <g class="st5">
      <path class="st8" d="M173,89l4.2,10.2,11,.9-8.4,7.2,2.6,10.7-9.4-5.7-9.4,5.7,2.6-10.7-8.4-7.2,11-.9,4.2-10.2Z"/>
    </g>
    <g class="st3">
      <path class="st8" d="M221,89l4.2,10.2,11,.9-8.4,7.2,2.6,10.7-9.4-5.7-9.4,5.7,2.6-10.7-8.4-7.2,11-.9,4.2-10.2Z"/>
    </g>
    <g class="st4">
      <path class="st8" d="M269,89l4.2,10.2,11,.9-8.4,7.2,2.6,10.7-9.4-5.7-9.4,5.7,2.6-10.7-8.4-7.2,11-.9,4.2-10.2Z"/>
    </g>
  </g>
  <path class="st7" d="M6.6,18.4c.2,0,.3.2.5.3.1.1.2.3.3.5.1.5.1.9,0,1.4,0,.4-.6,1.1-.8,1.1-.5,0-1.1-.2-1.6-.4-.3,0-4.1-2.7-5.4-3.6-1.2-.9-2.4-1.8-3.5-2.8-2.3-2-4.6-4-6.8-6-.5-.5-.9-1-1.4-1.5-1.5-1.8-3.1-3.4-4.9-4.9-.3-.3-.6-.5-1-.6-.7-.2-5.2-4.5-5.7-5.2-1.2-1.7-2.5-3.3-3.7-4.9-.2-.2-.4-.4-.5-.7,0-.7-.4-1.3-.9-1.7-.5-.7-1-1.4-1.5-2.2-.2-.4-.3-.9-.4-1.4,0-.4.7-.8.8-.7.4.1.5-.3.7-.6,0,0,.2-.2.3-.2.8.3,1.6.7,2.4,1.2.9.4,1.8,1,2.6,1.6,0,0,.4.4.9.8l1.9,1.8c1.4,1.3,2.9,2.7,3.2,2.9.3.3.6.6.8,1,.1.2,4.4,4,4.6,4.2.9.8,1.7,1.7,2.3,2.8.1.2.3.4.5.5,1.5,1.4,2.8,3,4.2,4.5.7.8,1.5,1.5,2.2,2.2.1.1.2.3.3.5.1.2.3.4.4.6,1.8,1.7,3.5,3.6,5.4,5.1.4.4,2.1,2.6,2.6,2.9.3.2.7,1.5,1.1,1.6Z"/>
  <path class="st7" d="M-1-3.6c.2.2.3.5.4.8,0,.3,0,.6,0,.9,0,.2-.5.5-.7.4-.3-.2-.7-.3-1-.5-.2-.1-2.6-2.4-3.5-3.1-.4-.4-.8-.7-1.2-1.1s-.7-.8-1-1.2l-4.1-5.1c-.3-.4-.6-.8-.8-1.2-.8-1.5-1.7-2.8-2.8-4.1-.1-.2-.4-.5-.6-.6-.5-.2-3.1-3.8-3.3-4.4-.3-.7-.6-1.3-.9-2-.3-.7-.6-1.4-.9-2,0-.2-.3-.3-.2-.6,0-.2,0-.5,0-.7,0-.2-.2-.4-.3-.6-.3-.5-.6-1.1-.8-1.7,0-.3-.1-.7-.1-1,0-.3.5-.6.6-.5.3.1.4-.2.6-.4,0,0,.1-.1.2-.2,1.2.7,2.4,1.5,3.6,2.4l2,2c.9,1.1,1.9,2.2,2,2.4.2.2.3.5.4.8,0,.1,2.8,3.3,2.9,3.5.6.7,1,1.5,1.2,2.3,0,.2.1.3.2.5.8,1.2,1.6,2.5,2.3,3.9.4.7.8,1.3,1.2,1.9,0,.1.1.3.2.4,0,.2.1.3.2.5,1,1.5,1.9,3.1,2.9,4.6.2.4.9,2.3,1.2,2.6.1.2.2,1.2.4,1.4Z"/>
  <path class="st7" d="M28.1,5.4c.5.4.3,1-.2,1.9-.2.3-.9.7-1.1.7-.4-.1-.7-.3-1.1-.4-.2-.1-2.5-2.4-3.2-3.3-.7-.8-1.3-1.7-1.9-2.6-1.1-1.8-2.2-3.7-3.4-5.5-.2-.4-.4-.8-.6-1.3-.6-1.5-1.3-3-2.2-4.4-.1-.3-.3-.5-.5-.6-.5-.2-2.6-4.1-2.8-4.6-.4-1.4-.9-2.7-1.4-4.1,0-.2-.2-.4-.1-.6,0-.2,0-.5,0-.7,0-.2-.1-.5-.3-.6-.3-.6-.5-1.1-.6-1.7,0-.3,0-.7,0-1,0-.3.7-.5.8-.5.3.1.5-.2.7-.4,0,0,.2-.1.2-.2,1.1.8,2.2,1.7,3.1,2.7,0,0,.2.3.5.7s.7,1,1,1.5c.7,1.1,1.5,2.3,1.7,2.6.2.3.3.6.3.9,0,.1,2.3,3.5,2.4,3.6.5.7.8,1.5,1,2.3,0,.2,0,.3.2.5.7,1.2,1.4,2.5,1.9,3.9.3.7.7,1.3,1.1,1.9,0,.1,0,.3.1.4,0,.2,0,.3.2.5.9,1.5,1.6,3.1,2.7,4.5.3.3.8,2.2,1.1,2.6,0,.3,0,1.3.2,1.5Z"/>
  <path class="st7" d="M663,487.7c-.2,0-.4-.1-.5-.2-.2-.1-.3-.3-.4-.4-.2-.4-.3-.9-.4-1.4,0-.4.3-1.2.6-1.2.5,0,1.1,0,1.6,0,.3,0,4.6,1.8,6.1,2.3,1.4.6,2.7,1.2,4,2,2.7,1.5,5.3,2.9,8,4.4.6.4,1.1.7,1.7,1.2,1.8,1.4,3.8,2.7,5.8,3.7.3.2.7.4,1.1.4.7,0,6.1,3.3,6.7,3.8,1.5,1.4,3.1,2.6,4.7,4,.2.2.5.3.6.6.2.6.7,1.2,1.2,1.5.7.6,1.3,1.2,1.9,1.8.3.4.5.8.7,1.3.2.4-.5.9-.6.9-.5,0-.4.5-.6.7,0,0-.1.2-.2.3-.9-.1-1.7-.4-2.6-.6-1-.2-1.9-.6-2.9-1,0,0-.4-.3-1-.6l-2.2-1.3c-1.6-1-3.4-2-3.7-2.2-.4-.2-.7-.5-1-.8-.1-.1-5.2-2.9-5.4-3.1-1.1-.6-2-1.3-2.8-2.2-.2-.2-.4-.3-.6-.4-1.8-1-3.4-2.3-5.1-3.5-.9-.6-1.8-1.1-2.7-1.7-.2-.1-.3-.2-.4-.4-.2-.2-.4-.3-.6-.5-2.1-1.3-4.1-2.7-6.4-3.9-.5-.3-2.6-2-3.2-2.3-.3-.1-1.1-1.3-1.4-1.3Z"/>
  <path class="st7" d="M675.3,507.5c-.2-.2-.4-.4-.5-.7-.1-.3-.1-.6,0-.9,0-.2.4-.6.6-.6.4,0,.7.2,1.1.3.2,0,3,1.8,4.1,2.3.5.3,1,.5,1.4.8s.9.6,1.3,1l5.1,4.1c.4.3.7.7,1,1,1.1,1.3,2.3,2.4,3.6,3.4.2.2.4.4.7.4.5,0,3.8,3.1,4.2,3.6.4.6.9,1.2,1.3,1.8.5.6.9,1.2,1.3,1.8.1.2.3.3.3.6,0,.2,0,.5.2.7.1.2.3.4.5.5.4.5.8.9,1.2,1.5.2.3.3.6.4,1,.1.3-.4.7-.5.6-.3,0-.3.3-.5.5,0,0-.1.1-.2.2-1.4-.4-2.7-.9-4-1.5l-2.4-1.6c-1.1-.8-2.3-1.7-2.5-1.9-.2-.2-.5-.4-.6-.7,0-.1-3.5-2.6-3.6-2.7-.7-.5-1.3-1.2-1.7-2,0-.2-.2-.3-.3-.4-1.1-1-2.1-2.1-3.1-3.3-.5-.6-1.1-1.1-1.6-1.6,0-.1-.2-.2-.2-.4,0-.1-.2-.3-.3-.4-1.3-1.3-2.5-2.6-3.8-3.9-.3-.3-1.4-2-1.8-2.3-.2-.2-.5-1.2-.7-1.3Z"/>
  <path class="st7" d="M644.9,505.1c-.6-.2-.6-.9-.2-1.9.1-.3.7-.9.9-.9.4,0,.8,0,1.2.2.2,0,3,1.8,3.9,2.5.9.6,1.7,1.3,2.4,2.1,1.5,1.5,3,3.1,4.5,4.6.3.3.6.7.9,1.1.9,1.4,1.9,2.7,3.1,3.8.2.2.4.4.6.5.5.1,3.4,3.4,3.7,3.9.7,1.3,1.5,2.4,2.2,3.7,0,.2.3.3.2.6,0,.2,0,.5.1.7,0,.2.2.4.4.6.4.5.7,1,1,1.5.1.3.2.7.2,1,0,.3-.6.7-.7.6-.3,0-.4.3-.6.5,0,0-.1.1-.2.2-1.3-.5-2.5-1.2-3.7-1.9,0,0-.3-.2-.6-.6s-.8-.8-1.3-1.3c-1-1-2-2-2.2-2.1-.2-.2-.4-.5-.5-.8,0-.1-3-2.9-3.1-3-.6-.6-1.1-1.3-1.4-2.1,0-.2-.2-.3-.3-.4-1-1.1-1.9-2.2-2.7-3.3-.5-.6-1-1.1-1.5-1.6,0-.1-.1-.2-.2-.4,0-.2-.2-.3-.3-.4-1.2-1.2-2.2-2.6-3.6-3.8-.3-.2-1.3-2-1.6-2.3-.1-.3-.2-1.3-.5-1.4Z"/>
</svg>