<svg width="32" height="32" viewBox="0 0 32 32" fill="none" xmlns="http://www.w3.org/2000/svg">
<path fill-rule="evenodd" clip-rule="evenodd" d="M8.09448 25.1962C3.13645 20.8929 6.34281 11.3126 13.9667 12.518V13.4053C7.5282 13.1056 4.69406 20.7856 8.09448 25.1962ZM22.0005 8.57622C22.7838 9.20217 23.8641 9.66362 25.3533 9.75312V10.6224C23.7056 10.3169 22.6609 9.49803 22.0005 8.57622ZM19.933 4C19.933 4.32105 19.9735 4.66563 20.026 4.98011H16.988V20.112C16.988 20.8094 16.9164 21.4306 16.7731 21.9756C15.5349 24.7036 12.0316 24.3478 11.0619 22.4751C12.5037 23.3783 14.874 23.138 15.847 20.9955C15.9887 20.452 16.0604 19.8296 16.0604 19.1319V4H19.933Z" fill="#00F7EF"/>
<path fill-rule="evenodd" clip-rule="evenodd" d="M20.8594 4.9801V4.99954C20.8594 5.34987 20.9632 10.416 26.2786 10.7321C26.2786 15.4452 26.2811 10.7321 26.2811 14.646C25.8815 14.6698 22.7816 14.4459 20.8523 12.7252L20.8463 20.3455C20.8942 23.796 18.9734 27.1797 15.3773 27.8618C14.3698 28.0533 13.4614 28.0741 11.9396 27.7413C3.1668 25.1171 6.0825 12.1053 14.8906 13.4978C14.8906 17.6986 14.8931 13.4978 14.8931 17.6986C11.2529 17.1632 10.0369 20.1892 11.0039 22.358C11.8838 24.3313 15.5073 24.7594 16.7709 21.9748C16.914 21.4298 16.9856 20.8086 16.9858 20.1112V4.9801H20.8594Z" fill="black"/>
<path fill-rule="evenodd" clip-rule="evenodd" d="M13.9665 13.4053C14.2764 13.4187 14.5852 13.4497 14.8916 13.4981C14.8916 17.6988 14.8941 13.4981 14.8941 17.6988C11.2539 17.1635 10.0379 20.1895 11.0048 22.3583C11.0226 22.3977 11.0418 22.4371 11.0618 22.4751C10.629 22.2044 10.2809 21.8325 10.0784 21.3781C9.11276 19.2105 10.3288 16.1834 13.9676 16.7187C13.9676 12.8686 13.9665 16.0725 13.9665 13.4053ZM25.3523 10.6213C25.6586 10.6767 25.968 10.7133 26.2788 10.7308C26.2788 15.4438 26.2813 10.7308 26.2813 14.6446C25.8817 14.6684 22.7818 14.4446 20.8525 12.7238L20.8464 20.3441C20.8943 23.7946 18.9735 27.1783 15.3774 27.8604C14.3699 28.052 13.4615 28.0728 11.9398 27.74C10.2253 27.2273 8.95921 26.3167 8.09351 25.1946C8.86479 25.8649 9.83313 26.4073 11.0147 26.7615C12.5359 27.0929 13.4435 27.0713 14.451 26.8806C18.0479 26.1999 19.9687 22.8151 19.9222 19.3665L19.9268 11.7451C21.8561 13.4658 24.956 13.6911 25.3567 13.6659C25.3567 10.0309 25.3532 13.8356 25.3532 10.6213H25.3523ZM20.8593 4.9801V4.99954C20.8593 5.20536 20.8963 7.03475 22.0004 8.57621C20.6696 7.51153 20.194 5.97335 20.0259 4.9801H20.8593Z" fill="#FF004F"/>
</svg>
