<svg width="32" height="32" viewBox="0 0 32 32" fill="none" xmlns="http://www.w3.org/2000/svg">
<path d="M27.4704 10.2536C27.1902 9.22299 26.3815 8.41788 25.3462 8.13898C23.4838 7.6333 15.9879 7.6333 15.9879 7.6333C15.9879 7.6333 8.49191 7.64862 6.62947 8.15431C5.59421 8.4332 4.7855 9.23831 4.50536 10.269C3.94201 13.5636 3.72344 18.5836 4.52075 21.7464C4.80089 22.7771 5.6096 23.5822 6.64486 23.8611C8.5073 24.3668 16.0033 24.3668 16.0033 24.3668C16.0033 24.3668 23.4992 24.3668 25.3616 23.8611C26.3969 23.5822 27.2056 22.7771 27.4857 21.7464C28.0799 18.4472 28.2631 13.4302 27.4704 10.2536Z" fill="#FF0000"/>
<path d="M13.6021 19.5857L19.8205 15.9999L13.6021 12.4142V19.5857Z" fill="white"/>
</svg>
